<svg width="129" height="130" viewBox="0 0 129 130" fill="none" xmlns="http://www.w3.org/2000/svg">
<path d="M8.13891 121.011C6.27691 119.149 3.2585 119.149 1.3965 121.011C-0.4655 122.873 -0.4655 125.891 1.3965 127.753C3.2585 129.615 6.27691 129.615 8.13891 127.753C10.0009 125.891 10.0009 122.873 8.13891 121.011Z" fill="white"/>
<path d="M38.01 91.1406C36.148 89.2786 33.1296 89.2786 31.2676 91.1406C29.4056 93.0026 29.4056 96.021 31.2676 97.883C33.1296 99.745 36.148 99.745 38.01 97.883C39.872 96.021 39.872 93.0026 38.01 91.1406Z" fill="white"/>
<path d="M67.8596 61.27C65.9976 59.408 62.9792 59.408 61.1172 61.27C59.2552 63.132 59.2552 66.1504 61.1172 68.0124C62.9792 69.8744 65.9976 69.8744 67.8596 68.0124C69.7216 66.1504 69.7216 63.132 67.8596 61.27Z" fill="white"/>
<path d="M97.7307 31.4194C95.8687 29.5574 92.8503 29.5574 90.9883 31.4194C89.1263 33.2814 89.1263 36.2999 90.9883 38.1619C92.8503 40.0239 95.8687 40.0239 97.7307 38.1619C99.5927 36.2999 99.5927 33.2814 97.7307 31.4194Z" fill="white"/>
<path d="M120.859 8.29125C122.721 10.1532 125.74 10.1532 127.602 8.29125C129.464 6.42925 129.464 3.41084 127.602 1.54884C125.74 -0.313156 122.721 -0.313156 120.859 1.54884C118.997 3.41084 118.997 6.42925 120.859 8.29125Z" fill="white"/>
</svg>
