<svg width="1280" height="727" viewBox="0 0 1280 727" fill="none" xmlns="http://www.w3.org/2000/svg">
<g clip-path="url(#clip0_42_1315)">
<rect width="1280" height="727" fill="#001447"/>
<rect width="1284" height="721" fill="#011855"/>
<path opacity="0.94" d="M1230.05 195.365C1336.67 224.23 1446.5 161.199 1475.36 54.5773C1504.23 -52.0447 1441.2 -161.872 1334.58 -190.737C1227.96 -219.602 1118.13 -156.571 1089.26 -49.9493C1060.4 56.6726 1123.43 166.5 1230.05 195.365ZM1313.87 -114.261C1378.25 -96.8315 1416.32 -30.5072 1398.89 33.8735C1381.46 98.2542 1315.14 136.318 1250.75 118.889C1186.37 101.46 1148.31 35.1351 1165.74 -29.2455C1183.17 -93.6262 1249.49 -131.69 1313.87 -114.261Z" fill="url(#paint0_radial_42_1315)"/>
<g clip-path="url(#clip1_42_1315)" filter="url(#filter0_d_42_1315)">
<rect width="1280" height="477" transform="translate(0 721)" fill="#001447"/>
<path d="M997.824 849.02C1043.33 803.545 1043.33 729.815 997.824 684.34C952.318 638.865 878.537 638.865 833.03 684.34C787.523 729.815 787.523 803.545 833.03 849.02C878.537 894.495 952.318 894.495 997.824 849.02Z" fill="url(#paint1_radial_42_1315)" fill-opacity="0.3"/>
<path opacity="0.94" d="M101.706 645.12C36.8469 560.572 -84.2716 544.553 -168.829 609.339C-253.387 674.124 -269.354 795.175 -204.495 879.723C-139.636 964.271 -18.5176 980.291 66.0399 915.505C150.597 850.719 166.565 729.668 101.706 645.12ZM-143.845 833.255C-183.009 782.203 -173.366 709.1 -122.308 669.981C-71.2505 630.862 1.89283 640.536 41.0562 691.588C80.2196 742.64 70.5767 815.743 19.519 854.862C-31.5387 893.981 -104.682 884.307 -143.845 833.255Z" fill="url(#paint2_radial_42_1315)"/>
</g>
<path opacity="0.36" d="M1386.55 197.042C1406.2 219.433 1404.07 253.621 1381.8 273.377L926.372 677.685C904.094 697.466 870.102 695.349 850.45 672.958C830.798 650.567 832.926 616.379 855.202 596.623L1310.63 192.315C1332.91 172.534 1366.9 174.65 1386.53 197.04L1386.55 197.042Z" fill="url(#paint3_radial_42_1315)"/>
<path d="M518.656 542.762C519.672 543.778 519.672 545.426 518.656 546.442L399.444 665.654C398.428 666.67 396.78 666.67 395.764 665.654C394.748 664.638 394.748 662.99 395.764 661.974L514.976 542.762C515.992 541.746 517.64 541.746 518.656 542.762Z" fill="url(#paint4_linear_42_1315)" style="mix-blend-mode:overlay"/>
<path d="M122.552 106.445C121.282 105.175 119.223 105.175 117.953 106.445C116.682 107.715 116.682 109.774 117.953 111.044C119.223 112.314 121.282 112.314 122.552 111.044C123.822 109.774 123.822 107.715 122.552 106.445Z" fill="#05C0C7"/>
<path d="M142.927 86.069C141.657 84.7988 139.598 84.7988 138.328 86.069C137.057 87.3392 137.057 89.3982 138.328 90.6684C139.598 91.9386 141.657 91.9386 142.927 90.6684C144.197 89.3982 144.197 87.3392 142.927 86.069Z" fill="#05C0C7"/>
<path d="M163.29 65.6926C162.02 64.4224 159.961 64.4224 158.691 65.6926C157.421 66.9628 157.421 69.0218 158.691 70.292C159.961 71.5622 162.02 71.5622 163.29 70.292C164.561 69.0218 164.561 66.9628 163.29 65.6926Z" fill="#05C0C7"/>
<path d="M183.669 45.3286C182.399 44.0584 180.34 44.0584 179.07 45.3286C177.8 46.5988 177.8 48.6579 179.07 49.928C180.34 51.1982 182.399 51.1982 183.669 49.928C184.939 48.6579 184.939 46.5988 183.669 45.3286Z" fill="#05C0C7"/>
<path d="M199.445 29.5521C200.715 30.8223 202.774 30.8223 204.044 29.5521C205.314 28.2819 205.314 26.2228 204.044 24.9526C202.774 23.6825 200.715 23.6825 199.445 24.9526C198.175 26.2228 198.175 28.2819 199.445 29.5521Z" fill="#05C0C7"/>
<path d="M867.995 543.361C873.072 543.677 877.445 539.817 877.761 534.739C878.077 529.661 874.217 525.289 869.139 524.973C864.062 524.656 859.689 528.517 859.373 533.594C859.057 538.672 862.917 543.045 867.995 543.361Z" stroke="white" stroke-width="3.92" stroke-miterlimit="10"/>
<path d="M1260.71 189.866C1263.35 192.859 1263.06 197.436 1260.07 200.097L908.119 510.793C905.126 513.434 900.549 513.149 897.888 510.156C895.246 507.163 895.531 502.586 898.525 499.925L1250.48 189.229C1253.47 186.588 1258.05 186.873 1260.71 189.866Z" fill="url(#paint5_linear_42_1315)" style="mix-blend-mode:overlay"/>
<path d="M966.478 569.672C964.735 567.698 961.723 567.51 959.748 569.253C957.774 570.996 957.587 574.008 959.329 575.982C961.072 577.957 964.085 578.144 966.059 576.401C968.033 574.659 968.221 571.646 966.478 569.672Z" fill="#3B6DE9"/>
<path d="M998.146 541.716C996.403 539.742 993.391 539.554 991.416 541.297C989.442 543.039 989.255 546.052 990.997 548.026C992.74 550 995.753 550.188 997.727 548.445C999.701 546.702 999.888 543.69 998.146 541.716Z" fill="#3B6DE9"/>
<path d="M1029.79 513.758C1028.05 511.784 1025.04 511.597 1023.06 513.339C1021.09 515.082 1020.9 518.095 1022.65 520.069C1024.39 522.043 1027.4 522.23 1029.38 520.488C1031.35 518.745 1031.54 515.733 1029.79 513.758Z" fill="#3B6DE9"/>
<path d="M1061.46 485.82C1059.72 483.846 1056.71 483.659 1054.73 485.401C1052.76 487.144 1052.57 490.157 1054.31 492.131C1056.06 494.105 1059.07 494.293 1061.04 492.55C1063.02 490.807 1063.2 487.795 1061.46 485.82Z" fill="#3B6DE9"/>
<path d="M1085.98 464.175C1087.72 466.149 1090.74 466.336 1092.71 464.594C1094.69 462.851 1094.87 459.838 1093.13 457.864C1091.39 455.89 1088.37 455.702 1086.4 457.445C1084.43 459.188 1084.24 462.2 1085.98 464.175Z" fill="#3B6DE9"/>
</g>
<defs>
<filter id="filter0_d_42_1315" x="-30" y="695" width="1340" height="537" filterUnits="userSpaceOnUse" color-interpolation-filters="sRGB">
<feFlood flood-opacity="0" result="BackgroundImageFix"/>
<feColorMatrix in="SourceAlpha" type="matrix" values="0 0 0 0 0 0 0 0 0 0 0 0 0 0 0 0 0 0 127 0" result="hardAlpha"/>
<feOffset dy="4"/>
<feGaussianBlur stdDeviation="15"/>
<feComposite in2="hardAlpha" operator="out"/>
<feColorMatrix type="matrix" values="0 0 0 0 0.0862745 0 0 0 0 0.498039 0 0 0 0 0.988235 0 0 0 1 0"/>
<feBlend mode="normal" in2="BackgroundImageFix" result="effect1_dropShadow_42_1315"/>
<feBlend mode="normal" in="SourceGraphic" in2="effect1_dropShadow_42_1315" result="shape"/>
</filter>
<radialGradient id="paint0_radial_42_1315" cx="0" cy="0" r="1" gradientUnits="userSpaceOnUse" gradientTransform="translate(1212.66 156.073) rotate(-164.852) scale(414.966)">
<stop stop-color="#0A30A3"/>
<stop offset="1" stop-color="#00152A"/>
</radialGradient>
<radialGradient id="paint1_radial_42_1315" cx="0" cy="0" r="1" gradientUnits="userSpaceOnUse" gradientTransform="translate(647.892 960.713) rotate(-180) scale(801.608 801.052)">
<stop stop-color="#5BC7CE"/>
<stop offset="0.11" stop-color="#4198C0"/>
<stop offset="0.23" stop-color="#296BB3"/>
<stop offset="0.34" stop-color="#184AAA"/>
<stop offset="0.43" stop-color="#0D37A5"/>
<stop offset="0.49" stop-color="#0A30A3"/>
<stop offset="1" stop-color="#00152A"/>
</radialGradient>
<radialGradient id="paint2_radial_42_1315" cx="0" cy="0" r="1" gradientUnits="userSpaceOnUse" gradientTransform="translate(92.0343 685.404) rotate(52.5071) scale(400.315 400.176)">
<stop stop-color="#0A30A3"/>
<stop offset="1" stop-color="#00152A"/>
</radialGradient>
<radialGradient id="paint3_radial_42_1315" cx="0" cy="0" r="1" gradientUnits="userSpaceOnUse" gradientTransform="translate(733.006 739.643) rotate(-131.263) scale(1621.98 1621.95)">
<stop stop-color="#5BC7CE"/>
<stop offset="0.11" stop-color="#4198C0"/>
<stop offset="0.23" stop-color="#296BB3"/>
<stop offset="0.34" stop-color="#184AAA"/>
<stop offset="0.43" stop-color="#0D37A5"/>
<stop offset="0.49" stop-color="#0A30A3"/>
<stop offset="1" stop-color="#00152A"/>
</radialGradient>
<linearGradient id="paint4_linear_42_1315" x1="478.106" y1="578.77" x2="398.362" y2="660.812" gradientUnits="userSpaceOnUse">
<stop offset="0.17" stop-color="#0A30A3"/>
<stop offset="1" stop-color="white"/>
</linearGradient>
<linearGradient id="paint5_linear_42_1315" x1="918.128" y1="513.086" x2="1148.91" y2="314.544" gradientUnits="userSpaceOnUse">
<stop stop-color="#0A30A3" stop-opacity="0.31"/>
<stop offset="1" stop-color="white" stop-opacity="0"/>
</linearGradient>
<clipPath id="clip0_42_1315">
<rect width="1280" height="727" fill="white"/>
</clipPath>
<clipPath id="clip1_42_1315">
<rect width="1280" height="477" fill="white" transform="translate(0 721)"/>
</clipPath>
</defs>
</svg>
