<svg width="678" height="1752" viewBox="0 0 678 1752" fill="none" xmlns="http://www.w3.org/2000/svg">
<g clip-path="url(#clip0_58_3844)">
<rect width="678" height="1752" fill="#001447"/>
<path d="M-79.6051 -255.677C-140.024 -228.436 -166.918 -157.378 -139.677 -96.9591C-112.436 -36.5403 -41.378 -9.64608 19.0408 -36.8872C79.4597 -64.1283 106.354 -135.186 79.1128 -195.605C51.8717 -256.024 -19.1863 -282.918 -79.6051 -255.677ZM-0.498128 -80.2232C-36.9804 -63.7745 -79.8922 -80.0158 -96.341 -116.498C-112.79 -152.98 -96.5484 -195.892 -60.0661 -212.341C-23.5839 -228.79 19.3279 -212.548 35.7767 -176.066C52.2255 -139.584 35.9841 -96.672 -0.498128 -80.2232Z" fill="url(#paint0_radial_58_3844)"/>
<path d="M678 0H0V1752H678V0Z" fill="url(#paint1_linear_58_3844)"/>
<path style="mix-blend-mode:overlay" d="M-57.7138 1665.7C-59.4287 1663.99 -59.4287 1661.21 -57.7138 1659.49L143.492 1458.29C145.207 1456.57 147.988 1456.57 149.703 1458.29C151.418 1460 151.418 1462.78 149.703 1464.5L-51.5029 1665.7C-53.2178 1667.42 -55.9988 1667.42 -57.7138 1665.7Z" fill="url(#paint2_linear_58_3844)"/>
<path d="M2.01391 950.988C0.151905 949.126 -2.8665 949.126 -4.7285 950.988C-6.5905 952.85 -6.5905 955.869 -4.7285 957.731C-2.8665 959.593 0.151905 959.593 2.01391 957.731C3.87591 955.869 3.87591 952.85 2.01391 950.988Z" fill="white" fill-opacity="0.5"/>
<path d="M31.8577 921.117C29.9957 919.255 26.9772 919.255 25.1152 921.117C23.2532 922.979 23.2532 925.998 25.1152 927.86C26.9772 929.722 29.9957 929.722 31.8577 927.86C33.7197 925.998 33.7197 922.979 31.8577 921.117Z" fill="white" fill-opacity="0.5"/>
<path d="M61.7327 891.267C59.8707 889.405 56.8522 889.405 54.9902 891.267C53.1282 893.129 53.1282 896.147 54.9902 898.009C56.8522 899.871 59.8707 899.871 61.7327 898.009C63.5947 896.147 63.5947 893.129 61.7327 891.267Z" fill="white" fill-opacity="0.5"/>
<path d="M84.8574 868.139C86.7194 870.001 89.7378 870.001 91.5998 868.139C93.4618 866.277 93.4618 863.258 91.5998 861.396C89.7378 859.534 86.7194 859.534 84.8574 861.396C82.9954 863.258 82.9954 866.277 84.8574 868.139Z" fill="white" fill-opacity="0.5"/>
<path d="M501.305 48.6802L470.985 36.0659" stroke="#1E6AC6" stroke-opacity="0.6" stroke-width="8.4" stroke-linecap="round"/>
<path d="M462.906 32.7027L461.896 32.2822" stroke="#179F0C" stroke-opacity="0.6" stroke-width="8.4" stroke-linecap="round"/>
<path d="M444.484 71.2769L439.431 69.1745" stroke="#179F0C" stroke-opacity="0.6" stroke-width="8.4" stroke-linecap="round"/>
<path d="M437.648 36.4204L434.616 35.159" stroke="#179F0C" stroke-opacity="0.6" stroke-width="8.4" stroke-linecap="round"/>
<path d="M443.469 56.6265L442.025 56.0258" stroke="#179F0C" stroke-opacity="0.6" stroke-width="8.4" stroke-linecap="round"/>
<path d="M477.062 52.8189L448.764 41.0455" stroke="#1E6AC6" stroke-opacity="0.6" stroke-width="8.4" stroke-linecap="round"/>
<path d="M468.734 67.1382L451.553 59.9901" stroke="#1E6AC6" stroke-opacity="0.6" stroke-width="8.4" stroke-linecap="round"/>
<path d="M470.758 82.2095L453.577 75.0614" stroke="#1E6AC6" stroke-opacity="0.6" stroke-width="8.4" stroke-linecap="round"/>
<path d="M474.357 79.317C475.263 81.4757 474.258 83.9873 472.113 84.9268C469.968 85.8667 467.496 84.8786 466.59 82.72C466.471 82.4382 466.357 82.1534 466.248 81.8696C463.564 74.8834 463.841 67.4969 466.5 61.1053C469.16 54.7137 474.203 49.3102 481.051 46.2893C481.329 46.1669 481.611 46.0471 481.895 45.9331C489.132 43.0192 496.89 43.2847 503.582 46.0686C510.274 48.8529 515.93 54.1685 518.965 61.3555C519.084 61.6373 519.198 61.922 519.307 62.2058C521.991 69.192 521.714 76.5786 519.055 82.9701C516.395 89.3617 511.352 94.7652 504.505 97.7861C504.226 97.9094 503.944 98.0284 503.66 98.1424C501.49 99.0219 499.047 97.9648 498.202 95.781C497.357 93.5976 498.429 91.114 500.599 90.2345C500.811 90.1486 501.021 90.0599 501.227 89.9695C505.948 87.8867 509.428 84.1515 511.268 79.7304C513.107 75.3085 513.302 70.2064 511.453 65.391C511.372 65.1803 511.287 64.9686 511.198 64.7585C509.651 61.0957 507.113 58.1161 504.016 55.9997L496.67 73.657C495.761 75.842 493.281 76.8876 491.131 75.9931C488.981 75.0987 487.975 72.6026 488.884 70.4177L496.23 52.7604C492.546 52.0555 488.643 52.3554 484.955 53.8403C484.743 53.9261 484.532 54.0148 484.326 54.1053C479.606 56.1881 476.125 59.9232 474.286 64.3443C472.446 68.7662 472.25 73.868 474.101 78.6837C474.181 78.8945 474.267 79.1053 474.356 79.3163L474.357 79.317Z" fill="#1E6AC6" fill-opacity="0.9"/>
<path d="M627.672 154.076C570.966 188.913 553.239 263.119 588.076 319.825C622.913 376.531 697.119 394.258 753.825 359.421C810.531 324.584 828.258 250.378 793.421 193.672C758.584 136.966 684.378 119.239 627.672 154.076ZM728.838 318.748C694.597 339.784 649.785 329.078 628.749 294.838C607.714 260.597 618.419 215.785 652.66 194.749C686.9 173.714 731.713 184.419 752.748 218.66C773.784 252.9 763.078 297.713 728.838 318.748Z" fill="url(#paint3_radial_58_3844)"/>
<path style="mix-blend-mode:overlay" d="M893.269 730.719C896.895 734.345 896.895 740.226 893.269 743.852L467.852 1169.27C464.226 1172.9 458.345 1172.9 454.719 1169.27C451.093 1165.64 451.093 1159.76 454.719 1156.14L880.137 730.719C883.763 727.093 889.643 727.093 893.269 730.719Z" fill="url(#paint4_linear_58_3844)"/>
<path d="M926.333 796.117C929.155 798.939 929.155 803.526 926.333 806.368L594.368 1138.33C591.545 1141.16 586.959 1141.16 584.117 1138.33C581.294 1135.51 581.294 1130.92 584.117 1128.08L916.082 796.117C918.904 793.294 923.491 793.294 926.333 796.117Z" fill="url(#paint5_linear_58_3844)" style="mix-blend-mode:overlay"/>
</g>
<defs>
<radialGradient id="paint0_radial_58_3844" cx="0" cy="0" r="1" gradientUnits="userSpaceOnUse" gradientTransform="translate(-56.5767 -244.088) rotate(-24.2692) scale(248.98)">
<stop stop-color="#0A30A3"/>
<stop offset="1" stop-color="#00152A"/>
</radialGradient>
<linearGradient id="paint1_linear_58_3844" x1="136.234" y1="-478.146" x2="1091.42" y2="-126.261" gradientUnits="userSpaceOnUse">
<stop stop-color="#0A30A3"/>
<stop offset="0.709375" stop-color="#001447"/>
</linearGradient>
<linearGradient id="paint2_linear_58_3844" x1="10.7267" y1="1604.93" x2="145.319" y2="1466.46" gradientUnits="userSpaceOnUse">
<stop offset="0.17" stop-color="#0A30A3"/>
<stop offset="1" stop-color="white"/>
</linearGradient>
<radialGradient id="paint3_radial_58_3844" cx="0" cy="0" r="1" gradientUnits="userSpaceOnUse" gradientTransform="translate(652.087 162.683) rotate(-31.5643) scale(250.017)">
<stop stop-color="#0A30A3"/>
<stop offset="1" stop-color="#00152A"/>
</radialGradient>
<linearGradient id="paint4_linear_58_3844" x1="748.563" y1="859.237" x2="492.312" y2="1171.19" gradientUnits="userSpaceOnUse">
<stop offset="0.17" stop-color="#0A30A3"/>
<stop offset="1" stop-color="white"/>
</linearGradient>
<linearGradient id="paint5_linear_58_3844" x1="604.5" y1="1140" x2="822.5" y2="927.5" gradientUnits="userSpaceOnUse">
<stop stop-color="#0A30A3" stop-opacity="0.31"/>
<stop offset="1" stop-color="white" stop-opacity="0"/>
</linearGradient>
<clipPath id="clip0_58_3844">
<rect width="678" height="1752" fill="white"/>
</clipPath>
</defs>
</svg>
