<svg width="968" height="1752" viewBox="0 0 968 1752" fill="none" xmlns="http://www.w3.org/2000/svg">
<g clip-path="url(#clip0_47_1870)">
<rect width="968" height="1752" fill="#001447"/>
<path d="M968 0H0V1752H968V0Z" fill="url(#paint0_linear_47_1870)"/>
<path d="M846.309 48.6807L815.989 36.0664" stroke="#1E6AC6" stroke-opacity="0.6" stroke-width="8.4" stroke-linecap="round"/>
<path d="M807.906 32.7031L806.896 32.2826" stroke="#179F0C" stroke-opacity="0.6" stroke-width="8.4" stroke-linecap="round"/>
<path d="M789.484 71.2773L784.431 69.175" stroke="#179F0C" stroke-opacity="0.6" stroke-width="8.4" stroke-linecap="round"/>
<path d="M782.648 36.4209L779.616 35.1595" stroke="#179F0C" stroke-opacity="0.6" stroke-width="8.4" stroke-linecap="round"/>
<path d="M788.469 56.627L787.025 56.0263" stroke="#179F0C" stroke-opacity="0.6" stroke-width="8.4" stroke-linecap="round"/>
<path d="M822.062 52.8193L793.764 41.046" stroke="#1E6AC6" stroke-opacity="0.6" stroke-width="8.4" stroke-linecap="round"/>
<path d="M813.734 67.1387L796.553 59.9906" stroke="#1E6AC6" stroke-opacity="0.6" stroke-width="8.4" stroke-linecap="round"/>
<path d="M815.762 82.21L798.581 75.0619" stroke="#1E6AC6" stroke-opacity="0.6" stroke-width="8.4" stroke-linecap="round"/>
<path d="M819.357 79.3175C820.263 81.4761 819.258 83.9878 817.113 84.9273C814.968 85.8672 812.496 84.8791 811.59 82.7205C811.471 82.4386 811.357 82.1539 811.248 81.8701C808.564 74.8839 808.841 67.4974 811.5 61.1058C814.16 54.7142 819.203 49.3107 826.051 46.2898C826.329 46.1673 826.611 46.0476 826.895 45.9335C834.132 43.0197 841.89 43.2852 848.582 46.0691C855.274 48.8534 860.93 54.169 863.965 61.3559C864.084 61.6377 864.198 61.9225 864.307 62.2063C866.991 69.1925 866.714 76.579 864.055 82.9706C861.395 89.3622 856.352 94.7657 849.505 97.7866C849.226 97.9099 848.944 98.0288 848.66 98.1428C846.49 99.0224 844.047 97.9653 843.202 95.7815C842.357 93.5981 843.429 91.1145 845.599 90.2349C845.811 90.1491 846.021 90.0604 846.227 89.9699C850.948 87.8871 854.428 84.152 856.268 79.7309C858.107 75.309 858.302 70.2069 856.453 65.3915C856.372 65.1807 856.287 64.9691 856.198 64.7589C854.651 61.0962 852.113 58.1165 849.016 56.0002L841.67 73.6575C840.761 75.8424 838.281 76.8881 836.131 75.9936C833.981 75.0992 832.975 72.6031 833.884 70.4182L841.23 52.7608C837.546 52.0559 833.643 52.3558 829.955 53.8407C829.743 53.9266 829.532 54.0153 829.326 54.1057C824.606 56.1885 821.125 59.9237 819.286 64.3448C817.446 68.7667 817.25 73.8684 819.101 78.6842C819.181 78.8949 819.267 79.1057 819.356 79.3167L819.357 79.3175Z" fill="#1E6AC6" fill-opacity="0.9"/>
<path d="M886.672 209.076C829.966 243.913 812.239 318.119 847.076 374.825C881.913 431.531 956.119 449.258 1012.83 414.421C1069.53 379.584 1087.26 305.378 1052.42 248.672C1017.58 191.966 943.378 174.239 886.672 209.076ZM987.838 373.748C953.597 394.783 908.785 384.078 887.749 349.838C866.714 315.597 877.419 270.784 911.66 249.749C945.9 228.714 990.713 239.419 1011.75 273.659C1032.78 307.9 1022.08 352.713 987.838 373.748Z" fill="url(#paint1_radial_47_1870)"/>
<path style="mix-blend-mode:overlay" d="M-66.7138 1665.7C-68.4287 1663.99 -68.4287 1661.21 -66.7138 1659.49L134.492 1458.29C136.207 1456.57 138.988 1456.57 140.703 1458.29C142.418 1460 142.418 1462.78 140.703 1464.5L-60.5029 1665.7C-62.2178 1667.42 -64.9988 1667.42 -66.7138 1665.7Z" fill="url(#paint2_linear_47_1870)"/>
<path d="M22.8577 921.117C20.9957 919.255 17.9772 919.255 16.1152 921.117C14.2532 922.979 14.2532 925.998 16.1152 927.86C17.9772 929.722 20.9957 929.722 22.8577 927.86C24.7197 925.998 24.7197 922.979 22.8577 921.117Z" fill="white" fill-opacity="0.5"/>
<path d="M52.7287 891.267C50.8667 889.405 47.8483 889.405 45.9863 891.267C44.1243 893.129 44.1243 896.147 45.9863 898.009C47.8483 899.871 50.8667 899.871 52.7287 898.009C54.5907 896.147 54.5907 893.129 52.7287 891.267Z" fill="white" fill-opacity="0.5"/>
<path d="M75.8574 868.139C77.7194 870.001 80.7378 870.001 82.5998 868.139C84.4618 866.277 84.4618 863.258 82.5998 861.396C80.7378 859.534 77.7194 859.534 75.8574 861.396C73.9954 863.258 73.9954 866.277 75.8574 868.139Z" fill="white" fill-opacity="0.5"/>
<path style="mix-blend-mode:overlay" d="M1101.27 709.719C1104.9 713.345 1104.9 719.226 1101.27 722.852L675.852 1148.27C672.226 1151.9 666.345 1151.9 662.719 1148.27C659.093 1144.64 659.093 1138.76 662.719 1135.14L1088.14 709.719C1091.76 706.093 1097.64 706.093 1101.27 709.719Z" fill="url(#paint3_linear_47_1870)"/>
<path d="M1206.33 735.117C1209.16 737.939 1209.16 742.526 1206.33 745.368L874.368 1077.33C871.545 1080.16 866.959 1080.16 864.117 1077.33C861.294 1074.51 861.294 1069.92 864.117 1067.08L1196.08 735.117C1198.9 732.294 1203.49 732.294 1206.33 735.117Z" fill="url(#paint4_linear_47_1870)" style="mix-blend-mode:overlay"/>
</g>
<defs>
<linearGradient id="paint0_linear_47_1870" x1="194.505" y1="-478.146" x2="1407.72" y2="159.96" gradientUnits="userSpaceOnUse">
<stop stop-color="#0A30A3"/>
<stop offset="0.709375" stop-color="#001447"/>
</linearGradient>
<radialGradient id="paint1_radial_47_1870" cx="0" cy="0" r="1" gradientUnits="userSpaceOnUse" gradientTransform="translate(911.087 217.682) rotate(-31.5643) scale(250.017)">
<stop stop-color="#0A30A3"/>
<stop offset="1" stop-color="#00152A"/>
</radialGradient>
<linearGradient id="paint2_linear_47_1870" x1="1.72674" y1="1604.93" x2="136.319" y2="1466.46" gradientUnits="userSpaceOnUse">
<stop offset="0.17" stop-color="#0A30A3"/>
<stop offset="1" stop-color="white"/>
</linearGradient>
<linearGradient id="paint3_linear_47_1870" x1="956.563" y1="838.237" x2="700.312" y2="1150.19" gradientUnits="userSpaceOnUse">
<stop offset="0.17" stop-color="#0A30A3"/>
<stop offset="1" stop-color="white"/>
</linearGradient>
<linearGradient id="paint4_linear_47_1870" x1="884.5" y1="1079" x2="1102.5" y2="866.5" gradientUnits="userSpaceOnUse">
<stop stop-color="#0A30A3" stop-opacity="0.31"/>
<stop offset="1" stop-color="white" stop-opacity="0"/>
</linearGradient>
<clipPath id="clip0_47_1870">
<rect width="968" height="1752" fill="white"/>
</clipPath>
</defs>
</svg>
