<svg width="968" height="603" viewBox="0 0 968 603" fill="none" xmlns="http://www.w3.org/2000/svg">
<g clip-path="url(#clip0_43_1600)">
<rect width="968" height="603" fill="#001447"/>
<path d="M968 -4.16772H0V603.119H968V-4.16772Z" fill="url(#paint0_linear_43_1600)"/>
<path d="M17 -144.156C-59.7698 -144.156 -122 -81.4831 -122 -4.16761C-122 73.1479 -59.7698 135.821 17 135.821C93.7697 135.821 156 73.1479 156 -4.16761C156 -81.4831 93.7697 -144.156 17 -144.156ZM17 80.3652C-29.3553 80.3652 -66.9361 42.5172 -66.9361 -4.16761C-66.9361 -50.8524 -29.3553 -88.7004 17 -88.7004C63.3553 -88.7004 100.936 -50.8524 100.936 -4.16761C100.936 42.5172 63.3553 80.3652 17 80.3652Z" fill="url(#paint1_radial_43_1600)"/>
<g filter="url(#filter0_d_43_1600)">
<rect y="-96" width="968" height="96" fill="#011855"/>
</g>
<path d="M773 521.04C773 527.991 767.402 533.628 760.5 533.628C753.598 533.628 748 527.991 748 521.04C748 514.088 753.598 508.451 760.5 508.451C767.402 508.451 773 514.088 773 521.04Z" stroke="#FF9149" stroke-width="3.92" stroke-miterlimit="10"/>
<path d="M456 39.965C456 36.7278 458.607 34.1024 461.821 34.1024C465.036 34.1024 467.642 36.7278 467.642 39.965C467.642 43.2023 465.036 45.8276 461.821 45.8276C458.607 45.8276 456 43.2023 456 39.965Z" stroke="#FF9149" stroke-width="3.92" stroke-miterlimit="10"/>
<path d="M852.404 111.426L810.619 65.9222C810.548 65.9877 810.471 66.0453 810.401 66.1107C810.33 66.1762 810.267 66.2495 810.197 66.315L851.983 111.818C852.053 111.753 852.13 111.695 852.201 111.63C852.271 111.564 852.334 111.491 852.404 111.426Z" fill="#FF9149"/>
<path d="M803.59 75.394C803.5 75.58 803.41 75.766 803.32 75.9595L841.906 117.979C842.097 117.911 842.288 117.827 842.487 117.752L803.59 75.394Z" fill="#FF9149"/>
<path d="M808.582 67.9797C808.448 68.1261 808.315 68.2649 808.189 68.4115L849.758 113.679C849.913 113.564 850.06 113.441 850.216 113.318L808.582 67.9797Z" fill="#FF9149"/>
<path d="M806.718 70.2336C806.599 70.3882 806.48 70.5427 806.361 70.7048L847.338 115.327C847.507 115.228 847.67 115.113 847.832 115.006L806.711 70.2258L806.718 70.2336Z" fill="#FF9149"/>
<path d="M802.362 78.3324C802.287 78.5341 802.211 78.7434 802.143 78.9454L838.851 118.92C839.064 118.868 839.27 118.808 839.475 118.748L802.362 78.3324Z" fill="#FF9149"/>
<path d="M805.049 72.6998C804.945 72.8701 804.84 73.0403 804.736 73.2181L844.73 116.771C844.907 116.68 845.084 116.588 845.268 116.497L805.049 72.6998Z" fill="#FF9149"/>
<path d="M862.082 88.565C862.078 88.2692 862.067 87.9731 862.056 87.6771L834.895 58.099C834.603 58.0648 834.311 58.0306 834.018 58.0039L862.089 88.5728L862.082 88.565Z" fill="#FF9149"/>
<path d="M831.845 119.857C832.101 119.852 832.358 119.84 832.606 119.834L800.758 85.1523C800.725 85.4087 800.701 85.6579 800.676 85.9146L831.845 119.857Z" fill="#FF9149"/>
<path d="M839.698 59.046C839.355 58.9491 839.005 58.8596 838.662 58.7778L861.671 83.8338C861.617 83.483 861.555 83.1243 861.486 82.7729L839.698 59.046Z" fill="#FF9149"/>
<path d="M801.394 81.5614C801.34 81.7867 801.293 82.0199 801.239 82.2528L835.507 119.569C835.741 119.541 835.968 119.504 836.203 119.468L801.394 81.5614Z" fill="#FF9149"/>
<path d="M846.01 61.6442C845.524 61.3749 845.022 61.1202 844.527 60.8809L860.047 77.7815C859.849 77.2582 859.635 76.7419 859.407 76.2326L846.01 61.6442Z" fill="#FF9149"/>
<path d="M830.764 57.8835C830.507 57.8886 830.251 57.9012 830.002 57.9066L861.851 92.5886C861.883 92.3322 861.908 92.0754 861.933 91.8262L830.764 57.8835Z" fill="#FF9149"/>
<path d="M827.094 58.1712C826.86 58.1999 826.633 58.2365 826.398 58.2727L861.207 96.1791C861.261 95.9539 861.308 95.7207 861.362 95.4878L827.094 58.1712Z" fill="#FF9149"/>
<path d="M800.938 93.907C800.992 94.2579 801.053 94.6166 801.122 94.968L822.911 118.695C823.253 118.792 823.596 118.881 823.946 118.963L800.938 93.907Z" fill="#FF9149"/>
<path d="M812.851 64.0618C812.696 64.177 812.548 64.3001 812.393 64.4228L854.027 109.761C854.16 109.615 854.294 109.476 854.42 109.329L812.851 64.0618Z" fill="#FF9149"/>
<path d="M800.534 89.1838C800.537 89.4795 800.548 89.7756 800.56 90.0717L827.721 119.65C828.013 119.684 828.305 119.718 828.598 119.745L800.527 89.1759L800.534 89.1838Z" fill="#FF9149"/>
<path d="M816.599 116.097C817.085 116.366 817.587 116.621 818.082 116.86L802.562 99.9594C802.76 100.483 802.973 100.999 803.202 101.508L816.599 116.097Z" fill="#FF9149"/>
<path d="M815.263 62.4133C815.094 62.5127 814.931 62.6276 814.769 62.735L855.89 107.515C856.009 107.36 856.128 107.206 856.247 107.044L815.27 62.4212L815.263 62.4133Z" fill="#FF9149"/>
<path d="M817.878 60.9773C817.702 61.0614 817.525 61.1605 817.341 61.2518L857.559 105.049C857.663 104.878 857.768 104.708 857.873 104.53L817.878 60.9773Z" fill="#FF9149"/>
<path d="M823.757 58.8207C823.545 58.873 823.339 58.9332 823.133 58.9933L860.246 99.4084C860.322 99.2067 860.398 98.9975 860.466 98.7955L823.757 58.8207Z" fill="#FF9149"/>
<path d="M820.702 59.7694C820.511 59.8377 820.32 59.9211 820.121 59.9967L859.018 102.354C859.108 102.168 859.198 101.982 859.289 101.789L820.702 59.7694Z" fill="#FF9149"/>
<path d="M-78.6051 308.361C-139.024 335.796 -165.918 407.359 -138.677 468.207C-111.436 529.055 -40.378 556.141 20.0409 528.706C80.4597 501.271 107.354 429.708 80.1128 368.86C52.8717 308.011 -18.1863 280.926 -78.6051 308.361ZM0.501876 485.062C-35.9804 501.628 -78.8922 485.271 -95.341 448.529C-111.79 411.788 -95.5484 368.571 -59.0661 352.005C-22.5839 335.439 20.3279 351.796 36.7767 388.538C53.2255 425.279 36.9841 468.496 0.501876 485.062Z" fill="url(#paint2_radial_43_1600)"/>
</g>
<defs>
<filter id="filter0_d_43_1600" x="-30" y="-126" width="1028" height="156" filterUnits="userSpaceOnUse" color-interpolation-filters="sRGB">
<feFlood flood-opacity="0" result="BackgroundImageFix"/>
<feColorMatrix in="SourceAlpha" type="matrix" values="0 0 0 0 0 0 0 0 0 0 0 0 0 0 0 0 0 0 127 0" result="hardAlpha"/>
<feOffset/>
<feGaussianBlur stdDeviation="15"/>
<feComposite in2="hardAlpha" operator="out"/>
<feColorMatrix type="matrix" values="0 0 0 0 0.0588235 0 0 0 0 0.227451 0 0 0 0 0.65098 0 0 0 1 0"/>
<feBlend mode="normal" in2="BackgroundImageFix" result="effect1_dropShadow_43_1600"/>
<feBlend mode="normal" in="SourceGraphic" in2="effect1_dropShadow_43_1600" result="shape"/>
</filter>
<linearGradient id="paint0_linear_43_1600" x1="207.5" y1="-181.942" x2="671.226" y2="539.725" gradientUnits="userSpaceOnUse">
<stop stop-color="#0A30A3"/>
<stop offset="0.609243" stop-color="#001447"/>
</linearGradient>
<radialGradient id="paint1_radial_43_1600" cx="0" cy="0" r="1" gradientUnits="userSpaceOnUse" gradientTransform="translate(35.7998 -120.79) scale(288.401 290.452)">
<stop stop-color="#0A30A3"/>
<stop offset="1" stop-color="#00152A"/>
</radialGradient>
<radialGradient id="paint2_radial_43_1600" cx="0" cy="0" r="1" gradientUnits="userSpaceOnUse" gradientTransform="translate(-55.5767 320.032) rotate(-24.4217) scale(249.28 250.448)">
<stop stop-color="#0A30A3"/>
<stop offset="1" stop-color="#00152A"/>
</radialGradient>
<clipPath id="clip0_43_1600">
<rect width="968" height="603" fill="white"/>
</clipPath>
</defs>
</svg>
