<svg width="1280" height="1559" viewBox="0 0 1280 1559" fill="none" xmlns="http://www.w3.org/2000/svg">
<g clip-path="url(#clip0_42_763)">
<rect width="1280" height="1559" fill="#001447"/>
<path d="M1440 -618H0V4H1440V-618Z" fill="url(#paint0_linear_42_763)"/>
<rect y="2" width="1280" height="1557" fill="#011855"/>
<path style="mix-blend-mode:overlay" d="M1504.27 296.719C1507.9 300.345 1507.9 306.226 1504.27 309.852L1078.85 735.269C1075.23 738.895 1069.35 738.895 1065.72 735.269C1062.09 731.643 1062.09 725.763 1065.72 722.137L1491.14 296.719C1494.76 293.094 1500.64 293.094 1504.27 296.719Z" fill="url(#paint1_linear_42_763)"/>
<path d="M1505.33 385.117C1508.16 387.939 1508.16 392.526 1505.33 395.368L1173.37 727.333C1170.55 730.155 1165.96 730.155 1163.12 727.333C1160.29 724.51 1160.29 719.924 1163.12 717.082L1495.08 385.117C1497.9 382.294 1502.49 382.294 1505.33 385.117Z" fill="url(#paint2_linear_42_763)" style="mix-blend-mode:overlay"/>
<path d="M109.732 641.268C108.649 640.185 106.895 640.185 105.812 641.268C104.729 642.351 104.729 644.105 105.812 645.188C106.895 646.271 108.649 646.271 109.732 645.188C110.815 644.105 110.815 642.351 109.732 641.268Z" fill="white" fill-opacity="0.5"/>
<path d="M127.099 623.901C126.017 622.818 124.262 622.818 123.179 623.901C122.097 624.983 122.097 626.738 123.179 627.821C124.262 628.903 126.017 628.903 127.099 627.821C128.182 626.738 128.182 624.983 127.099 623.901Z" fill="white" fill-opacity="0.5"/>
<path d="M144.455 606.534C143.372 605.451 141.617 605.451 140.535 606.534C139.452 607.616 139.452 609.371 140.535 610.454C141.617 611.536 143.372 611.536 144.455 610.454C145.537 609.371 145.537 607.616 144.455 606.534Z" fill="white" fill-opacity="0.5"/>
<path d="M161.822 589.178C160.739 588.096 158.984 588.096 157.902 589.178C156.819 590.261 156.819 592.016 157.902 593.098C158.984 594.181 160.739 594.181 161.822 593.098C162.904 592.016 162.904 590.261 161.822 589.178Z" fill="white" fill-opacity="0.5"/>
<path d="M175.269 575.732C176.352 576.815 178.106 576.815 179.189 575.732C180.272 574.649 180.272 572.895 179.189 571.812C178.106 570.729 176.352 570.729 175.269 571.812C174.186 572.895 174.186 574.649 175.269 575.732Z" fill="white" fill-opacity="0.5"/>
<path style="mix-blend-mode:overlay" d="M1009.29 1737.7C1007.57 1735.99 1007.57 1733.21 1009.29 1731.49L1210.49 1530.29C1212.21 1528.57 1214.99 1528.57 1216.7 1530.29C1218.42 1532 1218.42 1534.78 1216.7 1536.5L1015.5 1737.7C1013.78 1739.42 1011 1739.42 1009.29 1737.7Z" fill="url(#paint3_linear_42_763)"/>
</g>
<defs>
<linearGradient id="paint0_linear_42_763" x1="0" y1="-618" x2="1450.1" y2="-20.5021" gradientUnits="userSpaceOnUse">
<stop stop-color="#0A30A3"/>
<stop offset="0.585704" stop-color="#001447"/>
</linearGradient>
<linearGradient id="paint1_linear_42_763" x1="1359.56" y1="425.237" x2="1103.31" y2="737.19" gradientUnits="userSpaceOnUse">
<stop offset="0.17" stop-color="#0A30A3"/>
<stop offset="1" stop-color="white"/>
</linearGradient>
<linearGradient id="paint2_linear_42_763" x1="1183.5" y1="729" x2="1401.5" y2="516.5" gradientUnits="userSpaceOnUse">
<stop stop-color="#0A30A3" stop-opacity="0.31"/>
<stop offset="1" stop-color="white" stop-opacity="0"/>
</linearGradient>
<linearGradient id="paint3_linear_42_763" x1="1077.73" y1="1676.93" x2="1212.32" y2="1538.46" gradientUnits="userSpaceOnUse">
<stop offset="0.17" stop-color="#0A30A3"/>
<stop offset="1" stop-color="white"/>
</linearGradient>
<clipPath id="clip0_42_763">
<rect width="1280" height="1559" fill="white"/>
</clipPath>
</defs>
</svg>
