<svg width="678" height="905" viewBox="0 0 678 905" fill="none" xmlns="http://www.w3.org/2000/svg">
<g clip-path="url(#clip0_61_4113)">
<rect width="678" height="905" fill="#001447"/>
<path d="M0 905L678 905L678 0L0 0L0 905Z" fill="url(#paint0_linear_61_4113)"/>
<path d="M705.652 72.7621C706.668 73.7782 706.668 75.4259 705.652 76.442L586.44 195.654C585.424 196.67 583.776 196.67 582.76 195.654C581.744 194.638 581.744 192.99 582.76 191.974L701.972 72.7621C702.988 71.746 704.636 71.746 705.652 72.7621Z" fill="url(#paint1_linear_61_4113)" style="mix-blend-mode:overlay"/>
<g opacity="0.6">
<path d="M483.305 632.601L360.014 607.878" stroke="#1E6AC6" stroke-opacity="0.6" stroke-width="8.4" stroke-linecap="round"/>
<path d="M327.133 601.284L323.023 600.46" stroke="#179F0C" stroke-opacity="0.6" stroke-width="8.4" stroke-linecap="round"/>
<path d="M286.773 759.915L266.225 755.795" stroke="#179F0C" stroke-opacity="0.6" stroke-width="8.4" stroke-linecap="round"/>
<path d="M235.055 634.118L222.726 631.646" stroke="#179F0C" stroke-opacity="0.6" stroke-width="8.4" stroke-linecap="round"/>
<path d="M272 705.653L266.129 704.476" stroke="#179F0C" stroke-opacity="0.6" stroke-width="8.4" stroke-linecap="round"/>
<path d="M395.328 666.258L280.257 643.183" stroke="#1E6AC6" stroke-opacity="0.6" stroke-width="8.4" stroke-linecap="round"/>
<path d="M374.742 726.257L304.877 712.247" stroke="#1E6AC6" stroke-opacity="0.6" stroke-width="8.4" stroke-linecap="round"/>
<path d="M393.625 781.342L323.76 767.332" stroke="#1E6AC6" stroke-opacity="0.6" stroke-width="8.4" stroke-linecap="round"/>
<path d="M404.968 767.793C409.98 775.224 408.083 785.407 400.729 790.538C393.378 795.67 383.353 793.806 378.341 786.375C377.683 785.406 377.041 784.422 376.418 783.438C361.12 759.206 356.644 731.258 361.856 705.268C367.067 679.277 381.973 655.216 405.431 638.755C406.385 638.088 407.356 637.427 408.338 636.786C433.338 620.437 462.673 615.638 489.883 621.095C517.097 626.552 542.31 642.289 559.075 667.013C559.733 667.982 560.374 668.967 560.998 669.951C576.296 694.183 580.772 722.131 575.56 748.121C570.348 774.111 555.443 798.173 531.985 814.633C531.03 815.304 530.059 815.962 529.078 816.602C521.588 821.526 511.624 819.381 506.816 811.811C502.013 804.242 504.185 794.114 511.674 789.19C512.407 788.709 513.13 788.219 513.837 787.726C530.01 776.377 540.291 759.749 543.896 741.771C547.501 723.79 544.422 704.483 533.878 687.781C533.418 687.05 532.939 686.318 532.448 685.596C523.904 672.995 512.145 663.701 498.933 658.067L484.535 729.868C482.753 738.753 474.221 744.532 465.479 742.779C456.737 741.026 451.092 732.404 452.874 723.519L467.272 651.718C452.909 651.823 438.476 655.865 425.735 664.197C425.002 664.678 424.278 665.168 423.572 665.662C407.399 677.01 397.118 693.638 393.513 711.616C389.907 729.597 392.983 748.903 403.531 765.606C403.991 766.338 404.471 767.065 404.961 767.792L404.968 767.793Z" fill="#1E6AC6" fill-opacity="0.9"/>
</g>
<path d="M597.652 862.762C598.668 863.778 598.668 865.426 597.652 866.442L478.44 985.654C477.424 986.67 475.776 986.67 474.76 985.654C473.744 984.638 473.744 982.99 474.76 981.974L593.972 862.762C594.988 861.746 596.636 861.746 597.652 862.762Z" fill="url(#paint2_linear_61_4113)" style="mix-blend-mode:overlay"/>
</g>
<defs>
<linearGradient id="paint0_linear_61_4113" x1="569.488" y1="895.413" x2="-39.187" y2="505.392" gradientUnits="userSpaceOnUse">
<stop stop-color="#0A30A3"/>
<stop offset="0.520593" stop-color="#001447"/>
</linearGradient>
<linearGradient id="paint1_linear_61_4113" x1="665.102" y1="108.77" x2="585.358" y2="190.812" gradientUnits="userSpaceOnUse">
<stop offset="0.17" stop-color="#0A30A3"/>
<stop offset="1" stop-color="white"/>
</linearGradient>
<linearGradient id="paint2_linear_61_4113" x1="557.102" y1="898.77" x2="477.358" y2="980.812" gradientUnits="userSpaceOnUse">
<stop offset="0.17" stop-color="#0A30A3"/>
<stop offset="1" stop-color="white"/>
</linearGradient>
<clipPath id="clip0_61_4113">
<rect width="678" height="905" fill="white"/>
</clipPath>
</defs>
</svg>
