<svg width="968" height="555" viewBox="0 0 968 555" fill="none" xmlns="http://www.w3.org/2000/svg">
<g clip-path="url(#clip0_53_2398)">
<rect width="968" height="555" fill="#001447"/>
<g clip-path="url(#clip1_53_2398)" filter="url(#filter0_d_53_2398)">
<rect width="968" height="1097" transform="translate(0 555)" fill="#001447"/>
<path d="M1093.33 519.117C1096.16 521.939 1096.16 526.526 1093.33 529.368L761.368 861.333C758.545 864.155 753.959 864.155 751.117 861.333C748.294 858.51 748.294 853.924 751.117 851.082L1083.08 519.117C1085.9 516.294 1090.49 516.294 1093.33 519.117Z" fill="url(#paint0_linear_53_2398)" style="mix-blend-mode:overlay"/>
<path d="M840.02 666.02C885.495 620.545 885.495 546.815 840.02 501.34C794.545 455.865 720.815 455.865 675.34 501.34C629.865 546.815 629.865 620.545 675.34 666.02C720.815 711.495 794.545 711.495 840.02 666.02Z" fill="url(#paint1_radial_53_2398)" fill-opacity="0.3"/>
</g>
<rect width="968" height="555" fill="#011855"/>
<path opacity="0.94" d="M1017.26 17.5996C921.234 17.5996 843.395 91.6045 843.395 182.9C843.395 274.195 921.234 348.2 1017.26 348.2C1113.29 348.2 1191.13 274.195 1191.13 182.9C1191.13 91.6045 1113.29 17.5996 1017.26 17.5996ZM1017.26 282.717C959.278 282.717 912.271 238.026 912.271 182.9C912.271 127.774 959.278 83.0822 1017.26 83.0822C1075.24 83.0822 1122.25 127.774 1122.25 182.9C1122.25 238.026 1075.24 282.717 1017.26 282.717Z" fill="url(#paint2_radial_53_2398)"/>
<path d="M904.656 -29.2379C905.672 -28.2218 905.672 -26.5741 904.656 -25.558L785.444 93.654C784.428 94.67 782.78 94.67 781.764 93.654C780.748 92.6379 780.748 90.9902 781.764 89.9741L900.976 -29.2379C901.992 -30.254 903.64 -30.254 904.656 -29.2379Z" fill="url(#paint3_linear_53_2398)" style="mix-blend-mode:overlay"/>
<g opacity="0.6">
<path d="M773.305 256.601L650.014 231.878" stroke="#1E6AC6" stroke-opacity="0.6" stroke-width="8.4" stroke-linecap="round"/>
<path d="M617.137 225.284L613.027 224.46" stroke="#179F0C" stroke-opacity="0.6" stroke-width="8.4" stroke-linecap="round"/>
<path d="M576.777 383.915L556.229 379.795" stroke="#179F0C" stroke-opacity="0.6" stroke-width="8.4" stroke-linecap="round"/>
<path d="M525.055 258.118L512.726 255.646" stroke="#179F0C" stroke-opacity="0.6" stroke-width="8.4" stroke-linecap="round"/>
<path d="M562.004 329.653L556.133 328.476" stroke="#179F0C" stroke-opacity="0.6" stroke-width="8.4" stroke-linecap="round"/>
<path d="M685.328 290.258L570.257 267.183" stroke="#1E6AC6" stroke-opacity="0.6" stroke-width="8.4" stroke-linecap="round"/>
<path d="M664.746 350.257L594.881 336.247" stroke="#1E6AC6" stroke-opacity="0.6" stroke-width="8.4" stroke-linecap="round"/>
<path d="M683.625 405.342L613.76 391.332" stroke="#1E6AC6" stroke-opacity="0.6" stroke-width="8.4" stroke-linecap="round"/>
<path d="M694.972 391.793C699.984 399.224 698.087 409.407 690.733 414.538C683.382 419.67 673.357 417.806 668.345 410.375C667.686 409.406 667.045 408.422 666.422 407.438C651.124 383.206 646.648 355.258 651.86 329.268C657.071 303.277 671.977 279.216 695.435 262.755C696.389 262.088 697.36 261.427 698.342 260.786C723.342 244.437 752.677 239.638 779.887 245.095C807.101 250.552 832.314 266.289 849.078 291.013C849.737 291.982 850.378 292.967 851.001 293.951C866.3 318.183 870.776 346.131 865.564 372.121C860.352 398.111 845.447 422.173 821.989 438.633C821.034 439.304 820.063 439.962 819.082 440.602C811.592 445.526 801.628 443.381 796.82 435.811C792.017 428.242 794.189 418.114 801.678 413.19C802.411 412.709 803.134 412.219 803.84 411.726C820.013 400.377 830.295 383.749 833.9 365.771C837.505 347.79 834.426 328.483 823.882 311.781C823.421 311.05 822.943 310.318 822.452 309.596C813.908 296.995 802.149 287.701 788.937 282.067L774.539 353.868C772.757 362.753 764.225 368.532 755.483 366.779C746.741 365.026 741.096 356.404 742.878 347.519L757.276 275.718C742.913 275.823 728.48 279.865 715.738 288.197C715.006 288.678 714.282 289.168 713.576 289.662C697.403 301.01 687.122 317.638 683.517 335.616C679.911 353.597 682.987 372.903 693.535 389.606C693.995 390.338 694.474 391.065 694.965 391.792L694.972 391.793Z" fill="#1E6AC6" fill-opacity="0.9"/>
</g>
</g>
<defs>
<filter id="filter0_d_53_2398" x="-30" y="529" width="1028" height="1157" filterUnits="userSpaceOnUse" color-interpolation-filters="sRGB">
<feFlood flood-opacity="0" result="BackgroundImageFix"/>
<feColorMatrix in="SourceAlpha" type="matrix" values="0 0 0 0 0 0 0 0 0 0 0 0 0 0 0 0 0 0 127 0" result="hardAlpha"/>
<feOffset dy="4"/>
<feGaussianBlur stdDeviation="15"/>
<feComposite in2="hardAlpha" operator="out"/>
<feColorMatrix type="matrix" values="0 0 0 0 0.0862745 0 0 0 0 0.498039 0 0 0 0 0.988235 0 0 0 1 0"/>
<feBlend mode="normal" in2="BackgroundImageFix" result="effect1_dropShadow_53_2398"/>
<feBlend mode="normal" in="SourceGraphic" in2="effect1_dropShadow_53_2398" result="shape"/>
</filter>
<linearGradient id="paint0_linear_53_2398" x1="771.5" y1="863" x2="989.5" y2="650.5" gradientUnits="userSpaceOnUse">
<stop stop-color="#0A30A3" stop-opacity="0.31"/>
<stop offset="1" stop-color="white" stop-opacity="0"/>
</linearGradient>
<radialGradient id="paint1_radial_53_2398" cx="0" cy="0" r="1" gradientUnits="userSpaceOnUse" gradientTransform="translate(490.331 777.713) rotate(-180) scale(801.052)">
<stop stop-color="#5BC7CE"/>
<stop offset="0.11" stop-color="#4198C0"/>
<stop offset="0.23" stop-color="#296BB3"/>
<stop offset="0.34" stop-color="#184AAA"/>
<stop offset="0.43" stop-color="#0D37A5"/>
<stop offset="0.49" stop-color="#0A30A3"/>
<stop offset="1" stop-color="#00152A"/>
</radialGradient>
<radialGradient id="paint2_radial_53_2398" cx="0" cy="0" r="1" gradientUnits="userSpaceOnUse" gradientTransform="translate(1040.78 45.1906) scale(360.744 342.97)">
<stop stop-color="#0A30A3"/>
<stop offset="1" stop-color="#00152A"/>
</radialGradient>
<linearGradient id="paint3_linear_53_2398" x1="864.106" y1="6.77009" x2="784.362" y2="88.8116" gradientUnits="userSpaceOnUse">
<stop offset="0.17" stop-color="#0A30A3"/>
<stop offset="1" stop-color="white"/>
</linearGradient>
<clipPath id="clip0_53_2398">
<rect width="968" height="555" fill="white"/>
</clipPath>
<clipPath id="clip1_53_2398">
<rect width="968" height="1097" fill="white" transform="translate(0 555)"/>
</clipPath>
</defs>
</svg>
