<svg width="100" height="30" viewBox="0 0 100 30" fill="none" xmlns="http://www.w3.org/2000/svg">
<g clip-path="url(#clip0_855_380)">
<path d="M96.4422 29.6296H3.50296C1.57185 29.6296 0 28.0533 0 26.1237V3.50074C0 1.57037 1.57185 0 3.50296 0H96.4422C98.3726 0 100 1.57037 100 3.50074V26.1237C100 28.0533 98.3726 29.6296 96.4422 29.6296Z" fill="#A6A6A6"/>
<path d="M99.2839 26.1244C99.2839 27.6918 98.0142 28.9614 96.4439 28.9614H3.50386C1.93423 28.9614 0.660156 27.6918 0.660156 26.1244V3.49992C0.660156 1.93325 1.93423 0.65918 3.50386 0.65918H96.4431C98.0142 0.65918 99.2831 1.93325 99.2831 3.49992L99.2839 26.1244Z" fill="#5489CA"/>
<path d="M22.3162 14.6548C22.2947 12.2674 24.271 11.1059 24.3613 11.0518C23.2421 9.41995 21.5073 9.19698 20.8976 9.17921C19.4406 9.02587 18.0273 10.0511 17.2851 10.0511C16.528 10.0511 15.3851 9.19402 14.1532 9.21921C12.568 9.24365 11.0851 10.1614 10.2717 11.5866C8.5932 14.4925 9.84505 18.7629 11.4532 21.1118C12.2576 22.2622 13.1976 23.5466 14.428 23.5014C15.6317 23.4518 16.0813 22.734 17.5339 22.734C18.9732 22.734 19.3954 23.5014 20.6502 23.4725C21.9421 23.4518 22.7554 22.317 23.5317 21.1562C24.4613 19.8377 24.8347 18.5392 24.8495 18.4725C24.8191 18.4622 22.3406 17.5162 22.3162 14.6548Z" fill="white"/>
<path d="M19.948 7.63387C20.5954 6.82424 21.0384 5.72276 20.9154 4.60498C19.9784 4.64646 18.8065 5.25313 18.1317 6.04498C17.5347 6.74276 17.0013 7.88646 17.1391 8.96202C18.1917 9.04054 19.2724 8.43091 19.948 7.63387Z" fill="white"/>
<path d="M39.7363 23.3363H38.0541L37.1326 20.4407H33.9296L33.0518 23.3363H31.4141L34.5874 13.4785H36.5474L39.7363 23.3363ZM36.8548 19.2259L36.0215 16.6518C35.9333 16.3889 35.7681 15.7696 35.5244 14.7948H35.4948C35.3978 15.2141 35.2415 15.8333 35.0267 16.6518L34.2081 19.2259H36.8548Z" fill="white"/>
<path d="M47.8979 19.6946C47.8979 20.9035 47.5713 21.8591 46.9179 22.5606C46.3327 23.185 45.6061 23.4968 44.7387 23.4968C43.8024 23.4968 43.1298 23.1605 42.7201 22.488H42.6905V26.2324H41.1113V18.568C41.1113 17.808 41.0913 17.028 41.0527 16.228H42.4416L42.5298 17.3546H42.5594C43.0861 16.5057 43.8853 16.082 44.9579 16.082C45.7964 16.082 46.4964 16.4131 47.0564 17.0761C47.6179 17.7398 47.8979 18.6124 47.8979 19.6946ZM46.289 19.7524C46.289 19.0605 46.1335 18.4902 45.8209 18.0413C45.4794 17.5731 45.0209 17.3391 44.4461 17.3391C44.0564 17.3391 43.7024 17.4694 43.3861 17.7265C43.069 17.9857 42.8616 18.3243 42.7646 18.7435C42.7157 18.9391 42.6913 19.0991 42.6913 19.225V20.4102C42.6913 20.9272 42.8498 21.3635 43.1668 21.7198C43.4838 22.0761 43.8957 22.2539 44.4024 22.2539C44.9972 22.2539 45.4601 22.0243 45.7913 21.5665C46.1231 21.108 46.289 20.5035 46.289 19.7524Z" fill="white"/>
<path d="M56.073 19.6946C56.073 20.9035 55.7463 21.8591 55.0922 22.5606C54.5078 23.185 53.7811 23.4968 52.9137 23.4968C51.9774 23.4968 51.3048 23.1605 50.8959 22.488H50.8663V26.2324H49.287V18.568C49.287 17.808 49.267 17.028 49.2285 16.228H50.6174L50.7056 17.3546H50.7352C51.2611 16.5057 52.0604 16.082 53.1337 16.082C53.9715 16.082 54.6715 16.4131 55.233 17.0761C55.7922 17.7398 56.073 18.6124 56.073 19.6946ZM54.4641 19.7524C54.4641 19.0605 54.3078 18.4902 53.9952 18.0413C53.6537 17.5731 53.1967 17.3391 52.6211 17.3391C52.2307 17.3391 51.8774 17.4694 51.5604 17.7265C51.2433 17.9857 51.0367 18.3243 50.9396 18.7435C50.8915 18.9391 50.8663 19.0991 50.8663 19.225V20.4102C50.8663 20.9272 51.0248 21.3635 51.3404 21.7198C51.6574 22.0754 52.0693 22.2539 52.5774 22.2539C53.1722 22.2539 53.6352 22.0243 53.9663 21.5665C54.2981 21.108 54.4641 20.5035 54.4641 19.7524Z" fill="white"/>
<path d="M65.2132 20.5718C65.2132 21.4103 64.9221 22.0925 64.3377 22.6192C63.6954 23.1947 62.8014 23.4821 61.6525 23.4821C60.5917 23.4821 59.7414 23.2777 59.0977 22.8681L59.4636 21.5518C60.1569 21.971 60.9177 22.1814 61.7465 22.1814C62.3414 22.1814 62.8043 22.0466 63.1369 21.7784C63.468 21.5103 63.6332 21.1503 63.6332 20.7014C63.6332 20.3014 63.4969 19.9644 63.2236 19.691C62.9517 19.4177 62.4977 19.1636 61.8636 18.9288C60.1377 18.2851 59.2754 17.3421 59.2754 16.1021C59.2754 15.2918 59.5777 14.6273 60.1828 14.1103C60.7858 13.5925 61.5902 13.334 62.5962 13.334C63.4932 13.334 64.2384 13.4903 64.8332 13.8021L64.4384 15.0895C63.8828 14.7873 63.2547 14.6362 62.5517 14.6362C61.9962 14.6362 61.5621 14.7732 61.251 15.0458C60.988 15.2895 60.8562 15.5866 60.8562 15.9384C60.8562 16.3281 61.0065 16.6503 61.3088 16.9036C61.5717 17.1377 62.0495 17.391 62.7428 17.6644C63.591 18.0058 64.214 18.4051 64.6147 18.8629C65.014 19.3192 65.2132 19.8903 65.2132 20.5718Z" fill="white"/>
<path d="M70.4363 17.4133H68.6956V20.8644C68.6956 21.7422 69.0022 22.1807 69.6171 22.1807C69.8993 22.1807 70.1333 22.1563 70.3185 22.1074L70.3622 23.3067C70.0511 23.423 69.6415 23.4815 69.1341 23.4815C68.5104 23.4815 68.023 23.2911 67.6711 22.9111C67.3208 22.5304 67.1445 21.8918 67.1445 20.9948V17.4118H66.1074V16.2267H67.1445V14.9252L68.6956 14.457V16.2267H70.4363V17.4133Z" fill="white"/>
<path d="M78.2903 19.7237C78.2903 20.8163 77.9778 21.7134 77.3541 22.4149C76.7 23.1371 75.8318 23.4971 74.7496 23.4971C73.7066 23.4971 72.8763 23.1512 72.257 22.4593C71.6378 21.7675 71.3281 20.8941 71.3281 19.8415C71.3281 18.74 71.6466 17.8378 72.2859 17.1363C72.9237 16.4341 73.7844 16.083 74.8666 16.083C75.9096 16.083 76.7489 16.4289 77.3822 17.1215C77.9881 17.7934 78.2903 18.6608 78.2903 19.7237ZM76.6518 19.7749C76.6518 19.1193 76.5118 18.5571 76.2281 18.0882C75.897 17.5208 75.4237 17.2378 74.8103 17.2378C74.1755 17.2378 73.6933 17.5215 73.3622 18.0882C73.0785 18.5578 72.9385 19.1289 72.9385 19.8045C72.9385 20.46 73.0785 21.0223 73.3622 21.4904C73.7037 22.0578 74.1807 22.3408 74.7963 22.3408C75.3992 22.3408 75.8726 22.0519 76.2141 21.4756C76.5052 20.9978 76.6518 20.4297 76.6518 19.7749Z" fill="white"/>
<path d="M83.4221 17.6168C83.2658 17.588 83.0991 17.5731 82.9243 17.5731C82.3688 17.5731 81.9391 17.7828 81.6369 18.2028C81.374 18.5731 81.2421 19.0413 81.2421 19.6065V23.3361H79.6636L79.6784 18.4665C79.6784 17.6472 79.6584 16.9013 79.6191 16.2287H80.9947L81.0525 17.5887H81.0962C81.2628 17.1213 81.5258 16.745 81.8858 16.4628C82.2377 16.2087 82.6177 16.082 83.0273 16.082C83.1732 16.082 83.3051 16.0924 83.4221 16.1109V17.6168Z" fill="white"/>
<path d="M90.485 19.4459C90.485 19.7288 90.4665 19.9674 90.4272 20.1622H85.6895C85.708 20.8644 85.9369 21.4014 86.3769 21.7718C86.7761 22.1029 87.2924 22.2688 87.9265 22.2688C88.628 22.2688 89.268 22.157 89.8435 21.9325L90.0909 23.0288C89.4183 23.3222 88.6243 23.4681 87.708 23.4681C86.6057 23.4681 85.7406 23.1437 85.1109 22.4955C84.4828 21.8474 84.168 20.977 84.168 19.8851C84.168 18.8133 84.4606 17.9207 85.0465 17.2088C85.6598 16.4488 86.4887 16.0688 87.5317 16.0688C88.5561 16.0688 89.3317 16.4488 89.8583 17.2088C90.2754 17.8126 90.485 18.5592 90.485 19.4459ZM88.9791 19.0363C88.9895 18.5681 88.8865 18.1637 88.6724 17.8222C88.3991 17.3829 87.9791 17.1637 87.4139 17.1637C86.8976 17.1637 86.4776 17.3777 86.1569 17.8074C85.8939 18.1488 85.7376 18.5585 85.6895 19.0355L88.9791 19.0363Z" fill="white"/>
<path d="M36.3343 7.41425C36.3343 8.2861 36.0728 8.9424 35.5506 9.38314C35.0669 9.78981 34.3794 9.99351 33.4891 9.99351C33.0476 9.99351 32.6698 9.97425 32.3535 9.93573V5.17203C32.7661 5.10536 33.2106 5.07129 33.6906 5.07129C34.5387 5.07129 35.178 5.25573 35.6091 5.62462C36.092 6.04166 36.3343 6.63796 36.3343 7.41425ZM35.5157 7.43573C35.5157 6.87055 35.3661 6.43721 35.0669 6.13499C34.7676 5.83351 34.3306 5.6824 33.755 5.6824C33.5106 5.6824 33.3024 5.6987 33.1298 5.73277V9.35425C33.2254 9.36907 33.4002 9.37573 33.6543 9.37573C34.2483 9.37573 34.7069 9.21055 35.0298 8.88018C35.3528 8.54981 35.5157 8.06833 35.5157 7.43573Z" fill="white"/>
<path d="M40.6739 8.17535C40.6739 8.71239 40.5206 9.15239 40.2139 9.49758C39.8924 9.85239 39.4665 10.0294 38.9346 10.0294C38.4221 10.0294 38.0139 9.8598 37.7095 9.51906C37.4058 9.17906 37.2539 8.75017 37.2539 8.23313C37.2539 7.69239 37.4102 7.24869 37.7243 6.90424C38.0383 6.5598 38.4606 6.38721 38.9924 6.38721C39.505 6.38721 39.9169 6.55684 40.2287 6.89684C40.525 7.22721 40.6739 7.65387 40.6739 8.17535ZM39.8687 8.20054C39.8687 7.87832 39.7991 7.60202 39.6606 7.37165C39.4976 7.09313 39.2658 6.95387 38.9643 6.95387C38.6524 6.95387 38.4154 7.09313 38.2524 7.37165C38.1132 7.60202 38.0443 7.88276 38.0443 8.21461C38.0443 8.53684 38.1139 8.81313 38.2524 9.0435C38.4206 9.32202 38.6546 9.46128 38.9569 9.46128C39.2532 9.46128 39.4858 9.3198 39.6532 9.0361C39.7969 8.80128 39.8687 8.52276 39.8687 8.20054Z" fill="white"/>
<path d="M46.4929 6.4585L45.4003 9.95035H44.6891L44.2366 8.43405C44.1217 8.05553 44.0284 7.67924 43.9558 7.3059H43.9417C43.8743 7.68961 43.781 8.06516 43.661 8.43405L43.1803 9.95035H42.461L41.4336 6.4585H42.2314L42.6262 8.1185C42.7217 8.51109 42.8003 8.88516 42.8632 9.23924H42.8773C42.9351 8.94738 43.0306 8.57553 43.1654 8.1259L43.661 6.45924H44.2936L44.7684 8.09035C44.8832 8.48813 44.9766 8.87109 45.0484 9.23998H45.0699C45.1225 8.88072 45.2017 8.49776 45.3069 8.09035L45.7306 6.45924H46.4929V6.4585Z" fill="white"/>
<path d="M50.5178 9.95044H49.7415V7.95044C49.7415 7.33414 49.5074 7.02599 49.0378 7.02599C48.8074 7.02599 48.6215 7.11044 48.477 7.28007C48.3341 7.4497 48.2615 7.6497 48.2615 7.87859V9.9497H47.4852V7.45637C47.4852 7.1497 47.4755 6.81711 47.457 6.45711H48.1393L48.1756 7.00303H48.197C48.2874 6.8334 48.4222 6.6934 48.5993 6.58155C48.8096 6.45118 49.0452 6.38525 49.303 6.38525C49.6289 6.38525 49.9 6.49044 50.1155 6.70155C50.3837 6.96007 50.5178 7.34599 50.5178 7.85859V9.95044Z" fill="white"/>
<path d="M52.6584 9.95052H51.8828V4.85645H52.6584V9.95052Z" fill="white"/>
<path d="M57.2286 8.17535C57.2286 8.71239 57.0753 9.15239 56.7686 9.49758C56.4471 9.85239 56.0204 10.0294 55.4893 10.0294C54.976 10.0294 54.5679 9.8598 54.2641 9.51906C53.9604 9.17906 53.8086 8.75017 53.8086 8.23313C53.8086 7.69239 53.9649 7.24869 54.279 6.90424C54.593 6.5598 55.0153 6.38721 55.5464 6.38721C56.0597 6.38721 56.4708 6.55684 56.7834 6.89684C57.0797 7.22721 57.2286 7.65387 57.2286 8.17535ZM56.4227 8.20054C56.4227 7.87832 56.353 7.60202 56.2145 7.37165C56.0523 7.09313 55.8197 6.95387 55.519 6.95387C55.2064 6.95387 54.9693 7.09313 54.8071 7.37165C54.6679 7.60202 54.599 7.88276 54.599 8.21461C54.599 8.53684 54.6686 8.81313 54.8071 9.0435C54.9753 9.32202 55.2093 9.46128 55.5116 9.46128C55.8079 9.46128 56.0397 9.3198 56.2071 9.0361C56.3516 8.80128 56.4227 8.52276 56.4227 8.20054Z" fill="white"/>
<path d="M60.9839 9.95017H60.2868L60.229 9.54795H60.2076C59.969 9.86869 59.629 10.0294 59.1876 10.0294C58.8579 10.0294 58.5913 9.9235 58.3905 9.71313C58.2083 9.52202 58.1172 9.28424 58.1172 9.00202C58.1172 8.57536 58.295 8.25017 58.6527 8.02498C59.0098 7.7998 59.512 7.68943 60.1587 7.69461V7.62943C60.1587 7.16943 59.9172 6.9398 59.4335 6.9398C59.089 6.9398 58.7853 7.02647 58.5231 7.19832L58.3653 6.68869C58.6898 6.48795 59.0905 6.38721 59.5631 6.38721C60.4757 6.38721 60.9335 6.86869 60.9335 7.83165V9.11758C60.9335 9.46647 60.9505 9.74424 60.9839 9.95017ZM60.1779 8.75017V8.21165C59.3216 8.19684 58.8935 8.43165 58.8935 8.91536C58.8935 9.09758 58.9424 9.23387 59.0424 9.32498C59.1424 9.4161 59.2698 9.46128 59.4216 9.46128C59.592 9.46128 59.7513 9.40721 59.8964 9.2998C60.0424 9.19165 60.132 9.05461 60.1653 8.88647C60.1735 8.84869 60.1779 8.80276 60.1779 8.75017Z" fill="white"/>
<path d="M65.3958 9.95052H64.7069L64.6706 9.38978H64.6492C64.4292 9.81644 64.0543 10.0298 63.5277 10.0298C63.1069 10.0298 62.7566 9.86459 62.4788 9.53422C62.201 9.20385 62.0625 8.77496 62.0625 8.2483C62.0625 7.68311 62.2129 7.22533 62.5151 6.8757C62.8077 6.54978 63.1662 6.38682 63.5929 6.38682C64.0618 6.38682 64.3899 6.54459 64.5766 6.86089H64.5914V4.85645H65.3684V9.00978C65.3684 9.34978 65.3773 9.66311 65.3958 9.95052ZM64.5914 8.47793V7.8957C64.5914 7.79496 64.584 7.71348 64.5699 7.65126C64.5262 7.46459 64.4321 7.30756 64.2892 7.18089C64.1447 7.05422 63.9706 6.99052 63.7699 6.99052C63.4803 6.99052 63.2536 7.10533 63.0869 7.3357C62.9218 7.56607 62.8381 7.86015 62.8381 8.21941C62.8381 8.56459 62.9173 8.84459 63.0766 9.06015C63.2447 9.28978 63.4714 9.40459 63.7551 9.40459C64.0099 9.40459 64.2136 9.30904 64.3684 9.11719C64.5181 8.94015 64.5914 8.72682 64.5914 8.47793Z" fill="white"/>
<path d="M72.0352 8.17535C72.0352 8.71239 71.8819 9.15239 71.5752 9.49758C71.2538 9.85239 70.8286 10.0294 70.296 10.0294C69.7841 10.0294 69.376 9.8598 69.0708 9.51906C68.7671 9.17906 68.6152 8.75017 68.6152 8.23313C68.6152 7.69239 68.7715 7.24869 69.0856 6.90424C69.3997 6.5598 69.8219 6.38721 70.3545 6.38721C70.8663 6.38721 71.2789 6.55684 71.5901 6.89684C71.8864 7.22721 72.0352 7.65387 72.0352 8.17535ZM71.2308 8.20054C71.2308 7.87832 71.1612 7.60202 71.0226 7.37165C70.8589 7.09313 70.6278 6.95387 70.3256 6.95387C70.0145 6.95387 69.7775 7.09313 69.6138 7.37165C69.4745 7.60202 69.4056 7.88276 69.4056 8.21461C69.4056 8.53684 69.4752 8.81313 69.6138 9.0435C69.7819 9.32202 70.016 9.46128 70.3182 9.46128C70.6145 9.46128 70.8478 9.3198 71.0152 9.0361C71.1582 8.80128 71.2308 8.52276 71.2308 8.20054Z" fill="white"/>
<path d="M76.2104 9.95044H75.4348V7.95044C75.4348 7.33414 75.2008 7.02599 74.7304 7.02599C74.5 7.02599 74.3141 7.11044 74.1704 7.28007C74.0267 7.4497 73.9548 7.6497 73.9548 7.87859V9.9497H73.1778V7.45637C73.1778 7.1497 73.1689 6.81711 73.1504 6.45711H73.8319L73.8682 7.00303H73.8897C73.9808 6.8334 74.1156 6.6934 74.2919 6.58155C74.503 6.45118 74.7378 6.38525 74.9963 6.38525C75.3215 6.38525 75.5926 6.49044 75.8082 6.70155C76.0771 6.96007 76.2104 7.34599 76.2104 7.85859V9.95044Z" fill="white"/>
<path d="M81.4333 7.03998H80.5785V8.73627C80.5785 9.16739 80.7303 9.38294 81.0311 9.38294C81.1703 9.38294 81.2859 9.37109 81.377 9.34664L81.397 9.93553C81.2437 9.99331 81.0422 10.0222 80.794 10.0222C80.4874 10.0222 80.2489 9.92887 80.0763 9.7422C79.9029 9.55553 79.817 9.24146 79.817 8.80072V7.03998H79.3066V6.4585H79.817V5.8185L80.5777 5.58887V6.45776H81.4326L81.4333 7.03998Z" fill="white"/>
<path d="M85.5443 9.95052H84.7673V7.96533C84.7673 7.33941 84.5332 7.02607 84.0643 7.02607C83.7043 7.02607 83.4584 7.20756 83.3236 7.57052C83.3006 7.64682 83.2873 7.74015 83.2873 7.84978V9.94978H82.5117V4.85645H83.2873V6.96089H83.3021C83.5465 6.57793 83.8969 6.38682 84.351 6.38682C84.6725 6.38682 84.9384 6.492 85.1495 6.70311C85.4125 6.96607 85.5443 7.35719 85.5443 7.87422V9.95052Z" fill="white"/>
<path d="M89.7822 8.03938C89.7822 8.17864 89.7718 8.29567 89.7533 8.39123H87.4251C87.4355 8.73641 87.5466 8.99938 87.7622 9.1816C87.9592 9.34456 88.2133 9.42604 88.5244 9.42604C88.8688 9.42604 89.1829 9.37123 89.4659 9.26086L89.5874 9.80012C89.2563 9.94382 88.8666 10.0157 88.4155 10.0157C87.8748 10.0157 87.4488 9.85641 87.1407 9.5379C86.8311 9.21938 86.6777 8.79197 86.6777 8.25567C86.6777 7.72901 86.8207 7.29049 87.1088 6.94086C87.4096 6.56753 87.8163 6.38086 88.3296 6.38086C88.8318 6.38086 89.2133 6.56753 89.4711 6.94086C89.6792 7.23716 89.7822 7.60382 89.7822 8.03938ZM89.0414 7.83864C89.0474 7.60827 88.9963 7.40975 88.8911 7.24234C88.7563 7.02679 88.5511 6.91864 88.2733 6.91864C88.02 6.91864 87.8133 7.02382 87.6555 7.23493C87.5266 7.40308 87.4503 7.60382 87.4251 7.83864H89.0414Z" fill="white"/>
</g>
<defs>
<clipPath id="clip0_855_380">
<rect width="100" height="29.6296" fill="white"/>
</clipPath>
</defs>
</svg>
