<svg width="12" height="12" viewBox="0 0 12 12" fill="none" xmlns="http://www.w3.org/2000/svg">
<path d="M8.73042 5.42333L4.23024 1.67317C4.07725 1.54662 3.88036 1.48586 3.68267 1.50418C3.48498 1.5225 3.3026 1.61842 3.17548 1.77093C3.04836 1.92343 2.98686 2.1201 3.00443 2.31785C3.02201 2.51561 3.11724 2.69835 3.26926 2.82604L7.07801 5.99979L3.26926 9.17354C3.11665 9.30106 3.0209 9.48394 3.00304 9.68201C2.98517 9.88007 3.04666 10.0771 3.174 10.2299C3.30133 10.3827 3.48409 10.4786 3.68214 10.4967C3.88019 10.5148 4.07732 10.4536 4.23024 10.3264L8.73042 6.5762C8.81481 6.50571 8.88268 6.41754 8.92926 6.31794C8.97583 6.21834 8.99997 6.10972 8.99997 5.99977C8.99997 5.88981 8.97583 5.7812 8.92926 5.68159C8.88268 5.58199 8.81481 5.49383 8.73042 5.42333Z" fill="white" fill-opacity="0.5"/>
</svg>
