<svg width="109" height="151" viewBox="0 0 109 151" fill="none" xmlns="http://www.w3.org/2000/svg">
<path d="M106.401 50.3458C108.801 47.9457 108.801 44.0543 106.401 41.6542L67.2895 2.54239C64.8894 0.142295 60.998 0.142295 58.5979 2.54239C56.1979 4.94249 56.1979 8.83382 58.598 11.2339L93.364 46L58.598 80.7661C56.1979 83.1662 56.1979 87.0575 58.598 89.4576C60.9981 91.8577 64.8894 91.8577 67.2895 89.4576L106.401 50.3458ZM7 52.1458L102.056 52.1458L102.056 39.8542L7 39.8542L7 52.1458Z" fill="white"/>
<path d="M2.59869 109.346C0.198585 106.946 0.198586 103.054 2.59869 100.654L41.7105 61.5424C44.1106 59.1423 48.002 59.1423 50.4021 61.5424C52.8021 63.9425 52.8021 67.8338 50.402 70.2339L15.636 105L50.402 139.766C52.8021 142.166 52.8021 146.058 50.402 148.458C48.0019 150.858 44.1106 150.858 41.7105 148.458L2.59869 109.346ZM102 111.146L6.94444 111.146L6.94444 98.8542L102 98.8542L102 111.146Z" fill="white"/>
</svg>
