<svg width="260" height="50" viewBox="0 0 260 50" fill="none" xmlns="http://www.w3.org/2000/svg">
<path d="M105.016 25.0003C105.016 38.807 93.5503 49.9999 79.4069 49.9999C65.2634 49.9999 53.7979 38.807 53.7979 25.0003C53.7979 11.1945 65.2644 0.000728751 79.4069 0.000728751C93.5497 0.000728751 105.016 11.1939 105.016 25.0003ZM202.296 35.9276C203.259 34.5828 205.155 34.2541 206.533 35.1938C207.911 36.1332 208.247 37.9847 207.285 39.3296C206.825 39.9711 206.374 40.5497 205.934 41.0634C201.103 46.6918 193.97 49.9999 186.346 49.9999C172.15 49.9999 160.769 38.7477 160.776 24.9219C160.776 11.1879 172.291 0.00104601 186.346 0.00104601C196.803 0.00104601 206.039 6.17837 209.965 15.4448C211.234 18.441 211.906 21.6843 211.906 25.0003C211.906 26.6659 210.506 27.9832 208.827 27.9832H167.124C168.603 37.1824 176.727 44.0348 186.346 44.0348C192.154 44.0348 197.588 41.5167 201.255 37.242C201.656 36.7747 202.004 36.3362 202.296 35.9279V35.9276ZM167.124 22.0178H205.578C205.337 20.5343 204.917 19.0866 204.332 17.705C201.35 10.6647 194.277 5.96612 186.346 5.96612C176.727 5.96612 168.603 12.8183 167.123 22.0178H167.124ZM131.155 6.03814C129.474 6.17995 127.994 4.96422 127.849 3.32337C127.704 1.68283 128.949 0.238037 130.63 0.0962233C145.481 -1.17217 158.467 10.258 158.467 25C158.467 31.3972 155.967 37.7953 150.966 42.6766C149.773 43.8416 147.839 43.8416 146.646 42.6769L117.079 13.8138C114.6 17.1377 113.36 21.0688 113.36 25C113.36 36.2341 123.227 44.9295 134.561 43.9618C136.242 43.8203 137.723 45.0354 137.868 46.6763C138.013 48.3171 136.768 49.7623 135.087 49.9038C120.218 51.1731 107.249 39.7277 107.249 25C107.249 18.6025 109.75 12.2047 114.75 7.32335C115.943 6.15838 117.878 6.15838 119.071 7.32303L148.638 36.1862C151.117 32.8619 152.357 28.9311 152.357 25C152.357 13.7583 142.476 5.07146 131.155 6.03782L131.155 6.03814ZM219.843 15.4829C219 16.9052 217.135 17.3902 215.678 16.5663C214.222 15.743 213.724 13.9223 214.568 12.5004C215.69 10.6041 217.058 8.87093 218.644 7.32335C223.649 2.44171 230.203 0.000728751 236.753 0.000728751C243.303 0.000728751 249.856 2.44171 254.861 7.32335C256.447 8.87062 257.815 10.6047 258.937 12.5004C259.78 13.9223 259.283 15.743 257.827 16.5663C256.37 17.3902 254.505 16.9048 253.662 15.4829C252.813 14.0483 251.765 12.7123 250.564 11.5407C247.533 8.5835 243.748 6.80305 239.808 6.19867V47.017C239.808 48.6642 238.44 49.9996 236.753 49.9996C235.065 49.9996 233.697 48.6642 233.697 47.017V6.19867C229.757 6.80305 225.973 8.5835 222.941 11.5407C221.741 12.712 220.693 14.0483 219.844 15.4829H219.843ZM12.1687 42.6722C11.026 43.7877 8.96555 43.8651 7.84431 42.6563C2.84654 37.7763 0.347656 31.3861 0.347656 24.9994C0.347656 11.2012 11.8239 0.00548761 25.9569 0.00548761C40.0903 0.00548761 51.5659 11.2009 51.5659 24.9994C51.5659 32.0758 48.9061 37.5466 44.0595 42.6668C42.8667 43.8314 40.9376 43.8368 39.7448 42.6722C38.5476 41.5034 38.5602 39.6224 39.7549 38.4565C43.5554 34.7423 45.4557 29.8724 45.4557 24.9994C45.4557 15.6047 38.4465 7.65203 29.0125 6.20375V24.9994C29.0125 26.6466 27.6446 27.9819 25.9573 27.9819C24.2699 27.9819 22.902 26.6466 22.902 24.9994V6.20375C13.4677 7.65235 6.45886 15.6044 6.45886 24.9994C6.45886 29.8724 8.35911 34.7423 12.1593 38.4565C13.3263 39.6801 13.4069 41.4644 12.1693 42.6722H12.1687ZM79.4072 5.9658C68.6379 5.9658 59.9088 14.487 59.9088 25C59.9088 35.5133 68.6372 44.0345 79.4072 44.0345C90.1769 44.0345 98.9056 35.5133 98.9056 25C98.9056 14.4873 90.1762 5.9658 79.4072 5.9658Z" fill="white"/>
</svg>
