<svg width="24" height="24" viewBox="0 0 24 24" fill="none" xmlns="http://www.w3.org/2000/svg">
<g clip-path="url(#clip0_527_28684)">
<path d="M0 11.5946C0 17.9433 5.383 23.1081 12 23.1081C18.617 23.1081 24 17.9433 24 11.5946C24 5.24582 18.617 0.0810547 12 0.0810547C5.383 0.0810547 0 5.24582 0 11.5946ZM5 8.61064C5 7.81813 5.298 7.0237 5.928 6.4202L7.535 4.87835L10.699 7.91407L8.628 9.90111C9.657 12.3583 11.4 13.9635 13.765 14.8299L15.836 12.8428L19 15.8785L17.393 17.4204C16.764 18.0249 15.936 18.3108 15.11 18.3108C10.87 18.3108 5 12.9915 5 8.61064Z" fill="#5489CA"/>
</g>
<defs>
<clipPath id="clip0_527_28684">
<rect width="24" height="23.027" fill="white" transform="translate(0 0.0810547)"/>
</clipPath>
</defs>
</svg>
