<svg width="968" height="678" viewBox="0 0 968 678" fill="none" xmlns="http://www.w3.org/2000/svg">
<g clip-path="url(#clip0_75_915)">
<rect width="968" height="678" fill="#001447"/>
<path d="M968 0H0V678H968V0Z" fill="url(#paint0_linear_75_915)"/>
<path d="M17 -139C-59.7698 -139 -122 -76.7698 -122 3.15905e-06C-122 76.7698 -59.7698 139 17 139C93.7697 139 156 76.7698 156 3.15905e-06C156 -76.7698 93.7697 -139 17 -139ZM17 83.9361C-29.3553 83.9361 -66.9361 46.3553 -66.9361 3.15905e-06C-66.9361 -46.3553 -29.3553 -83.9361 17 -83.9361C63.3553 -83.9361 100.936 -46.3553 100.936 3.15905e-06C100.936 46.3553 63.3553 83.9361 17 83.9361Z" fill="url(#paint1_radial_75_915)"/>
<g filter="url(#filter0_d_75_915)">
<rect y="-96" width="968" height="96" fill="#011855"/>
</g>
<path d="M456 43.8212C456 40.6068 458.607 38 461.821 38C465.036 38 467.642 40.6068 467.642 43.8212C467.642 47.0356 465.036 49.6424 461.821 49.6424C458.607 49.6424 456 47.0356 456 43.8212Z" stroke="#FF9149" stroke-width="3.92" stroke-miterlimit="10"/>
<g clip-path="url(#clip1_75_915)" filter="url(#filter1_d_75_915)">
<rect width="968" height="1097" transform="translate(0 678)" fill="#001447"/>
<path d="M1093.33 642.117C1096.16 644.939 1096.16 649.526 1093.33 652.368L761.368 984.333C758.545 987.155 753.959 987.155 751.117 984.333C748.294 981.51 748.294 976.924 751.117 974.082L1083.08 642.117C1085.9 639.294 1090.49 639.294 1093.33 642.117Z" fill="url(#paint2_linear_75_915)" style="mix-blend-mode:overlay"/>
<path d="M840.02 789.02C885.495 743.545 885.495 669.815 840.02 624.34C794.545 578.865 720.815 578.865 675.34 624.34C629.865 669.815 629.865 743.545 675.34 789.02C720.815 834.495 794.545 834.495 840.02 789.02Z" fill="url(#paint3_radial_75_915)" fill-opacity="0.3"/>
</g>
<path d="M852.404 114.778L810.619 69.5962C810.548 69.6612 810.471 69.7183 810.401 69.7833C810.33 69.8483 810.267 69.9212 810.197 69.9862L851.983 115.168C852.053 115.103 852.13 115.046 852.201 114.981C852.271 114.916 852.334 114.843 852.404 114.778Z" fill="#FF9149"/>
<path d="M803.59 79.0011C803.5 79.1858 803.41 79.3704 803.32 79.5626L841.906 121.285C842.097 121.218 842.288 121.135 842.487 121.06L803.59 79.0011Z" fill="#FF9149"/>
<path d="M808.582 71.6392C808.448 71.7845 808.315 71.9223 808.189 72.0679L849.758 117.016C849.913 116.901 850.06 116.779 850.216 116.657L808.582 71.6392Z" fill="#FF9149"/>
<path d="M806.718 73.8772C806.599 74.0306 806.48 74.184 806.361 74.345L847.338 118.653C847.507 118.554 847.67 118.44 847.832 118.333L806.711 73.8694L806.718 73.8772Z" fill="#FF9149"/>
<path d="M802.362 81.9188C802.287 82.119 802.211 82.3268 802.143 82.5274L838.851 122.22C839.064 122.168 839.27 122.108 839.475 122.049L802.362 81.9188Z" fill="#FF9149"/>
<path d="M805.049 76.3259C804.945 76.495 804.84 76.664 804.736 76.8405L844.73 120.086C844.907 119.995 845.084 119.904 845.268 119.814L805.049 76.3259Z" fill="#FF9149"/>
<path d="M862.082 92.0791C862.078 91.7854 862.067 91.4915 862.056 91.1975L834.895 61.8282C834.603 61.7942 834.311 61.7603 834.018 61.7338L862.089 92.0869L862.082 92.0791Z" fill="#FF9149"/>
<path d="M831.845 123.151C832.101 123.146 832.358 123.133 832.606 123.128L800.758 88.6905C800.725 88.9451 800.701 89.1926 800.676 89.4475L831.845 123.151Z" fill="#FF9149"/>
<path d="M839.698 62.7685C839.355 62.6723 839.005 62.5834 838.662 62.5022L861.671 87.3814C861.617 87.033 861.555 86.6769 861.486 86.3279L839.698 62.7685Z" fill="#FF9149"/>
<path d="M801.394 85.125C801.34 85.3487 801.293 85.5803 801.239 85.8115L835.507 122.865C835.741 122.836 835.968 122.8 836.203 122.764L801.394 85.125Z" fill="#FF9149"/>
<path d="M846.01 65.3484C845.524 65.081 845.022 64.8281 844.527 64.5904L860.047 81.3717C859.849 80.8522 859.635 80.3395 859.407 79.8338L846.01 65.3484Z" fill="#FF9149"/>
<path d="M830.764 61.6142C830.507 61.6193 830.251 61.6318 830.002 61.6371L861.851 96.0743C861.883 95.8197 861.908 95.5648 861.933 95.3173L830.764 61.6142Z" fill="#FF9149"/>
<path d="M827.094 61.8999C826.86 61.9284 826.633 61.9647 826.398 62.0007L861.207 99.6395C861.261 99.4158 861.308 99.1843 861.362 98.9531L827.094 61.8999Z" fill="#FF9149"/>
<path d="M800.938 97.3835C800.992 97.7318 801.053 98.088 801.122 98.4369L822.911 121.996C823.253 122.093 823.596 122.181 823.946 122.263L800.938 97.3835Z" fill="#FF9149"/>
<path d="M812.851 67.7489C812.696 67.8633 812.548 67.9855 812.393 68.1074L854.027 113.126C854.16 112.98 854.294 112.842 854.42 112.697L812.851 67.7489Z" fill="#FF9149"/>
<path d="M800.534 92.6935C800.537 92.9872 800.548 93.2812 800.56 93.5752L827.721 122.944C828.013 122.978 828.305 123.012 828.598 123.039L800.527 92.6857L800.534 92.6935Z" fill="#FF9149"/>
<path d="M816.599 119.416C817.085 119.684 817.587 119.937 818.082 120.174L802.562 103.393C802.76 103.913 802.973 104.425 803.202 104.931L816.599 119.416Z" fill="#FF9149"/>
<path d="M815.263 66.112C815.094 66.2108 814.931 66.3249 814.769 66.4314L855.89 110.895C856.009 110.742 856.128 110.588 856.247 110.427L815.27 66.1198L815.263 66.112Z" fill="#FF9149"/>
<path d="M817.878 64.6862C817.702 64.7696 817.525 64.8681 817.341 64.9587L857.559 108.446C857.663 108.277 857.768 108.108 857.873 107.932L817.878 64.6862Z" fill="#FF9149"/>
<path d="M823.757 62.5448C823.545 62.5967 823.339 62.6565 823.133 62.7162L860.246 102.846C860.322 102.646 860.398 102.438 860.466 102.237L823.757 62.5448Z" fill="#FF9149"/>
<path d="M820.702 63.4868C820.511 63.5546 820.32 63.6375 820.121 63.7125L859.018 105.771C859.108 105.586 859.198 105.402 859.289 105.21L820.702 63.4868Z" fill="#FF9149"/>
<path d="M-78.6051 310.322C-139.024 337.563 -165.918 408.621 -138.677 469.039C-111.436 529.458 -40.378 556.352 20.0408 529.111C80.4597 501.87 107.354 430.812 80.1128 370.393C52.8717 309.975 -18.1863 283.08 -78.6051 310.322ZM0.501872 485.775C-35.9804 502.224 -78.8922 485.983 -95.341 449.5C-111.79 413.018 -95.5484 370.106 -59.0661 353.658C-22.5839 337.209 20.3279 353.45 36.7767 389.932C53.2255 426.415 36.9841 469.327 0.501872 485.775Z" fill="url(#paint4_radial_75_915)"/>
<g opacity="0.6">
<path d="M750.324 358.123L595.374 316.502" stroke="#1E6AC6" stroke-opacity="0.6" stroke-width="8.4" stroke-linecap="round"/>
<path d="M554.059 305.402L548.894 304.015" stroke="#179F0C" stroke-opacity="0.6" stroke-width="8.4" stroke-linecap="round"/>
<path d="M489.617 504.062L463.792 497.126" stroke="#179F0C" stroke-opacity="0.6" stroke-width="8.4" stroke-linecap="round"/>
<path d="M434.113 339.635L418.618 335.473" stroke="#179F0C" stroke-opacity="0.6" stroke-width="8.4" stroke-linecap="round"/>
<path d="M475.277 433.758L467.899 431.776" stroke="#179F0C" stroke-opacity="0.6" stroke-width="8.4" stroke-linecap="round"/>
<path d="M635.547 393.742L490.927 354.896" stroke="#1E6AC6" stroke-opacity="0.6" stroke-width="8.4" stroke-linecap="round"/>
<path d="M604.398 468.443L516.594 444.858" stroke="#1E6AC6" stroke-opacity="0.6" stroke-width="8.4" stroke-linecap="round"/>
<path d="M623.91 540.135L536.105 516.55" stroke="#1E6AC6" stroke-opacity="0.6" stroke-width="8.4" stroke-linecap="round"/>
<path d="M639.466 523.817C645.236 533.691 641.983 546.501 632.197 552.429C622.416 558.359 609.805 555.161 604.034 545.288C603.275 543.999 602.54 542.694 601.827 541.389C584.342 509.277 580.941 473.323 589.715 440.659C598.489 407.995 619.447 378.584 650.669 359.555C651.939 358.783 653.23 358.022 654.532 357.287C687.71 338.526 725.456 334.829 759.653 344.015C793.854 353.201 824.664 375.313 843.976 408.173C844.734 409.461 845.47 410.767 846.182 412.071C863.668 444.184 867.068 480.137 858.295 512.801C849.521 545.466 828.563 574.876 797.34 593.906C796.069 594.682 794.78 595.439 793.477 596.174C783.536 601.827 771.025 598.276 765.526 588.242C760.032 578.21 763.631 565.493 773.572 559.839C774.545 559.287 775.506 558.723 776.446 558.152C797.972 545.032 812.43 524.706 818.499 502.112C824.569 479.514 822.237 454.678 810.185 432.543C809.659 431.574 809.11 430.604 808.544 429.643C798.701 412.897 784.493 400.096 768.134 391.835L743.896 482.073C740.897 493.239 729.557 499.896 718.57 496.945C707.583 493.994 701.106 482.551 704.105 471.385L728.344 381.147C710.047 380.099 691.337 384.058 674.429 393.619C673.456 394.171 672.495 394.736 671.555 395.306C650.029 408.426 635.57 428.752 629.501 451.346C623.431 473.944 625.759 498.78 637.815 520.915C638.342 521.884 638.892 522.85 639.457 523.815L639.466 523.817Z" fill="#1E6AC6" fill-opacity="0.9"/>
</g>
</g>
<defs>
<filter id="filter0_d_75_915" x="-30" y="-126" width="1028" height="156" filterUnits="userSpaceOnUse" color-interpolation-filters="sRGB">
<feFlood flood-opacity="0" result="BackgroundImageFix"/>
<feColorMatrix in="SourceAlpha" type="matrix" values="0 0 0 0 0 0 0 0 0 0 0 0 0 0 0 0 0 0 127 0" result="hardAlpha"/>
<feOffset/>
<feGaussianBlur stdDeviation="15"/>
<feComposite in2="hardAlpha" operator="out"/>
<feColorMatrix type="matrix" values="0 0 0 0 0.0588235 0 0 0 0 0.227451 0 0 0 0 0.65098 0 0 0 1 0"/>
<feBlend mode="normal" in2="BackgroundImageFix" result="effect1_dropShadow_75_915"/>
<feBlend mode="normal" in="SourceGraphic" in2="effect1_dropShadow_75_915" result="shape"/>
</filter>
<filter id="filter1_d_75_915" x="-30" y="652" width="1028" height="1157" filterUnits="userSpaceOnUse" color-interpolation-filters="sRGB">
<feFlood flood-opacity="0" result="BackgroundImageFix"/>
<feColorMatrix in="SourceAlpha" type="matrix" values="0 0 0 0 0 0 0 0 0 0 0 0 0 0 0 0 0 0 127 0" result="hardAlpha"/>
<feOffset dy="4"/>
<feGaussianBlur stdDeviation="15"/>
<feComposite in2="hardAlpha" operator="out"/>
<feColorMatrix type="matrix" values="0 0 0 0 0.0862745 0 0 0 0 0.498039 0 0 0 0 0.988235 0 0 0 1 0"/>
<feBlend mode="normal" in2="BackgroundImageFix" result="effect1_dropShadow_75_915"/>
<feBlend mode="normal" in="SourceGraphic" in2="effect1_dropShadow_75_915" result="shape"/>
</filter>
<linearGradient id="paint0_linear_75_915" x1="207.5" y1="-198.474" x2="746.676" y2="553.097" gradientUnits="userSpaceOnUse">
<stop stop-color="#0A30A3"/>
<stop offset="0.609243" stop-color="#001447"/>
</linearGradient>
<radialGradient id="paint1_radial_75_915" cx="0" cy="0" r="1" gradientUnits="userSpaceOnUse" gradientTransform="translate(35.7998 -115.799) scale(288.401)">
<stop stop-color="#0A30A3"/>
<stop offset="1" stop-color="#00152A"/>
</radialGradient>
<linearGradient id="paint2_linear_75_915" x1="771.5" y1="986" x2="989.5" y2="773.5" gradientUnits="userSpaceOnUse">
<stop stop-color="#0A30A3" stop-opacity="0.31"/>
<stop offset="1" stop-color="white" stop-opacity="0"/>
</linearGradient>
<radialGradient id="paint3_radial_75_915" cx="0" cy="0" r="1" gradientUnits="userSpaceOnUse" gradientTransform="translate(490.331 900.713) rotate(-180) scale(801.052)">
<stop stop-color="#5BC7CE"/>
<stop offset="0.11" stop-color="#4198C0"/>
<stop offset="0.23" stop-color="#296BB3"/>
<stop offset="0.34" stop-color="#184AAA"/>
<stop offset="0.43" stop-color="#0D37A5"/>
<stop offset="0.49" stop-color="#0A30A3"/>
<stop offset="1" stop-color="#00152A"/>
</radialGradient>
<radialGradient id="paint4_radial_75_915" cx="0" cy="0" r="1" gradientUnits="userSpaceOnUse" gradientTransform="translate(-55.5767 321.91) rotate(-24.2692) scale(248.98)">
<stop stop-color="#0A30A3"/>
<stop offset="1" stop-color="#00152A"/>
</radialGradient>
<clipPath id="clip0_75_915">
<rect width="968" height="678" fill="white"/>
</clipPath>
<clipPath id="clip1_75_915">
<rect width="968" height="1097" fill="white" transform="translate(0 678)"/>
</clipPath>
</defs>
</svg>
