<svg width="428" height="753" viewBox="0 0 428 753" fill="none" xmlns="http://www.w3.org/2000/svg">
<g clip-path="url(#clip0_75_1162)">
<rect width="428" height="753" fill="#001447"/>
<rect width="428" height="192" fill="#011855"/>
<path d="M-7.00001 -182C-83.7698 -182 -146 -119.77 -146 -43C-146 33.7698 -83.7698 96 -7.00001 96C69.7697 96 132 33.7698 132 -43C132 -119.77 69.7697 -182 -7.00001 -182ZM-7.00001 40.9361C-53.3553 40.9361 -90.9361 3.35529 -90.9361 -43C-90.9361 -89.3553 -53.3553 -126.936 -7.00001 -126.936C39.3553 -126.936 76.9361 -89.3553 76.9361 -43C76.9361 3.35529 39.3553 40.9361 -7.00001 40.9361Z" fill="url(#paint0_radial_75_1162)"/>
<path d="M376.481 94.7764L334.696 49.5942C334.625 49.6592 334.548 49.7164 334.478 49.7814C334.407 49.8464 334.344 49.9192 334.274 49.9842L376.06 95.1664C376.13 95.1014 376.207 95.0442 376.278 94.9792C376.348 94.9142 376.411 94.8414 376.481 94.7764Z" fill="#FF9149"/>
<path d="M327.667 58.9992C327.577 59.1838 327.487 59.3685 327.397 59.5607L365.983 101.284C366.174 101.216 366.365 101.133 366.564 101.058L327.667 58.9992Z" fill="#FF9149"/>
<path d="M332.659 51.6372C332.525 51.7826 332.392 51.9204 332.266 52.066L373.835 97.0139C373.99 96.8995 374.138 96.7774 374.293 96.6555L332.659 51.6372Z" fill="#FF9149"/>
<path d="M330.795 53.8752C330.676 54.0286 330.557 54.1821 330.438 54.343L371.415 98.6506C371.584 98.5518 371.747 98.4378 371.909 98.3312L330.788 53.8674L330.795 53.8752Z" fill="#FF9149"/>
<path d="M326.439 61.9168C326.364 62.1171 326.288 62.3249 326.22 62.5254L362.928 102.218C363.141 102.166 363.347 102.106 363.552 102.047L326.439 61.9168Z" fill="#FF9149"/>
<path d="M329.127 56.324C329.022 56.493 328.918 56.662 328.813 56.8386L368.807 100.084C368.984 99.9932 369.161 99.9023 369.345 99.8116L329.127 56.324Z" fill="#FF9149"/>
<path d="M386.159 72.0772C386.156 71.7835 386.145 71.4895 386.133 71.1955L358.972 41.8263C358.68 41.7923 358.388 41.7583 358.095 41.7318L386.166 72.085L386.159 72.0772Z" fill="#FF9149"/>
<path d="M355.922 103.149C356.178 103.144 356.435 103.131 356.683 103.126L324.835 68.6885C324.803 68.9432 324.778 69.1906 324.753 69.4455L355.922 103.149Z" fill="#FF9149"/>
<path d="M363.775 42.7665C363.433 42.6704 363.082 42.5814 362.739 42.5003L385.748 67.3794C385.694 67.0311 385.633 66.6749 385.563 66.326L363.775 42.7665Z" fill="#FF9149"/>
<path d="M325.471 65.1231C325.417 65.3468 325.37 65.5783 325.316 65.8095L359.584 102.863C359.818 102.834 360.046 102.798 360.28 102.762L325.471 65.1231Z" fill="#FF9149"/>
<path d="M370.087 45.3464C369.601 45.079 369.099 44.8261 368.604 44.5885L384.124 61.3698C383.926 60.8502 383.712 60.3376 383.484 59.8319L370.087 45.3464Z" fill="#FF9149"/>
<path d="M354.841 41.6123C354.585 41.6173 354.328 41.6298 354.08 41.6352L385.928 76.0724C385.96 75.8177 385.985 75.5628 386.01 75.3154L354.841 41.6123Z" fill="#FF9149"/>
<path d="M351.172 41.898C350.937 41.9264 350.71 41.9628 350.475 41.9988L385.284 79.6376C385.338 79.4139 385.385 79.1823 385.439 78.9511L351.172 41.898Z" fill="#FF9149"/>
<path d="M325.015 77.3815C325.069 77.7299 325.13 78.086 325.2 78.435L346.988 101.994C347.33 102.091 347.673 102.179 348.024 102.261L325.015 77.3815Z" fill="#FF9149"/>
<path d="M336.928 47.747C336.773 47.8614 336.625 47.9835 336.47 48.1054L378.104 93.1237C378.238 92.9783 378.371 92.8405 378.497 92.6949L336.928 47.747Z" fill="#FF9149"/>
<path d="M324.611 72.6916C324.615 72.9853 324.626 73.2792 324.637 73.5732L351.798 102.942C352.09 102.976 352.382 103.01 352.675 103.037L324.604 72.6838L324.611 72.6916Z" fill="#FF9149"/>
<path d="M340.676 99.4145C341.162 99.6819 341.664 99.9348 342.159 100.172L326.639 83.3911C326.837 83.9107 327.051 84.4233 327.279 84.929L340.676 99.4145Z" fill="#FF9149"/>
<path d="M339.34 46.1101C339.171 46.2088 339.008 46.3229 338.846 46.4295L379.967 90.8933C380.086 90.7398 380.205 90.5864 380.324 90.4255L339.348 46.1179L339.34 46.1101Z" fill="#FF9149"/>
<path d="M341.955 44.6842C341.779 44.7677 341.602 44.8661 341.418 44.9568L381.636 88.4444C381.741 88.2754 381.845 88.1064 381.95 87.9298L341.955 44.6842Z" fill="#FF9149"/>
<path d="M347.834 42.5429C347.622 42.5948 347.416 42.6545 347.211 42.7142L384.324 82.8441C384.399 82.6438 384.475 82.436 384.543 82.2354L347.834 42.5429Z" fill="#FF9149"/>
<path d="M344.779 43.4848C344.589 43.5526 344.397 43.6355 344.199 43.7105L383.095 85.7692C383.185 85.5845 383.275 85.3999 383.366 85.2077L344.779 43.4848Z" fill="#FF9149"/>
<path d="M307 23.8212C307 20.6068 309.607 18 312.821 18C316.036 18 318.642 20.6068 318.642 23.8212C318.642 27.0356 316.036 29.6424 312.821 29.6424C309.607 29.6424 307 27.0356 307 23.8212Z" stroke="#FF9149" stroke-width="3.92" stroke-miterlimit="10"/>
<g filter="url(#filter0_d_75_1162)">
<mask id="path-5-inside-1_75_1162" fill="white">
<path d="M0 -71H428V0H0V-71Z"/>
</mask>
<path d="M0 -71H428V0H0V-71Z" fill="#011855" shape-rendering="crispEdges"/>
<path d="M428 -2H0V2H428V-2Z" fill="#0C36A5" mask="url(#path-5-inside-1_75_1162)"/>
</g>
<g clip-path="url(#clip1_75_1162)" filter="url(#filter1_d_75_1162)">
<rect width="428" height="1324" transform="translate(0 753)" fill="#001447"/>
<path d="M518.02 864.02C563.495 818.545 563.495 744.815 518.02 699.34C472.545 653.865 398.815 653.865 353.34 699.34C307.865 744.815 307.865 818.545 353.34 864.02C398.815 909.495 472.545 909.495 518.02 864.02Z" fill="url(#paint1_radial_75_1162)" fill-opacity="0.3"/>
</g>
<g opacity="0.6">
<path d="M346.645 323.328L285.781 306.98" stroke="#1E6AC6" stroke-opacity="0.6" stroke-width="8.4" stroke-linecap="round"/>
<path d="M269.55 302.619L267.521 302.074" stroke="#179F0C" stroke-opacity="0.6" stroke-width="8.4" stroke-linecap="round"/>
<path d="M244.239 380.654L234.095 377.93" stroke="#179F0C" stroke-opacity="0.6" stroke-width="8.4" stroke-linecap="round"/>
<path d="M222.435 316.066L216.349 314.432" stroke="#179F0C" stroke-opacity="0.6" stroke-width="8.4" stroke-linecap="round"/>
<path d="M238.605 353.037L235.707 352.259" stroke="#179F0C" stroke-opacity="0.6" stroke-width="8.4" stroke-linecap="round"/>
<path d="M301.558 337.32L244.751 322.062" stroke="#1E6AC6" stroke-opacity="0.6" stroke-width="8.4" stroke-linecap="round"/>
<path d="M289.325 366.662L254.836 357.398" stroke="#1E6AC6" stroke-opacity="0.6" stroke-width="8.4" stroke-linecap="round"/>
<path d="M296.987 394.822L262.498 385.558" stroke="#1E6AC6" stroke-opacity="0.6" stroke-width="8.4" stroke-linecap="round"/>
<path d="M303.099 388.412C305.366 392.29 304.088 397.322 300.244 399.651C296.402 401.98 291.448 400.724 289.181 396.846C288.883 396.34 288.594 395.827 288.315 395.314C281.446 382.701 280.111 368.578 283.557 355.748C287.003 342.917 295.236 331.365 307.5 323.89C307.999 323.587 308.506 323.288 309.017 322.999C322.049 315.63 336.876 314.178 350.308 317.786C363.743 321.394 375.844 330.08 383.43 342.987C383.728 343.493 384.017 344.006 384.297 344.518C391.165 357.132 392.501 371.255 389.055 384.085C385.608 396.916 377.376 408.468 365.112 415.943C364.612 416.247 364.106 416.545 363.594 416.833C359.689 419.054 354.775 417.659 352.615 413.718C350.457 409.777 351.871 404.782 355.776 402.561C356.158 402.344 356.535 402.123 356.905 401.899C365.36 396.745 371.039 388.761 373.423 379.886C375.807 371.01 374.891 361.254 370.157 352.56C369.951 352.179 369.735 351.798 369.512 351.421C365.646 344.843 360.066 339.814 353.64 336.57L344.119 372.015C342.941 376.401 338.487 379.016 334.171 377.857C329.855 376.698 327.311 372.203 328.489 367.817L338.01 332.371C330.823 331.96 323.474 333.515 316.832 337.27C316.45 337.487 316.073 337.709 315.704 337.933C307.248 343.086 301.569 351.071 299.185 359.945C296.801 368.822 297.715 378.577 302.451 387.272C302.657 387.653 302.874 388.032 303.096 388.411L303.099 388.412Z" fill="#1E6AC6" fill-opacity="0.9"/>
</g>
</g>
<defs>
<filter id="filter0_d_75_1162" x="-30" y="-101" width="488" height="131" filterUnits="userSpaceOnUse" color-interpolation-filters="sRGB">
<feFlood flood-opacity="0" result="BackgroundImageFix"/>
<feColorMatrix in="SourceAlpha" type="matrix" values="0 0 0 0 0 0 0 0 0 0 0 0 0 0 0 0 0 0 127 0" result="hardAlpha"/>
<feOffset/>
<feGaussianBlur stdDeviation="15"/>
<feComposite in2="hardAlpha" operator="out"/>
<feColorMatrix type="matrix" values="0 0 0 0 0.0588235 0 0 0 0 0.227451 0 0 0 0 0.65098 0 0 0 1 0"/>
<feBlend mode="normal" in2="BackgroundImageFix" result="effect1_dropShadow_75_1162"/>
<feBlend mode="normal" in="SourceGraphic" in2="effect1_dropShadow_75_1162" result="shape"/>
</filter>
<filter id="filter1_d_75_1162" x="-30" y="727" width="488" height="1384" filterUnits="userSpaceOnUse" color-interpolation-filters="sRGB">
<feFlood flood-opacity="0" result="BackgroundImageFix"/>
<feColorMatrix in="SourceAlpha" type="matrix" values="0 0 0 0 0 0 0 0 0 0 0 0 0 0 0 0 0 0 127 0" result="hardAlpha"/>
<feOffset dy="4"/>
<feGaussianBlur stdDeviation="15"/>
<feComposite in2="hardAlpha" operator="out"/>
<feColorMatrix type="matrix" values="0 0 0 0 0.0862745 0 0 0 0 0.498039 0 0 0 0 0.988235 0 0 0 1 0"/>
<feBlend mode="normal" in2="BackgroundImageFix" result="effect1_dropShadow_75_1162"/>
<feBlend mode="normal" in="SourceGraphic" in2="effect1_dropShadow_75_1162" result="shape"/>
</filter>
<radialGradient id="paint0_radial_75_1162" cx="0" cy="0" r="1" gradientUnits="userSpaceOnUse" gradientTransform="translate(11.7998 -158.799) scale(288.401)">
<stop stop-color="#0A30A3"/>
<stop offset="1" stop-color="#00152A"/>
</radialGradient>
<radialGradient id="paint1_radial_75_1162" cx="0" cy="0" r="1" gradientUnits="userSpaceOnUse" gradientTransform="translate(168.331 975.713) rotate(-180) scale(801.052)">
<stop stop-color="#5BC7CE"/>
<stop offset="0.11" stop-color="#4198C0"/>
<stop offset="0.23" stop-color="#296BB3"/>
<stop offset="0.34" stop-color="#184AAA"/>
<stop offset="0.43" stop-color="#0D37A5"/>
<stop offset="0.49" stop-color="#0A30A3"/>
<stop offset="1" stop-color="#00152A"/>
</radialGradient>
<clipPath id="clip0_75_1162">
<rect width="428" height="753" fill="white"/>
</clipPath>
<clipPath id="clip1_75_1162">
<rect width="428" height="1324" fill="white" transform="translate(0 753)"/>
</clipPath>
</defs>
</svg>
