<svg width="678" height="1024" viewBox="0 0 678 1024" fill="none" xmlns="http://www.w3.org/2000/svg">
<g clip-path="url(#clip0_89_2872)">
<rect width="678" height="1024" fill="#001447"/>
<path d="M676 0H0V1024H676V0Z" fill="url(#paint0_linear_89_2872)"/>
<g clip-path="url(#clip1_89_2872)" filter="url(#filter0_d_89_2872)">
<rect width="680" height="1334" transform="translate(-1 1024)" fill="#001447"/>
<path d="M882.333 988.117C885.155 990.939 885.155 995.526 882.333 998.368L550.368 1330.33C547.545 1333.16 542.959 1333.16 540.117 1330.33C537.294 1327.51 537.294 1322.92 540.117 1320.08L872.082 988.117C874.904 985.294 879.491 985.294 882.333 988.117Z" fill="url(#paint1_linear_89_2872)" style="mix-blend-mode:overlay"/>
<path d="M629.02 1135.02C674.495 1089.54 674.495 1015.81 629.02 970.34C583.545 924.865 509.815 924.865 464.34 970.34C418.865 1015.81 418.865 1089.54 464.34 1135.02C509.815 1180.49 583.545 1180.49 629.02 1135.02Z" fill="url(#paint2_radial_89_2872)" fill-opacity="0.3"/>
</g>
<path d="M12 -139C-64.7698 -139 -127 -76.7698 -127 3.15905e-06C-127 76.7698 -64.7698 139 12 139C88.7697 139 151 76.7698 151 3.15905e-06C151 -76.7698 88.7697 -139 12 -139ZM12 83.9361C-34.3553 83.9361 -71.9361 46.3553 -71.9361 3.15905e-06C-71.9361 -46.3553 -34.3553 -83.9361 12 -83.9361C58.3553 -83.9361 95.9361 -46.3553 95.9361 3.15905e-06C95.9361 46.3553 58.3553 83.9361 12 83.9361Z" fill="url(#paint3_radial_89_2872)"/>
<path d="M-79.6051 286.323C-140.024 313.564 -166.918 384.622 -139.677 445.041C-112.436 505.46 -41.378 532.354 19.0408 505.113C79.4597 477.872 106.354 406.814 79.1128 346.395C51.8717 285.976 -19.1863 259.082 -79.6051 286.323ZM-0.498128 461.777C-36.9804 478.226 -79.8922 461.984 -96.341 425.502C-112.79 389.02 -96.5484 346.108 -60.0661 329.659C-23.5839 313.21 19.3279 329.452 35.7767 365.934C52.2255 402.416 35.9841 445.328 -0.498128 461.777Z" fill="url(#paint4_radial_89_2872)"/>
<g filter="url(#filter1_d_89_2872)">
<rect y="-96" width="678" height="96" fill="#011855"/>
</g>
<path d="M544.894 101.793L514.64 48.2001C514.557 48.2472 514.468 48.285 514.385 48.332C514.302 48.3791 514.223 48.4354 514.14 48.4825L544.394 102.075C544.477 102.028 544.566 101.99 544.649 101.943C544.732 101.896 544.81 101.84 544.894 101.793Z" fill="#FF9149"/>
<path d="M505.634 55.733C505.504 55.892 505.374 56.0509 505.242 56.2171L533.179 105.707C533.38 105.685 533.586 105.648 533.796 105.621L505.634 55.733Z" fill="#FF9149"/>
<path d="M512.188 49.719C512.024 49.8296 511.863 49.933 511.706 50.0457L541.803 103.361C541.98 103.285 542.152 103.2 542.331 103.117L512.188 49.719Z" fill="#FF9149"/>
<path d="M509.858 51.4675C509.707 51.5894 509.556 51.7113 509.403 51.8404L539.071 104.396C539.259 104.339 539.443 104.265 539.626 104.199L509.853 51.4582L509.858 51.4675Z" fill="#FF9149"/>
<path d="M503.767 58.2893C503.648 58.4668 503.526 58.6515 503.413 58.831L529.991 105.912C530.21 105.911 530.424 105.9 530.638 105.889L503.767 58.2893Z" fill="#FF9149"/>
<path d="M507.671 53.466C507.53 53.6064 507.389 53.7468 507.247 53.8945L536.204 105.19C536.396 105.142 536.589 105.095 536.789 105.049L507.671 53.466Z" fill="#FF9149"/>
<path d="M559.54 81.9335C559.605 81.6469 559.662 81.3583 559.718 81.0697L540.053 46.2334C539.777 46.133 539.5 46.0326 539.222 45.9395L559.546 81.9428L559.54 81.9335Z" fill="#FF9149"/>
<path d="M522.959 105.204C523.209 105.258 523.462 105.305 523.705 105.357L500.646 64.5094C500.556 64.7497 500.475 64.9847 500.392 65.2271L522.959 105.204Z" fill="#FF9149"/>
<path d="M544.51 48.2548C544.199 48.0823 543.879 47.9151 543.564 47.7571L560.223 77.2674C560.25 76.916 560.272 76.5552 560.286 76.1998L544.51 48.2548Z" fill="#FF9149"/>
<path d="M502.086 61.1863C501.982 61.3916 501.884 61.6061 501.778 61.8186L526.588 105.769C526.823 105.795 527.052 105.812 527.289 105.832L502.086 61.1863Z" fill="#FF9149"/>
<path d="M550.058 52.2193C549.647 51.8471 549.217 51.4854 548.79 51.1401L560.026 71.0452C559.953 70.494 559.864 69.946 559.758 69.4013L550.058 52.2193Z" fill="#FF9149"/>
<path d="M536.082 45.0734C535.832 45.0193 535.579 44.9725 535.336 44.9204L558.395 85.768C558.485 85.5277 558.568 85.2854 558.649 85.0503L536.082 45.0734Z" fill="#FF9149"/>
<path d="M532.446 44.5062C532.211 44.4799 531.982 44.4629 531.745 44.4439L556.948 89.0891C557.052 88.8838 557.15 88.6693 557.256 88.4567L532.446 44.5062Z" fill="#FF9149"/>
<path d="M498.819 73.01C498.791 73.3614 498.769 73.7221 498.756 74.0776L514.531 102.023C514.842 102.195 515.155 102.36 515.477 102.52L498.819 73.01Z" fill="#FF9149"/>
<path d="M517.238 46.9168C517.061 46.9924 516.889 47.0773 516.71 47.1601L546.854 100.558C547.017 100.448 547.179 100.344 547.335 100.232L517.238 46.9168Z" fill="#FF9149"/>
<path d="M499.506 68.3531C499.442 68.6398 499.385 68.9284 499.328 69.217L518.993 104.053C519.27 104.154 519.546 104.254 519.825 104.347L499.501 68.3439L499.506 68.3531Z" fill="#FF9149"/>
<path d="M508.983 98.058C509.394 98.4303 509.825 98.792 510.252 99.1373L499.015 79.2322C499.088 79.7834 499.177 80.3314 499.283 80.8761L508.983 98.058Z" fill="#FF9149"/>
<path d="M519.963 45.8796C519.775 45.9367 519.591 46.0103 519.408 46.0766L549.181 98.8172C549.332 98.6953 549.483 98.5734 549.636 98.4443L519.968 45.8889L519.963 45.8796Z" fill="#FF9149"/>
<path d="M522.836 45.0945C522.645 45.135 522.45 45.1901 522.25 45.2358L551.369 96.8187C551.509 96.6782 551.65 96.5379 551.792 96.3902L522.836 45.0945Z" fill="#FF9149"/>
<path d="M529.05 44.3651C528.831 44.3666 528.617 44.3773 528.403 44.3881L555.274 91.988C555.394 91.8106 555.515 91.6258 555.628 91.4463L529.05 44.3651Z" fill="#FF9149"/>
<path d="M525.86 44.5779C525.659 44.6 525.453 44.6365 525.243 44.6638L553.405 94.5515C553.535 94.3926 553.665 94.2337 553.797 94.0675L525.86 44.5779Z" fill="#FF9149"/>
<path d="M355 43.8212C355 40.6068 357.607 38 360.821 38C364.036 38 366.642 40.6068 366.642 43.8212C366.642 47.0356 364.036 49.6424 360.821 49.6424C357.607 49.6424 355 47.0356 355 43.8212Z" stroke="#FF9149" stroke-width="3.92" stroke-miterlimit="10"/>
<path d="M55 949.5C55 956.402 49.4025 962 42.5001 962C35.5978 962 30 956.402 30 949.5C30 942.598 35.5978 937 42.5001 937C49.4025 937 55 942.598 55 949.5Z" stroke="#FF9149" stroke-width="3.92" stroke-miterlimit="10"/>
<path d="M555.305 271.68L524.985 259.066" stroke="#1E6AC6" stroke-opacity="0.6" stroke-width="8.4" stroke-linecap="round"/>
<path d="M516.906 255.703L515.896 255.282" stroke="#179F0C" stroke-opacity="0.6" stroke-width="8.4" stroke-linecap="round"/>
<path d="M498.484 294.277L493.431 292.174" stroke="#179F0C" stroke-opacity="0.6" stroke-width="8.4" stroke-linecap="round"/>
<path d="M491.648 259.42L488.616 258.159" stroke="#179F0C" stroke-opacity="0.6" stroke-width="8.4" stroke-linecap="round"/>
<path d="M497.469 279.626L496.025 279.026" stroke="#179F0C" stroke-opacity="0.6" stroke-width="8.4" stroke-linecap="round"/>
<path d="M531.062 275.819L502.764 264.045" stroke="#1E6AC6" stroke-opacity="0.6" stroke-width="8.4" stroke-linecap="round"/>
<path d="M522.734 290.138L505.553 282.99" stroke="#1E6AC6" stroke-opacity="0.6" stroke-width="8.4" stroke-linecap="round"/>
<path d="M524.758 305.209L507.577 298.061" stroke="#1E6AC6" stroke-opacity="0.6" stroke-width="8.4" stroke-linecap="round"/>
<path d="M528.357 302.317C529.263 304.476 528.258 306.987 526.113 307.927C523.968 308.867 521.496 307.879 520.59 305.72C520.471 305.438 520.357 305.153 520.248 304.87C517.564 297.883 517.841 290.497 520.5 284.105C523.16 277.714 528.203 272.31 535.051 269.289C535.329 269.167 535.611 269.047 535.895 268.933C543.132 266.019 550.89 266.285 557.582 269.069C564.274 271.853 569.93 277.168 572.965 284.355C573.084 284.637 573.198 284.922 573.307 285.206C575.991 292.192 575.714 299.579 573.055 305.97C570.395 312.362 565.352 317.765 558.505 320.786C558.226 320.909 557.944 321.028 557.66 321.142C555.49 322.022 553.047 320.965 552.202 318.781C551.357 316.598 552.429 314.114 554.599 313.234C554.811 313.149 555.021 313.06 555.227 312.969C559.948 310.887 563.428 307.151 565.268 302.73C567.107 298.308 567.302 293.206 565.453 288.391C565.372 288.18 565.287 287.969 565.198 287.758C563.651 284.096 561.113 281.116 558.016 279L550.67 296.657C549.761 298.842 547.281 299.888 545.131 298.993C542.981 298.099 541.975 295.603 542.884 293.418L550.23 275.76C546.546 275.055 542.643 275.355 538.955 276.84C538.743 276.926 538.532 277.015 538.326 277.105C533.606 279.188 530.125 282.923 528.286 287.344C526.446 291.766 526.25 296.868 528.101 301.684C528.181 301.894 528.267 302.105 528.356 302.316L528.357 302.317Z" fill="#1E6AC6" fill-opacity="0.9"/>
</g>
<defs>
<filter id="filter0_d_89_2872" x="-31" y="998" width="740" height="1394" filterUnits="userSpaceOnUse" color-interpolation-filters="sRGB">
<feFlood flood-opacity="0" result="BackgroundImageFix"/>
<feColorMatrix in="SourceAlpha" type="matrix" values="0 0 0 0 0 0 0 0 0 0 0 0 0 0 0 0 0 0 127 0" result="hardAlpha"/>
<feOffset dy="4"/>
<feGaussianBlur stdDeviation="15"/>
<feComposite in2="hardAlpha" operator="out"/>
<feColorMatrix type="matrix" values="0 0 0 0 0.0862745 0 0 0 0 0.498039 0 0 0 0 0.988235 0 0 0 1 0"/>
<feBlend mode="normal" in2="BackgroundImageFix" result="effect1_dropShadow_89_2872"/>
<feBlend mode="normal" in="SourceGraphic" in2="effect1_dropShadow_89_2872" result="shape"/>
</filter>
<filter id="filter1_d_89_2872" x="-30" y="-126" width="738" height="156" filterUnits="userSpaceOnUse" color-interpolation-filters="sRGB">
<feFlood flood-opacity="0" result="BackgroundImageFix"/>
<feColorMatrix in="SourceAlpha" type="matrix" values="0 0 0 0 0 0 0 0 0 0 0 0 0 0 0 0 0 0 127 0" result="hardAlpha"/>
<feOffset/>
<feGaussianBlur stdDeviation="15"/>
<feComposite in2="hardAlpha" operator="out"/>
<feColorMatrix type="matrix" values="0 0 0 0 0.0588235 0 0 0 0 0.227451 0 0 0 0 0.65098 0 0 0 1 0"/>
<feBlend mode="normal" in2="BackgroundImageFix" result="effect1_dropShadow_89_2872"/>
<feBlend mode="normal" in="SourceGraphic" in2="effect1_dropShadow_89_2872" result="shape"/>
</filter>
<linearGradient id="paint0_linear_89_2872" x1="144.907" y1="-299.761" x2="927.819" y2="204.846" gradientUnits="userSpaceOnUse">
<stop stop-color="#0A30A3"/>
<stop offset="0.609243" stop-color="#001447"/>
</linearGradient>
<linearGradient id="paint1_linear_89_2872" x1="560.5" y1="1332" x2="778.5" y2="1119.5" gradientUnits="userSpaceOnUse">
<stop stop-color="#0A30A3" stop-opacity="0.31"/>
<stop offset="1" stop-color="white" stop-opacity="0"/>
</linearGradient>
<radialGradient id="paint2_radial_89_2872" cx="0" cy="0" r="1" gradientUnits="userSpaceOnUse" gradientTransform="translate(279.331 1246.71) rotate(-180) scale(801.052)">
<stop stop-color="#5BC7CE"/>
<stop offset="0.11" stop-color="#4198C0"/>
<stop offset="0.23" stop-color="#296BB3"/>
<stop offset="0.34" stop-color="#184AAA"/>
<stop offset="0.43" stop-color="#0D37A5"/>
<stop offset="0.49" stop-color="#0A30A3"/>
<stop offset="1" stop-color="#00152A"/>
</radialGradient>
<radialGradient id="paint3_radial_89_2872" cx="0" cy="0" r="1" gradientUnits="userSpaceOnUse" gradientTransform="translate(30.7998 -115.799) scale(288.401)">
<stop stop-color="#0A30A3"/>
<stop offset="1" stop-color="#00152A"/>
</radialGradient>
<radialGradient id="paint4_radial_89_2872" cx="0" cy="0" r="1" gradientUnits="userSpaceOnUse" gradientTransform="translate(-56.5767 297.912) rotate(-24.2692) scale(248.98)">
<stop stop-color="#0A30A3"/>
<stop offset="1" stop-color="#00152A"/>
</radialGradient>
<clipPath id="clip0_89_2872">
<rect width="678" height="1024" fill="white"/>
</clipPath>
<clipPath id="clip1_89_2872">
<rect width="680" height="1334" fill="white" transform="translate(-1 1024)"/>
</clipPath>
</defs>
</svg>
