<svg width="680" height="1334" viewBox="0 0 680 1334" fill="none" xmlns="http://www.w3.org/2000/svg">
<g clip-path="url(#clip0_15_452)">
<rect width="680" height="1334" fill="#001447"/>
<path d="M883.333 -35.8832C886.155 -33.0608 886.155 -28.4744 883.333 -25.6324L551.368 306.333C548.545 309.155 543.959 309.155 541.117 306.333C538.294 303.51 538.294 298.924 541.117 296.082L873.082 -35.8832C875.904 -38.7056 880.491 -38.7056 883.333 -35.8832Z" fill="url(#paint0_linear_15_452)" style="mix-blend-mode:overlay"/>
<path d="M673.857 126.139C675.719 128.001 678.738 128.001 680.6 126.139C682.462 124.277 682.462 121.258 680.6 119.396C678.738 117.534 675.719 117.534 673.857 119.396C671.995 121.258 671.995 124.277 673.857 126.139Z" fill="white" fill-opacity="0.3"/>
<path d="M643.99 156.01C645.852 157.872 648.871 157.872 650.733 156.01C652.595 154.148 652.595 151.13 650.733 149.268C648.871 147.406 645.852 147.406 643.99 149.268C642.128 151.13 642.128 154.148 643.99 156.01Z" fill="white" fill-opacity="0.3"/>
<path d="M614.119 185.86C615.981 187.722 619 187.722 620.862 185.86C622.724 183.998 622.724 180.979 620.862 179.117C619 177.255 615.981 177.255 614.119 179.117C612.257 180.979 612.257 183.998 614.119 185.86Z" fill="white" fill-opacity="0.3"/>
<path d="M584.268 215.731C586.13 217.593 589.148 217.593 591.01 215.731C592.872 213.869 592.872 210.85 591.01 208.988C589.148 207.126 586.13 207.126 584.268 208.988C582.406 210.85 582.406 213.869 584.268 215.731Z" fill="white" fill-opacity="0.3"/>
<path d="M561.139 238.859C559.277 236.997 556.258 236.997 554.396 238.859C552.534 240.721 552.534 243.74 554.396 245.602C556.258 247.464 559.277 247.464 561.139 245.602C563.001 243.74 563.001 240.721 561.139 238.859Z" fill="white" fill-opacity="0.3"/>
<path d="M630.02 111.02C675.495 65.5445 675.495 -8.18518 630.02 -53.6603C584.545 -99.1354 510.815 -99.1354 465.34 -53.6603C419.865 -8.18516 419.865 65.5445 465.34 111.02C510.815 156.495 584.545 156.495 630.02 111.02Z" fill="url(#paint1_radial_15_452)" fill-opacity="0.3"/>
<path d="M75.6195 1027.21L-37.786 1140.62C-37.6096 1140.8 -37.4528 1140.99 -37.2764 1141.17C-37.1 1141.34 -36.904 1141.5 -36.7276 1141.68L76.678 1028.27C76.5016 1028.1 76.3448 1027.9 76.1684 1027.72C75.992 1027.55 75.7959 1027.39 75.6195 1027.21Z" fill="#FF9149"/>
<path d="M-12.5805 1157.97C-12.0905 1158.18 -11.6005 1158.4 -11.0909 1158.61L93.6319 1053.89C93.4359 1053.4 93.2008 1052.91 92.9852 1052.4L-12.5805 1157.97Z" fill="#FF9149"/>
<path d="M-32.2588 1145.72C-31.8668 1146.05 -31.4943 1146.38 -31.1023 1146.7L81.7152 1033.88C81.4016 1033.49 81.0684 1033.11 80.7352 1032.72L-32.2588 1145.72Z" fill="#FF9149"/>
<path d="M-26.2415 1150.34C-25.8299 1150.64 -25.4183 1150.93 -24.9871 1151.22L86.2233 1040.01C85.9489 1039.58 85.6353 1039.17 85.3413 1038.76L-26.2611 1150.36L-26.2415 1150.34Z" fill="#FF9149"/>
<path d="M-4.85804 1160.87C-4.32884 1161.04 -3.78002 1161.22 -3.25082 1161.38L96.376 1061.75C96.2192 1061.2 96.0428 1060.67 95.8664 1060.14L-4.85804 1160.87Z" fill="#FF9149"/>
<path d="M-19.6951 1154.44C-19.2443 1154.69 -18.7936 1154.95 -18.3232 1155.2L90.2216 1046.66C89.9668 1046.21 89.712 1045.76 89.4572 1045.29L-19.6951 1154.44Z" fill="#FF9149"/>
<path d="M15.526 1004.32C14.7616 1004.36 13.9972 1004.42 13.2328 1004.48L-60.4828 1078.19C-60.5416 1078.96 -60.6004 1079.72 -60.6396 1080.49L15.5456 1004.3L15.526 1004.32Z" fill="#FF9149"/>
<path d="M99.512 1079.9C99.4728 1079.23 99.4141 1078.57 99.3749 1077.92L12.9388 1164.36C13.6052 1164.41 14.2521 1164.45 14.9185 1164.49L99.512 1079.9Z" fill="#FF9149"/>
<path d="M-58.5229 1065.59C-58.7385 1066.49 -58.9345 1067.41 -59.1109 1068.32L3.33482 1005.87C2.43322 1006.05 1.512 1006.24 0.6104 1006.46L-58.5229 1065.59Z" fill="#FF9149"/>
<path d="M3.58959 1163.06C4.17759 1163.18 4.78528 1163.28 5.39288 1163.39L98.3949 1070.39C98.2969 1069.79 98.1792 1069.2 98.0616 1068.59L3.58959 1163.06Z" fill="#FF9149"/>
<path d="M-52.4468 1048.89C-53.0936 1050.19 -53.7012 1051.52 -54.2696 1052.83L-12.1492 1010.71C-13.482 1011.28 -14.7952 1011.89 -16.0888 1012.53L-52.4468 1048.89Z" fill="#FF9149"/>
<path d="M-60.6199 1088.97C-60.5807 1089.64 -60.5221 1090.31 -60.4829 1090.95L25.9532 1004.52C25.2868 1004.46 24.6204 1004.42 23.9736 1004.38L-60.6199 1088.97Z" fill="#FF9149"/>
<path d="M-59.5028 1098.5C-59.4048 1099.11 -59.2871 1099.69 -59.1695 1100.3L35.3025 1005.83C34.7145 1005.71 34.1068 1005.61 33.4992 1005.5L-59.5028 1098.5Z" fill="#FF9149"/>
<path d="M35.5572 1163C36.4588 1162.83 37.38 1162.63 38.2816 1162.41L97.4149 1103.28C97.6305 1102.38 97.8265 1101.48 98.0029 1100.56L35.5572 1163Z" fill="#FF9149"/>
<path d="M-42.8233 1134.99C-42.5097 1135.39 -42.1765 1135.76 -41.8433 1136.15L71.1508 1023.16C70.7588 1022.82 70.3863 1022.49 69.9943 1022.18L-42.8233 1134.99Z" fill="#FF9149"/>
<path d="M23.3857 1164.53C24.1501 1164.49 24.9144 1164.43 25.6788 1164.37L99.3944 1090.66C99.4532 1089.89 99.512 1089.13 99.5512 1088.37L23.366 1164.55L23.3857 1164.53Z" fill="#FF9149"/>
<path d="M91.3388 1119.98C91.9856 1118.69 92.5932 1117.35 93.1616 1116.04L51.0412 1158.16C52.374 1157.59 53.6872 1156.99 54.9808 1156.34L91.3388 1119.98Z" fill="#FF9149"/>
<path d="M-47.3312 1128.88C-47.0568 1129.31 -46.7431 1129.72 -46.4491 1130.13L65.1533 1018.53C64.7417 1018.24 64.33 1017.94 63.8988 1017.65L-47.3116 1128.86L-47.3312 1128.88Z" fill="#FF9149"/>
<path d="M-51.31 1122.22C-51.0748 1122.67 -50.8005 1123.12 -50.5457 1123.59L58.6068 1014.43C58.156 1014.18 57.7052 1013.93 57.2348 1013.67L-51.31 1122.22Z" fill="#FF9149"/>
<path d="M-57.4841 1107.12C-57.3273 1107.67 -57.1508 1108.2 -56.9744 1108.73L43.75 1008.01C43.2208 1007.83 42.672 1007.65 42.1428 1007.5L-57.4841 1107.12Z" fill="#FF9149"/>
<path d="M-54.7205 1114.98C-54.5245 1115.47 -54.2893 1115.96 -54.0737 1116.47L51.4919 1010.91C51.0019 1010.69 50.512 1010.48 50.0024 1010.26L-54.7205 1114.98Z" fill="#FF9149"/>
</g>
<defs>
<linearGradient id="paint0_linear_15_452" x1="561.5" y1="308" x2="779.5" y2="95.5001" gradientUnits="userSpaceOnUse">
<stop stop-color="#0A30A3" stop-opacity="0.31"/>
<stop offset="1" stop-color="white" stop-opacity="0"/>
</linearGradient>
<radialGradient id="paint1_radial_15_452" cx="0" cy="0" r="1" gradientUnits="userSpaceOnUse" gradientTransform="translate(280.331 222.713) rotate(-180) scale(801.052)">
<stop stop-color="#5BC7CE"/>
<stop offset="0.11" stop-color="#4198C0"/>
<stop offset="0.23" stop-color="#296BB3"/>
<stop offset="0.34" stop-color="#184AAA"/>
<stop offset="0.43" stop-color="#0D37A5"/>
<stop offset="0.49" stop-color="#0A30A3"/>
<stop offset="1" stop-color="#00152A"/>
</radialGradient>
<clipPath id="clip0_15_452">
<rect width="680" height="1334" fill="white"/>
</clipPath>
</defs>
</svg>
