<svg width="1920" height="477" viewBox="0 0 1920 477" fill="none" xmlns="http://www.w3.org/2000/svg">
<g clip-path="url(#clip0_0_99)">
<rect width="1920" height="477" fill="#001447"/>
<path opacity="0.36" d="M1970.71 243.383C1987.1 259.893 1987.1 286.662 1970.71 303.153L1635.65 640.617C1619.26 657.128 1592.68 657.128 1576.29 640.617C1559.9 624.107 1559.9 597.338 1576.29 580.847L1911.35 243.383C1927.74 226.872 1954.32 226.872 1970.69 243.383H1970.71Z" fill="url(#paint0_radial_0_99)"/>
<path d="M1159.62 420.214L1046.21 533.62C1046.39 533.796 1046.55 533.992 1046.72 534.168C1046.9 534.345 1047.1 534.502 1047.27 534.678L1160.68 421.272C1160.5 421.096 1160.34 420.9 1160.17 420.724C1159.99 420.547 1159.8 420.39 1159.62 420.214Z" fill="#FF9149"/>
<path d="M1071.42 550.966C1071.91 551.181 1072.4 551.397 1072.91 551.612L1177.63 446.89C1177.44 446.4 1177.2 445.91 1176.99 445.4L1071.42 550.966Z" fill="#FF9149"/>
<path d="M1051.74 538.716C1052.13 539.049 1052.51 539.382 1052.9 539.696L1165.72 426.878C1165.4 426.486 1165.07 426.114 1164.74 425.722L1051.74 538.716Z" fill="#FF9149"/>
<path d="M1057.76 543.341C1058.17 543.635 1058.58 543.929 1059.01 544.223L1170.22 433.013C1169.95 432.582 1169.64 432.17 1169.34 431.758L1057.74 543.361L1057.76 543.341Z" fill="#FF9149"/>
<path d="M1079.14 553.866C1079.67 554.043 1080.22 554.219 1080.75 554.376L1180.38 454.749C1180.22 454.2 1180.04 453.671 1179.87 453.142L1079.14 553.866Z" fill="#FF9149"/>
<path d="M1064.3 547.438C1064.76 547.692 1065.21 547.947 1065.68 548.202L1174.22 439.657C1173.97 439.206 1173.71 438.756 1173.46 438.285L1064.3 547.438Z" fill="#FF9149"/>
<path d="M1099.53 397.321C1098.76 397.36 1098 397.419 1097.23 397.478L1023.52 471.194C1023.46 471.958 1023.4 472.722 1023.36 473.487L1099.55 397.302L1099.53 397.321Z" fill="#FF9149"/>
<path d="M1183.51 472.899C1183.47 472.232 1183.41 471.566 1183.37 470.919L1096.94 557.355C1097.61 557.414 1098.25 557.453 1098.92 557.492L1183.51 472.899Z" fill="#FF9149"/>
<path d="M1025.48 458.591C1025.26 459.492 1025.07 460.414 1024.89 461.315L1087.33 398.87C1086.43 399.046 1085.51 399.242 1084.61 399.458L1025.48 458.591Z" fill="#FF9149"/>
<path d="M1087.59 556.062C1088.18 556.179 1088.79 556.277 1089.39 556.395L1182.39 463.393C1182.3 462.785 1182.18 462.197 1182.06 461.59L1087.59 556.062Z" fill="#FF9149"/>
<path d="M1031.55 441.892C1030.91 443.185 1030.3 444.518 1029.73 445.831L1071.85 403.711C1070.52 404.279 1069.2 404.887 1067.91 405.534L1031.55 441.892Z" fill="#FF9149"/>
<path d="M1023.38 481.974C1023.42 482.64 1023.48 483.306 1023.52 483.953L1109.95 397.517C1109.29 397.458 1108.62 397.419 1107.97 397.38L1023.38 481.974Z" fill="#FF9149"/>
<path d="M1024.5 491.499C1024.6 492.107 1024.71 492.695 1024.83 493.302L1119.3 398.83C1118.71 398.713 1118.11 398.615 1117.5 398.497L1024.5 491.499Z" fill="#FF9149"/>
<path d="M1119.56 556.003C1120.46 555.826 1121.38 555.63 1122.28 555.415L1181.41 496.282C1181.63 495.38 1181.83 494.478 1182 493.557L1119.56 556.003Z" fill="#FF9149"/>
<path d="M1041.18 527.994C1041.49 528.386 1041.82 528.759 1042.16 529.151L1155.15 416.157C1154.76 415.824 1154.39 415.49 1153.99 415.177L1041.18 527.994Z" fill="#FF9149"/>
<path d="M1107.39 557.532C1108.15 557.492 1108.91 557.434 1109.68 557.375L1183.39 483.659C1183.45 482.895 1183.51 482.13 1183.55 481.366L1107.37 557.551L1107.39 557.532Z" fill="#FF9149"/>
<path d="M1175.34 512.981C1175.99 511.687 1176.59 510.354 1177.16 509.041L1135.04 551.162C1136.37 550.593 1137.69 549.986 1138.98 549.339L1175.34 512.981Z" fill="#FF9149"/>
<path d="M1036.67 521.879C1036.94 522.31 1037.26 522.722 1037.55 523.134L1149.15 411.531C1148.74 411.237 1148.33 410.943 1147.9 410.649L1036.69 521.86L1036.67 521.879Z" fill="#FF9149"/>
<path d="M1032.69 515.215C1032.93 515.666 1033.2 516.117 1033.45 516.587L1142.61 407.435C1142.16 407.18 1141.71 406.925 1141.23 406.67L1032.69 515.215Z" fill="#FF9149"/>
<path d="M1026.52 500.123C1026.67 500.672 1026.85 501.201 1027.03 501.73L1127.75 401.006C1127.22 400.83 1126.67 400.653 1126.14 400.496L1026.52 500.123Z" fill="#FF9149"/>
<path d="M1029.28 507.983C1029.48 508.473 1029.71 508.963 1029.93 509.472L1135.49 403.907C1135 403.691 1134.51 403.476 1134 403.26L1029.28 507.983Z" fill="#FF9149"/>
<path d="M1371.02 128.02C1416.49 82.5446 1416.49 8.81485 1371.02 -36.6603C1325.54 -82.1353 1251.82 -82.1354 1206.34 -36.6603C1160.86 8.81484 1160.86 82.5445 1206.34 128.02C1251.82 173.495 1325.54 173.495 1371.02 128.02Z" fill="url(#paint1_radial_0_99)" fill-opacity="0.3"/>
<path opacity="0.94" d="M301.567 -320.509C153.78 -405.835 -35.184 -355.202 -120.509 -207.414C-205.835 -59.6263 -155.202 129.337 -7.41427 214.663C140.374 299.988 329.337 249.355 414.662 101.567C499.988 -46.2203 449.355 -235.184 301.567 -320.509ZM53.7862 108.66C-35.4513 57.1388 -66.0283 -56.9761 -14.507 -146.214C37.0144 -235.451 151.129 -266.028 240.367 -214.507C329.604 -162.986 360.181 -48.8706 308.66 40.3669C257.139 129.604 143.024 160.181 53.7862 108.66Z" fill="url(#paint2_radial_0_99)"/>
<path d="M40.1389 254.011C38.2769 252.149 35.2585 252.149 33.3965 254.011C31.5345 255.873 31.5345 258.891 33.3965 260.753C35.2585 262.615 38.2769 262.615 40.1389 260.753C42.0009 258.891 42.0009 255.873 40.1389 254.011Z" fill="white"/>
<path d="M70.009 224.141C68.147 222.279 65.1286 222.279 63.2666 224.141C61.4046 226.003 61.4046 229.021 63.2666 230.883C65.1286 232.745 68.147 232.745 70.009 230.883C71.871 229.021 71.871 226.003 70.009 224.141Z" fill="white"/>
<path d="M99.8596 194.27C97.9976 192.408 94.9792 192.408 93.1172 194.27C91.2552 196.132 91.2552 199.15 93.1172 201.012C94.9792 202.874 97.9976 202.874 99.8596 201.012C101.722 199.15 101.722 196.132 99.8596 194.27Z" fill="white"/>
<path d="M129.731 164.419C127.869 162.557 124.85 162.557 122.988 164.419C121.126 166.281 121.126 169.3 122.988 171.162C124.85 173.024 127.869 173.024 129.731 171.162C131.593 169.3 131.593 166.281 129.731 164.419Z" fill="white"/>
<path d="M152.859 141.291C154.721 143.153 157.739 143.153 159.601 141.291C161.463 139.429 161.463 136.411 159.601 134.549C157.739 132.687 154.721 132.687 152.859 134.549C150.997 136.411 150.997 139.429 152.859 141.291Z" fill="white"/>
</g>
<defs>
<radialGradient id="paint0_radial_0_99" cx="0" cy="0" r="1" gradientUnits="userSpaceOnUse" gradientTransform="translate(1488.07 698.333) rotate(-134.78) scale(1266.56 1266.53)">
<stop stop-color="#5BC7CE"/>
<stop offset="0.11" stop-color="#4198C0"/>
<stop offset="0.23" stop-color="#296BB3"/>
<stop offset="0.34" stop-color="#184AAA"/>
<stop offset="0.43" stop-color="#0D37A5"/>
<stop offset="0.49" stop-color="#0A30A3"/>
<stop offset="1" stop-color="#00152A"/>
</radialGradient>
<radialGradient id="paint1_radial_0_99" cx="0" cy="0" r="1" gradientUnits="userSpaceOnUse" gradientTransform="translate(1021.33 239.713) rotate(-180) scale(801.052)">
<stop stop-color="#5BC7CE"/>
<stop offset="0.11" stop-color="#4198C0"/>
<stop offset="0.23" stop-color="#296BB3"/>
<stop offset="0.34" stop-color="#184AAA"/>
<stop offset="0.43" stop-color="#0D37A5"/>
<stop offset="0.49" stop-color="#0A30A3"/>
<stop offset="1" stop-color="#00152A"/>
</radialGradient>
<radialGradient id="paint2_radial_0_99" cx="0" cy="0" r="1" gradientUnits="userSpaceOnUse" gradientTransform="translate(311.972 -254.95) rotate(30) scale(641.084)">
<stop stop-color="#0A30A3"/>
<stop offset="1" stop-color="#00152A"/>
</radialGradient>
<clipPath id="clip0_0_99">
<rect width="1920" height="477" fill="white"/>
</clipPath>
</defs>
</svg>
