<svg width="428" height="1324" viewBox="0 0 428 1324" fill="none" xmlns="http://www.w3.org/2000/svg">
<g clip-path="url(#clip0_17_908)">
<rect width="428" height="1324" fill="#001447"/>
<path d="M56.6195 982.214L-56.786 1095.62C-56.6096 1095.8 -56.4528 1095.99 -56.2764 1096.17C-56.1 1096.34 -55.904 1096.5 -55.7276 1096.68L57.678 983.272C57.5016 983.096 57.3448 982.9 57.1684 982.723C56.992 982.547 56.7959 982.39 56.6195 982.214Z" fill="#FF9149"/>
<path d="M-31.5805 1112.97C-31.0905 1113.18 -30.6005 1113.4 -30.0909 1113.61L74.6319 1008.89C74.4359 1008.4 74.2008 1007.91 73.9852 1007.4L-31.5805 1112.97Z" fill="#FF9149"/>
<path d="M-51.2588 1100.72C-50.8668 1101.05 -50.4943 1101.38 -50.1023 1101.7L62.7152 988.877C62.4016 988.485 62.0684 988.113 61.7352 987.721L-51.2588 1100.72Z" fill="#FF9149"/>
<path d="M-45.2415 1105.34C-44.8299 1105.63 -44.4183 1105.93 -43.9871 1106.22L67.2233 995.012C66.9489 994.581 66.6353 994.17 66.3413 993.758L-45.2611 1105.36L-45.2415 1105.34Z" fill="#FF9149"/>
<path d="M-23.858 1115.87C-23.3288 1116.04 -22.78 1116.22 -22.2508 1116.38L77.376 1016.75C77.2192 1016.2 77.0428 1015.67 76.8664 1015.14L-23.858 1115.87Z" fill="#FF9149"/>
<path d="M-38.6951 1109.44C-38.2443 1109.69 -37.7936 1109.95 -37.3232 1110.2L71.2216 1001.66C70.9668 1001.21 70.712 1000.76 70.4572 1000.28L-38.6951 1109.44Z" fill="#FF9149"/>
<path d="M-3.47398 959.321C-4.23838 959.36 -5.00276 959.419 -5.76716 959.478L-79.4828 1033.19C-79.5416 1033.96 -79.6004 1034.72 -79.6396 1035.49L-3.45437 959.301L-3.47398 959.321Z" fill="#FF9149"/>
<path d="M80.512 1034.9C80.4728 1034.23 80.4141 1033.57 80.3749 1032.92L-6.06116 1119.35C-5.39476 1119.41 -4.74794 1119.45 -4.08154 1119.49L80.512 1034.9Z" fill="#FF9149"/>
<path d="M-77.5229 1020.59C-77.7385 1021.49 -77.9345 1022.41 -78.1109 1023.31L-15.6652 960.869C-16.5668 961.046 -17.488 961.242 -18.3896 961.457L-77.5229 1020.59Z" fill="#FF9149"/>
<path d="M-15.4104 1118.06C-14.8224 1118.18 -14.2147 1118.28 -13.6071 1118.39L79.3949 1025.39C79.2969 1024.78 79.1792 1024.2 79.0616 1023.59L-15.4104 1118.06Z" fill="#FF9149"/>
<path d="M-71.4468 1003.89C-72.0936 1005.18 -72.7012 1006.52 -73.2696 1007.83L-31.1492 965.71C-32.482 966.279 -33.7952 966.886 -35.0888 967.533L-71.4468 1003.89Z" fill="#FF9149"/>
<path d="M-79.6199 1043.97C-79.5807 1044.64 -79.5221 1045.31 -79.4829 1045.95L6.95321 959.517C6.28681 959.458 5.6204 959.419 4.9736 959.38L-79.6199 1043.97Z" fill="#FF9149"/>
<path d="M-78.5028 1053.5C-78.4048 1054.11 -78.2871 1054.69 -78.1695 1055.3L16.3025 960.83C15.7145 960.712 15.1068 960.614 14.4992 960.497L-78.5028 1053.5Z" fill="#FF9149"/>
<path d="M16.5572 1118C17.4588 1117.83 18.38 1117.63 19.2816 1117.41L78.4149 1058.28C78.6305 1057.38 78.8265 1056.48 79.0029 1055.56L16.5572 1118Z" fill="#FF9149"/>
<path d="M-61.8233 1089.99C-61.5097 1090.39 -61.1765 1090.76 -60.8433 1091.15L52.1508 978.156C51.7588 977.823 51.3863 977.49 50.9943 977.176L-61.8233 1089.99Z" fill="#FF9149"/>
<path d="M4.38565 1119.53C5.15005 1119.49 5.91441 1119.43 6.67881 1119.37L80.3944 1045.66C80.4532 1044.89 80.512 1044.13 80.5512 1043.37L4.36603 1119.55L4.38565 1119.53Z" fill="#FF9149"/>
<path d="M72.3388 1074.98C72.9856 1073.69 73.5932 1072.35 74.1616 1071.04L32.0412 1113.16C33.374 1112.59 34.6872 1111.99 35.9808 1111.34L72.3388 1074.98Z" fill="#FF9149"/>
<path d="M-66.3312 1083.88C-66.0568 1084.31 -65.7431 1084.72 -65.4491 1085.13L46.1533 973.531C45.7417 973.237 45.33 972.943 44.8988 972.649L-66.3116 1083.86L-66.3312 1083.88Z" fill="#FF9149"/>
<path d="M-70.31 1077.21C-70.0748 1077.67 -69.8005 1078.12 -69.5457 1078.59L39.6068 969.434C39.156 969.18 38.7052 968.925 38.2348 968.67L-70.31 1077.21Z" fill="#FF9149"/>
<path d="M-76.4841 1062.12C-76.3273 1062.67 -76.1508 1063.2 -75.9744 1063.73L24.75 963.006C24.2208 962.829 23.672 962.653 23.1428 962.496L-76.4841 1062.12Z" fill="#FF9149"/>
<path d="M-73.7205 1069.98C-73.5245 1070.47 -73.2893 1070.96 -73.0737 1071.47L32.4919 965.906C32.0019 965.691 31.512 965.475 31.0024 965.26L-73.7205 1069.98Z" fill="#FF9149"/>
<path d="M656.333 22.1168C659.155 24.9392 659.155 29.5256 656.333 32.3676L324.368 364.333C321.545 367.155 316.959 367.155 314.117 364.333C311.294 361.51 311.294 356.924 314.117 354.082L646.082 22.1168C648.904 19.2944 653.491 19.2944 656.333 22.1168Z" fill="url(#paint0_linear_17_908)" style="mix-blend-mode:overlay"/>
<path d="M416.988 214.01C418.85 215.872 421.869 215.872 423.731 214.01C425.593 212.148 425.593 209.129 423.731 207.267C421.869 205.405 418.85 205.405 416.988 207.267C415.126 209.129 415.126 212.148 416.988 214.01Z" fill="white" fill-opacity="0.3"/>
<path d="M387.118 243.86C388.98 245.722 391.999 245.722 393.861 243.86C395.723 241.998 395.723 238.98 393.861 237.118C391.999 235.256 388.98 235.256 387.118 237.118C385.256 238.98 385.256 241.998 387.118 243.86Z" fill="white" fill-opacity="0.3"/>
<path d="M357.267 273.731C359.129 275.593 362.147 275.593 364.009 273.731C365.871 271.869 365.871 268.85 364.009 266.988C362.147 265.126 359.129 265.126 357.267 266.988C355.405 268.85 355.405 271.869 357.267 273.731Z" fill="white" fill-opacity="0.3"/>
<path d="M334.139 296.858C332.277 294.996 329.259 294.996 327.397 296.858C325.535 298.72 325.535 301.739 327.397 303.601C329.259 305.463 332.277 305.463 334.139 303.601C336.001 301.739 336.001 298.72 334.139 296.858Z" fill="white" fill-opacity="0.3"/>
<path d="M518.02 111.02C563.495 65.5446 563.495 -8.18515 518.02 -53.6603C472.545 -99.1353 398.815 -99.1354 353.34 -53.6603C307.865 -8.18516 307.865 65.5445 353.34 111.02C398.815 156.495 472.545 156.495 518.02 111.02Z" fill="url(#paint1_radial_17_908)" fill-opacity="0.3"/>
</g>
<defs>
<linearGradient id="paint0_linear_17_908" x1="334.5" y1="366" x2="552.5" y2="153.5" gradientUnits="userSpaceOnUse">
<stop stop-color="#0A30A3" stop-opacity="0.31"/>
<stop offset="1" stop-color="white" stop-opacity="0"/>
</linearGradient>
<radialGradient id="paint1_radial_17_908" cx="0" cy="0" r="1" gradientUnits="userSpaceOnUse" gradientTransform="translate(168.331 222.713) rotate(-180) scale(801.052)">
<stop stop-color="#5BC7CE"/>
<stop offset="0.11" stop-color="#4198C0"/>
<stop offset="0.23" stop-color="#296BB3"/>
<stop offset="0.34" stop-color="#184AAA"/>
<stop offset="0.43" stop-color="#0D37A5"/>
<stop offset="0.49" stop-color="#0A30A3"/>
<stop offset="1" stop-color="#00152A"/>
</radialGradient>
<clipPath id="clip0_17_908">
<rect width="428" height="1324" fill="white"/>
</clipPath>
</defs>
</svg>
