<svg width="320" height="1343" viewBox="0 0 320 1343" fill="none" xmlns="http://www.w3.org/2000/svg">
<g clip-path="url(#clip0_85_2565)">
<rect width="320" height="1343" fill="#001447"/>
<path d="M8.81445 15.5508L0.754003 17.9272" stroke="#179F0C" stroke-opacity="0.6" stroke-width="8.4" stroke-linecap="round"/>
<path d="M33.7422 -12.8242L6.33665 -4.74433" stroke="#1E6AC6" stroke-opacity="0.6" stroke-width="8.4" stroke-linecap="round"/>
<path d="M50.7285 3.19531L23.323 11.2752" stroke="#1E6AC6" stroke-opacity="0.6" stroke-width="8.4" stroke-linecap="round"/>
<path d="M52.2239 -3.73102C55.3903 -2.0308 56.6193 1.93675 54.9685 5.13095C53.3191 8.32475 49.4141 9.53624 46.2477 7.83602C45.833 7.61516 45.4217 7.38576 45.0167 7.15298C35.0624 1.41296 28.2536 -7.66698 25.2478 -17.8621C22.242 -28.0573 23.0359 -39.3787 28.2842 -49.6008C28.4981 -50.0161 28.7191 -50.4319 28.9477 -50.8425C34.7642 -61.3134 44.276 -68.4958 54.9495 -71.6426C65.6243 -74.7899 77.5099 -73.916 88.0765 -68.2752C88.4912 -68.0543 88.9026 -67.8249 89.3075 -67.5922C99.2619 -61.8521 106.071 -52.7722 109.076 -42.5771C112.082 -32.3819 111.288 -21.0605 106.04 -10.8383C105.827 -10.4217 105.605 -10.0073 105.376 -9.59672C103.639 -6.45067 99.7026 -5.35036 96.583 -7.13812C93.4648 -8.92627 92.3434 -12.9256 94.081 -16.0716C94.2511 -16.3791 94.4163 -16.6882 94.5746 -16.9952C98.193 -24.0429 98.7347 -31.8631 96.6556 -38.9151C94.5761 -45.9684 89.8772 -52.2435 83.016 -56.2001C82.716 -56.3735 82.4096 -56.5435 82.1003 -56.7082C76.7151 -59.5828 70.8069 -60.6838 65.0667 -60.215L73.3705 -32.05C74.398 -28.5648 72.4503 -24.9204 69.0211 -23.9094C65.5918 -22.8983 61.9785 -24.9032 60.951 -28.3884L52.6472 -56.5535C47.5708 -53.8332 43.2049 -49.7031 40.2405 -44.3668C40.0704 -44.0593 39.9052 -43.7502 39.7469 -43.4432C36.1285 -36.3955 35.5868 -28.5753 37.6659 -21.5233C39.7454 -14.4699 44.4429 -8.19443 51.3055 -4.23832C51.6055 -4.0649 51.9115 -3.89626 52.2212 -3.73021L52.2239 -3.73102Z" fill="#1E6AC6" fill-opacity="0.9"/>
<g clip-path="url(#clip1_85_2565)" filter="url(#filter0_d_85_2565)">
<rect width="320" height="1343" fill="#001447"/>
<path d="M59.6195 975.214L-53.786 1088.62C-53.6096 1088.8 -53.4528 1088.99 -53.2764 1089.17C-53.1 1089.35 -52.904 1089.5 -52.7276 1089.68L60.678 976.273C60.5016 976.096 60.3448 975.9 60.1684 975.724C59.992 975.548 59.7959 975.391 59.6195 975.214Z" fill="#FF9149"/>
<path d="M-28.5805 1105.97C-28.0905 1106.18 -27.6005 1106.4 -27.0909 1106.61L77.6319 1001.89C77.4359 1001.4 77.2008 1000.91 76.9852 1000.4L-28.5805 1105.97Z" fill="#FF9149"/>
<path d="M-48.2588 1093.72C-47.8668 1094.05 -47.4943 1094.38 -47.1023 1094.7L65.7152 981.878C65.4016 981.486 65.0684 981.114 64.7352 980.722L-48.2588 1093.72Z" fill="#FF9149"/>
<path d="M-42.2415 1098.34C-41.8299 1098.64 -41.4183 1098.93 -40.9871 1099.22L70.2233 988.013C69.9489 987.582 69.6353 987.17 69.3413 986.759L-42.2611 1098.36L-42.2415 1098.34Z" fill="#FF9149"/>
<path d="M-20.858 1108.87C-20.3288 1109.04 -19.78 1109.22 -19.2508 1109.38L80.376 1009.75C80.2192 1009.2 80.0428 1008.67 79.8664 1008.14L-20.858 1108.87Z" fill="#FF9149"/>
<path d="M-35.6951 1102.44C-35.2443 1102.69 -34.7936 1102.95 -34.3232 1103.2L74.2216 994.658C73.9668 994.207 73.712 993.756 73.4572 993.286L-35.6951 1102.44Z" fill="#FF9149"/>
<path d="M-0.473984 952.322C-1.23838 952.361 -2.00276 952.42 -2.76716 952.478L-76.4828 1026.19C-76.5416 1026.96 -76.6004 1027.72 -76.6396 1028.49L-0.454368 952.302L-0.473984 952.322Z" fill="#FF9149"/>
<path d="M83.512 1027.9C83.4728 1027.23 83.4141 1026.57 83.3749 1025.92L-3.06116 1112.36C-2.39476 1112.41 -1.74794 1112.45 -1.08154 1112.49L83.512 1027.9Z" fill="#FF9149"/>
<path d="M-74.5229 1013.59C-74.7385 1014.49 -74.9345 1015.41 -75.1109 1016.32L-12.6652 953.87C-13.5668 954.047 -14.488 954.243 -15.3896 954.458L-74.5229 1013.59Z" fill="#FF9149"/>
<path d="M-12.4104 1111.06C-11.8224 1111.18 -11.2147 1111.28 -10.6071 1111.4L82.3949 1018.39C82.2969 1017.79 82.1792 1017.2 82.0616 1016.59L-12.4104 1111.06Z" fill="#FF9149"/>
<path d="M-68.4468 996.892C-69.0936 998.186 -69.7012 999.519 -70.2696 1000.83L-28.1492 958.711C-29.482 959.28 -30.7952 959.887 -32.0888 960.534L-68.4468 996.892Z" fill="#FF9149"/>
<path d="M-76.6199 1036.97C-76.5807 1037.64 -76.5221 1038.31 -76.4829 1038.95L9.95321 952.518C9.28681 952.459 8.6204 952.42 7.9736 952.381L-76.6199 1036.97Z" fill="#FF9149"/>
<path d="M-75.5028 1046.5C-75.4048 1047.11 -75.2871 1047.7 -75.1695 1048.3L19.3025 953.831C18.7145 953.713 18.1068 953.615 17.4992 953.498L-75.5028 1046.5Z" fill="#FF9149"/>
<path d="M19.5572 1111C20.4588 1110.83 21.38 1110.63 22.2816 1110.42L81.4149 1051.28C81.6305 1050.38 81.8265 1049.48 82.0029 1048.56L19.5572 1111Z" fill="#FF9149"/>
<path d="M-58.8233 1082.99C-58.5097 1083.39 -58.1765 1083.76 -57.8433 1084.15L55.1508 971.157C54.7588 970.824 54.3863 970.491 53.9943 970.177L-58.8233 1082.99Z" fill="#FF9149"/>
<path d="M7.38565 1112.53C8.15005 1112.49 8.91441 1112.43 9.67881 1112.38L83.3944 1038.66C83.4532 1037.9 83.512 1037.13 83.5512 1036.37L7.36603 1112.55L7.38565 1112.53Z" fill="#FF9149"/>
<path d="M75.3388 1067.98C75.9856 1066.69 76.5932 1065.35 77.1616 1064.04L35.0412 1106.16C36.374 1105.59 37.6872 1104.99 38.9808 1104.34L75.3388 1067.98Z" fill="#FF9149"/>
<path d="M-63.3312 1076.88C-63.0568 1077.31 -62.7431 1077.72 -62.4491 1078.13L49.1533 966.532C48.7417 966.238 48.33 965.944 47.8988 965.65L-63.3116 1076.86L-63.3312 1076.88Z" fill="#FF9149"/>
<path d="M-67.31 1070.22C-67.0748 1070.67 -66.8005 1071.12 -66.5457 1071.59L42.6068 962.435C42.156 962.18 41.7052 961.926 41.2348 961.671L-67.31 1070.22Z" fill="#FF9149"/>
<path d="M-73.4841 1055.12C-73.3273 1055.67 -73.1508 1056.2 -72.9744 1056.73L27.75 956.007C27.2208 955.83 26.672 955.654 26.1428 955.497L-73.4841 1055.12Z" fill="#FF9149"/>
<path d="M-70.7205 1062.98C-70.5245 1063.47 -70.2893 1063.96 -70.0737 1064.47L35.4919 958.907C35.0019 958.692 34.512 958.476 34.0024 958.261L-70.7205 1062.98Z" fill="#FF9149"/>
<path d="M360.201 73.2023C382.145 51.258 382.145 15.6794 360.201 -6.26478C338.256 -28.209 302.678 -28.209 280.734 -6.26477C258.789 15.6794 258.789 51.258 280.734 73.2023C302.678 95.1465 338.256 95.1465 360.201 73.2023Z" fill="url(#paint0_radial_85_2565)" fill-opacity="0.3"/>
</g>
<path d="M297.268 299.733C299.13 301.595 302.148 301.595 304.01 299.733C305.872 297.871 305.872 294.852 304.01 292.99C302.148 291.128 299.13 291.128 297.268 292.99C295.406 294.852 295.406 297.871 297.268 299.733Z" fill="white" fill-opacity="0.3"/>
<path d="M274.139 322.857C272.277 320.995 269.258 320.995 267.396 322.857C265.534 324.719 265.534 327.738 267.396 329.6C269.258 331.462 272.277 331.462 274.139 329.6C276.001 327.738 276.001 324.719 274.139 322.857Z" fill="white" fill-opacity="0.3"/>
<path d="M596.333 48.1168C599.155 50.9392 599.155 55.5256 596.333 58.3676L264.368 390.333C261.545 393.155 256.959 393.155 254.117 390.333C251.294 387.51 251.294 382.924 254.117 380.082L586.082 48.1168C588.904 45.2944 593.491 45.2944 596.333 48.1168Z" fill="url(#paint1_linear_85_2565)" style="mix-blend-mode:overlay"/>
</g>
<defs>
<filter id="filter0_d_85_2565" x="-30" y="-26" width="380" height="1403" filterUnits="userSpaceOnUse" color-interpolation-filters="sRGB">
<feFlood flood-opacity="0" result="BackgroundImageFix"/>
<feColorMatrix in="SourceAlpha" type="matrix" values="0 0 0 0 0 0 0 0 0 0 0 0 0 0 0 0 0 0 127 0" result="hardAlpha"/>
<feOffset dy="4"/>
<feGaussianBlur stdDeviation="15"/>
<feComposite in2="hardAlpha" operator="out"/>
<feColorMatrix type="matrix" values="0 0 0 0 0.0862745 0 0 0 0 0.498039 0 0 0 0 0.988235 0 0 0 1 0"/>
<feBlend mode="normal" in2="BackgroundImageFix" result="effect1_dropShadow_85_2565"/>
<feBlend mode="normal" in="SourceGraphic" in2="effect1_dropShadow_85_2565" result="shape"/>
</filter>
<radialGradient id="paint0_radial_85_2565" cx="0" cy="0" r="1" gradientUnits="userSpaceOnUse" gradientTransform="translate(191.456 127.1) rotate(180) scale(386.551)">
<stop stop-color="#5BC7CE"/>
<stop offset="0.11" stop-color="#4198C0"/>
<stop offset="0.23" stop-color="#296BB3"/>
<stop offset="0.34" stop-color="#184AAA"/>
<stop offset="0.43" stop-color="#0D37A5"/>
<stop offset="0.49" stop-color="#0A30A3"/>
<stop offset="1" stop-color="#00152A"/>
</radialGradient>
<linearGradient id="paint1_linear_85_2565" x1="274.5" y1="392" x2="492.5" y2="179.5" gradientUnits="userSpaceOnUse">
<stop stop-color="#0A30A3" stop-opacity="0.31"/>
<stop offset="1" stop-color="white" stop-opacity="0"/>
</linearGradient>
<clipPath id="clip0_85_2565">
<rect width="320" height="1343" fill="white"/>
</clipPath>
<clipPath id="clip1_85_2565">
<rect width="320" height="1343" fill="white"/>
</clipPath>
</defs>
</svg>
