<svg width="1280" height="477" viewBox="0 0 1280 477" fill="none" xmlns="http://www.w3.org/2000/svg">
<g clip-path="url(#clip0_12_277)">
<rect width="1280" height="477" fill="#001447"/>
<path d="M786.276 420.214L672.792 533.62C672.968 533.797 673.125 533.993 673.302 534.169C673.478 534.345 673.675 534.502 673.851 534.678L787.336 421.273C787.159 421.096 787.002 420.9 786.826 420.724C786.649 420.548 786.453 420.391 786.276 420.214Z" fill="#FF9149"/>
<path d="M698.015 550.966C698.505 551.182 698.996 551.397 699.506 551.613L804.301 446.89C804.105 446.4 803.87 445.91 803.654 445.401L698.015 550.966Z" fill="#FF9149"/>
<path d="M678.323 538.716C678.715 539.049 679.088 539.382 679.48 539.696L792.376 426.878C792.062 426.486 791.729 426.114 791.396 425.722L678.323 538.716Z" fill="#FF9149"/>
<path d="M684.345 543.342C684.756 543.636 685.168 543.93 685.6 544.224L796.887 433.013C796.613 432.582 796.299 432.17 796.005 431.759L684.325 543.361L684.345 543.342Z" fill="#FF9149"/>
<path d="M705.743 553.867C706.272 554.043 706.822 554.22 707.351 554.377L807.047 454.75C806.89 454.201 806.714 453.672 806.537 453.142L705.743 553.867Z" fill="#FF9149"/>
<path d="M690.895 547.438C691.347 547.693 691.798 547.948 692.268 548.202L800.889 439.658C800.634 439.207 800.379 438.756 800.124 438.286L690.895 547.438Z" fill="#FF9149"/>
<path d="M726.141 397.322C725.376 397.361 724.611 397.42 723.846 397.478L650.079 471.194C650.021 471.959 649.962 472.723 649.923 473.487L726.161 397.302L726.141 397.322Z" fill="#FF9149"/>
<path d="M810.185 472.899C810.146 472.233 810.087 471.566 810.048 470.92L723.552 557.356C724.219 557.414 724.866 557.454 725.533 557.493L810.185 472.899Z" fill="#FF9149"/>
<path d="M652.041 458.591C651.825 459.493 651.629 460.414 651.452 461.316L713.941 398.87C713.039 399.047 712.117 399.243 711.215 399.458L652.041 458.591Z" fill="#FF9149"/>
<path d="M714.196 556.062C714.785 556.18 715.393 556.278 716.001 556.395L809.068 463.393C808.969 462.786 808.852 462.198 808.734 461.59L714.196 556.062Z" fill="#FF9149"/>
<path d="M658.121 441.892C657.474 443.186 656.866 444.519 656.297 445.832L698.447 403.711C697.113 404.28 695.799 404.887 694.504 405.534L658.121 441.892Z" fill="#FF9149"/>
<path d="M649.942 481.974C649.981 482.641 650.04 483.307 650.079 483.954L736.576 397.518C735.909 397.459 735.242 397.42 734.595 397.381L649.942 481.974Z" fill="#FF9149"/>
<path d="M651.06 491.5C651.158 492.107 651.276 492.695 651.394 493.303L745.931 398.831C745.343 398.713 744.735 398.615 744.127 398.498L651.06 491.5Z" fill="#FF9149"/>
<path d="M746.186 556.003C747.088 555.827 748.01 555.631 748.912 555.415L808.087 496.282C808.303 495.38 808.499 494.479 808.675 493.558L746.186 556.003Z" fill="#FF9149"/>
<path d="M667.751 527.995C668.065 528.387 668.398 528.759 668.732 529.151L781.804 416.157C781.412 415.824 781.039 415.491 780.647 415.177L667.751 527.995Z" fill="#FF9149"/>
<path d="M734.006 557.532C734.771 557.493 735.536 557.434 736.301 557.375L810.068 483.66C810.127 482.895 810.185 482.131 810.225 481.367L733.987 557.552L734.006 557.532Z" fill="#FF9149"/>
<path d="M802.007 512.981C802.654 511.688 803.262 510.355 803.831 509.042L761.681 551.162C763.015 550.594 764.329 549.986 765.623 549.339L802.007 512.981Z" fill="#FF9149"/>
<path d="M663.24 521.88C663.515 522.311 663.829 522.722 664.123 523.134L775.803 411.532C775.391 411.238 774.979 410.944 774.547 410.65L663.26 521.86L663.24 521.88Z" fill="#FF9149"/>
<path d="M659.259 515.216C659.494 515.666 659.768 516.117 660.023 516.588L769.252 407.435C768.801 407.18 768.35 406.926 767.879 406.671L659.259 515.216Z" fill="#FF9149"/>
<path d="M653.08 500.124C653.237 500.673 653.414 501.202 653.59 501.731L754.385 401.007C753.855 400.83 753.306 400.654 752.776 400.497L653.08 500.124Z" fill="#FF9149"/>
<path d="M655.846 507.983C656.042 508.473 656.277 508.963 656.493 509.473L762.132 403.907C761.642 403.692 761.151 403.476 760.641 403.261L655.846 507.983Z" fill="#FF9149"/>
<path d="M997.824 128.02C1043.33 82.5446 1043.33 8.81484 997.824 -36.6603C952.318 -82.1354 878.537 -82.1354 833.03 -36.6603C787.523 8.81484 787.523 82.5445 833.03 128.02C878.537 173.495 952.318 173.495 997.824 128.02Z" fill="url(#paint0_radial_12_277)" fill-opacity="0.3"/>
<path opacity="0.94" d="M101.706 -75.8799C36.8468 -160.428 -84.2716 -176.447 -168.829 -111.661C-253.387 -46.8756 -269.354 74.1755 -204.495 158.723C-139.636 243.271 -18.5176 259.291 66.0399 194.505C150.597 129.719 166.565 8.668 101.706 -75.8799ZM-143.845 112.255C-183.009 61.2033 -173.366 -11.8994 -122.308 -51.0185C-71.2505 -90.1376 1.89277 -80.4635 41.0562 -29.4116C80.2195 21.6403 70.5767 94.743 19.519 133.862C-31.5387 172.981 -104.682 163.307 -143.845 112.255Z" fill="url(#paint1_radial_12_277)"/>
</g>
<defs>
<radialGradient id="paint0_radial_12_277" cx="0" cy="0" r="1" gradientUnits="userSpaceOnUse" gradientTransform="translate(647.892 239.713) rotate(-180) scale(801.608 801.052)">
<stop stop-color="#5BC7CE"/>
<stop offset="0.11" stop-color="#4198C0"/>
<stop offset="0.23" stop-color="#296BB3"/>
<stop offset="0.34" stop-color="#184AAA"/>
<stop offset="0.43" stop-color="#0D37A5"/>
<stop offset="0.49" stop-color="#0A30A3"/>
<stop offset="1" stop-color="#00152A"/>
</radialGradient>
<radialGradient id="paint1_radial_12_277" cx="0" cy="0" r="1" gradientUnits="userSpaceOnUse" gradientTransform="translate(92.0343 -35.596) rotate(52.5071) scale(400.315 400.176)">
<stop stop-color="#0A30A3"/>
<stop offset="1" stop-color="#00152A"/>
</radialGradient>
<clipPath id="clip0_12_277">
<rect width="1280" height="477" fill="white"/>
</clipPath>
</defs>
</svg>
