<svg width="968" height="1097" viewBox="0 0 968 1097" fill="none" xmlns="http://www.w3.org/2000/svg">
<g clip-path="url(#clip0_13_362)">
<rect width="968" height="1097" fill="#001447"/>
<path d="M80.6195 771.214L-32.786 884.62C-32.6096 884.797 -32.4528 884.993 -32.2764 885.169C-32.1 885.345 -31.904 885.502 -31.7276 885.678L81.678 772.273C81.5016 772.096 81.3448 771.9 81.1684 771.724C80.992 771.548 80.7959 771.391 80.6195 771.214Z" fill="#FF9149"/>
<path d="M-7.58048 901.966C-7.09048 902.182 -6.60046 902.397 -6.09086 902.613L98.6319 797.89C98.4359 797.4 98.2008 796.91 97.9852 796.401L-7.58048 901.966Z" fill="#FF9149"/>
<path d="M-27.2588 889.716C-26.8668 890.049 -26.4943 890.382 -26.1023 890.696L86.7152 777.878C86.4016 777.486 86.0684 777.114 85.7352 776.722L-27.2588 889.716Z" fill="#FF9149"/>
<path d="M-21.2415 894.342C-20.8299 894.636 -20.4183 894.93 -19.9871 895.224L91.2233 784.013C90.9489 783.582 90.6353 783.17 90.3413 782.759L-21.2611 894.361L-21.2415 894.342Z" fill="#FF9149"/>
<path d="M0.141964 904.867C0.671164 905.043 1.21998 905.22 1.74918 905.377L101.376 805.75C101.219 805.201 101.043 804.672 100.866 804.142L0.141964 904.867Z" fill="#FF9149"/>
<path d="M-14.6951 898.438C-14.2443 898.693 -13.7936 898.948 -13.3232 899.202L95.2216 790.658C94.9668 790.207 94.712 789.756 94.4572 789.286L-14.6951 898.438Z" fill="#FF9149"/>
<path d="M20.526 748.322C19.7616 748.361 18.9972 748.42 18.2328 748.478L-55.4828 822.194C-55.5416 822.959 -55.6004 823.723 -55.6396 824.487L20.5456 748.302L20.526 748.322Z" fill="#FF9149"/>
<path d="M104.512 823.899C104.473 823.233 104.414 822.566 104.375 821.92L17.9388 908.356C18.6052 908.414 19.2521 908.454 19.9185 908.493L104.512 823.899Z" fill="#FF9149"/>
<path d="M-53.5229 809.591C-53.7385 810.493 -53.9345 811.414 -54.1109 812.316L8.33482 749.87C7.43322 750.047 6.512 750.243 5.6104 750.458L-53.5229 809.591Z" fill="#FF9149"/>
<path d="M8.58959 907.062C9.17759 907.18 9.78528 907.278 10.3929 907.395L103.395 814.393C103.297 813.786 103.179 813.198 103.062 812.59L8.58959 907.062Z" fill="#FF9149"/>
<path d="M-47.4468 792.892C-48.0936 794.186 -48.7012 795.519 -49.2696 796.832L-7.14918 754.711C-8.48198 755.28 -9.7952 755.887 -11.0888 756.534L-47.4468 792.892Z" fill="#FF9149"/>
<path d="M-55.6199 832.974C-55.5807 833.641 -55.5221 834.307 -55.4829 834.954L30.9532 748.518C30.2868 748.459 29.6204 748.42 28.9736 748.381L-55.6199 832.974Z" fill="#FF9149"/>
<path d="M-54.5028 842.5C-54.4048 843.107 -54.2871 843.695 -54.1695 844.303L40.3025 749.831C39.7145 749.713 39.1068 749.615 38.4992 749.498L-54.5028 842.5Z" fill="#FF9149"/>
<path d="M40.5572 907.003C41.4588 906.827 42.38 906.631 43.2816 906.415L102.415 847.282C102.631 846.38 102.826 845.479 103.003 844.558L40.5572 907.003Z" fill="#FF9149"/>
<path d="M-37.8233 878.995C-37.5097 879.387 -37.1765 879.759 -36.8433 880.151L76.1508 767.157C75.7588 766.824 75.3863 766.491 74.9943 766.177L-37.8233 878.995Z" fill="#FF9149"/>
<path d="M28.3857 908.532C29.1501 908.493 29.9144 908.434 30.6788 908.375L104.394 834.66C104.453 833.895 104.512 833.131 104.551 832.367L28.366 908.552L28.3857 908.532Z" fill="#FF9149"/>
<path d="M96.3388 863.981C96.9856 862.688 97.5932 861.355 98.1616 860.042L56.0412 902.162C57.374 901.594 58.6872 900.986 59.9808 900.339L96.3388 863.981Z" fill="#FF9149"/>
<path d="M-42.3312 872.88C-42.0568 873.311 -41.7431 873.722 -41.4491 874.134L70.1533 762.532C69.7417 762.238 69.33 761.944 68.8988 761.65L-42.3116 872.86L-42.3312 872.88Z" fill="#FF9149"/>
<path d="M-46.31 866.216C-46.0748 866.666 -45.8005 867.117 -45.5457 867.588L63.6068 758.435C63.156 758.18 62.7052 757.926 62.2348 757.671L-46.31 866.216Z" fill="#FF9149"/>
<path d="M-52.4841 851.124C-52.3273 851.673 -52.1508 852.202 -51.9744 852.731L48.75 752.007C48.2208 751.83 47.672 751.654 47.1428 751.497L-52.4841 851.124Z" fill="#FF9149"/>
<path d="M-49.7205 858.983C-49.5245 859.473 -49.2893 859.963 -49.0737 860.473L56.4919 754.907C56.0019 754.692 55.512 754.476 55.0024 754.261L-49.7205 858.983Z" fill="#FF9149"/>
<path d="M1093.33 -35.8832C1096.16 -33.0608 1096.16 -28.4744 1093.33 -25.6324L761.368 306.333C758.545 309.155 753.959 309.155 751.117 306.333C748.294 303.51 748.294 298.924 751.117 296.082L1083.08 -35.8832C1085.9 -38.7056 1090.49 -38.7056 1093.33 -35.8832Z" fill="url(#paint0_linear_13_362)" style="mix-blend-mode:overlay"/>
<path d="M883.859 126.139C885.721 128.001 888.74 128.001 890.602 126.139C892.464 124.277 892.464 121.258 890.602 119.396C888.74 117.534 885.721 117.534 883.859 119.396C881.997 121.258 881.997 124.277 883.859 126.139Z" fill="white" fill-opacity="0.3"/>
<path d="M853.988 156.01C855.85 157.872 858.869 157.872 860.731 156.01C862.593 154.148 862.593 151.13 860.731 149.268C858.869 147.406 855.85 147.406 853.988 149.268C852.126 151.13 852.126 154.148 853.988 156.01Z" fill="white" fill-opacity="0.3"/>
<path d="M824.119 185.86C825.981 187.722 829 187.722 830.862 185.86C832.724 183.998 832.724 180.979 830.862 179.117C829 177.255 825.981 177.255 824.119 179.117C822.257 180.979 822.257 183.998 824.119 185.86Z" fill="white" fill-opacity="0.3"/>
<path d="M794.268 215.731C796.13 217.593 799.148 217.593 801.01 215.731C802.872 213.869 802.872 210.85 801.01 208.988C799.148 207.126 796.13 207.126 794.268 208.988C792.406 210.85 792.406 213.869 794.268 215.731Z" fill="white" fill-opacity="0.3"/>
<path d="M771.139 238.859C769.277 236.997 766.258 236.997 764.396 238.859C762.534 240.721 762.534 243.74 764.396 245.602C766.258 247.464 769.277 247.464 771.139 245.602C773.001 243.74 773.001 240.721 771.139 238.859Z" fill="white" fill-opacity="0.3"/>
<path d="M840.02 111.02C885.495 65.5445 885.495 -8.18518 840.02 -53.6603C794.545 -99.1354 720.815 -99.1354 675.34 -53.6603C629.865 -8.18516 629.865 65.5445 675.34 111.02C720.815 156.495 794.545 156.495 840.02 111.02Z" fill="url(#paint1_radial_13_362)" fill-opacity="0.3"/>
</g>
<defs>
<linearGradient id="paint0_linear_13_362" x1="771.5" y1="308" x2="989.5" y2="95.5001" gradientUnits="userSpaceOnUse">
<stop stop-color="#0A30A3" stop-opacity="0.31"/>
<stop offset="1" stop-color="white" stop-opacity="0"/>
</linearGradient>
<radialGradient id="paint1_radial_13_362" cx="0" cy="0" r="1" gradientUnits="userSpaceOnUse" gradientTransform="translate(490.331 222.713) rotate(-180) scale(801.052)">
<stop stop-color="#5BC7CE"/>
<stop offset="0.11" stop-color="#4198C0"/>
<stop offset="0.23" stop-color="#296BB3"/>
<stop offset="0.34" stop-color="#184AAA"/>
<stop offset="0.43" stop-color="#0D37A5"/>
<stop offset="0.49" stop-color="#0A30A3"/>
<stop offset="1" stop-color="#00152A"/>
</radialGradient>
<clipPath id="clip0_13_362">
<rect width="968" height="1097" fill="white"/>
</clipPath>
</defs>
</svg>
