<svg width="1920" height="809" viewBox="0 0 1920 809" fill="none" xmlns="http://www.w3.org/2000/svg">
<path d="M1920 0H0V809H1920V0Z" fill="url(#paint0_linear_134_4234)"/>
<g opacity="0.6">
<path d="M1504.5 377.537L1266.88 313.713" stroke="#1E6AC6" stroke-opacity="0.6" stroke-width="8.4" stroke-linecap="round"/>
<path d="M1203.52 296.693L1195.6 294.566" stroke="#179F0C" stroke-opacity="0.6" stroke-width="8.4" stroke-linecap="round"/>
<path d="M1104.71 601.336L1065.11 590.699" stroke="#179F0C" stroke-opacity="0.6" stroke-width="8.4" stroke-linecap="round"/>
<path d="M1019.58 349.189L995.824 342.807" stroke="#179F0C" stroke-opacity="0.6" stroke-width="8.4" stroke-linecap="round"/>
<path d="M1082.71 493.525L1071.4 490.486" stroke="#179F0C" stroke-opacity="0.6" stroke-width="8.4" stroke-linecap="round"/>
<path d="M1328.48 432.158L1106.71 372.589" stroke="#1E6AC6" stroke-opacity="0.6" stroke-width="8.4" stroke-linecap="round"/>
<path d="M1280.72 546.711L1146.08 510.544" stroke="#1E6AC6" stroke-opacity="0.6" stroke-width="8.4" stroke-linecap="round"/>
<path d="M1310.64 656.648L1175.99 620.481" stroke="#1E6AC6" stroke-opacity="0.6" stroke-width="8.4" stroke-linecap="round"/>
<path d="M1334.5 631.629C1343.35 646.77 1338.36 666.414 1323.35 675.505C1308.35 684.597 1289.01 679.694 1280.16 664.553C1279 662.578 1277.87 660.575 1276.78 658.575C1249.96 609.331 1244.75 554.197 1258.2 504.107C1271.66 454.017 1303.8 408.916 1351.68 379.735C1353.62 378.552 1355.6 377.384 1357.6 376.258C1408.48 347.488 1466.36 341.819 1518.8 355.904C1571.25 369.992 1618.49 403.9 1648.11 454.29C1649.27 456.266 1650.4 458.268 1651.49 460.268C1678.31 509.512 1683.52 564.646 1670.07 614.736C1656.61 664.826 1624.47 709.927 1576.59 739.108C1574.64 740.298 1572.67 741.459 1570.67 742.586C1555.43 751.255 1536.24 745.81 1527.81 730.423C1519.38 715.039 1524.9 695.537 1540.15 686.868C1541.64 686.021 1543.11 685.155 1544.55 684.281C1577.56 664.162 1599.73 632.992 1609.04 598.344C1618.35 563.69 1614.77 525.604 1596.29 491.662C1595.48 490.176 1594.64 488.688 1593.77 487.215C1578.68 461.534 1556.89 441.904 1531.81 429.236L1494.64 567.615C1490.04 584.738 1472.65 594.947 1455.8 590.421C1438.95 585.895 1429.02 568.348 1433.62 551.225L1470.79 412.846C1442.73 411.239 1414.04 417.311 1388.11 431.972C1386.62 432.819 1385.15 433.684 1383.7 434.559C1350.69 454.678 1328.52 485.848 1319.22 520.495C1309.91 555.15 1313.48 593.234 1331.97 627.178C1332.77 628.664 1333.62 630.145 1334.48 631.625L1334.5 631.629Z" fill="#1E6AC6" fill-opacity="0.9"/>
</g>
<path opacity="0.94" d="M1880.69 189.376C2040.68 189.376 2170.38 59.6828 2170.38 -100.312C2170.38 -260.307 2040.68 -390 1880.69 -390C1720.69 -390 1591 -260.307 1591 -100.312C1591 59.6828 1720.69 189.376 1880.69 189.376ZM1880.69 -275.242C1977.3 -275.242 2055.62 -196.92 2055.62 -100.312C2055.62 -3.70358 1977.3 74.618 1880.69 74.618C1784.08 74.618 1705.76 -3.70358 1705.76 -100.312C1705.76 -196.92 1784.08 -275.242 1880.69 -275.242Z" fill="url(#paint1_radial_134_4234)"/>
<path opacity="0.94" d="M45.9999 -459C-239.539 -459 -471 -227.539 -471 58C-471 343.539 -239.539 575 45.9999 575C331.539 575 563 343.539 563 58C563 -227.539 331.539 -459 45.9999 -459ZM45.9999 370.194C-126.415 370.194 -266.194 230.415 -266.194 58C-266.194 -114.415 -126.415 -254.194 45.9999 -254.194C218.415 -254.194 358.194 -114.415 358.194 58C358.194 230.415 218.415 370.194 45.9999 370.194Z" fill="url(#paint2_radial_134_4234)"/>
<path d="M320.569 111.546L261.691 52.6676C210.731 101.001 130.273 100.217 80.3125 50.2568C30.3521 0.296425 29.5877 -80.1617 77.9017 -131.122L19.0233 -190C-61.8071 -106.543 -61.0035 26.6388 21.4537 109.116C103.911 191.573 237.093 192.376 320.569 111.546Z" fill="url(#paint3_radial_134_4234)" fill-opacity="0.2"/>
<g clip-path="url(#clip0_134_4234)" filter="url(#filter0_d_134_4234)">
<rect width="1920" height="477" transform="translate(0 809)" fill="#001447"/>
<path d="M1371.02 937.02C1416.49 891.545 1416.49 817.815 1371.02 772.34C1325.54 726.865 1251.82 726.865 1206.34 772.34C1160.86 817.815 1160.86 891.545 1206.34 937.02C1251.82 982.495 1325.54 982.495 1371.02 937.02Z" fill="url(#paint4_radial_134_4234)" fill-opacity="0.3"/>
<path opacity="0.94" d="M301.566 488.491C153.779 403.165 -35.185 453.798 -120.51 601.586C-205.836 749.374 -155.203 938.337 -7.41525 1023.66C140.373 1108.99 329.336 1058.36 414.661 910.567C499.987 762.78 449.354 573.816 301.566 488.491ZM53.7853 917.66C-35.4523 866.139 -66.0293 752.024 -14.5079 662.786C37.0134 573.549 151.128 542.972 240.366 594.493C329.603 646.014 360.18 760.129 308.659 849.367C257.138 938.604 143.023 969.181 53.7853 917.66Z" fill="url(#paint5_radial_134_4234)"/>
</g>
<defs>
<filter id="filter0_d_134_4234" x="-30" y="783" width="1980" height="537" filterUnits="userSpaceOnUse" color-interpolation-filters="sRGB">
<feFlood flood-opacity="0" result="BackgroundImageFix"/>
<feColorMatrix in="SourceAlpha" type="matrix" values="0 0 0 0 0 0 0 0 0 0 0 0 0 0 0 0 0 0 127 0" result="hardAlpha"/>
<feOffset dy="4"/>
<feGaussianBlur stdDeviation="15"/>
<feComposite in2="hardAlpha" operator="out"/>
<feColorMatrix type="matrix" values="0 0 0 0 0.0862745 0 0 0 0 0.498039 0 0 0 0 0.988235 0 0 0 1 0"/>
<feBlend mode="normal" in2="BackgroundImageFix" result="effect1_dropShadow_134_4234"/>
<feBlend mode="normal" in="SourceGraphic" in2="effect1_dropShadow_134_4234" result="shape"/>
</filter>
<linearGradient id="paint0_linear_134_4234" x1="0" y1="0" x2="1919.28" y2="810.698" gradientUnits="userSpaceOnUse">
<stop stop-color="#0A30A3"/>
<stop offset="0.585704" stop-color="#001447"/>
</linearGradient>
<radialGradient id="paint1_radial_134_4234" cx="0" cy="0" r="1" gradientUnits="userSpaceOnUse" gradientTransform="translate(1782.1 124.461) scale(758.657 758.657)">
<stop stop-color="#0A30A3"/>
<stop offset="1" stop-color="#00152A"/>
</radialGradient>
<radialGradient id="paint2_radial_134_4234" cx="0" cy="0" r="1" gradientUnits="userSpaceOnUse" gradientTransform="translate(115.924 -372.705) scale(1072.69)">
<stop stop-color="#0A30A3"/>
<stop offset="1" stop-color="#00152A"/>
</radialGradient>
<radialGradient id="paint3_radial_134_4234" cx="0" cy="0" r="1" gradientUnits="userSpaceOnUse" gradientTransform="translate(2.17745 -178.278) rotate(-45) scale(1433.13)">
<stop stop-color="#5BC7CE"/>
<stop offset="0.11" stop-color="#4198C0"/>
<stop offset="0.23" stop-color="#296BB3"/>
<stop offset="0.34" stop-color="#184AAA"/>
<stop offset="0.43" stop-color="#0D37A5"/>
<stop offset="0.49" stop-color="#0A30A3"/>
<stop offset="1" stop-color="#00152A"/>
</radialGradient>
<radialGradient id="paint4_radial_134_4234" cx="0" cy="0" r="1" gradientUnits="userSpaceOnUse" gradientTransform="translate(1021.33 1048.71) rotate(-180) scale(801.052)">
<stop stop-color="#5BC7CE"/>
<stop offset="0.11" stop-color="#4198C0"/>
<stop offset="0.23" stop-color="#296BB3"/>
<stop offset="0.34" stop-color="#184AAA"/>
<stop offset="0.43" stop-color="#0D37A5"/>
<stop offset="0.49" stop-color="#0A30A3"/>
<stop offset="1" stop-color="#00152A"/>
</radialGradient>
<radialGradient id="paint5_radial_134_4234" cx="0" cy="0" r="1" gradientUnits="userSpaceOnUse" gradientTransform="translate(311.971 554.05) rotate(30) scale(641.084)">
<stop stop-color="#0A30A3"/>
<stop offset="1" stop-color="#00152A"/>
</radialGradient>
<clipPath id="clip0_134_4234">
<rect width="1920" height="477" fill="white" transform="translate(0 809)"/>
</clipPath>
</defs>
</svg>
