<svg width="396" height="89" viewBox="0 0 396 89" fill="none" xmlns="http://www.w3.org/2000/svg">
<path d="M166.142 46.1384C166.142 63.1187 152.337 76.8843 135.309 76.8843C118.281 76.8843 104.477 63.1187 104.477 46.1384C104.477 29.1593 118.282 15.3925 135.309 15.3925C152.336 15.3925 166.142 29.1585 166.142 46.1384ZM283.263 59.5774C284.422 57.9235 286.705 57.5192 288.364 58.6749C290.023 59.8303 290.428 62.1074 289.269 63.7614C288.716 64.5503 288.173 65.262 287.643 65.8937C281.827 72.8159 273.239 76.8843 264.06 76.8843C246.968 76.8843 233.266 63.0458 233.275 46.042C233.275 29.1511 247.139 15.3929 264.06 15.3929C276.649 15.3929 287.77 22.9901 292.496 34.3865C294.024 38.0714 294.833 42.0602 294.833 46.1384C294.833 48.1869 293.148 49.8069 291.126 49.8069H240.917C242.698 61.1206 252.479 69.5481 264.06 69.5481C271.052 69.5481 277.595 66.4513 282.01 61.194C282.493 60.6192 282.911 60.08 283.263 59.5778V59.5774ZM240.917 42.4703H287.215C286.924 40.6458 286.419 38.8654 285.714 37.1662C282.124 28.5077 273.608 22.7291 264.06 22.7291C252.479 22.7291 242.698 31.1562 240.916 42.4703H240.917ZM197.612 22.8177C195.588 22.9921 193.806 21.4969 193.631 19.4789C193.457 17.4612 194.956 15.6844 196.98 15.5099C214.859 13.95 230.495 28.0075 230.495 46.138C230.495 54.0056 227.484 61.8744 221.464 67.8778C220.027 69.3105 217.698 69.3105 216.262 67.8782L180.664 32.3806C177.68 36.4685 176.187 41.3033 176.187 46.138C176.187 59.9544 188.066 70.6484 201.713 69.4584C203.737 69.2844 205.519 70.7788 205.694 72.7968C205.868 74.8148 204.369 76.5921 202.345 76.7661C184.444 78.3272 168.83 64.251 168.83 46.138C168.83 38.27 171.841 30.4016 177.861 24.3983C179.297 22.9655 181.626 22.9655 183.063 24.3979L218.66 59.8954C221.645 55.8071 223.138 50.9728 223.138 46.138C223.138 32.3123 211.242 21.6288 197.612 22.8173L197.612 22.8177ZM304.389 34.4334C303.374 36.1825 301.129 36.7791 299.375 35.7658C297.621 34.7533 297.022 32.5141 298.039 30.7653C299.389 28.4331 301.036 26.3016 302.946 24.3983C308.971 18.3946 316.862 15.3925 324.748 15.3925C332.634 15.3925 340.524 18.3946 346.549 24.3983C348.459 26.3012 350.106 28.4339 351.456 30.7653C352.472 32.5141 351.874 34.7533 350.12 35.7658C348.366 36.7791 346.121 36.1822 345.106 34.4334C344.084 32.669 342.822 31.0259 341.376 29.585C337.727 25.9481 333.17 23.7584 328.426 23.0151V73.2158C328.426 75.2417 326.779 76.8839 324.748 76.8839C322.716 76.8839 321.069 75.2417 321.069 73.2158V23.0151C316.325 23.7584 311.769 25.9481 308.119 29.585C306.674 31.0255 305.412 32.669 304.39 34.4334H304.389ZM54.3564 67.8723C52.9806 69.2442 50.4999 69.3394 49.15 67.8528C43.1328 61.851 40.1243 53.992 40.1243 46.1372C40.1243 29.1675 53.9412 15.3984 70.9569 15.3984C87.973 15.3984 101.789 29.1671 101.789 46.1372C101.789 54.8402 98.587 61.5685 92.7518 67.8657C91.3158 69.298 88.9931 69.3047 87.5571 67.8723C86.1156 66.4349 86.1309 64.1215 87.5692 62.6876C92.1449 58.1197 94.4327 52.1304 94.4327 46.1372C94.4327 34.5832 85.9939 24.8025 74.6358 23.0213V46.1372C74.6358 48.1631 72.9889 49.8053 70.9573 49.8053C68.9258 49.8053 67.2789 48.1631 67.2789 46.1372V23.0213C55.9203 24.8029 47.4819 34.5828 47.4819 46.1372C47.4819 52.1304 49.7698 58.1197 54.345 62.6876C55.7501 64.1925 55.8472 66.3869 54.3572 67.8723H54.3564ZM135.309 22.7287C122.343 22.7287 111.834 33.2086 111.834 46.138C111.834 59.0679 122.343 69.5477 135.309 69.5477C148.276 69.5477 158.785 59.0679 158.785 46.138C158.785 33.209 148.275 22.7287 135.309 22.7287Z" fill="#C2D3FF"/>
<circle cx="71.088" cy="46.1387" r="30.7148" stroke="#E0E0E0" stroke-opacity="0.6" stroke-width="0.5"/>
<circle cx="135.198" cy="46.1387" r="30.7148" stroke="#E0E0E0" stroke-opacity="0.6" stroke-width="0.5"/>
<circle cx="199.744" cy="46.1387" r="30.7148" stroke="#E0E0E0" stroke-opacity="0.6" stroke-width="0.5"/>
<circle cx="264.29" cy="46.1387" r="30.7148" stroke="#E0E0E0" stroke-opacity="0.6" stroke-width="0.5"/>
<path d="M295.284 38.0383C296.663 32.9974 299.304 28.3915 302.959 24.6565C306.614 20.9214 311.162 18.1807 316.172 16.6937C321.182 15.2066 326.488 15.0225 331.589 16.1585C336.69 17.2946 341.417 19.7134 345.322 23.1861C349.227 26.6587 352.182 31.0703 353.906 36.0035C355.631 40.9367 356.068 46.2283 355.176 51.3776C354.285 56.527 352.095 61.3637 348.812 65.4302C345.53 69.4967 341.264 72.6585 336.419 74.6164" stroke="#E0E0E0" stroke-opacity="0.6" stroke-width="0.5"/>
<circle cx="70.87" cy="46.1387" r="23.5187" stroke="#E0E0E0" stroke-opacity="0.6" stroke-width="0.5"/>
<circle cx="134.98" cy="46.1387" r="23.5187" stroke="#E0E0E0" stroke-opacity="0.6" stroke-width="0.5"/>
<circle cx="199.526" cy="46.1387" r="23.5187" stroke="#E0E0E0" stroke-opacity="0.6" stroke-width="0.5"/>
<circle cx="264.072" cy="46.1387" r="23.5187" stroke="#E0E0E0" stroke-opacity="0.6" stroke-width="0.5"/>
<circle cx="324.694" cy="46.1387" r="23.5187" stroke="#E0E0E0" stroke-opacity="0.6" stroke-width="0.5"/>
<line x1="159.362" y1="0.823223" x2="238.736" y2="80.1977" stroke="#E0E0E0" stroke-opacity="0.6" stroke-width="0.5"/>
<line x1="232.454" y1="42.1818" x2="296.564" y2="42.1818" stroke="#E0E0E0" stroke-opacity="0.6" stroke-width="0.5"/>
<line x1="74.827" y1="1" x2="74.827" y2="65.1101" stroke="#E0E0E0" stroke-opacity="0.6" stroke-width="0.5"/>
<line x1="328.651" y1="21.4978" x2="328.651" y2="85.6079" stroke="#E0E0E0" stroke-opacity="0.6" stroke-width="0.5"/>
<line x1="153.692" y1="5.62059" x2="233.067" y2="84.995" stroke="#E0E0E0" stroke-opacity="0.6" stroke-width="0.5"/>
<line x1="232.018" y1="49.5958" x2="296.128" y2="49.5958" stroke="#E0E0E0" stroke-opacity="0.6" stroke-width="0.5"/>
<line x1="67.4129" y1="1" x2="67.4129" y2="65.1101" stroke="#E0E0E0" stroke-opacity="0.6" stroke-width="0.5"/>
<line x1="321.237" y1="21.0616" x2="321.237" y2="85.1718" stroke="#E0E0E0" stroke-opacity="0.6" stroke-width="0.5"/>
<line y1="14.4561" x2="396" y2="14.4561" stroke="#E0E0E0" stroke-opacity="0.6"/>
<line y1="76.3855" x2="396" y2="76.3855" stroke="#E0E0E0" stroke-opacity="0.6"/>
<line y1="68.9714" x2="396" y2="68.9714" stroke="#E0E0E0" stroke-opacity="0.6"/>
<line y1="48.9098" x2="396" y2="48.9098" stroke="#E0E0E0" stroke-opacity="0.6"/>
<line y1="35.826" x2="396" y2="35.826" stroke="#E0E0E0" stroke-opacity="0.6"/>
<path d="M166.142 46.1384C166.142 63.1187 152.337 76.8843 135.309 76.8843C118.281 76.8843 104.477 63.1187 104.477 46.1384C104.477 29.1593 118.282 15.3925 135.309 15.3925C152.336 15.3925 166.142 29.1585 166.142 46.1384ZM283.263 59.5774C284.422 57.9235 286.705 57.5192 288.364 58.6749C290.023 59.8303 290.428 62.1074 289.269 63.7614C288.716 64.5503 288.173 65.262 287.643 65.8937C281.827 72.8159 273.239 76.8843 264.06 76.8843C246.968 76.8843 233.266 63.0458 233.275 46.042C233.275 29.1511 247.139 15.3929 264.06 15.3929C276.649 15.3929 287.77 22.9901 292.496 34.3865C294.024 38.0714 294.833 42.0602 294.833 46.1384C294.833 48.1869 293.148 49.8069 291.126 49.8069H240.917C242.698 61.1206 252.479 69.5481 264.06 69.5481C271.052 69.5481 277.595 66.4513 282.01 61.194C282.493 60.6192 282.911 60.08 283.263 59.5778V59.5774ZM240.917 42.4703H287.215C286.924 40.6458 286.419 38.8654 285.714 37.1662C282.124 28.5077 273.608 22.7291 264.06 22.7291C252.479 22.7291 242.698 31.1562 240.916 42.4703H240.917ZM197.612 22.8177C195.588 22.9921 193.806 21.4969 193.631 19.4789C193.457 17.4612 194.956 15.6844 196.98 15.5099C214.859 13.95 230.495 28.0075 230.495 46.138C230.495 54.0056 227.484 61.8744 221.464 67.8778C220.027 69.3105 217.698 69.3105 216.262 67.8782L180.664 32.3806C177.68 36.4685 176.187 41.3033 176.187 46.138C176.187 59.9544 188.066 70.6484 201.713 69.4584C203.737 69.2844 205.519 70.7788 205.694 72.7968C205.868 74.8148 204.369 76.5921 202.345 76.7661C184.444 78.3272 168.83 64.251 168.83 46.138C168.83 38.27 171.841 30.4016 177.861 24.3983C179.297 22.9655 181.626 22.9655 183.063 24.3979L218.66 59.8954C221.645 55.8071 223.138 50.9728 223.138 46.138C223.138 32.3123 211.242 21.6288 197.612 22.8173L197.612 22.8177ZM304.389 34.4334C303.374 36.1825 301.129 36.7791 299.375 35.7658C297.621 34.7533 297.022 32.5141 298.039 30.7653C299.389 28.4331 301.036 26.3016 302.946 24.3983C308.971 18.3946 316.862 15.3925 324.748 15.3925C332.634 15.3925 340.524 18.3946 346.549 24.3983C348.459 26.3012 350.106 28.4339 351.456 30.7653C352.472 32.5141 351.874 34.7533 350.12 35.7658C348.366 36.7791 346.121 36.1822 345.106 34.4334C344.084 32.669 342.822 31.0259 341.376 29.585C337.727 25.9481 333.17 23.7584 328.426 23.0151V73.2158C328.426 75.2417 326.779 76.8839 324.748 76.8839C322.716 76.8839 321.069 75.2417 321.069 73.2158V23.0151C316.325 23.7584 311.769 25.9481 308.119 29.585C306.674 31.0255 305.412 32.669 304.39 34.4334H304.389ZM54.3564 67.8723C52.9806 69.2442 50.4999 69.3394 49.15 67.8528C43.1328 61.851 40.1243 53.992 40.1243 46.1372C40.1243 29.1675 53.9412 15.3984 70.9569 15.3984C87.973 15.3984 101.789 29.1671 101.789 46.1372C101.789 54.8402 98.587 61.5685 92.7518 67.8657C91.3158 69.298 88.9931 69.3047 87.5571 67.8723C86.1156 66.4349 86.1309 64.1215 87.5692 62.6876C92.1449 58.1197 94.4327 52.1304 94.4327 46.1372C94.4327 34.5832 85.9939 24.8025 74.6358 23.0213V46.1372C74.6358 48.1631 72.9889 49.8053 70.9573 49.8053C68.9258 49.8053 67.2789 48.1631 67.2789 46.1372V23.0213C55.9203 24.8029 47.4819 34.5828 47.4819 46.1372C47.4819 52.1304 49.7698 58.1197 54.345 62.6876C55.7501 64.1925 55.8472 66.3869 54.3572 67.8723H54.3564ZM135.309 22.7287C122.343 22.7287 111.834 33.2086 111.834 46.138C111.834 59.0679 122.343 69.5477 135.309 69.5477C148.276 69.5477 158.785 59.0679 158.785 46.138C158.785 33.209 148.275 22.7287 135.309 22.7287Z" fill="#C2D3FF"/>
<circle cx="71.088" cy="46.1387" r="30.7148" stroke="#E0E0E0" stroke-opacity="0.6" stroke-width="0.5"/>
<circle cx="135.198" cy="46.1387" r="30.7148" stroke="#E0E0E0" stroke-opacity="0.6" stroke-width="0.5"/>
<circle cx="199.744" cy="46.1387" r="30.7148" stroke="#E0E0E0" stroke-opacity="0.6" stroke-width="0.5"/>
<circle cx="264.29" cy="46.1387" r="30.7148" stroke="#E0E0E0" stroke-opacity="0.6" stroke-width="0.5"/>
<path d="M295.284 38.0383C296.663 32.9974 299.304 28.3915 302.959 24.6565C306.614 20.9214 311.162 18.1807 316.172 16.6937C321.182 15.2066 326.488 15.0225 331.589 16.1585C336.69 17.2946 341.417 19.7134 345.322 23.1861C349.227 26.6587 352.182 31.0703 353.906 36.0035C355.631 40.9367 356.068 46.2283 355.176 51.3776C354.285 56.527 352.095 61.3637 348.812 65.4302C345.53 69.4967 341.264 72.6585 336.419 74.6164" stroke="#E0E0E0" stroke-opacity="0.6" stroke-width="0.5"/>
<circle cx="70.87" cy="46.1387" r="23.5187" stroke="#E0E0E0" stroke-opacity="0.6" stroke-width="0.5"/>
<circle cx="134.98" cy="46.1387" r="23.5187" stroke="#E0E0E0" stroke-opacity="0.6" stroke-width="0.5"/>
<circle cx="199.526" cy="46.1387" r="23.5187" stroke="#E0E0E0" stroke-opacity="0.6" stroke-width="0.5"/>
<circle cx="264.072" cy="46.1387" r="23.5187" stroke="#E0E0E0" stroke-opacity="0.6" stroke-width="0.5"/>
<circle cx="324.694" cy="46.1387" r="23.5187" stroke="#E0E0E0" stroke-opacity="0.6" stroke-width="0.5"/>
<line x1="159.362" y1="0.823223" x2="238.736" y2="80.1977" stroke="#E0E0E0" stroke-opacity="0.6" stroke-width="0.5"/>
<line x1="232.454" y1="42.1818" x2="296.564" y2="42.1818" stroke="#E0E0E0" stroke-opacity="0.6" stroke-width="0.5"/>
<line x1="74.827" y1="1" x2="74.827" y2="65.1101" stroke="#E0E0E0" stroke-opacity="0.6" stroke-width="0.5"/>
<line x1="328.651" y1="21.4978" x2="328.651" y2="85.6079" stroke="#E0E0E0" stroke-opacity="0.6" stroke-width="0.5"/>
<line x1="153.692" y1="5.62059" x2="233.067" y2="84.995" stroke="#E0E0E0" stroke-opacity="0.6" stroke-width="0.5"/>
<line x1="232.018" y1="49.5958" x2="296.128" y2="49.5958" stroke="#E0E0E0" stroke-opacity="0.6" stroke-width="0.5"/>
<line x1="67.4129" y1="1" x2="67.4129" y2="65.1101" stroke="#E0E0E0" stroke-opacity="0.6" stroke-width="0.5"/>
<line x1="321.237" y1="21.0616" x2="321.237" y2="85.1718" stroke="#E0E0E0" stroke-opacity="0.6" stroke-width="0.5"/>
<line y1="14.4561" x2="396" y2="14.4561" stroke="#E0E0E0" stroke-opacity="0.6"/>
<line y1="76.3855" x2="396" y2="76.3855" stroke="#E0E0E0" stroke-opacity="0.6"/>
<line y1="68.9714" x2="396" y2="68.9714" stroke="#E0E0E0" stroke-opacity="0.6"/>
<line y1="48.9098" x2="396" y2="48.9098" stroke="#E0E0E0" stroke-opacity="0.6"/>
<line y1="35.826" x2="396" y2="35.826" stroke="#E0E0E0" stroke-opacity="0.6"/>
<path d="M166.142 49.1384C166.142 66.1187 152.337 79.8843 135.309 79.8843C118.281 79.8843 104.477 66.1187 104.477 49.1384C104.477 32.1593 118.282 18.3925 135.309 18.3925C152.336 18.3925 166.142 32.1585 166.142 49.1384ZM283.263 62.5774C284.422 60.9235 286.705 60.5192 288.364 61.6749C290.023 62.8303 290.428 65.1074 289.269 66.7614C288.716 67.5503 288.173 68.262 287.643 68.8937C281.827 75.8159 273.239 79.8843 264.06 79.8843C246.968 79.8843 233.266 66.0458 233.275 49.042C233.275 32.1511 247.139 18.3929 264.06 18.3929C276.649 18.3929 287.77 25.9901 292.496 37.3865C294.024 41.0714 294.833 45.0602 294.833 49.1384C294.833 51.1869 293.148 52.8069 291.126 52.8069H240.917C242.698 64.1206 252.479 72.5481 264.06 72.5481C271.052 72.5481 277.595 69.4513 282.01 64.194C282.493 63.6192 282.911 63.08 283.263 62.5778V62.5774ZM240.917 45.4703H287.215C286.924 43.6458 286.419 41.8654 285.714 40.1662C282.124 31.5077 273.608 25.7291 264.06 25.7291C252.479 25.7291 242.698 34.1562 240.916 45.4703H240.917ZM197.612 25.8177C195.588 25.9921 193.806 24.4969 193.631 22.4789C193.457 20.4612 194.956 18.6844 196.98 18.5099C214.859 16.95 230.495 31.0075 230.495 49.138C230.495 57.0056 227.484 64.8744 221.464 70.8778C220.027 72.3105 217.698 72.3105 216.262 70.8782L180.664 35.3806C177.68 39.4685 176.187 44.3033 176.187 49.138C176.187 62.9544 188.066 73.6484 201.713 72.4584C203.737 72.2844 205.519 73.7788 205.694 75.7968C205.868 77.8148 204.369 79.5921 202.345 79.7661C184.444 81.3272 168.83 67.251 168.83 49.138C168.83 41.27 171.841 33.4016 177.861 27.3983C179.297 25.9655 181.626 25.9655 183.063 27.3979L218.66 62.8954C221.645 58.8071 223.138 53.9728 223.138 49.138C223.138 35.3123 211.242 24.6288 197.612 25.8173L197.612 25.8177ZM304.389 37.4334C303.374 39.1825 301.129 39.7791 299.375 38.7658C297.621 37.7533 297.022 35.5141 298.039 33.7653C299.389 31.4331 301.036 29.3016 302.946 27.3983C308.971 21.3946 316.862 18.3925 324.748 18.3925C332.634 18.3925 340.524 21.3946 346.549 27.3983C348.459 29.3012 350.106 31.4339 351.456 33.7653C352.472 35.5141 351.874 37.7533 350.12 38.7658C348.366 39.7791 346.121 39.1822 345.106 37.4334C344.084 35.669 342.822 34.0259 341.376 32.585C337.727 28.9481 333.17 26.7584 328.426 26.0151V76.2158C328.426 78.2417 326.779 79.8839 324.748 79.8839C322.716 79.8839 321.069 78.2417 321.069 76.2158V26.0151C316.325 26.7584 311.769 28.9481 308.119 32.585C306.674 34.0255 305.412 35.669 304.39 37.4334H304.389ZM54.3564 70.8723C52.9806 72.2442 50.4999 72.3394 49.15 70.8528C43.1328 64.851 40.1243 56.992 40.1243 49.1372C40.1243 32.1675 53.9412 18.3984 70.9569 18.3984C87.973 18.3984 101.789 32.1671 101.789 49.1372C101.789 57.8402 98.587 64.5685 92.7518 70.8657C91.3158 72.298 88.9931 72.3047 87.5571 70.8723C86.1156 69.4349 86.1309 67.1215 87.5692 65.6876C92.1449 61.1197 94.4327 55.1304 94.4327 49.1372C94.4327 37.5832 85.9939 27.8025 74.6358 26.0213V49.1372C74.6358 51.1631 72.9889 52.8053 70.9573 52.8053C68.9258 52.8053 67.2789 51.1631 67.2789 49.1372V26.0213C55.9203 27.8029 47.4819 37.5828 47.4819 49.1372C47.4819 55.1304 49.7698 61.1197 54.345 65.6876C55.7501 67.1925 55.8472 69.3869 54.3572 70.8723H54.3564ZM135.309 25.7287C122.343 25.7287 111.834 36.2086 111.834 49.138C111.834 62.0679 122.343 72.5477 135.309 72.5477C148.276 72.5477 158.785 62.0679 158.785 49.138C158.785 36.209 148.275 25.7287 135.309 25.7287Z" fill="#C2D3FF"/>
<circle cx="71.088" cy="49.1387" r="30.7148" stroke="#E0E0E0" stroke-opacity="0.6" stroke-width="0.5"/>
<circle cx="135.198" cy="49.1387" r="30.7148" stroke="#E0E0E0" stroke-opacity="0.6" stroke-width="0.5"/>
<circle cx="199.744" cy="49.1387" r="30.7148" stroke="#E0E0E0" stroke-opacity="0.6" stroke-width="0.5"/>
<circle cx="264.29" cy="49.1387" r="30.7148" stroke="#E0E0E0" stroke-opacity="0.6" stroke-width="0.5"/>
<path d="M295.284 41.0383C296.663 35.9974 299.304 31.3915 302.959 27.6565C306.614 23.9214 311.162 21.1807 316.172 19.6937C321.182 18.2066 326.488 18.0225 331.589 19.1585C336.69 20.2946 341.417 22.7134 345.322 26.1861C349.227 29.6587 352.182 34.0703 353.906 39.0035C355.631 43.9367 356.068 49.2283 355.176 54.3776C354.285 59.527 352.095 64.3637 348.812 68.4302C345.53 72.4967 341.264 75.6585 336.419 77.6164" stroke="#E0E0E0" stroke-opacity="0.6" stroke-width="0.5"/>
<circle cx="70.87" cy="49.1387" r="23.5187" stroke="#E0E0E0" stroke-opacity="0.6" stroke-width="0.5"/>
<circle cx="134.98" cy="49.1387" r="23.5187" stroke="#E0E0E0" stroke-opacity="0.6" stroke-width="0.5"/>
<circle cx="199.526" cy="49.1387" r="23.5187" stroke="#E0E0E0" stroke-opacity="0.6" stroke-width="0.5"/>
<circle cx="264.072" cy="49.1387" r="23.5187" stroke="#E0E0E0" stroke-opacity="0.6" stroke-width="0.5"/>
<circle cx="324.694" cy="49.1387" r="23.5187" stroke="#E0E0E0" stroke-opacity="0.6" stroke-width="0.5"/>
<line x1="159.362" y1="3.82322" x2="238.736" y2="83.1977" stroke="#E0E0E0" stroke-opacity="0.6" stroke-width="0.5"/>
<line x1="232.454" y1="45.1818" x2="296.564" y2="45.1818" stroke="#E0E0E0" stroke-opacity="0.6" stroke-width="0.5"/>
<line x1="74.827" y1="4" x2="74.827" y2="68.1101" stroke="#E0E0E0" stroke-opacity="0.6" stroke-width="0.5"/>
<line x1="328.651" y1="24.4978" x2="328.651" y2="88.6079" stroke="#E0E0E0" stroke-opacity="0.6" stroke-width="0.5"/>
<line x1="153.692" y1="8.62059" x2="233.067" y2="87.995" stroke="#E0E0E0" stroke-opacity="0.6" stroke-width="0.5"/>
<line x1="232.018" y1="52.5958" x2="296.128" y2="52.5958" stroke="#E0E0E0" stroke-opacity="0.6" stroke-width="0.5"/>
<line x1="67.4129" y1="4" x2="67.4129" y2="68.1101" stroke="#E0E0E0" stroke-opacity="0.6" stroke-width="0.5"/>
<line x1="321.237" y1="24.0616" x2="321.237" y2="88.1718" stroke="#E0E0E0" stroke-opacity="0.6" stroke-width="0.5"/>
<line y1="17.4561" x2="396" y2="17.4561" stroke="#E0E0E0" stroke-opacity="0.6"/>
<line y1="79.3855" x2="396" y2="79.3855" stroke="#E0E0E0" stroke-opacity="0.6"/>
<line y1="71.9714" x2="396" y2="71.9714" stroke="#E0E0E0" stroke-opacity="0.6"/>
<line y1="51.9098" x2="396" y2="51.9098" stroke="#E0E0E0" stroke-opacity="0.6"/>
<line y1="38.826" x2="396" y2="38.826" stroke="#E0E0E0" stroke-opacity="0.6"/>
<path d="M166.142 49.1384C166.142 66.1187 152.337 79.8843 135.309 79.8843C118.281 79.8843 104.477 66.1187 104.477 49.1384C104.477 32.1593 118.282 18.3925 135.309 18.3925C152.336 18.3925 166.142 32.1585 166.142 49.1384ZM283.263 62.5774C284.422 60.9235 286.705 60.5192 288.364 61.6749C290.023 62.8303 290.428 65.1074 289.269 66.7614C288.716 67.5503 288.173 68.262 287.643 68.8937C281.827 75.8159 273.239 79.8843 264.06 79.8843C246.968 79.8843 233.266 66.0458 233.275 49.042C233.275 32.1511 247.139 18.3929 264.06 18.3929C276.649 18.3929 287.77 25.9901 292.496 37.3865C294.024 41.0714 294.833 45.0602 294.833 49.1384C294.833 51.1869 293.148 52.8069 291.126 52.8069H240.917C242.698 64.1206 252.479 72.5481 264.06 72.5481C271.052 72.5481 277.595 69.4513 282.01 64.194C282.493 63.6192 282.911 63.08 283.263 62.5778V62.5774ZM240.917 45.4703H287.215C286.924 43.6458 286.419 41.8654 285.714 40.1662C282.124 31.5077 273.608 25.7291 264.06 25.7291C252.479 25.7291 242.698 34.1562 240.916 45.4703H240.917ZM197.612 25.8177C195.588 25.9921 193.806 24.4969 193.631 22.4789C193.457 20.4612 194.956 18.6844 196.98 18.5099C214.859 16.95 230.495 31.0075 230.495 49.138C230.495 57.0056 227.484 64.8744 221.464 70.8778C220.027 72.3105 217.698 72.3105 216.262 70.8782L180.664 35.3806C177.68 39.4685 176.187 44.3033 176.187 49.138C176.187 62.9544 188.066 73.6484 201.713 72.4584C203.737 72.2844 205.519 73.7788 205.694 75.7968C205.868 77.8148 204.369 79.5921 202.345 79.7661C184.444 81.3272 168.83 67.251 168.83 49.138C168.83 41.27 171.841 33.4016 177.861 27.3983C179.297 25.9655 181.626 25.9655 183.063 27.3979L218.66 62.8954C221.645 58.8071 223.138 53.9728 223.138 49.138C223.138 35.3123 211.242 24.6288 197.612 25.8173L197.612 25.8177ZM304.389 37.4334C303.374 39.1825 301.129 39.7791 299.375 38.7658C297.621 37.7533 297.022 35.5141 298.039 33.7653C299.389 31.4331 301.036 29.3016 302.946 27.3983C308.971 21.3946 316.862 18.3925 324.748 18.3925C332.634 18.3925 340.524 21.3946 346.549 27.3983C348.459 29.3012 350.106 31.4339 351.456 33.7653C352.472 35.5141 351.874 37.7533 350.12 38.7658C348.366 39.7791 346.121 39.1822 345.106 37.4334C344.084 35.669 342.822 34.0259 341.376 32.585C337.727 28.9481 333.17 26.7584 328.426 26.0151V76.2158C328.426 78.2417 326.779 79.8839 324.748 79.8839C322.716 79.8839 321.069 78.2417 321.069 76.2158V26.0151C316.325 26.7584 311.769 28.9481 308.119 32.585C306.674 34.0255 305.412 35.669 304.39 37.4334H304.389ZM54.3564 70.8723C52.9806 72.2442 50.4999 72.3394 49.15 70.8528C43.1328 64.851 40.1243 56.992 40.1243 49.1372C40.1243 32.1675 53.9412 18.3984 70.9569 18.3984C87.973 18.3984 101.789 32.1671 101.789 49.1372C101.789 57.8402 98.587 64.5685 92.7518 70.8657C91.3158 72.298 88.9931 72.3047 87.5571 70.8723C86.1156 69.4349 86.1309 67.1215 87.5692 65.6876C92.1449 61.1197 94.4327 55.1304 94.4327 49.1372C94.4327 37.5832 85.9939 27.8025 74.6358 26.0213V49.1372C74.6358 51.1631 72.9889 52.8053 70.9573 52.8053C68.9258 52.8053 67.2789 51.1631 67.2789 49.1372V26.0213C55.9203 27.8029 47.4819 37.5828 47.4819 49.1372C47.4819 55.1304 49.7698 61.1197 54.345 65.6876C55.7501 67.1925 55.8472 69.3869 54.3572 70.8723H54.3564ZM135.309 25.7287C122.343 25.7287 111.834 36.2086 111.834 49.138C111.834 62.0679 122.343 72.5477 135.309 72.5477C148.276 72.5477 158.785 62.0679 158.785 49.138C158.785 36.209 148.275 25.7287 135.309 25.7287Z" fill="#C2D3FF"/>
<circle cx="71.088" cy="49.1387" r="30.7148" stroke="#E0E0E0" stroke-opacity="0.6" stroke-width="0.5"/>
<circle cx="135.198" cy="49.1387" r="30.7148" stroke="#E0E0E0" stroke-opacity="0.6" stroke-width="0.5"/>
<circle cx="199.744" cy="49.1387" r="30.7148" stroke="#E0E0E0" stroke-opacity="0.6" stroke-width="0.5"/>
<circle cx="264.29" cy="49.1387" r="30.7148" stroke="#E0E0E0" stroke-opacity="0.6" stroke-width="0.5"/>
<path d="M295.284 41.0383C296.663 35.9974 299.304 31.3915 302.959 27.6565C306.614 23.9214 311.162 21.1807 316.172 19.6937C321.182 18.2066 326.488 18.0225 331.589 19.1585C336.69 20.2946 341.417 22.7134 345.322 26.1861C349.227 29.6587 352.182 34.0703 353.906 39.0035C355.631 43.9367 356.068 49.2283 355.176 54.3776C354.285 59.527 352.095 64.3637 348.812 68.4302C345.53 72.4967 341.264 75.6585 336.419 77.6164" stroke="#E0E0E0" stroke-opacity="0.6" stroke-width="0.5"/>
<circle cx="70.87" cy="49.1387" r="23.5187" stroke="#E0E0E0" stroke-opacity="0.6" stroke-width="0.5"/>
<circle cx="134.98" cy="49.1387" r="23.5187" stroke="#E0E0E0" stroke-opacity="0.6" stroke-width="0.5"/>
<circle cx="199.526" cy="49.1387" r="23.5187" stroke="#E0E0E0" stroke-opacity="0.6" stroke-width="0.5"/>
<circle cx="264.072" cy="49.1387" r="23.5187" stroke="#E0E0E0" stroke-opacity="0.6" stroke-width="0.5"/>
<circle cx="324.694" cy="49.1387" r="23.5187" stroke="#E0E0E0" stroke-opacity="0.6" stroke-width="0.5"/>
<line x1="159.362" y1="3.82322" x2="238.736" y2="83.1977" stroke="#E0E0E0" stroke-opacity="0.6" stroke-width="0.5"/>
<line x1="232.454" y1="45.1818" x2="296.564" y2="45.1818" stroke="#E0E0E0" stroke-opacity="0.6" stroke-width="0.5"/>
<line x1="74.827" y1="4" x2="74.827" y2="68.1101" stroke="#E0E0E0" stroke-opacity="0.6" stroke-width="0.5"/>
<line x1="328.651" y1="24.4978" x2="328.651" y2="88.6079" stroke="#E0E0E0" stroke-opacity="0.6" stroke-width="0.5"/>
<line x1="153.692" y1="8.62059" x2="233.067" y2="87.995" stroke="#E0E0E0" stroke-opacity="0.6" stroke-width="0.5"/>
<line x1="232.018" y1="52.5958" x2="296.128" y2="52.5958" stroke="#E0E0E0" stroke-opacity="0.6" stroke-width="0.5"/>
<line x1="67.4129" y1="4" x2="67.4129" y2="68.1101" stroke="#E0E0E0" stroke-opacity="0.6" stroke-width="0.5"/>
<line x1="321.237" y1="24.0616" x2="321.237" y2="88.1718" stroke="#E0E0E0" stroke-opacity="0.6" stroke-width="0.5"/>
<line y1="17.4561" x2="396" y2="17.4561" stroke="#E0E0E0" stroke-opacity="0.6"/>
<line y1="79.3855" x2="396" y2="79.3855" stroke="#E0E0E0" stroke-opacity="0.6"/>
<line y1="71.9714" x2="396" y2="71.9714" stroke="#E0E0E0" stroke-opacity="0.6"/>
<line y1="51.9098" x2="396" y2="51.9098" stroke="#E0E0E0" stroke-opacity="0.6"/>
<line y1="38.826" x2="396" y2="38.826" stroke="#E0E0E0" stroke-opacity="0.6"/>
</svg>
