<svg width="32" height="33" viewBox="0 0 32 33" fill="none" xmlns="http://www.w3.org/2000/svg">
<path fill-rule="evenodd" clip-rule="evenodd" d="M16.0775 0.224168C12.9188 0.216492 9.8289 1.14562 7.19834 2.89407C4.56779 4.64252 2.51478 7.13175 1.29894 10.047C0.083093 12.9622 -0.24098 16.1725 0.367699 19.2719C0.976379 22.3714 2.49047 25.2207 4.71851 27.4596C6.94655 29.6985 9.78847 31.2264 12.8849 31.8502C15.9813 32.474 19.1932 32.1655 22.1143 30.9639C25.0354 29.7622 27.5346 27.7213 29.2958 25.0993C31.057 22.4773 32.0012 19.3919 32.0089 16.2333C32.014 14.1361 31.606 12.0583 30.8081 10.1188C30.0102 8.17922 28.8382 6.41581 27.3588 4.92922C25.8794 3.44263 24.1217 2.26199 22.1861 1.45469C20.2504 0.647397 18.1747 0.229265 16.0775 0.224168ZM12.0946 23.9465H8.03403V9.93845H12.0946V23.9465ZM10.1517 9.07388C9.91447 9.07261 9.67976 9.02461 9.46103 8.93263C9.2423 8.84065 9.04383 8.70649 8.87694 8.5378C8.71006 8.36912 8.57804 8.16922 8.48842 7.94951C8.3988 7.7298 8.35333 7.49459 8.35461 7.25731C8.34941 6.76687 8.53861 6.29433 8.88084 5.943C9.22307 5.59167 9.69049 5.39013 10.1809 5.38245C10.6846 5.38215 11.1687 5.57748 11.5312 5.92726C11.8937 6.27703 12.1061 6.75391 12.1237 7.25731C12.1263 7.50388 12.08 7.7485 11.9874 7.97704C11.8948 8.20558 11.7578 8.41349 11.5844 8.58874C11.4109 8.764 11.2044 8.90313 10.9769 8.99807C10.7493 9.09302 10.5052 9.1419 10.2586 9.14188H10.1809L10.1517 9.07388ZM26.0346 23.9853H22.0517V15.291C22.0517 14.3196 21.7312 13.5716 20.5363 13.5716C19.9907 13.5341 19.4485 13.6841 18.9998 13.9968C18.551 14.3095 18.2226 14.7661 18.0689 15.291V24.0339H14.086V9.93845H18.0689V11.2985C19.2233 10.443 20.6152 9.9677 22.0517 9.93845C23.3243 9.93845 26.0346 10.7253 26.0346 15.427V23.9853Z" fill="#5489CA"/>
</svg>
