<svg width="34" height="35" viewBox="0 0 34 35" fill="none" xmlns="http://www.w3.org/2000/svg">
<path d="M17.0199 34.1647C13.0982 34.1619 9.29805 32.8036 6.26303 30.32C3.22801 27.8364 1.14472 24.3801 0.365989 20.5365C-0.412738 16.6929 0.160975 12.6983 1.98996 9.2292C3.81894 5.76013 6.79076 3.02984 10.4021 1.50078C14.549 -0.213491 19.2053 -0.219202 23.3564 1.4849C27.5075 3.189 30.8167 6.46476 32.5629 10.5983C34.3092 14.7318 34.3508 19.388 32.6788 23.5521C31.0068 27.7162 27.7567 31.0506 23.6368 32.8287C21.5435 33.7146 19.2929 34.169 17.0199 34.1647ZM12.0092 6.33299C11.7077 6.33321 11.4066 6.35472 11.1081 6.39735C9.81113 6.59964 8.62982 7.26081 7.77915 8.26057C6.92848 9.26033 6.46496 10.5323 6.47293 11.8449V17.2749C6.47293 17.6715 6.47293 18.0681 6.47293 18.4647V20.8452V21.5191C6.45683 22.1502 6.4744 22.7818 6.52559 23.411C6.67338 24.7369 7.30323 25.9622 8.29538 26.854C9.28753 27.7458 10.5728 28.242 11.9068 28.2481H22.9122C24.365 28.2465 25.7579 27.6687 26.7852 26.6414C27.8126 25.6141 28.3904 24.2212 28.3919 22.7683V11.7893C28.385 10.3456 27.8095 8.9627 26.7899 7.94043C25.7704 6.91817 24.3891 6.33887 22.9453 6.32811C19.5594 6.32811 16.0213 6.32811 12.135 6.33299H12.0092ZM17.4285 26.6907C15.6146 26.6907 13.7754 26.6907 11.9673 26.6907H11.9332C11.4228 26.6918 10.9172 26.5915 10.4458 26.3959C9.97443 26.2002 9.54654 25.9129 9.18696 25.5506C8.82338 25.1859 8.53561 24.7528 8.34028 24.2762C8.14495 23.7997 8.04591 23.2892 8.04888 22.7742V11.8147C8.04527 11.3003 8.14345 10.7902 8.33777 10.3139C8.53208 9.83753 8.8187 9.40433 9.18111 9.03922C9.54066 8.6766 9.96865 8.38901 10.4402 8.19314C10.9118 7.99727 11.4176 7.89702 11.9283 7.89821H22.9375C23.4479 7.89774 23.9534 7.99832 24.4247 8.19416C24.8961 8.38999 25.324 8.6772 25.6838 9.03922C26.0463 9.40395 26.3334 9.83654 26.5286 10.3123C26.7239 10.788 26.8235 11.2975 26.8218 11.8118V17.313C26.8218 19.123 26.8235 20.932 26.8267 22.7401C26.8346 23.2559 26.7398 23.7681 26.5479 24.2469C26.3561 24.7258 26.0709 25.1617 25.709 25.5293C25.3471 25.897 24.9157 26.1889 24.4399 26.3883C23.9641 26.5877 23.4534 26.6905 22.9375 26.6907H22.8917C21.0846 26.6907 19.2424 26.6907 17.4285 26.6907ZM17.448 11.8108H17.4422C16.0012 11.8247 14.6237 12.4056 13.6079 13.4278C12.5922 14.45 12.02 15.8312 12.0153 17.2722C12.0105 18.7133 12.5736 20.0982 13.5826 21.1271C14.5916 22.1559 15.9652 22.7459 17.4061 22.7693H17.4276C18.8809 22.772 20.2758 22.1973 21.3053 21.1716C22.3349 20.1458 22.9148 18.7531 22.9175 17.2998C22.9203 15.8465 22.3455 14.4516 21.3198 13.422C20.2941 12.3925 18.9014 11.8125 17.448 11.8098V11.8108ZM23.6953 9.46344C23.2897 9.46563 22.9015 9.62858 22.6159 9.91655C22.3302 10.2045 22.1704 10.594 22.1715 10.9996C22.1726 11.4052 22.3345 11.7939 22.6217 12.0803C22.9089 12.3667 23.298 12.5276 23.7036 12.5276C24.1092 12.5276 24.4982 12.3667 24.7854 12.0803C25.0726 11.7939 25.2345 11.4052 25.2356 10.9996C25.2367 10.594 25.0769 10.2045 24.7913 9.91655C24.5057 9.62858 24.1175 9.46563 23.7119 9.46344H23.6953ZM17.4344 21.2021C16.5292 21.2012 15.6523 20.8864 14.9532 20.3114C14.254 19.7364 13.7759 18.9368 13.6003 18.0488C13.4246 17.1608 13.5623 16.2394 13.9898 15.4415C14.4174 14.6437 15.1084 14.0187 15.945 13.6732C16.7817 13.3277 17.7123 13.283 18.5782 13.5467C19.4442 13.8104 20.1919 14.3662 20.694 15.1194C21.1961 15.8725 21.4215 16.7765 21.3318 17.6773C21.2421 18.578 20.8428 19.4198 20.2021 20.0592C19.4671 20.7915 18.4718 21.2025 17.4344 21.2021Z" fill="#5489CA"/>
</svg>
