<svg width="1280" height="1398" viewBox="0 0 1280 1398" fill="none" xmlns="http://www.w3.org/2000/svg">
<g clip-path="url(#clip0_117_3530)">
<rect width="1280" height="1398" fill="#001447"/>
<g clip-path="url(#clip1_117_3530)" filter="url(#filter0_d_117_3530)">
<rect width="1280" height="477" transform="translate(0 1398)" fill="#001447"/>
<path d="M997.824 1526.02C1043.33 1480.54 1043.33 1406.81 997.824 1361.34C952.318 1315.86 878.537 1315.86 833.03 1361.34C787.523 1406.81 787.523 1480.54 833.03 1526.02C878.537 1571.49 952.318 1571.49 997.824 1526.02Z" fill="url(#paint0_radial_117_3530)" fill-opacity="0.3"/>
<path opacity="0.94" d="M101.706 1322.12C36.8469 1237.57 -84.2716 1221.55 -168.829 1286.34C-253.387 1351.12 -269.354 1472.18 -204.495 1556.72C-139.636 1641.27 -18.5176 1657.29 66.0399 1592.51C150.597 1527.72 166.565 1406.67 101.706 1322.12ZM-143.845 1510.26C-183.009 1459.2 -173.366 1386.1 -122.308 1346.98C-71.2505 1307.86 1.89283 1317.54 41.0562 1368.59C80.2196 1419.64 70.5767 1492.74 19.519 1531.86C-31.5387 1570.98 -104.682 1561.31 -143.845 1510.26Z" fill="url(#paint1_radial_117_3530)"/>
</g>
<path d="M1281 0H0V1398H1281V0Z" fill="url(#paint2_linear_117_3530)"/>
<path opacity="0.94" d="M53 -155C-57.4601 -155 -147 -65.4601 -147 45C-147 155.46 -57.4601 245 53 245C163.46 245 253 155.46 253 45C253 -65.4601 163.46 -155 53 -155ZM53 165.771C-13.6983 165.771 -67.7713 111.698 -67.7713 45C-67.7713 -21.6982 -13.6983 -75.7713 53 -75.7713C119.698 -75.7713 173.771 -21.6982 173.771 45C173.771 111.698 119.698 165.771 53 165.771Z" fill="url(#paint3_radial_117_3530)"/>
<path d="M118 81.7785L90.1542 54.0956C66.0533 76.8207 28.0016 76.4521 4.37344 52.9621C-19.2547 29.4721 -19.6162 -8.35706 3.23329 -32.317L-24.6125 -60C-62.8403 -20.7609 -62.4603 41.8575 -23.4631 80.6358C15.534 119.405 78.5208 119.783 118 81.7785Z" fill="url(#paint4_radial_117_3530)" fill-opacity="0.2"/>
<g opacity="0.6">
<path d="M1040.54 393.859L863.562 358.371" stroke="#1E6AC6" stroke-opacity="0.6" stroke-width="8.4" stroke-linecap="round"/>
<path d="M816.367 348.906L810.468 347.723" stroke="#179F0C" stroke-opacity="0.6" stroke-width="8.4" stroke-linecap="round"/>
<path d="M758.434 576.612L728.937 570.698" stroke="#179F0C" stroke-opacity="0.6" stroke-width="8.4" stroke-linecap="round"/>
<path d="M684.188 396.037L666.49 392.488" stroke="#179F0C" stroke-opacity="0.6" stroke-width="8.4" stroke-linecap="round"/>
<path d="M737.23 498.723L728.803 497.033" stroke="#179F0C" stroke-opacity="0.6" stroke-width="8.4" stroke-linecap="round"/>
<path d="M914.258 442.172L749.079 409.049" stroke="#1E6AC6" stroke-opacity="0.6" stroke-width="8.4" stroke-linecap="round"/>
<path d="M884.711 528.297L784.424 508.187" stroke="#1E6AC6" stroke-opacity="0.6" stroke-width="8.4" stroke-linecap="round"/>
<path d="M911.812 607.368L811.525 587.258" stroke="#1E6AC6" stroke-opacity="0.6" stroke-width="8.4" stroke-linecap="round"/>
<path d="M928.095 587.92C935.289 598.587 932.566 613.204 922.009 620.569C911.458 627.936 897.068 625.261 889.873 614.594C888.928 613.203 888.007 611.79 887.113 610.378C865.153 575.594 858.728 535.476 866.209 498.169C873.69 460.861 895.086 426.322 928.759 402.694C930.129 401.735 931.523 400.787 932.932 399.868C968.819 376.399 1010.93 369.511 1049.99 377.343C1089.05 385.176 1125.24 407.766 1149.31 443.256C1150.25 444.648 1151.17 446.06 1152.07 447.473C1174.03 482.257 1180.45 522.374 1172.97 559.682C1165.49 596.99 1144.09 631.529 1110.42 655.157C1109.05 656.121 1107.66 657.064 1106.25 657.983C1095.5 665.051 1081.19 661.972 1074.29 651.106C1067.4 640.242 1070.51 625.703 1081.27 618.635C1082.32 617.945 1083.36 617.241 1084.37 616.533C1107.58 600.242 1122.34 576.374 1127.52 550.568C1132.69 524.757 1128.27 497.043 1113.14 473.067C1112.48 472.018 1111.79 470.968 1111.08 469.931C1098.82 451.844 1081.94 438.503 1062.98 430.414L1042.31 533.481C1039.75 546.235 1027.5 554.531 1014.95 552.014C1002.41 549.498 994.303 537.121 996.861 524.368L1017.53 421.301C996.911 421.452 976.194 427.254 957.904 439.214C956.852 439.904 955.814 440.608 954.8 441.316C931.584 457.607 916.826 481.475 911.652 507.281C906.476 533.092 910.89 560.805 926.031 584.782C926.692 585.831 927.38 586.876 928.085 587.918L928.095 587.92Z" fill="#1E6AC6" fill-opacity="0.9"/>
</g>
<path opacity="0.94" d="M1149.63 122.807C1213.49 175.581 1308.03 166.594 1360.81 102.733C1413.58 38.8725 1404.59 -55.6727 1340.73 -108.447C1276.87 -161.221 1182.33 -152.234 1129.55 -88.3731C1076.78 -24.5123 1085.77 70.033 1149.63 122.807ZM1302.88 -62.6419C1341.44 -30.7758 1346.87 26.32 1315 64.8806C1283.14 103.441 1226.04 108.868 1187.48 77.0022C1148.92 45.1361 1143.49 -11.9598 1175.36 -50.5203C1207.22 -89.0809 1264.32 -94.5081 1302.88 -62.6419Z" fill="url(#paint5_radial_117_3530)"/>
<g filter="url(#filter1_d_117_3530)">
<rect y="-96" width="1280" height="96" fill="#01164E"/>
</g>
<g opacity="0.6">
<path d="M171.496 204.663L138.595 210.633" stroke="#1E6AC6" stroke-opacity="0.6" stroke-width="8.4" stroke-linecap="round"/>
<path d="M129.82 212.225L128.724 212.424" stroke="#179F0C" stroke-opacity="0.6" stroke-width="8.4" stroke-linecap="round"/>
<path d="M135.387 255.394L129.903 256.388" stroke="#179F0C" stroke-opacity="0.6" stroke-width="8.4" stroke-linecap="round"/>
<path d="M110.273 229.364L106.983 229.961" stroke="#179F0C" stroke-opacity="0.6" stroke-width="8.4" stroke-linecap="round"/>
<path d="M126.422 243.428L124.855 243.712" stroke="#179F0C" stroke-opacity="0.6" stroke-width="8.4" stroke-linecap="round"/>
<path d="M153.047 221.604L122.339 227.175" stroke="#1E6AC6" stroke-opacity="0.6" stroke-width="8.4" stroke-linecap="round"/>
<path d="M153.836 238.453L135.192 241.836" stroke="#1E6AC6" stroke-opacity="0.6" stroke-width="8.4" stroke-linecap="round"/>
<path d="M163.902 250.221L145.258 253.603" stroke="#1E6AC6" stroke-opacity="0.6" stroke-width="8.4" stroke-linecap="round"/>
<path d="M165.378 245.759C167.345 247.105 167.874 249.808 166.559 251.797C165.245 253.786 162.584 254.308 160.617 252.962C160.359 252.787 160.104 252.606 159.853 252.424C153.697 247.933 149.852 241.463 148.593 234.527C147.335 227.591 148.662 220.182 152.848 213.815C153.019 213.556 153.194 213.297 153.374 213.043C157.952 206.551 164.734 202.491 171.995 201.173C179.257 199.855 187.032 201.275 193.599 205.744C193.857 205.919 194.112 206.1 194.362 206.282C200.519 210.773 204.364 217.244 205.622 224.18C206.881 231.115 205.554 238.524 201.368 244.892C201.197 245.151 201.022 245.409 200.842 245.664C199.473 247.615 196.799 248.061 194.869 246.661C192.94 245.26 192.485 242.544 193.854 240.592C193.988 240.402 194.118 240.21 194.245 240.018C197.131 235.628 198.043 230.51 197.172 225.713C196.302 220.914 193.649 216.443 189.405 213.347C189.22 213.212 189.03 213.078 188.838 212.947C185.491 210.67 181.673 209.524 177.855 209.426L181.331 228.587C181.762 230.958 180.219 233.223 177.886 233.646C175.553 234.069 173.313 232.491 172.882 230.12L169.406 210.959C165.866 212.393 162.694 214.806 160.36 218.114C160.226 218.305 160.096 218.497 159.969 218.688C157.083 223.079 156.171 228.197 157.042 232.994C157.912 237.792 160.564 242.264 164.808 245.359C164.994 245.495 165.184 245.628 165.376 245.759L165.378 245.759Z" fill="#1E6AC6" fill-opacity="0.9"/>
</g>
</g>
<defs>
<filter id="filter0_d_117_3530" x="-30" y="1372" width="1340" height="537" filterUnits="userSpaceOnUse" color-interpolation-filters="sRGB">
<feFlood flood-opacity="0" result="BackgroundImageFix"/>
<feColorMatrix in="SourceAlpha" type="matrix" values="0 0 0 0 0 0 0 0 0 0 0 0 0 0 0 0 0 0 127 0" result="hardAlpha"/>
<feOffset dy="4"/>
<feGaussianBlur stdDeviation="15"/>
<feComposite in2="hardAlpha" operator="out"/>
<feColorMatrix type="matrix" values="0 0 0 0 0.0862745 0 0 0 0 0.498039 0 0 0 0 0.988235 0 0 0 1 0"/>
<feBlend mode="normal" in2="BackgroundImageFix" result="effect1_dropShadow_117_3530"/>
<feBlend mode="normal" in="SourceGraphic" in2="effect1_dropShadow_117_3530" result="shape"/>
</filter>
<filter id="filter1_d_117_3530" x="-30" y="-122" width="1340" height="156" filterUnits="userSpaceOnUse" color-interpolation-filters="sRGB">
<feFlood flood-opacity="0" result="BackgroundImageFix"/>
<feColorMatrix in="SourceAlpha" type="matrix" values="0 0 0 0 0 0 0 0 0 0 0 0 0 0 0 0 0 0 127 0" result="hardAlpha"/>
<feOffset dy="4"/>
<feGaussianBlur stdDeviation="15"/>
<feComposite in2="hardAlpha" operator="out"/>
<feColorMatrix type="matrix" values="0 0 0 0 0.0588235 0 0 0 0 0.227451 0 0 0 0 0.65098 0 0 0 1 0"/>
<feBlend mode="normal" in2="BackgroundImageFix" result="effect1_dropShadow_117_3530"/>
<feBlend mode="normal" in="SourceGraphic" in2="effect1_dropShadow_117_3530" result="shape"/>
</filter>
<radialGradient id="paint0_radial_117_3530" cx="0" cy="0" r="1" gradientUnits="userSpaceOnUse" gradientTransform="translate(647.892 1637.71) rotate(-180) scale(801.608 801.052)">
<stop stop-color="#5BC7CE"/>
<stop offset="0.11" stop-color="#4198C0"/>
<stop offset="0.23" stop-color="#296BB3"/>
<stop offset="0.34" stop-color="#184AAA"/>
<stop offset="0.43" stop-color="#0D37A5"/>
<stop offset="0.49" stop-color="#0A30A3"/>
<stop offset="1" stop-color="#00152A"/>
</radialGradient>
<radialGradient id="paint1_radial_117_3530" cx="0" cy="0" r="1" gradientUnits="userSpaceOnUse" gradientTransform="translate(92.0343 1362.4) rotate(52.5071) scale(400.315 400.176)">
<stop stop-color="#0A30A3"/>
<stop offset="1" stop-color="#00152A"/>
</radialGradient>
<linearGradient id="paint2_linear_117_3530" x1="0" y1="0" x2="1469.9" y2="239.716" gradientUnits="userSpaceOnUse">
<stop stop-color="#0A30A3"/>
<stop offset="0.585704" stop-color="#001447"/>
</linearGradient>
<radialGradient id="paint3_radial_117_3530" cx="0" cy="0" r="1" gradientUnits="userSpaceOnUse" gradientTransform="translate(80.0501 -121.617) scale(414.966)">
<stop stop-color="#0A30A3"/>
<stop offset="1" stop-color="#00152A"/>
</radialGradient>
<radialGradient id="paint4_radial_117_3530" cx="0" cy="0" r="1" gradientUnits="userSpaceOnUse" gradientTransform="translate(-32.5796 -54.4887) rotate(-44.832) scale(675.802 675.79)">
<stop stop-color="#5BC7CE"/>
<stop offset="0.11" stop-color="#4198C0"/>
<stop offset="0.23" stop-color="#296BB3"/>
<stop offset="0.34" stop-color="#184AAA"/>
<stop offset="0.43" stop-color="#0D37A5"/>
<stop offset="0.49" stop-color="#0A30A3"/>
<stop offset="1" stop-color="#00152A"/>
</radialGradient>
<radialGradient id="paint5_radial_117_3530" cx="0" cy="0" r="1" gradientUnits="userSpaceOnUse" gradientTransform="translate(1131.69 64.3775) rotate(39.5701) scale(392.832)">
<stop stop-color="#0A30A3"/>
<stop offset="1" stop-color="#00152A"/>
</radialGradient>
<clipPath id="clip0_117_3530">
<rect width="1280" height="1398" fill="white"/>
</clipPath>
<clipPath id="clip1_117_3530">
<rect width="1280" height="477" fill="white" transform="translate(0 1398)"/>
</clipPath>
</defs>
</svg>
