<svg width="1440" height="1434" viewBox="0 0 1440 1434" fill="none" xmlns="http://www.w3.org/2000/svg">
<g clip-path="url(#clip0_115_3311)">
<rect width="1440" height="1434" fill="#001447"/>
<g clip-path="url(#clip1_115_3311)" filter="url(#filter0_d_115_3311)">
<rect width="1440" height="477" transform="translate(0 1434)" fill="#001447"/>
<path d="M1157.82 1562.02C1203.33 1516.54 1203.33 1442.81 1157.82 1397.34C1112.32 1351.86 1038.54 1351.86 993.03 1397.34C947.523 1442.81 947.523 1516.54 993.03 1562.02C1038.54 1607.49 1112.32 1607.49 1157.82 1562.02Z" fill="url(#paint0_radial_115_3311)" fill-opacity="0.3"/>
<path opacity="0.94" d="M87.6273 1113.49C-60.2632 1028.17 -249.358 1078.8 -334.743 1226.59C-420.127 1374.37 -369.459 1563.34 -221.569 1648.66C-73.6785 1733.99 115.416 1683.36 200.801 1535.57C286.186 1387.78 235.518 1198.82 87.6273 1113.49ZM-160.326 1542.66C-249.626 1491.14 -280.224 1377.02 -228.667 1287.79C-177.11 1198.55 -62.9153 1167.97 26.3842 1219.49C115.684 1271.01 146.282 1385.13 94.7249 1474.37C43.1678 1563.6 -71.0264 1594.18 -160.326 1542.66Z" fill="url(#paint1_radial_115_3311)"/>
</g>
<path d="M1440 0H0V1434H1440V0Z" fill="url(#paint2_linear_115_3311)"/>
<path d="M1440 0H0V1434H1440V0Z" fill="url(#paint3_linear_115_3311)"/>
<g opacity="0.6">
<path d="M206.496 189.664L173.595 195.634" stroke="#1E6AC6" stroke-opacity="0.6" stroke-width="8.4" stroke-linecap="round"/>
<path d="M164.822 197.226L163.726 197.425" stroke="#179F0C" stroke-opacity="0.6" stroke-width="8.4" stroke-linecap="round"/>
<path d="M170.389 240.395L164.905 241.389" stroke="#179F0C" stroke-opacity="0.6" stroke-width="8.4" stroke-linecap="round"/>
<path d="M145.275 214.365L141.985 214.962" stroke="#179F0C" stroke-opacity="0.6" stroke-width="8.4" stroke-linecap="round"/>
<path d="M161.42 228.429L159.853 228.713" stroke="#179F0C" stroke-opacity="0.6" stroke-width="8.4" stroke-linecap="round"/>
<path d="M188.047 206.604L157.339 212.176" stroke="#1E6AC6" stroke-opacity="0.6" stroke-width="8.4" stroke-linecap="round"/>
<path d="M188.838 223.454L170.194 226.837" stroke="#1E6AC6" stroke-opacity="0.6" stroke-width="8.4" stroke-linecap="round"/>
<path d="M198.902 235.222L180.258 238.604" stroke="#1E6AC6" stroke-opacity="0.6" stroke-width="8.4" stroke-linecap="round"/>
<path d="M200.38 230.76C202.347 232.106 202.876 234.809 201.561 236.798C200.247 238.787 197.586 239.309 195.619 237.963C195.361 237.788 195.106 237.607 194.855 237.425C188.699 232.934 184.854 226.464 183.595 219.528C182.337 212.592 183.664 205.183 187.85 198.815C188.021 198.557 188.196 198.298 188.376 198.044C192.954 191.552 199.736 187.491 206.997 186.174C214.259 184.856 222.034 186.276 228.601 190.745C228.859 190.92 229.114 191.101 229.364 191.283C235.521 195.774 239.366 202.245 240.624 209.181C241.883 216.116 240.556 223.525 236.37 229.893C236.199 230.152 236.024 230.41 235.844 230.664C234.475 232.616 231.801 233.062 229.871 231.662C227.942 230.261 227.486 227.545 228.856 225.593C228.989 225.403 229.12 225.211 229.247 225.019C232.133 220.629 233.045 215.511 232.174 210.714C231.304 205.915 228.651 201.444 224.407 198.348C224.222 198.213 224.032 198.079 223.84 197.948C220.493 195.671 216.675 194.525 212.857 194.427L216.333 213.588C216.764 215.959 215.221 218.224 212.888 218.647C210.555 219.07 208.315 217.492 207.884 215.121L204.408 195.96C200.868 197.393 197.696 199.807 195.362 203.115C195.228 203.306 195.097 203.498 194.971 203.689C192.085 208.08 191.173 213.198 192.043 217.995C192.914 222.793 195.566 227.265 199.81 230.36C199.996 230.496 200.186 230.629 200.378 230.76L200.38 230.76Z" fill="#1E6AC6" fill-opacity="0.9"/>
</g>
<g opacity="0.6">
<path d="M206.496 1337.66L173.595 1343.63" stroke="#1E6AC6" stroke-opacity="0.6" stroke-width="8.4" stroke-linecap="round"/>
<path d="M164.822 1345.23L163.726 1345.42" stroke="#179F0C" stroke-opacity="0.6" stroke-width="8.4" stroke-linecap="round"/>
<path d="M170.389 1388.39L164.905 1389.39" stroke="#179F0C" stroke-opacity="0.6" stroke-width="8.4" stroke-linecap="round"/>
<path d="M145.275 1362.36L141.985 1362.96" stroke="#179F0C" stroke-opacity="0.6" stroke-width="8.4" stroke-linecap="round"/>
<path d="M161.42 1376.43L159.853 1376.71" stroke="#179F0C" stroke-opacity="0.6" stroke-width="8.4" stroke-linecap="round"/>
<path d="M188.047 1354.6L157.339 1360.18" stroke="#1E6AC6" stroke-opacity="0.6" stroke-width="8.4" stroke-linecap="round"/>
<path d="M188.838 1371.45L170.194 1374.84" stroke="#1E6AC6" stroke-opacity="0.6" stroke-width="8.4" stroke-linecap="round"/>
<path d="M198.902 1383.22L180.258 1386.6" stroke="#1E6AC6" stroke-opacity="0.6" stroke-width="8.4" stroke-linecap="round"/>
<path d="M200.38 1378.76C202.347 1380.11 202.876 1382.81 201.561 1384.8C200.247 1386.79 197.586 1387.31 195.619 1385.96C195.361 1385.79 195.106 1385.61 194.855 1385.42C188.699 1380.93 184.854 1374.46 183.595 1367.53C182.337 1360.59 183.664 1353.18 187.85 1346.81C188.021 1346.56 188.196 1346.3 188.376 1346.04C192.954 1339.55 199.736 1335.49 206.997 1334.17C214.259 1332.86 222.034 1334.28 228.601 1338.74C228.859 1338.92 229.114 1339.1 229.364 1339.28C235.521 1343.77 239.366 1350.24 240.624 1357.18C241.883 1364.12 240.556 1371.52 236.37 1377.89C236.199 1378.15 236.024 1378.41 235.844 1378.66C234.475 1380.62 231.801 1381.06 229.871 1379.66C227.942 1378.26 227.486 1375.54 228.856 1373.59C228.989 1373.4 229.12 1373.21 229.247 1373.02C232.133 1368.63 233.045 1363.51 232.174 1358.71C231.304 1353.91 228.651 1349.44 224.407 1346.35C224.222 1346.21 224.032 1346.08 223.84 1345.95C220.493 1343.67 216.675 1342.52 212.857 1342.43L216.333 1361.59C216.764 1363.96 215.221 1366.22 212.888 1366.65C210.555 1367.07 208.315 1365.49 207.884 1363.12L204.408 1343.96C200.868 1345.39 197.696 1347.81 195.362 1351.11C195.228 1351.31 195.097 1351.5 194.971 1351.69C192.085 1356.08 191.173 1361.2 192.043 1365.99C192.914 1370.79 195.566 1375.26 199.81 1378.36C199.996 1378.5 200.186 1378.63 200.378 1378.76L200.38 1378.76Z" fill="#1E6AC6" fill-opacity="0.9"/>
</g>
<g opacity="0.6">
<path d="M1024.5 1299.66L991.595 1305.63" stroke="#1E6AC6" stroke-opacity="0.6" stroke-width="8.4" stroke-linecap="round"/>
<path d="M982.822 1307.23L981.726 1307.42" stroke="#179F0C" stroke-opacity="0.6" stroke-width="8.4" stroke-linecap="round"/>
<path d="M988.389 1350.39L982.905 1351.39" stroke="#179F0C" stroke-opacity="0.6" stroke-width="8.4" stroke-linecap="round"/>
<path d="M963.275 1324.36L959.985 1324.96" stroke="#179F0C" stroke-opacity="0.6" stroke-width="8.4" stroke-linecap="round"/>
<path d="M979.42 1338.43L977.853 1338.71" stroke="#179F0C" stroke-opacity="0.6" stroke-width="8.4" stroke-linecap="round"/>
<path d="M1006.05 1316.6L975.339 1322.18" stroke="#1E6AC6" stroke-opacity="0.6" stroke-width="8.4" stroke-linecap="round"/>
<path d="M1006.84 1333.45L988.194 1336.84" stroke="#1E6AC6" stroke-opacity="0.6" stroke-width="8.4" stroke-linecap="round"/>
<path d="M1016.9 1345.22L998.258 1348.6" stroke="#1E6AC6" stroke-opacity="0.6" stroke-width="8.4" stroke-linecap="round"/>
<path d="M1018.38 1340.76C1020.35 1342.11 1020.88 1344.81 1019.56 1346.8C1018.25 1348.79 1015.59 1349.31 1013.62 1347.96C1013.36 1347.79 1013.11 1347.61 1012.86 1347.42C1006.7 1342.93 1002.85 1336.46 1001.6 1329.53C1000.34 1322.59 1001.66 1315.18 1005.85 1308.81C1006.02 1308.56 1006.2 1308.3 1006.38 1308.04C1010.95 1301.55 1017.74 1297.49 1025 1296.17C1032.26 1294.86 1040.03 1296.28 1046.6 1300.74C1046.86 1300.92 1047.11 1301.1 1047.36 1301.28C1053.52 1305.77 1057.37 1312.24 1058.62 1319.18C1059.88 1326.12 1058.56 1333.52 1054.37 1339.89C1054.2 1340.15 1054.02 1340.41 1053.84 1340.66C1052.47 1342.62 1049.8 1343.06 1047.87 1341.66C1045.94 1340.26 1045.49 1337.54 1046.86 1335.59C1046.99 1335.4 1047.12 1335.21 1047.25 1335.02C1050.13 1330.63 1051.04 1325.51 1050.17 1320.71C1049.3 1315.91 1046.65 1311.44 1042.41 1308.35C1042.22 1308.21 1042.03 1308.08 1041.84 1307.95C1038.49 1305.67 1034.68 1304.52 1030.86 1304.43L1034.33 1323.59C1034.76 1325.96 1033.22 1328.22 1030.89 1328.65C1028.55 1329.07 1026.31 1327.49 1025.88 1325.12L1022.41 1305.96C1018.87 1307.39 1015.7 1309.81 1013.36 1313.11C1013.23 1313.31 1013.1 1313.5 1012.97 1313.69C1010.09 1318.08 1009.17 1323.2 1010.04 1327.99C1010.91 1332.79 1013.57 1337.26 1017.81 1340.36C1018 1340.5 1018.19 1340.63 1018.38 1340.76L1018.38 1340.76Z" fill="#1E6AC6" fill-opacity="0.9"/>
</g>
<path opacity="0.94" d="M1707.69 189.376C1867.68 189.376 1997.38 59.6828 1997.38 -100.312C1997.38 -260.307 1867.68 -390 1707.69 -390C1547.69 -390 1418 -260.307 1418 -100.312C1418 59.6828 1547.69 189.376 1707.69 189.376ZM1707.69 -275.242C1804.3 -275.242 1882.62 -196.92 1882.62 -100.312C1882.62 -3.70358 1804.3 74.618 1707.69 74.618C1611.08 74.618 1532.76 -3.70358 1532.76 -100.312C1532.76 -196.92 1611.08 -275.242 1707.69 -275.242Z" fill="url(#paint4_radial_115_3311)"/>
<path opacity="0.94" d="M53 -160C-57.4601 -160 -147 -70.4601 -147 40C-147 150.46 -57.4601 240 53 240C163.46 240 253 150.46 253 40C253 -70.4601 163.46 -160 53 -160ZM53 160.771C-13.6983 160.771 -67.7713 106.698 -67.7713 40C-67.7713 -26.6982 -13.6983 -80.7713 53 -80.7713C119.698 -80.7713 173.771 -26.6982 173.771 40C173.771 106.698 119.698 160.771 53 160.771Z" fill="url(#paint5_radial_115_3311)"/>
<path d="M118 76.7785L90.1542 49.0956C66.0533 71.8207 28.0016 71.4521 4.37344 47.9621C-19.2547 24.4721 -19.6162 -13.3571 3.23329 -37.317L-24.6125 -65C-62.8403 -25.7609 -62.4603 36.8575 -23.4631 75.6358C15.534 114.405 78.5208 114.783 118 76.7785Z" fill="url(#paint6_radial_115_3311)" fill-opacity="0.2"/>
<g opacity="0.6">
<path d="M1185.52 385.417L985.13 345.234" stroke="#1E6AC6" stroke-opacity="0.6" stroke-width="8.4" stroke-linecap="round"/>
<path d="M931.695 334.517L925.016 333.177" stroke="#179F0C" stroke-opacity="0.6" stroke-width="8.4" stroke-linecap="round"/>
<path d="M866.096 592.345L832.698 585.648" stroke="#179F0C" stroke-opacity="0.6" stroke-width="8.4" stroke-linecap="round"/>
<path d="M782.029 387.883L761.99 383.864" stroke="#179F0C" stroke-opacity="0.6" stroke-width="8.4" stroke-linecap="round"/>
<path d="M842.092 504.151L832.549 502.238" stroke="#179F0C" stroke-opacity="0.6" stroke-width="8.4" stroke-linecap="round"/>
<path d="M1042.53 440.12L855.502 402.616" stroke="#1E6AC6" stroke-opacity="0.6" stroke-width="8.4" stroke-linecap="round"/>
<path d="M1009.08 537.638L895.526 514.867" stroke="#1E6AC6" stroke-opacity="0.6" stroke-width="8.4" stroke-linecap="round"/>
<path d="M1039.77 627.169L926.212 604.398" stroke="#1E6AC6" stroke-opacity="0.6" stroke-width="8.4" stroke-linecap="round"/>
<path d="M1058.2 605.149C1066.35 617.226 1063.27 633.777 1051.31 642.117C1039.37 650.457 1023.07 647.429 1014.93 635.351C1013.86 633.776 1012.81 632.176 1011.8 630.577C986.936 591.192 979.661 545.767 988.132 503.524C996.602 461.281 1020.83 422.173 1058.96 395.42C1060.51 394.334 1062.09 393.26 1063.68 392.22C1104.31 365.647 1151.99 357.847 1196.22 366.715C1240.45 375.585 1281.43 401.163 1308.68 441.348C1309.75 442.923 1310.79 444.523 1311.8 446.122C1336.67 485.508 1343.94 530.932 1335.47 573.175C1327 615.418 1302.78 654.526 1264.65 681.28C1263.1 682.371 1261.52 683.439 1259.92 684.48C1247.75 692.483 1231.55 688.996 1223.74 676.693C1215.93 664.391 1219.46 647.929 1231.64 639.927C1232.83 639.145 1234 638.348 1235.15 637.546C1261.44 619.101 1278.15 592.075 1284.01 562.855C1289.87 533.63 1284.86 502.25 1267.73 475.102C1266.98 473.914 1266.2 472.725 1265.4 471.551C1251.51 451.071 1232.4 435.965 1210.93 426.807L1187.53 543.508C1184.63 557.949 1170.76 567.342 1156.55 564.493C1142.34 561.644 1133.17 547.63 1136.07 533.189L1159.47 416.488C1136.12 416.659 1112.67 423.228 1091.96 436.771C1090.77 437.552 1089.59 438.349 1088.44 439.151C1062.15 457.597 1045.44 484.622 1039.59 513.842C1033.72 543.067 1038.72 574.446 1055.87 601.595C1056.62 602.783 1057.39 603.966 1058.19 605.146L1058.2 605.149Z" fill="#1E6AC6" fill-opacity="0.9"/>
</g>
<path opacity="0.94" d="M1305.63 127.807C1369.49 180.581 1464.03 171.594 1516.81 107.733C1569.58 43.8725 1560.59 -50.6727 1496.73 -103.447C1432.87 -156.221 1338.33 -147.234 1285.55 -83.3731C1232.78 -19.5123 1241.77 75.033 1305.63 127.807ZM1458.88 -57.6419C1497.44 -25.7758 1502.87 31.32 1471 69.8806C1439.14 108.441 1382.04 113.868 1343.48 82.0022C1304.92 50.1361 1299.49 -6.95975 1331.36 -45.5203C1363.22 -84.0809 1420.32 -89.5081 1458.88 -57.6419Z" fill="url(#paint7_radial_115_3311)"/>
<g filter="url(#filter1_d_115_3311)">
<rect y="-96" width="1440" height="96" fill="#01164E"/>
</g>
<path d="M1594.33 1018.12C1597.16 1020.94 1597.16 1025.53 1594.33 1028.37L1262.37 1360.33C1259.55 1363.16 1254.96 1363.16 1252.12 1360.33C1249.29 1357.51 1249.29 1352.92 1252.12 1350.08L1584.08 1018.12C1586.9 1015.29 1591.49 1015.29 1594.33 1018.12Z" fill="url(#paint8_linear_115_3311)" style="mix-blend-mode:overlay"/>
<path d="M1684.33 1003.12C1687.16 1005.94 1687.16 1010.53 1684.33 1013.37L1352.37 1345.33C1349.55 1348.16 1344.96 1348.16 1342.12 1345.33C1339.29 1342.51 1339.29 1337.92 1342.12 1335.08L1674.08 1003.12C1676.9 1000.29 1681.49 1000.29 1684.33 1003.12Z" fill="url(#paint9_linear_115_3311)" style="mix-blend-mode:overlay"/>
</g>
<defs>
<filter id="filter0_d_115_3311" x="-30" y="1408" width="1500" height="537" filterUnits="userSpaceOnUse" color-interpolation-filters="sRGB">
<feFlood flood-opacity="0" result="BackgroundImageFix"/>
<feColorMatrix in="SourceAlpha" type="matrix" values="0 0 0 0 0 0 0 0 0 0 0 0 0 0 0 0 0 0 127 0" result="hardAlpha"/>
<feOffset dy="4"/>
<feGaussianBlur stdDeviation="15"/>
<feComposite in2="hardAlpha" operator="out"/>
<feColorMatrix type="matrix" values="0 0 0 0 0.0862745 0 0 0 0 0.498039 0 0 0 0 0.988235 0 0 0 1 0"/>
<feBlend mode="normal" in2="BackgroundImageFix" result="effect1_dropShadow_115_3311"/>
<feBlend mode="normal" in="SourceGraphic" in2="effect1_dropShadow_115_3311" result="shape"/>
</filter>
<filter id="filter1_d_115_3311" x="-30" y="-122" width="1500" height="156" filterUnits="userSpaceOnUse" color-interpolation-filters="sRGB">
<feFlood flood-opacity="0" result="BackgroundImageFix"/>
<feColorMatrix in="SourceAlpha" type="matrix" values="0 0 0 0 0 0 0 0 0 0 0 0 0 0 0 0 0 0 127 0" result="hardAlpha"/>
<feOffset dy="4"/>
<feGaussianBlur stdDeviation="15"/>
<feComposite in2="hardAlpha" operator="out"/>
<feColorMatrix type="matrix" values="0 0 0 0 0.0588235 0 0 0 0 0.227451 0 0 0 0 0.65098 0 0 0 1 0"/>
<feBlend mode="normal" in2="BackgroundImageFix" result="effect1_dropShadow_115_3311"/>
<feBlend mode="normal" in="SourceGraphic" in2="effect1_dropShadow_115_3311" result="shape"/>
</filter>
<radialGradient id="paint0_radial_115_3311" cx="0" cy="0" r="1" gradientUnits="userSpaceOnUse" gradientTransform="translate(807.892 1673.71) rotate(-180) scale(801.608 801.052)">
<stop stop-color="#5BC7CE"/>
<stop offset="0.11" stop-color="#4198C0"/>
<stop offset="0.23" stop-color="#296BB3"/>
<stop offset="0.34" stop-color="#184AAA"/>
<stop offset="0.43" stop-color="#0D37A5"/>
<stop offset="0.49" stop-color="#0A30A3"/>
<stop offset="1" stop-color="#00152A"/>
</radialGradient>
<radialGradient id="paint1_radial_115_3311" cx="0" cy="0" r="1" gradientUnits="userSpaceOnUse" gradientTransform="translate(98.0388 1179.05) rotate(29.9828) scale(641.419 641.196)">
<stop stop-color="#0A30A3"/>
<stop offset="1" stop-color="#00152A"/>
</radialGradient>
<linearGradient id="paint2_linear_115_3311" x1="0" y1="0" x2="1643.78" y2="293.782" gradientUnits="userSpaceOnUse">
<stop stop-color="#0A30A3"/>
<stop offset="0.585704" stop-color="#001447"/>
</linearGradient>
<linearGradient id="paint3_linear_115_3311" x1="0" y1="0" x2="1643.78" y2="293.782" gradientUnits="userSpaceOnUse">
<stop stop-color="#0A30A3"/>
<stop offset="0.585704" stop-color="#001447"/>
</linearGradient>
<radialGradient id="paint4_radial_115_3311" cx="0" cy="0" r="1" gradientUnits="userSpaceOnUse" gradientTransform="translate(1609.1 124.461) scale(758.657 758.657)">
<stop stop-color="#0A30A3"/>
<stop offset="1" stop-color="#00152A"/>
</radialGradient>
<radialGradient id="paint5_radial_115_3311" cx="0" cy="0" r="1" gradientUnits="userSpaceOnUse" gradientTransform="translate(80.0501 -126.617) scale(414.966)">
<stop stop-color="#0A30A3"/>
<stop offset="1" stop-color="#00152A"/>
</radialGradient>
<radialGradient id="paint6_radial_115_3311" cx="0" cy="0" r="1" gradientUnits="userSpaceOnUse" gradientTransform="translate(-32.5796 -59.4887) rotate(-44.832) scale(675.802 675.79)">
<stop stop-color="#5BC7CE"/>
<stop offset="0.11" stop-color="#4198C0"/>
<stop offset="0.23" stop-color="#296BB3"/>
<stop offset="0.34" stop-color="#184AAA"/>
<stop offset="0.43" stop-color="#0D37A5"/>
<stop offset="0.49" stop-color="#0A30A3"/>
<stop offset="1" stop-color="#00152A"/>
</radialGradient>
<radialGradient id="paint7_radial_115_3311" cx="0" cy="0" r="1" gradientUnits="userSpaceOnUse" gradientTransform="translate(1287.69 69.3775) rotate(39.5701) scale(392.832)">
<stop stop-color="#0A30A3"/>
<stop offset="1" stop-color="#00152A"/>
</radialGradient>
<linearGradient id="paint8_linear_115_3311" x1="1272.5" y1="1362" x2="1490.5" y2="1149.5" gradientUnits="userSpaceOnUse">
<stop stop-color="#0A30A3" stop-opacity="0.31"/>
<stop offset="1" stop-color="white" stop-opacity="0"/>
</linearGradient>
<linearGradient id="paint9_linear_115_3311" x1="1362.5" y1="1347" x2="1580.5" y2="1134.5" gradientUnits="userSpaceOnUse">
<stop stop-color="#0A30A3" stop-opacity="0.31"/>
<stop offset="1" stop-color="white" stop-opacity="0"/>
</linearGradient>
<clipPath id="clip0_115_3311">
<rect width="1440" height="1434" fill="white"/>
</clipPath>
<clipPath id="clip1_115_3311">
<rect width="1440" height="477" fill="white" transform="translate(0 1434)"/>
</clipPath>
</defs>
</svg>
