<svg width="968" height="1295" viewBox="0 0 968 1295" fill="none" xmlns="http://www.w3.org/2000/svg">
<g clip-path="url(#clip0_121_3902)">
<rect width="968" height="1295" fill="#001447"/>
<path d="M968 0H0V1295H968V0Z" fill="url(#paint0_linear_121_3902)"/>
<path d="M17 -139C-59.7698 -139 -122 -76.7698 -122 3.15905e-06C-122 76.7698 -59.7698 139 17 139C93.7697 139 156 76.7698 156 3.15905e-06C156 -76.7698 93.7697 -139 17 -139ZM17 83.9361C-29.3553 83.9361 -66.9361 46.3553 -66.9361 3.15905e-06C-66.9361 -46.3553 -29.3553 -83.9361 17 -83.9361C63.3553 -83.9361 100.936 -46.3553 100.936 3.15905e-06C100.936 46.3553 63.3553 83.9361 17 83.9361Z" fill="url(#paint1_radial_121_3902)"/>
<g filter="url(#filter0_d_121_3902)">
<rect y="-96" width="968" height="96" fill="#011855"/>
</g>
<path d="M456 43.8212C456 40.6068 458.607 38 461.821 38C465.036 38 467.642 40.6068 467.642 43.8212C467.642 47.0356 465.036 49.6424 461.821 49.6424C458.607 49.6424 456 47.0356 456 43.8212Z" stroke="#FF9149" stroke-width="3.92" stroke-miterlimit="10"/>
<g clip-path="url(#clip1_121_3902)" filter="url(#filter1_d_121_3902)">
<rect width="968" height="1097" transform="translate(0 1295)" fill="#001447"/>
<path d="M1093.33 1259.12C1096.16 1261.94 1096.16 1266.53 1093.33 1269.37L761.368 1601.33C758.545 1604.16 753.959 1604.16 751.117 1601.33C748.294 1598.51 748.294 1593.92 751.117 1591.08L1083.08 1259.12C1085.9 1256.29 1090.49 1256.29 1093.33 1259.12Z" fill="url(#paint2_linear_121_3902)" style="mix-blend-mode:overlay"/>
<path d="M840.02 1406.02C885.495 1360.54 885.495 1286.81 840.02 1241.34C794.545 1195.86 720.815 1195.86 675.34 1241.34C629.865 1286.81 629.865 1360.54 675.34 1406.02C720.815 1451.49 794.545 1451.49 840.02 1406.02Z" fill="url(#paint3_radial_121_3902)" fill-opacity="0.3"/>
</g>
<path d="M852.404 114.777L810.619 69.5952C810.548 69.6602 810.471 69.7174 810.401 69.7824C810.33 69.8474 810.267 69.9202 810.197 69.9852L851.983 115.167C852.053 115.102 852.13 115.045 852.201 114.98C852.271 114.915 852.334 114.842 852.404 114.777Z" fill="#FF9149"/>
<path d="M803.59 79.0002C803.5 79.1848 803.41 79.3695 803.32 79.5616L841.906 121.284C842.097 121.217 842.288 121.134 842.487 121.059L803.59 79.0002Z" fill="#FF9149"/>
<path d="M808.582 71.6382C808.448 71.7835 808.315 71.9214 808.189 72.067L849.758 117.015C849.913 116.901 850.06 116.778 850.216 116.656L808.582 71.6382Z" fill="#FF9149"/>
<path d="M806.718 73.8762C806.599 74.0296 806.48 74.183 806.361 74.344L847.338 118.652C847.507 118.553 847.67 118.439 847.832 118.332L806.711 73.8684L806.718 73.8762Z" fill="#FF9149"/>
<path d="M802.362 81.9178C802.287 82.1181 802.211 82.3258 802.143 82.5264L838.851 122.219C839.064 122.167 839.27 122.107 839.475 122.048L802.362 81.9178Z" fill="#FF9149"/>
<path d="M805.049 76.325C804.945 76.494 804.84 76.663 804.736 76.8396L844.73 120.085C844.907 119.994 845.084 119.903 845.268 119.813L805.049 76.325Z" fill="#FF9149"/>
<path d="M862.082 92.0781C862.078 91.7844 862.067 91.4905 862.056 91.1965L834.895 61.8273C834.603 61.7933 834.311 61.7593 834.018 61.7328L862.089 92.0859L862.082 92.0781Z" fill="#FF9149"/>
<path d="M831.845 123.15C832.101 123.145 832.358 123.132 832.606 123.127L800.758 88.6895C800.725 88.9442 800.701 89.1916 800.676 89.4465L831.845 123.15Z" fill="#FF9149"/>
<path d="M839.698 62.7675C839.355 62.6713 839.005 62.5824 838.662 62.5013L861.671 87.3804C861.617 87.032 861.555 86.6759 861.486 86.3269L839.698 62.7675Z" fill="#FF9149"/>
<path d="M801.394 85.124C801.34 85.3477 801.293 85.5793 801.239 85.8105L835.507 122.864C835.741 122.835 835.968 122.799 836.203 122.763L801.394 85.124Z" fill="#FF9149"/>
<path d="M846.01 65.3474C845.524 65.08 845.022 64.8271 844.527 64.5895L860.047 81.3708C859.849 80.8512 859.635 80.3386 859.407 79.8329L846.01 65.3474Z" fill="#FF9149"/>
<path d="M830.764 61.6132C830.507 61.6183 830.251 61.6308 830.002 61.6362L861.851 96.0734C861.883 95.8187 861.908 95.5638 861.933 95.3164L830.764 61.6132Z" fill="#FF9149"/>
<path d="M827.094 61.8989C826.86 61.9274 826.633 61.9637 826.398 61.9997L861.207 99.6386C861.261 99.4149 861.308 99.1833 861.362 98.9521L827.094 61.8989Z" fill="#FF9149"/>
<path d="M800.938 97.3825C800.992 97.7308 801.053 98.087 801.122 98.4359L822.911 121.995C823.253 122.092 823.596 122.18 823.946 122.262L800.938 97.3825Z" fill="#FF9149"/>
<path d="M812.851 67.748C812.696 67.8623 812.548 67.9845 812.393 68.1064L854.027 113.125C854.16 112.979 854.294 112.842 854.42 112.696L812.851 67.748Z" fill="#FF9149"/>
<path d="M800.534 92.6926C800.537 92.9863 800.548 93.2802 800.56 93.5742L827.721 122.943C828.013 122.977 828.305 123.011 828.598 123.038L800.527 92.6847L800.534 92.6926Z" fill="#FF9149"/>
<path d="M816.599 119.415C817.085 119.683 817.587 119.936 818.082 120.173L802.562 103.392C802.76 103.912 802.973 104.424 803.202 104.93L816.599 119.415Z" fill="#FF9149"/>
<path d="M815.263 66.111C815.094 66.2098 814.931 66.3239 814.769 66.4305L855.89 110.894C856.009 110.741 856.128 110.587 856.247 110.426L815.27 66.1189L815.263 66.111Z" fill="#FF9149"/>
<path d="M817.878 64.6852C817.702 64.7687 817.525 64.8671 817.341 64.9577L857.559 108.445C857.663 108.276 857.768 108.107 857.873 107.931L817.878 64.6852Z" fill="#FF9149"/>
<path d="M823.757 62.5439C823.545 62.5958 823.339 62.6555 823.133 62.7152L860.246 102.845C860.322 102.645 860.398 102.437 860.466 102.236L823.757 62.5439Z" fill="#FF9149"/>
<path d="M820.702 63.4858C820.511 63.5536 820.32 63.6365 820.121 63.7115L859.018 105.77C859.108 105.586 859.198 105.401 859.289 105.209L820.702 63.4858Z" fill="#FF9149"/>
<path d="M-78.6051 310.323C-139.024 337.564 -165.918 408.622 -138.677 469.04C-111.436 529.459 -40.378 556.353 20.0408 529.112C80.4597 501.871 107.354 430.813 80.1128 370.394C52.8717 309.976 -18.1863 283.081 -78.6051 310.323ZM0.501872 485.776C-35.9804 502.225 -78.8922 485.984 -95.341 449.501C-111.79 413.019 -95.5484 370.107 -59.0661 353.659C-22.5839 337.21 20.3279 353.451 36.7767 389.933C53.2255 426.416 36.9841 469.327 0.501872 485.776Z" fill="url(#paint4_radial_121_3902)"/>
<g opacity="0.6">
<path d="M750.324 358.122L595.374 316.501" stroke="#1E6AC6" stroke-opacity="0.6" stroke-width="8.4" stroke-linecap="round"/>
<path d="M554.059 305.401L548.894 304.014" stroke="#179F0C" stroke-opacity="0.6" stroke-width="8.4" stroke-linecap="round"/>
<path d="M489.617 504.062L463.792 497.126" stroke="#179F0C" stroke-opacity="0.6" stroke-width="8.4" stroke-linecap="round"/>
<path d="M434.113 339.635L418.618 335.473" stroke="#179F0C" stroke-opacity="0.6" stroke-width="8.4" stroke-linecap="round"/>
<path d="M475.277 433.758L467.899 431.776" stroke="#179F0C" stroke-opacity="0.6" stroke-width="8.4" stroke-linecap="round"/>
<path d="M635.547 393.741L490.927 354.895" stroke="#1E6AC6" stroke-opacity="0.6" stroke-width="8.4" stroke-linecap="round"/>
<path d="M604.398 468.443L516.594 444.858" stroke="#1E6AC6" stroke-opacity="0.6" stroke-width="8.4" stroke-linecap="round"/>
<path d="M623.91 540.135L536.105 516.55" stroke="#1E6AC6" stroke-opacity="0.6" stroke-width="8.4" stroke-linecap="round"/>
<path d="M639.466 523.817C645.236 533.691 641.983 546.501 632.197 552.429C622.416 558.359 609.805 555.161 604.034 545.288C603.275 543.999 602.54 542.694 601.827 541.389C584.342 509.277 580.941 473.323 589.715 440.659C598.489 407.995 619.447 378.584 650.669 359.555C651.939 358.783 653.23 358.022 654.532 357.287C687.71 338.526 725.456 334.829 759.653 344.015C793.854 353.201 824.664 375.313 843.976 408.173C844.734 409.461 845.47 410.767 846.182 412.071C863.668 444.184 867.068 480.137 858.295 512.801C849.521 545.466 828.563 574.876 797.34 593.906C796.069 594.682 794.78 595.439 793.477 596.174C783.536 601.827 771.025 598.276 765.526 588.242C760.032 578.21 763.631 565.493 773.572 559.839C774.545 559.287 775.506 558.723 776.446 558.152C797.972 545.032 812.43 524.706 818.499 502.112C824.569 479.514 822.237 454.678 810.185 432.543C809.659 431.574 809.11 430.604 808.544 429.643C798.701 412.897 784.493 400.096 768.134 391.835L743.896 482.073C740.897 493.239 729.557 499.896 718.57 496.945C707.583 493.994 701.106 482.551 704.105 471.385L728.344 381.147C710.047 380.099 691.337 384.058 674.429 393.619C673.456 394.171 672.495 394.736 671.555 395.306C650.029 408.426 635.57 428.752 629.501 451.346C623.431 473.944 625.759 498.78 637.815 520.915C638.342 521.884 638.892 522.85 639.457 523.815L639.466 523.817Z" fill="#1E6AC6" fill-opacity="0.9"/>
</g>
</g>
<defs>
<filter id="filter0_d_121_3902" x="-30" y="-126" width="1028" height="156" filterUnits="userSpaceOnUse" color-interpolation-filters="sRGB">
<feFlood flood-opacity="0" result="BackgroundImageFix"/>
<feColorMatrix in="SourceAlpha" type="matrix" values="0 0 0 0 0 0 0 0 0 0 0 0 0 0 0 0 0 0 127 0" result="hardAlpha"/>
<feOffset/>
<feGaussianBlur stdDeviation="15"/>
<feComposite in2="hardAlpha" operator="out"/>
<feColorMatrix type="matrix" values="0 0 0 0 0.0588235 0 0 0 0 0.227451 0 0 0 0 0.65098 0 0 0 1 0"/>
<feBlend mode="normal" in2="BackgroundImageFix" result="effect1_dropShadow_121_3902"/>
<feBlend mode="normal" in="SourceGraphic" in2="effect1_dropShadow_121_3902" result="shape"/>
</filter>
<filter id="filter1_d_121_3902" x="-30" y="1269" width="1028" height="1157" filterUnits="userSpaceOnUse" color-interpolation-filters="sRGB">
<feFlood flood-opacity="0" result="BackgroundImageFix"/>
<feColorMatrix in="SourceAlpha" type="matrix" values="0 0 0 0 0 0 0 0 0 0 0 0 0 0 0 0 0 0 127 0" result="hardAlpha"/>
<feOffset dy="4"/>
<feGaussianBlur stdDeviation="15"/>
<feComposite in2="hardAlpha" operator="out"/>
<feColorMatrix type="matrix" values="0 0 0 0 0.0862745 0 0 0 0 0.498039 0 0 0 0 0.988235 0 0 0 1 0"/>
<feBlend mode="normal" in2="BackgroundImageFix" result="effect1_dropShadow_121_3902"/>
<feBlend mode="normal" in="SourceGraphic" in2="effect1_dropShadow_121_3902" result="shape"/>
</filter>
<linearGradient id="paint0_linear_121_3902" x1="207.5" y1="-379.092" x2="1242.87" y2="376.516" gradientUnits="userSpaceOnUse">
<stop stop-color="#0A30A3"/>
<stop offset="0.609243" stop-color="#001447"/>
</linearGradient>
<radialGradient id="paint1_radial_121_3902" cx="0" cy="0" r="1" gradientUnits="userSpaceOnUse" gradientTransform="translate(35.7998 -115.799) scale(288.401)">
<stop stop-color="#0A30A3"/>
<stop offset="1" stop-color="#00152A"/>
</radialGradient>
<linearGradient id="paint2_linear_121_3902" x1="771.5" y1="1603" x2="989.5" y2="1390.5" gradientUnits="userSpaceOnUse">
<stop stop-color="#0A30A3" stop-opacity="0.31"/>
<stop offset="1" stop-color="white" stop-opacity="0"/>
</linearGradient>
<radialGradient id="paint3_radial_121_3902" cx="0" cy="0" r="1" gradientUnits="userSpaceOnUse" gradientTransform="translate(490.331 1517.71) rotate(-180) scale(801.052)">
<stop stop-color="#5BC7CE"/>
<stop offset="0.11" stop-color="#4198C0"/>
<stop offset="0.23" stop-color="#296BB3"/>
<stop offset="0.34" stop-color="#184AAA"/>
<stop offset="0.43" stop-color="#0D37A5"/>
<stop offset="0.49" stop-color="#0A30A3"/>
<stop offset="1" stop-color="#00152A"/>
</radialGradient>
<radialGradient id="paint4_radial_121_3902" cx="0" cy="0" r="1" gradientUnits="userSpaceOnUse" gradientTransform="translate(-55.5767 321.911) rotate(-24.2692) scale(248.98)">
<stop stop-color="#0A30A3"/>
<stop offset="1" stop-color="#00152A"/>
</radialGradient>
<clipPath id="clip0_121_3902">
<rect width="968" height="1295" fill="white"/>
</clipPath>
<clipPath id="clip1_121_3902">
<rect width="968" height="1097" fill="white" transform="translate(0 1295)"/>
</clipPath>
</defs>
</svg>
