<svg width="24" height="24" viewBox="0 0 24 24" fill="none" xmlns="http://www.w3.org/2000/svg">
<g clip-path="url(#clip0_527_28679)">
<path fill-rule="evenodd" clip-rule="evenodd" d="M12 23.7028C18.6274 23.7028 24 18.548 24 12.1893C24 5.83055 18.6274 0.675781 12 0.675781C5.37258 0.675781 0 5.83055 0 12.1893C0 18.548 5.37258 23.7028 12 23.7028Z" fill="#5489CA"/>
<path fill-rule="evenodd" clip-rule="evenodd" d="M6.92188 10.4175C6.92188 12.8634 11.5373 18.5839 11.5373 18.4285C11.5373 18.2732 16.1526 12.8634 16.1526 10.4175C16.1526 7.97165 14.085 5.98926 11.5373 5.98926C8.98957 5.98926 6.92188 7.97165 6.92188 10.4175ZM9.22957 9.9747C9.22957 11.1976 10.2634 12.1888 11.5373 12.1888C12.8111 12.1888 13.845 11.1976 13.845 9.9747C13.845 8.75176 12.8111 7.76057 11.5373 7.76057C10.2634 7.76057 9.22957 8.75176 9.22957 9.9747Z" fill="#001447"/>
</g>
<defs>
<clipPath id="clip0_527_28679">
<rect width="24" height="23.027" fill="white" transform="translate(0 0.675781)"/>
</clipPath>
</defs>
</svg>
