<svg width="77" height="55" viewBox="0 0 77 55" fill="none" xmlns="http://www.w3.org/2000/svg">
<path d="M54.7915 16.6344H63.0956C63.7996 16.6344 64.3706 17.1992 64.3706 17.8956V22.421L73.5261 13.364L64.3706 4.307V8.83241C64.3706 9.52883 63.7996 10.0937 63.0956 10.0937C63.0576 10.0937 63.0204 10.0919 62.9832 10.0888L38.2867 10.0897C33.4976 10.1725 29.1729 12.1515 26.0466 15.3C22.9297 18.4392 21.0072 22.7458 21.0072 27.5002C21.0072 29.1217 21.2271 30.682 21.6386 32.1541C22.0663 33.6834 22.7 35.129 23.5083 36.4593C23.8688 37.0552 23.6722 37.8274 23.0699 38.184C22.8652 38.3049 22.64 38.3625 22.4174 38.3625V38.3665H14.1133C13.4093 38.3665 12.8383 37.8017 12.8383 37.1053V32.5798L3.68284 41.6369L12.8383 50.6939V46.1685C12.8383 45.4721 13.4093 44.9072 14.1133 44.9072C14.1513 44.9072 14.1885 44.909 14.2257 44.9121L38.9428 44.9108C43.727 44.8226 48.0467 42.8423 51.1695 39.6938C54.2819 36.5555 56.2017 32.2516 56.2017 27.5011C56.2017 25.8797 55.9818 24.3194 55.5703 22.8477C55.1426 21.3184 54.5089 19.8728 53.7006 18.5424C53.3401 17.9466 53.5367 17.1744 54.139 16.8178C54.3437 16.6968 54.5689 16.6392 54.7915 16.6392V16.6353V16.6344ZM61.8202 19.1573H56.9026C57.354 20.1244 57.7293 21.1332 58.0208 22.1765C58.4973 23.8803 58.7517 25.6661 58.7517 27.5002C58.7517 32.932 56.551 37.8593 52.9823 41.457C49.4113 45.0574 44.4654 47.3221 38.9822 47.4231L15.3882 47.4244V53.7387C15.3882 54.0617 15.2637 54.3842 15.0147 54.6305C14.5168 55.1232 13.7093 55.1232 13.2113 54.6305L0.977495 42.5282C0.479507 42.0356 0.479507 41.2368 0.977495 40.7442L13.206 28.6472C13.437 28.4159 13.7581 28.2724 14.1128 28.2724C14.8168 28.2724 15.3878 28.8372 15.3878 29.5337V35.8427H20.3054C19.854 34.8756 19.4787 33.8668 19.1872 32.8235C18.7107 31.1197 18.4563 29.3339 18.4563 27.4998C18.4563 22.064 20.6601 17.1341 24.2329 13.5355C27.8084 9.93464 32.7591 7.67127 38.2464 7.57646L61.8198 7.57557V1.26127C61.8198 0.938308 61.9443 0.615792 62.1933 0.369475C62.6912 -0.123158 63.4987 -0.123158 63.9967 0.369475L76.2305 12.4718C76.7285 12.9644 76.7285 13.7632 76.2305 14.2558L64.002 26.3528C63.771 26.5841 63.4499 26.7276 63.0952 26.7276C62.3912 26.7276 61.8202 26.1628 61.8202 25.4663V19.1569V19.1573Z" fill="#F6F6F6"/>
<path d="M31.7523 33.5541C32.5551 34.3314 32.5729 35.6092 31.792 36.4082C31.0116 37.2072 29.7278 37.2249 28.9251 36.4477C28.8197 36.3464 28.7162 36.243 28.6149 36.139C26.1263 33.579 24.8818 30.307 24.8818 27.0369C24.8818 23.7667 26.1263 20.4947 28.6149 17.9347C28.7162 17.8307 28.8197 17.7273 28.9251 17.626C31.6068 15.042 35.1097 13.75 38.6041 13.75C42.0989 13.75 45.6013 15.042 48.2831 17.626C48.3884 17.7273 48.4919 17.8307 48.5932 17.9347C51.0818 20.4947 52.3263 23.7667 52.3263 27.0369C52.3263 30.307 51.0818 33.579 48.5932 36.139C48.4919 36.2434 48.3884 36.3464 48.2831 36.4477C47.4803 37.2249 46.197 37.2072 45.4161 36.4082C44.6356 35.6092 44.653 34.3314 45.4558 33.5541C45.5343 33.4782 45.6115 33.4014 45.6865 33.3245C47.4022 31.5595 48.2599 29.2989 48.2599 27.0369C48.2599 24.7744 47.4018 22.5137 45.6865 20.7492C45.6115 20.6719 45.5343 20.5951 45.4558 20.5196C44.089 19.2027 42.4072 18.3637 40.6366 18.0026V27.0369C40.6366 28.1547 39.7263 29.0608 38.6036 29.0608C37.4809 29.0608 36.5706 28.1547 36.5706 27.0369V18.0026C34.8 18.3637 33.1182 19.2027 31.7514 20.5196C31.6729 20.5955 31.5957 20.6723 31.5207 20.7492C29.805 22.5142 28.9474 24.7749 28.9474 27.0369C28.9474 29.2993 29.805 31.56 31.5207 33.3245C31.5957 33.4018 31.6729 33.4782 31.7514 33.5541H31.7523Z" fill="#F6F6F6"/>
</svg>
