<svg width="87" height="63" viewBox="0 0 87 63" fill="none" xmlns="http://www.w3.org/2000/svg">
<path d="M62.0304 19.0539H71.5365C72.3424 19.0539 72.996 19.7009 72.996 20.4986V25.6823L83.4766 15.3079L72.996 4.93348V10.1171C72.996 10.9148 72.3424 11.5618 71.5365 11.5618C71.4929 11.5618 71.4504 11.5598 71.4078 11.5563L43.1368 11.5573C37.6545 11.6522 32.7039 13.919 29.1251 17.5255C25.5571 21.1213 23.3563 26.0543 23.3563 31.5003C23.3563 33.3575 23.608 35.1448 24.0791 36.8311C24.5687 38.5828 25.2941 40.2386 26.2194 41.7625C26.6321 42.445 26.407 43.3295 25.7175 43.738C25.4832 43.8766 25.2254 43.9425 24.9706 43.9425V43.9471H15.4645C14.6587 43.9471 14.005 43.3001 14.005 42.5024V37.3187L3.52446 47.6931L14.005 58.0675V52.8839C14.005 52.0862 14.6587 51.4392 15.4645 51.4392C15.5081 51.4392 15.5507 51.4412 15.5932 51.4448L43.8878 51.4432C49.3644 51.3422 54.3094 49.0739 57.8841 45.4674C61.4471 41.8726 63.6448 36.9427 63.6448 31.5013C63.6448 29.644 63.3931 27.8567 62.9219 26.171C62.4324 24.4192 61.707 22.7634 60.7816 21.2395C60.369 20.557 60.594 19.6725 61.2835 19.264C61.5178 19.1255 61.7757 19.0595 62.0304 19.0595V19.0549V19.0539ZM70.0765 21.9439H64.4471C64.9638 23.0516 65.3934 24.2071 65.7271 25.4022C66.2726 27.3538 66.5638 29.3994 66.5638 31.5003C66.5638 37.7222 64.0446 43.3661 59.9593 47.4871C55.8715 51.6112 50.2098 54.2053 43.9329 54.321L16.9241 54.3225V61.5553C16.9241 61.9252 16.7815 62.2946 16.4965 62.5768C15.9264 63.1411 15.0021 63.1411 14.4321 62.5768L0.427549 48.7141C-0.142516 48.1498 -0.142516 47.2349 0.427549 46.6706L14.4259 32.8141C14.6905 32.5492 15.058 32.3847 15.464 32.3847C16.2699 32.3847 16.9235 33.0318 16.9235 33.8295V41.0561H22.5529C22.0362 39.9484 21.6066 38.7929 21.2729 37.5978C20.7274 35.6462 20.4362 33.6006 20.4362 31.4997C20.4362 25.2733 22.959 19.6263 27.0489 15.5043C31.1418 11.3797 36.8092 8.78709 43.0907 8.67849L70.076 8.67748V1.44472C70.076 1.07479 70.2185 0.705362 70.5035 0.423217C71.0736 -0.141072 71.9979 -0.141072 72.5679 0.423217L86.5725 14.2859C87.1425 14.8502 87.1425 15.7651 86.5725 16.3294L72.5741 30.1859C72.3096 30.4508 71.942 30.6153 71.536 30.6153C70.7301 30.6153 70.0765 29.9683 70.0765 29.1705V21.9434V21.9439Z" fill="#F6F6F6"/>
<path d="M35.6564 38.4347C36.5753 39.325 36.5958 40.7887 35.7019 41.7039C34.8085 42.6191 33.3389 42.6395 32.4199 41.7492C32.2994 41.6332 32.1809 41.5147 32.0649 41.3956C29.2161 38.4632 27.7915 34.7153 27.7915 30.9695C27.7915 27.2236 29.2161 23.4757 32.0649 20.5434C32.1809 20.4243 32.2994 20.3058 32.4199 20.1898C35.4899 17.2299 39.4997 15.75 43.4998 15.75C47.5005 15.75 51.5098 17.2299 54.5797 20.1898C54.7003 20.3058 54.8188 20.4243 54.9348 20.5434C57.7835 23.4757 59.2082 27.2236 59.2082 30.9695C59.2082 34.7153 57.7835 38.4632 54.9348 41.3956C54.8188 41.5152 54.7003 41.6332 54.5797 41.7492C53.6608 42.6395 52.1917 42.6191 51.2978 41.7039C50.4044 40.7887 50.4243 39.325 51.3433 38.4347C51.4332 38.3478 51.5215 38.2597 51.6074 38.1717C53.5714 36.15 54.5532 33.5605 54.5532 30.9695C54.5532 28.378 53.5709 25.7885 51.6074 23.7672C51.5215 23.6787 51.4332 23.5907 51.3433 23.5042C49.7787 21.9958 47.8534 21.0348 45.8266 20.6212V30.9695C45.8266 32.25 44.7845 33.2878 43.4993 33.2878C42.2141 33.2878 41.1721 32.25 41.1721 30.9695V20.6212C39.1452 21.0348 37.22 21.9958 35.6554 23.5042C35.5655 23.5912 35.4771 23.6792 35.3913 23.7672C33.4272 25.789 32.4455 28.3785 32.4455 30.9695C32.4455 33.561 33.4272 36.1505 35.3913 38.1717C35.4771 38.2602 35.5655 38.3478 35.6554 38.4347H35.6564Z" fill="#F6F6F6"/>
</svg>
