<svg width="106" height="77" viewBox="0 0 106 77" fill="none" xmlns="http://www.w3.org/2000/svg">
<path d="M75.5773 23.2151H87.1594C88.1413 23.2151 88.9376 24.0034 88.9376 24.9753V31.2911L101.707 18.651L88.9376 6.0109V12.3266C88.9376 13.2985 88.1413 14.0869 87.1594 14.0869C87.1063 14.0869 87.0545 14.0844 87.0026 14.08L52.5575 14.0813C45.8779 14.1969 39.8461 16.9588 35.4857 21.3529C31.1385 25.734 28.457 31.7443 28.457 38.3796C28.457 40.6425 28.7637 42.8201 29.3377 44.8746C29.9342 47.0089 30.8181 49.0264 31.9455 50.8831C32.4483 51.7146 32.1741 52.7923 31.334 53.29C31.0485 53.4588 30.7344 53.5392 30.4239 53.5392V53.5448H18.8419C17.86 53.5448 17.0636 52.7564 17.0636 51.7845V45.4688L4.29417 58.1089L17.0636 70.749V64.4332C17.0636 63.4613 17.86 62.673 18.8419 62.673C18.895 62.673 18.9468 62.6755 18.9986 62.6798L53.4725 62.678C60.1452 62.5549 66.1701 59.7912 70.5255 55.3971C74.8665 51.0172 77.5442 45.0107 77.5442 38.3809C77.5442 36.118 77.2375 33.9404 76.6635 31.8865C76.067 29.7522 75.1832 27.7347 74.0558 25.878C73.553 25.0465 73.8272 23.9688 74.6673 23.4711C74.9527 23.3023 75.2669 23.2219 75.5773 23.2219V23.2163V23.2151ZM85.3805 26.7362H78.5217C79.1513 28.0859 79.6747 29.4937 80.0814 30.9498C80.7459 33.3277 81.1007 35.8199 81.1007 38.3796C81.1007 45.9603 78.0314 52.8368 73.0539 57.8579C68.0733 62.8826 61.1752 66.0432 53.5275 66.1842L20.6201 66.1861V74.9984C20.6201 75.4491 20.4465 75.8992 20.0992 76.243C19.4046 76.9305 18.2785 76.9305 17.5839 76.243L0.520921 59.3529C-0.17364 58.6653 -0.17364 57.5506 0.520921 56.863L17.5764 39.9803C17.8987 39.6576 18.3466 39.4573 18.8412 39.4573C19.8231 39.4573 20.6195 40.2456 20.6195 41.2175V50.0224H27.4783C26.8487 48.6727 26.3253 47.2649 25.9187 45.8089C25.2541 43.431 24.8993 40.9387 24.8993 38.379C24.8993 30.7927 27.973 23.9125 32.9561 18.8903C37.9429 13.8649 44.848 10.7061 52.5013 10.5738L85.3799 10.5726V1.76024C85.3799 1.30951 85.5535 0.859407 85.9008 0.515644C86.5954 -0.171881 87.7215 -0.171881 88.4161 0.515644L105.479 17.4058C106.174 18.0933 106.174 19.208 105.479 19.8956L88.4236 36.7783C88.1013 37.101 87.6535 37.3013 87.1588 37.3013C86.1769 37.3013 85.3805 36.513 85.3805 35.5411V26.7356V26.7362Z" fill="#F6F6F6"/>
<path d="M43.4419 46.8283C44.5615 47.9131 44.5864 49.6964 43.4973 50.8115C42.4088 51.9266 40.6182 51.9514 39.4986 50.8666C39.3517 50.7253 39.2073 50.5809 39.0661 50.4358C35.5951 46.863 33.8594 42.2967 33.8594 37.7327C33.8594 33.1688 35.5951 28.6024 39.0661 25.0296C39.2073 24.8846 39.3517 24.7402 39.4986 24.5988C43.239 20.9926 48.1245 19.1895 52.9983 19.1895C57.8726 19.1895 62.7575 20.9926 66.4979 24.5988C66.6448 24.7402 66.7892 24.8846 66.9305 25.0296C70.4014 28.6024 72.1372 33.1688 72.1372 37.7327C72.1372 42.2967 70.4014 46.863 66.9305 50.4358C66.7892 50.5815 66.6448 50.7253 66.4979 50.8666C65.3783 51.9514 63.5884 51.9266 62.4992 50.8115C61.4107 49.6964 61.435 47.9131 62.5546 46.8283C62.6642 46.7223 62.7718 46.6151 62.8764 46.5079C65.2694 44.0446 66.4656 40.8896 66.4656 37.7327C66.4656 34.5752 65.2688 31.4202 62.8764 28.9576C62.7718 28.8497 62.6642 28.7425 62.5546 28.6371C60.6483 26.7993 58.3027 25.6284 55.8331 25.1245V37.7327C55.8331 39.2929 54.5635 40.5574 52.9976 40.5574C51.4318 40.5574 50.1622 39.2929 50.1622 37.7327V25.1245C47.6926 25.6284 45.3469 26.7993 43.4406 28.6371C43.3311 28.7431 43.2234 28.8504 43.1189 28.9576C40.7259 31.4209 39.5297 34.5759 39.5297 37.7327C39.5297 40.8902 40.7259 44.0452 43.1189 46.5079C43.2234 46.6157 43.3311 46.7223 43.4406 46.8283H43.4419Z" fill="#F6F6F6"/>
</svg>
