<svg width="396" height="206" viewBox="0 0 396 206" fill="none" xmlns="http://www.w3.org/2000/svg">
<line y1="60.29" x2="383.664" y2="60.29" stroke="#91C3FF"/>
<line y1="170.378" x2="383.664" y2="170.378" stroke="#91C3FF"/>
<line y1="163.25" x2="383.664" y2="163.25" stroke="#91C3FF"/>
<line x1="1.85034" y1="52.3701" x2="385.514" y2="52.3701" stroke="#91C3FF"/>
<line x1="12.3364" y1="136.322" x2="396" y2="136.322" stroke="#91C3FF"/>
<line y1="71.3779" x2="383.664" y2="71.3779" stroke="#91C3FF"/>
<line y1="143.45" x2="383.664" y2="143.45" stroke="#91C3FF"/>
<line y1="69.002" x2="383.664" y2="69.002" stroke="#91C3FF"/>
<path d="M232.899 79.2465H257.302C259.371 79.2465 261.049 80.9221 261.049 82.9879V96.4121L287.955 69.5454L261.049 42.6786V56.1028C261.049 58.1687 259.371 59.8442 257.302 59.8442C257.191 59.8442 257.081 59.839 256.972 59.8298L184.396 59.8324C170.322 60.0781 157.613 65.9485 148.425 75.2883C139.265 84.6004 133.616 97.3754 133.616 111.479C133.616 116.289 134.262 120.917 135.471 125.284C136.728 129.821 138.59 134.109 140.966 138.055C142.025 139.823 141.447 142.113 139.677 143.171C139.076 143.53 138.414 143.701 137.76 143.701V143.713H113.356C111.287 143.713 109.609 142.037 109.609 139.971V126.547L82.7039 153.414L109.609 180.281V166.857C109.609 164.791 111.287 163.115 113.356 163.115C113.468 163.115 113.577 163.12 113.687 163.13L186.324 163.126C200.383 162.864 213.078 156.99 222.255 147.65C231.401 138.34 237.043 125.573 237.043 111.482C237.043 106.672 236.397 102.043 235.187 97.6777C233.931 93.1412 232.068 88.8531 229.693 84.9066C228.634 83.1391 229.211 80.8485 230.981 79.7906C231.583 79.4318 232.245 79.261 232.899 79.261V79.2492V79.2465ZM253.554 86.7307H239.103C240.429 89.5995 241.532 92.5919 242.389 95.6867C243.789 100.741 244.537 106.038 244.537 111.479C244.537 127.592 238.07 142.208 227.582 152.88C217.088 163.561 202.553 170.279 186.439 170.578L117.103 170.582V189.313C117.103 190.271 116.737 191.228 116.005 191.958C114.542 193.42 112.169 193.42 110.706 191.958L74.7536 156.058C73.2901 154.597 73.2901 152.227 74.7536 150.766L110.69 114.881C111.369 114.195 112.313 113.77 113.355 113.77C115.424 113.77 117.102 115.445 117.102 117.511V136.226H131.553C130.227 133.357 129.124 130.365 128.267 127.27C126.867 122.216 126.119 116.918 126.119 111.478C126.119 95.3529 132.596 80.7289 143.095 70.054C153.602 59.3724 168.151 52.6584 184.277 52.3772L253.553 52.3745V33.6438C253.553 32.6857 253.919 31.729 254.651 30.9984C256.114 29.537 258.487 29.537 259.95 30.9984L295.902 66.8987C297.366 68.36 297.366 70.7294 295.902 72.1908L259.966 108.075C259.287 108.761 258.343 109.187 257.301 109.187C255.232 109.187 253.554 107.512 253.554 105.446V86.7294V86.7307Z" fill="#C2D3FF"/>
<path d="M165.16 129.73C167.523 132.031 167.575 135.815 165.277 138.181C162.979 140.547 159.2 140.6 156.837 138.298C156.527 137.998 156.223 137.692 155.925 137.384C148.599 129.803 144.936 120.115 144.936 110.431C144.936 100.747 148.599 91.0586 155.925 83.4779C156.223 83.1702 156.527 82.8637 156.837 82.5639C164.731 74.9122 175.042 71.0864 185.328 71.0864C195.615 71.0864 205.925 74.9122 213.819 82.5639C214.129 82.8637 214.433 83.1702 214.731 83.4779C222.057 91.0586 225.72 100.747 225.72 110.431C225.72 120.115 222.057 129.803 214.731 137.384C214.433 137.693 214.129 137.998 213.819 138.298C211.456 140.6 207.678 140.547 205.38 138.181C203.082 135.815 203.133 132.031 205.496 129.73C205.728 129.505 205.955 129.277 206.176 129.05C211.226 123.823 213.75 117.129 213.75 110.431C213.75 103.732 211.225 97.0373 206.176 91.8121C205.955 91.5833 205.728 91.3558 205.496 91.1322C201.473 87.2327 196.523 84.7484 191.311 83.6792V110.431C191.311 113.741 188.631 116.424 185.327 116.424C182.022 116.424 179.343 113.741 179.343 110.431V83.6792C174.131 84.7484 169.18 87.2327 165.157 91.1322C164.926 91.3571 164.699 91.5846 164.478 91.8121C159.428 97.0386 156.903 103.733 156.903 110.431C156.903 117.13 159.428 123.825 164.478 129.05C164.699 129.279 164.926 129.505 165.157 129.73H165.16Z" fill="#C2D3FF"/>
<line x1="230.719" y1="1.14265" x2="316.255" y2="86.6786" stroke="#F6F6F6" stroke-width="0.7"/>
<line x1="224.383" y1="6.68659" x2="313.087" y2="95.3906" stroke="#F6F6F6" stroke-width="0.7"/>
<line x1="311.504" y1="49.601" x2="248.936" y2="112.169" stroke="#F6F6F6" stroke-width="0.7"/>
<line x1="317.84" y1="53.9096" x2="254.48" y2="117.27" stroke="#F6F6F6" stroke-width="0.7"/>
<path d="M163.295 144.216C156.466 139.516 151.292 132.892 148.47 125.243C145.648 117.595 145.315 109.289 147.515 101.451C149.715 93.6121 154.342 86.6177 160.773 81.4155C167.204 76.2131 175.127 73.0547 183.469 72.3693C191.811 71.6839 200.169 73.5049 207.409 77.5846C214.649 81.6643 220.421 87.8051 223.947 95.1742C227.472 102.543 228.579 110.785 227.121 118.785C225.662 126.785 221.707 134.158 215.79 139.904" stroke="#F6F6F6" stroke-width="0.7"/>
<circle cx="138.996" cy="141.178" r="4.006" stroke="#F6F6F6" stroke-width="0.7" stroke-linecap="round" stroke-dasharray="10 10"/>
<path d="M215.074 111.874C215.074 126.758 202.48 138.848 186.912 138.848C171.344 138.848 158.75 126.758 158.75 111.874C158.75 96.9909 171.344 84.9003 186.912 84.9003C202.48 84.9003 215.074 96.9909 215.074 111.874Z" stroke="#F6F6F6" stroke-width="0.7"/>
<path d="M246.754 112.666C246.754 145.053 219.968 171.32 186.912 171.32C153.856 171.32 127.07 145.053 127.07 112.666C127.07 80.2789 153.856 54.0121 186.912 54.0121C219.968 54.0121 246.754 80.2789 246.754 112.666Z" stroke="#F6F6F6" stroke-width="0.7"/>
<line x1="111.23" y1="94.0542" x2="111.23" y2="205.726" stroke="#F6F6F6" stroke-width="0.7"/>
<line x1="254.582" y1="15.646" x2="254.582" y2="127.318" stroke="#F6F6F6" stroke-width="0.7"/>
<line x1="192.806" y1="11.686" x2="192.806" y2="160.582" stroke="#F6F6F6" stroke-width="0.7"/>
<line x1="119.15" y1="94.0542" x2="119.15" y2="205.726" stroke="#F6F6F6" stroke-width="0.7"/>
<line x1="262.502" y1="15.646" x2="262.502" y2="127.318" stroke="#F6F6F6" stroke-width="0.7"/>
<line x1="180.926" y1="11.686" x2="180.926" y2="160.582" stroke="#F6F6F6" stroke-width="0.7"/>
</svg>
