<svg width="30" height="29" viewBox="0 0 30 29" fill="none" xmlns="http://www.w3.org/2000/svg">
<rect x="0.5" y="0.5" width="29" height="27.7838" rx="3.5" fill="#001447"/>
<rect x="0.5" y="0.5" width="29" height="27.7838" rx="3.5" stroke="#5489CA"/>
<path d="M15.7776 14.3972L20.8413 9.35066C21.0529 9.13712 21.0529 8.79118 20.8413 8.57763C20.6335 8.36027 20.2903 8.35374 20.0745 8.56305L15.0109 13.6096L10.0123 8.56305C9.90978 8.45377 9.76719 8.39185 9.61802 8.39185C9.46884 8.39185 9.32625 8.45377 9.22377 8.56305C9.0362 8.76936 9.0362 9.086 9.22377 9.29232L14.2224 14.3316L9.15867 19.3708C8.94711 19.5844 8.94711 19.9303 9.15867 20.1439C9.25938 20.2479 9.3979 20.3058 9.54206 20.3043C9.689 20.3163 9.83468 20.2691 9.94716 20.173L15.0109 15.1265L20.0745 20.2314C20.1753 20.3354 20.3138 20.3933 20.4579 20.3918C20.6019 20.3925 20.7401 20.3347 20.8413 20.2314C21.0529 20.0178 21.0529 19.6719 20.8413 19.4584L15.7776 14.3972Z" fill="#5489CA"/>
</svg>
