<svg width="320" height="626" viewBox="0 0 320 626" fill="none" xmlns="http://www.w3.org/2000/svg">
<g clip-path="url(#clip0_163_6177)">
<rect width="320" height="626" fill="#001447"/>
<rect width="320" height="626" fill="#011855"/>
<path d="M-6.00001 -116C-63.4392 -116 -110 -69.4393 -110 -12C-110 45.4392 -63.4392 92 -6.00001 92C51.4392 92 98 45.4392 98 -12C98 -69.4393 51.4392 -116 -6.00001 -116ZM-6.00001 50.8011C-40.6831 50.8011 -68.8011 22.6831 -68.8011 -12C-68.8011 -46.6831 -40.6831 -74.8011 -6.00001 -74.8011C28.6831 -74.8011 56.8011 -46.6831 56.8011 -12C56.8011 22.6831 28.6831 50.8011 -6.00001 50.8011Z" fill="url(#paint0_radial_163_6177)"/>
<g filter="url(#filter0_d_163_6177)">
<rect width="320" height="71" transform="translate(0 -71)" fill="#011855"/>
</g>
<path d="M294.48 91.7774L252.695 46.5952C252.624 46.6602 252.547 46.7174 252.477 46.7824C252.406 46.8474 252.343 46.9202 252.273 46.9852L294.059 92.1674C294.129 92.1024 294.206 92.0452 294.277 91.9802C294.347 91.9152 294.41 91.8424 294.48 91.7774Z" fill="#FF9149"/>
<path d="M245.666 56.0002C245.576 56.1848 245.486 56.3695 245.396 56.5616L283.982 98.2845C284.173 98.2167 284.364 98.1339 284.563 98.0588L245.666 56.0002Z" fill="#FF9149"/>
<path d="M250.658 48.6382C250.524 48.7835 250.391 48.9214 250.265 49.067L291.834 94.0149C291.989 93.9005 292.137 93.7783 292.292 93.6564L250.658 48.6382Z" fill="#FF9149"/>
<path d="M248.794 50.8762C248.675 51.0296 248.557 51.183 248.437 51.344L289.414 95.6516C289.583 95.5528 289.746 95.4387 289.908 95.3322L248.787 50.8684L248.794 50.8762Z" fill="#FF9149"/>
<path d="M244.438 58.9178C244.363 59.1181 244.287 59.3258 244.219 59.5264L280.927 99.219C281.14 99.1671 281.346 99.1074 281.551 99.0476L244.438 58.9178Z" fill="#FF9149"/>
<path d="M247.126 53.325C247.021 53.494 246.917 53.663 246.812 53.8396L286.806 97.0852C286.983 96.9942 287.16 96.9033 287.344 96.8126L247.126 53.325Z" fill="#FF9149"/>
<path d="M304.158 69.0781C304.155 68.7844 304.144 68.4905 304.132 68.1965L276.971 38.8273C276.679 38.7933 276.387 38.7593 276.094 38.7328L304.165 69.0859L304.158 69.0781Z" fill="#FF9149"/>
<path d="M273.921 100.15C274.177 100.145 274.434 100.132 274.682 100.127L242.834 65.6895C242.802 65.9442 242.777 66.1916 242.752 66.4465L273.921 100.15Z" fill="#FF9149"/>
<path d="M281.774 39.7675C281.432 39.6713 281.081 39.5824 280.738 39.5013L303.747 64.3804C303.693 64.032 303.632 63.6759 303.562 63.3269L281.774 39.7675Z" fill="#FF9149"/>
<path d="M243.47 62.124C243.416 62.3477 243.369 62.5793 243.315 62.8105L277.583 99.8637C277.817 99.8352 278.045 99.7989 278.279 99.7629L243.47 62.124Z" fill="#FF9149"/>
<path d="M288.086 42.3474C287.6 42.08 287.098 41.8271 286.603 41.5895L302.123 58.3708C301.925 57.8512 301.711 57.3386 301.483 56.8329L288.086 42.3474Z" fill="#FF9149"/>
<path d="M272.84 38.6132C272.584 38.6183 272.327 38.6308 272.079 38.6362L303.927 73.0734C303.959 72.8187 303.984 72.5638 304.009 72.3164L272.84 38.6132Z" fill="#FF9149"/>
<path d="M269.171 38.8989C268.936 38.9274 268.709 38.9637 268.474 38.9997L303.283 76.6386C303.337 76.4149 303.384 76.1833 303.438 75.9521L269.171 38.8989Z" fill="#FF9149"/>
<path d="M243.014 74.3825C243.068 74.7308 243.129 75.087 243.199 75.4359L264.987 98.9954C265.329 99.0915 265.672 99.1802 266.023 99.2616L243.014 74.3825Z" fill="#FF9149"/>
<path d="M254.927 44.748C254.772 44.8623 254.624 44.9845 254.469 45.1064L296.103 90.1246C296.237 89.9793 296.37 89.8415 296.496 89.6959L254.927 44.748Z" fill="#FF9149"/>
<path d="M242.61 69.6926C242.614 69.9863 242.625 70.2802 242.636 70.5742L269.797 99.9434C270.089 99.9774 270.382 100.011 270.674 100.038L242.603 69.6847L242.61 69.6926Z" fill="#FF9149"/>
<path d="M258.675 96.4155C259.161 96.6829 259.663 96.9358 260.158 97.1734L244.638 80.3921C244.836 80.9117 245.05 81.4243 245.278 81.93L258.675 96.4155Z" fill="#FF9149"/>
<path d="M257.339 43.111C257.17 43.2098 257.007 43.3239 256.845 43.4305L297.966 87.8942C298.085 87.7408 298.204 87.5874 298.323 87.4265L257.347 43.1189L257.339 43.111Z" fill="#FF9149"/>
<path d="M259.954 41.6852C259.778 41.7687 259.601 41.8671 259.417 41.9577L299.635 85.4454C299.74 85.2764 299.844 85.1074 299.949 84.9308L259.954 41.6852Z" fill="#FF9149"/>
<path d="M265.834 39.5439C265.621 39.5958 265.415 39.6555 265.21 39.7152L302.323 79.8451C302.398 79.6448 302.474 79.437 302.542 79.2364L265.834 39.5439Z" fill="#FF9149"/>
<path d="M262.778 40.4858C262.588 40.5536 262.396 40.6365 262.198 40.7115L301.094 82.7702C301.184 82.5855 301.274 82.4009 301.365 82.2087L262.778 40.4858Z" fill="#FF9149"/>
<path d="M225 20.8212C225 17.6068 227.607 15 230.821 15C234.036 15 236.642 17.6068 236.642 20.8212C236.642 24.0356 234.036 26.6424 230.821 26.6424C227.607 26.6424 225 24.0356 225 20.8212Z" stroke="#FF9149" stroke-width="3.92" stroke-miterlimit="10"/>
<path d="M16 604.5C16 611.402 10.4025 617 3.50013 617C-3.40223 617 -9 611.402 -9 604.5C-9 597.598 -3.40223 592 3.50013 592C10.4025 592 16 597.598 16 604.5Z" stroke="#FF9149" stroke-width="3.92" stroke-miterlimit="10"/>
</g>
<defs>
<filter id="filter0_d_163_6177" x="-30" y="-97" width="380" height="131" filterUnits="userSpaceOnUse" color-interpolation-filters="sRGB">
<feFlood flood-opacity="0" result="BackgroundImageFix"/>
<feColorMatrix in="SourceAlpha" type="matrix" values="0 0 0 0 0 0 0 0 0 0 0 0 0 0 0 0 0 0 127 0" result="hardAlpha"/>
<feOffset dy="4"/>
<feGaussianBlur stdDeviation="15"/>
<feComposite in2="hardAlpha" operator="out"/>
<feColorMatrix type="matrix" values="0 0 0 0 0.0588235 0 0 0 0 0.227451 0 0 0 0 0.65098 0 0 0 1 0"/>
<feBlend mode="normal" in2="BackgroundImageFix" result="effect1_dropShadow_163_6177"/>
<feBlend mode="normal" in="SourceGraphic" in2="effect1_dropShadow_163_6177" result="shape"/>
</filter>
<radialGradient id="paint0_radial_163_6177" cx="0" cy="0" r="1" gradientUnits="userSpaceOnUse" gradientTransform="translate(8.06604 -98.6409) scale(215.782)">
<stop stop-color="#0A30A3"/>
<stop offset="1" stop-color="#00152A"/>
</radialGradient>
<clipPath id="clip0_163_6177">
<rect width="320" height="626" fill="white"/>
</clipPath>
</defs>
</svg>
