<svg width="428" height="584" viewBox="0 0 428 584" fill="none" xmlns="http://www.w3.org/2000/svg">
<g clip-path="url(#clip0_65_5694)">
<rect width="428" height="584" fill="#001447"/>
<rect width="428" height="584" fill="#011855"/>
<path d="M-7.00001 -182C-83.7698 -182 -146 -119.77 -146 -43C-146 33.7698 -83.7698 96 -7.00001 96C69.7697 96 132 33.7698 132 -43C132 -119.77 69.7697 -182 -7.00001 -182ZM-7.00001 40.9361C-53.3553 40.9361 -90.9361 3.35529 -90.9361 -43C-90.9361 -89.3553 -53.3553 -126.936 -7.00001 -126.936C39.3553 -126.936 76.9361 -89.3553 76.9361 -43C76.9361 3.35529 39.3553 40.9361 -7.00001 40.9361Z" fill="url(#paint0_radial_65_5694)"/>
<path d="M376.481 94.7774L334.696 49.5952C334.625 49.6602 334.548 49.7174 334.478 49.7824C334.407 49.8474 334.344 49.9202 334.274 49.9852L376.06 95.1674C376.13 95.1024 376.207 95.0452 376.278 94.9802C376.348 94.9152 376.411 94.8424 376.481 94.7774Z" fill="#FF9149"/>
<path d="M327.667 59.0002C327.577 59.1848 327.487 59.3695 327.397 59.5616L365.983 101.284C366.174 101.217 366.365 101.134 366.564 101.059L327.667 59.0002Z" fill="#FF9149"/>
<path d="M332.659 51.6382C332.525 51.7835 332.392 51.9214 332.266 52.067L373.835 97.0149C373.99 96.9005 374.138 96.7783 374.293 96.6564L332.659 51.6382Z" fill="#FF9149"/>
<path d="M330.795 53.8762C330.676 54.0296 330.557 54.183 330.438 54.344L371.415 98.6516C371.584 98.5528 371.747 98.4387 371.909 98.3322L330.788 53.8684L330.795 53.8762Z" fill="#FF9149"/>
<path d="M326.439 61.9178C326.364 62.1181 326.288 62.3258 326.22 62.5264L362.928 102.219C363.141 102.167 363.347 102.107 363.552 102.048L326.439 61.9178Z" fill="#FF9149"/>
<path d="M329.127 56.325C329.022 56.494 328.918 56.663 328.813 56.8396L368.807 100.085C368.984 99.9942 369.161 99.9033 369.345 99.8126L329.127 56.325Z" fill="#FF9149"/>
<path d="M386.159 72.0781C386.156 71.7844 386.145 71.4905 386.133 71.1965L358.972 41.8273C358.68 41.7933 358.388 41.7593 358.095 41.7328L386.166 72.0859L386.159 72.0781Z" fill="#FF9149"/>
<path d="M355.922 103.15C356.178 103.145 356.435 103.132 356.683 103.127L324.835 68.6895C324.803 68.9442 324.778 69.1916 324.753 69.4465L355.922 103.15Z" fill="#FF9149"/>
<path d="M363.775 42.7675C363.433 42.6713 363.082 42.5824 362.739 42.5013L385.748 67.3804C385.694 67.032 385.633 66.6759 385.563 66.3269L363.775 42.7675Z" fill="#FF9149"/>
<path d="M325.471 65.124C325.417 65.3477 325.37 65.5793 325.316 65.8105L359.584 102.864C359.818 102.835 360.046 102.799 360.28 102.763L325.471 65.124Z" fill="#FF9149"/>
<path d="M370.087 45.3474C369.601 45.08 369.099 44.8271 368.604 44.5895L384.124 61.3708C383.926 60.8512 383.712 60.3386 383.484 59.8329L370.087 45.3474Z" fill="#FF9149"/>
<path d="M354.841 41.6132C354.585 41.6183 354.328 41.6308 354.08 41.6362L385.928 76.0734C385.96 75.8187 385.985 75.5638 386.01 75.3164L354.841 41.6132Z" fill="#FF9149"/>
<path d="M351.172 41.8989C350.937 41.9274 350.71 41.9637 350.475 41.9997L385.284 79.6386C385.338 79.4149 385.385 79.1833 385.439 78.9521L351.172 41.8989Z" fill="#FF9149"/>
<path d="M325.015 77.3825C325.069 77.7308 325.13 78.087 325.2 78.4359L346.988 101.995C347.33 102.092 347.673 102.18 348.024 102.262L325.015 77.3825Z" fill="#FF9149"/>
<path d="M336.928 47.748C336.773 47.8623 336.625 47.9845 336.47 48.1064L378.104 93.1246C378.238 92.9793 378.371 92.8415 378.497 92.6959L336.928 47.748Z" fill="#FF9149"/>
<path d="M324.611 72.6926C324.615 72.9863 324.626 73.2802 324.637 73.5742L351.798 102.943C352.09 102.977 352.382 103.011 352.675 103.038L324.604 72.6847L324.611 72.6926Z" fill="#FF9149"/>
<path d="M340.676 99.4155C341.162 99.6829 341.664 99.9358 342.159 100.173L326.639 83.3921C326.837 83.9117 327.051 84.4243 327.279 84.93L340.676 99.4155Z" fill="#FF9149"/>
<path d="M339.34 46.111C339.171 46.2098 339.008 46.3239 338.846 46.4305L379.967 90.8942C380.086 90.7408 380.205 90.5874 380.324 90.4265L339.348 46.1189L339.34 46.111Z" fill="#FF9149"/>
<path d="M341.955 44.6852C341.779 44.7687 341.602 44.8671 341.418 44.9577L381.636 88.4454C381.741 88.2764 381.845 88.1074 381.95 87.9308L341.955 44.6852Z" fill="#FF9149"/>
<path d="M347.834 42.5439C347.622 42.5958 347.416 42.6555 347.211 42.7152L384.324 82.8451C384.399 82.6448 384.475 82.437 384.543 82.2364L347.834 42.5439Z" fill="#FF9149"/>
<path d="M344.779 43.4858C344.589 43.5536 344.397 43.6365 344.199 43.7115L383.095 85.7702C383.185 85.5855 383.275 85.4009 383.366 85.2087L344.779 43.4858Z" fill="#FF9149"/>
<path d="M18 556.5C18 563.402 12.4025 569 5.50013 569C-1.40223 569 -7 563.402 -7 556.5C-7 549.598 -1.40223 544 5.50013 544C12.4025 544 18 549.598 18 556.5Z" stroke="#FF9149" stroke-width="3.92" stroke-miterlimit="10"/>
<path d="M307 23.8212C307 20.6068 309.607 18 312.821 18C316.036 18 318.642 20.6068 318.642 23.8212C318.642 27.0356 316.036 29.6424 312.821 29.6424C309.607 29.6424 307 27.0356 307 23.8212Z" stroke="#FF9149" stroke-width="3.92" stroke-miterlimit="10"/>
<g filter="url(#filter0_d_65_5694)">
<mask id="path-6-inside-1_65_5694" fill="white">
<path d="M0 -71H428V0H0V-71Z"/>
</mask>
<path d="M0 -71H428V0H0V-71Z" fill="#011855" shape-rendering="crispEdges"/>
<path d="M428 -2H0V2H428V-2Z" fill="#0C36A5" mask="url(#path-6-inside-1_65_5694)"/>
</g>
</g>
<defs>
<filter id="filter0_d_65_5694" x="-30" y="-101" width="488" height="131" filterUnits="userSpaceOnUse" color-interpolation-filters="sRGB">
<feFlood flood-opacity="0" result="BackgroundImageFix"/>
<feColorMatrix in="SourceAlpha" type="matrix" values="0 0 0 0 0 0 0 0 0 0 0 0 0 0 0 0 0 0 127 0" result="hardAlpha"/>
<feOffset/>
<feGaussianBlur stdDeviation="15"/>
<feComposite in2="hardAlpha" operator="out"/>
<feColorMatrix type="matrix" values="0 0 0 0 0.0588235 0 0 0 0 0.227451 0 0 0 0 0.65098 0 0 0 1 0"/>
<feBlend mode="normal" in2="BackgroundImageFix" result="effect1_dropShadow_65_5694"/>
<feBlend mode="normal" in="SourceGraphic" in2="effect1_dropShadow_65_5694" result="shape"/>
</filter>
<radialGradient id="paint0_radial_65_5694" cx="0" cy="0" r="1" gradientUnits="userSpaceOnUse" gradientTransform="translate(11.7998 -158.799) scale(288.401)">
<stop stop-color="#0A30A3"/>
<stop offset="1" stop-color="#00152A"/>
</radialGradient>
<clipPath id="clip0_65_5694">
<rect width="428" height="584" fill="white"/>
</clipPath>
</defs>
</svg>
