<svg width="320" height="1944" viewBox="0 0 320 1944" fill="none" xmlns="http://www.w3.org/2000/svg">
<g clip-path="url(#clip0_130_4709)">
<rect width="320" height="1944" fill="#001447"/>
<rect width="320" height="236" fill="#011855"/>
<path d="M-6.00001 -118C-63.4392 -118 -110 -71.4393 -110 -14C-110 43.4392 -63.4392 90 -6.00001 90C51.4392 90 98 43.4392 98 -14C98 -71.4393 51.4392 -118 -6.00001 -118ZM-6.00001 48.8011C-40.6831 48.8011 -68.8011 20.6831 -68.8011 -14C-68.8011 -48.6831 -40.6831 -76.8011 -6.00001 -76.8011C28.6831 -76.8011 56.8011 -48.6831 56.8011 -14C56.8011 20.6831 28.6831 48.8011 -6.00001 48.8011Z" fill="url(#paint0_radial_130_4709)"/>
<g filter="url(#filter0_d_130_4709)">
<rect width="320" height="71" transform="translate(0 -69)" fill="#011855"/>
</g>
<path d="M225 22.8212C225 19.6068 227.607 17 230.821 17C234.036 17 236.642 19.6068 236.642 22.8212C236.642 26.0356 234.036 28.6424 230.821 28.6424C227.607 28.6424 225 26.0356 225 22.8212Z" stroke="#FF9149" stroke-width="3.92" stroke-miterlimit="10"/>
<path d="M294.404 95.7901L252.619 50.6079C252.548 50.6729 252.471 50.7301 252.401 50.7951C252.33 50.8601 252.267 50.9329 252.197 50.9979L293.983 96.1801C294.053 96.1151 294.13 96.0579 294.201 95.9929C294.271 95.9279 294.334 95.8551 294.404 95.7901Z" fill="#FF9149"/>
<path d="M245.59 60.0128C245.5 60.1975 245.41 60.3822 245.32 60.5743L283.906 102.297C284.097 102.229 284.288 102.147 284.487 102.072L245.59 60.0128Z" fill="#FF9149"/>
<path d="M250.582 52.6509C250.448 52.7962 250.315 52.9341 250.189 53.0797L291.758 98.0276C291.913 97.9132 292.06 97.791 292.216 97.6691L250.582 52.6509Z" fill="#FF9149"/>
<path d="M248.718 54.8889C248.599 55.0423 248.48 55.1957 248.361 55.3567L289.338 99.6643C289.507 99.5655 289.67 99.4514 289.832 99.3449L248.711 54.8811L248.718 54.8889Z" fill="#FF9149"/>
<path d="M244.362 62.9305C244.287 63.1307 244.211 63.3385 244.143 63.5391L280.851 103.232C281.064 103.18 281.27 103.12 281.475 103.06L244.362 62.9305Z" fill="#FF9149"/>
<path d="M247.049 57.3377C246.945 57.5067 246.84 57.6757 246.736 57.8523L286.73 101.098C286.907 101.007 287.084 100.916 287.268 100.825L247.049 57.3377Z" fill="#FF9149"/>
<path d="M304.082 73.0908C304.078 72.7971 304.067 72.5032 304.056 72.2092L276.895 42.8399C276.603 42.806 276.311 42.772 276.018 42.7455L304.089 73.0986L304.082 73.0908Z" fill="#FF9149"/>
<path d="M273.845 104.162C274.101 104.157 274.358 104.145 274.606 104.139L242.758 69.7022C242.725 69.9569 242.701 70.2043 242.676 70.4592L273.845 104.162Z" fill="#FF9149"/>
<path d="M281.698 43.7802C281.355 43.684 281.005 43.5951 280.662 43.5139L303.671 68.3931C303.617 68.0447 303.555 67.6886 303.486 67.3396L281.698 43.7802Z" fill="#FF9149"/>
<path d="M243.394 66.1367C243.34 66.3604 243.293 66.592 243.239 66.8232L277.507 103.876C277.741 103.848 277.968 103.812 278.203 103.776L243.394 66.1367Z" fill="#FF9149"/>
<path d="M288.01 46.3601C287.524 46.0927 287.022 45.8398 286.527 45.6022L302.047 62.3834C301.849 61.8639 301.635 61.3513 301.407 60.8456L288.01 46.3601Z" fill="#FF9149"/>
<path d="M272.764 42.6259C272.507 42.631 272.251 42.6435 272.002 42.6489L303.851 77.0861C303.883 76.8314 303.908 76.5765 303.933 76.3291L272.764 42.6259Z" fill="#FF9149"/>
<path d="M269.094 42.9116C268.86 42.9401 268.633 42.9764 268.398 43.0124L303.207 80.6513C303.261 80.4276 303.308 80.196 303.362 79.9648L269.094 42.9116Z" fill="#FF9149"/>
<path d="M242.938 78.3952C242.992 78.7435 243.053 79.0997 243.122 79.4486L264.911 103.008C265.253 103.104 265.596 103.193 265.946 103.274L242.938 78.3952Z" fill="#FF9149"/>
<path d="M254.851 48.7607C254.696 48.875 254.548 48.9972 254.393 49.1191L296.027 94.1373C296.16 93.992 296.294 93.8542 296.42 93.7086L254.851 48.7607Z" fill="#FF9149"/>
<path d="M242.534 73.7053C242.537 73.9989 242.548 74.2929 242.56 74.5869L269.721 103.956C270.013 103.99 270.305 104.024 270.598 104.051L242.527 73.6974L242.534 73.7053Z" fill="#FF9149"/>
<path d="M258.599 100.428C259.085 100.696 259.587 100.948 260.082 101.186L244.562 84.4048C244.76 84.9244 244.973 85.437 245.202 85.9427L258.599 100.428Z" fill="#FF9149"/>
<path d="M257.263 47.1237C257.094 47.2225 256.931 47.3366 256.769 47.4432L297.89 91.9069C298.009 91.7535 298.128 91.6001 298.247 91.4392L257.27 47.1316L257.263 47.1237Z" fill="#FF9149"/>
<path d="M259.878 45.6979C259.702 45.7814 259.525 45.8798 259.341 45.9704L299.559 89.4581C299.663 89.2891 299.768 89.1201 299.873 88.9435L259.878 45.6979Z" fill="#FF9149"/>
<path d="M265.757 43.5566C265.545 43.6085 265.339 43.6682 265.133 43.7279L302.246 83.8578C302.322 83.6575 302.398 83.4497 302.466 83.2491L265.757 43.5566Z" fill="#FF9149"/>
<path d="M262.702 44.4985C262.511 44.5663 262.32 44.6492 262.121 44.7242L301.018 86.7829C301.108 86.5982 301.198 86.4136 301.289 86.2214L262.702 44.4985Z" fill="#FF9149"/>
<path d="M0 236H320V1944H0V236Z" fill="url(#paint1_linear_130_4709)" fill-opacity="0.92"/>
<g clip-path="url(#clip1_130_4709)" filter="url(#filter1_d_130_4709)">
<rect width="320" height="1343" transform="translate(0 1944)" fill="#001447"/>
<path d="M360.201 2017.2C382.145 1995.26 382.145 1959.68 360.201 1937.73C338.256 1915.79 302.678 1915.79 280.734 1937.73C258.789 1959.68 258.789 1995.26 280.734 2017.2C302.678 2039.14 338.256 2039.14 360.201 2017.2Z" fill="url(#paint2_radial_130_4709)" fill-opacity="0.3"/>
</g>
</g>
<defs>
<filter id="filter0_d_130_4709" x="-30" y="-95" width="380" height="131" filterUnits="userSpaceOnUse" color-interpolation-filters="sRGB">
<feFlood flood-opacity="0" result="BackgroundImageFix"/>
<feColorMatrix in="SourceAlpha" type="matrix" values="0 0 0 0 0 0 0 0 0 0 0 0 0 0 0 0 0 0 127 0" result="hardAlpha"/>
<feOffset dy="4"/>
<feGaussianBlur stdDeviation="15"/>
<feComposite in2="hardAlpha" operator="out"/>
<feColorMatrix type="matrix" values="0 0 0 0 0.0588235 0 0 0 0 0.227451 0 0 0 0 0.65098 0 0 0 1 0"/>
<feBlend mode="normal" in2="BackgroundImageFix" result="effect1_dropShadow_130_4709"/>
<feBlend mode="normal" in="SourceGraphic" in2="effect1_dropShadow_130_4709" result="shape"/>
</filter>
<filter id="filter1_d_130_4709" x="-30" y="1918" width="380" height="1403" filterUnits="userSpaceOnUse" color-interpolation-filters="sRGB">
<feFlood flood-opacity="0" result="BackgroundImageFix"/>
<feColorMatrix in="SourceAlpha" type="matrix" values="0 0 0 0 0 0 0 0 0 0 0 0 0 0 0 0 0 0 127 0" result="hardAlpha"/>
<feOffset dy="4"/>
<feGaussianBlur stdDeviation="15"/>
<feComposite in2="hardAlpha" operator="out"/>
<feColorMatrix type="matrix" values="0 0 0 0 0.0862745 0 0 0 0 0.498039 0 0 0 0 0.988235 0 0 0 1 0"/>
<feBlend mode="normal" in2="BackgroundImageFix" result="effect1_dropShadow_130_4709"/>
<feBlend mode="normal" in="SourceGraphic" in2="effect1_dropShadow_130_4709" result="shape"/>
</filter>
<radialGradient id="paint0_radial_130_4709" cx="0" cy="0" r="1" gradientUnits="userSpaceOnUse" gradientTransform="translate(8.06604 -100.641) scale(215.782)">
<stop stop-color="#0A30A3"/>
<stop offset="1" stop-color="#00152A"/>
</radialGradient>
<linearGradient id="paint1_linear_130_4709" x1="2.80088" y1="253.127" x2="515.206" y2="314.511" gradientUnits="userSpaceOnUse">
<stop stop-color="#07288A"/>
<stop offset="0.480208" stop-color="#001447"/>
</linearGradient>
<radialGradient id="paint2_radial_130_4709" cx="0" cy="0" r="1" gradientUnits="userSpaceOnUse" gradientTransform="translate(191.456 2071.1) rotate(180) scale(386.551)">
<stop stop-color="#5BC7CE"/>
<stop offset="0.11" stop-color="#4198C0"/>
<stop offset="0.23" stop-color="#296BB3"/>
<stop offset="0.34" stop-color="#184AAA"/>
<stop offset="0.43" stop-color="#0D37A5"/>
<stop offset="0.49" stop-color="#0A30A3"/>
<stop offset="1" stop-color="#00152A"/>
</radialGradient>
<clipPath id="clip0_130_4709">
<rect width="320" height="1944" fill="white"/>
</clipPath>
<clipPath id="clip1_130_4709">
<rect width="320" height="1343" fill="white" transform="translate(0 1944)"/>
</clipPath>
</defs>
</svg>
