<svg width="320" height="1080" viewBox="0 0 320 1080" fill="none" xmlns="http://www.w3.org/2000/svg">
<g clip-path="url(#clip0_94_3110)">
<rect width="320" height="1080" fill="#001447"/>
<rect y="8" width="320" height="1072" fill="#011855"/>
<path d="M-6.00001 -112C-63.4392 -112 -110 -65.4393 -110 -8.00001C-110 49.4392 -63.4392 96 -6.00001 96C51.4392 96 98 49.4392 98 -8.00001C98 -65.4393 51.4392 -112 -6.00001 -112ZM-6.00001 54.8011C-40.6831 54.8011 -68.8011 26.6831 -68.8011 -8.00001C-68.8011 -42.6831 -40.6831 -70.8011 -6.00001 -70.8011C28.6831 -70.8011 56.8011 -42.6831 56.8011 -8.00001C56.8011 26.6831 28.6831 54.8011 -6.00001 54.8011Z" fill="url(#paint0_radial_94_3110)"/>
<g filter="url(#filter0_d_94_3110)">
<rect width="320" height="71" transform="translate(0 -63)" fill="#011855"/>
<path d="M70.1875 -38.3656H78.4916C79.1956 -38.3656 79.7666 -37.8008 79.7666 -37.1044V-32.579L88.9221 -41.636L79.7666 -50.693V-46.1676C79.7666 -45.4712 79.1956 -44.9063 78.4916 -44.9063C78.4536 -44.9063 78.4164 -44.9081 78.3792 -44.9112L53.6827 -44.9103C48.8936 -44.8275 44.5689 -42.8485 41.4426 -39.7C38.3257 -36.5608 36.4032 -32.2542 36.4032 -27.4998C36.4032 -25.8783 36.6231 -24.318 37.0346 -22.8459C37.4623 -21.3166 38.096 -19.871 38.9043 -18.5407C39.2648 -17.9448 39.0682 -17.1726 38.4659 -16.816C38.2612 -16.6951 38.036 -16.6375 37.8134 -16.6375V-16.6335H29.5093C28.8053 -16.6335 28.2343 -17.1983 28.2343 -17.8947V-22.4202L19.0788 -13.3631L28.2343 -4.30611V-8.83152C28.2343 -9.52794 28.8053 -10.0928 29.5093 -10.0928C29.5473 -10.0928 29.5845 -10.091 29.6217 -10.0879L54.3388 -10.0892C59.123 -10.1774 63.4427 -12.1577 66.5655 -15.3062C69.6779 -18.4445 71.5977 -22.7484 71.5977 -27.4989C71.5977 -29.1203 71.3778 -30.6806 70.9663 -32.1523C70.5386 -33.6816 69.9049 -35.1272 69.0966 -36.4576C68.7361 -37.0534 68.9327 -37.8256 69.535 -38.1822C69.7397 -38.3032 69.9649 -38.3608 70.1875 -38.3608V-38.3647V-38.3656ZM77.2162 -35.8427H72.2986C72.75 -34.8756 73.1253 -33.8668 73.4168 -32.8235C73.8933 -31.1197 74.1477 -29.3339 74.1477 -27.4998C74.1477 -22.068 71.947 -17.1407 68.3783 -13.543C64.8073 -9.94261 59.8614 -7.67791 54.3782 -7.5769L30.7842 -7.57557V-1.26126C30.7842 -0.938305 30.6597 -0.61579 30.4107 -0.369473C29.9128 0.123161 29.1053 0.123161 28.6073 -0.369473L16.3735 -12.4718C15.8755 -12.9644 15.8755 -13.7632 16.3735 -14.2558L28.602 -26.3528C28.833 -26.5841 29.1541 -26.7276 29.5088 -26.7276C30.2128 -26.7276 30.7838 -26.1628 30.7838 -25.4663V-19.1573H35.7014C35.25 -20.1244 34.8747 -21.1332 34.5832 -22.1765C34.1067 -23.8803 33.8523 -25.6661 33.8523 -27.5002C33.8523 -32.936 36.0561 -37.8659 39.6289 -41.4645C43.2044 -45.0654 48.1551 -47.3287 53.6424 -47.4235L77.2158 -47.4244V-53.7387C77.2158 -54.0617 77.3403 -54.3842 77.5893 -54.6305C78.0872 -55.1232 78.8947 -55.1232 79.3927 -54.6305L91.6265 -42.5282C92.1245 -42.0356 92.1245 -41.2368 91.6265 -40.7442L79.398 -28.6472C79.167 -28.4159 78.8459 -28.2724 78.4912 -28.2724C77.7872 -28.2724 77.2162 -28.8372 77.2162 -29.5337V-35.8431V-35.8427Z" fill="#F6F6F6"/>
</g>
<path d="M225 28.8212C225 25.6068 227.607 23 230.821 23C234.036 23 236.642 25.6068 236.642 28.8212C236.642 32.0356 234.036 34.6424 230.821 34.6424C227.607 34.6424 225 32.0356 225 28.8212Z" stroke="#FF9149" stroke-width="3.92" stroke-miterlimit="10"/>
<g clip-path="url(#clip1_94_3110)" filter="url(#filter1_d_94_3110)">
<rect width="320" height="1343" transform="translate(0 1080)" fill="#001447"/>
<path d="M360.201 1153.2C382.145 1131.26 382.145 1095.68 360.201 1073.73C338.256 1051.79 302.678 1051.79 280.734 1073.73C258.789 1095.68 258.789 1131.26 280.734 1153.2C302.678 1175.14 338.256 1175.14 360.201 1153.2Z" fill="url(#paint1_radial_94_3110)" fill-opacity="0.3"/>
</g>
<path d="M294.404 101.79L252.619 56.6079C252.548 56.6729 252.471 56.7301 252.401 56.7951C252.33 56.8601 252.267 56.9329 252.197 56.9979L293.983 102.18C294.053 102.115 294.13 102.058 294.201 101.993C294.271 101.928 294.334 101.855 294.404 101.79Z" fill="#FF9149"/>
<path d="M245.59 66.0128C245.5 66.1975 245.41 66.3822 245.32 66.5743L283.906 108.297C284.097 108.229 284.288 108.147 284.487 108.072L245.59 66.0128Z" fill="#FF9149"/>
<path d="M250.582 58.6509C250.448 58.7962 250.315 58.9341 250.189 59.0797L291.758 104.028C291.913 103.913 292.06 103.791 292.216 103.669L250.582 58.6509Z" fill="#FF9149"/>
<path d="M248.718 60.8889C248.599 61.0423 248.48 61.1957 248.361 61.3567L289.338 105.664C289.507 105.566 289.67 105.451 289.832 105.345L248.711 60.8811L248.718 60.8889Z" fill="#FF9149"/>
<path d="M244.362 68.9305C244.287 69.1307 244.211 69.3385 244.143 69.5391L280.851 109.232C281.064 109.18 281.27 109.12 281.475 109.06L244.362 68.9305Z" fill="#FF9149"/>
<path d="M247.049 63.3377C246.945 63.5067 246.84 63.6757 246.736 63.8523L286.73 107.098C286.907 107.007 287.084 106.916 287.268 106.825L247.049 63.3377Z" fill="#FF9149"/>
<path d="M304.082 79.0908C304.078 78.7971 304.067 78.5032 304.056 78.2092L276.895 48.8399C276.603 48.806 276.311 48.772 276.018 48.7455L304.089 79.0986L304.082 79.0908Z" fill="#FF9149"/>
<path d="M273.845 110.162C274.101 110.157 274.358 110.145 274.606 110.139L242.758 75.7022C242.725 75.9569 242.701 76.2043 242.676 76.4592L273.845 110.162Z" fill="#FF9149"/>
<path d="M281.698 49.7802C281.355 49.684 281.005 49.5951 280.662 49.5139L303.671 74.3931C303.617 74.0447 303.555 73.6886 303.486 73.3396L281.698 49.7802Z" fill="#FF9149"/>
<path d="M243.394 72.1367C243.34 72.3604 243.293 72.592 243.239 72.8232L277.507 109.876C277.741 109.848 277.968 109.812 278.203 109.776L243.394 72.1367Z" fill="#FF9149"/>
<path d="M288.01 52.3601C287.524 52.0927 287.022 51.8398 286.527 51.6022L302.047 68.3834C301.849 67.8639 301.635 67.3513 301.407 66.8456L288.01 52.3601Z" fill="#FF9149"/>
<path d="M272.764 48.6259C272.507 48.631 272.251 48.6435 272.002 48.6489L303.851 83.0861C303.883 82.8314 303.908 82.5765 303.933 82.3291L272.764 48.6259Z" fill="#FF9149"/>
<path d="M269.094 48.9116C268.86 48.9401 268.633 48.9764 268.398 49.0124L303.207 86.6513C303.261 86.4276 303.308 86.196 303.362 85.9648L269.094 48.9116Z" fill="#FF9149"/>
<path d="M242.938 84.3952C242.992 84.7435 243.053 85.0997 243.122 85.4486L264.911 109.008C265.253 109.104 265.596 109.193 265.946 109.274L242.938 84.3952Z" fill="#FF9149"/>
<path d="M254.851 54.7607C254.696 54.875 254.548 54.9972 254.393 55.1191L296.027 100.137C296.16 99.992 296.294 99.8542 296.42 99.7086L254.851 54.7607Z" fill="#FF9149"/>
<path d="M242.534 79.7053C242.537 79.9989 242.548 80.2929 242.56 80.5869L269.721 109.956C270.013 109.99 270.305 110.024 270.598 110.051L242.527 79.6974L242.534 79.7053Z" fill="#FF9149"/>
<path d="M258.599 106.428C259.085 106.696 259.587 106.948 260.082 107.186L244.562 90.4048C244.76 90.9244 244.973 91.437 245.202 91.9427L258.599 106.428Z" fill="#FF9149"/>
<path d="M257.263 53.1237C257.094 53.2225 256.931 53.3366 256.769 53.4432L297.89 97.9069C298.009 97.7535 298.128 97.6001 298.247 97.4392L257.27 53.1316L257.263 53.1237Z" fill="#FF9149"/>
<path d="M259.878 51.6979C259.702 51.7814 259.525 51.8798 259.341 51.9704L299.559 95.4581C299.663 95.2891 299.768 95.1201 299.873 94.9435L259.878 51.6979Z" fill="#FF9149"/>
<path d="M265.757 49.5566C265.545 49.6085 265.339 49.6682 265.133 49.7279L302.246 89.8578C302.322 89.6575 302.398 89.4497 302.466 89.2491L265.757 49.5566Z" fill="#FF9149"/>
<path d="M262.702 50.4985C262.511 50.5663 262.32 50.6492 262.121 50.7242L301.018 92.7829C301.108 92.5982 301.198 92.4136 301.289 92.2214L262.702 50.4985Z" fill="#FF9149"/>
<path d="M265.657 274.59C253.143 311.92 273.26 352.323 310.589 364.837C347.919 377.35 388.322 357.234 400.836 319.904C413.349 282.574 393.233 242.171 355.903 229.658C318.574 217.144 278.17 237.261 265.657 274.59ZM374.061 310.929C366.505 333.469 342.105 345.617 319.565 338.061C297.024 330.506 284.876 306.106 292.432 283.566C299.988 261.025 324.387 248.877 346.928 256.433C369.468 263.989 381.617 288.388 374.061 310.929Z" fill="url(#paint2_radial_94_3110)"/>
</g>
<defs>
<filter id="filter0_d_94_3110" x="-30" y="-89" width="380" height="131" filterUnits="userSpaceOnUse" color-interpolation-filters="sRGB">
<feFlood flood-opacity="0" result="BackgroundImageFix"/>
<feColorMatrix in="SourceAlpha" type="matrix" values="0 0 0 0 0 0 0 0 0 0 0 0 0 0 0 0 0 0 127 0" result="hardAlpha"/>
<feOffset dy="4"/>
<feGaussianBlur stdDeviation="15"/>
<feComposite in2="hardAlpha" operator="out"/>
<feColorMatrix type="matrix" values="0 0 0 0 0.0588235 0 0 0 0 0.227451 0 0 0 0 0.65098 0 0 0 1 0"/>
<feBlend mode="normal" in2="BackgroundImageFix" result="effect1_dropShadow_94_3110"/>
<feBlend mode="normal" in="SourceGraphic" in2="effect1_dropShadow_94_3110" result="shape"/>
</filter>
<filter id="filter1_d_94_3110" x="-30" y="1054" width="380" height="1403" filterUnits="userSpaceOnUse" color-interpolation-filters="sRGB">
<feFlood flood-opacity="0" result="BackgroundImageFix"/>
<feColorMatrix in="SourceAlpha" type="matrix" values="0 0 0 0 0 0 0 0 0 0 0 0 0 0 0 0 0 0 127 0" result="hardAlpha"/>
<feOffset dy="4"/>
<feGaussianBlur stdDeviation="15"/>
<feComposite in2="hardAlpha" operator="out"/>
<feColorMatrix type="matrix" values="0 0 0 0 0.0862745 0 0 0 0 0.498039 0 0 0 0 0.988235 0 0 0 1 0"/>
<feBlend mode="normal" in2="BackgroundImageFix" result="effect1_dropShadow_94_3110"/>
<feBlend mode="normal" in="SourceGraphic" in2="effect1_dropShadow_94_3110" result="shape"/>
</filter>
<radialGradient id="paint0_radial_94_3110" cx="0" cy="0" r="1" gradientUnits="userSpaceOnUse" gradientTransform="translate(8.06604 -94.6409) scale(215.782)">
<stop stop-color="#0A30A3"/>
<stop offset="1" stop-color="#00152A"/>
</radialGradient>
<radialGradient id="paint1_radial_94_3110" cx="0" cy="0" r="1" gradientUnits="userSpaceOnUse" gradientTransform="translate(191.456 1207.1) rotate(180) scale(386.551)">
<stop stop-color="#5BC7CE"/>
<stop offset="0.11" stop-color="#4198C0"/>
<stop offset="0.23" stop-color="#296BB3"/>
<stop offset="0.34" stop-color="#184AAA"/>
<stop offset="0.43" stop-color="#0D37A5"/>
<stop offset="0.49" stop-color="#0A30A3"/>
<stop offset="1" stop-color="#00152A"/>
</radialGradient>
<radialGradient id="paint2_radial_94_3110" cx="0" cy="0" r="1" gradientUnits="userSpaceOnUse" gradientTransform="translate(280.003 269.23) rotate(-71.4682) scale(147.906)">
<stop stop-color="#0A30A3"/>
<stop offset="1" stop-color="#00152A"/>
</radialGradient>
<clipPath id="clip0_94_3110">
<rect width="320" height="1080" fill="white"/>
</clipPath>
<clipPath id="clip1_94_3110">
<rect width="320" height="1343" fill="white" transform="translate(0 1080)"/>
</clipPath>
</defs>
</svg>
