<svg width="428" height="1065" viewBox="0 0 428 1065" fill="none" xmlns="http://www.w3.org/2000/svg">
<g clip-path="url(#clip0_49_5526)">
<rect width="428" height="1065" fill="#001447"/>
<rect width="428" height="1065" fill="#011855"/>
<path d="M-7.00001 -182C-83.7698 -182 -146 -119.77 -146 -43C-146 33.7698 -83.7698 96 -7.00001 96C69.7697 96 132 33.7698 132 -43C132 -119.77 69.7697 -182 -7.00001 -182ZM-7.00001 40.9361C-53.3553 40.9361 -90.9361 3.35529 -90.9361 -43C-90.9361 -89.3553 -53.3553 -126.936 -7.00001 -126.936C39.3553 -126.936 76.9361 -89.3553 76.9361 -43C76.9361 3.35529 39.3553 40.9361 -7.00001 40.9361Z" fill="url(#paint0_radial_49_5526)"/>
<path d="M376.482 94.7774L334.697 49.5952C334.626 49.6602 334.549 49.7174 334.479 49.7824C334.408 49.8474 334.345 49.9202 334.275 49.9852L376.061 95.1674C376.131 95.1024 376.208 95.0452 376.279 94.9802C376.349 94.9152 376.412 94.8424 376.482 94.7774Z" fill="#FF9149"/>
<path d="M327.668 59.0002C327.578 59.1848 327.488 59.3695 327.398 59.5616L365.984 101.284C366.175 101.217 366.366 101.134 366.565 101.059L327.668 59.0002Z" fill="#FF9149"/>
<path d="M332.66 51.6382C332.526 51.7835 332.393 51.9214 332.267 52.067L373.836 97.0149C373.991 96.9005 374.139 96.7783 374.294 96.6564L332.66 51.6382Z" fill="#FF9149"/>
<path d="M330.796 53.8762C330.677 54.0296 330.558 54.183 330.439 54.344L371.416 98.6516C371.585 98.5528 371.748 98.4387 371.91 98.3322L330.789 53.8684L330.796 53.8762Z" fill="#FF9149"/>
<path d="M326.44 61.9178C326.365 62.1181 326.289 62.3258 326.221 62.5264L362.929 102.219C363.142 102.167 363.348 102.107 363.553 102.048L326.44 61.9178Z" fill="#FF9149"/>
<path d="M329.127 56.325C329.023 56.494 328.919 56.663 328.814 56.8396L368.808 100.085C368.985 99.9942 369.162 99.9033 369.346 99.8126L329.127 56.325Z" fill="#FF9149"/>
<path d="M386.16 72.0781C386.157 71.7844 386.146 71.4905 386.134 71.1965L358.973 41.8273C358.681 41.7933 358.389 41.7593 358.096 41.7328L386.167 72.0859L386.16 72.0781Z" fill="#FF9149"/>
<path d="M355.923 103.15C356.179 103.145 356.436 103.132 356.684 103.127L324.836 68.6895C324.803 68.9442 324.779 69.1916 324.754 69.4465L355.923 103.15Z" fill="#FF9149"/>
<path d="M363.776 42.7675C363.434 42.6713 363.083 42.5824 362.74 42.5013L385.749 67.3804C385.695 67.032 385.634 66.6759 385.564 66.3269L363.776 42.7675Z" fill="#FF9149"/>
<path d="M325.472 65.124C325.418 65.3477 325.371 65.5793 325.317 65.8105L359.585 102.864C359.819 102.835 360.047 102.799 360.281 102.763L325.472 65.124Z" fill="#FF9149"/>
<path d="M370.088 45.3474C369.602 45.08 369.1 44.8271 368.605 44.5895L384.125 61.3708C383.927 60.8512 383.713 60.3386 383.485 59.8329L370.088 45.3474Z" fill="#FF9149"/>
<path d="M354.842 41.6132C354.586 41.6183 354.329 41.6308 354.081 41.6362L385.929 76.0734C385.961 75.8187 385.986 75.5638 386.011 75.3164L354.842 41.6132Z" fill="#FF9149"/>
<path d="M351.172 41.8989C350.938 41.9274 350.711 41.9637 350.476 41.9997L385.285 79.6386C385.339 79.4149 385.386 79.1833 385.44 78.9521L351.172 41.8989Z" fill="#FF9149"/>
<path d="M325.016 77.3825C325.07 77.7308 325.131 78.087 325.2 78.4359L346.989 101.995C347.331 102.092 347.674 102.18 348.025 102.262L325.016 77.3825Z" fill="#FF9149"/>
<path d="M336.929 47.748C336.774 47.8623 336.626 47.9845 336.471 48.1064L378.105 93.1246C378.239 92.9793 378.372 92.8415 378.498 92.6959L336.929 47.748Z" fill="#FF9149"/>
<path d="M324.612 72.6926C324.615 72.9863 324.627 73.2802 324.638 73.5742L351.799 102.943C352.091 102.977 352.383 103.011 352.676 103.038L324.605 72.6847L324.612 72.6926Z" fill="#FF9149"/>
<path d="M340.677 99.4155C341.163 99.6829 341.665 99.9358 342.16 100.173L326.64 83.3921C326.838 83.9117 327.052 84.4243 327.28 84.93L340.677 99.4155Z" fill="#FF9149"/>
<path d="M339.341 46.111C339.172 46.2098 339.009 46.3239 338.847 46.4305L379.968 90.8942C380.087 90.7408 380.206 90.5874 380.325 90.4265L339.349 46.1189L339.341 46.111Z" fill="#FF9149"/>
<path d="M341.956 44.6852C341.78 44.7687 341.603 44.8671 341.419 44.9577L381.637 88.4454C381.742 88.2764 381.846 88.1074 381.951 87.9308L341.956 44.6852Z" fill="#FF9149"/>
<path d="M347.835 42.5439C347.623 42.5958 347.417 42.6555 347.212 42.7152L384.325 82.8451C384.4 82.6448 384.476 82.437 384.544 82.2364L347.835 42.5439Z" fill="#FF9149"/>
<path d="M344.78 43.4858C344.59 43.5536 344.398 43.6365 344.2 43.7115L383.096 85.7702C383.186 85.5855 383.276 85.4009 383.367 85.2087L344.78 43.4858Z" fill="#FF9149"/>
<path d="M18 556.5C18 563.402 12.4025 569 5.50013 569C-1.40223 569 -7 563.402 -7 556.5C-7 549.598 -1.40223 544 5.50013 544C12.4025 544 18 549.598 18 556.5Z" stroke="#FF9149" stroke-width="3.92" stroke-miterlimit="10"/>
<path d="M307 23.8212C307 20.6068 309.607 18 312.821 18C316.036 18 318.642 20.6068 318.642 23.8212C318.642 27.0356 316.036 29.6424 312.821 29.6424C309.607 29.6424 307 27.0356 307 23.8212Z" stroke="#FF9149" stroke-width="3.92" stroke-miterlimit="10"/>
<path d="M386.311 559.681L355.991 547.066" stroke="#1E6AC6" stroke-opacity="0.6" stroke-width="8.4" stroke-linecap="round"/>
<path d="M347.906 543.703L346.896 543.283" stroke="#179F0C" stroke-opacity="0.6" stroke-width="8.4" stroke-linecap="round"/>
<path d="M329.486 582.277L324.433 580.175" stroke="#179F0C" stroke-opacity="0.6" stroke-width="8.4" stroke-linecap="round"/>
<path d="M322.646 547.421L319.615 546.159" stroke="#179F0C" stroke-opacity="0.6" stroke-width="8.4" stroke-linecap="round"/>
<path d="M328.467 567.627L327.023 567.026" stroke="#179F0C" stroke-opacity="0.6" stroke-width="8.4" stroke-linecap="round"/>
<path d="M362.062 563.819L333.764 552.046" stroke="#1E6AC6" stroke-opacity="0.6" stroke-width="8.4" stroke-linecap="round"/>
<path d="M353.732 578.139L336.551 570.991" stroke="#1E6AC6" stroke-opacity="0.6" stroke-width="8.4" stroke-linecap="round"/>
<path d="M355.762 593.21L338.581 586.062" stroke="#1E6AC6" stroke-opacity="0.6" stroke-width="8.4" stroke-linecap="round"/>
<path d="M359.357 590.317C360.263 592.476 359.258 594.988 357.113 595.927C354.968 596.867 352.496 595.879 351.59 593.72C351.471 593.439 351.357 593.154 351.248 592.87C348.564 585.884 348.841 578.497 351.5 572.106C354.16 565.714 359.203 560.311 366.051 557.29C366.329 557.167 366.611 557.048 366.895 556.934C374.132 554.02 381.89 554.285 388.582 557.069C395.274 559.853 400.93 565.169 403.965 572.356C404.084 572.638 404.198 572.922 404.307 573.206C406.991 580.192 406.714 587.579 404.055 593.971C401.395 600.362 396.352 605.766 389.505 608.787C389.226 608.91 388.944 609.029 388.66 609.143C386.49 610.022 384.047 608.965 383.202 606.781C382.357 604.598 383.429 602.115 385.599 601.235C385.811 601.149 386.021 601.06 386.227 600.97C390.948 598.887 394.428 595.152 396.268 590.731C398.107 586.309 398.302 581.207 396.453 576.392C396.372 576.181 396.287 575.969 396.198 575.759C394.651 572.096 392.113 569.117 389.016 567L381.67 584.658C380.761 586.842 378.281 587.888 376.131 586.994C373.981 586.099 372.975 583.603 373.884 581.418L381.23 563.761C377.546 563.056 373.643 563.356 369.955 564.841C369.743 564.927 369.532 565.015 369.326 565.106C364.606 567.189 361.125 570.924 359.286 575.345C357.446 579.767 357.25 584.868 359.101 589.684C359.181 589.895 359.267 590.106 359.356 590.317L359.357 590.317Z" fill="#1E6AC6" fill-opacity="0.9"/>
<g filter="url(#filter0_d_49_5526)">
<mask id="path-15-inside-1_49_5526" fill="white">
<path d="M0 -71H428V0H0V-71Z"/>
</mask>
<path d="M0 -71H428V0H0V-71Z" fill="#011855" shape-rendering="crispEdges"/>
<path d="M428 -2H0V2H428V-2Z" fill="#0C36A5" mask="url(#path-15-inside-1_49_5526)"/>
</g>
<path d="M327.672 712.076C270.966 746.913 253.239 821.119 288.076 877.825C322.913 934.531 397.119 952.258 453.825 917.421C510.531 882.584 528.258 808.378 493.421 751.672C458.584 694.966 384.378 677.239 327.672 712.076ZM428.838 876.748C394.597 897.783 349.785 887.078 328.749 852.838C307.714 818.597 318.419 773.784 352.66 752.749C386.9 731.714 431.713 742.419 452.748 776.659C473.784 810.9 463.078 855.713 428.838 876.748Z" fill="url(#paint1_radial_49_5526)"/>
<g clip-path="url(#clip1_49_5526)" filter="url(#filter1_d_49_5526)">
<rect width="428" height="1324" transform="translate(0 1065)" fill="#001447"/>
<path d="M518.02 1176.02C563.495 1130.54 563.495 1056.81 518.02 1011.34C472.545 965.865 398.815 965.865 353.34 1011.34C307.865 1056.81 307.865 1130.54 353.34 1176.02C398.815 1221.49 472.545 1221.49 518.02 1176.02Z" fill="url(#paint2_radial_49_5526)" fill-opacity="0.3"/>
</g>
</g>
<defs>
<filter id="filter0_d_49_5526" x="-30" y="-101" width="488" height="131" filterUnits="userSpaceOnUse" color-interpolation-filters="sRGB">
<feFlood flood-opacity="0" result="BackgroundImageFix"/>
<feColorMatrix in="SourceAlpha" type="matrix" values="0 0 0 0 0 0 0 0 0 0 0 0 0 0 0 0 0 0 127 0" result="hardAlpha"/>
<feOffset/>
<feGaussianBlur stdDeviation="15"/>
<feComposite in2="hardAlpha" operator="out"/>
<feColorMatrix type="matrix" values="0 0 0 0 0.0588235 0 0 0 0 0.227451 0 0 0 0 0.65098 0 0 0 1 0"/>
<feBlend mode="normal" in2="BackgroundImageFix" result="effect1_dropShadow_49_5526"/>
<feBlend mode="normal" in="SourceGraphic" in2="effect1_dropShadow_49_5526" result="shape"/>
</filter>
<filter id="filter1_d_49_5526" x="-30" y="1039" width="488" height="1384" filterUnits="userSpaceOnUse" color-interpolation-filters="sRGB">
<feFlood flood-opacity="0" result="BackgroundImageFix"/>
<feColorMatrix in="SourceAlpha" type="matrix" values="0 0 0 0 0 0 0 0 0 0 0 0 0 0 0 0 0 0 127 0" result="hardAlpha"/>
<feOffset dy="4"/>
<feGaussianBlur stdDeviation="15"/>
<feComposite in2="hardAlpha" operator="out"/>
<feColorMatrix type="matrix" values="0 0 0 0 0.0862745 0 0 0 0 0.498039 0 0 0 0 0.988235 0 0 0 1 0"/>
<feBlend mode="normal" in2="BackgroundImageFix" result="effect1_dropShadow_49_5526"/>
<feBlend mode="normal" in="SourceGraphic" in2="effect1_dropShadow_49_5526" result="shape"/>
</filter>
<radialGradient id="paint0_radial_49_5526" cx="0" cy="0" r="1" gradientUnits="userSpaceOnUse" gradientTransform="translate(11.7998 -158.799) scale(288.401)">
<stop stop-color="#0A30A3"/>
<stop offset="1" stop-color="#00152A"/>
</radialGradient>
<radialGradient id="paint1_radial_49_5526" cx="0" cy="0" r="1" gradientUnits="userSpaceOnUse" gradientTransform="translate(352.087 720.682) rotate(-31.5643) scale(250.017)">
<stop stop-color="#0A30A3"/>
<stop offset="1" stop-color="#00152A"/>
</radialGradient>
<radialGradient id="paint2_radial_49_5526" cx="0" cy="0" r="1" gradientUnits="userSpaceOnUse" gradientTransform="translate(168.331 1287.71) rotate(-180) scale(801.052)">
<stop stop-color="#5BC7CE"/>
<stop offset="0.11" stop-color="#4198C0"/>
<stop offset="0.23" stop-color="#296BB3"/>
<stop offset="0.34" stop-color="#184AAA"/>
<stop offset="0.43" stop-color="#0D37A5"/>
<stop offset="0.49" stop-color="#0A30A3"/>
<stop offset="1" stop-color="#00152A"/>
</radialGradient>
<clipPath id="clip0_49_5526">
<rect width="428" height="1065" fill="white"/>
</clipPath>
<clipPath id="clip1_49_5526">
<rect width="428" height="1324" fill="white" transform="translate(0 1065)"/>
</clipPath>
</defs>
</svg>
