<svg width="428" height="1752" viewBox="0 0 428 1752" fill="none" xmlns="http://www.w3.org/2000/svg">
<g clip-path="url(#clip0_67_5939)">
<rect width="428" height="1752" fill="#001447"/>
<path d="M428 0H0V1752H428V0Z" fill="url(#paint0_linear_67_5939)"/>
<path d="M383.311 26.2614L352.991 13.8455" stroke="#1E6AC6" stroke-opacity="0.6" stroke-width="8.4" stroke-linecap="round"/>
<path d="M344.905 10.5345L343.895 10.1207" stroke="#179F0C" stroke-opacity="0.6" stroke-width="8.4" stroke-linecap="round"/>
<path d="M326.485 48.5026L321.432 46.4332" stroke="#179F0C" stroke-opacity="0.6" stroke-width="8.4" stroke-linecap="round"/>
<path d="M319.646 14.1945L316.615 12.9529" stroke="#179F0C" stroke-opacity="0.6" stroke-width="8.4" stroke-linecap="round"/>
<path d="M325.467 34.082L324.023 33.4908" stroke="#179F0C" stroke-opacity="0.6" stroke-width="8.4" stroke-linecap="round"/>
<path d="M359.062 30.335L330.763 18.7468" stroke="#1E6AC6" stroke-opacity="0.6" stroke-width="8.4" stroke-linecap="round"/>
<path d="M350.733 44.4286L333.552 37.3929" stroke="#1E6AC6" stroke-opacity="0.6" stroke-width="8.4" stroke-linecap="round"/>
<path d="M352.762 59.2627L335.581 52.227" stroke="#1E6AC6" stroke-opacity="0.6" stroke-width="8.4" stroke-linecap="round"/>
<path d="M356.343 56.5136C357.238 58.6389 356.225 61.1199 354.079 62.0548C351.934 62.9901 349.468 62.0253 348.573 59.8999C348.455 59.6224 348.342 59.3421 348.234 59.0626C345.581 52.1832 345.888 44.8974 348.569 38.5836C351.25 32.2697 356.308 26.921 363.158 23.9151C363.437 23.7933 363.72 23.6741 364.004 23.5605C371.242 20.6587 378.989 20.8903 385.661 23.6098C392.334 26.3297 397.961 31.5499 400.963 38.626C401.081 38.9034 401.194 39.1838 401.302 39.4633C403.954 46.3427 403.648 53.6285 400.967 59.9423C398.286 66.2561 393.227 71.6048 386.377 74.6107C386.098 74.7334 385.816 74.8518 385.532 74.9653C383.362 75.8412 380.926 74.8082 380.091 72.6578C379.256 70.5077 380.336 68.0542 382.506 67.1784C382.718 67.0928 382.929 67.0046 383.135 66.9146C387.858 64.8421 391.349 61.1449 393.203 56.7776C395.058 52.4095 395.273 47.377 393.445 42.6352C393.365 42.4276 393.281 42.2192 393.193 42.0123C391.663 38.4061 389.14 35.4774 386.055 33.4022L378.648 50.8448C377.732 53.0031 375.251 54.044 373.108 53.1702C370.964 52.2965 369.969 49.8387 370.885 47.6804L378.292 30.2379C374.616 29.5571 370.717 29.868 367.028 31.3468C366.815 31.4323 366.605 31.5206 366.399 31.6106C361.676 33.6831 358.185 37.3803 356.331 41.7476C354.476 46.1157 354.26 51.1479 356.089 55.89C356.169 56.0976 356.253 56.3051 356.341 56.5129L356.343 56.5136Z" fill="#1E6AC6" fill-opacity="0.9"/>
<path d="M327.672 165.432C270.966 199.721 253.239 272.76 288.076 328.574C322.913 384.388 397.119 401.836 453.825 367.547C510.531 333.258 528.258 260.22 493.421 204.406C458.584 148.592 384.378 131.143 327.672 165.432ZM428.838 327.514C394.597 348.218 349.785 337.681 328.749 303.98C307.714 270.278 318.419 226.17 352.66 205.466C386.9 184.761 431.713 195.298 452.748 229C473.784 262.702 463.078 306.809 428.838 327.514Z" fill="url(#paint1_radial_67_5939)"/>
<path d="M20.8596 908.597C18.9976 906.764 15.9792 906.764 14.1172 908.597C12.2552 910.429 12.2552 913.4 14.1172 915.233C15.9792 917.066 18.9976 917.066 20.8596 915.233C22.7216 913.4 22.7216 910.429 20.8596 908.597Z" fill="white" fill-opacity="0.5"/>
<path d="M50.7307 879.215C48.8687 877.383 45.8503 877.383 43.9883 879.215C42.1263 881.048 42.1263 884.019 43.9883 885.852C45.8503 887.684 48.8687 887.684 50.7307 885.852C52.5927 884.019 52.5927 881.048 50.7307 879.215Z" fill="white" fill-opacity="0.5"/>
<path d="M73.8584 856.451C75.7204 858.284 78.7388 858.284 80.6008 856.451C82.4628 854.619 82.4628 851.648 80.6008 849.815C78.7388 847.982 75.7204 847.982 73.8584 849.815C71.9964 851.648 71.9964 854.619 73.8584 856.451Z" fill="white" fill-opacity="0.5"/>
<path style="mix-blend-mode:overlay" d="M569.269 698.555C572.895 702.124 572.895 707.912 569.269 711.481L143.852 1130.21C140.226 1133.78 134.345 1133.78 130.719 1130.21C127.093 1126.64 127.093 1120.85 130.719 1117.28L556.137 698.555C559.763 694.986 565.643 694.986 569.269 698.555Z" fill="url(#paint2_linear_67_5939)"/>
<path d="M674.333 723.553C677.155 726.331 677.155 730.845 674.333 733.643L342.368 1060.39C339.545 1063.16 334.959 1063.16 332.117 1060.39C329.294 1057.61 329.294 1053.09 332.117 1050.3L664.082 723.553C666.904 720.775 671.491 720.775 674.333 723.553Z" fill="url(#paint3_linear_67_5939)" style="mix-blend-mode:overlay"/>
<path style="mix-blend-mode:overlay" d="M-80.7138 1639.5C-82.4287 1637.81 -82.4287 1635.08 -80.7138 1633.39L120.492 1435.35C122.207 1433.66 124.988 1433.66 126.703 1435.35C128.418 1437.04 128.418 1439.77 126.703 1441.46L-74.5029 1639.5C-76.2178 1641.19 -78.9988 1641.19 -80.7138 1639.5Z" fill="url(#paint4_linear_67_5939)"/>
<path d="M0 2615.2H428L428 1724.44H0L0 2615.2Z" fill="url(#paint5_linear_67_5939)"/>
<path d="M468.654 1736.02C469.67 1737.02 469.67 1738.64 468.654 1739.64L349.442 1856.98C348.426 1857.98 346.778 1857.98 345.762 1856.98C344.746 1855.98 344.746 1854.35 345.762 1853.35L464.974 1736.02C465.99 1735.02 467.638 1735.02 468.654 1736.02Z" fill="url(#paint6_linear_67_5939)" style="mix-blend-mode:overlay"/>
</g>
<defs>
<linearGradient id="paint0_linear_67_5939" x1="86" y1="-478.146" x2="735.679" y2="-327.061" gradientUnits="userSpaceOnUse">
<stop stop-color="#0A30A3"/>
<stop offset="0.709375" stop-color="#001447"/>
</linearGradient>
<radialGradient id="paint1_radial_67_5939" cx="0" cy="0" r="1" gradientUnits="userSpaceOnUse" gradientTransform="translate(352.087 173.903) rotate(-31.1606) scale(248.946 247.143)">
<stop stop-color="#0A30A3"/>
<stop offset="1" stop-color="#00152A"/>
</radialGradient>
<linearGradient id="paint2_linear_67_5939" x1="424.563" y1="825.051" x2="173.149" y2="1136.01" gradientUnits="userSpaceOnUse">
<stop offset="0.17" stop-color="#0A30A3"/>
<stop offset="1" stop-color="white"/>
</linearGradient>
<linearGradient id="paint3_linear_67_5939" x1="352.5" y1="1062.03" x2="567.131" y2="849.468" gradientUnits="userSpaceOnUse">
<stop stop-color="#0A30A3" stop-opacity="0.31"/>
<stop offset="1" stop-color="white" stop-opacity="0"/>
</linearGradient>
<linearGradient id="paint4_linear_67_5939" x1="-12.2733" y1="1579.68" x2="120.125" y2="1441.29" gradientUnits="userSpaceOnUse">
<stop offset="0.17" stop-color="#0A30A3"/>
<stop offset="1" stop-color="white"/>
</linearGradient>
<linearGradient id="paint5_linear_67_5939" x1="359.5" y1="2605.77" x2="-104.188" y2="2415.21" gradientUnits="userSpaceOnUse">
<stop stop-color="#0A30A3"/>
<stop offset="0.520593" stop-color="#001447"/>
</linearGradient>
<linearGradient id="paint6_linear_67_5939" x1="428.104" y1="1771.46" x2="349.659" y2="1853.45" gradientUnits="userSpaceOnUse">
<stop offset="0.17" stop-color="#0A30A3"/>
<stop offset="1" stop-color="white"/>
</linearGradient>
<clipPath id="clip0_67_5939">
<rect width="428" height="1752" fill="white"/>
</clipPath>
</defs>
</svg>
