<svg width="428" height="555" viewBox="0 0 428 555" fill="none" xmlns="http://www.w3.org/2000/svg">
<g clip-path="url(#clip0_74_6434)">
<rect width="428" height="555" fill="#001447"/>
<rect y="-0.241943" width="428" height="555" fill="#011855"/>
<path opacity="0.94" d="M477.262 17.5994C381.236 17.5994 303.396 91.6042 303.396 182.9C303.396 274.195 381.236 348.2 477.262 348.2C573.289 348.2 651.129 274.195 651.129 182.9C651.129 91.6042 573.289 17.5994 477.262 17.5994ZM477.262 282.717C419.28 282.717 372.272 238.026 372.272 182.9C372.272 127.773 419.28 83.082 477.262 83.082C535.245 83.082 582.253 127.773 582.253 182.9C582.253 238.026 535.245 282.717 477.262 282.717Z" fill="url(#paint0_radial_74_6434)"/>
<path d="M467.654 0.520132C468.67 1.53622 468.67 3.18394 467.654 4.20003L348.442 123.412C347.426 124.428 345.778 124.428 344.762 123.412C343.746 122.396 343.746 120.748 344.762 119.732L463.974 0.520132C464.99 -0.495957 466.638 -0.495957 467.654 0.520132Z" fill="url(#paint1_linear_74_6434)" style="mix-blend-mode:overlay"/>
<g clip-path="url(#clip1_74_6434)" filter="url(#filter0_d_74_6434)">
<rect width="428" height="1324" transform="translate(0 555)" fill="#001447"/>
<path d="M518.02 666.02C563.495 620.545 563.495 546.815 518.02 501.34C472.545 455.865 398.815 455.865 353.34 501.34C307.865 546.815 307.865 620.545 353.34 666.02C398.815 711.495 472.545 711.495 518.02 666.02Z" fill="url(#paint2_radial_74_6434)" fill-opacity="0.3"/>
</g>
</g>
<defs>
<filter id="filter0_d_74_6434" x="-30" y="529" width="488" height="1384" filterUnits="userSpaceOnUse" color-interpolation-filters="sRGB">
<feFlood flood-opacity="0" result="BackgroundImageFix"/>
<feColorMatrix in="SourceAlpha" type="matrix" values="0 0 0 0 0 0 0 0 0 0 0 0 0 0 0 0 0 0 127 0" result="hardAlpha"/>
<feOffset dy="4"/>
<feGaussianBlur stdDeviation="15"/>
<feComposite in2="hardAlpha" operator="out"/>
<feColorMatrix type="matrix" values="0 0 0 0 0.0862745 0 0 0 0 0.498039 0 0 0 0 0.988235 0 0 0 1 0"/>
<feBlend mode="normal" in2="BackgroundImageFix" result="effect1_dropShadow_74_6434"/>
<feBlend mode="normal" in="SourceGraphic" in2="effect1_dropShadow_74_6434" result="shape"/>
</filter>
<radialGradient id="paint0_radial_74_6434" cx="0" cy="0" r="1" gradientUnits="userSpaceOnUse" gradientTransform="translate(500.778 45.1904) scale(360.744 342.97)">
<stop stop-color="#0A30A3"/>
<stop offset="1" stop-color="#00152A"/>
</radialGradient>
<linearGradient id="paint1_linear_74_6434" x1="427.104" y1="36.5281" x2="347.36" y2="118.57" gradientUnits="userSpaceOnUse">
<stop offset="0.17" stop-color="#0A30A3"/>
<stop offset="1" stop-color="white"/>
</linearGradient>
<radialGradient id="paint2_radial_74_6434" cx="0" cy="0" r="1" gradientUnits="userSpaceOnUse" gradientTransform="translate(168.331 777.713) rotate(-180) scale(801.052)">
<stop stop-color="#5BC7CE"/>
<stop offset="0.11" stop-color="#4198C0"/>
<stop offset="0.23" stop-color="#296BB3"/>
<stop offset="0.34" stop-color="#184AAA"/>
<stop offset="0.43" stop-color="#0D37A5"/>
<stop offset="0.49" stop-color="#0A30A3"/>
<stop offset="1" stop-color="#00152A"/>
</radialGradient>
<clipPath id="clip0_74_6434">
<rect width="428" height="555" fill="white"/>
</clipPath>
<clipPath id="clip1_74_6434">
<rect width="428" height="1324" fill="white" transform="translate(0 555)"/>
</clipPath>
</defs>
</svg>
