<svg width="220" height="43" viewBox="0 0 220 43" fill="none" xmlns="http://www.w3.org/2000/svg">
<path d="M88.6314 21.1393C88.6314 32.8137 78.9296 42.2779 66.9622 42.2779C54.9947 42.2779 45.2932 32.8137 45.2932 21.1393C45.2932 9.46564 54.9956 0.000616203 66.9622 0.000616203C78.9291 0.000616203 88.6314 9.46511 88.6314 21.1393ZM170.944 30.3789C171.759 29.2418 173.364 28.9639 174.53 29.7585C175.695 30.5528 175.98 32.1183 175.166 33.2555C174.777 33.7979 174.395 34.2872 174.022 34.7215C169.935 39.4807 163.9 42.2779 157.449 42.2779C145.436 42.2779 135.807 32.7635 135.813 21.073C135.813 9.46001 145.556 0.000884463 157.449 0.000884463C166.296 0.000884463 174.112 5.22418 177.434 13.0595C178.508 15.593 179.076 18.3354 179.076 21.1393C179.076 22.5476 177.892 23.6614 176.47 23.6614H141.184C142.435 31.4399 149.31 37.2341 157.449 37.2341C162.362 37.2341 166.961 35.1049 170.064 31.4903C170.403 31.0952 170.697 30.7245 170.944 30.3792V30.3789ZM141.184 18.6173H173.722C173.517 17.363 173.163 16.1389 172.667 14.9706C170.144 9.01765 164.159 5.04471 157.449 5.04471C149.309 5.04471 142.435 10.8386 141.183 18.6173H141.184ZM110.749 5.10561C109.326 5.22552 108.074 4.19755 107.951 2.81011C107.829 1.42293 108.882 0.201275 110.304 0.0813625C122.87 -0.991142 133.859 8.67374 133.859 21.139C133.859 26.5482 131.743 31.9582 127.512 36.0856C126.502 37.0707 124.866 37.0707 123.856 36.0859L98.8381 11.6804C96.7404 14.491 95.6913 17.815 95.6913 21.139C95.6913 30.6381 104.04 37.9906 113.631 37.1724C115.053 37.0527 116.306 38.0802 116.429 39.4676C116.551 40.855 115.498 42.077 114.075 42.1966C101.494 43.2699 90.5209 33.5922 90.5209 21.139C90.5209 15.7295 92.6367 10.3198 96.8677 6.19233C97.8772 5.20728 99.514 5.20728 100.524 6.19206L125.542 30.5976C127.639 27.7867 128.689 24.463 128.689 21.139C128.689 11.6335 120.328 4.28822 110.749 5.10534L110.749 5.10561ZM185.792 13.0917C185.078 14.2943 183.5 14.7045 182.268 14.0078C181.035 13.3117 180.615 11.7721 181.329 10.5698C182.278 8.96641 183.435 7.5009 184.778 6.19233C189.012 2.06461 194.558 0.000616203 200.1 0.000616203C205.642 0.000616203 211.188 2.06461 215.422 6.19233C216.764 7.50064 217.922 8.96695 218.871 10.5698C219.585 11.7721 219.164 13.3117 217.932 14.0078C216.699 14.7045 215.121 14.2941 214.407 13.0917C213.689 11.8786 212.802 10.749 211.786 9.75831C209.222 7.25786 206.019 5.75238 202.685 5.24135V39.7557C202.685 41.1485 201.528 42.2776 200.1 42.2776C198.672 42.2776 197.515 41.1485 197.515 39.7557V5.24135C194.181 5.75238 190.979 7.25786 188.413 9.75831C187.398 10.7487 186.511 11.8786 185.792 13.0917H185.792ZM10.0687 36.0819C9.10187 37.0251 7.35841 37.0905 6.40968 36.0685C2.18083 31.9421 0.0664062 26.5388 0.0664062 21.1384C0.0664062 9.47127 9.77698 0.00464011 21.7356 0.00464011C33.6946 0.00464011 43.4046 9.47101 43.4046 21.1384C43.4046 27.122 41.154 31.7479 37.0531 36.0773C36.0438 37.0621 34.4115 37.0667 33.4022 36.0819C32.3892 35.0936 32.3999 33.5031 33.4108 32.5172C36.6265 29.3767 38.2344 25.2589 38.2344 21.1384C38.2344 13.1947 32.3036 6.47025 24.3211 5.24564V21.1384C24.3211 22.5313 23.1637 23.6604 21.7359 23.6604C20.3081 23.6604 19.1507 22.5313 19.1507 21.1384V5.24564C11.1679 6.47052 5.23739 13.1945 5.23739 21.1384C5.23739 25.2589 6.84527 29.3767 10.0608 32.5172C11.0483 33.5519 11.1165 35.0606 10.0693 36.0819H10.0687ZM66.9625 5.04445C57.85 5.04445 50.4639 12.2496 50.4639 21.139C50.4639 30.0286 57.8494 37.2338 66.9625 37.2338C76.0752 37.2338 83.461 30.0286 83.461 21.139C83.461 12.2499 76.0746 5.04445 66.9625 5.04445Z" fill="white"/>
</svg>
