<svg width="259" height="50" viewBox="0 0 259 50" fill="none" xmlns="http://www.w3.org/2000/svg">
<path d="M104.669 25.0003C104.669 38.807 93.2027 49.9999 79.0592 49.9999C64.9158 49.9999 53.4503 38.807 53.4503 25.0003C53.4503 11.1945 64.9168 0.000728751 79.0592 0.000728751C93.202 0.000728751 104.669 11.1939 104.669 25.0003ZM201.948 35.9276C202.911 34.5828 204.808 34.2541 206.185 35.1938C207.563 36.1332 207.9 37.9847 206.937 39.3296C206.478 39.9711 206.027 40.5497 205.586 41.0634C200.755 46.6918 193.623 49.9999 185.999 49.9999C171.802 49.9999 160.421 38.7477 160.429 24.9219C160.429 11.1879 171.944 0.00104601 185.999 0.00104601C196.455 0.00104601 205.692 6.17837 209.618 15.4448C210.887 18.441 211.558 21.6843 211.558 25.0003C211.558 26.6659 210.159 27.9832 208.479 27.9832H166.776C168.255 37.1824 176.38 44.0348 185.999 44.0348C191.806 44.0348 197.241 41.5167 200.908 37.242C201.309 36.7747 201.656 36.3362 201.948 35.9279V35.9276ZM166.776 22.0178H205.23C204.989 20.5343 204.57 19.0866 203.984 17.705C201.002 10.6647 193.929 5.96612 185.999 5.96612C176.379 5.96612 168.255 12.8183 166.776 22.0178H166.776ZM130.807 6.03814C129.126 6.17995 127.646 4.96422 127.501 3.32337C127.356 1.68283 128.601 0.238037 130.282 0.0962233C145.133 -1.17217 158.119 10.258 158.119 25C158.119 31.3972 155.619 37.7953 150.619 42.6766C149.425 43.8416 147.491 43.8416 146.298 42.6769L116.731 13.8138C114.252 17.1377 113.012 21.0688 113.012 25C113.012 36.2341 122.879 44.9295 134.214 43.9618C135.895 43.8203 137.375 45.0354 137.52 46.6763C137.665 48.3171 136.42 49.7623 134.739 49.9038C119.87 51.1731 106.902 39.7277 106.902 25C106.902 18.6025 109.402 12.2047 114.402 7.32335C115.595 6.15838 117.53 6.15838 118.723 7.32303L148.29 36.1862C150.769 32.8619 152.009 28.9311 152.009 25C152.009 13.7583 142.129 5.07146 130.808 6.03782L130.807 6.03814ZM219.496 15.4829C218.652 16.9052 216.787 17.3902 215.331 16.5663C213.874 15.743 213.377 13.9223 214.221 12.5004C215.343 10.6041 216.71 8.87093 218.297 7.32335C223.301 2.44171 229.855 0.000728751 236.405 0.000728751C242.955 0.000728751 249.509 2.44171 254.513 7.32335C256.1 8.87062 257.467 10.6047 258.589 12.5004C259.433 13.9223 258.936 15.743 257.479 16.5663C256.023 17.3902 254.158 16.9048 253.314 15.4829C252.465 14.0483 251.417 12.7123 250.217 11.5407C247.185 8.5835 243.4 6.80305 239.46 6.19867V47.017C239.46 48.6642 238.092 49.9996 236.405 49.9996C234.718 49.9996 233.35 48.6642 233.35 47.017V6.19867C229.409 6.80305 225.625 8.5835 222.594 11.5407C221.393 12.712 220.345 14.0483 219.496 15.4829H219.496ZM11.821 42.6722C10.6784 43.7877 8.61789 43.8651 7.49666 42.6563C2.49889 37.7763 0 31.3861 0 24.9994C0 11.2012 11.4762 0.00548761 25.6093 0.00548761C39.7427 0.00548761 51.2182 11.2009 51.2182 24.9994C51.2182 32.0758 48.5585 37.5466 43.7118 42.6668C42.5191 43.8314 40.5899 43.8368 39.3972 42.6722C38.1999 41.5034 38.2126 39.6224 39.4073 38.4565C43.2078 34.7423 45.108 29.8724 45.108 24.9994C45.108 15.6047 38.0988 7.65203 28.6649 6.20375V24.9994C28.6649 26.6466 27.297 27.9819 25.6096 27.9819C23.9222 27.9819 22.5543 26.6466 22.5543 24.9994V6.20375C13.12 7.65235 6.1112 15.6044 6.1112 24.9994C6.1112 29.8724 8.01145 34.7423 11.8116 38.4565C12.9787 39.6801 13.0593 41.4644 11.8217 42.6722H11.821ZM79.0596 5.9658C68.2902 5.9658 59.5612 14.487 59.5612 25C59.5612 35.5133 68.2896 44.0345 79.0596 44.0345C89.8292 44.0345 98.558 35.5133 98.558 25C98.558 14.4873 89.8286 5.9658 79.0596 5.9658Z" fill="white"/>
</svg>
