<svg width="178" height="35" viewBox="0 0 178 35" fill="none" xmlns="http://www.w3.org/2000/svg">
<path d="M71.6186 17.0944C71.6186 26.535 63.7732 34.1882 54.0956 34.1882C44.4181 34.1882 36.5729 26.535 36.5729 17.0944C36.5729 7.65444 44.4188 0.000498296 54.0956 0.000498296C63.7727 0.000498296 71.6186 7.65401 71.6186 17.0944ZM138.181 24.5661C138.84 23.6465 140.138 23.4218 141.081 24.0643C142.023 24.7067 142.254 25.9727 141.595 26.8922C141.281 27.3309 140.972 27.7265 140.67 28.0778C137.365 31.9263 132.485 34.1882 127.268 34.1882C117.554 34.1882 109.767 26.4944 109.772 17.0408C109.772 7.64989 117.651 0.000715226 127.268 0.000715226C134.423 0.000715226 140.743 4.22456 143.429 10.5607C144.297 12.6093 144.757 14.827 144.757 17.0944C144.757 18.2333 143.799 19.1339 142.65 19.1339H114.115C115.127 25.4241 120.686 30.1095 127.268 30.1095C131.242 30.1095 134.96 28.3877 137.469 25.4648C137.744 25.1453 137.982 24.8455 138.181 24.5663V24.5661ZM114.115 15.055H140.427C140.262 14.0406 139.975 13.0508 139.574 12.1061C137.534 7.29217 132.695 4.07943 127.268 4.07943C120.686 4.07943 115.127 8.76469 114.115 15.055H114.115ZM89.5037 4.12868C88.3536 4.22565 87.3409 3.39437 87.2417 2.27241C87.1426 1.15066 87.9945 0.162762 89.1446 0.0657942C99.306 -0.801492 108.192 7.01406 108.192 17.0942C108.192 21.4683 106.481 25.8432 103.06 29.1808C102.243 29.9774 100.92 29.9774 100.103 29.1811L79.8722 9.44542C78.176 11.7182 77.3276 14.4062 77.3276 17.0942C77.3276 24.7756 84.0789 30.7213 91.8347 30.0596C92.9848 29.9629 93.9977 30.7937 94.0969 31.9157C94.1961 33.0376 93.3442 34.0258 92.194 34.1225C82.0202 34.9904 73.1465 27.1645 73.1465 17.0942C73.1465 12.7198 74.8575 8.34515 78.2789 5.00746C79.0953 4.21089 80.4188 4.21089 81.2352 5.00724L101.466 24.7429C103.162 22.4699 104.011 19.7821 104.011 17.0942C104.011 9.40745 97.2504 3.46769 89.504 4.12846L89.5037 4.12868ZM150.188 10.5867C149.611 11.5592 148.335 11.8909 147.338 11.3275C146.341 10.7646 146.001 9.51961 146.579 8.54733C147.346 7.25073 148.282 6.06565 149.368 5.00746C152.792 1.66956 157.276 0.000498296 161.758 0.000498296C166.24 0.000498296 170.724 1.66956 174.148 5.00746C175.234 6.06543 176.17 7.25117 176.937 8.54733C177.515 9.51961 177.175 10.7646 176.178 11.3275C175.181 11.8909 173.905 11.559 173.328 10.5867C172.747 9.60573 172.03 8.69223 171.209 7.89111C169.134 5.86911 166.545 4.6517 163.849 4.23844V32.1487C163.849 33.275 162.913 34.188 161.758 34.188C160.604 34.188 159.668 33.275 159.668 32.1487V4.23844C156.971 4.6517 154.382 5.86911 152.308 7.89111C151.486 8.69202 150.769 9.60573 150.188 10.5867H150.188ZM8.08845 29.1778C7.30658 29.9405 5.89672 29.9935 5.12953 29.167C1.70984 25.8301 0 21.4607 0 17.0937C0 7.659 7.85251 0.00375225 17.5229 0.00375225C27.1936 0.00375225 35.0456 7.65878 35.0456 17.0937C35.0456 21.9323 33.2257 25.6731 29.9094 29.1741C29.0933 29.9705 27.7733 29.9742 26.9572 29.1778C26.138 28.3786 26.1466 27.0925 26.9641 26.2952C29.5645 23.7556 30.8648 20.4258 30.8648 17.0937C30.8648 10.67 26.0688 5.2322 19.6137 4.24191V17.0937C19.6137 18.22 18.6777 19.1331 17.5232 19.1331C16.3686 19.1331 15.4326 18.22 15.4326 17.0937V4.24191C8.97728 5.23242 4.18154 10.6698 4.18154 17.0937C4.18154 20.4258 5.48177 23.7556 8.082 26.2952C8.88055 27.1319 8.9357 28.352 8.08889 29.1778H8.08845ZM54.0958 4.07922C46.727 4.07922 40.7542 9.90574 40.7542 17.0942C40.7542 24.2828 46.7266 30.1093 54.0958 30.1093C61.4649 30.1093 67.4375 24.2828 67.4375 17.0942C67.4375 9.90596 61.4645 4.07922 54.0958 4.07922Z" fill="white"/>
</svg>
