<svg width="1280" height="790" viewBox="0 0 1280 790" fill="none" xmlns="http://www.w3.org/2000/svg">
<g clip-path="url(#clip0_49_4883)">
<rect width="1280" height="790" fill="#001447"/>
<g clip-path="url(#clip1_49_4883)" filter="url(#filter0_d_49_4883)">
<rect width="1280" height="477" transform="translate(0 790)" fill="#001447"/>
<path d="M997.824 918.02C1043.33 872.545 1043.33 798.815 997.824 753.34C952.318 707.865 878.537 707.865 833.03 753.34C787.523 798.815 787.523 872.545 833.03 918.02C878.537 963.495 952.318 963.495 997.824 918.02Z" fill="url(#paint0_radial_49_4883)" fill-opacity="0.3"/>
<path opacity="0.94" d="M101.706 714.12C36.8469 629.572 -84.2716 613.553 -168.829 678.339C-253.387 743.125 -269.354 864.176 -204.495 948.724C-139.636 1033.27 -18.5176 1049.29 66.0399 984.505C150.597 919.719 166.565 798.668 101.706 714.12ZM-143.845 902.255C-183.009 851.203 -173.366 778.101 -122.308 738.982C-71.2505 699.863 1.89283 709.537 41.0562 760.589C80.2196 811.64 70.5767 884.743 19.519 923.862C-31.5387 962.981 -104.682 953.307 -143.845 902.255Z" fill="url(#paint1_radial_49_4883)"/>
</g>
<path d="M1285 7H0V790H1285V7Z" fill="url(#paint2_linear_49_4883)"/>
<path opacity="0.94" d="M53 -155C-57.4601 -155 -147 -65.4601 -147 45C-147 155.46 -57.4601 245 53 245C163.46 245 253 155.46 253 45C253 -65.4601 163.46 -155 53 -155ZM53 165.771C-13.6983 165.771 -67.7713 111.698 -67.7713 45C-67.7713 -21.6982 -13.6983 -75.7713 53 -75.7713C119.698 -75.7713 173.771 -21.6982 173.771 45C173.771 111.698 119.698 165.771 53 165.771Z" fill="url(#paint3_radial_49_4883)"/>
<path d="M118 81.7785L90.1542 54.0956C66.0533 76.8207 28.0016 76.4521 4.37344 52.9621C-19.2547 29.4721 -19.6162 -8.35706 3.23329 -32.317L-24.6125 -60C-62.8403 -20.7609 -62.4603 41.8575 -23.4631 80.6358C15.534 119.405 78.5208 119.783 118 81.7785Z" fill="url(#paint4_radial_49_4883)" fill-opacity="0.2"/>
<g opacity="0.6">
<path d="M1047.54 196.859L870.562 161.371" stroke="#1E6AC6" stroke-opacity="0.6" stroke-width="8.4" stroke-linecap="round"/>
<path d="M823.367 151.906L817.468 150.723" stroke="#179F0C" stroke-opacity="0.6" stroke-width="8.4" stroke-linecap="round"/>
<path d="M765.434 379.612L735.937 373.698" stroke="#179F0C" stroke-opacity="0.6" stroke-width="8.4" stroke-linecap="round"/>
<path d="M691.188 199.037L673.49 195.488" stroke="#179F0C" stroke-opacity="0.6" stroke-width="8.4" stroke-linecap="round"/>
<path d="M744.23 301.723L735.803 300.033" stroke="#179F0C" stroke-opacity="0.6" stroke-width="8.4" stroke-linecap="round"/>
<path d="M921.258 245.172L756.079 212.049" stroke="#1E6AC6" stroke-opacity="0.6" stroke-width="8.4" stroke-linecap="round"/>
<path d="M891.711 331.297L791.424 311.187" stroke="#1E6AC6" stroke-opacity="0.6" stroke-width="8.4" stroke-linecap="round"/>
<path d="M918.812 410.368L818.525 390.258" stroke="#1E6AC6" stroke-opacity="0.6" stroke-width="8.4" stroke-linecap="round"/>
<path d="M935.095 390.92C942.289 401.587 939.566 416.204 929.009 423.569C918.458 430.936 904.068 428.261 896.873 417.594C895.928 416.203 895.007 414.79 894.113 413.378C872.153 378.594 865.728 338.476 873.209 301.169C880.69 263.861 902.086 229.322 935.759 205.694C937.129 204.735 938.523 203.787 939.932 202.868C975.819 179.399 1017.93 172.511 1056.99 180.343C1096.05 188.176 1132.24 210.766 1156.31 246.256C1157.25 247.648 1158.17 249.06 1159.07 250.473C1181.03 285.257 1187.45 325.374 1179.97 362.682C1172.49 399.99 1151.09 434.529 1117.42 458.157C1116.05 459.121 1114.66 460.064 1113.25 460.983C1102.5 468.051 1088.19 464.972 1081.29 454.106C1074.4 443.242 1077.51 428.703 1088.27 421.635C1089.32 420.945 1090.36 420.241 1091.37 419.533C1114.58 403.242 1129.34 379.374 1134.52 353.568C1139.69 327.757 1135.27 300.043 1120.14 276.067C1119.48 275.018 1118.79 273.968 1118.08 272.931C1105.82 254.844 1088.94 241.503 1069.98 233.414L1049.31 336.481C1046.75 349.235 1034.5 357.531 1021.95 355.014C1009.41 352.498 1001.3 340.121 1003.86 327.368L1024.53 224.301C1003.91 224.452 983.194 230.254 964.904 242.214C963.852 242.904 962.814 243.608 961.8 244.316C938.584 260.607 923.826 284.475 918.652 310.281C913.476 336.092 917.89 363.805 933.031 387.782C933.692 388.831 934.38 389.876 935.085 390.918L935.095 390.92Z" fill="#1E6AC6" fill-opacity="0.9"/>
</g>
<path opacity="0.94" d="M1149.63 122.807C1213.49 175.581 1308.03 166.594 1360.81 102.733C1413.58 38.8725 1404.59 -55.6727 1340.73 -108.447C1276.87 -161.221 1182.33 -152.234 1129.55 -88.3731C1076.78 -24.5123 1085.77 70.033 1149.63 122.807ZM1302.88 -62.6419C1341.44 -30.7758 1346.87 26.32 1315 64.8806C1283.14 103.441 1226.04 108.868 1187.48 77.0022C1148.92 45.1361 1143.49 -11.9598 1175.36 -50.5203C1207.22 -89.0809 1264.32 -94.5081 1302.88 -62.6419Z" fill="url(#paint5_radial_49_4883)"/>
<path style="mix-blend-mode:overlay" d="M1442.27 277.719C1445.9 281.345 1445.9 287.226 1442.27 290.852L1016.85 716.269C1013.23 719.895 1007.35 719.895 1003.72 716.269C1000.09 712.643 1000.09 706.763 1003.72 703.137L1429.14 277.719C1432.76 274.094 1438.64 274.094 1442.27 277.719Z" fill="url(#paint6_linear_49_4883)"/>
<path d="M1547.33 303.117C1550.16 305.939 1550.16 310.526 1547.33 313.368L1215.37 645.333C1212.55 648.155 1207.96 648.155 1205.12 645.333C1202.29 642.51 1202.29 637.924 1205.12 635.082L1537.08 303.117C1539.9 300.294 1544.49 300.294 1547.33 303.117Z" fill="url(#paint7_linear_49_4883)" style="mix-blend-mode:overlay"/>
<g filter="url(#filter1_d_49_4883)">
<rect y="-96" width="1280" height="96" fill="#01164E"/>
</g>
</g>
<defs>
<filter id="filter0_d_49_4883" x="-30" y="764" width="1340" height="537" filterUnits="userSpaceOnUse" color-interpolation-filters="sRGB">
<feFlood flood-opacity="0" result="BackgroundImageFix"/>
<feColorMatrix in="SourceAlpha" type="matrix" values="0 0 0 0 0 0 0 0 0 0 0 0 0 0 0 0 0 0 127 0" result="hardAlpha"/>
<feOffset dy="4"/>
<feGaussianBlur stdDeviation="15"/>
<feComposite in2="hardAlpha" operator="out"/>
<feColorMatrix type="matrix" values="0 0 0 0 0.0862745 0 0 0 0 0.498039 0 0 0 0 0.988235 0 0 0 1 0"/>
<feBlend mode="normal" in2="BackgroundImageFix" result="effect1_dropShadow_49_4883"/>
<feBlend mode="normal" in="SourceGraphic" in2="effect1_dropShadow_49_4883" result="shape"/>
</filter>
<filter id="filter1_d_49_4883" x="-30" y="-122" width="1340" height="156" filterUnits="userSpaceOnUse" color-interpolation-filters="sRGB">
<feFlood flood-opacity="0" result="BackgroundImageFix"/>
<feColorMatrix in="SourceAlpha" type="matrix" values="0 0 0 0 0 0 0 0 0 0 0 0 0 0 0 0 0 0 127 0" result="hardAlpha"/>
<feOffset dy="4"/>
<feGaussianBlur stdDeviation="15"/>
<feComposite in2="hardAlpha" operator="out"/>
<feColorMatrix type="matrix" values="0 0 0 0 0.0588235 0 0 0 0 0.227451 0 0 0 0 0.65098 0 0 0 1 0"/>
<feBlend mode="normal" in2="BackgroundImageFix" result="effect1_dropShadow_49_4883"/>
<feBlend mode="normal" in="SourceGraphic" in2="effect1_dropShadow_49_4883" result="shape"/>
</filter>
<radialGradient id="paint0_radial_49_4883" cx="0" cy="0" r="1" gradientUnits="userSpaceOnUse" gradientTransform="translate(647.892 1029.71) rotate(-180) scale(801.608 801.052)">
<stop stop-color="#5BC7CE"/>
<stop offset="0.11" stop-color="#4198C0"/>
<stop offset="0.23" stop-color="#296BB3"/>
<stop offset="0.34" stop-color="#184AAA"/>
<stop offset="0.43" stop-color="#0D37A5"/>
<stop offset="0.49" stop-color="#0A30A3"/>
<stop offset="1" stop-color="#00152A"/>
</radialGradient>
<radialGradient id="paint1_radial_49_4883" cx="0" cy="0" r="1" gradientUnits="userSpaceOnUse" gradientTransform="translate(92.0343 754.404) rotate(52.5071) scale(400.315 400.176)">
<stop stop-color="#0A30A3"/>
<stop offset="1" stop-color="#00152A"/>
</radialGradient>
<linearGradient id="paint2_linear_49_4883" x1="0" y1="7" x2="1394.71" y2="414.375" gradientUnits="userSpaceOnUse">
<stop stop-color="#0A30A3"/>
<stop offset="0.585704" stop-color="#001447"/>
</linearGradient>
<radialGradient id="paint3_radial_49_4883" cx="0" cy="0" r="1" gradientUnits="userSpaceOnUse" gradientTransform="translate(80.0501 -121.617) scale(414.966)">
<stop stop-color="#0A30A3"/>
<stop offset="1" stop-color="#00152A"/>
</radialGradient>
<radialGradient id="paint4_radial_49_4883" cx="0" cy="0" r="1" gradientUnits="userSpaceOnUse" gradientTransform="translate(-32.5796 -54.4887) rotate(-44.832) scale(675.802 675.79)">
<stop stop-color="#5BC7CE"/>
<stop offset="0.11" stop-color="#4198C0"/>
<stop offset="0.23" stop-color="#296BB3"/>
<stop offset="0.34" stop-color="#184AAA"/>
<stop offset="0.43" stop-color="#0D37A5"/>
<stop offset="0.49" stop-color="#0A30A3"/>
<stop offset="1" stop-color="#00152A"/>
</radialGradient>
<radialGradient id="paint5_radial_49_4883" cx="0" cy="0" r="1" gradientUnits="userSpaceOnUse" gradientTransform="translate(1131.69 64.3775) rotate(39.5701) scale(392.832)">
<stop stop-color="#0A30A3"/>
<stop offset="1" stop-color="#00152A"/>
</radialGradient>
<linearGradient id="paint6_linear_49_4883" x1="1297.56" y1="406.237" x2="1041.31" y2="718.19" gradientUnits="userSpaceOnUse">
<stop offset="0.17" stop-color="#0A30A3"/>
<stop offset="1" stop-color="white"/>
</linearGradient>
<linearGradient id="paint7_linear_49_4883" x1="1225.5" y1="647" x2="1443.5" y2="434.5" gradientUnits="userSpaceOnUse">
<stop stop-color="#0A30A3" stop-opacity="0.31"/>
<stop offset="1" stop-color="white" stop-opacity="0"/>
</linearGradient>
<clipPath id="clip0_49_4883">
<rect width="1280" height="790" fill="white"/>
</clipPath>
<clipPath id="clip1_49_4883">
<rect width="1280" height="477" fill="white" transform="translate(0 790)"/>
</clipPath>
</defs>
</svg>
