<svg width="1280" height="748" viewBox="0 0 1280 748" fill="none" xmlns="http://www.w3.org/2000/svg">
<g clip-path="url(#clip0_141_4643)">
<rect width="1280" height="748" fill="#001447"/>
<g clip-path="url(#clip1_141_4643)" filter="url(#filter0_d_141_4643)">
<rect width="1280" height="477" transform="translate(0 748)" fill="#001447"/>
<path d="M997.824 876.02C1043.33 830.545 1043.33 756.815 997.824 711.34C952.318 665.865 878.537 665.865 833.03 711.34C787.523 756.815 787.523 830.545 833.03 876.02C878.537 921.495 952.318 921.495 997.824 876.02Z" fill="url(#paint0_radial_141_4643)" fill-opacity="0.3"/>
<path opacity="0.94" d="M101.706 672.12C36.8469 587.572 -84.2716 571.553 -168.829 636.339C-253.387 701.125 -269.354 822.176 -204.495 906.724C-139.636 991.271 -18.5176 1007.29 66.0399 942.505C150.597 877.719 166.565 756.668 101.706 672.12ZM-143.845 860.255C-183.009 809.203 -173.366 736.101 -122.308 696.982C-71.2505 657.863 1.89283 667.537 41.0562 718.589C80.2196 769.64 70.5767 842.743 19.519 881.862C-31.5387 920.981 -104.682 911.307 -143.845 860.255Z" fill="url(#paint1_radial_141_4643)"/>
</g>
<path d="M1281 0H0V748H1281V0Z" fill="url(#paint2_linear_141_4643)"/>
<path opacity="0.94" d="M53 -155C-57.4601 -155 -147 -65.4601 -147 45C-147 155.46 -57.4601 245 53 245C163.46 245 253 155.46 253 45C253 -65.4601 163.46 -155 53 -155ZM53 165.771C-13.6983 165.771 -67.7713 111.698 -67.7713 45C-67.7713 -21.6982 -13.6983 -75.7713 53 -75.7713C119.698 -75.7713 173.771 -21.6982 173.771 45C173.771 111.698 119.698 165.771 53 165.771Z" fill="url(#paint3_radial_141_4643)"/>
<path d="M118 81.7785L90.1542 54.0956C66.0533 76.8207 28.0016 76.4521 4.37344 52.9621C-19.2547 29.4721 -19.6162 -8.35706 3.23329 -32.317L-24.6125 -60C-62.8403 -20.7609 -62.4603 41.8575 -23.4631 80.6358C15.534 119.405 78.5208 119.783 118 81.7785Z" fill="url(#paint4_radial_141_4643)" fill-opacity="0.2"/>
<g opacity="0.6">
<path d="M1040.54 344.859L863.562 309.371" stroke="#1E6AC6" stroke-opacity="0.6" stroke-width="8.4" stroke-linecap="round"/>
<path d="M816.367 299.906L810.468 298.723" stroke="#179F0C" stroke-opacity="0.6" stroke-width="8.4" stroke-linecap="round"/>
<path d="M758.434 527.612L728.937 521.698" stroke="#179F0C" stroke-opacity="0.6" stroke-width="8.4" stroke-linecap="round"/>
<path d="M684.188 347.037L666.49 343.488" stroke="#179F0C" stroke-opacity="0.6" stroke-width="8.4" stroke-linecap="round"/>
<path d="M737.23 449.723L728.803 448.033" stroke="#179F0C" stroke-opacity="0.6" stroke-width="8.4" stroke-linecap="round"/>
<path d="M914.258 393.172L749.079 360.049" stroke="#1E6AC6" stroke-opacity="0.6" stroke-width="8.4" stroke-linecap="round"/>
<path d="M884.711 479.297L784.424 459.187" stroke="#1E6AC6" stroke-opacity="0.6" stroke-width="8.4" stroke-linecap="round"/>
<path d="M911.812 558.368L811.525 538.258" stroke="#1E6AC6" stroke-opacity="0.6" stroke-width="8.4" stroke-linecap="round"/>
<path d="M928.095 538.92C935.289 549.587 932.566 564.204 922.009 571.569C911.458 578.936 897.068 576.261 889.873 565.594C888.928 564.203 888.007 562.79 887.113 561.378C865.153 526.594 858.728 486.476 866.209 449.169C873.69 411.861 895.086 377.322 928.759 353.694C930.129 352.735 931.523 351.787 932.932 350.868C968.819 327.399 1010.93 320.511 1049.99 328.343C1089.05 336.176 1125.24 358.766 1149.31 394.256C1150.25 395.648 1151.17 397.06 1152.07 398.473C1174.03 433.257 1180.45 473.374 1172.97 510.682C1165.49 547.99 1144.09 582.529 1110.42 606.157C1109.05 607.121 1107.66 608.064 1106.25 608.983C1095.5 616.051 1081.19 612.972 1074.29 602.106C1067.4 591.242 1070.51 576.703 1081.27 569.635C1082.32 568.945 1083.36 568.241 1084.37 567.533C1107.58 551.242 1122.34 527.374 1127.52 501.568C1132.69 475.757 1128.27 448.043 1113.14 424.067C1112.48 423.018 1111.79 421.968 1111.08 420.931C1098.82 402.844 1081.94 389.503 1062.98 381.414L1042.31 484.481C1039.75 497.235 1027.5 505.531 1014.95 503.014C1002.41 500.498 994.303 488.121 996.861 475.368L1017.53 372.301C996.911 372.452 976.194 378.254 957.904 390.214C956.852 390.904 955.814 391.608 954.8 392.316C931.584 408.607 916.826 432.475 911.652 458.281C906.476 484.092 910.89 511.805 926.031 535.782C926.692 536.831 927.38 537.876 928.085 538.918L928.095 538.92Z" fill="#1E6AC6" fill-opacity="0.9"/>
</g>
<path opacity="0.94" d="M1149.63 122.807C1213.49 175.581 1308.03 166.594 1360.81 102.733C1413.58 38.8725 1404.59 -55.6727 1340.73 -108.447C1276.87 -161.221 1182.33 -152.234 1129.55 -88.3731C1076.78 -24.5123 1085.77 70.033 1149.63 122.807ZM1302.88 -62.6419C1341.44 -30.7758 1346.87 26.32 1315 64.8806C1283.14 103.441 1226.04 108.868 1187.48 77.0022C1148.92 45.1361 1143.49 -11.9598 1175.36 -50.5203C1207.22 -89.0809 1264.32 -94.5081 1302.88 -62.6419Z" fill="url(#paint5_radial_141_4643)"/>
<g filter="url(#filter1_d_141_4643)">
<rect y="-96" width="1280" height="96" fill="#01164E"/>
</g>
<g opacity="0.6">
<path d="M171.496 204.663L138.595 210.633" stroke="#1E6AC6" stroke-opacity="0.6" stroke-width="8.4" stroke-linecap="round"/>
<path d="M129.82 212.225L128.724 212.424" stroke="#179F0C" stroke-opacity="0.6" stroke-width="8.4" stroke-linecap="round"/>
<path d="M135.387 255.394L129.903 256.388" stroke="#179F0C" stroke-opacity="0.6" stroke-width="8.4" stroke-linecap="round"/>
<path d="M110.273 229.364L106.983 229.961" stroke="#179F0C" stroke-opacity="0.6" stroke-width="8.4" stroke-linecap="round"/>
<path d="M126.422 243.428L124.855 243.712" stroke="#179F0C" stroke-opacity="0.6" stroke-width="8.4" stroke-linecap="round"/>
<path d="M153.047 221.604L122.339 227.175" stroke="#1E6AC6" stroke-opacity="0.6" stroke-width="8.4" stroke-linecap="round"/>
<path d="M153.836 238.453L135.192 241.836" stroke="#1E6AC6" stroke-opacity="0.6" stroke-width="8.4" stroke-linecap="round"/>
<path d="M163.902 250.221L145.258 253.603" stroke="#1E6AC6" stroke-opacity="0.6" stroke-width="8.4" stroke-linecap="round"/>
<path d="M165.378 245.759C167.345 247.105 167.874 249.808 166.559 251.797C165.245 253.786 162.584 254.308 160.617 252.962C160.359 252.787 160.104 252.606 159.853 252.424C153.697 247.933 149.852 241.463 148.593 234.527C147.335 227.591 148.662 220.182 152.848 213.815C153.019 213.556 153.194 213.297 153.374 213.043C157.952 206.551 164.734 202.491 171.995 201.173C179.257 199.855 187.032 201.275 193.599 205.744C193.857 205.919 194.112 206.1 194.362 206.282C200.519 210.773 204.364 217.244 205.622 224.18C206.881 231.115 205.554 238.524 201.368 244.892C201.197 245.151 201.022 245.409 200.842 245.664C199.473 247.615 196.799 248.061 194.869 246.661C192.94 245.26 192.485 242.544 193.854 240.592C193.988 240.402 194.118 240.21 194.245 240.018C197.131 235.628 198.043 230.51 197.172 225.713C196.302 220.914 193.649 216.443 189.405 213.347C189.22 213.212 189.03 213.078 188.838 212.947C185.491 210.67 181.673 209.524 177.855 209.426L181.331 228.587C181.762 230.958 180.219 233.223 177.886 233.646C175.553 234.069 173.313 232.491 172.882 230.12L169.406 210.959C165.866 212.393 162.694 214.806 160.36 218.114C160.226 218.305 160.096 218.497 159.969 218.688C157.083 223.079 156.171 228.197 157.042 232.994C157.912 237.792 160.564 242.264 164.808 245.359C164.994 245.495 165.184 245.628 165.376 245.759L165.378 245.759Z" fill="#1E6AC6" fill-opacity="0.9"/>
</g>
<g opacity="0.6">
<path d="M161.496 660.662L128.595 666.632" stroke="#1E6AC6" stroke-opacity="0.6" stroke-width="8.4" stroke-linecap="round"/>
<path d="M119.82 668.224L118.724 668.423" stroke="#179F0C" stroke-opacity="0.6" stroke-width="8.4" stroke-linecap="round"/>
<path d="M125.387 711.393L119.903 712.388" stroke="#179F0C" stroke-opacity="0.6" stroke-width="8.4" stroke-linecap="round"/>
<path d="M100.273 685.363L96.9833 685.96" stroke="#179F0C" stroke-opacity="0.6" stroke-width="8.4" stroke-linecap="round"/>
<path d="M116.418 699.427L114.851 699.711" stroke="#179F0C" stroke-opacity="0.6" stroke-width="8.4" stroke-linecap="round"/>
<path d="M143.047 677.603L112.339 683.174" stroke="#1E6AC6" stroke-opacity="0.6" stroke-width="8.4" stroke-linecap="round"/>
<path d="M143.836 694.452L125.192 697.835" stroke="#1E6AC6" stroke-opacity="0.6" stroke-width="8.4" stroke-linecap="round"/>
<path d="M153.902 706.22L135.258 709.602" stroke="#1E6AC6" stroke-opacity="0.6" stroke-width="8.4" stroke-linecap="round"/>
<path d="M155.378 701.758C157.345 703.104 157.874 705.807 156.559 707.796C155.245 709.785 152.584 710.307 150.617 708.961C150.359 708.786 150.104 708.605 149.853 708.423C143.697 703.932 139.852 697.462 138.593 690.526C137.335 683.59 138.662 676.181 142.848 669.814C143.019 669.555 143.194 669.296 143.374 669.042C147.952 662.55 154.734 658.49 161.995 657.172C169.257 655.854 177.032 657.274 183.599 661.743C183.857 661.919 184.112 662.099 184.362 662.281C190.519 666.772 194.364 673.243 195.622 680.179C196.881 687.114 195.554 694.523 191.368 700.891C191.197 701.15 191.022 701.408 190.842 701.663C189.473 703.614 186.799 704.06 184.869 702.66C182.94 701.259 182.485 698.543 183.854 696.591C183.988 696.401 184.118 696.209 184.245 696.018C187.131 691.627 188.043 686.509 187.172 681.712C186.302 676.913 183.649 672.442 179.405 669.346C179.22 669.211 179.03 669.077 178.838 668.946C175.491 666.669 171.673 665.523 167.855 665.425L171.331 684.586C171.762 686.957 170.219 689.222 167.886 689.645C165.553 690.068 163.313 688.49 162.882 686.119L159.406 666.958C155.866 668.392 152.694 670.805 150.36 674.113C150.226 674.304 150.096 674.496 149.969 674.687C147.083 679.078 146.171 684.196 147.042 688.993C147.912 693.791 150.564 698.263 154.808 701.358C154.994 701.494 155.184 701.627 155.376 701.758L155.378 701.758Z" fill="#1E6AC6" fill-opacity="0.9"/>
</g>
<g opacity="0.6">
<path d="M979.496 621.662L946.595 627.632" stroke="#1E6AC6" stroke-opacity="0.6" stroke-width="8.4" stroke-linecap="round"/>
<path d="M937.82 629.224L936.724 629.423" stroke="#179F0C" stroke-opacity="0.6" stroke-width="8.4" stroke-linecap="round"/>
<path d="M943.387 672.393L937.903 673.388" stroke="#179F0C" stroke-opacity="0.6" stroke-width="8.4" stroke-linecap="round"/>
<path d="M918.273 646.363L914.983 646.96" stroke="#179F0C" stroke-opacity="0.6" stroke-width="8.4" stroke-linecap="round"/>
<path d="M934.418 660.427L932.851 660.711" stroke="#179F0C" stroke-opacity="0.6" stroke-width="8.4" stroke-linecap="round"/>
<path d="M961.047 638.603L930.339 644.174" stroke="#1E6AC6" stroke-opacity="0.6" stroke-width="8.4" stroke-linecap="round"/>
<path d="M961.836 655.452L943.192 658.835" stroke="#1E6AC6" stroke-opacity="0.6" stroke-width="8.4" stroke-linecap="round"/>
<path d="M971.902 667.22L953.258 670.602" stroke="#1E6AC6" stroke-opacity="0.6" stroke-width="8.4" stroke-linecap="round"/>
<path d="M973.378 662.758C975.345 664.104 975.874 666.807 974.559 668.796C973.245 670.785 970.584 671.307 968.617 669.961C968.359 669.786 968.104 669.605 967.853 669.423C961.697 664.932 957.852 658.462 956.593 651.526C955.335 644.59 956.662 637.181 960.848 630.814C961.019 630.555 961.194 630.296 961.374 630.042C965.952 623.55 972.734 619.49 979.995 618.172C987.257 616.854 995.032 618.274 1001.6 622.743C1001.86 622.919 1002.11 623.099 1002.36 623.281C1008.52 627.772 1012.36 634.243 1013.62 641.179C1014.88 648.114 1013.55 655.523 1009.37 661.891C1009.2 662.15 1009.02 662.408 1008.84 662.663C1007.47 664.614 1004.8 665.06 1002.87 663.66C1000.94 662.259 1000.48 659.543 1001.85 657.591C1001.99 657.401 1002.12 657.209 1002.24 657.018C1005.13 652.627 1006.04 647.509 1005.17 642.712C1004.3 637.913 1001.65 633.442 997.405 630.346C997.22 630.211 997.03 630.077 996.838 629.946C993.491 627.669 989.673 626.523 985.855 626.425L989.331 645.586C989.762 647.957 988.219 650.222 985.886 650.645C983.553 651.068 981.313 649.49 980.882 647.119L977.406 627.958C973.866 629.392 970.694 631.805 968.36 635.113C968.226 635.304 968.096 635.496 967.969 635.687C965.083 640.078 964.171 645.196 965.042 649.993C965.912 654.791 968.564 659.263 972.808 662.358C972.994 662.494 973.184 662.627 973.376 662.758L973.378 662.758Z" fill="#1E6AC6" fill-opacity="0.9"/>
</g>
<path d="M1457.33 360.117C1460.16 362.939 1460.16 367.526 1457.33 370.368L1125.37 702.333C1122.55 705.155 1117.96 705.155 1115.12 702.333C1112.29 699.51 1112.29 694.924 1115.12 692.082L1447.08 360.117C1449.9 357.294 1454.49 357.294 1457.33 360.117Z" fill="url(#paint6_linear_141_4643)" style="mix-blend-mode:overlay"/>
<path d="M1547.33 345.117C1550.16 347.939 1550.16 352.526 1547.33 355.368L1215.37 687.333C1212.55 690.155 1207.96 690.155 1205.12 687.333C1202.29 684.51 1202.29 679.924 1205.12 677.082L1537.08 345.117C1539.9 342.294 1544.49 342.294 1547.33 345.117Z" fill="url(#paint7_linear_141_4643)" style="mix-blend-mode:overlay"/>
</g>
<defs>
<filter id="filter0_d_141_4643" x="-30" y="722" width="1340" height="537" filterUnits="userSpaceOnUse" color-interpolation-filters="sRGB">
<feFlood flood-opacity="0" result="BackgroundImageFix"/>
<feColorMatrix in="SourceAlpha" type="matrix" values="0 0 0 0 0 0 0 0 0 0 0 0 0 0 0 0 0 0 127 0" result="hardAlpha"/>
<feOffset dy="4"/>
<feGaussianBlur stdDeviation="15"/>
<feComposite in2="hardAlpha" operator="out"/>
<feColorMatrix type="matrix" values="0 0 0 0 0.0862745 0 0 0 0 0.498039 0 0 0 0 0.988235 0 0 0 1 0"/>
<feBlend mode="normal" in2="BackgroundImageFix" result="effect1_dropShadow_141_4643"/>
<feBlend mode="normal" in="SourceGraphic" in2="effect1_dropShadow_141_4643" result="shape"/>
</filter>
<filter id="filter1_d_141_4643" x="-30" y="-122" width="1340" height="156" filterUnits="userSpaceOnUse" color-interpolation-filters="sRGB">
<feFlood flood-opacity="0" result="BackgroundImageFix"/>
<feColorMatrix in="SourceAlpha" type="matrix" values="0 0 0 0 0 0 0 0 0 0 0 0 0 0 0 0 0 0 127 0" result="hardAlpha"/>
<feOffset dy="4"/>
<feGaussianBlur stdDeviation="15"/>
<feComposite in2="hardAlpha" operator="out"/>
<feColorMatrix type="matrix" values="0 0 0 0 0.0588235 0 0 0 0 0.227451 0 0 0 0 0.65098 0 0 0 1 0"/>
<feBlend mode="normal" in2="BackgroundImageFix" result="effect1_dropShadow_141_4643"/>
<feBlend mode="normal" in="SourceGraphic" in2="effect1_dropShadow_141_4643" result="shape"/>
</filter>
<radialGradient id="paint0_radial_141_4643" cx="0" cy="0" r="1" gradientUnits="userSpaceOnUse" gradientTransform="translate(647.892 987.713) rotate(-180) scale(801.608 801.052)">
<stop stop-color="#5BC7CE"/>
<stop offset="0.11" stop-color="#4198C0"/>
<stop offset="0.23" stop-color="#296BB3"/>
<stop offset="0.34" stop-color="#184AAA"/>
<stop offset="0.43" stop-color="#0D37A5"/>
<stop offset="0.49" stop-color="#0A30A3"/>
<stop offset="1" stop-color="#00152A"/>
</radialGradient>
<radialGradient id="paint1_radial_141_4643" cx="0" cy="0" r="1" gradientUnits="userSpaceOnUse" gradientTransform="translate(92.0343 712.404) rotate(52.5071) scale(400.315 400.176)">
<stop stop-color="#0A30A3"/>
<stop offset="1" stop-color="#00152A"/>
</radialGradient>
<linearGradient id="paint2_linear_141_4643" x1="0" y1="0" x2="1380.72" y2="420.843" gradientUnits="userSpaceOnUse">
<stop stop-color="#0A30A3"/>
<stop offset="0.585704" stop-color="#001447"/>
</linearGradient>
<radialGradient id="paint3_radial_141_4643" cx="0" cy="0" r="1" gradientUnits="userSpaceOnUse" gradientTransform="translate(80.0501 -121.617) scale(414.966)">
<stop stop-color="#0A30A3"/>
<stop offset="1" stop-color="#00152A"/>
</radialGradient>
<radialGradient id="paint4_radial_141_4643" cx="0" cy="0" r="1" gradientUnits="userSpaceOnUse" gradientTransform="translate(-32.5796 -54.4887) rotate(-44.832) scale(675.802 675.79)">
<stop stop-color="#5BC7CE"/>
<stop offset="0.11" stop-color="#4198C0"/>
<stop offset="0.23" stop-color="#296BB3"/>
<stop offset="0.34" stop-color="#184AAA"/>
<stop offset="0.43" stop-color="#0D37A5"/>
<stop offset="0.49" stop-color="#0A30A3"/>
<stop offset="1" stop-color="#00152A"/>
</radialGradient>
<radialGradient id="paint5_radial_141_4643" cx="0" cy="0" r="1" gradientUnits="userSpaceOnUse" gradientTransform="translate(1131.69 64.3775) rotate(39.5701) scale(392.832)">
<stop stop-color="#0A30A3"/>
<stop offset="1" stop-color="#00152A"/>
</radialGradient>
<linearGradient id="paint6_linear_141_4643" x1="1135.5" y1="704" x2="1353.5" y2="491.5" gradientUnits="userSpaceOnUse">
<stop stop-color="#0A30A3" stop-opacity="0.31"/>
<stop offset="1" stop-color="white" stop-opacity="0"/>
</linearGradient>
<linearGradient id="paint7_linear_141_4643" x1="1225.5" y1="689" x2="1443.5" y2="476.5" gradientUnits="userSpaceOnUse">
<stop stop-color="#0A30A3" stop-opacity="0.31"/>
<stop offset="1" stop-color="white" stop-opacity="0"/>
</linearGradient>
<clipPath id="clip0_141_4643">
<rect width="1280" height="748" fill="white"/>
</clipPath>
<clipPath id="clip1_141_4643">
<rect width="1280" height="477" fill="white" transform="translate(0 748)"/>
</clipPath>
</defs>
</svg>
