<svg width="320" height="716" viewBox="0 0 320 716" fill="none" xmlns="http://www.w3.org/2000/svg">
<g clip-path="url(#clip0_78_2719)">
<rect width="320" height="716" fill="#001447"/>
<rect width="320" height="184" fill="#011855"/>
<path d="M-6.00001 -120C-63.4392 -120 -110 -73.4393 -110 -16C-110 41.4392 -63.4392 88 -6.00001 88C51.4392 88 98 41.4392 98 -16C98 -73.4393 51.4392 -120 -6.00001 -120ZM-6.00001 46.8011C-40.6831 46.8011 -68.8011 18.6831 -68.8011 -16C-68.8011 -50.6831 -40.6831 -78.8011 -6.00001 -78.8011C28.6831 -78.8011 56.8011 -50.6831 56.8011 -16C56.8011 18.6831 28.6831 46.8011 -6.00001 46.8011Z" fill="url(#paint0_radial_78_2719)"/>
<g filter="url(#filter0_d_78_2719)">
<rect width="320" height="71" transform="translate(0 -71)" fill="#011855"/>
</g>
<path d="M225 20.8212C225 17.6068 227.607 15 230.821 15C234.036 15 236.642 17.6068 236.642 20.8212C236.642 24.0356 234.036 26.6424 230.821 26.6424C227.607 26.6424 225 24.0356 225 20.8212Z" stroke="#FF9149" stroke-width="3.92" stroke-miterlimit="10"/>
<path d="M294.404 93.7901L252.619 48.6079C252.548 48.6729 252.471 48.7301 252.401 48.7951C252.33 48.8601 252.267 48.9329 252.197 48.9979L293.983 94.1801C294.053 94.1151 294.13 94.0579 294.201 93.9929C294.271 93.9279 294.334 93.8551 294.404 93.7901Z" fill="#FF9149"/>
<path d="M245.59 58.0128C245.5 58.1975 245.41 58.3822 245.32 58.5743L283.906 100.297C284.097 100.229 284.288 100.147 284.487 100.072L245.59 58.0128Z" fill="#FF9149"/>
<path d="M250.582 50.6509C250.448 50.7962 250.315 50.9341 250.189 51.0797L291.758 96.0276C291.913 95.9132 292.06 95.791 292.216 95.6691L250.582 50.6509Z" fill="#FF9149"/>
<path d="M248.718 52.8889C248.599 53.0423 248.48 53.1957 248.361 53.3567L289.338 97.6643C289.507 97.5655 289.67 97.4514 289.832 97.3449L248.711 52.8811L248.718 52.8889Z" fill="#FF9149"/>
<path d="M244.362 60.9305C244.287 61.1307 244.211 61.3385 244.143 61.5391L280.851 101.232C281.064 101.18 281.27 101.12 281.475 101.06L244.362 60.9305Z" fill="#FF9149"/>
<path d="M247.049 55.3377C246.945 55.5067 246.84 55.6757 246.736 55.8523L286.73 99.0979C286.907 99.0069 287.084 98.916 287.268 98.8253L247.049 55.3377Z" fill="#FF9149"/>
<path d="M304.082 71.0908C304.078 70.7971 304.067 70.5032 304.056 70.2092L276.895 40.8399C276.603 40.806 276.311 40.772 276.018 40.7455L304.089 71.0986L304.082 71.0908Z" fill="#FF9149"/>
<path d="M273.845 102.162C274.101 102.157 274.358 102.145 274.606 102.139L242.758 67.7022C242.725 67.9569 242.701 68.2043 242.676 68.4592L273.845 102.162Z" fill="#FF9149"/>
<path d="M281.698 41.7802C281.355 41.684 281.005 41.5951 280.662 41.5139L303.671 66.3931C303.617 66.0447 303.555 65.6886 303.486 65.3396L281.698 41.7802Z" fill="#FF9149"/>
<path d="M243.394 64.1367C243.34 64.3604 243.293 64.592 243.239 64.8232L277.507 101.876C277.741 101.848 277.968 101.812 278.203 101.776L243.394 64.1367Z" fill="#FF9149"/>
<path d="M288.01 44.3601C287.524 44.0927 287.022 43.8398 286.527 43.6022L302.047 60.3834C301.849 59.8639 301.635 59.3513 301.407 58.8456L288.01 44.3601Z" fill="#FF9149"/>
<path d="M272.764 40.6259C272.507 40.631 272.251 40.6435 272.002 40.6489L303.851 75.0861C303.883 74.8314 303.908 74.5765 303.933 74.3291L272.764 40.6259Z" fill="#FF9149"/>
<path d="M269.094 40.9116C268.86 40.9401 268.633 40.9764 268.398 41.0124L303.207 78.6513C303.261 78.4276 303.308 78.196 303.362 77.9648L269.094 40.9116Z" fill="#FF9149"/>
<path d="M242.938 76.3952C242.992 76.7435 243.053 77.0997 243.122 77.4486L264.911 101.008C265.253 101.104 265.596 101.193 265.946 101.274L242.938 76.3952Z" fill="#FF9149"/>
<path d="M254.851 46.7607C254.696 46.875 254.548 46.9972 254.393 47.1191L296.027 92.1373C296.16 91.992 296.294 91.8542 296.42 91.7086L254.851 46.7607Z" fill="#FF9149"/>
<path d="M242.534 71.7053C242.537 71.9989 242.548 72.2929 242.56 72.5869L269.721 101.956C270.013 101.99 270.305 102.024 270.598 102.051L242.527 71.6974L242.534 71.7053Z" fill="#FF9149"/>
<path d="M258.599 98.4282C259.085 98.6956 259.587 98.9485 260.082 99.1861L244.562 82.4048C244.76 82.9244 244.973 83.437 245.202 83.9427L258.599 98.4282Z" fill="#FF9149"/>
<path d="M257.263 45.1237C257.094 45.2225 256.931 45.3366 256.769 45.4432L297.89 89.9069C298.009 89.7535 298.128 89.6001 298.247 89.4392L257.27 45.1316L257.263 45.1237Z" fill="#FF9149"/>
<path d="M259.878 43.6979C259.702 43.7814 259.525 43.8798 259.341 43.9704L299.559 87.4581C299.663 87.2891 299.768 87.1201 299.873 86.9435L259.878 43.6979Z" fill="#FF9149"/>
<path d="M265.757 41.5566C265.545 41.6085 265.339 41.6682 265.133 41.7279L302.246 81.8578C302.322 81.6575 302.398 81.4497 302.466 81.2491L265.757 41.5566Z" fill="#FF9149"/>
<path d="M262.702 42.4985C262.511 42.5663 262.32 42.6492 262.121 42.7242L301.018 84.7829C301.108 84.5982 301.198 84.4136 301.289 84.2214L262.702 42.4985Z" fill="#FF9149"/>
<g clip-path="url(#clip1_78_2719)" filter="url(#filter1_d_78_2719)">
<rect width="320" height="1343" transform="translate(0 716)" fill="#001447"/>
<path d="M360.201 789.2C382.145 767.256 382.145 731.677 360.201 709.733C338.256 687.789 302.678 687.789 280.734 709.733C258.789 731.677 258.789 767.256 280.734 789.2C302.678 811.145 338.256 811.145 360.201 789.2Z" fill="url(#paint1_radial_78_2719)" fill-opacity="0.3"/>
</g>
</g>
<defs>
<filter id="filter0_d_78_2719" x="-30" y="-97" width="380" height="131" filterUnits="userSpaceOnUse" color-interpolation-filters="sRGB">
<feFlood flood-opacity="0" result="BackgroundImageFix"/>
<feColorMatrix in="SourceAlpha" type="matrix" values="0 0 0 0 0 0 0 0 0 0 0 0 0 0 0 0 0 0 127 0" result="hardAlpha"/>
<feOffset dy="4"/>
<feGaussianBlur stdDeviation="15"/>
<feComposite in2="hardAlpha" operator="out"/>
<feColorMatrix type="matrix" values="0 0 0 0 0.0588235 0 0 0 0 0.227451 0 0 0 0 0.65098 0 0 0 1 0"/>
<feBlend mode="normal" in2="BackgroundImageFix" result="effect1_dropShadow_78_2719"/>
<feBlend mode="normal" in="SourceGraphic" in2="effect1_dropShadow_78_2719" result="shape"/>
</filter>
<filter id="filter1_d_78_2719" x="-30" y="690" width="380" height="1403" filterUnits="userSpaceOnUse" color-interpolation-filters="sRGB">
<feFlood flood-opacity="0" result="BackgroundImageFix"/>
<feColorMatrix in="SourceAlpha" type="matrix" values="0 0 0 0 0 0 0 0 0 0 0 0 0 0 0 0 0 0 127 0" result="hardAlpha"/>
<feOffset dy="4"/>
<feGaussianBlur stdDeviation="15"/>
<feComposite in2="hardAlpha" operator="out"/>
<feColorMatrix type="matrix" values="0 0 0 0 0.0862745 0 0 0 0 0.498039 0 0 0 0 0.988235 0 0 0 1 0"/>
<feBlend mode="normal" in2="BackgroundImageFix" result="effect1_dropShadow_78_2719"/>
<feBlend mode="normal" in="SourceGraphic" in2="effect1_dropShadow_78_2719" result="shape"/>
</filter>
<radialGradient id="paint0_radial_78_2719" cx="0" cy="0" r="1" gradientUnits="userSpaceOnUse" gradientTransform="translate(8.06604 -102.641) scale(215.782)">
<stop stop-color="#0A30A3"/>
<stop offset="1" stop-color="#00152A"/>
</radialGradient>
<radialGradient id="paint1_radial_78_2719" cx="0" cy="0" r="1" gradientUnits="userSpaceOnUse" gradientTransform="translate(191.456 843.098) rotate(180) scale(386.551)">
<stop stop-color="#5BC7CE"/>
<stop offset="0.11" stop-color="#4198C0"/>
<stop offset="0.23" stop-color="#296BB3"/>
<stop offset="0.34" stop-color="#184AAA"/>
<stop offset="0.43" stop-color="#0D37A5"/>
<stop offset="0.49" stop-color="#0A30A3"/>
<stop offset="1" stop-color="#00152A"/>
</radialGradient>
<clipPath id="clip0_78_2719">
<rect width="320" height="716" fill="white"/>
</clipPath>
<clipPath id="clip1_78_2719">
<rect width="320" height="1343" fill="white" transform="translate(0 716)"/>
</clipPath>
</defs>
</svg>
