<svg width="428" height="645" viewBox="0 0 428 645" fill="none" xmlns="http://www.w3.org/2000/svg">
<g clip-path="url(#clip0_78_2575)">
<rect width="428" height="645" fill="#001447"/>
<rect width="428" height="192" fill="#011855"/>
<path d="M-7.00001 -182C-83.7698 -182 -146 -119.77 -146 -43C-146 33.7698 -83.7698 96 -7.00001 96C69.7697 96 132 33.7698 132 -43C132 -119.77 69.7697 -182 -7.00001 -182ZM-7.00001 40.9361C-53.3553 40.9361 -90.9361 3.35529 -90.9361 -43C-90.9361 -89.3553 -53.3553 -126.936 -7.00001 -126.936C39.3553 -126.936 76.9361 -89.3553 76.9361 -43C76.9361 3.35529 39.3553 40.9361 -7.00001 40.9361Z" fill="url(#paint0_radial_78_2575)"/>
<path d="M376.482 94.7764L334.697 49.5942C334.626 49.6592 334.549 49.7164 334.479 49.7814C334.408 49.8464 334.345 49.9192 334.275 49.9842L376.061 95.1664C376.131 95.1014 376.208 95.0442 376.279 94.9792C376.349 94.9142 376.412 94.8414 376.482 94.7764Z" fill="#FF9149"/>
<path d="M327.668 58.9992C327.578 59.1838 327.488 59.3685 327.398 59.5607L365.984 101.284C366.175 101.216 366.366 101.133 366.565 101.058L327.668 58.9992Z" fill="#FF9149"/>
<path d="M332.66 51.6372C332.526 51.7826 332.393 51.9204 332.267 52.066L373.836 97.0139C373.991 96.8995 374.139 96.7774 374.294 96.6555L332.66 51.6372Z" fill="#FF9149"/>
<path d="M330.796 53.8752C330.677 54.0286 330.558 54.1821 330.439 54.343L371.416 98.6506C371.585 98.5518 371.748 98.4378 371.91 98.3312L330.789 53.8674L330.796 53.8752Z" fill="#FF9149"/>
<path d="M326.44 61.9168C326.365 62.1171 326.289 62.3249 326.221 62.5254L362.929 102.218C363.142 102.166 363.348 102.106 363.553 102.047L326.44 61.9168Z" fill="#FF9149"/>
<path d="M329.127 56.324C329.023 56.493 328.919 56.662 328.814 56.8386L368.808 100.084C368.985 99.9932 369.162 99.9023 369.346 99.8116L329.127 56.324Z" fill="#FF9149"/>
<path d="M386.16 72.0772C386.157 71.7835 386.146 71.4895 386.134 71.1955L358.973 41.8263C358.681 41.7923 358.389 41.7583 358.096 41.7318L386.167 72.085L386.16 72.0772Z" fill="#FF9149"/>
<path d="M355.923 103.149C356.179 103.144 356.436 103.131 356.684 103.126L324.836 68.6885C324.803 68.9432 324.779 69.1906 324.754 69.4455L355.923 103.149Z" fill="#FF9149"/>
<path d="M363.776 42.7665C363.434 42.6704 363.083 42.5814 362.74 42.5003L385.749 67.3794C385.695 67.0311 385.634 66.6749 385.564 66.326L363.776 42.7665Z" fill="#FF9149"/>
<path d="M325.472 65.1231C325.418 65.3468 325.371 65.5783 325.317 65.8095L359.585 102.863C359.819 102.834 360.047 102.798 360.281 102.762L325.472 65.1231Z" fill="#FF9149"/>
<path d="M370.088 45.3464C369.602 45.079 369.1 44.8261 368.605 44.5885L384.125 61.3698C383.927 60.8502 383.713 60.3376 383.485 59.8319L370.088 45.3464Z" fill="#FF9149"/>
<path d="M354.842 41.6123C354.586 41.6173 354.329 41.6298 354.081 41.6352L385.929 76.0724C385.961 75.8177 385.986 75.5628 386.011 75.3154L354.842 41.6123Z" fill="#FF9149"/>
<path d="M351.172 41.898C350.938 41.9264 350.711 41.9628 350.476 41.9988L385.285 79.6376C385.339 79.4139 385.386 79.1823 385.44 78.9511L351.172 41.898Z" fill="#FF9149"/>
<path d="M325.016 77.3815C325.07 77.7299 325.131 78.086 325.2 78.435L346.989 101.994C347.331 102.091 347.674 102.179 348.025 102.261L325.016 77.3815Z" fill="#FF9149"/>
<path d="M336.929 47.747C336.774 47.8614 336.626 47.9835 336.471 48.1054L378.105 93.1237C378.239 92.9783 378.372 92.8405 378.498 92.6949L336.929 47.747Z" fill="#FF9149"/>
<path d="M324.612 72.6916C324.615 72.9853 324.627 73.2792 324.638 73.5732L351.799 102.942C352.091 102.976 352.383 103.01 352.676 103.037L324.605 72.6838L324.612 72.6916Z" fill="#FF9149"/>
<path d="M340.677 99.4145C341.163 99.6819 341.665 99.9348 342.16 100.172L326.64 83.3911C326.838 83.9107 327.052 84.4233 327.28 84.929L340.677 99.4145Z" fill="#FF9149"/>
<path d="M339.341 46.1101C339.172 46.2088 339.009 46.3229 338.847 46.4295L379.968 90.8933C380.087 90.7398 380.206 90.5864 380.325 90.4255L339.349 46.1179L339.341 46.1101Z" fill="#FF9149"/>
<path d="M341.956 44.6842C341.78 44.7677 341.603 44.8661 341.419 44.9568L381.637 88.4444C381.742 88.2754 381.846 88.1064 381.951 87.9298L341.956 44.6842Z" fill="#FF9149"/>
<path d="M347.835 42.5429C347.623 42.5948 347.417 42.6545 347.212 42.7142L384.325 82.8441C384.4 82.6438 384.476 82.436 384.544 82.2354L347.835 42.5429Z" fill="#FF9149"/>
<path d="M344.78 43.4848C344.59 43.5526 344.398 43.6355 344.2 43.7105L383.096 85.7692C383.186 85.5845 383.276 85.3999 383.367 85.2077L344.78 43.4848Z" fill="#FF9149"/>
<path d="M307 23.8212C307 20.6068 309.607 18 312.821 18C316.036 18 318.642 20.6068 318.642 23.8212C318.642 27.0356 316.036 29.6424 312.821 29.6424C309.607 29.6424 307 27.0356 307 23.8212Z" stroke="#FF9149" stroke-width="3.92" stroke-miterlimit="10"/>
<g filter="url(#filter0_d_78_2575)">
<mask id="path-5-inside-1_78_2575" fill="white">
<path d="M0 -71H428V0H0V-71Z"/>
</mask>
<path d="M0 -71H428V0H0V-71Z" fill="#011855" shape-rendering="crispEdges"/>
<path d="M428 -2H0V2H428V-2Z" fill="#0C36A5" mask="url(#path-5-inside-1_78_2575)"/>
</g>
<g clip-path="url(#clip1_78_2575)" filter="url(#filter1_d_78_2575)">
<rect width="428" height="1324" transform="translate(0 645)" fill="#001447"/>
<path d="M518.02 756.02C563.495 710.545 563.495 636.815 518.02 591.34C472.545 545.865 398.815 545.865 353.34 591.34C307.865 636.815 307.865 710.545 353.34 756.02C398.815 801.495 472.545 801.495 518.02 756.02Z" fill="url(#paint1_radial_78_2575)" fill-opacity="0.3"/>
</g>
<g opacity="0.6">
<path d="M346.645 323.328L285.781 306.98" stroke="#1E6AC6" stroke-opacity="0.6" stroke-width="8.4" stroke-linecap="round"/>
<path d="M269.551 302.619L267.522 302.074" stroke="#179F0C" stroke-opacity="0.6" stroke-width="8.4" stroke-linecap="round"/>
<path d="M244.24 380.654L234.096 377.93" stroke="#179F0C" stroke-opacity="0.6" stroke-width="8.4" stroke-linecap="round"/>
<path d="M222.436 316.066L216.349 314.432" stroke="#179F0C" stroke-opacity="0.6" stroke-width="8.4" stroke-linecap="round"/>
<path d="M238.605 353.037L235.707 352.259" stroke="#179F0C" stroke-opacity="0.6" stroke-width="8.4" stroke-linecap="round"/>
<path d="M301.559 337.32L244.752 322.062" stroke="#1E6AC6" stroke-opacity="0.6" stroke-width="8.4" stroke-linecap="round"/>
<path d="M289.326 366.662L254.837 357.398" stroke="#1E6AC6" stroke-opacity="0.6" stroke-width="8.4" stroke-linecap="round"/>
<path d="M296.988 394.822L262.499 385.558" stroke="#1E6AC6" stroke-opacity="0.6" stroke-width="8.4" stroke-linecap="round"/>
<path d="M303.1 388.412C305.367 392.29 304.089 397.322 300.245 399.651C296.403 401.98 291.449 400.724 289.182 396.846C288.884 396.34 288.595 395.827 288.316 395.314C281.447 382.701 280.112 368.578 283.558 355.748C287.004 342.917 295.236 331.365 307.501 323.89C308 323.587 308.507 323.288 309.018 322.999C322.05 315.63 336.877 314.178 350.309 317.786C363.744 321.394 375.845 330.08 383.431 342.987C383.729 343.493 384.018 344.006 384.298 344.518C391.166 357.132 392.502 371.255 389.055 384.085C385.609 396.916 377.377 408.468 365.113 415.943C364.613 416.247 364.107 416.545 363.595 416.833C359.69 419.054 354.776 417.659 352.616 413.718C350.458 409.777 351.872 404.782 355.777 402.561C356.159 402.344 356.536 402.123 356.905 401.899C365.361 396.745 371.04 388.761 373.424 379.886C375.808 371.01 374.892 361.254 370.158 352.56C369.952 352.179 369.736 351.798 369.513 351.421C365.647 344.843 360.067 339.814 353.641 336.57L344.12 372.015C342.942 376.401 338.488 379.016 334.172 377.857C329.856 376.698 327.312 372.203 328.49 367.817L338.011 332.371C330.824 331.96 323.475 333.515 316.833 337.27C316.451 337.487 316.074 337.709 315.704 337.933C307.249 343.086 301.57 351.071 299.186 359.945C296.802 368.822 297.716 378.577 302.452 387.272C302.658 387.653 302.875 388.032 303.097 388.411L303.1 388.412Z" fill="#1E6AC6" fill-opacity="0.9"/>
</g>
</g>
<defs>
<filter id="filter0_d_78_2575" x="-30" y="-101" width="488" height="131" filterUnits="userSpaceOnUse" color-interpolation-filters="sRGB">
<feFlood flood-opacity="0" result="BackgroundImageFix"/>
<feColorMatrix in="SourceAlpha" type="matrix" values="0 0 0 0 0 0 0 0 0 0 0 0 0 0 0 0 0 0 127 0" result="hardAlpha"/>
<feOffset/>
<feGaussianBlur stdDeviation="15"/>
<feComposite in2="hardAlpha" operator="out"/>
<feColorMatrix type="matrix" values="0 0 0 0 0.0588235 0 0 0 0 0.227451 0 0 0 0 0.65098 0 0 0 1 0"/>
<feBlend mode="normal" in2="BackgroundImageFix" result="effect1_dropShadow_78_2575"/>
<feBlend mode="normal" in="SourceGraphic" in2="effect1_dropShadow_78_2575" result="shape"/>
</filter>
<filter id="filter1_d_78_2575" x="-30" y="619" width="488" height="1384" filterUnits="userSpaceOnUse" color-interpolation-filters="sRGB">
<feFlood flood-opacity="0" result="BackgroundImageFix"/>
<feColorMatrix in="SourceAlpha" type="matrix" values="0 0 0 0 0 0 0 0 0 0 0 0 0 0 0 0 0 0 127 0" result="hardAlpha"/>
<feOffset dy="4"/>
<feGaussianBlur stdDeviation="15"/>
<feComposite in2="hardAlpha" operator="out"/>
<feColorMatrix type="matrix" values="0 0 0 0 0.0862745 0 0 0 0 0.498039 0 0 0 0 0.988235 0 0 0 1 0"/>
<feBlend mode="normal" in2="BackgroundImageFix" result="effect1_dropShadow_78_2575"/>
<feBlend mode="normal" in="SourceGraphic" in2="effect1_dropShadow_78_2575" result="shape"/>
</filter>
<radialGradient id="paint0_radial_78_2575" cx="0" cy="0" r="1" gradientUnits="userSpaceOnUse" gradientTransform="translate(11.7998 -158.799) scale(288.401)">
<stop stop-color="#0A30A3"/>
<stop offset="1" stop-color="#00152A"/>
</radialGradient>
<radialGradient id="paint1_radial_78_2575" cx="0" cy="0" r="1" gradientUnits="userSpaceOnUse" gradientTransform="translate(168.331 867.713) rotate(-180) scale(801.052)">
<stop stop-color="#5BC7CE"/>
<stop offset="0.11" stop-color="#4198C0"/>
<stop offset="0.23" stop-color="#296BB3"/>
<stop offset="0.34" stop-color="#184AAA"/>
<stop offset="0.43" stop-color="#0D37A5"/>
<stop offset="0.49" stop-color="#0A30A3"/>
<stop offset="1" stop-color="#00152A"/>
</radialGradient>
<clipPath id="clip0_78_2575">
<rect width="428" height="645" fill="white"/>
</clipPath>
<clipPath id="clip1_78_2575">
<rect width="428" height="1324" fill="white" transform="translate(0 645)"/>
</clipPath>
</defs>
</svg>
