<svg width="1920" height="790" viewBox="0 0 1920 790" fill="none" xmlns="http://www.w3.org/2000/svg">
<g clip-path="url(#clip0_30_423)">
<rect width="1920" height="790" fill="url(#paint0_linear_30_423)"/>
<rect width="1920" height="790" fill="#011855"/>
<path opacity="0.36" d="M1994.25 288.845C2015.25 309.972 2015.25 344.226 1994.25 365.328L1564.82 797.155C1543.82 818.282 1509.76 818.282 1488.75 797.155C1467.75 776.028 1467.75 741.774 1488.75 720.672L1918.18 288.845C1939.18 267.718 1973.24 267.718 1994.22 288.845H1994.25Z" fill="url(#paint1_radial_30_423)"/>
<path opacity="0.94" d="M1734.41 424.341C1946.73 531.942 2201.76 455.538 2304.06 253.682C2406.36 51.8258 2317.18 -199.022 2104.86 -306.623C1892.54 -414.224 1637.51 -337.819 1535.22 -135.963C1432.92 65.8926 1522.1 316.741 1734.41 424.341ZM2031.49 -161.84C2159.69 -96.868 2213.54 54.619 2151.77 176.504C2090 298.389 1935.99 344.53 1807.79 279.558C1679.59 214.586 1625.73 63.0994 1687.5 -58.7857C1749.27 -180.671 1903.28 -226.811 2031.49 -161.84Z" fill="url(#paint2_radial_30_423)"/>
<path d="M539.654 635.762C540.67 636.778 540.67 638.426 539.654 639.442L420.442 758.654C419.426 759.67 417.778 759.67 416.762 758.654C415.746 757.638 415.746 755.99 416.762 754.974L535.974 635.762C536.99 634.746 538.638 634.746 539.654 635.762Z" fill="url(#paint3_linear_30_423)" style="mix-blend-mode:overlay"/>
<path d="M213.139 186.858C211.277 184.996 208.258 184.996 206.396 186.858C204.534 188.72 204.534 191.739 206.396 193.601C208.258 195.463 211.277 195.463 213.139 193.601C215.001 191.739 215.001 188.72 213.139 186.858Z" fill="#05C0C7"/>
<path d="M243.009 156.988C241.147 155.126 238.129 155.126 236.267 156.988C234.405 158.85 234.405 161.869 236.267 163.731C238.129 165.593 241.147 165.593 243.009 163.731C244.871 161.869 244.871 158.85 243.009 156.988Z" fill="#05C0C7"/>
<path d="M272.86 127.118C270.998 125.256 267.979 125.256 266.117 127.118C264.255 128.98 264.255 131.999 266.117 133.861C267.979 135.723 270.998 135.723 272.86 133.861C274.722 131.999 274.722 128.98 272.86 127.118Z" fill="#05C0C7"/>
<path d="M302.731 97.2666C300.869 95.4046 297.85 95.4046 295.988 97.2666C294.126 99.1286 294.126 102.147 295.988 104.009C297.85 105.871 300.869 105.871 302.731 104.009C304.593 102.147 304.593 99.1286 302.731 97.2666Z" fill="#05C0C7"/>
<path d="M325.858 74.1389C327.72 76.0009 330.739 76.0009 332.601 74.1389C334.463 72.2769 334.463 69.2585 332.601 67.3965C330.739 65.5345 327.72 65.5345 325.858 67.3965C323.996 69.2585 323.996 72.2769 325.858 74.1389Z" fill="#05C0C7"/>
<path d="M1359.21 759.331C1364.3 759.331 1368.42 755.207 1368.42 750.119C1368.42 745.032 1364.3 740.907 1359.21 740.907C1354.12 740.907 1350 745.032 1350 750.119C1350 755.207 1354.12 759.331 1359.21 759.331Z" stroke="white" stroke-width="3.92" stroke-miterlimit="10"/>
<path d="M1729.2 382.117C1732.02 384.939 1732.02 389.526 1729.2 392.368L1397.24 724.333C1394.41 727.155 1389.83 727.155 1386.99 724.333C1384.16 721.51 1384.16 716.924 1386.99 714.082L1718.95 382.117C1721.77 379.294 1726.36 379.294 1729.2 382.117Z" fill="url(#paint4_linear_30_423)" style="mix-blend-mode:overlay"/>
<path d="M1652.63 634.347C1650.77 632.485 1647.75 632.485 1645.88 634.347C1644.02 636.209 1644.02 639.227 1645.88 641.089C1647.75 642.951 1650.77 642.951 1652.63 641.089C1654.49 639.227 1654.49 636.209 1652.63 634.347Z" fill="#3B6DE9"/>
<path d="M1682.5 604.477C1680.64 602.615 1677.62 602.615 1675.75 604.477C1673.89 606.339 1673.89 609.357 1675.75 611.219C1677.62 613.081 1680.64 613.081 1682.5 611.219C1684.36 609.357 1684.36 606.339 1682.5 604.477Z" fill="#3B6DE9"/>
<path d="M1712.35 574.606C1710.49 572.744 1707.47 572.744 1705.61 574.606C1703.74 576.468 1703.74 579.487 1705.61 581.349C1707.47 583.211 1710.49 583.211 1712.35 581.349C1714.21 579.487 1714.21 576.468 1712.35 574.606Z" fill="#3B6DE9"/>
<path d="M1742.22 544.755C1740.36 542.893 1737.34 542.893 1735.48 544.755C1733.61 546.617 1733.61 549.635 1735.48 551.497C1737.34 553.359 1740.36 553.359 1742.22 551.497C1744.08 549.635 1744.08 546.617 1742.22 544.755Z" fill="#3B6DE9"/>
<path d="M1765.35 521.627C1767.21 523.489 1770.23 523.489 1772.09 521.627C1773.95 519.765 1773.95 516.747 1772.09 514.885C1770.23 513.023 1767.21 513.023 1765.35 514.885C1763.48 516.747 1763.48 519.765 1765.35 521.627Z" fill="#3B6DE9"/>
</g>
<defs>
<linearGradient id="paint0_linear_30_423" x1="960" y1="0" x2="960" y2="790" gradientUnits="userSpaceOnUse">
<stop offset="0.729167" stop-color="#01164E"/>
<stop offset="1" stop-color="#092E9C"/>
</linearGradient>
<radialGradient id="paint1_radial_30_423" cx="0" cy="0" r="1" gradientUnits="userSpaceOnUse" gradientTransform="translate(1375.68 871.009) rotate(-134.825) scale(1621.98 1621.95)">
<stop stop-color="#5BC7CE"/>
<stop offset="0.11" stop-color="#4198C0"/>
<stop offset="0.23" stop-color="#296BB3"/>
<stop offset="0.34" stop-color="#184AAA"/>
<stop offset="0.43" stop-color="#0D37A5"/>
<stop offset="0.49" stop-color="#0A30A3"/>
<stop offset="1" stop-color="#00152A"/>
</radialGradient>
<radialGradient id="paint2_radial_30_423" cx="0" cy="0" r="1" gradientUnits="userSpaceOnUse" gradientTransform="translate(1713.34 336.987) rotate(-153.124) scale(894.193 850.137)">
<stop stop-color="#0A30A3"/>
<stop offset="1" stop-color="#00152A"/>
</radialGradient>
<linearGradient id="paint3_linear_30_423" x1="499.104" y1="671.77" x2="419.36" y2="753.812" gradientUnits="userSpaceOnUse">
<stop offset="0.17" stop-color="#0A30A3"/>
<stop offset="1" stop-color="white"/>
</linearGradient>
<linearGradient id="paint4_linear_30_423" x1="1407.37" y1="726" x2="1625.37" y2="513.5" gradientUnits="userSpaceOnUse">
<stop stop-color="#0A30A3" stop-opacity="0.31"/>
<stop offset="1" stop-color="white" stop-opacity="0"/>
</linearGradient>
<clipPath id="clip0_30_423">
<rect width="1920" height="790" fill="white"/>
</clipPath>
</defs>
</svg>
