<svg width="1280" height="622" viewBox="0 0 1280 622" fill="none" xmlns="http://www.w3.org/2000/svg">
<g clip-path="url(#clip0_51_4640)">
<rect width="1280" height="622" fill="#001447"/>
<g clip-path="url(#clip1_51_4640)" filter="url(#filter0_d_51_4640)">
<rect width="1280" height="477" transform="translate(0 622)" fill="#001447"/>
<path d="M997.824 750.02C1043.33 704.545 1043.33 630.815 997.824 585.34C952.318 539.865 878.537 539.865 833.03 585.34C787.523 630.815 787.523 704.545 833.03 750.02C878.537 795.495 952.318 795.495 997.824 750.02Z" fill="url(#paint0_radial_51_4640)" fill-opacity="0.3"/>
<path opacity="0.94" d="M101.708 546.12C36.8488 461.572 -84.2696 445.553 -168.827 510.339C-253.385 575.125 -269.352 696.176 -204.493 780.724C-139.634 865.271 -18.5156 881.291 66.0419 816.505C150.599 751.719 166.567 630.668 101.708 546.12ZM-143.843 734.255C-183.007 683.203 -173.364 610.101 -122.306 570.982C-71.2485 531.863 1.89479 541.537 41.0582 592.589C80.2215 643.64 70.5787 716.743 19.521 755.862C-31.5367 794.981 -104.68 785.307 -143.843 734.255Z" fill="url(#paint1_radial_51_4640)"/>
</g>
<path d="M1281 0H0V622H1281V0Z" fill="url(#paint2_linear_51_4640)"/>
<path opacity="0.94" d="M53 -155C-57.4601 -155 -147 -65.4601 -147 45C-147 155.46 -57.4601 245 53 245C163.46 245 253 155.46 253 45C253 -65.4601 163.46 -155 53 -155ZM53 165.771C-13.6983 165.771 -67.7713 111.698 -67.7713 45C-67.7713 -21.6982 -13.6983 -75.7713 53 -75.7713C119.698 -75.7713 173.771 -21.6982 173.771 45C173.771 111.698 119.698 165.771 53 165.771Z" fill="url(#paint3_radial_51_4640)"/>
<path d="M118 81.7785L90.1542 54.0956C66.0533 76.8207 28.0016 76.4521 4.37344 52.9621C-19.2547 29.4721 -19.6162 -8.35706 3.23329 -32.317L-24.6125 -60C-62.8403 -20.7609 -62.4603 41.8575 -23.4631 80.6358C15.534 119.405 78.5208 119.783 118 81.7785Z" fill="url(#paint4_radial_51_4640)" fill-opacity="0.2"/>
<g opacity="0.6">
<path d="M1040.54 220.859L863.562 185.371" stroke="#1E6AC6" stroke-opacity="0.6" stroke-width="8.4" stroke-linecap="round"/>
<path d="M816.367 175.906L810.468 174.723" stroke="#179F0C" stroke-opacity="0.6" stroke-width="8.4" stroke-linecap="round"/>
<path d="M758.438 403.612L728.941 397.698" stroke="#179F0C" stroke-opacity="0.6" stroke-width="8.4" stroke-linecap="round"/>
<path d="M684.188 223.037L666.49 219.488" stroke="#179F0C" stroke-opacity="0.6" stroke-width="8.4" stroke-linecap="round"/>
<path d="M737.234 325.723L728.807 324.033" stroke="#179F0C" stroke-opacity="0.6" stroke-width="8.4" stroke-linecap="round"/>
<path d="M914.258 269.172L749.079 236.049" stroke="#1E6AC6" stroke-opacity="0.6" stroke-width="8.4" stroke-linecap="round"/>
<path d="M884.711 355.297L784.424 335.187" stroke="#1E6AC6" stroke-opacity="0.6" stroke-width="8.4" stroke-linecap="round"/>
<path d="M911.812 434.368L811.525 414.258" stroke="#1E6AC6" stroke-opacity="0.6" stroke-width="8.4" stroke-linecap="round"/>
<path d="M928.098 414.92C935.293 425.587 932.569 440.204 922.013 447.569C911.462 454.936 897.072 452.261 889.877 441.594C888.932 440.203 888.011 438.79 887.117 437.378C865.157 402.594 858.732 362.476 866.213 325.169C873.694 287.861 895.09 253.322 928.763 229.694C930.133 228.735 931.527 227.787 932.935 226.868C968.823 203.399 1010.93 196.511 1049.99 204.343C1089.05 212.176 1125.25 234.766 1149.31 270.256C1150.26 271.648 1151.18 273.06 1152.07 274.473C1174.03 309.257 1180.46 349.374 1172.97 386.682C1165.49 423.99 1144.1 458.529 1110.42 482.157C1109.05 483.121 1107.66 484.064 1106.25 484.983C1095.5 492.051 1081.2 488.972 1074.3 478.106C1067.4 467.242 1070.52 452.703 1081.27 445.635C1082.32 444.945 1083.36 444.241 1084.37 443.533C1107.59 427.242 1122.35 403.374 1127.52 377.568C1132.7 351.757 1128.28 324.043 1113.14 300.067C1112.48 299.018 1111.79 297.968 1111.09 296.931C1098.82 278.844 1081.94 265.503 1062.98 257.414L1042.31 360.481C1039.75 373.235 1027.51 381.531 1014.96 379.014C1002.41 376.498 994.307 364.121 996.865 351.368L1017.53 248.301C996.915 248.452 976.198 254.254 957.908 266.214C956.856 266.904 955.817 267.608 954.804 268.316C931.588 284.607 916.83 308.475 911.656 334.281C906.48 360.092 910.894 387.805 926.035 411.782C926.696 412.831 927.384 413.876 928.088 414.918L928.098 414.92Z" fill="#1E6AC6" fill-opacity="0.9"/>
</g>
<path opacity="0.94" d="M1149.63 122.807C1213.49 175.581 1308.04 166.594 1360.81 102.733C1413.58 38.8725 1404.6 -55.6727 1340.74 -108.447C1276.88 -161.221 1182.33 -152.234 1129.56 -88.3731C1076.78 -24.5123 1085.77 70.033 1149.63 122.807ZM1302.88 -62.6419C1341.44 -30.7758 1346.87 26.32 1315.01 64.8806C1283.14 103.441 1226.04 108.868 1187.48 77.0022C1148.92 45.1361 1143.49 -11.9598 1175.36 -50.5203C1207.23 -89.0809 1264.32 -94.5081 1302.88 -62.6419Z" fill="url(#paint5_radial_51_4640)"/>
<g filter="url(#filter1_d_51_4640)">
<rect y="-96" width="1280" height="96" fill="#01164E"/>
</g>
<path style="mix-blend-mode:overlay" d="M-163.279 293.618C-160.775 289.143 -155.116 287.545 -150.641 290.049L374.373 583.855C378.848 586.359 380.445 592.018 377.941 596.493C375.437 600.968 369.778 602.565 365.303 600.061L-159.71 306.256C-164.185 303.752 -165.783 298.093 -163.279 293.618Z" fill="url(#paint6_linear_51_4640)"/>
<path d="M-167.392 185.607C-165.443 182.124 -161.029 180.878 -157.527 182.821L252.155 412.086C255.639 414.035 256.885 418.449 254.941 421.951C252.992 425.434 248.578 426.68 245.076 424.736L-164.606 195.472C-168.09 193.523 -169.336 189.109 -167.392 185.607Z" fill="url(#paint7_linear_51_4640)" style="mix-blend-mode:overlay"/>
</g>
<defs>
<filter id="filter0_d_51_4640" x="-30" y="596" width="1340" height="537" filterUnits="userSpaceOnUse" color-interpolation-filters="sRGB">
<feFlood flood-opacity="0" result="BackgroundImageFix"/>
<feColorMatrix in="SourceAlpha" type="matrix" values="0 0 0 0 0 0 0 0 0 0 0 0 0 0 0 0 0 0 127 0" result="hardAlpha"/>
<feOffset dy="4"/>
<feGaussianBlur stdDeviation="15"/>
<feComposite in2="hardAlpha" operator="out"/>
<feColorMatrix type="matrix" values="0 0 0 0 0.0862745 0 0 0 0 0.498039 0 0 0 0 0.988235 0 0 0 1 0"/>
<feBlend mode="normal" in2="BackgroundImageFix" result="effect1_dropShadow_51_4640"/>
<feBlend mode="normal" in="SourceGraphic" in2="effect1_dropShadow_51_4640" result="shape"/>
</filter>
<filter id="filter1_d_51_4640" x="-30" y="-122" width="1340" height="156" filterUnits="userSpaceOnUse" color-interpolation-filters="sRGB">
<feFlood flood-opacity="0" result="BackgroundImageFix"/>
<feColorMatrix in="SourceAlpha" type="matrix" values="0 0 0 0 0 0 0 0 0 0 0 0 0 0 0 0 0 0 127 0" result="hardAlpha"/>
<feOffset dy="4"/>
<feGaussianBlur stdDeviation="15"/>
<feComposite in2="hardAlpha" operator="out"/>
<feColorMatrix type="matrix" values="0 0 0 0 0.0588235 0 0 0 0 0.227451 0 0 0 0 0.65098 0 0 0 1 0"/>
<feBlend mode="normal" in2="BackgroundImageFix" result="effect1_dropShadow_51_4640"/>
<feBlend mode="normal" in="SourceGraphic" in2="effect1_dropShadow_51_4640" result="shape"/>
</filter>
<radialGradient id="paint0_radial_51_4640" cx="0" cy="0" r="1" gradientUnits="userSpaceOnUse" gradientTransform="translate(647.892 861.713) rotate(-180) scale(801.608 801.052)">
<stop stop-color="#5BC7CE"/>
<stop offset="0.11" stop-color="#4198C0"/>
<stop offset="0.23" stop-color="#296BB3"/>
<stop offset="0.34" stop-color="#184AAA"/>
<stop offset="0.43" stop-color="#0D37A5"/>
<stop offset="0.49" stop-color="#0A30A3"/>
<stop offset="1" stop-color="#00152A"/>
</radialGradient>
<radialGradient id="paint1_radial_51_4640" cx="0" cy="0" r="1" gradientUnits="userSpaceOnUse" gradientTransform="translate(92.0363 586.404) rotate(52.5071) scale(400.315 400.176)">
<stop stop-color="#0A30A3"/>
<stop offset="1" stop-color="#00152A"/>
</radialGradient>
<linearGradient id="paint2_linear_51_4640" x1="0" y1="0" x2="1330.26" y2="487.6" gradientUnits="userSpaceOnUse">
<stop stop-color="#0A30A3"/>
<stop offset="0.585704" stop-color="#001447"/>
</linearGradient>
<radialGradient id="paint3_radial_51_4640" cx="0" cy="0" r="1" gradientUnits="userSpaceOnUse" gradientTransform="translate(80.0501 -121.617) scale(414.966)">
<stop stop-color="#0A30A3"/>
<stop offset="1" stop-color="#00152A"/>
</radialGradient>
<radialGradient id="paint4_radial_51_4640" cx="0" cy="0" r="1" gradientUnits="userSpaceOnUse" gradientTransform="translate(-32.5796 -54.4887) rotate(-44.832) scale(675.802 675.79)">
<stop stop-color="#5BC7CE"/>
<stop offset="0.11" stop-color="#4198C0"/>
<stop offset="0.23" stop-color="#296BB3"/>
<stop offset="0.34" stop-color="#184AAA"/>
<stop offset="0.43" stop-color="#0D37A5"/>
<stop offset="0.49" stop-color="#0A30A3"/>
<stop offset="1" stop-color="#00152A"/>
</radialGradient>
<radialGradient id="paint5_radial_51_4640" cx="0" cy="0" r="1" gradientUnits="userSpaceOnUse" gradientTransform="translate(1131.69 64.3775) rotate(39.5701) scale(392.832)">
<stop stop-color="#0A30A3"/>
<stop offset="1" stop-color="#00152A"/>
</radialGradient>
<linearGradient id="paint6_linear_51_4640" x1="-0.274737" y1="397.956" x2="369.574" y2="559.793" gradientUnits="userSpaceOnUse">
<stop offset="0.17" stop-color="#0A30A3"/>
<stop offset="1" stop-color="white"/>
</linearGradient>
<linearGradient id="paint7_linear_51_4640" x1="251.006" y1="401.881" x2="-12.737" y2="249.83" gradientUnits="userSpaceOnUse">
<stop stop-color="#0A30A3" stop-opacity="0.31"/>
<stop offset="1" stop-color="white" stop-opacity="0"/>
</linearGradient>
<clipPath id="clip0_51_4640">
<rect width="1280" height="622" fill="white"/>
</clipPath>
<clipPath id="clip1_51_4640">
<rect width="1280" height="477" fill="white" transform="translate(0 622)"/>
</clipPath>
</defs>
</svg>
