<svg width="428" height="628" viewBox="0 0 428 628" fill="none" xmlns="http://www.w3.org/2000/svg">
<g clip-path="url(#clip0_70_7137)">
<rect width="428" height="628" fill="#001447"/>
<rect width="428" height="628" fill="#011855"/>
<path d="M-7.00001 -182C-83.7698 -182 -146 -119.77 -146 -43C-146 33.7698 -83.7698 96 -7.00001 96C69.7697 96 132 33.7698 132 -43C132 -119.77 69.7697 -182 -7.00001 -182ZM-7.00001 40.9361C-53.3553 40.9361 -90.9361 3.35529 -90.9361 -43C-90.9361 -89.3553 -53.3553 -126.936 -7.00001 -126.936C39.3553 -126.936 76.9361 -89.3553 76.9361 -43C76.9361 3.35529 39.3553 40.9361 -7.00001 40.9361Z" fill="url(#paint0_radial_70_7137)"/>
<path d="M376.482 94.7774L334.697 49.5952C334.626 49.6602 334.549 49.7174 334.479 49.7824C334.408 49.8474 334.345 49.9202 334.275 49.9852L376.061 95.1674C376.131 95.1024 376.208 95.0452 376.279 94.9802C376.349 94.9152 376.412 94.8424 376.482 94.7774Z" fill="#FF9149"/>
<path d="M327.668 59.0002C327.578 59.1848 327.488 59.3695 327.398 59.5616L365.984 101.284C366.175 101.217 366.366 101.134 366.565 101.059L327.668 59.0002Z" fill="#FF9149"/>
<path d="M332.66 51.6382C332.526 51.7835 332.393 51.9214 332.267 52.067L373.836 97.0149C373.991 96.9005 374.139 96.7783 374.294 96.6564L332.66 51.6382Z" fill="#FF9149"/>
<path d="M330.796 53.8762C330.677 54.0296 330.558 54.183 330.439 54.344L371.416 98.6516C371.585 98.5528 371.748 98.4387 371.91 98.3322L330.789 53.8684L330.796 53.8762Z" fill="#FF9149"/>
<path d="M326.44 61.9178C326.365 62.1181 326.289 62.3258 326.221 62.5264L362.929 102.219C363.142 102.167 363.348 102.107 363.553 102.048L326.44 61.9178Z" fill="#FF9149"/>
<path d="M329.127 56.325C329.023 56.494 328.919 56.663 328.814 56.8396L368.808 100.085C368.985 99.9942 369.162 99.9033 369.346 99.8126L329.127 56.325Z" fill="#FF9149"/>
<path d="M386.16 72.0781C386.157 71.7844 386.146 71.4905 386.134 71.1965L358.973 41.8273C358.681 41.7933 358.389 41.7593 358.096 41.7328L386.167 72.0859L386.16 72.0781Z" fill="#FF9149"/>
<path d="M355.923 103.15C356.179 103.145 356.436 103.132 356.684 103.127L324.836 68.6895C324.803 68.9442 324.779 69.1916 324.754 69.4465L355.923 103.15Z" fill="#FF9149"/>
<path d="M363.776 42.7675C363.434 42.6713 363.083 42.5824 362.74 42.5013L385.749 67.3804C385.695 67.032 385.634 66.6759 385.564 66.3269L363.776 42.7675Z" fill="#FF9149"/>
<path d="M325.472 65.124C325.418 65.3477 325.371 65.5793 325.317 65.8105L359.585 102.864C359.819 102.835 360.047 102.799 360.281 102.763L325.472 65.124Z" fill="#FF9149"/>
<path d="M370.088 45.3474C369.602 45.08 369.1 44.8271 368.605 44.5895L384.125 61.3708C383.927 60.8512 383.713 60.3386 383.485 59.8329L370.088 45.3474Z" fill="#FF9149"/>
<path d="M354.842 41.6132C354.586 41.6183 354.329 41.6308 354.081 41.6362L385.929 76.0734C385.961 75.8187 385.986 75.5638 386.011 75.3164L354.842 41.6132Z" fill="#FF9149"/>
<path d="M351.172 41.8989C350.938 41.9274 350.711 41.9637 350.476 41.9997L385.285 79.6386C385.339 79.4149 385.386 79.1833 385.44 78.9521L351.172 41.8989Z" fill="#FF9149"/>
<path d="M325.016 77.3825C325.07 77.7308 325.131 78.087 325.2 78.4359L346.989 101.995C347.331 102.092 347.674 102.18 348.025 102.262L325.016 77.3825Z" fill="#FF9149"/>
<path d="M336.929 47.748C336.774 47.8623 336.626 47.9845 336.471 48.1064L378.105 93.1246C378.239 92.9793 378.372 92.8415 378.498 92.6959L336.929 47.748Z" fill="#FF9149"/>
<path d="M324.612 72.6926C324.615 72.9863 324.627 73.2802 324.638 73.5742L351.799 102.943C352.091 102.977 352.383 103.011 352.676 103.038L324.605 72.6847L324.612 72.6926Z" fill="#FF9149"/>
<path d="M340.677 99.4155C341.163 99.6829 341.665 99.9358 342.16 100.173L326.64 83.3921C326.838 83.9117 327.052 84.4243 327.28 84.93L340.677 99.4155Z" fill="#FF9149"/>
<path d="M339.341 46.111C339.172 46.2098 339.009 46.3239 338.847 46.4305L379.968 90.8942C380.087 90.7408 380.206 90.5874 380.325 90.4265L339.349 46.1189L339.341 46.111Z" fill="#FF9149"/>
<path d="M341.956 44.6852C341.78 44.7687 341.603 44.8671 341.419 44.9577L381.637 88.4454C381.742 88.2764 381.846 88.1074 381.951 87.9308L341.956 44.6852Z" fill="#FF9149"/>
<path d="M347.835 42.5439C347.623 42.5958 347.417 42.6555 347.212 42.7152L384.325 82.8451C384.4 82.6448 384.476 82.437 384.544 82.2364L347.835 42.5439Z" fill="#FF9149"/>
<path d="M344.78 43.4858C344.59 43.5536 344.398 43.6365 344.2 43.7115L383.096 85.7702C383.186 85.5855 383.276 85.4009 383.367 85.2087L344.78 43.4858Z" fill="#FF9149"/>
<path d="M307 23.8212C307 20.6068 309.607 18 312.821 18C316.036 18 318.642 20.6068 318.642 23.8212C318.642 27.0356 316.036 29.6424 312.821 29.6424C309.607 29.6424 307 27.0356 307 23.8212Z" stroke="#FF9149" stroke-width="3.92" stroke-miterlimit="10"/>
<g filter="url(#filter0_d_70_7137)">
<mask id="path-5-inside-1_70_7137" fill="white">
<path d="M0 -71H428V0H0V-71Z"/>
</mask>
<path d="M0 -71H428V0H0V-71Z" fill="#011855" shape-rendering="crispEdges"/>
<path d="M428 -2H0V2H428V-2Z" fill="#0C36A5" mask="url(#path-5-inside-1_70_7137)"/>
</g>
<g clip-path="url(#clip1_70_7137)" filter="url(#filter1_d_70_7137)">
<rect width="428" height="1324" transform="translate(0 628)" fill="#001447"/>
<path d="M518.02 739.02C563.495 693.545 563.495 619.815 518.02 574.34C472.545 528.865 398.815 528.865 353.34 574.34C307.865 619.815 307.865 693.545 353.34 739.02C398.815 784.495 472.545 784.495 518.02 739.02Z" fill="url(#paint1_radial_70_7137)" fill-opacity="0.3"/>
</g>
<g opacity="0.6">
<path d="M346.645 203.328L285.781 186.98" stroke="#1E6AC6" stroke-opacity="0.6" stroke-width="8.4" stroke-linecap="round"/>
<path d="M269.551 182.62L267.522 182.075" stroke="#179F0C" stroke-opacity="0.6" stroke-width="8.4" stroke-linecap="round"/>
<path d="M244.24 260.653L234.096 257.929" stroke="#179F0C" stroke-opacity="0.6" stroke-width="8.4" stroke-linecap="round"/>
<path d="M222.436 196.066L216.349 194.432" stroke="#179F0C" stroke-opacity="0.6" stroke-width="8.4" stroke-linecap="round"/>
<path d="M238.605 233.038L235.707 232.26" stroke="#179F0C" stroke-opacity="0.6" stroke-width="8.4" stroke-linecap="round"/>
<path d="M301.559 217.319L244.752 202.061" stroke="#1E6AC6" stroke-opacity="0.6" stroke-width="8.4" stroke-linecap="round"/>
<path d="M289.326 246.662L254.837 237.398" stroke="#1E6AC6" stroke-opacity="0.6" stroke-width="8.4" stroke-linecap="round"/>
<path d="M296.988 274.822L262.499 265.558" stroke="#1E6AC6" stroke-opacity="0.6" stroke-width="8.4" stroke-linecap="round"/>
<path d="M303.1 268.413C305.367 272.291 304.089 277.323 300.245 279.652C296.403 281.981 291.449 280.725 289.182 276.847C288.884 276.34 288.595 275.828 288.316 275.315C281.447 262.702 280.112 248.579 283.558 235.749C287.004 222.918 295.236 211.366 307.501 203.891C308 203.588 308.507 203.289 309.018 203C322.05 195.631 336.877 194.179 350.309 197.787C363.744 201.395 375.845 210.081 383.431 222.988C383.729 223.494 384.018 224.007 384.298 224.519C391.166 237.133 392.502 251.256 389.055 264.086C385.609 276.916 377.377 288.469 365.113 295.943C364.613 296.248 364.107 296.546 363.595 296.834C359.69 299.055 354.776 297.66 352.616 293.719C350.458 289.778 351.872 284.783 355.777 282.562C356.159 282.345 356.536 282.124 356.905 281.9C365.361 276.746 371.04 268.762 373.424 259.887C375.808 251.011 374.892 241.255 370.158 232.561C369.952 232.18 369.736 231.799 369.513 231.422C365.647 224.844 360.067 219.815 353.641 216.571L344.12 252.016C342.942 256.402 338.488 259.017 334.172 257.858C329.856 256.698 327.312 252.204 328.49 247.818L338.011 212.372C330.824 211.961 323.475 213.516 316.833 217.271C316.451 217.488 316.074 217.71 315.704 217.934C307.249 223.087 301.57 231.072 299.186 239.946C296.802 248.823 297.716 258.578 302.452 267.273C302.658 267.654 302.875 268.033 303.097 268.412L303.1 268.413Z" fill="#1E6AC6" fill-opacity="0.9"/>
</g>
</g>
<defs>
<filter id="filter0_d_70_7137" x="-30" y="-101" width="488" height="131" filterUnits="userSpaceOnUse" color-interpolation-filters="sRGB">
<feFlood flood-opacity="0" result="BackgroundImageFix"/>
<feColorMatrix in="SourceAlpha" type="matrix" values="0 0 0 0 0 0 0 0 0 0 0 0 0 0 0 0 0 0 127 0" result="hardAlpha"/>
<feOffset/>
<feGaussianBlur stdDeviation="15"/>
<feComposite in2="hardAlpha" operator="out"/>
<feColorMatrix type="matrix" values="0 0 0 0 0.0588235 0 0 0 0 0.227451 0 0 0 0 0.65098 0 0 0 1 0"/>
<feBlend mode="normal" in2="BackgroundImageFix" result="effect1_dropShadow_70_7137"/>
<feBlend mode="normal" in="SourceGraphic" in2="effect1_dropShadow_70_7137" result="shape"/>
</filter>
<filter id="filter1_d_70_7137" x="-30" y="602" width="488" height="1384" filterUnits="userSpaceOnUse" color-interpolation-filters="sRGB">
<feFlood flood-opacity="0" result="BackgroundImageFix"/>
<feColorMatrix in="SourceAlpha" type="matrix" values="0 0 0 0 0 0 0 0 0 0 0 0 0 0 0 0 0 0 127 0" result="hardAlpha"/>
<feOffset dy="4"/>
<feGaussianBlur stdDeviation="15"/>
<feComposite in2="hardAlpha" operator="out"/>
<feColorMatrix type="matrix" values="0 0 0 0 0.0862745 0 0 0 0 0.498039 0 0 0 0 0.988235 0 0 0 1 0"/>
<feBlend mode="normal" in2="BackgroundImageFix" result="effect1_dropShadow_70_7137"/>
<feBlend mode="normal" in="SourceGraphic" in2="effect1_dropShadow_70_7137" result="shape"/>
</filter>
<radialGradient id="paint0_radial_70_7137" cx="0" cy="0" r="1" gradientUnits="userSpaceOnUse" gradientTransform="translate(11.7998 -158.799) scale(288.401)">
<stop stop-color="#0A30A3"/>
<stop offset="1" stop-color="#00152A"/>
</radialGradient>
<radialGradient id="paint1_radial_70_7137" cx="0" cy="0" r="1" gradientUnits="userSpaceOnUse" gradientTransform="translate(168.331 850.713) rotate(-180) scale(801.052)">
<stop stop-color="#5BC7CE"/>
<stop offset="0.11" stop-color="#4198C0"/>
<stop offset="0.23" stop-color="#296BB3"/>
<stop offset="0.34" stop-color="#184AAA"/>
<stop offset="0.43" stop-color="#0D37A5"/>
<stop offset="0.49" stop-color="#0A30A3"/>
<stop offset="1" stop-color="#00152A"/>
</radialGradient>
<clipPath id="clip0_70_7137">
<rect width="428" height="628" fill="white"/>
</clipPath>
<clipPath id="clip1_70_7137">
<rect width="428" height="1324" fill="white" transform="translate(0 628)"/>
</clipPath>
</defs>
</svg>
