<svg width="1280" height="710" viewBox="0 0 1280 710" fill="none" xmlns="http://www.w3.org/2000/svg">
<g clip-path="url(#clip0_55_5573)">
<rect width="1280" height="710" fill="#001447"/>
<g clip-path="url(#clip1_55_5573)" filter="url(#filter0_d_55_5573)">
<rect width="1280" height="477" transform="translate(0 710)" fill="#001447"/>
<path d="M997.824 838.02C1043.33 792.545 1043.33 718.815 997.824 673.34C952.318 627.865 878.537 627.865 833.03 673.34C787.523 718.815 787.523 792.545 833.03 838.02C878.537 883.495 952.318 883.495 997.824 838.02Z" fill="url(#paint0_radial_55_5573)" fill-opacity="0.3"/>
<path opacity="0.94" d="M101.708 634.12C36.8488 549.572 -84.2696 533.553 -168.827 598.339C-253.385 663.125 -269.352 784.176 -204.493 868.724C-139.634 953.271 -18.5156 969.291 66.0419 904.505C150.599 839.719 166.567 718.668 101.708 634.12ZM-143.843 822.255C-183.007 771.203 -173.364 698.101 -122.306 658.982C-71.2485 619.863 1.89479 629.537 41.0582 680.589C80.2215 731.64 70.5787 804.743 19.521 843.862C-31.5367 882.981 -104.68 873.307 -143.843 822.255Z" fill="url(#paint1_radial_55_5573)"/>
</g>
<path d="M1281 0H0V710H1281V0Z" fill="url(#paint2_linear_55_5573)"/>
<path opacity="0.94" d="M53 -155C-57.4601 -155 -147 -65.4601 -147 45C-147 155.46 -57.4601 245 53 245C163.46 245 253 155.46 253 45C253 -65.4601 163.46 -155 53 -155ZM53 165.771C-13.6983 165.771 -67.7713 111.698 -67.7713 45C-67.7713 -21.6982 -13.6983 -75.7713 53 -75.7713C119.698 -75.7713 173.771 -21.6982 173.771 45C173.771 111.698 119.698 165.771 53 165.771Z" fill="url(#paint3_radial_55_5573)"/>
<path d="M118 81.7785L90.1542 54.0956C66.0533 76.8207 28.0016 76.4521 4.37344 52.9621C-19.2547 29.4721 -19.6162 -8.35706 3.23329 -32.317L-24.6125 -60C-62.8403 -20.7609 -62.4603 41.8575 -23.4631 80.6358C15.534 119.405 78.5208 119.783 118 81.7785Z" fill="url(#paint4_radial_55_5573)" fill-opacity="0.2"/>
<g opacity="0.6">
<path d="M1040.54 393.859L863.562 358.371" stroke="#1E6AC6" stroke-opacity="0.6" stroke-width="8.4" stroke-linecap="round"/>
<path d="M816.367 348.906L810.468 347.723" stroke="#179F0C" stroke-opacity="0.6" stroke-width="8.4" stroke-linecap="round"/>
<path d="M758.438 576.613L728.941 570.699" stroke="#179F0C" stroke-opacity="0.6" stroke-width="8.4" stroke-linecap="round"/>
<path d="M684.188 396.037L666.49 392.488" stroke="#179F0C" stroke-opacity="0.6" stroke-width="8.4" stroke-linecap="round"/>
<path d="M737.234 498.723L728.807 497.033" stroke="#179F0C" stroke-opacity="0.6" stroke-width="8.4" stroke-linecap="round"/>
<path d="M914.258 442.172L749.079 409.049" stroke="#1E6AC6" stroke-opacity="0.6" stroke-width="8.4" stroke-linecap="round"/>
<path d="M884.711 528.297L784.424 508.187" stroke="#1E6AC6" stroke-opacity="0.6" stroke-width="8.4" stroke-linecap="round"/>
<path d="M911.812 607.369L811.525 587.259" stroke="#1E6AC6" stroke-opacity="0.6" stroke-width="8.4" stroke-linecap="round"/>
<path d="M928.098 587.92C935.293 598.587 932.569 613.204 922.013 620.569C911.462 627.936 897.072 625.261 889.877 614.594C888.932 613.203 888.011 611.79 887.117 610.378C865.157 575.594 858.732 535.476 866.213 498.169C873.694 460.861 895.09 426.322 928.763 402.694C930.133 401.735 931.527 400.787 932.935 399.868C968.823 376.399 1010.93 369.511 1049.99 377.343C1089.05 385.176 1125.25 407.766 1149.31 443.256C1150.26 444.648 1151.18 446.06 1152.07 447.473C1174.03 482.257 1180.46 522.374 1172.97 559.682C1165.49 596.99 1144.1 631.529 1110.42 655.157C1109.05 656.121 1107.66 657.064 1106.25 657.983C1095.5 665.051 1081.2 661.972 1074.3 651.106C1067.4 640.242 1070.52 625.703 1081.27 618.635C1082.32 617.945 1083.36 617.241 1084.37 616.533C1107.59 600.242 1122.35 576.374 1127.52 550.568C1132.7 524.757 1128.28 497.043 1113.14 473.067C1112.48 472.018 1111.79 470.968 1111.09 469.931C1098.82 451.844 1081.94 438.503 1062.98 430.414L1042.31 533.481C1039.75 546.235 1027.51 554.531 1014.96 552.014C1002.41 549.498 994.307 537.121 996.865 524.368L1017.53 421.301C996.915 421.452 976.198 427.254 957.908 439.214C956.856 439.904 955.817 440.608 954.804 441.316C931.588 457.607 916.83 481.475 911.656 507.281C906.48 533.092 910.894 560.805 926.035 584.782C926.696 585.831 927.384 586.876 928.088 587.918L928.098 587.92Z" fill="#1E6AC6" fill-opacity="0.9"/>
</g>
<path opacity="0.94" d="M1149.63 122.807C1213.49 175.581 1308.04 166.594 1360.81 102.733C1413.58 38.8725 1404.6 -55.6727 1340.74 -108.447C1276.88 -161.221 1182.33 -152.234 1129.56 -88.3731C1076.78 -24.5123 1085.77 70.033 1149.63 122.807ZM1302.88 -62.6419C1341.44 -30.7758 1346.87 26.32 1315.01 64.8806C1283.14 103.441 1226.04 108.868 1187.48 77.0022C1148.92 45.1361 1143.49 -11.9598 1175.36 -50.5203C1207.23 -89.0809 1264.32 -94.5081 1302.88 -62.6419Z" fill="url(#paint5_radial_55_5573)"/>
<g filter="url(#filter1_d_55_5573)">
<rect y="-96" width="1280" height="96" fill="#01164E"/>
</g>
</g>
<defs>
<filter id="filter0_d_55_5573" x="-30" y="684" width="1340" height="537" filterUnits="userSpaceOnUse" color-interpolation-filters="sRGB">
<feFlood flood-opacity="0" result="BackgroundImageFix"/>
<feColorMatrix in="SourceAlpha" type="matrix" values="0 0 0 0 0 0 0 0 0 0 0 0 0 0 0 0 0 0 127 0" result="hardAlpha"/>
<feOffset dy="4"/>
<feGaussianBlur stdDeviation="15"/>
<feComposite in2="hardAlpha" operator="out"/>
<feColorMatrix type="matrix" values="0 0 0 0 0.0862745 0 0 0 0 0.498039 0 0 0 0 0.988235 0 0 0 1 0"/>
<feBlend mode="normal" in2="BackgroundImageFix" result="effect1_dropShadow_55_5573"/>
<feBlend mode="normal" in="SourceGraphic" in2="effect1_dropShadow_55_5573" result="shape"/>
</filter>
<filter id="filter1_d_55_5573" x="-30" y="-122" width="1340" height="156" filterUnits="userSpaceOnUse" color-interpolation-filters="sRGB">
<feFlood flood-opacity="0" result="BackgroundImageFix"/>
<feColorMatrix in="SourceAlpha" type="matrix" values="0 0 0 0 0 0 0 0 0 0 0 0 0 0 0 0 0 0 127 0" result="hardAlpha"/>
<feOffset dy="4"/>
<feGaussianBlur stdDeviation="15"/>
<feComposite in2="hardAlpha" operator="out"/>
<feColorMatrix type="matrix" values="0 0 0 0 0.0588235 0 0 0 0 0.227451 0 0 0 0 0.65098 0 0 0 1 0"/>
<feBlend mode="normal" in2="BackgroundImageFix" result="effect1_dropShadow_55_5573"/>
<feBlend mode="normal" in="SourceGraphic" in2="effect1_dropShadow_55_5573" result="shape"/>
</filter>
<radialGradient id="paint0_radial_55_5573" cx="0" cy="0" r="1" gradientUnits="userSpaceOnUse" gradientTransform="translate(647.892 949.713) rotate(-180) scale(801.608 801.052)">
<stop stop-color="#5BC7CE"/>
<stop offset="0.11" stop-color="#4198C0"/>
<stop offset="0.23" stop-color="#296BB3"/>
<stop offset="0.34" stop-color="#184AAA"/>
<stop offset="0.43" stop-color="#0D37A5"/>
<stop offset="0.49" stop-color="#0A30A3"/>
<stop offset="1" stop-color="#00152A"/>
</radialGradient>
<radialGradient id="paint1_radial_55_5573" cx="0" cy="0" r="1" gradientUnits="userSpaceOnUse" gradientTransform="translate(92.0363 674.404) rotate(52.5071) scale(400.315 400.176)">
<stop stop-color="#0A30A3"/>
<stop offset="1" stop-color="#00152A"/>
</radialGradient>
<linearGradient id="paint2_linear_55_5573" x1="0" y1="0" x2="1367.94" y2="439.263" gradientUnits="userSpaceOnUse">
<stop stop-color="#0A30A3"/>
<stop offset="0.585704" stop-color="#001447"/>
</linearGradient>
<radialGradient id="paint3_radial_55_5573" cx="0" cy="0" r="1" gradientUnits="userSpaceOnUse" gradientTransform="translate(80.0501 -121.617) scale(414.966)">
<stop stop-color="#0A30A3"/>
<stop offset="1" stop-color="#00152A"/>
</radialGradient>
<radialGradient id="paint4_radial_55_5573" cx="0" cy="0" r="1" gradientUnits="userSpaceOnUse" gradientTransform="translate(-32.5796 -54.4887) rotate(-44.832) scale(675.802 675.79)">
<stop stop-color="#5BC7CE"/>
<stop offset="0.11" stop-color="#4198C0"/>
<stop offset="0.23" stop-color="#296BB3"/>
<stop offset="0.34" stop-color="#184AAA"/>
<stop offset="0.43" stop-color="#0D37A5"/>
<stop offset="0.49" stop-color="#0A30A3"/>
<stop offset="1" stop-color="#00152A"/>
</radialGradient>
<radialGradient id="paint5_radial_55_5573" cx="0" cy="0" r="1" gradientUnits="userSpaceOnUse" gradientTransform="translate(1131.69 64.3775) rotate(39.5701) scale(392.832)">
<stop stop-color="#0A30A3"/>
<stop offset="1" stop-color="#00152A"/>
</radialGradient>
<clipPath id="clip0_55_5573">
<rect width="1280" height="710" fill="white"/>
</clipPath>
<clipPath id="clip1_55_5573">
<rect width="1280" height="477" fill="white" transform="translate(0 710)"/>
</clipPath>
</defs>
</svg>
