<svg width="320" height="1680" viewBox="0 0 320 1680" fill="none" xmlns="http://www.w3.org/2000/svg">
<g clip-path="url(#clip0_164_6420)">
<rect width="320" height="1680" fill="#001447"/>
<path d="M320 0H0V1680H320V0Z" fill="url(#paint0_linear_164_6420)"/>
<path d="M284.385 28.386L259.83 14.9291" stroke="#1E6AC6" stroke-opacity="0.6" stroke-width="6" stroke-linecap="round"/>
<path d="M252.646 9.44406L249.139 7.52165" stroke="#179F0C" stroke-opacity="0.6" stroke-width="6" stroke-linecap="round"/>
<path d="M232.51 42.0996L229.002 40.1771" stroke="#179F0C" stroke-opacity="0.6" stroke-width="6" stroke-linecap="round"/>
<path d="M229.75 10.3393L226.242 8.41689" stroke="#179F0C" stroke-opacity="0.6" stroke-width="6" stroke-linecap="round"/>
<path d="M233.006 28.928L229.498 27.0056" stroke="#179F0C" stroke-opacity="0.6" stroke-width="6" stroke-linecap="round"/>
<path d="M263.352 28.7534L240.551 16.2578" stroke="#1E6AC6" stroke-opacity="0.6" stroke-width="6" stroke-linecap="round"/>
<path d="M254.543 40.7319L239.897 32.7052" stroke="#1E6AC6" stroke-opacity="0.6" stroke-width="6" stroke-linecap="round"/>
<path d="M254.91 54.3753L240.264 46.3486" stroke="#1E6AC6" stroke-opacity="0.6" stroke-width="6" stroke-linecap="round"/>
<path d="M258.394 52.1395C258.994 54.1526 257.857 56.2975 255.853 56.9302C253.849 57.5632 251.737 56.4443 251.137 54.4312C251.057 54.1683 250.983 53.9032 250.912 53.6395C249.187 47.1479 250.144 40.5831 253.13 35.1347C256.116 29.6862 261.135 25.3481 267.534 23.3092C267.795 23.2267 268.058 23.1469 268.323 23.0724C275.06 21.1664 281.957 22.1475 287.661 25.2736C293.366 28.4001 297.904 33.6859 299.922 40.3903C300.001 40.6532 300.076 40.9183 300.146 41.182C301.871 47.6736 300.915 54.2384 297.929 59.6868C294.943 65.1353 289.924 69.4733 283.524 71.5123C283.263 71.5955 283 71.6746 282.736 71.7491C280.716 72.3259 278.637 71.1482 278.092 69.1184C277.548 67.089 278.743 64.9756 280.763 64.3988C280.961 64.3426 281.157 64.2836 281.349 64.2227C285.762 62.8169 289.226 59.8177 291.291 56.0489C293.357 52.2795 294.02 47.7454 292.832 43.2709C292.78 43.0751 292.724 42.878 292.665 42.682C291.636 39.2652 289.657 36.3628 287.096 34.1772L278.847 49.2291C277.826 51.0916 275.513 51.7868 273.681 50.7824C271.848 49.7781 271.189 47.4541 272.21 45.5916L280.459 30.5397C277.239 29.5573 273.728 29.4506 270.294 30.4219C270.097 30.4781 269.9 30.5371 269.708 30.598C265.296 32.0038 261.831 35.003 259.766 38.7717C257.7 42.5412 257.036 47.0749 258.225 51.5498C258.277 51.7456 258.333 51.9419 258.392 52.1387L258.394 52.1395Z" fill="#1E6AC6"/>
<path d="M296.884 121.263C230.34 122.293 177.233 177.068 178.262 243.613C179.292 310.157 234.067 363.264 300.612 362.234C367.156 361.205 420.263 306.429 419.233 239.885C418.204 173.341 363.428 120.234 296.884 121.263ZM299.873 314.505C259.692 315.126 226.613 283.055 225.992 242.874C225.37 202.693 257.441 169.614 297.622 168.993C337.803 168.371 370.882 200.442 371.504 240.623C372.125 280.804 340.054 313.883 299.873 314.505Z" fill="url(#paint1_radial_164_6420)"/>
<path style="mix-blend-mode:overlay" d="M-139.714 1551.7C-141.429 1549.99 -141.429 1547.21 -139.714 1545.49L61.4919 1344.29C63.2068 1342.57 65.9879 1342.57 67.7028 1344.29C69.4178 1346 69.4178 1348.78 67.7028 1350.5L-133.503 1551.7C-135.218 1553.42 -137.999 1553.42 -139.714 1551.7Z" fill="url(#paint2_linear_164_6420)"/>
<path style="mix-blend-mode:overlay" d="M487.269 622.719C490.895 626.345 490.895 632.226 487.269 635.852L61.8515 1061.27C58.2255 1064.9 52.3455 1064.9 48.7195 1061.27C45.0935 1057.64 45.0935 1051.76 48.7195 1048.14L474.137 622.719C477.763 619.093 483.643 619.093 487.269 622.719Z" fill="url(#paint3_linear_164_6420)"/>
<path d="M592.333 648.117C595.155 650.939 595.155 655.526 592.333 658.368L260.368 990.333C257.545 993.155 252.959 993.155 250.117 990.333C247.294 987.51 247.294 982.924 250.117 980.082L582.082 648.117C584.904 645.294 589.491 645.294 592.333 648.117Z" fill="url(#paint4_linear_164_6420)" style="mix-blend-mode:overlay"/>
<path d="M15.4484 780.536C14.0915 779.179 11.892 779.179 10.5352 780.536C9.17837 781.893 9.17837 784.093 10.5352 785.449C11.892 786.806 14.0915 786.806 15.4484 785.449C16.8052 784.093 16.8052 781.893 15.4484 780.536Z" fill="white" fill-opacity="0.5"/>
<path d="M37.2159 758.784C35.8591 757.427 33.6596 757.427 32.3028 758.784C30.9459 760.141 30.9459 762.34 32.3028 763.697C33.6596 765.054 35.8591 765.054 37.2159 763.697C38.5728 762.34 38.5728 760.141 37.2159 758.784Z" fill="white" fill-opacity="0.5"/>
<path d="M54.0704 741.931C55.4272 743.288 57.6267 743.288 58.9835 741.931C60.3404 740.574 60.3404 738.374 58.9835 737.018C57.6267 735.661 55.4272 735.661 54.0704 737.018C52.7135 738.374 52.7135 740.574 54.0704 741.931Z" fill="white" fill-opacity="0.5"/>
<path d="M381.654 1649.76C382.67 1650.78 382.67 1652.43 381.654 1653.44L262.442 1772.65C261.426 1773.67 259.778 1773.67 258.762 1772.65C257.746 1771.64 257.746 1769.99 258.762 1768.97L377.974 1649.76C378.99 1648.75 380.638 1648.75 381.654 1649.76Z" fill="url(#paint5_linear_164_6420)" style="mix-blend-mode:overlay"/>
</g>
<defs>
<linearGradient id="paint0_linear_164_6420" x1="64.2991" y1="-458.496" x2="560.012" y2="-368.612" gradientUnits="userSpaceOnUse">
<stop stop-color="#0A30A3"/>
<stop offset="0.709375" stop-color="#001447"/>
</linearGradient>
<radialGradient id="paint1_radial_164_6420" cx="0" cy="0" r="1" gradientUnits="userSpaceOnUse" gradientTransform="translate(313.491 141.122) rotate(-0.886263) scale(250.017)">
<stop stop-color="#0A30A3"/>
<stop offset="1" stop-color="#00152A"/>
</radialGradient>
<linearGradient id="paint2_linear_164_6420" x1="-71.2733" y1="1490.93" x2="63.3187" y2="1352.46" gradientUnits="userSpaceOnUse">
<stop offset="0.17" stop-color="#0A30A3"/>
<stop offset="1" stop-color="white"/>
</linearGradient>
<linearGradient id="paint3_linear_164_6420" x1="342.563" y1="751.237" x2="86.3123" y2="1063.19" gradientUnits="userSpaceOnUse">
<stop offset="0.17" stop-color="#0A30A3"/>
<stop offset="1" stop-color="white"/>
</linearGradient>
<linearGradient id="paint4_linear_164_6420" x1="270.5" y1="992" x2="488.5" y2="779.5" gradientUnits="userSpaceOnUse">
<stop stop-color="#0A30A3" stop-opacity="0.31"/>
<stop offset="1" stop-color="white" stop-opacity="0"/>
</linearGradient>
<linearGradient id="paint5_linear_164_6420" x1="341.104" y1="1685.77" x2="261.36" y2="1767.81" gradientUnits="userSpaceOnUse">
<stop offset="0.17" stop-color="#0A30A3"/>
<stop offset="1" stop-color="white"/>
</linearGradient>
<clipPath id="clip0_164_6420">
<rect width="320" height="1680" fill="white"/>
</clipPath>
</defs>
</svg>
