<svg width="1920" height="1614" viewBox="0 0 1920 1614" fill="none" xmlns="http://www.w3.org/2000/svg">
<g clip-path="url(#clip0_53_534)">
<rect width="1920" height="1614" fill="#011855"/>
<path opacity="0.94" d="M215.113 576.476C378.249 403.147 376.909 136.921 212.119 -18.1777C47.33 -173.276 -218.489 -158.498 -381.625 14.8311C-544.761 188.16 -543.42 454.386 -378.631 609.484C-213.842 764.583 51.9774 749.805 215.113 576.476ZM-263.428 126.077C-164.923 21.4171 -4.39502 12.4926 95.1084 106.144C194.612 199.796 195.421 360.57 96.9163 465.23C-1.58872 569.89 -162.117 578.814 -261.62 485.162C-361.123 391.511 -361.933 230.737 -263.428 126.077Z" fill="url(#paint0_radial_53_534)"/>
<path style="mix-blend-mode:overlay" d="M1812.72 306.17C1816.34 309.796 1816.34 315.676 1812.72 319.302L1387.3 744.72C1383.67 748.346 1377.79 748.346 1374.17 744.72C1370.54 741.094 1370.54 735.214 1374.17 731.588L1799.59 306.17C1803.21 302.544 1809.09 302.544 1812.72 306.17Z" fill="url(#paint1_linear_53_534)"/>
<path d="M1917.78 331.567C1920.6 334.389 1920.6 338.976 1917.78 341.818L1585.82 673.783C1582.99 676.605 1578.41 676.605 1575.57 673.783C1572.74 670.961 1572.74 666.374 1575.57 663.532L1907.53 331.567C1910.35 328.745 1914.94 328.745 1917.78 331.567Z" fill="url(#paint2_linear_53_534)" style="mix-blend-mode:overlay"/>
<path d="M93.1389 763.858C91.2769 761.996 88.2585 761.996 86.3965 763.858C84.5345 765.72 84.5345 768.739 86.3965 770.601C88.2585 772.463 91.2769 772.463 93.1389 770.601C95.0009 768.739 95.0009 765.72 93.1389 763.858Z" fill="white" fill-opacity="0.5"/>
<path d="M123.009 733.988C121.147 732.126 118.129 732.126 116.267 733.988C114.405 735.85 114.405 738.869 116.267 740.731C118.129 742.593 121.147 742.593 123.009 740.731C124.871 738.869 124.871 735.85 123.009 733.988Z" fill="white" fill-opacity="0.5"/>
<path d="M152.86 704.118C150.998 702.256 147.979 702.256 146.117 704.118C144.255 705.98 144.255 708.998 146.117 710.86C147.979 712.722 150.998 712.722 152.86 710.86C154.722 708.998 154.722 705.98 152.86 704.118Z" fill="white" fill-opacity="0.5"/>
<path d="M182.731 674.267C180.869 672.405 177.85 672.405 175.988 674.267C174.126 676.129 174.126 679.147 175.988 681.009C177.85 682.871 180.869 682.871 182.731 681.009C184.593 679.147 184.593 676.129 182.731 674.267Z" fill="white" fill-opacity="0.5"/>
<path d="M205.858 651.139C207.72 653.001 210.739 653.001 212.601 651.139C214.463 649.277 214.463 646.258 212.601 644.396C210.739 642.534 207.72 642.534 205.858 644.396C203.996 646.258 203.996 649.277 205.858 651.139Z" fill="white" fill-opacity="0.5"/>
</g>
<defs>
<radialGradient id="paint0_radial_53_534" cx="0" cy="0" r="1" gradientUnits="userSpaceOnUse" gradientTransform="translate(125.361 572.048) rotate(133.265) scale(894.193 850.137)">
<stop stop-color="#0A30A3"/>
<stop offset="1" stop-color="#00152A"/>
</radialGradient>
<linearGradient id="paint1_linear_53_534" x1="1668.01" y1="434.687" x2="1411.76" y2="746.64" gradientUnits="userSpaceOnUse">
<stop offset="0.17" stop-color="#0A30A3"/>
<stop offset="1" stop-color="white"/>
</linearGradient>
<linearGradient id="paint2_linear_53_534" x1="1595.95" y1="675.45" x2="1813.95" y2="462.95" gradientUnits="userSpaceOnUse">
<stop stop-color="#0A30A3" stop-opacity="0.31"/>
<stop offset="1" stop-color="white" stop-opacity="0"/>
</linearGradient>
<clipPath id="clip0_53_534">
<rect width="1920" height="1614" fill="white"/>
</clipPath>
</defs>
</svg>
