<svg width="1440" height="688" viewBox="0 0 1440 688" fill="none" xmlns="http://www.w3.org/2000/svg">
<g clip-path="url(#clip0_82_2990)">
<rect width="1440" height="688" fill="#001447"/>
<rect x="-1" width="1441" height="688" fill="url(#paint0_linear_82_2990)"/>
<path opacity="0.94" d="M1380.78 293.359C1550.22 313.679 1704.04 192.804 1724.36 23.3671C1744.68 -146.069 1623.8 -299.888 1454.37 -320.208C1284.93 -340.528 1131.11 -219.653 1110.79 -50.2161C1090.47 119.22 1211.35 273.039 1380.78 293.359ZM1439.79 -198.678C1542.1 -186.408 1615.1 -93.5172 1602.83 8.79235C1590.56 111.102 1497.67 184.098 1395.36 171.829C1293.05 159.559 1220.05 66.6682 1232.32 -35.6413C1244.59 -137.951 1337.48 -210.947 1439.79 -198.678Z" fill="url(#paint1_radial_82_2990)"/>
<g opacity="0.6">
<path d="M180.929 614.719L116.004 633.86" stroke="#1E6AC6" stroke-opacity="0.6" stroke-width="8.4" stroke-linecap="round"/>
<path d="M98.6895 638.967L96.5253 639.605" stroke="#179F0C" stroke-opacity="0.6" stroke-width="8.4" stroke-linecap="round"/>
<path d="M63.0635 677.697L56.571 679.611" stroke="#179F0C" stroke-opacity="0.6" stroke-width="8.4" stroke-linecap="round"/>
<path d="M147.466 652.812L86.869 670.678" stroke="#1E6AC6" stroke-opacity="0.6" stroke-width="8.4" stroke-linecap="round"/>
<path d="M152.709 686.551L115.918 697.398" stroke="#1E6AC6" stroke-opacity="0.6" stroke-width="8.4" stroke-linecap="round"/>
<path d="M177.521 698.757C181.771 701.04 183.421 706.366 181.205 710.654C178.991 714.942 173.749 716.568 169.498 714.285C168.941 713.989 168.389 713.681 167.845 713.368C154.482 705.663 145.341 693.473 141.306 679.787C137.271 666.1 138.337 650.901 145.382 637.179C145.67 636.621 145.966 636.063 146.273 635.512C154.082 621.455 166.851 611.813 181.18 607.588C195.51 603.363 211.466 604.536 225.651 612.109C226.208 612.405 226.76 612.713 227.304 613.026C240.667 620.732 249.808 632.921 253.843 646.608C257.878 660.294 256.812 675.493 249.767 689.216C249.48 689.775 249.183 690.332 248.876 690.883C246.543 695.106 241.259 696.583 237.071 694.183C232.885 691.783 231.38 686.414 233.712 682.19C233.941 681.778 234.162 681.363 234.375 680.95C239.232 671.489 239.96 660.991 237.169 651.524C234.377 642.055 228.069 633.631 218.858 628.319C218.455 628.087 218.044 627.858 217.629 627.637C210.399 623.778 202.468 622.3 194.762 622.929L205.909 660.74C207.289 665.419 204.674 670.311 200.07 671.668C195.467 673.026 190.616 670.334 189.236 665.656L178.089 627.845C171.274 631.497 165.413 637.041 161.433 644.205C161.205 644.618 160.983 645.033 160.771 645.445C155.913 654.906 155.186 665.405 157.977 674.872C160.769 684.341 167.075 692.765 176.288 698.076C176.69 698.309 177.101 698.535 177.517 698.758L177.521 698.757Z" fill="#1E6AC6" fill-opacity="0.9"/>
</g>
<g clip-path="url(#clip1_82_2990)" filter="url(#filter0_d_82_2990)">
<rect width="1440" height="477" transform="translate(0 688)" fill="#001447"/>
<path d="M1157.82 816.02C1203.33 770.545 1203.33 696.815 1157.82 651.34C1112.32 605.865 1038.54 605.865 993.03 651.34C947.523 696.815 947.523 770.545 993.03 816.02C1038.54 861.495 1112.32 861.495 1157.82 816.02Z" fill="url(#paint2_radial_82_2990)" fill-opacity="0.3"/>
<path opacity="0.94" d="M87.6282 367.491C-60.2622 282.165 -249.357 332.798 -334.742 480.586C-420.126 628.374 -369.459 817.337 -221.568 902.662C-73.6776 987.988 115.417 937.355 200.802 789.567C286.187 641.78 235.519 452.816 87.6282 367.491ZM-160.325 796.66C-249.625 745.139 -280.223 631.024 -228.666 541.786C-177.109 452.549 -62.9143 421.972 26.3852 473.493C115.685 525.014 146.283 639.129 94.7259 728.367C43.1688 817.604 -71.0255 848.181 -160.325 796.66Z" fill="url(#paint3_radial_82_2990)"/>
</g>
</g>
<defs>
<filter id="filter0_d_82_2990" x="-30" y="662" width="1500" height="537" filterUnits="userSpaceOnUse" color-interpolation-filters="sRGB">
<feFlood flood-opacity="0" result="BackgroundImageFix"/>
<feColorMatrix in="SourceAlpha" type="matrix" values="0 0 0 0 0 0 0 0 0 0 0 0 0 0 0 0 0 0 127 0" result="hardAlpha"/>
<feOffset dy="4"/>
<feGaussianBlur stdDeviation="15"/>
<feComposite in2="hardAlpha" operator="out"/>
<feColorMatrix type="matrix" values="0 0 0 0 0.0862745 0 0 0 0 0.498039 0 0 0 0 0.988235 0 0 0 1 0"/>
<feBlend mode="normal" in2="BackgroundImageFix" result="effect1_dropShadow_82_2990"/>
<feBlend mode="normal" in="SourceGraphic" in2="effect1_dropShadow_82_2990" result="shape"/>
</filter>
<linearGradient id="paint0_linear_82_2990" x1="-12.6331" y1="15.0841" x2="1461.47" y2="548.84" gradientUnits="userSpaceOnUse">
<stop stop-color="#0A30A3"/>
<stop offset="0.563541" stop-color="#001447"/>
</linearGradient>
<radialGradient id="paint1_radial_82_2990" cx="0" cy="0" r="1" gradientUnits="userSpaceOnUse" gradientTransform="translate(1345.43 237.176) rotate(-173.161) scale(641.084)">
<stop stop-color="#0A30A3"/>
<stop offset="1" stop-color="#00152A"/>
</radialGradient>
<radialGradient id="paint2_radial_82_2990" cx="0" cy="0" r="1" gradientUnits="userSpaceOnUse" gradientTransform="translate(807.892 927.713) rotate(-180) scale(801.608 801.052)">
<stop stop-color="#5BC7CE"/>
<stop offset="0.11" stop-color="#4198C0"/>
<stop offset="0.23" stop-color="#296BB3"/>
<stop offset="0.34" stop-color="#184AAA"/>
<stop offset="0.43" stop-color="#0D37A5"/>
<stop offset="0.49" stop-color="#0A30A3"/>
<stop offset="1" stop-color="#00152A"/>
</radialGradient>
<radialGradient id="paint3_radial_82_2990" cx="0" cy="0" r="1" gradientUnits="userSpaceOnUse" gradientTransform="translate(98.0398 433.05) rotate(29.9828) scale(641.419 641.196)">
<stop stop-color="#0A30A3"/>
<stop offset="1" stop-color="#00152A"/>
</radialGradient>
<clipPath id="clip0_82_2990">
<rect width="1440" height="688" fill="white"/>
</clipPath>
<clipPath id="clip1_82_2990">
<rect width="1440" height="477" fill="white" transform="translate(0 688)"/>
</clipPath>
</defs>
</svg>
