<svg width="1920" height="1214" viewBox="0 0 1920 1214" fill="none" xmlns="http://www.w3.org/2000/svg">
<g clip-path="url(#clip0_71_620)">
<rect width="1920" height="1214" fill="url(#paint0_linear_71_620)"/>
<path opacity="0.94" d="M1734.41 1610.34C1946.73 1717.94 2201.76 1641.54 2304.06 1439.68C2406.36 1237.83 2317.18 986.978 2104.86 879.377C1892.54 771.776 1637.51 848.181 1535.22 1050.04C1432.92 1251.89 1522.1 1502.74 1734.41 1610.34ZM2031.49 1024.16C2159.69 1089.13 2213.54 1240.62 2151.77 1362.5C2090 1484.39 1935.99 1530.53 1807.79 1465.56C1679.59 1400.59 1625.73 1249.1 1687.5 1127.21C1749.27 1005.33 1903.28 959.189 2031.49 1024.16Z" fill="url(#paint1_radial_71_620)"/>
<path d="M1920 0H0V1214H1920V0Z" fill="url(#paint2_linear_71_620)"/>
<g opacity="0.6">
<path d="M1466.69 656.814L1221.23 639.961" stroke="#1E6AC6" stroke-opacity="0.6" stroke-width="8.4" stroke-linecap="round"/>
<path d="M1155.78 635.466L1147.6 634.904" stroke="#179F0C" stroke-opacity="0.6" stroke-width="8.4" stroke-linecap="round"/>
<path d="M1117.5 953.438L1076.59 950.63" stroke="#179F0C" stroke-opacity="0.6" stroke-width="8.4" stroke-linecap="round"/>
<path d="M985.399 722.414L960.854 720.729" stroke="#179F0C" stroke-opacity="0.6" stroke-width="8.4" stroke-linecap="round"/>
<path d="M1075.15 851.885L1063.46 851.082" stroke="#179F0C" stroke-opacity="0.6" stroke-width="8.4" stroke-linecap="round"/>
<path d="M1304.49 744.322L1075.4 728.593" stroke="#1E6AC6" stroke-opacity="0.6" stroke-width="8.4" stroke-linecap="round"/>
<path d="M1279.7 865.93L1140.61 856.38" stroke="#1E6AC6" stroke-opacity="0.6" stroke-width="8.4" stroke-linecap="round"/>
<path d="M1330.23 968.044L1191.14 958.494" stroke="#1E6AC6" stroke-opacity="0.6" stroke-width="8.4" stroke-linecap="round"/>
<path d="M1348.82 938.895C1360.42 952.048 1359.31 972.285 1346.34 984.097C1333.37 995.908 1313.45 994.823 1301.85 981.67C1300.33 979.956 1298.83 978.208 1297.38 976.456C1261.58 933.3 1245.84 880.204 1249.39 828.46C1252.95 776.716 1275.79 726.269 1317.15 688.411C1318.84 686.874 1320.55 685.347 1322.3 683.857C1366.68 645.825 1422.39 629.11 1476.56 632.83C1530.74 636.55 1583.63 660.721 1622.4 704.462C1623.92 706.176 1625.41 707.924 1626.87 709.676C1662.67 752.832 1678.41 805.928 1674.85 857.672C1671.3 909.416 1648.45 959.863 1607.09 997.721C1605.41 999.265 1603.69 1000.79 1601.95 1002.28C1588.66 1013.72 1568.78 1012.07 1557.55 998.598C1546.32 985.125 1547.97 964.925 1561.26 953.481C1562.56 952.363 1563.84 951.23 1565.09 950.094C1593.6 923.993 1609.36 889.135 1611.81 853.344C1614.27 817.546 1603.42 780.862 1578.75 751.116C1577.67 749.813 1576.56 748.515 1575.42 747.237C1555.67 724.945 1530.5 709.88 1503.45 702.282L1493.63 845.23C1492.42 862.918 1477.32 876.285 1459.92 875.09C1442.51 873.895 1429.39 858.59 1430.6 840.902L1440.41 697.954C1412.57 701.783 1385.59 713.268 1362.97 732.65C1361.67 733.768 1360.39 734.901 1359.14 736.037C1330.63 762.139 1314.88 796.996 1312.42 832.787C1309.96 868.586 1320.8 905.269 1345.48 935.016C1346.56 936.318 1347.67 937.609 1348.81 938.894L1348.82 938.895Z" fill="#1E6AC6" fill-opacity="0.9"/>
</g>
<path style="mix-blend-mode:overlay" d="M1458.29 208.703C1456.57 206.988 1456.57 204.207 1458.29 202.492L1659.49 1.28621C1661.21 -0.428738 1663.99 -0.428738 1665.7 1.28621C1667.42 3.00117 1667.42 5.78218 1665.7 7.49714L1464.5 208.703C1462.78 210.418 1460 210.418 1458.29 208.703Z" fill="url(#paint3_linear_71_620)"/>
<path d="M1609.65 151.762C1610.67 152.778 1610.67 154.426 1609.65 155.442L1490.44 274.654C1489.43 275.67 1487.78 275.67 1486.76 274.654C1485.75 273.638 1485.75 271.99 1486.76 270.974L1605.97 151.762C1606.99 150.746 1608.64 150.746 1609.65 151.762Z" fill="url(#paint4_linear_71_620)" style="mix-blend-mode:overlay"/>
</g>
<defs>
<linearGradient id="paint0_linear_71_620" x1="960" y1="0" x2="960" y2="1214" gradientUnits="userSpaceOnUse">
<stop offset="0.729167" stop-color="#01164E"/>
<stop offset="1" stop-color="#092E9C"/>
</linearGradient>
<radialGradient id="paint1_radial_71_620" cx="0" cy="0" r="1" gradientUnits="userSpaceOnUse" gradientTransform="translate(1713.34 1522.99) rotate(-153.124) scale(894.193 850.137)">
<stop stop-color="#0A30A3"/>
<stop offset="1" stop-color="#00152A"/>
</radialGradient>
<linearGradient id="paint2_linear_71_620" x1="0" y1="0" x2="2095.67" y2="589.894" gradientUnits="userSpaceOnUse">
<stop stop-color="#0A30A3"/>
<stop offset="0.585704" stop-color="#001447"/>
</linearGradient>
<linearGradient id="paint3_linear_71_620" x1="1526.73" y1="147.929" x2="1661.32" y2="9.45918" gradientUnits="userSpaceOnUse">
<stop offset="0.17" stop-color="#0A30A3"/>
<stop offset="1" stop-color="white"/>
</linearGradient>
<linearGradient id="paint4_linear_71_620" x1="1569.1" y1="187.77" x2="1489.36" y2="269.812" gradientUnits="userSpaceOnUse">
<stop offset="0.17" stop-color="#0A30A3"/>
<stop offset="1" stop-color="white"/>
</linearGradient>
<clipPath id="clip0_71_620">
<rect width="1920" height="1214" fill="white"/>
</clipPath>
</defs>
</svg>
