<svg width="968" height="703" viewBox="0 0 968 703" fill="none" xmlns="http://www.w3.org/2000/svg">
<g clip-path="url(#clip0_42_7531)">
<rect width="968" height="703" fill="#001447"/>
<path d="M968 0H0V700H968V0Z" fill="url(#paint0_linear_42_7531)"/>
<path d="M1023.33 328.117C1026.16 330.939 1026.16 335.526 1023.33 338.368L691.368 670.333C688.545 673.155 683.959 673.155 681.117 670.333C678.294 667.51 678.294 662.924 681.117 660.082L1013.08 328.117C1015.9 325.294 1020.49 325.294 1023.33 328.117Z" fill="url(#paint1_linear_42_7531)" style="mix-blend-mode:overlay"/>
<path d="M741.139 650.859C739.277 648.997 736.258 648.997 734.396 650.859C732.534 652.721 732.534 655.74 734.396 657.602C736.258 659.464 739.277 659.464 741.139 657.602C743.001 655.74 743.001 652.721 741.139 650.859Z" fill="white" fill-opacity="0.5"/>
<path d="M771.01 620.988C769.148 619.126 766.13 619.126 764.268 620.988C762.406 622.85 762.406 625.869 764.268 627.731C766.13 629.593 769.148 629.593 771.01 627.731C772.872 625.869 772.872 622.85 771.01 620.988Z" fill="white" fill-opacity="0.5"/>
<path d="M800.86 591.117C798.998 589.255 795.979 589.255 794.117 591.117C792.255 592.979 792.255 595.998 794.117 597.86C795.979 599.722 798.998 599.722 800.86 597.86C802.722 595.998 802.722 592.979 800.86 591.117Z" fill="white" fill-opacity="0.5"/>
<path d="M830.731 561.268C828.869 559.406 825.85 559.406 823.988 561.268C822.126 563.13 822.126 566.148 823.988 568.01C825.85 569.872 828.869 569.872 830.731 568.01C832.593 566.148 832.593 563.13 830.731 561.268Z" fill="white" fill-opacity="0.5"/>
<path d="M853.859 538.139C855.721 540.001 858.74 540.001 860.602 538.139C862.464 536.277 862.464 533.258 860.602 531.396C858.74 529.534 855.721 529.534 853.859 531.396C851.997 533.258 851.997 536.277 853.859 538.139Z" fill="white" fill-opacity="0.5"/>
<path d="M475.5 521.609C508.913 521.609 536 548.696 536 582.109C536 615.523 508.913 642.609 475.5 642.609C442.087 642.609 415 615.523 415 582.109C415 548.696 442.087 521.609 475.5 521.609Z" fill="url(#paint2_radial_42_7531)"/>
<path d="M366.742 460.444C366.742 460.444 361.293 533.306 355.713 560.105H484.296C478.291 535.126 472.082 467.587 472.082 467.587L490.254 494.499L506.618 453.216C506.618 453.216 490.865 426.284 473.87 412.205C462.067 402.426 437.521 398.83 423.629 397.545V396.779C423.629 396.779 421.722 396.866 418.554 397.136C415.382 396.918 413.474 396.863 413.474 396.863L413.483 397.629C399.613 399.142 375.409 403.476 363.49 413.113C319.379 448.779 296.565 557.389 296 560.105H323.459C338.294 503.841 366.742 460.444 366.742 460.444Z" fill="#2A485E"/>
<path d="M506.616 453.217C506.616 453.217 495.674 434.51 482.191 420.129C477.348 438.301 475.873 457.372 477.816 476.079L490.256 494.501L506.616 453.217Z" fill="#193345"/>
<path d="M618.788 495.585C615.544 493.931 612.714 491.651 610.157 489.052L517.092 458.092C517.092 458.092 517.092 430.766 511.837 416.515C520.664 400.032 519.955 384.552 517.092 375.236C514.228 365.92 501.785 360.651 497.226 374.335C494.961 381.135 485.433 408.966 481.974 416.069C473.235 459.235 486.982 510.684 514.34 529.319C541.699 547.953 587.133 549.771 620.172 540.565C643.431 534.082 649.987 508.878 651.831 494.527C648.565 495.884 645.219 497.015 641.763 497.77C634.095 499.442 625.776 499.151 618.788 495.585Z" fill="#F7A87E"/>
<path d="M652.548 484.375L629.085 495.349L610.154 489.051C612.711 491.65 615.542 493.929 618.786 495.584C625.777 499.149 634.096 499.441 641.763 497.766C645.219 497.011 648.566 495.88 651.831 494.523C652.605 488.49 652.548 484.375 652.548 484.375Z" fill="#E98870"/>
<path d="M640.139 365.067L616.797 389.869C611.13 395.891 611.665 405.436 617.969 410.783C623.935 415.844 632.846 415.236 638.068 409.411L660.805 384.054C665.962 378.301 665.501 369.464 659.771 364.279C654.104 359.152 645.376 359.502 640.139 365.067Z" fill="#F7A87E"/>
<path d="M438.047 399.344L398.395 399.421L402.897 430.869H433.038L438.047 399.344Z" fill="#ECEADD"/>
<path d="M433.037 430.871H402.896L413.817 507.143L433.037 430.871Z" fill="white"/>
<path d="M401.734 379.863V392.878C406.945 396.691 413.017 399.066 419.337 399.332C419.483 399.339 419.631 399.343 419.776 399.345C419.922 399.347 420.068 399.339 420.214 399.332C426.126 399.084 431.821 396.988 436.796 393.601V379.863H401.734Z" fill="#E98870"/>
<path d="M445.748 363.386C455.047 359.945 462.638 352.169 465.854 342.79C469.071 333.41 467.849 322.613 462.62 314.189C467.123 313.104 469.279 307.285 467.576 302.977C465.872 298.67 461.394 295.98 456.851 295.07C458.983 293.063 458.529 289.321 456.569 287.147C454.608 284.973 451.619 284.055 448.731 283.565C444.088 282.776 439.338 282.848 434.643 283.209C425.74 283.893 394.286 282.948 385.518 304.207C374.19 307.755 374.291 324.755 374.198 329.381C373.951 341.756 379.06 354.628 389.193 361.736C405.201 372.965 427.41 370.175 445.748 363.386Z" fill="#4E2F20"/>
<path d="M451.748 367.345C446.791 381.165 434.097 391.931 420.215 392.513C420.069 392.519 419.923 392.524 419.777 392.526C419.631 392.526 419.483 392.519 419.337 392.513C405.454 391.931 392.762 381.165 387.803 367.345C384.784 358.926 384.344 349.716 384.668 340.714C384.993 331.712 386.049 322.733 385.88 313.726C397.024 311.436 408.461 309.663 419.777 310.317C431.093 309.665 442.527 311.436 453.671 313.726C453.503 322.733 454.556 331.713 454.883 340.714C455.209 349.715 454.767 358.926 451.748 367.345Z" fill="#F7A87E"/>
<path d="M456.775 348.703C452.008 341.713 449.024 333.096 449.456 324.645C429.19 326.057 408.852 323.248 389.728 316.395C389.95 327.549 386.91 338.509 382.177 348.612C381.603 337.492 381.453 326.699 382.633 315.627C382.763 314.366 382.925 313.066 383.558 311.966C384.684 310.012 387.01 309.145 389.172 308.486C409.484 302.28 431.913 301.391 451.704 309.099C453.788 309.912 455.907 310.857 457.42 312.511C458.749 313.96 459.511 315.85 459.947 317.767C460.734 321.219 460.54 324.81 460.342 328.345C459.947 335.371 459.185 342.092 456.775 348.703Z" fill="#4E2F20"/>
<path d="M376.852 328.07C379.667 325.097 382.136 321.815 384.212 318.285C385.944 315.337 387.682 311.968 390.898 310.803C393.856 309.732 397.411 310.843 400.124 309.253C401.507 308.443 402.469 307.026 403.891 306.287C406.667 304.841 409.957 306.41 412.933 307.38C419.641 309.569 427.347 308.446 433.155 304.435C436.105 302.397 438.664 299.466 439.271 295.932C439.807 292.813 438.773 289.643 437.502 286.744C436.964 285.517 436.375 284.313 435.748 283.129C435.38 283.154 435.013 283.179 434.646 283.208C431.376 283.459 425.062 283.492 417.948 284.485C418.04 284.58 418.133 284.675 418.223 284.772C419.787 286.451 421.058 288.818 420.282 290.979C419.68 292.652 418.037 293.688 416.469 294.527C411.663 297.096 406.538 299.019 401.228 300.245C399.957 300.538 398.538 300.882 397.841 301.986C397.349 302.767 397.34 303.754 396.974 304.6C396.258 306.255 394.365 307.034 392.604 307.421C390.844 307.807 388.95 308.003 387.513 309.09C386.796 309.631 386.249 310.358 385.602 310.979C383.542 312.958 380.486 313.766 377.67 313.29C377.357 313.238 377.049 313.167 376.743 313.086C374.243 319.23 374.258 326.576 374.203 329.379C374.194 329.802 374.194 330.226 374.198 330.65C375.122 329.83 376.006 328.964 376.852 328.07Z" fill="#5E3B2B"/>
<path d="M409.353 335.566C410.217 335.595 411.102 335.654 411.888 336.012C412.675 336.37 413.353 337.085 413.428 337.946C413.515 338.931 412.789 339.843 411.903 340.284C411.018 340.724 409.999 340.789 409.012 340.837C405.788 340.991 402.562 341.035 399.333 340.971C398.197 340.948 395.751 340.775 395.725 339.131C395.702 337.756 397.844 337.313 398.873 336.957C402.225 335.796 405.823 335.451 409.353 335.566Z" fill="#452819"/>
<path d="M431.347 335.566C430.484 335.595 429.599 335.654 428.812 336.012C428.025 336.37 427.348 337.085 427.273 337.946C427.186 338.931 427.912 339.843 428.797 340.284C429.683 340.724 430.701 340.789 431.689 340.837C434.912 340.991 438.139 341.035 441.368 340.971C442.504 340.948 444.95 340.775 444.976 339.131C444.999 337.756 442.856 337.313 441.827 336.957C438.475 335.796 434.878 335.451 431.347 335.566Z" fill="#452819"/>
<path d="M404.579 353.65C406.489 353.65 408.037 352.102 408.037 350.192C408.037 348.283 406.489 346.734 404.579 346.734C402.669 346.734 401.121 348.283 401.121 350.192C401.121 352.102 402.669 353.65 404.579 353.65Z" fill="#452819"/>
<path d="M434.772 353.65C436.682 353.65 438.23 352.102 438.23 350.192C438.23 348.283 436.682 346.734 434.772 346.734C432.863 346.734 431.314 348.283 431.314 350.192C431.314 352.102 432.863 353.65 434.772 353.65Z" fill="#452819"/>
<path d="M421.16 379.867C418.701 379.91 416.271 380.437 413.965 381.3C415.576 382.305 417.619 382.96 420.218 382.96C423.214 382.96 425.473 382.092 427.181 380.817C425.246 380.146 423.207 379.824 421.16 379.867Z" fill="#F28487"/>
<path d="M414.506 372.987C415.972 373.638 417.517 374.126 419.109 374.33C422.198 374.728 425.394 374.023 428.109 372.496C429.01 371.986 429.861 371.391 430.649 370.719C430.386 370.608 430.104 370.551 429.819 370.551H410.721C410.779 370.608 410.838 370.665 410.897 370.72C411.942 371.693 413.201 372.408 414.506 372.987Z" fill="white"/>
<path d="M430.65 370.719C429.862 371.391 429.011 371.986 428.11 372.496C425.395 374.023 422.199 374.728 419.11 374.33C417.518 374.126 415.973 373.637 414.507 372.987C413.204 372.408 411.943 371.693 410.898 370.72C410.839 370.665 410.78 370.608 410.722 370.551H410.614C410.286 370.55 409.961 370.625 409.666 370.769C409.371 370.914 409.113 371.124 408.911 371.384C408.71 371.644 408.571 371.946 408.505 372.268C408.439 372.59 408.447 372.923 408.53 373.241C409.181 375.694 410.659 379.239 413.965 381.301C416.271 380.435 418.701 379.909 421.159 379.868C423.207 379.826 425.246 380.148 427.18 380.82C429.992 378.721 431.303 375.514 431.904 373.243C432.036 372.742 431.981 372.21 431.75 371.746C431.52 371.282 431.129 370.917 430.65 370.719Z" fill="#AB404A"/>
<path d="M419.776 399.346C419.631 399.346 419.483 399.34 419.337 399.333C413.019 399.068 406.944 396.692 401.734 392.879V417.124H429.416L436.796 406.581V393.599C431.821 396.989 426.126 399.085 420.214 399.33C420.068 399.339 419.922 399.344 419.776 399.346Z" fill="#F7A87E"/>
<path d="M401.735 396.234L418.658 415.893L436.797 396.234L439.188 399.567L432.861 430.97L418.539 417.123L402.909 430.954L398.395 399.422L401.735 396.234Z" fill="white"/>
<path d="M410.232 424.475L416.861 434.058L407.135 460.464L413.818 507.142L426.414 457.156L420.858 433.948L426.918 425.224L418.54 417.123L410.232 424.475Z" fill="#D75555"/>
<path d="M553.131 500.635L553.039 500.794H553.223L553.131 500.635Z" fill="#F68C24"/>
<path d="M621.986 475.228L646.252 460.331C652.144 456.713 659.622 459.192 662.641 465.763C665.497 471.98 663.272 479.539 657.625 482.815L633.035 497.073C627.457 500.307 620.523 498.04 617.525 492.001C614.554 486.027 616.541 478.571 621.986 475.228Z" fill="#F7A87E"/>
<path d="M613.671 444.675L646.47 431.587C654.434 428.409 663.435 432.553 666.199 440.67C668.811 448.349 664.838 456.714 657.234 459.539L624.129 471.83C616.619 474.618 608.267 470.812 605.446 463.314C602.655 455.898 606.311 447.611 613.671 444.675Z" fill="#F7A87E"/>
<path d="M610.581 415.57L642.213 402.947C649.894 399.883 658.575 403.879 661.24 411.708C663.761 419.113 659.929 427.181 652.594 429.904L620.666 441.759C613.423 444.448 605.369 440.776 602.648 433.545C599.954 426.393 603.481 418.402 610.581 415.57Z" fill="#F7A87E"/>
<path d="M449.158 373.036C453.171 373.261 457.297 372.152 460.482 369.701C463.668 367.25 465.833 363.425 466.007 359.41C466.103 357.195 465.49 354.774 463.71 353.455C462.35 352.446 460.545 352.252 458.859 352.399C456.518 352.602 454.067 353.53 452.825 355.525L449.158 373.036Z" fill="#F7A87E"/>
<path d="M457.938 358.884C458.138 359.004 458.323 359.147 458.489 359.309C459.219 360.009 459.645 360.969 459.674 361.98C459.703 362.991 459.335 363.973 458.647 364.715C458.613 364.751 458.573 364.781 458.528 364.801C458.483 364.822 458.434 364.834 458.385 364.836C458.335 364.838 458.286 364.83 458.239 364.812C458.193 364.795 458.15 364.769 458.114 364.735C458.078 364.702 458.048 364.661 458.028 364.616C458.007 364.571 457.995 364.523 457.993 364.473C457.991 364.424 457.999 364.374 458.016 364.328C458.034 364.281 458.06 364.239 458.093 364.202C458.646 363.606 458.942 362.816 458.918 362.003C458.895 361.191 458.553 360.42 457.967 359.856C457.755 359.651 457.43 359.408 457.055 359.347C455.645 360.215 454.553 361.516 453.943 363.056C453.915 363.128 453.866 363.19 453.801 363.233C453.737 363.276 453.661 363.298 453.584 363.296C453.539 363.296 453.495 363.287 453.453 363.27C453.36 363.234 453.285 363.162 453.245 363.071C453.205 362.979 453.202 362.876 453.238 362.782C453.957 360.935 455.313 359.405 457.062 358.471C458.811 357.537 460.836 357.26 462.771 357.69C462.869 357.711 462.954 357.771 463.008 357.856C463.061 357.94 463.079 358.042 463.058 358.14C463.036 358.238 462.976 358.323 462.892 358.376C462.807 358.43 462.705 358.448 462.607 358.426C461.041 358.087 459.409 358.247 457.938 358.884Z" fill="#D26F61"/>
<path d="M451.524 366.81C451.574 366.723 451.656 366.66 451.753 366.633C451.85 366.607 451.953 366.62 452.04 366.67C454.075 367.835 456.632 367.134 458.345 366.088C459.441 365.421 460.885 364.254 461.532 362.487C461.549 362.441 461.575 362.398 461.609 362.362C461.643 362.325 461.683 362.296 461.728 362.275C461.773 362.254 461.822 362.243 461.871 362.241C461.921 362.239 461.97 362.246 462.016 362.263C462.063 362.281 462.106 362.307 462.142 362.34C462.178 362.374 462.208 362.414 462.229 362.459C462.249 362.504 462.261 362.553 462.263 362.602C462.265 362.652 462.257 362.701 462.24 362.748C461.517 364.718 459.936 366.004 458.738 366.733C457.515 367.478 455.894 368.061 454.275 368.025C453.36 368.014 452.462 367.774 451.664 367.325C451.578 367.275 451.514 367.193 451.488 367.096C451.462 367 451.475 366.897 451.524 366.81Z" fill="#D26F61"/>
<path d="M390.173 373.036C386.16 373.261 382.031 372.152 378.849 369.701C375.666 367.25 373.498 363.425 373.324 359.41C373.228 357.195 373.842 354.774 375.621 353.455C376.981 352.446 378.786 352.252 380.472 352.399C382.813 352.602 385.265 353.53 386.507 355.525L390.173 373.036Z" fill="#F7A87E"/>
<path d="M381.393 358.884C381.194 359.004 381.009 359.147 380.842 359.309C380.113 360.009 379.687 360.969 379.658 361.98C379.628 362.991 379.997 363.973 380.685 364.715C380.718 364.751 380.759 364.781 380.804 364.801C380.849 364.822 380.898 364.834 380.947 364.836C380.997 364.837 381.046 364.83 381.092 364.812C381.139 364.795 381.182 364.769 381.218 364.735C381.254 364.702 381.284 364.661 381.304 364.616C381.325 364.571 381.337 364.523 381.339 364.473C381.34 364.424 381.333 364.374 381.315 364.328C381.298 364.281 381.272 364.239 381.238 364.202C380.686 363.606 380.39 362.816 380.414 362.003C380.437 361.191 380.779 360.42 381.365 359.856C381.577 359.651 381.901 359.408 382.277 359.347C383.687 360.214 384.779 361.516 385.389 363.056C385.417 363.128 385.466 363.19 385.531 363.233C385.595 363.276 385.671 363.298 385.748 363.296C385.793 363.296 385.837 363.287 385.879 363.27C385.925 363.252 385.967 363.226 386.003 363.191C386.039 363.157 386.067 363.116 386.087 363.071C386.107 363.026 386.118 362.977 386.119 362.927C386.12 362.878 386.111 362.829 386.093 362.782C385.375 360.935 384.019 359.405 382.27 358.471C380.522 357.537 378.496 357.26 376.561 357.69C376.513 357.7 376.467 357.72 376.426 357.749C376.386 357.777 376.351 357.813 376.325 357.855C376.298 357.897 376.28 357.944 376.271 357.992C376.263 358.041 376.264 358.091 376.275 358.14C376.285 358.188 376.305 358.234 376.334 358.274C376.362 358.315 376.398 358.35 376.44 358.376C376.482 358.403 376.529 358.421 376.577 358.429C376.626 358.438 376.676 358.437 376.725 358.426C378.291 358.087 379.923 358.247 381.393 358.884Z" fill="#D26F61"/>
<path d="M387.807 366.81C387.758 366.723 387.675 366.66 387.579 366.633C387.482 366.607 387.379 366.62 387.292 366.67C385.257 367.835 382.7 367.134 380.987 366.088C379.89 365.421 378.446 364.254 377.8 362.487C377.782 362.441 377.756 362.398 377.723 362.362C377.689 362.325 377.649 362.296 377.604 362.275C377.559 362.254 377.51 362.243 377.461 362.241C377.411 362.239 377.362 362.246 377.315 362.263C377.269 362.281 377.226 362.307 377.19 362.34C377.153 362.374 377.124 362.414 377.103 362.459C377.082 362.504 377.071 362.553 377.069 362.602C377.067 362.652 377.074 362.701 377.092 362.748C377.815 364.718 379.395 366.004 380.594 366.733C381.817 367.478 383.438 368.061 385.057 368.025C385.972 368.015 386.87 367.774 387.667 367.325C387.754 367.275 387.818 367.193 387.844 367.096C387.87 367 387.857 366.897 387.807 366.81Z" fill="#D26F61"/>
<path opacity="0.12" d="M437.478 367.639C440.5 367.639 442.95 365.189 442.95 362.167C442.95 359.145 440.5 356.695 437.478 356.695C434.456 356.695 432.006 359.145 432.006 362.167C432.006 365.189 434.456 367.639 437.478 367.639Z" fill="#ED7C6D"/>
<path opacity="0.12" d="M440.565 364.555C442.702 362.418 442.702 358.953 440.565 356.816C438.428 354.679 434.963 354.679 432.826 356.816C430.689 358.953 430.689 362.418 432.826 364.555C434.963 366.692 438.428 366.692 440.565 364.555Z" fill="#ED7C6D"/>
<path opacity="0.12" d="M439.765 367.639C442.787 367.639 445.237 365.189 445.237 362.167C445.237 359.145 442.787 356.695 439.765 356.695C436.743 356.695 434.293 359.145 434.293 362.167C434.293 365.189 436.743 367.639 439.765 367.639Z" fill="#ED7C6D"/>
<path opacity="0.12" d="M437.277 369.264C440.299 369.264 442.748 366.814 442.748 363.792C442.748 360.77 440.299 358.32 437.277 358.32C434.255 358.32 431.805 360.77 431.805 363.792C431.805 366.814 434.255 369.264 437.277 369.264Z" fill="#ED7C6D"/>
<path opacity="0.12" d="M437.794 366.267C440.057 366.267 441.892 364.432 441.892 362.169C441.892 359.905 440.057 358.07 437.794 358.07C435.53 358.07 433.695 359.905 433.695 362.169C433.695 364.432 435.53 366.267 437.794 366.267Z" fill="#ED7C6D"/>
<path opacity="0.12" d="M438.355 364.983C439.687 364.983 440.768 363.902 440.768 362.569C440.768 361.237 439.687 360.156 438.355 360.156C437.022 360.156 435.941 361.237 435.941 362.569C435.941 363.902 437.022 364.983 438.355 364.983Z" fill="#ED7C6D"/>
<path opacity="0.12" d="M439.039 362.262C439.345 360.965 438.542 359.665 437.244 359.359C435.947 359.053 434.648 359.856 434.341 361.153C434.035 362.45 434.839 363.75 436.136 364.056C437.433 364.362 438.733 363.559 439.039 362.262Z" fill="#ED7C6D"/>
<path opacity="0.12" d="M439.647 363.61C440.878 363.1 441.463 361.688 440.953 360.457C440.443 359.225 439.031 358.641 437.8 359.151C436.569 359.661 435.984 361.072 436.494 362.304C437.004 363.535 438.415 364.12 439.647 363.61Z" fill="#ED7C6D"/>
<path opacity="0.12" d="M438.401 364.395C439.632 363.885 440.217 362.473 439.707 361.242C439.197 360.011 437.785 359.426 436.554 359.936C435.322 360.446 434.738 361.858 435.248 363.089C435.758 364.32 437.169 364.905 438.401 364.395Z" fill="#ED7C6D"/>
<path opacity="0.12" d="M440.138 361.924C440.445 360.627 439.641 359.327 438.344 359.021C437.047 358.715 435.747 359.518 435.441 360.815C435.135 362.113 435.938 363.412 437.235 363.718C438.533 364.025 439.832 363.221 440.138 361.924Z" fill="#ED7C6D"/>
<path opacity="0.05" d="M438.167 363.089C439.12 363.089 439.892 362.317 439.892 361.365C439.892 360.413 439.12 359.641 438.167 359.641C437.215 359.641 436.443 360.413 436.443 361.365C436.443 362.317 437.215 363.089 438.167 363.089Z" fill="#FDECE9"/>
<path opacity="0.05" d="M437.79 361.717C438.359 361.717 438.821 361.256 438.821 360.687C438.821 360.118 438.359 359.656 437.79 359.656C437.221 359.656 436.76 360.118 436.76 360.687C436.76 361.256 437.221 361.717 437.79 361.717Z" fill="#FDECE9"/>
<path opacity="0.05" d="M438.581 361.084C438.498 361.195 438.383 361.279 438.252 361.325C438.121 361.371 437.979 361.377 437.845 361.343C437.71 361.308 437.589 361.234 437.496 361.131C437.403 361.027 437.343 360.899 437.323 360.761C437.304 360.624 437.325 360.483 437.385 360.358C437.446 360.233 437.541 360.128 437.661 360.057C437.781 359.986 437.918 359.952 438.057 359.96C438.196 359.968 438.329 360.016 438.441 360.099C438.515 360.155 438.577 360.224 438.624 360.304C438.671 360.383 438.702 360.471 438.715 360.562C438.728 360.654 438.723 360.747 438.7 360.836C438.677 360.926 438.637 361.01 438.581 361.084Z" fill="#FDECE9"/>
<path opacity="0.05" d="M438.353 360.992C438.269 361.103 438.155 361.188 438.024 361.234C437.892 361.28 437.75 361.287 437.615 361.252C437.481 361.218 437.359 361.144 437.266 361.041C437.173 360.937 437.113 360.808 437.093 360.671C437.073 360.533 437.095 360.392 437.155 360.267C437.215 360.141 437.311 360.036 437.431 359.966C437.55 359.895 437.688 359.861 437.827 359.868C437.966 359.876 438.1 359.924 438.211 360.008C438.361 360.12 438.459 360.286 438.486 360.471C438.512 360.655 438.464 360.843 438.353 360.992Z" fill="#FDECE9"/>
<path opacity="0.05" d="M436.8 361.116C437.173 361.015 437.393 360.631 437.292 360.258C437.191 359.886 436.807 359.666 436.434 359.766C436.062 359.867 435.842 360.251 435.942 360.624C436.043 360.997 436.427 361.217 436.8 361.116Z" fill="#FDECE9"/>
<path opacity="0.05" d="M438.441 360.992C438.357 361.103 438.243 361.187 438.112 361.233C437.981 361.279 437.839 361.285 437.704 361.251C437.569 361.216 437.448 361.143 437.355 361.039C437.263 360.936 437.203 360.807 437.183 360.669C437.163 360.532 437.185 360.392 437.245 360.266C437.305 360.141 437.401 360.036 437.52 359.965C437.64 359.894 437.778 359.861 437.917 359.868C438.055 359.876 438.189 359.924 438.3 360.008C438.449 360.12 438.548 360.286 438.574 360.471C438.6 360.655 438.552 360.843 438.441 360.992Z" fill="#FDECE9"/>
<path opacity="0.12" d="M400.37 367.639C403.392 367.639 405.842 365.189 405.842 362.167C405.842 359.145 403.392 356.695 400.37 356.695C397.348 356.695 394.898 359.145 394.898 362.167C394.898 365.189 397.348 367.639 400.37 367.639Z" fill="#ED7C6D"/>
<path opacity="0.12" d="M403.455 364.557C405.592 362.42 405.592 358.955 403.455 356.818C401.318 354.681 397.854 354.681 395.717 356.818C393.58 358.955 393.58 362.42 395.717 364.557C397.854 366.694 401.318 366.694 403.455 364.557Z" fill="#ED7C6D"/>
<path opacity="0.12" d="M402.657 367.639C405.679 367.639 408.129 365.189 408.129 362.167C408.129 359.145 405.679 356.695 402.657 356.695C399.635 356.695 397.186 359.145 397.186 362.167C397.186 365.189 399.635 367.639 402.657 367.639Z" fill="#ED7C6D"/>
<path opacity="0.12" d="M400.167 369.264C403.189 369.264 405.639 366.814 405.639 363.792C405.639 360.77 403.189 358.32 400.167 358.32C397.145 358.32 394.695 360.77 394.695 363.792C394.695 366.814 397.145 369.264 400.167 369.264Z" fill="#ED7C6D"/>
<path opacity="0.12" d="M400.686 366.267C402.949 366.267 404.784 364.432 404.784 362.169C404.784 359.905 402.949 358.07 400.686 358.07C398.423 358.07 396.588 359.905 396.588 362.169C396.588 364.432 398.423 366.267 400.686 366.267Z" fill="#ED7C6D"/>
<path opacity="0.12" d="M401.247 364.983C402.58 364.983 403.66 363.902 403.66 362.569C403.66 361.237 402.58 360.156 401.247 360.156C399.914 360.156 398.834 361.237 398.834 362.569C398.834 363.902 399.914 364.983 401.247 364.983Z" fill="#ED7C6D"/>
<path opacity="0.12" d="M401.931 362.262C402.238 360.965 401.434 359.665 400.137 359.359C398.84 359.053 397.54 359.856 397.234 361.153C396.928 362.45 397.731 363.75 399.028 364.056C400.325 364.362 401.625 363.559 401.931 362.262Z" fill="#ED7C6D"/>
<path opacity="0.12" d="M402.537 363.61C403.769 363.1 404.353 361.688 403.843 360.457C403.333 359.225 401.922 358.641 400.69 359.151C399.459 359.661 398.874 361.072 399.384 362.304C399.894 363.535 401.306 364.12 402.537 363.61Z" fill="#ED7C6D"/>
<path opacity="0.12" d="M401.293 364.395C402.525 363.885 403.109 362.473 402.599 361.242C402.089 360.011 400.678 359.426 399.446 359.936C398.215 360.446 397.63 361.858 398.14 363.089C398.65 364.32 400.062 364.905 401.293 364.395Z" fill="#ED7C6D"/>
<path opacity="0.12" d="M403.031 361.924C403.337 360.627 402.534 359.327 401.237 359.021C399.94 358.715 398.64 359.518 398.334 360.815C398.027 362.113 398.831 363.412 400.128 363.718C401.425 364.025 402.725 363.221 403.031 361.924Z" fill="#ED7C6D"/>
<path opacity="0.05" d="M401.058 363.089C402.01 363.089 402.782 362.317 402.782 361.365C402.782 360.413 402.01 359.641 401.058 359.641C400.106 359.641 399.334 360.413 399.334 361.365C399.334 362.317 400.106 363.089 401.058 363.089Z" fill="#FDECE9"/>
<path opacity="0.05" d="M400.681 361.717C401.25 361.717 401.711 361.256 401.711 360.687C401.711 360.118 401.25 359.656 400.681 359.656C400.112 359.656 399.65 360.118 399.65 360.687C399.65 361.256 400.112 361.717 400.681 361.717Z" fill="#FDECE9"/>
<path opacity="0.05" d="M401.474 361.084C401.391 361.195 401.276 361.279 401.145 361.325C401.014 361.371 400.872 361.377 400.737 361.343C400.603 361.308 400.481 361.234 400.389 361.131C400.296 361.027 400.236 360.899 400.216 360.761C400.196 360.624 400.218 360.483 400.278 360.358C400.338 360.233 400.434 360.128 400.554 360.057C400.673 359.986 400.811 359.952 400.95 359.96C401.089 359.968 401.222 360.016 401.333 360.099C401.407 360.155 401.469 360.224 401.516 360.304C401.563 360.383 401.594 360.471 401.607 360.562C401.621 360.654 401.615 360.747 401.593 360.836C401.57 360.926 401.529 361.01 401.474 361.084Z" fill="#FDECE9"/>
<path opacity="0.05" d="M401.245 360.992C401.162 361.103 401.048 361.187 400.916 361.233C400.785 361.279 400.643 361.285 400.509 361.251C400.374 361.216 400.253 361.143 400.16 361.039C400.067 360.936 400.007 360.807 399.988 360.669C399.968 360.532 399.989 360.392 400.05 360.266C400.11 360.141 400.205 360.036 400.325 359.965C400.445 359.894 400.583 359.861 400.721 359.868C400.86 359.876 400.994 359.924 401.105 360.008C401.254 360.12 401.352 360.286 401.379 360.471C401.405 360.655 401.357 360.843 401.245 360.992Z" fill="#FDECE9"/>
<path opacity="0.05" d="M401.174 361.34C401.549 361.237 401.769 360.851 401.666 360.476C401.564 360.102 401.177 359.882 400.803 359.984C400.428 360.087 400.208 360.473 400.311 360.848C400.413 361.222 400.8 361.442 401.174 361.34Z" fill="#FDECE9"/>
<path opacity="0.05" d="M401.333 360.992C401.25 361.103 401.135 361.188 401.004 361.234C400.873 361.28 400.731 361.287 400.596 361.252C400.461 361.218 400.34 361.144 400.247 361.041C400.154 360.937 400.093 360.808 400.074 360.671C400.054 360.533 400.075 360.392 400.135 360.267C400.195 360.141 400.291 360.036 400.411 359.966C400.531 359.895 400.669 359.861 400.808 359.868C400.947 359.876 401.08 359.924 401.192 360.008C401.341 360.12 401.44 360.286 401.466 360.471C401.493 360.655 401.445 360.843 401.333 360.992Z" fill="#FDECE9"/>
<path d="M414.83 358.047C414.83 358.063 414.83 358.077 414.83 358.093C414.846 359.512 415.42 360.867 416.429 361.864C417.437 362.862 418.798 363.421 420.217 363.421C421.635 363.421 422.997 362.862 424.005 361.864C425.014 360.867 425.588 359.512 425.604 358.093C425.604 358.077 425.604 358.063 425.604 358.047H414.83Z" fill="#F17D6F"/>
<path d="M512.834 423.39C512.318 421.197 512.516 418.355 511.837 416.513C520.664 400.03 519.955 384.55 517.091 375.234C514.228 365.918 501.785 360.65 497.226 374.333C494.96 381.133 485.432 408.964 481.973 416.067C479.911 426.254 479.101 436.902 479.427 447.471C482.252 446.085 485.007 444.55 487.678 442.929C497.093 437.222 505.029 431.159 512.834 423.39Z" fill="#F7A87E"/>
<path d="M490.76 566.682L452.778 533.559C424.004 564.843 375.392 567.689 343.156 539.599C310.92 511.509 307.148 462.937 334.226 430.175L296.244 397.052C250.872 450.791 256.865 531.171 310.055 577.556C363.245 623.941 443.692 618.943 490.76 566.682Z" fill="#FF9149"/>
<path d="M526.199 313.959H527.582V323.335H526.199C526.06 323.335 525.922 323.308 525.793 323.255C525.665 323.201 525.548 323.123 525.449 323.025C525.351 322.926 525.273 322.809 525.219 322.681C525.166 322.552 525.139 322.414 525.139 322.275V315.019C525.139 314.738 525.25 314.468 525.449 314.27C525.648 314.071 525.918 313.959 526.199 313.959Z" fill="#333333"/>
<path d="M526.199 332.375H527.582V349.855H526.199C525.918 349.855 525.648 349.743 525.449 349.544C525.25 349.345 525.139 349.076 525.139 348.794V333.436C525.139 333.154 525.25 332.884 525.449 332.686C525.648 332.487 525.918 332.375 526.199 332.375Z" fill="#333333"/>
<path d="M648.748 365.621H647.365V338.511H648.748C649.029 338.511 649.299 338.623 649.498 338.822C649.697 339.021 649.809 339.291 649.809 339.572V364.561C649.809 364.842 649.697 365.112 649.498 365.31C649.299 365.509 649.029 365.621 648.748 365.621Z" fill="#333333"/>
<path d="M526.199 354.742H527.582V372.222H526.199C525.918 372.222 525.648 372.11 525.449 371.912C525.25 371.713 525.139 371.443 525.139 371.162V355.803C525.139 355.521 525.25 355.252 525.449 355.053C525.648 354.854 525.918 354.742 526.199 354.742Z" fill="#333333"/>
<path d="M630.229 280.525H544.713C534.578 280.525 526.361 288.742 526.361 298.877V510.174C526.361 520.309 534.578 528.525 544.713 528.525H630.229C640.364 528.525 648.58 520.309 648.58 510.174V298.877C648.58 288.742 640.364 280.525 630.229 280.525Z" fill="#444444"/>
<path d="M630.227 282.672H544.709C535.759 282.672 528.504 289.927 528.504 298.877V510.176C528.504 519.126 535.759 526.381 544.709 526.381H630.227C639.177 526.381 646.433 519.126 646.433 510.176V298.877C646.433 289.927 639.177 282.672 630.227 282.672Z" fill="#444444"/>
<path d="M630.228 282.809H544.71C535.835 282.809 528.641 290.003 528.641 298.878V510.177C528.641 519.052 535.835 526.246 544.71 526.246H630.228C639.103 526.246 646.297 519.052 646.297 510.177V298.878C646.297 290.003 639.103 282.809 630.228 282.809Z" fill="#434343"/>
<path d="M630.229 282.943H544.71C535.911 282.943 528.777 290.077 528.777 298.876V510.176C528.777 518.975 535.911 526.109 544.71 526.109H630.229C639.028 526.109 646.162 518.975 646.162 510.176V298.876C646.162 290.077 639.028 282.943 630.229 282.943Z" fill="#414141"/>
<path d="M630.228 283.08H544.709C535.985 283.08 528.912 290.153 528.912 298.877V510.177C528.912 518.901 535.985 525.973 544.709 525.973H630.228C638.952 525.973 646.025 518.901 646.025 510.177V298.877C646.025 290.153 638.952 283.08 630.228 283.08Z" fill="#404040"/>
<path d="M630.228 283.217H544.71C536.06 283.217 529.049 290.228 529.049 298.878V510.177C529.049 518.827 536.06 525.838 544.71 525.838H630.228C638.878 525.838 645.889 518.827 645.889 510.177V298.878C645.889 290.228 638.878 283.217 630.228 283.217Z" fill="#3E3E3E"/>
<path d="M630.231 283.352H544.712C536.138 283.352 529.188 290.302 529.188 298.876V510.176C529.188 518.75 536.138 525.701 544.712 525.701H630.231C638.805 525.701 645.756 518.75 645.756 510.176V298.876C645.756 290.302 638.805 283.352 630.231 283.352Z" fill="#3D3D3D"/>
<path d="M630.227 283.488H544.711C536.212 283.488 529.322 290.378 529.322 298.877V510.174C529.322 518.673 536.212 525.563 544.711 525.563H630.227C638.726 525.563 645.616 518.673 645.616 510.174V298.877C645.616 290.378 638.726 283.488 630.227 283.488Z" fill="#3B3B3B"/>
<path d="M630.228 283.623H544.712C536.288 283.623 529.459 290.452 529.459 298.876V510.173C529.459 518.597 536.288 525.426 544.712 525.426H630.228C638.652 525.426 645.481 518.597 645.481 510.173V298.876C645.481 290.452 638.652 283.623 630.228 283.623Z" fill="#3A3A3A"/>
<path d="M630.229 283.76H544.713C536.364 283.76 529.596 290.528 529.596 298.877V510.174C529.596 518.523 536.364 525.291 544.713 525.291H630.229C638.578 525.291 645.346 518.523 645.346 510.174V298.877C645.346 290.528 638.578 283.76 630.229 283.76Z" fill="#393939"/>
<path d="M630.228 283.898H544.711C536.438 283.898 529.73 290.606 529.73 298.879V510.176C529.73 518.45 536.438 525.157 544.711 525.157H630.228C638.501 525.157 645.208 518.45 645.208 510.176V298.879C645.208 290.606 638.501 283.898 630.228 283.898Z" fill="#373737"/>
<path d="M630.228 284.035H544.712C536.513 284.035 529.867 290.681 529.867 298.88V510.177C529.867 518.376 536.513 525.022 544.712 525.022H630.228C638.427 525.022 645.073 518.376 645.073 510.177V298.88C645.073 290.681 638.427 284.035 630.228 284.035Z" fill="#363636"/>
<path d="M630.229 284.17H544.713C536.589 284.17 530.004 290.755 530.004 298.879V510.176C530.004 518.299 536.589 524.885 544.713 524.885H630.229C638.352 524.885 644.938 518.299 644.938 510.176V298.879C644.938 290.755 638.352 284.17 630.229 284.17Z" fill="#343434"/>
<path d="M630.228 284.307H544.709C536.662 284.307 530.139 290.83 530.139 298.877V510.177C530.139 518.224 536.662 524.747 544.709 524.747H630.228C638.275 524.747 644.798 518.224 644.798 510.177V298.877C644.798 290.83 638.275 284.307 630.228 284.307Z" fill="#333333"/>
<path d="M630.228 284.443H544.71C536.738 284.443 530.275 290.906 530.275 298.878V510.177C530.275 518.149 536.738 524.612 544.71 524.612H630.228C638.2 524.612 644.663 518.149 644.663 510.177V298.878C644.663 290.906 638.2 284.443 630.228 284.443Z" fill="#313131"/>
<path d="M630.229 284.578H544.711C536.814 284.578 530.412 290.98 530.412 298.877V510.176C530.412 518.073 536.814 524.474 544.711 524.474H630.229C638.126 524.474 644.527 518.073 644.527 510.176V298.877C644.527 290.98 638.126 284.578 630.229 284.578Z" fill="#303030"/>
<path d="M630.228 284.715H544.709C536.888 284.715 530.547 291.056 530.547 298.877V510.177C530.547 517.998 536.888 524.339 544.709 524.339H630.228C638.049 524.339 644.39 517.998 644.39 510.177V298.877C644.39 291.056 638.049 284.715 630.228 284.715Z" fill="#2F2F2F"/>
<path d="M630.229 284.852H544.71C536.963 284.852 530.684 291.131 530.684 298.878V510.177C530.684 517.924 536.963 524.204 544.71 524.204H630.229C637.975 524.204 644.255 517.924 644.255 510.177V298.878C644.255 291.131 637.975 284.852 630.229 284.852Z" fill="#2D2D2D"/>
<path d="M630.227 284.986H544.709C537.037 284.986 530.818 291.205 530.818 298.877V510.176C530.818 517.848 537.037 524.067 544.709 524.067H630.227C637.899 524.067 644.118 517.848 644.118 510.176V298.877C644.118 291.205 637.899 284.986 630.227 284.986Z" fill="#2C2C2C"/>
<path d="M630.228 285.121H544.711C537.115 285.121 530.957 291.279 530.957 298.875V510.173C530.957 517.769 537.115 523.927 544.711 523.927H630.228C637.824 523.927 643.982 517.769 643.982 510.173V298.875C643.982 291.279 637.824 285.121 630.228 285.121Z" fill="#2A2A2A"/>
<path d="M630.228 285.258H544.712C537.191 285.258 531.094 291.355 531.094 298.876V510.173C531.094 517.695 537.191 523.792 544.712 523.792H630.228C637.749 523.792 643.847 517.695 643.847 510.173V298.876C643.847 291.355 637.749 285.258 630.228 285.258Z" fill="#292929"/>
<path d="M630.229 285.395H544.713C537.267 285.395 531.23 291.431 531.23 298.877V510.174C531.23 517.62 537.267 523.656 544.713 523.656H630.229C637.675 523.656 643.711 517.62 643.711 510.174V298.877C643.711 291.431 637.675 285.395 630.229 285.395Z" fill="#272727"/>
<path d="M630.228 285.533H544.712C537.341 285.533 531.365 291.509 531.365 298.879V510.177C531.365 517.548 537.341 523.523 544.712 523.523H630.228C637.599 523.523 643.574 517.548 643.574 510.177V298.879C643.574 291.509 637.599 285.533 630.228 285.533Z" fill="#262626"/>
<path d="M630.229 283.387C634.336 283.391 638.273 285.025 641.177 287.929C644.081 290.833 645.715 294.77 645.719 298.877V510.177C645.715 514.284 644.081 518.221 641.177 521.125C638.273 524.029 634.336 525.663 630.229 525.667H544.712C540.605 525.663 536.667 524.03 533.763 521.125C530.859 518.221 529.225 514.284 529.22 510.177V298.877C529.225 294.77 530.859 290.833 533.763 287.928C536.667 285.024 540.605 283.391 544.712 283.387H630.229ZM630.229 282.504H544.712C540.373 282.51 536.213 284.237 533.145 287.305C530.076 290.373 528.35 294.533 528.344 298.873V510.172C528.35 514.512 530.076 518.671 533.145 521.74C536.213 524.808 540.373 526.535 544.712 526.541H630.229C634.568 526.535 638.728 524.808 641.796 521.74C644.865 518.671 646.591 514.512 646.597 510.172V298.877C646.591 294.538 644.865 290.378 641.796 287.31C638.728 284.241 634.568 282.515 630.229 282.509V282.504Z" fill="#2D2C2C"/>
<mask id="mask0_42_7531" style="mask-type:luminance" maskUnits="userSpaceOnUse" x="533" y="287" width="109" height="235">
<path d="M630.228 287.678H619.109C618.766 287.678 618.437 287.814 618.194 288.056C617.951 288.299 617.814 288.628 617.813 288.971V289.132C617.815 290.097 617.626 291.052 617.258 291.943C616.89 292.835 616.35 293.645 615.669 294.327C614.987 295.01 614.178 295.551 613.287 295.92C612.397 296.29 611.442 296.48 610.477 296.48H564.101C562.155 296.48 560.289 295.707 558.914 294.331C557.538 292.956 556.765 291.09 556.765 289.144V288.983C556.765 288.64 556.629 288.311 556.386 288.068C556.144 287.826 555.815 287.689 555.472 287.689H544.712C543.241 287.689 541.784 287.978 540.425 288.541C539.066 289.104 537.831 289.929 536.791 290.969C535.751 292.009 534.926 293.244 534.363 294.603C533.8 295.962 533.51 297.418 533.51 298.889V510.189C533.51 511.66 533.8 513.116 534.363 514.475C534.926 515.834 535.751 517.069 536.791 518.109C537.831 519.149 539.066 519.974 540.425 520.537C541.784 521.099 543.241 521.389 544.712 521.389H630.228C633.199 521.389 636.047 520.209 638.148 518.108C640.248 516.008 641.428 513.159 641.428 510.189V298.878C641.428 295.907 640.248 293.058 638.148 290.958C636.047 288.858 633.199 287.678 630.228 287.678Z" fill="white"/>
</mask>
<g mask="url(#mask0_42_7531)">
<path d="M641.428 287.678H533.51V521.377H641.428V287.678Z" fill="#9EA6FF"/>
<path d="M533.279 521.608V336.384H531.734C532.657 334.948 533.579 333.511 534.501 332.072C536.374 329.198 538.296 326.326 540.265 323.455C544.207 317.719 548.339 312.007 552.661 306.318C556.983 300.63 561.388 295.122 565.876 289.795C566.437 289.13 566.998 288.466 567.559 287.805C567.837 287.473 568.118 287.144 568.4 286.816V287.453H641.658V493.33H643.042C641.855 494.293 640.669 495.245 639.482 496.184C634.733 499.937 629.991 503.472 625.255 506.789C620.52 510.106 615.812 513.194 611.132 516.052C608.793 517.482 606.462 518.852 604.139 520.163C602.978 520.818 601.819 521.458 600.665 522.083V521.608H533.279Z" fill="#9EA6FF"/>
<path d="M533.279 521.609V336.686H532.756C533.66 335.264 534.576 333.841 535.504 332.416C537.361 329.571 539.264 326.728 541.215 323.886C545.115 318.209 549.205 312.555 553.484 306.925C557.763 301.295 562.119 295.843 566.552 290.568C567.658 289.249 568.769 287.943 569.885 286.648V287.448H641.659V492.016H642.915C641.742 492.97 640.568 493.912 639.392 494.84C634.694 498.554 630.001 502.052 625.313 505.335C616.444 511.591 607.172 517.253 597.555 522.284V521.609H533.279Z" fill="#9FA7FF"/>
<path d="M533.28 521.606V339.098H532.447C532.887 338.394 533.331 337.69 533.78 336.986C534.674 335.576 535.58 334.168 536.498 332.76C538.342 329.946 540.226 327.133 542.149 324.322C546.011 318.703 550.059 313.108 554.291 307.538C558.524 301.968 562.835 296.573 567.223 291.352C568.32 290.047 569.42 288.753 570.522 287.469L571.352 286.508V287.446H641.668V490.697H642.798C641.636 491.639 640.473 492.571 639.31 493.491C634.659 497.166 630.015 500.625 625.378 503.866C616.601 510.057 607.425 515.66 597.908 520.638C596.783 521.222 595.661 521.791 594.542 522.344V521.595L533.28 521.606Z" fill="#A0A7FE"/>
<path d="M533.278 521.606V341.467H532.174C539.065 330.316 546.714 319.162 555.09 308.149C559.278 302.642 563.543 297.303 567.885 292.133C568.961 290.842 570.049 289.561 571.15 288.292C571.695 287.656 572.243 287.023 572.791 286.395V287.446H641.658V489.378H642.658C641.51 490.314 640.357 491.236 639.2 492.145C634.598 495.783 630.003 499.209 625.413 502.423C616.729 508.549 607.65 514.094 598.234 519.022C596.007 520.176 593.793 521.272 591.592 522.309V521.618L533.278 521.606Z" fill="#A1A8FE"/>
<path d="M533.278 521.607V341.724H533.221C540.04 330.693 547.607 319.656 555.895 308.756C560.045 303.309 564.264 298.027 568.552 292.911C569.628 291.634 570.704 290.366 571.779 289.109C572.321 288.482 572.861 287.857 573.393 287.232V287.442H641.635V488.063H642.508C641.37 488.985 640.231 489.897 639.094 490.799C634.543 494.399 629.997 497.788 625.455 500.966C616.863 507.027 607.88 512.512 598.564 517.386C596.36 518.529 594.17 519.614 591.994 520.639C590.905 521.154 589.821 521.652 588.741 522.133V521.607H533.278Z" fill="#A2A8FD"/>
<path d="M533.279 521.607V346.074H531.773C532.594 344.709 533.426 343.345 534.268 341.982C541.014 331.068 548.5 320.152 556.698 309.371C560.797 303.981 564.971 298.755 569.221 293.694C571.342 291.167 573.479 288.682 575.632 286.238V287.444H641.658V486.744H642.403C641.278 487.666 640.152 488.568 639.025 489.45C634.524 493.01 630.027 496.363 625.534 499.509C617.034 505.503 608.147 510.929 598.931 515.751C594.574 518.013 590.271 520.042 586.021 521.837V521.607H533.279Z" fill="#A3A9FD"/>
<path d="M533.279 520.035V346.277H532.848C533.659 344.926 534.482 343.577 535.317 342.229C541.989 331.435 549.394 320.636 557.502 309.973C561.555 304.643 565.683 299.475 569.887 294.469C571.988 291.969 574.103 289.509 576.232 287.092V287.435H641.658V485.419H642.276C641.162 486.322 640.048 487.214 638.935 488.095C634.478 491.615 630.029 494.932 625.589 498.045C617.182 503.975 608.392 509.343 599.277 514.114C594.966 516.351 590.708 518.357 586.502 520.134C584.403 521.021 582.32 521.849 580.255 522.619V521.6H533.279V520.035Z" fill="#A4AAFC"/>
<path d="M533.28 518.339V348.5H532.729C533.125 347.832 533.523 347.165 533.923 346.499C534.725 345.165 535.539 343.83 536.364 342.495C542.962 331.82 550.287 321.139 558.305 310.594C562.314 305.321 566.397 300.21 570.556 295.261C572.631 292.786 574.722 290.355 576.83 287.966C577.355 287.37 577.882 286.775 578.411 286.182V287.447H641.659V484.114H642.148C641.047 485.009 639.946 485.891 638.844 486.761C634.439 490.242 630.039 493.52 625.645 496.594C617.33 502.463 608.637 507.777 599.621 512.501C591.091 516.923 582.757 520.448 574.722 523.012V521.628H533.28V518.339Z" fill="#A6AAFC"/>
<path d="M533.279 516.65V350.658H532.652C534.189 348.02 535.775 345.382 537.411 342.743C543.938 332.184 551.179 321.623 559.11 311.195C563.075 305.982 567.113 300.927 571.223 296.032C573.278 293.587 575.346 291.182 577.427 288.818C577.948 288.228 578.469 287.64 578.992 287.055V287.437H641.659V482.785H642.021C640.93 483.671 639.841 484.544 638.754 485.404C634.397 488.849 630.045 492.093 625.7 495.136C617.478 500.934 608.881 506.183 599.967 510.85C591.534 515.23 583.289 518.709 575.354 521.243C573.371 521.878 571.409 522.452 569.466 522.965V521.598H533.27L533.279 516.65Z" fill="#A7ABFB"/>
<path d="M533.279 514.946V352.79H532.617C532.992 352.139 533.37 351.489 533.751 350.837C535.275 348.224 536.843 345.615 538.457 343.01C544.912 332.571 552.071 322.127 559.911 311.817C563.832 306.662 567.828 301.667 571.9 296.832C573.929 294.412 575.974 292.035 578.035 289.699C579.063 288.532 580.095 287.375 581.131 286.227V287.455H641.658V481.487H641.889C640.813 482.363 639.737 483.226 638.661 484.076C634.358 487.48 630.054 490.687 625.751 493.697C617.62 499.431 609.12 504.622 600.305 509.235C591.969 513.558 583.814 517.005 575.971 519.513C572.185 520.731 568.337 521.748 564.444 522.561V521.616H533.279V514.946Z" fill="#A8ABFB"/>
<path d="M533.279 513.249V354.865H532.627C533.357 353.578 534.099 352.29 534.854 351.001C536.36 348.423 537.911 345.844 539.506 343.264C545.883 332.944 552.963 322.62 560.717 312.426C564.591 307.329 568.54 302.389 572.562 297.606C574.56 295.216 576.58 292.866 578.623 290.556C579.641 289.4 580.661 288.255 581.685 287.121V287.448H641.659V480.164H641.765C640.7 481.029 639.635 481.882 638.569 482.723C634.312 486.089 630.059 489.259 625.811 492.235C617.773 497.904 609.369 503.035 600.654 507.596C584.17 516.145 568.415 521.228 554.37 522.351C547.345 522.907 540.749 522.469 534.704 520.968C533.948 520.782 533.2 520.579 532.461 520.359H533.279V513.249Z" fill="#A9ACFA"/>
<path d="M533.279 511.551V356.899H532.677C533.032 356.263 533.391 355.626 533.754 354.99C534.475 353.717 535.208 352.444 535.953 351.17C537.443 348.621 538.98 346.072 540.564 343.523C546.87 333.321 553.867 323.115 561.53 313.038C565.349 307.993 569.248 303.109 573.225 298.386C575.208 296.024 577.206 293.701 579.22 291.417C580.225 290.277 581.234 289.145 582.247 288.023C582.754 287.462 583.261 286.904 583.768 286.35V287.447H641.658V477.552H643.214L641.635 478.846C640.584 479.702 639.532 480.547 638.479 481.382C634.269 484.708 630.065 487.842 625.866 490.783C617.92 496.386 609.613 501.458 600.999 505.967C584.702 514.417 569.129 519.443 555.245 520.54C548.304 521.091 541.781 520.658 535.806 519.18C535.059 518.995 534.32 518.795 533.59 518.578C533.224 518.469 532.862 518.356 532.502 518.239H533.279V511.551Z" fill="#AAADFA"/>
<path d="M533.279 509.852V358.884H532.769C535.536 353.861 538.479 348.826 541.599 343.779C547.824 333.694 554.74 323.608 562.323 313.649C566.108 308.67 569.965 303.843 573.892 299.168C575.853 296.833 577.828 294.537 579.817 292.279C580.812 291.15 581.812 290.031 582.814 288.925C583.313 288.372 583.814 287.82 584.317 287.27V287.447H641.658V476.264H643.067C642.549 476.691 642.029 477.116 641.508 477.539C640.466 478.386 639.426 479.22 638.387 480.042C634.228 483.33 630.072 486.427 625.921 489.333C618.067 494.871 609.857 499.885 601.343 504.342C585.241 512.683 569.843 517.649 556.121 518.726C549.26 519.267 542.816 518.841 536.907 517.382C535.429 517.017 533.986 516.588 532.58 516.093H533.272L533.279 509.852Z" fill="#ABADF9"/>
<path d="M533.279 508.155V362.681H531.895C532.558 361.444 533.231 360.204 533.915 358.962C536.654 353.999 539.563 349.023 542.644 344.034C548.801 334.07 555.637 324.102 563.121 314.262C570.604 304.422 578.392 295.168 586.348 286.566V287.44H641.658V474.943H642.922C642.407 475.367 641.893 475.787 641.379 476.204C640.351 477.042 639.324 477.866 638.297 478.678C634.184 481.927 630.077 484.988 625.976 487.86C618.215 493.333 610.102 498.287 601.689 502.691C585.769 510.945 570.565 515.853 556.997 516.927C550.217 517.462 543.856 517.04 538.01 515.597C536.549 515.238 535.124 514.813 533.733 514.325C533.037 514.077 532.35 513.816 531.672 513.541H533.286L533.279 508.155Z" fill="#ACAEF9"/>
<path d="M533.278 506.458V362.716H533.073C533.728 361.494 534.394 360.269 535.072 359.041C537.777 354.136 540.651 349.218 543.694 344.286C549.779 334.439 556.534 324.59 563.929 314.866C571.325 305.141 579.016 296.019 586.876 287.514C587.367 286.981 587.859 286.452 588.351 285.928V287.447H641.658V473.647H642.774C642.266 474.067 641.759 474.482 641.25 474.894C640.235 475.72 639.22 476.534 638.204 477.338C634.142 480.547 630.084 483.571 626.031 486.41C618.363 491.819 610.346 496.715 602.032 501.066C586.304 509.223 571.275 514.071 557.873 515.129C551.173 515.659 544.882 515.242 539.114 513.817C537.67 513.459 536.261 513.039 534.885 512.556C534.198 512.316 533.52 512.059 532.85 511.784H533.278V506.458Z" fill="#ADAEF8"/>
<path d="M533.279 504.761V366.374H532.341C533.594 363.963 534.888 361.544 536.223 359.119C538.896 354.276 541.74 349.419 544.754 344.548C550.766 334.822 557.434 325.09 564.746 315.484C572.059 305.877 579.647 296.846 587.414 288.454C587.901 287.929 588.387 287.406 588.873 286.887V287.447H641.668V472.344H642.639C642.136 472.759 641.634 473.17 641.133 473.578C640.131 474.394 639.127 475.199 638.122 475.992C634.108 479.164 630.099 482.152 626.097 484.955C618.521 490.297 610.6 495.134 602.388 499.433C586.849 507.503 571.999 512.282 558.761 513.331C552.14 513.854 545.925 513.441 540.226 512.033C537.422 511.347 534.693 510.387 532.078 509.167H533.288L533.279 504.761Z" fill="#AEAFF8"/>
<path d="M533.278 503.066V369.935H531.715C532.313 368.747 532.921 367.558 533.538 366.366C534.768 363.983 536.046 361.594 537.372 359.201C540.011 354.413 542.816 349.615 545.787 344.806C551.726 335.197 558.317 325.585 565.536 316.096C572.754 306.607 580.256 297.685 587.929 289.396C588.888 288.359 589.849 287.332 590.813 286.316V287.448H641.657V471.046H642.48C641.985 471.454 641.49 471.86 640.993 472.263C640.004 473.068 639.013 473.863 638.022 474.647C634.056 477.781 630.096 480.732 626.142 483.502C618.657 488.776 610.833 493.551 602.721 497.796C587.371 505.754 572.704 510.476 559.627 511.522C553.089 512.039 546.947 511.633 541.317 510.241C538.548 509.564 535.853 508.616 533.271 507.409L533.278 503.066Z" fill="#AFB0F7"/>
<path d="M533.279 501.368V369.881H532.938C533.528 368.707 534.128 367.532 534.739 366.356C535.96 364.002 537.223 361.642 538.526 359.278C541.139 354.551 543.906 349.812 546.826 345.061C552.691 335.571 559.202 326.078 566.33 316.704C573.459 307.33 580.866 298.521 588.444 290.334C589.391 289.31 590.341 288.297 591.294 287.293V287.445H641.659V469.742H642.336C641.845 470.146 641.355 470.547 640.868 470.943C639.889 471.741 638.91 472.526 637.931 473.299C634.016 476.393 630.105 479.308 626.198 482.044C618.807 487.257 611.079 491.976 603.065 496.169C587.907 504.031 573.419 508.704 560.504 509.728C554.049 510.237 547.981 509.836 542.42 508.462C539.686 507.793 537.024 506.856 534.473 505.666C533.843 505.37 533.224 505.063 532.615 504.743H533.279V501.368Z" fill="#B0B0F7"/>
<path d="M533.279 499.668V373.297H532.447C541.438 354.807 553.064 335.829 567.144 317.316C574.182 308.06 581.5 299.361 588.983 291.276C589.919 290.263 590.858 289.264 591.798 288.279L593.209 286.799V287.454H641.658V468.439H642.186C641.705 468.838 641.222 469.234 640.736 469.626C639.77 470.413 638.803 471.188 637.836 471.952C633.974 475.008 630.113 477.886 626.253 480.588C618.954 485.735 611.324 490.394 603.411 494.536C588.442 502.299 574.132 506.914 561.38 507.924C555.003 508.429 549.014 508.033 543.522 506.675C540.825 506.012 538.199 505.086 535.684 503.908C534.445 503.327 533.238 502.681 532.066 501.974H533.288L533.279 499.668Z" fill="#B1B1F6"/>
<path d="M533.279 497.976V376.617H532.053C532.588 375.48 533.132 374.341 533.685 373.2C542.559 354.951 554.047 336.205 567.951 317.92C574.9 308.781 582.125 300.191 589.514 292.21C591.358 290.212 593.215 288.254 595.084 286.338V287.44H641.654V467.139H642.039C641.562 467.53 641.085 467.922 640.607 468.31C639.653 469.086 638.698 469.854 637.744 470.615C633.926 473.632 630.113 476.476 626.304 479.145C619.099 484.223 611.566 488.819 603.755 492.904C588.974 500.57 574.851 505.123 562.256 506.124C555.96 506.622 550.038 506.228 544.627 504.888C541.96 504.237 539.365 503.324 536.878 502.163C535.655 501.589 534.462 500.951 533.305 500.254C533.017 500.079 532.731 499.9 532.445 499.717H533.279V497.976Z" fill="#B2B1F6"/>
<path d="M533.278 496.275V379.836H531.754C532.768 377.599 533.823 375.355 534.917 373.104C543.678 355.087 555.018 336.581 568.74 318.538C575.601 309.517 582.734 301.038 590.027 293.158C591.851 291.186 593.685 289.253 595.527 287.359V287.447H641.657V465.836H641.888C641.427 466.223 640.947 466.611 640.475 466.989C639.534 467.757 638.592 468.513 637.648 469.255C633.879 472.234 630.114 475.04 626.351 477.672C619.238 482.692 611.8 487.236 604.088 491.275C589.496 498.841 575.553 503.341 563.12 504.323C556.895 504.814 551.067 504.427 545.716 503.106C543.084 502.462 540.521 501.56 538.066 500.413C536.859 499.848 535.682 499.22 534.541 498.53C533.969 498.184 533.408 497.824 532.856 497.449H533.266L533.278 496.275Z" fill="#B3B2F5"/>
<path d="M533.279 494.578V379.648H533.049C534.049 377.444 535.09 375.23 536.172 373.006C544.818 355.224 556.011 336.958 569.555 319.149C576.327 310.245 583.365 301.876 590.565 294.098C592.365 292.152 594.174 290.244 595.992 288.375C596.453 287.914 596.914 287.453 597.357 286.992V287.453H641.659V463.383H643.143C641.285 464.927 639.429 466.437 637.576 467.913C633.855 470.853 630.139 473.619 626.429 476.212C619.407 481.163 612.065 485.646 604.453 489.63C575.651 504.567 549.403 507.394 532.539 494.568L533.279 494.578Z" fill="#B5B3F5"/>
<path d="M533.831 492.882C533.312 492.486 532.802 492.078 532.307 491.658H533.289V382.723H532.892C533.364 381.635 533.844 380.553 534.333 379.477C535.323 377.301 536.35 375.115 537.416 372.92C545.946 355.374 556.993 337.347 570.358 319.773C577.044 310.987 583.988 302.726 591.093 295.051C592.869 293.133 594.654 291.251 596.449 289.405C597.345 288.483 598.244 287.569 599.146 286.664V287.459H641.659V462.091H642.98C641.145 463.628 639.31 465.12 637.475 466.568C633.804 469.468 630.138 472.201 626.475 474.766C619.546 479.653 612.301 484.077 604.788 488.009C576.364 502.75 550.464 505.539 533.831 492.882Z" fill="#B6B3F5"/>
<path d="M535.111 491.186C534.088 490.408 533.109 489.576 532.176 488.693H533.278V385.702H532.817C534.609 381.446 536.558 377.152 538.663 372.819C547.081 355.505 557.981 337.721 571.17 320.379C577.764 311.708 584.618 303.561 591.627 295.987C593.379 294.094 595.141 292.236 596.913 290.415C597.795 289.507 598.682 288.606 599.573 287.713C600.018 287.268 600.463 286.823 600.908 286.383V287.455H641.657V460.804H642.81C640.999 462.317 639.189 463.789 637.378 465.221C633.759 468.085 630.142 470.781 626.529 473.309C619.692 478.131 612.544 482.495 605.132 486.374C577.086 500.921 551.53 503.672 535.111 491.186Z" fill="#B7B4F4"/>
<path d="M536.402 489.485C535.393 488.72 534.426 487.9 533.506 487.03C533.045 486.597 532.598 486.149 532.162 485.693H533.278V388.562H532.835C533.26 387.518 533.692 386.471 534.133 385.422C535.899 381.224 537.82 376.988 539.897 372.714C548.197 355.633 558.954 338.088 571.961 320.982C578.467 312.429 585.227 304.383 592.143 296.92C595.601 293.185 599.093 289.594 602.617 286.146V287.447H641.657V459.517H642.646C640.862 461.009 639.076 462.461 637.289 463.874C633.715 466.699 630.146 469.359 626.582 471.855C619.837 476.611 612.785 480.916 605.473 484.743C577.81 499.09 552.6 501.806 536.402 489.485Z" fill="#B8B4F4"/>
<path d="M537.694 487.788C535.705 486.276 533.882 484.557 532.258 482.659H533.279V391.326H532.956C533.753 389.278 534.586 387.22 535.455 385.149C537.198 381.009 539.094 376.83 541.143 372.615C549.332 355.769 559.937 338.466 572.769 321.593C579.185 313.157 585.853 305.224 592.672 297.86C596.084 294.171 599.529 290.63 603.005 287.234V287.446H641.659V458.23H642.484C640.726 459.701 638.964 461.133 637.2 462.527C633.677 465.312 630.157 467.936 626.641 470.398C619.989 475.09 613.035 479.337 605.823 483.11C578.535 497.261 553.669 499.938 537.694 487.788Z" fill="#B9B5F3"/>
<path d="M538.983 486.092C537.023 484.601 535.227 482.905 533.625 481.034C533.221 480.573 532.832 480.089 532.454 479.598H533.279V396.998H532.08C535.056 388.656 538.497 380.486 542.385 372.528C550.455 355.917 560.919 338.852 573.571 322.214C579.9 313.896 586.482 306.076 593.2 298.811C596.563 295.178 599.959 291.685 603.388 288.333C604.245 287.497 605.103 286.668 605.961 285.848V287.461H641.658V456.94H642.32C640.583 458.389 638.846 459.802 637.11 461.177C633.633 463.922 630.162 466.51 626.696 468.94C620.14 473.566 613.286 477.753 606.177 481.475C579.259 495.441 554.738 498.074 538.983 486.092Z" fill="#BAB5F3"/>
<path d="M540.286 484.395C538.347 482.926 536.569 481.254 534.983 479.409C534.193 478.487 533.446 477.521 532.742 476.513H533.273V399.481H532.447C532.776 398.505 533.115 397.527 533.464 396.546C536.4 388.322 539.794 380.268 543.629 372.422C551.592 356.053 561.902 339.223 574.377 322.815C580.601 314.615 587.098 306.908 593.729 299.742C597.044 296.16 600.392 292.716 603.773 289.412C604.617 288.586 605.463 287.769 606.309 286.961V287.447H641.659V455.658H642.155C640.444 457.089 638.732 458.481 637.018 459.835C633.592 462.545 630.17 465.096 626.752 467.487C620.285 472.048 613.524 476.177 606.512 479.847C579.983 493.596 555.808 496.209 540.286 484.395Z" fill="#BBB6F2"/>
<path d="M541.564 482.699C537.728 479.755 534.54 476.052 532.199 471.822H533.278V401.869H532.907C533.522 399.964 534.17 398.042 534.853 396.106C537.746 388 541.091 380.062 544.87 372.33C552.72 356.192 562.878 339.592 575.18 323.429C581.326 315.343 587.717 307.752 594.253 300.683C597.522 297.148 600.823 293.754 604.155 290.5C604.986 289.685 605.82 288.88 606.656 288.084C607.073 287.685 607.491 287.291 607.908 286.896V287.447H641.658V454.362H641.99C640.299 455.773 638.608 457.146 636.918 458.48C633.536 461.15 630.163 463.664 626.799 466.023C620.424 470.52 613.759 474.589 606.848 478.205C580.704 491.775 556.884 494.341 541.564 482.699Z" fill="#BCB7F2"/>
<path d="M542.855 481C539.078 478.098 535.938 474.449 533.633 470.28C533.035 469.22 532.481 468.12 531.969 466.981H533.285V406.935H532.63C533.683 403.247 534.887 399.488 536.243 395.659C539.093 387.67 542.388 379.846 546.113 372.225C553.848 356.317 563.865 339.971 575.982 324.041C582.041 316.073 588.339 308.594 594.781 301.625C598.008 298.146 601.261 294.801 604.538 291.589C606.179 289.984 607.825 288.414 609.476 286.879V287.448H641.658V453.084H641.826C640.161 454.467 638.498 455.82 636.835 457.141C633.506 459.773 630.181 462.251 626.861 464.576C620.579 469.007 614.01 473.017 607.198 476.581C581.428 489.946 557.944 492.475 542.855 481Z" fill="#BDB7F1"/>
<path d="M544.147 479.301C540.422 476.443 537.327 472.847 535.055 468.738C533.852 466.587 532.838 464.336 532.025 462.01H533.28V411.751H532.627C533.071 409.962 533.553 408.158 534.073 406.338C535.112 402.696 536.298 398.991 537.632 395.226C540.441 387.354 543.688 379.646 547.357 372.137C554.978 356.46 564.848 340.358 576.788 324.658C582.757 316.808 588.963 309.428 595.31 302.572C598.482 299.145 601.687 295.849 604.924 292.684C606.539 291.102 608.161 289.556 609.788 288.045C610.194 287.667 610.602 287.291 611.008 286.918V287.455H641.67V451.797C640.034 453.167 638.394 454.499 636.753 455.795C633.475 458.386 630.199 460.828 626.927 463.119C620.739 467.485 614.27 471.436 607.561 474.948C582.153 488.117 559.013 490.609 544.147 479.301Z" fill="#BEB8F1"/>
<path d="M545.438 477.606C541.769 474.791 538.719 471.25 536.479 467.204C535.296 465.085 534.298 462.868 533.496 460.578C533.081 459.401 532.706 458.189 532.371 456.942H533.279V416.279H532.888C538.706 388.71 554.068 356.191 577.59 325.261C583.471 317.529 589.579 310.26 595.836 303.505C598.962 300.124 602.119 296.877 605.306 293.764C606.9 292.209 608.498 290.686 610.099 289.195C610.899 288.45 611.7 287.713 612.504 286.986V287.447H641.659V449.493H642.708L641.495 450.512C639.881 451.86 638.268 453.173 636.654 454.45C633.426 457.004 630.198 459.41 626.971 461.666C620.874 465.964 614.499 469.853 607.889 473.309C582.877 486.291 560.083 488.755 545.438 477.606Z" fill="#BFB8F0"/>
<path d="M546.74 475.909C539.529 470.425 535.005 462.113 533.002 451.78H533.29V434.861H531.865C532.158 428.352 532.999 421.879 534.378 415.511C540.11 388.36 555.238 356.335 578.412 325.873C589.995 310.64 602.493 297.241 615.173 286.053V287.436H641.686V448.221H642.55C642.154 448.557 641.756 448.892 641.358 449.224C639.758 450.555 638.159 451.848 636.561 453.104C633.379 455.618 630.201 457.987 627.027 460.209C621.023 464.448 614.745 468.285 608.233 471.695C583.6 484.462 561.151 486.879 546.74 475.909Z" fill="#C0B9F0"/>
<path d="M548.018 474.212C540.92 468.812 536.465 460.628 534.492 450.452C532.519 440.275 533.028 428.121 535.85 414.749C541.491 388.006 556.387 356.484 579.192 326.49C590.598 311.493 602.904 298.299 615.388 287.283V287.454H641.659V446.95H642.35C641.958 447.282 641.567 447.609 641.177 447.936C639.611 449.246 638.045 450.519 636.478 451.757C633.346 454.233 630.218 456.565 627.093 458.754C621.18 462.923 614.998 466.697 608.587 470.05C584.32 482.631 562.22 485.013 548.018 474.212Z" fill="#C1BAEF"/>
<path d="M549.308 472.515C535.33 461.884 531.775 440.291 537.32 413.975C542.865 387.658 557.536 356.62 579.992 327.094C591.219 312.339 603.33 299.343 615.62 288.5C616.389 287.822 617.157 287.153 617.925 286.492V287.447H641.658V445.679H642.156C641.771 446.004 641.386 446.329 641.003 446.65C639.466 447.939 637.925 449.193 636.381 450.41C633.296 452.848 630.216 455.144 627.14 457.299C621.321 461.404 615.237 465.119 608.927 468.42C585.045 480.803 563.289 483.145 549.308 472.515Z" fill="#C2BAEF"/>
<path d="M550.599 470.817C536.842 460.355 533.345 439.103 538.809 413.206C544.273 387.309 558.705 356.762 580.803 327.704C591.853 313.179 603.772 300.396 615.866 289.724C616.622 289.055 617.379 288.396 618.137 287.746C618.515 287.42 618.894 287.097 619.274 286.777V287.446H641.657V443.438H643.107C642.35 444.088 641.592 444.729 640.834 445.363C639.317 446.631 637.8 447.864 636.283 449.063C633.249 451.462 630.218 453.721 627.191 455.841C621.463 459.881 615.474 463.538 609.263 466.787C585.769 478.974 564.355 481.279 550.599 470.817Z" fill="#C3BBEE"/>
<path d="M551.891 469.122C538.356 458.828 534.914 437.92 540.286 412.445C545.657 386.969 559.859 356.909 581.602 328.321C592.472 314.027 604.195 301.453 616.1 290.952C617.588 289.641 619.078 288.361 620.568 287.113V287.452H641.652V442.185H642.901C642.156 442.826 641.411 443.458 640.665 444.08C639.179 445.327 637.688 446.539 636.192 447.718C633.206 450.079 630.224 452.302 627.247 454.388C621.612 458.362 615.719 461.96 609.608 465.157C586.494 477.147 565.427 479.416 551.891 469.122Z" fill="#C4BBEE"/>
<path d="M553.183 467.422C539.869 457.299 536.484 436.734 541.773 411.672C547.062 386.609 561.035 357.046 582.411 328.927C593.104 314.863 604.64 302.499 616.345 292.171C617.808 290.88 619.274 289.621 620.742 288.394C621.475 287.78 622.209 287.175 622.943 286.58V287.447H641.659V440.926H642.708C641.975 441.557 641.242 442.179 640.509 442.791C639.042 444.02 637.575 445.214 636.105 446.371C633.168 448.693 630.235 450.88 627.305 452.93C621.763 456.841 615.967 460.38 609.957 463.524C587.218 475.316 566.497 477.548 553.183 467.422Z" fill="#C5BCEE"/>
<path d="M554.473 465.725C541.381 455.77 538.052 435.549 543.253 410.904C548.454 386.258 562.188 357.187 583.216 329.537C593.731 315.705 605.074 303.55 616.582 293.395C619.46 290.857 622.344 288.446 625.235 286.16V287.447H641.659V439.671H642.507C641.785 440.286 641.064 440.897 640.345 441.504C638.901 442.71 637.458 443.884 636.013 445.024C633.126 447.307 630.242 449.459 627.36 451.48C621.91 455.324 616.21 458.804 610.3 461.896C587.939 473.488 567.564 475.682 554.473 465.725Z" fill="#C6BDED"/>
<path d="M555.764 464.029C542.893 454.242 539.626 434.362 544.735 410.136C549.844 385.911 563.34 357.344 584.018 330.14C594.355 316.537 605.507 304.593 616.82 294.61C619.648 292.113 622.483 289.742 625.327 287.498C626.037 286.937 626.747 286.384 627.457 285.838V287.438H641.659V438.415H642.304C641.597 439.03 640.889 439.631 640.179 440.218C638.761 441.403 637.343 442.556 635.923 443.676C633.082 445.922 630.247 448.036 627.416 450.019C622.057 453.797 616.455 457.217 610.646 460.257C588.663 471.66 568.643 473.818 555.764 464.029Z" fill="#C8BDED"/>
<path d="M557.052 462.331C531.754 443.106 544.19 384.188 584.821 330.759C594.979 317.403 605.937 305.652 617.058 295.843C619.836 293.384 622.622 291.054 625.418 288.853C626.114 288.302 626.811 287.759 627.509 287.223V287.453H641.657V437.16H642.102C641.406 437.757 640.71 438.347 640.014 438.931C638.618 440.096 637.223 441.229 635.829 442.331C633.04 444.538 630.253 446.613 627.47 448.556C622.204 452.271 616.698 455.633 610.988 458.619C589.39 469.831 569.7 471.949 557.052 462.331Z" fill="#C9BEEC"/>
<path d="M558.344 460.629C533.493 441.724 545.708 383.857 585.627 331.364C595.605 318.241 606.376 306.696 617.297 297.059C620.026 294.65 622.764 292.362 625.509 290.193C626.881 289.117 628.251 288.065 629.619 287.037V287.441H641.658V435.905H641.903C641.217 436.492 640.532 437.072 639.849 437.646C638.487 438.789 637.114 439.903 635.731 440.986C632.989 443.153 630.252 445.194 627.519 447.109C622.345 450.759 616.936 454.061 611.325 456.995C590.111 468.006 570.77 470.081 558.344 460.629Z" fill="#CABEEC"/>
<path d="M559.634 458.938C535.227 440.374 547.222 383.535 586.428 331.983C596.231 319.096 606.804 307.757 617.534 298.291C620.217 295.926 622.907 293.678 625.603 291.548C626.949 290.483 628.295 289.449 629.64 288.447C630.313 287.946 630.985 287.452 631.657 286.967V287.449H641.66V434.647H641.702C641.032 435.227 640.36 435.797 639.687 436.358C638.339 437.475 636.992 438.572 635.648 439.648C632.955 441.777 630.265 443.781 627.579 445.663C622.495 449.246 617.181 452.49 611.671 455.373C590.834 466.172 571.84 468.217 559.634 458.938Z" fill="#CBBFEB"/>
<path d="M560.926 457.241C536.961 439.015 548.74 383.209 587.234 332.595C596.857 319.94 607.238 308.809 617.772 299.514C622.815 295.047 628.103 290.865 633.613 286.988V287.449H641.659V432.539H642.489L641.495 433.394C640.836 433.961 640.176 434.52 639.515 435.072C638.196 436.174 636.875 437.25 635.552 438.3C632.91 440.392 630.27 442.36 627.632 444.204C622.643 447.723 617.427 450.909 612.018 453.739C591.557 464.345 572.908 466.353 560.926 457.241Z" fill="#CCBFEB"/>
<path d="M562.217 455.544C538.702 437.658 550.257 382.885 588.038 333.207C597.491 320.787 607.674 309.862 618.009 300.739C622.958 296.354 628.148 292.249 633.555 288.444C634.201 287.992 634.846 287.547 635.492 287.109V287.448H641.656V430.451H643.236C632.896 439.571 622.408 446.891 612.366 452.102C592.281 462.518 573.977 464.489 562.217 455.544Z" fill="#CDC0EA"/>
<path d="M563.508 453.845C540.431 436.296 551.771 382.556 588.84 333.828C598.106 321.641 608.105 310.923 618.249 301.971C623.105 297.67 628.197 293.644 633.502 289.911C634.77 289.023 636.035 288.164 637.299 287.336V287.458H641.658V429.244H643C632.856 438.193 622.565 445.382 612.711 450.486C593.004 460.688 575.045 462.62 563.508 453.845Z" fill="#CEC1EA"/>
<path d="M564.797 452.147C542.164 434.935 553.288 382.241 589.643 334.426C598.733 322.475 608.547 311.962 618.486 303.183C623.249 298.965 628.243 295.015 633.446 291.353C635.933 289.612 638.408 287.989 640.872 286.484V287.446H641.658V428H642.762C632.812 436.779 622.719 443.822 613.054 448.834C593.728 458.856 576.114 460.754 564.797 452.147Z" fill="#CFC1E9"/>
<path d="M566.088 450.453C543.901 433.577 554.81 381.905 590.448 335.04C599.358 323.323 608.97 313.016 618.724 304.409C623.394 300.274 628.29 296.402 633.392 292.813C635.831 291.105 638.258 289.514 640.672 288.038C641.276 287.669 641.878 287.309 642.477 286.957L641.659 287.448V426.778H642.523C632.771 435.384 622.876 442.289 613.401 447.205C594.464 457.03 577.185 458.891 566.088 450.453Z" fill="#D0C2E9"/>
<path d="M567.378 448.754C545.633 432.217 556.312 381.578 591.249 335.649C599.982 324.165 609.402 314.065 618.96 305.632C623.537 301.579 628.336 297.784 633.335 294.266C635.725 292.592 638.103 291.033 640.47 289.588C641.06 289.225 641.651 288.872 642.241 288.527H641.657V425.552H642.285C632.726 433.988 623.029 440.754 613.743 445.57C595.173 455.2 578.251 457.021 567.378 448.754Z" fill="#D1C2E8"/>
<path d="M568.669 447.059C547.367 430.859 557.833 381.252 592.053 336.261C600.606 325.013 609.835 315.118 619.2 306.858C623.682 302.886 628.382 299.169 633.279 295.722C635.62 294.076 637.95 292.549 640.269 291.141C640.847 290.786 641.425 290.44 642.003 290.102H641.657V424.332H642.047C632.682 432.592 623.184 439.223 614.089 443.94C595.896 453.374 579.32 455.158 568.669 447.059Z" fill="#D2C3E8"/>
<path d="M569.96 445.359C549.102 429.505 559.352 380.926 592.848 336.871C601.224 325.858 610.261 316.168 619.43 308.079C623.821 304.189 628.426 300.547 633.224 297.171C635.515 295.564 637.797 294.068 640.069 292.683C640.636 292.337 641.201 291.998 641.765 291.666H641.657V423.1H641.809C632.64 431.19 623.338 437.68 614.432 442.3C596.62 451.545 580.399 453.292 569.96 445.359Z" fill="#D3C3E8"/>
<path d="M571.252 443.662C550.837 428.137 560.877 380.599 593.661 337.482C601.859 326.704 610.703 317.229 619.675 309.303C623.971 305.498 628.476 301.936 633.169 298.633C635.413 297.062 637.646 295.598 639.867 294.241C640.978 293.563 642.084 292.914 643.184 292.293H641.658V420.379H643.253C642.694 420.887 642.133 421.388 641.57 421.883C632.598 429.799 623.493 436.153 614.779 440.674C597.345 449.714 581.458 451.425 571.252 443.662Z" fill="#D4C4E7"/>
<path d="M572.543 441.966C552.571 426.778 562.399 380.274 594.463 338.094C602.484 327.549 611.136 318.267 619.913 310.527C624.115 306.805 628.522 303.321 633.114 300.091C635.309 298.554 637.493 297.121 639.666 295.793C640.751 295.131 641.832 294.495 642.91 293.887H641.658V419.19H642.977C642.431 419.685 641.883 420.175 641.333 420.659C632.554 428.405 623.65 434.621 615.122 439.043C598.069 447.886 582.528 449.563 572.543 441.966Z" fill="#D5C5E7"/>
<path d="M573.831 440.27C554.306 425.42 563.902 379.948 595.272 338.705C603.111 328.395 611.572 319.326 620.157 311.752C624.266 308.112 628.577 304.704 633.068 301.546C635.219 300.043 637.355 298.643 639.474 297.346C640.536 296.697 641.594 296.075 642.647 295.48H641.667V417.999H642.711C642.176 418.483 641.638 418.962 641.097 419.436C632.514 427.009 623.807 433.086 615.468 437.418C598.79 446.059 583.595 447.696 573.831 440.27Z" fill="#D6C5E6"/>
<path d="M575.122 438.572C556.04 424.059 565.414 379.621 596.077 339.315C603.738 329.24 612.005 320.376 620.395 312.975C624.41 309.418 628.621 306.087 633.008 303C635.106 301.532 637.193 300.164 639.269 298.896C640.307 298.263 641.34 297.655 642.368 297.072H641.662V416.806H642.432C641.91 417.281 641.387 417.75 640.862 418.212C632.473 425.613 623.963 431.552 615.816 435.778C599.514 444.229 584.665 445.827 575.122 438.572Z" fill="#D7C6E6"/>
<path d="M576.414 436.882C557.774 422.705 566.936 379.301 596.874 339.933C604.36 330.091 612.434 321.434 620.621 314.204C624.543 310.73 628.656 307.478 632.941 304.463C634.988 303.026 637.027 301.689 639.057 300.452C640.07 299.837 641.079 299.244 642.084 298.672H641.651V415.616H642.147C641.636 416.077 641.125 416.538 640.614 416.999C632.42 424.229 624.107 430.03 616.148 434.156C600.238 442.398 585.732 443.962 576.414 436.882Z" fill="#D8C6E5"/>
<path d="M577.705 435.177C559.51 421.344 568.453 378.97 597.679 340.538C604.985 330.931 612.867 322.479 620.865 315.422C624.694 312.031 628.71 308.856 632.893 305.912C634.891 304.512 636.881 303.206 638.864 301.993C639.849 301.392 640.834 300.815 641.819 300.262H641.658V414.426H641.888C641.39 414.877 640.891 415.324 640.39 415.765C632.392 422.822 624.279 428.484 616.51 432.514C600.962 440.572 586.802 442.098 577.705 435.177Z" fill="#D9C7E5"/>
<path d="M578.995 433.479C561.243 419.98 569.967 378.641 598.481 341.148C605.609 331.776 613.3 323.53 621.104 316.645C624.839 313.336 628.756 310.239 632.837 307.368C634.787 306.002 636.728 304.729 638.66 303.548C639.626 302.958 640.587 302.393 641.545 301.854C642.024 301.583 642.501 301.319 642.976 301.061H641.658V411.895H643.064C642.091 412.799 641.117 413.68 640.143 414.54C632.339 421.435 624.433 426.95 616.844 430.888C601.686 438.742 587.871 440.229 578.995 433.479Z" fill="#DAC7E4"/>
<path d="M580.287 431.784C562.978 418.622 571.485 378.325 599.286 341.76C605.837 333.093 613.225 325.091 621.343 317.871C624.985 314.645 628.804 311.625 632.782 308.824C634.685 307.492 636.578 306.251 638.461 305.101C639.401 304.526 640.339 303.975 641.273 303.448C641.735 303.185 642.199 302.928 642.668 302.676H641.658V410.739H642.754C641.807 411.62 640.858 412.48 639.906 413.319C632.298 420.03 624.58 425.418 617.191 429.25C602.408 436.915 588.93 438.366 580.287 431.784Z" fill="#DBC8E4"/>
<path d="M581.578 430.085C564.714 417.259 573.002 377.981 600.089 342.371C606.473 333.924 613.671 326.125 621.58 319.086C625.132 315.945 628.856 313.004 632.734 310.277C634.588 308.98 636.432 307.771 638.267 306.651C639.189 306.091 640.102 305.553 641.006 305.037C641.467 304.781 641.914 304.53 642.369 304.285H641.677V409.58H642.461C641.539 410.437 640.616 411.275 639.694 412.093C632.28 418.633 624.759 423.881 617.562 427.615C603.132 435.085 590.009 436.496 581.578 430.085Z" fill="#DCC9E3"/>
<path d="M582.867 428.389C566.447 415.901 574.519 377.669 600.893 342.984C607.108 334.761 614.117 327.168 621.817 320.316C625.273 317.256 628.896 314.391 632.671 311.736C634.476 310.469 636.272 309.291 638.059 308.201C638.951 307.657 639.84 307.135 640.727 306.634C641.169 306.385 641.61 306.14 642.052 305.9H641.658V408.424H642.119C641.228 409.26 640.328 410.075 639.419 410.87C632.213 417.238 624.895 422.358 617.877 425.985C603.856 433.256 591.079 434.632 582.867 428.389Z" fill="#DDC9E3"/>
<path d="M584.157 426.692C568.181 414.543 576.033 377.337 601.695 343.594C614.52 326.721 629.381 313.909 643.025 306.834H641.658V407.266H641.819C640.946 408.078 640.07 408.871 639.191 409.646C632.168 415.843 625.045 420.816 618.211 424.352C604.579 431.428 592.157 432.767 584.157 426.692Z" fill="#DECAE3"/>
<path d="M585.448 424.996C569.916 413.182 577.549 377.012 602.508 344.206C614.981 327.802 629.415 315.346 642.679 308.469H641.657V404.911H642.78C642.356 405.315 641.932 405.714 641.507 406.109C640.659 406.898 639.808 407.666 638.953 408.415C632.124 414.441 625.199 419.273 618.566 422.709C605.298 429.6 593.215 430.9 585.448 424.996Z" fill="#DFCAE2"/>
<path d="M586.74 423.295C571.651 411.821 579.068 376.684 603.303 344.815C615.423 328.88 629.451 316.781 642.337 310.098H641.659V403.784H642.436C642.022 404.178 641.61 404.562 641.198 404.937C640.372 405.706 639.545 406.456 638.717 407.187C632.084 413.038 625.345 417.735 618.913 421.075C606.026 427.77 594.284 429.043 586.74 423.295Z" fill="#E0CBE2"/>
<path d="M588.031 421.599C573.384 410.462 580.584 376.359 604.106 345.427C615.864 329.962 629.485 318.223 641.992 311.73H641.658V402.662H642.087C641.688 403.043 641.287 403.421 640.885 403.792C640.085 404.537 639.282 405.265 638.476 405.975C632.039 411.656 625.508 416.214 619.256 419.455C606.749 425.94 595.353 427.169 588.031 421.599Z" fill="#E1CBE1"/>
<path d="M589.322 419.903C575.12 409.105 582.099 376.033 604.912 346.048C616.317 331.063 629.52 319.662 641.647 313.373C642.028 313.176 642.406 312.985 642.781 312.799H641.658V400.429H642.899C641.362 401.938 639.808 403.382 638.239 404.761C631.998 410.269 625.665 414.688 619.6 417.833C607.473 424.113 596.423 425.303 589.322 419.903Z" fill="#E2CCE1"/>
<path d="M590.61 418.208C576.853 407.744 583.626 375.707 605.713 346.649C616.763 332.125 629.553 321.088 641.302 314.995C641.669 314.804 642.035 314.619 642.399 314.439H641.657V399.331H642.515C641.019 400.794 639.515 402.193 638.001 403.527C631.953 408.864 625.816 413.136 619.944 416.191C608.196 422.284 597.489 423.437 590.61 418.208Z" fill="#E3CCE0"/>
<path d="M591.902 416.509C578.59 406.383 585.133 375.379 606.518 347.26C617.211 333.196 629.589 322.522 640.957 316.627C641.67 316.258 642.377 315.909 643.078 315.578H641.658V398.243H642.119C640.674 399.658 639.219 401.012 637.752 402.305C631.899 407.467 625.962 411.61 620.277 414.558C608.92 420.456 598.56 421.571 591.902 416.509Z" fill="#E4CDE0"/>
<path d="M593.192 414.813C580.323 405.024 586.647 375.055 607.32 347.872C617.655 334.27 629.623 323.96 640.613 318.26C641.3 317.902 641.983 317.564 642.663 317.246H641.657V397.155H641.747C640.347 398.523 638.94 399.83 637.526 401.075C631.868 406.066 626.128 410.066 620.634 412.92C609.642 418.628 599.627 419.705 593.192 414.813Z" fill="#E5CEDF"/>
<path d="M594.484 413.113C582.058 403.66 588.165 374.727 608.126 348.482C618.104 335.359 629.659 325.395 640.271 319.894C640.931 319.55 641.59 319.223 642.246 318.914H641.658V395.063H642.375C642.039 395.402 641.702 395.734 641.366 396.066C640.015 397.388 638.655 398.651 637.287 399.856C631.826 404.675 626.279 408.543 620.976 411.291C610.371 416.797 600.688 417.839 594.484 413.113Z" fill="#E6CEDF"/>
<path d="M595.775 411.415C583.787 402.304 589.682 374.401 608.916 349.092C618.539 336.44 629.681 326.831 639.913 321.523C640.554 321.191 641.189 320.876 641.819 320.578H641.647V393.025H642.915C642.269 393.689 641.62 394.34 640.969 394.977C639.667 396.25 638.361 397.468 637.049 398.632C631.782 403.279 626.444 407.007 621.324 409.661C611.09 414.98 601.767 415.973 595.775 411.415Z" fill="#E7CFDF"/>
<path d="M597.066 409.718C585.539 400.944 591.199 374.074 609.732 349.703C618.998 337.516 629.737 328.264 639.581 323.155C640.811 322.518 642.027 321.944 643.231 321.436H641.658V392.008H642.472C641.85 392.649 641.225 393.276 640.598 393.889C639.343 395.119 638.082 396.291 636.812 397.407C631.74 401.884 626.594 405.476 621.668 408.028C611.814 413.135 602.834 414.106 597.066 409.718Z" fill="#E8CFDE"/>
<path d="M598.358 408.024C587.262 399.586 592.714 373.751 610.535 350.316C619.446 338.599 629.763 329.703 639.236 324.79C640.421 324.175 641.591 323.624 642.745 323.137H641.659V391.005H642.016C641.42 391.619 640.82 392.222 640.216 392.812C639.008 393.989 637.794 395.118 636.575 396.197C631.697 400.499 626.75 403.952 622.012 406.407C612.539 411.313 603.916 412.243 598.358 408.024Z" fill="#E9D0DE"/>
<path d="M599.647 406.325C588.998 398.224 594.234 373.422 611.34 350.925C619.893 339.679 629.797 331.137 638.892 326.42C640.028 325.83 641.151 325.301 642.261 324.832H641.659V389.083H642.418C642.132 389.382 641.846 389.682 641.558 389.977C640.983 390.567 640.406 391.146 639.828 391.713C638.671 392.844 637.506 393.927 636.333 394.962C631.653 399.093 626.902 402.406 622.355 404.764C613.263 409.481 604.972 410.369 599.647 406.325Z" fill="#EAD0DD"/>
<path d="M600.937 404.629C590.731 396.866 595.748 373.097 612.142 351.539C620.34 340.758 629.832 332.574 638.546 328.053C639.638 327.487 640.713 326.98 641.774 326.531H641.656V387.229H642.745C640.639 389.509 638.42 391.681 636.096 393.738C631.609 397.696 627.058 400.873 622.699 403.132C613.984 407.653 606.042 408.509 600.937 404.629Z" fill="#EBD1DD"/>
<path d="M602.227 402.932C592.464 395.506 597.264 372.77 612.946 352.15C620.784 341.837 629.865 334.008 638.202 329.685C639.244 329.144 640.273 328.659 641.289 328.231C641.798 328.016 642.301 327.816 642.801 327.629H641.648V386.289H642.211C640.197 388.47 638.074 390.547 635.85 392.514C631.557 396.301 627.205 399.34 623.037 401.505C614.707 405.825 607.11 406.644 602.227 402.932Z" fill="#ECD1DC"/>
<path d="M603.519 401.233C594.2 394.146 598.779 372.445 613.748 352.761C621.234 342.919 629.898 335.445 637.859 331.32C638.852 330.804 639.834 330.343 640.805 329.937C641.289 329.732 641.771 329.543 642.248 329.365H641.658V385.349H641.693C639.77 387.43 637.744 389.414 635.623 391.292C631.526 394.905 627.369 397.805 623.39 399.868C615.443 403.997 608.178 404.777 603.519 401.233Z" fill="#EDD2DC"/>
<path d="M604.809 399.533C595.933 392.783 600.295 372.114 614.552 353.369C621.68 343.995 629.932 336.878 637.512 332.947C639.288 332.014 641.138 331.232 643.045 330.609H641.662V382.844H642.584C642.123 383.374 641.652 383.895 641.171 384.407C639.341 386.391 637.411 388.28 635.389 390.067C631.488 393.509 627.529 396.271 623.739 398.238C616.154 402.168 609.247 402.911 604.809 399.533Z" fill="#EED2DC"/>
<path d="M606.101 397.84C597.668 391.429 601.813 371.789 615.358 353.984C622.129 345.078 629.967 338.307 637.169 334.583C638.853 333.698 640.608 332.955 642.417 332.363H641.651V381.981H641.974C641.528 382.485 641.081 382.981 640.632 383.468C638.892 385.351 637.059 387.146 635.138 388.845C631.433 392.114 627.673 394.74 624.072 396.607C616.879 400.34 610.316 401.047 606.101 397.84Z" fill="#EFD3DB"/>
<path d="M607.393 396.142C599.404 390.067 603.33 371.474 616.153 354.593C622.569 346.157 629.986 339.75 636.817 336.214C638.414 335.374 640.079 334.67 641.795 334.111H641.652V379.658H642.648C641.818 380.649 640.972 381.605 640.112 382.526C638.464 384.31 636.728 386.01 634.908 387.619C631.397 390.717 627.835 393.202 624.423 394.973C617.601 398.51 611.386 399.178 607.393 396.142Z" fill="#F0D4DB"/>
<path d="M608.682 394.445C601.15 388.697 604.838 371.139 616.965 355.204C623.024 347.236 630.037 341.187 636.481 337.846C637.989 337.052 639.561 336.387 641.182 335.859C641.56 335.739 641.935 335.628 642.307 335.531H641.659V378.874H641.97C641.186 379.808 640.392 380.71 639.586 381.58C638.029 383.265 636.389 384.871 634.671 386.392C631.353 389.32 627.985 391.667 624.769 393.338C618.325 396.681 612.446 397.313 608.682 394.445Z" fill="#F1D4DA"/>
<path d="M609.971 392.748C602.87 387.346 606.361 370.811 617.766 355.814C623.47 348.315 630.07 342.622 636.136 339.478C637.559 338.731 639.043 338.105 640.572 337.608C641.253 337.387 641.946 337.202 642.646 337.055H641.651V376.755H642.393C642.032 377.216 641.666 377.663 641.296 378.096C640.558 378.976 639.809 379.825 639.05 380.644C637.533 382.281 635.984 383.793 634.425 385.172C631.304 387.925 628.136 390.135 625.104 391.708C619.048 394.852 613.522 395.447 609.971 392.748Z" fill="#F2D5DA"/>
<path d="M611.262 391.048C604.606 385.988 607.878 370.484 618.571 356.42C623.917 349.391 630.098 344.052 635.79 341.105C637.121 340.405 638.51 339.819 639.94 339.353C640.585 339.146 641.241 338.972 641.904 338.832H641.66V374.758H642.679C631.984 388.819 617.918 396.111 611.262 391.048Z" fill="#F3D5D9"/>
<path d="M612.554 389.353C606.329 384.629 609.393 370.16 619.374 357.037C624.365 350.476 630.14 345.494 635.447 342.743C638.099 341.36 640.635 340.551 642.894 340.371H641.658V374.148H641.873C631.895 387.271 618.767 394.079 612.554 389.353Z" fill="#F4D6D9"/>
<path d="M613.846 387.656C608.082 383.276 610.911 369.835 620.179 357.648C624.813 351.557 630.175 346.93 635.102 344.374C637.567 343.096 639.921 342.338 642.018 342.172H641.659V371.241H642.733C642.203 372.009 641.65 372.777 641.071 373.547C631.812 385.722 619.614 392.043 613.846 387.656Z" fill="#F5D6D9"/>
<path d="M615.136 385.959C609.811 381.908 612.427 369.507 620.976 358.266C625.255 352.643 630.198 348.371 634.753 346.012C637.027 344.834 639.201 344.133 641.137 343.979C641.605 343.945 642.075 343.945 642.543 343.979H641.654V368.673H643.187C642.308 370.095 641.331 371.52 640.261 372.926C631.712 384.175 620.462 390.01 615.136 385.959Z" fill="#F5D7D8"/>
<path d="M616.424 384.262C611.544 380.548 613.944 369.182 621.785 358.87C625.704 353.715 630.243 349.8 634.412 347.638C636.498 346.559 638.49 345.916 640.265 345.775C641.097 345.698 641.937 345.757 642.75 345.948H641.658V368.41H642.144C641.337 369.715 640.443 371.02 639.463 372.308C631.622 382.625 621.307 387.974 616.424 384.262Z" fill="#F6D7D8"/>
<path d="M617.715 382.566C613.277 379.19 615.458 368.855 622.587 359.481C626.151 354.796 630.278 351.237 634.068 349.27C635.963 348.288 637.773 347.705 639.389 347.576C640.145 347.507 640.908 347.561 641.648 347.735C641.99 347.818 642.323 347.936 642.642 348.085H641.657V364.618H643.041C641.811 367.118 640.339 369.491 638.646 371.705C631.529 381.076 622.153 385.932 617.715 382.566Z" fill="#F7D8D7"/>
<path d="M619.006 380.86C615.013 377.823 616.975 368.523 623.387 360.088C629.798 351.652 638.241 347.274 642.234 350.312H641.653V364.722H641.803C640.697 366.972 639.374 369.109 637.851 371.101C631.44 379.529 623.002 383.905 619.006 380.86Z" fill="#F8D8D7"/>
<path d="M620.298 379.169C616.748 376.469 618.493 368.202 624.194 360.704C629.896 353.207 637.4 349.315 640.95 352.015C642.726 353.364 643.175 356.107 642.47 359.448C641.764 362.789 639.904 366.731 637.052 370.484C631.351 377.979 623.849 381.868 620.298 379.169Z" fill="#F9D9D7"/>
<path d="M636.245 369.857C641.234 363.296 642.761 356.061 639.654 353.699C636.548 351.337 629.985 354.741 624.995 361.303C620.006 367.864 618.479 375.099 621.586 377.461C624.692 379.823 631.255 376.419 636.245 369.857Z" fill="#FAD9D6"/>
<path d="M636.933 369.035C641.243 363.383 642.568 357.147 639.892 355.107C637.216 353.066 631.553 355.994 627.243 361.646C622.933 367.299 621.609 373.535 624.285 375.575C626.96 377.616 632.624 374.688 636.933 369.035Z" fill="#FBDAD6"/>
<path d="M634.635 368.635C638.199 363.949 639.29 358.782 637.071 357.095C634.852 355.408 630.165 357.839 626.601 362.526C623.037 367.213 621.947 372.379 624.166 374.066C626.384 375.753 631.072 373.322 634.635 368.635Z" fill="#FCDAD5"/>
<path d="M633.834 368.025C636.685 364.276 637.557 360.143 635.781 358.792C634.005 357.442 630.255 359.387 627.404 363.136C624.553 366.885 623.682 371.018 625.457 372.369C627.233 373.719 630.984 371.774 633.834 368.025Z" fill="#FDDBD5"/>
<path d="M633.031 367.415C635.17 364.602 635.824 361.501 634.492 360.488C633.16 359.476 630.347 360.935 628.208 363.747C626.07 366.56 625.416 369.661 626.747 370.674C628.079 371.686 630.892 370.227 633.031 367.415Z" fill="#FDDBD5"/>
<path d="M628.042 368.987C627.155 368.314 627.581 366.246 629.017 364.376C630.454 362.506 632.319 361.529 633.206 362.204C634.094 362.88 633.667 364.945 632.231 366.815C630.795 368.685 628.93 369.662 628.042 368.987Z" fill="#FEDCD4"/>
<path d="M629.333 367.291C628.888 366.954 629.103 365.922 629.82 364.986C630.537 364.05 631.47 363.563 631.915 363.9C632.36 364.236 632.146 365.283 631.427 366.205C630.707 367.127 629.776 367.63 629.333 367.291Z" fill="#FFDCD4"/>
</g>
<path d="M593.717 291.137H581.221C580.915 291.137 580.622 291.016 580.406 290.8C580.19 290.584 580.068 290.29 580.068 289.985C580.068 289.679 580.19 289.386 580.406 289.17C580.622 288.953 580.915 288.832 581.221 288.832H593.717C594.022 288.832 594.316 288.953 594.532 289.17C594.748 289.386 594.869 289.679 594.869 289.985C594.869 290.29 594.748 290.584 594.532 290.8C594.316 291.016 594.022 291.137 593.717 291.137Z" fill="url(#paint3_linear_42_7531)"/>
<path d="M601.993 291.417C602.785 290.625 602.785 289.34 601.993 288.548C601.201 287.756 599.916 287.756 599.124 288.548C598.332 289.34 598.332 290.625 599.124 291.417C599.916 292.209 601.201 292.209 601.993 291.417Z" fill="url(#paint4_linear_42_7531)"/>
<path d="M602.04 289.982C602.04 290.275 601.953 290.561 601.791 290.804C601.628 291.048 601.397 291.237 601.127 291.349C600.856 291.462 600.559 291.491 600.271 291.434C599.984 291.377 599.721 291.236 599.514 291.029C599.307 290.822 599.166 290.558 599.109 290.271C599.051 289.984 599.081 289.686 599.193 289.416C599.305 289.145 599.494 288.914 599.738 288.751C599.981 288.589 600.267 288.502 600.56 288.502C600.755 288.502 600.947 288.54 601.127 288.614C601.307 288.688 601.47 288.797 601.607 288.935C601.745 289.072 601.854 289.236 601.928 289.415C602.003 289.595 602.041 289.788 602.04 289.982Z" fill="url(#paint5_linear_42_7531)"/>
<path d="M601.782 289.984C601.782 290.225 601.71 290.462 601.576 290.662C601.441 290.863 601.251 291.02 601.027 291.112C600.804 291.205 600.558 291.229 600.321 291.182C600.084 291.135 599.867 291.019 599.696 290.848C599.525 290.677 599.409 290.459 599.361 290.222C599.314 289.985 599.338 289.739 599.431 289.516C599.523 289.293 599.68 289.102 599.881 288.968C600.082 288.833 600.318 288.762 600.56 288.762C600.884 288.762 601.195 288.89 601.424 289.12C601.653 289.349 601.782 289.66 601.782 289.984Z" fill="url(#paint6_radial_42_7531)"/>
<path d="M601.427 289.563C601.427 289.932 601.037 290.231 600.56 290.231C600.083 290.231 599.693 289.932 599.693 289.563C599.693 289.194 600.081 288.896 600.56 288.896C601.04 288.896 601.427 289.182 601.427 289.563Z" fill="url(#paint7_linear_42_7531)"/>
<path d="M648.58 304.225H646.602V306.369H648.58V304.225Z" fill="#353535"/>
<path d="M526.358 306.369H528.336V304.225H526.358V306.369Z" fill="#353535"/>
<path d="M648.58 501.691H646.602V503.835H648.58V501.691Z" fill="#353535"/>
<path d="M526.358 503.834H528.336V501.69H526.358V503.834Z" fill="#353535"/>
<path d="M593.717 290.958H581.221C580.93 290.959 580.649 290.849 580.435 290.652C580.222 290.454 580.09 290.183 580.068 289.893C580.068 289.923 580.068 289.953 580.068 289.982C580.068 290.288 580.19 290.581 580.406 290.798C580.622 291.014 580.915 291.135 581.221 291.135H593.717C594.022 291.135 594.316 291.014 594.532 290.798C594.748 290.581 594.869 290.288 594.869 289.982C594.869 289.953 594.869 289.923 594.869 289.893C594.847 290.183 594.716 290.454 594.502 290.652C594.288 290.849 594.008 290.959 593.717 290.958Z" fill="#4E4E4E"/>
<path d="M630.228 284.227H544.712C540.827 284.231 537.103 285.776 534.356 288.522C531.609 291.269 530.063 294.993 530.059 298.878V299.899C530.063 296.014 531.609 292.29 534.356 289.544C537.103 286.797 540.827 285.252 544.712 285.248H630.228C634.113 285.252 637.837 286.797 640.584 289.544C643.331 292.29 644.877 296.014 644.882 299.899V298.878C644.877 294.993 643.331 291.269 640.584 288.522C637.837 285.776 634.113 284.231 630.228 284.227Z" fill="url(#paint8_linear_42_7531)"/>
<path d="M623.817 285.32H551.131C541.19 285.32 533.131 293.379 533.131 303.32V505.472C533.131 515.413 541.19 523.472 551.131 523.472H623.817C633.758 523.472 641.817 515.413 641.817 505.472V303.32C641.817 293.379 633.758 285.32 623.817 285.32Z" fill="url(#paint9_linear_42_7531)"/>
<path d="M614.296 354.104L635.5 344.31C637.298 343.48 639.419 344.241 640.236 346.01L645.546 357.507L658.296 323.699L624.29 311.489L629.601 322.986C630.418 324.755 629.623 326.863 627.825 327.694C627.728 327.738 627.631 327.778 627.532 327.814L564.472 356.945C552.34 362.804 543.619 372.932 539.331 384.618C535.056 396.27 535.2 409.478 540.779 421.556C542.682 425.676 545.075 429.38 547.853 432.635C550.74 436.015 554.054 438.94 557.679 441.367C559.299 442.455 559.703 444.649 558.584 446.265C558.203 446.814 557.695 447.226 557.127 447.488L557.132 447.499L535.927 457.293C534.13 458.123 532.009 457.362 531.192 455.593L525.881 444.096L513.131 477.904L547.137 490.114L541.827 478.617C541.01 476.848 541.805 474.74 543.603 473.909C543.7 473.864 543.797 473.825 543.895 473.789L607.008 444.633C619.121 438.766 627.828 428.64 632.107 416.958C636.371 405.314 636.223 392.116 630.649 380.048C628.746 375.929 626.354 372.224 623.576 368.971C620.689 365.59 617.375 362.665 613.749 360.239C612.13 359.15 611.726 356.956 612.845 355.34C613.226 354.791 613.733 354.379 614.302 354.117L614.297 354.107L614.296 354.104ZM635.204 352.224L622.647 358.024C624.935 359.949 627.077 362.069 629.045 364.375C632.262 368.142 635.007 372.378 637.159 377.038C643.533 390.837 643.696 405.95 638.805 419.299C633.911 432.658 623.94 444.245 610.057 450.969L549.812 478.8L557.222 494.842C557.601 495.662 557.661 496.628 557.314 497.548C556.621 499.387 554.559 500.339 552.709 499.675L507.269 483.359C505.419 482.695 504.482 480.665 505.176 478.827L522.205 433.671C522.524 432.811 523.175 432.068 524.081 431.65C525.879 430.819 528 431.581 528.817 433.35L536.22 449.378L548.777 443.578C546.49 441.653 544.348 439.533 542.379 437.227C539.163 433.46 536.418 429.223 534.265 424.564C527.887 410.754 527.729 395.631 532.629 382.275C537.534 368.91 547.519 357.32 561.42 350.608L621.612 322.801L614.203 306.76C613.824 305.94 613.763 304.973 614.11 304.054C614.803 302.215 616.865 301.263 618.715 301.927L664.155 318.243C666.005 318.907 666.942 320.936 666.249 322.775L649.219 367.93C648.9 368.79 648.249 369.534 647.343 369.952C645.546 370.782 643.425 370.021 642.608 368.252L635.204 352.223L635.204 352.224Z" fill="#5484FF"/>
<path d="M575.407 424.526C578.371 425.549 579.913 428.768 578.852 431.717C577.792 434.665 574.529 436.227 571.566 435.204C571.178 435.072 570.792 434.932 570.411 434.788C561.047 431.236 554.032 424.408 550.201 416.115C546.37 407.822 545.72 398.054 549.087 388.622C549.224 388.239 549.367 387.854 549.518 387.473C553.35 377.751 560.796 370.337 569.733 366.209C578.672 362.08 589.143 361.219 599.029 364.603C599.417 364.736 599.803 364.876 600.184 365.02C609.548 368.572 616.563 375.399 620.394 383.692C624.225 391.985 624.874 401.753 621.508 411.186C621.371 411.57 621.227 411.954 621.077 412.335C619.934 415.254 616.631 416.725 613.698 415.622C610.766 414.517 609.313 411.256 610.456 408.337C610.568 408.051 610.675 407.765 610.777 407.482C613.098 400.979 612.643 394.233 609.994 388.496C607.343 382.759 602.501 378.04 596.046 375.591C595.764 375.484 595.477 375.38 595.187 375.281C590.149 373.557 584.865 373.416 579.913 374.592L590.496 397.503C591.805 400.337 590.539 403.711 587.667 405.037C584.796 406.363 581.406 405.141 580.097 402.306L569.514 379.395C565.408 382.403 562.09 386.517 560.137 391.472C560.025 391.757 559.917 392.043 559.815 392.327C557.495 398.83 557.949 405.576 560.599 411.312C563.249 417.05 568.091 421.769 574.546 424.217C574.828 424.325 575.115 424.427 575.405 424.527L575.407 424.526Z" fill="white"/>
<path d="M662.052 222.973L684.76 245.793C704.509 227.154 735.616 227.534 754.884 246.897C774.153 266.261 774.372 297.369 755.644 317.025L778.352 339.845C809.682 307.656 809.498 256.163 777.696 224.197C745.895 192.238 694.404 191.801 662.052 222.973Z" fill="url(#paint10_radial_42_7531)" fill-opacity="0.2"/>
</g>
<defs>
<linearGradient id="paint0_linear_42_7531" x1="194.505" y1="-191.04" x2="761.231" y2="555.006" gradientUnits="userSpaceOnUse">
<stop stop-color="#0A30A3"/>
<stop offset="0.709375" stop-color="#001447"/>
</linearGradient>
<linearGradient id="paint1_linear_42_7531" x1="701.5" y1="672" x2="919.5" y2="459.5" gradientUnits="userSpaceOnUse">
<stop stop-color="#0A30A3" stop-opacity="0.31"/>
<stop offset="1" stop-color="white" stop-opacity="0"/>
</linearGradient>
<radialGradient id="paint2_radial_42_7531" cx="0" cy="0" r="1" gradientUnits="userSpaceOnUse" gradientTransform="translate(541.48 690.617) scale(259.1)">
<stop stop-color="#E5C33F"/>
<stop offset="0.03" stop-color="#E6BC3D"/>
<stop offset="0.25" stop-color="#F39332"/>
<stop offset="0.42" stop-color="#FC7A2B"/>
<stop offset="0.53" stop-color="#FF7129"/>
<stop offset="0.99" stop-color="#C73A16"/>
</radialGradient>
<linearGradient id="paint3_linear_42_7531" x1="587.469" y1="288.827" x2="587.469" y2="291.137" gradientUnits="userSpaceOnUse">
<stop/>
<stop offset="0.29" stop-color="#030303"/>
<stop offset="0.53" stop-color="#0E0E0D"/>
<stop offset="0.75" stop-color="#1F1F1E"/>
<stop offset="0.96" stop-color="#373736"/>
<stop offset="1" stop-color="#3C3C3B"/>
</linearGradient>
<linearGradient id="paint4_linear_42_7531" x1="600.558" y1="287.953" x2="600.558" y2="292.011" gradientUnits="userSpaceOnUse">
<stop/>
<stop offset="0.29" stop-color="#030303"/>
<stop offset="0.53" stop-color="#0E0E0D"/>
<stop offset="0.75" stop-color="#1F1F1E"/>
<stop offset="0.96" stop-color="#373736"/>
<stop offset="1" stop-color="#3C3C3B"/>
</linearGradient>
<linearGradient id="paint5_linear_42_7531" x1="600.56" y1="287.241" x2="600.56" y2="292.101" gradientUnits="userSpaceOnUse">
<stop/>
<stop offset="0.08"/>
<stop offset="1"/>
</linearGradient>
<radialGradient id="paint6_radial_42_7531" cx="0" cy="0" r="1" gradientUnits="userSpaceOnUse" gradientTransform="translate(600.56 289.984) scale(1.10892)">
<stop stop-color="#009FE3"/>
<stop offset="1" stop-color="#112754"/>
</radialGradient>
<linearGradient id="paint7_linear_42_7531" x1="600.56" y1="288.276" x2="600.56" y2="290.268" gradientUnits="userSpaceOnUse">
<stop stop-color="white"/>
<stop offset="1" stop-color="#112754"/>
</linearGradient>
<linearGradient id="paint8_linear_42_7531" x1="587.469" y1="279.881" x2="587.469" y2="297.863" gradientUnits="userSpaceOnUse">
<stop stop-color="white"/>
<stop offset="1"/>
</linearGradient>
<linearGradient id="paint9_linear_42_7531" x1="533.131" y1="285.32" x2="660.322" y2="295.651" gradientUnits="userSpaceOnUse">
<stop stop-color="#0A30A3"/>
<stop offset="1" stop-color="#001447"/>
</linearGradient>
<radialGradient id="paint10_radial_42_7531" cx="0" cy="0" r="1" gradientUnits="userSpaceOnUse" gradientTransform="translate(784.876 335.329) rotate(135.141) scale(554.088)">
<stop stop-color="#5BC7CE"/>
<stop offset="0.11" stop-color="#4198C0"/>
<stop offset="0.23" stop-color="#296BB3"/>
<stop offset="0.34" stop-color="#184AAA"/>
<stop offset="0.43" stop-color="#0D37A5"/>
<stop offset="0.49" stop-color="#0A30A3"/>
<stop offset="1" stop-color="#00152A"/>
</radialGradient>
<clipPath id="clip0_42_7531">
<rect width="968" height="703" fill="white"/>
</clipPath>
</defs>
</svg>
