<svg width="428" height="725" viewBox="0 0 428 725" fill="none" xmlns="http://www.w3.org/2000/svg">
<g clip-path="url(#clip0_43_8986)">
<rect width="428" height="725" fill="#001447"/>
<path d="M428 0H0V725H428V0Z" fill="url(#paint0_linear_43_8986)"/>
<path d="M650.333 371.117C653.155 373.939 653.155 378.526 650.333 381.368L318.368 713.333C315.545 716.155 310.959 716.155 308.117 713.333C305.294 710.51 305.294 705.924 308.117 703.082L640.082 371.117C642.904 368.294 647.491 368.294 650.333 371.117Z" fill="url(#paint1_linear_43_8986)" style="mix-blend-mode:overlay"/>
<path d="M368.139 693.857C366.277 691.995 363.258 691.995 361.396 693.857C359.534 695.719 359.534 698.738 361.396 700.6C363.258 702.462 366.277 702.462 368.139 700.6C370.001 698.738 370.001 695.719 368.139 693.857Z" fill="white" fill-opacity="0.5"/>
<path d="M398.01 663.986C396.148 662.124 393.13 662.124 391.268 663.986C389.406 665.848 389.406 668.867 391.268 670.729C393.13 672.591 396.148 672.591 398.01 670.729C399.872 668.867 399.872 665.848 398.01 663.986Z" fill="white" fill-opacity="0.5"/>
<path d="M427.86 634.119C425.998 632.257 422.979 632.257 421.117 634.119C419.255 635.981 419.255 639 421.117 640.862C422.979 642.724 425.998 642.724 427.86 640.862C429.722 639 429.722 635.981 427.86 634.119Z" fill="white" fill-opacity="0.5"/>
<path d="M382.948 -116L354.451 -87.5028C377.845 -62.8381 377.465 -23.8964 353.285 0.284489C329.104 24.4654 290.162 24.8353 265.497 1.45131L237 29.9485C277.393 69.0705 341.853 68.6815 381.772 28.7722C421.682 -11.1371 422.07 -75.5974 382.948 -116Z" fill="url(#paint2_radial_43_8986)" fill-opacity="0.2"/>
<path d="M220.5 569C253.913 569 281 596.087 281 629.5C281 662.913 253.913 690 220.5 690C187.087 690 160 662.913 160 629.5C160 596.087 187.087 569 220.5 569Z" fill="url(#paint3_radial_43_8986)"/>
<path d="M111.742 507.837C111.742 507.837 106.293 580.699 100.713 607.497H229.296C223.291 582.519 217.082 514.979 217.082 514.979L235.254 541.892L251.618 500.609C251.618 500.609 235.865 473.677 218.87 459.598C207.067 449.818 182.521 446.222 168.629 444.938V444.172C168.629 444.172 166.722 444.259 163.554 444.528C160.382 444.311 158.474 444.255 158.474 444.255L158.483 445.021C144.613 446.534 120.409 450.868 108.49 460.505C64.3791 496.172 41.5647 604.782 41 607.497H68.4591C83.2939 551.233 111.742 507.837 111.742 507.837Z" fill="#2A485E"/>
<path d="M251.616 500.607C251.616 500.607 240.674 481.9 227.191 467.52C222.348 485.692 220.873 504.762 222.816 523.469L235.256 541.892L251.616 500.607Z" fill="#193345"/>
<path d="M363.788 542.974C360.544 541.319 357.714 539.04 355.157 536.441L262.092 505.48C262.092 505.48 262.092 478.155 256.837 463.903C265.664 447.421 264.955 431.941 262.092 422.625C259.228 413.309 246.785 408.04 242.226 421.723C239.961 428.523 230.433 456.354 226.974 463.457C218.235 506.624 231.982 558.073 259.34 576.707C286.699 595.341 332.133 597.159 365.172 587.954C388.431 581.47 394.987 556.267 396.831 541.916C393.565 543.273 390.219 544.403 386.763 545.158C379.095 546.831 370.776 546.539 363.788 542.974Z" fill="#F7A87E"/>
<path d="M397.548 531.766L374.085 542.739L355.154 536.442C357.711 539.04 360.542 541.32 363.786 542.974C370.777 546.54 379.096 546.832 386.763 545.156C390.219 544.402 393.566 543.271 396.831 541.914C397.605 535.881 397.548 531.766 397.548 531.766Z" fill="#E98870"/>
<path d="M385.139 412.458L361.797 437.26C356.13 443.281 356.665 452.827 362.969 458.174C368.935 463.235 377.846 462.627 383.068 456.802L405.805 431.445C410.962 425.692 410.501 416.855 404.771 411.669C399.104 406.543 390.376 406.893 385.139 412.458Z" fill="#F7A87E"/>
<path d="M183.047 446.734L143.395 446.812L147.897 478.26H178.038L183.047 446.734Z" fill="#ECEADD"/>
<path d="M178.037 478.262H147.896L158.817 554.534L178.037 478.262Z" fill="white"/>
<path d="M146.734 427.254V440.269C151.945 444.082 158.017 446.457 164.337 446.723C164.483 446.73 164.631 446.734 164.776 446.736C164.922 446.738 165.068 446.73 165.214 446.723C171.126 446.475 176.821 444.378 181.796 440.991V427.254H146.734Z" fill="#E98870"/>
<path d="M190.748 410.777C200.047 407.335 207.638 399.56 210.854 390.18C214.071 380.801 212.849 370.003 207.62 361.579C212.123 360.495 214.279 354.675 212.576 350.368C210.872 346.061 206.394 343.371 201.851 342.461C203.983 340.453 203.529 336.712 201.569 334.538C199.608 332.364 196.619 331.446 193.731 330.956C189.088 330.167 184.338 330.239 179.643 330.599C170.74 331.284 139.286 330.339 130.518 351.598C119.19 355.146 119.291 372.145 119.198 376.771C118.951 389.147 124.06 402.019 134.193 409.126C150.201 420.356 172.41 417.566 190.748 410.777Z" fill="#4E2F20"/>
<path d="M196.748 414.736C191.791 428.555 179.097 439.321 165.215 439.904C165.069 439.91 164.923 439.914 164.777 439.917C164.631 439.917 164.483 439.91 164.337 439.904C150.454 439.321 137.762 428.555 132.803 414.736C129.784 406.317 129.344 397.107 129.668 388.105C129.993 379.102 131.049 370.123 130.88 361.117C142.024 358.826 153.461 357.054 164.777 357.707C176.093 357.056 187.527 358.826 198.671 361.117C198.503 370.123 199.556 379.103 199.883 388.105C200.209 397.106 199.767 406.317 196.748 414.736Z" fill="#F7A87E"/>
<path d="M201.775 396.094C197.008 389.103 194.024 380.487 194.456 372.036C174.19 373.448 153.852 370.639 134.728 363.785C134.95 374.939 131.91 385.899 127.177 396.002C126.603 384.883 126.453 374.089 127.633 363.018C127.763 361.757 127.925 360.456 128.558 359.357C129.684 357.403 132.01 356.536 134.172 355.877C154.484 349.671 176.913 348.782 196.704 356.49C198.788 357.302 200.907 358.248 202.42 359.902C203.749 361.351 204.511 363.241 204.947 365.158C205.734 368.61 205.54 372.2 205.342 375.736C204.947 382.762 204.185 389.482 201.775 396.094Z" fill="#4E2F20"/>
<path d="M121.852 375.461C124.667 372.488 127.136 369.205 129.212 365.676C130.944 362.728 132.682 359.358 135.898 358.194C138.856 357.123 142.411 358.233 145.124 356.643C146.507 355.834 147.469 354.417 148.891 353.677C151.667 352.232 154.957 353.801 157.933 354.771C164.641 356.959 172.347 355.837 178.155 351.826C181.105 349.787 183.664 346.857 184.271 343.322C184.807 340.204 183.773 337.034 182.502 334.135C181.964 332.908 181.375 331.704 180.748 330.52C180.38 330.544 180.013 330.57 179.646 330.598C176.376 330.85 170.062 330.883 162.948 331.876C163.04 331.971 163.133 332.065 163.223 332.162C164.787 333.842 166.058 336.209 165.282 338.37C164.68 340.043 163.037 341.079 161.469 341.917C156.663 344.487 151.538 346.409 146.228 347.635C144.957 347.928 143.538 348.273 142.841 349.376C142.349 350.158 142.34 351.145 141.974 351.99C141.258 353.645 139.365 354.424 137.604 354.811C135.844 355.198 133.95 355.393 132.513 356.481C131.796 357.021 131.249 357.749 130.602 358.369C128.542 360.348 125.486 361.156 122.67 360.681C122.357 360.628 122.049 360.558 121.743 360.476C119.243 366.621 119.258 373.967 119.203 376.77C119.194 377.193 119.194 377.616 119.198 378.04C120.122 377.221 121.006 376.354 121.852 375.461Z" fill="#5E3B2B"/>
<path d="M154.353 382.958C155.217 382.987 156.102 383.047 156.888 383.405C157.675 383.762 158.353 384.478 158.428 385.338C158.515 386.323 157.789 387.236 156.903 387.676C156.018 388.116 154.999 388.182 154.012 388.229C150.788 388.383 147.562 388.428 144.333 388.363C143.197 388.34 140.751 388.168 140.725 386.523C140.702 385.148 142.844 384.706 143.873 384.35C147.225 383.189 150.823 382.843 154.353 382.958Z" fill="#452819"/>
<path d="M176.347 382.958C175.484 382.987 174.599 383.047 173.812 383.405C173.025 383.762 172.348 384.478 172.273 385.338C172.186 386.323 172.912 387.236 173.797 387.676C174.683 388.116 175.701 388.182 176.689 388.229C179.912 388.383 183.139 388.428 186.368 388.363C187.504 388.34 189.95 388.168 189.976 386.523C189.999 385.148 187.856 384.706 186.827 384.35C183.475 383.189 179.878 382.843 176.347 382.958Z" fill="#452819"/>
<path d="M149.579 401.041C151.489 401.041 153.037 399.493 153.037 397.583C153.037 395.673 151.489 394.125 149.579 394.125C147.669 394.125 146.121 395.673 146.121 397.583C146.121 399.493 147.669 401.041 149.579 401.041Z" fill="#452819"/>
<path d="M179.772 401.041C181.682 401.041 183.23 399.493 183.23 397.583C183.23 395.673 181.682 394.125 179.772 394.125C177.863 394.125 176.314 395.673 176.314 397.583C176.314 399.493 177.863 401.041 179.772 401.041Z" fill="#452819"/>
<path d="M166.16 427.258C163.701 427.301 161.271 427.828 158.965 428.691C160.576 429.696 162.619 430.35 165.218 430.35C168.214 430.35 170.473 429.483 172.181 428.207C170.246 427.536 168.207 427.215 166.16 427.258Z" fill="#F28487"/>
<path d="M159.506 420.377C160.972 421.029 162.517 421.517 164.109 421.721C167.198 422.118 170.394 421.414 173.109 419.886C174.01 419.376 174.861 418.782 175.649 418.11C175.386 417.999 175.104 417.942 174.819 417.941H155.721C155.779 417.999 155.838 418.055 155.897 418.111C156.942 419.083 158.201 419.799 159.506 420.377Z" fill="white"/>
<path d="M175.65 418.11C174.862 418.782 174.011 419.376 173.11 419.886C170.395 421.414 167.199 422.118 164.11 421.721C162.518 421.517 160.973 421.028 159.507 420.377C158.204 419.799 156.943 419.083 155.898 418.111C155.839 418.055 155.78 417.999 155.722 417.941H155.614C155.286 417.941 154.961 418.016 154.666 418.16C154.371 418.304 154.113 418.515 153.911 418.774C153.71 419.034 153.571 419.337 153.505 419.659C153.439 419.981 153.447 420.313 153.53 420.631C154.181 423.085 155.659 426.63 158.965 428.692C161.271 427.826 163.701 427.299 166.159 427.259C168.207 427.217 170.246 427.539 172.18 428.211C174.992 426.111 176.303 422.905 176.904 420.634C177.036 420.133 176.981 419.601 176.75 419.137C176.52 418.673 176.129 418.308 175.65 418.11Z" fill="#AB404A"/>
<path d="M164.776 446.737C164.631 446.737 164.483 446.73 164.337 446.724C158.019 446.459 151.944 444.082 146.734 440.27V464.515H174.416L181.796 453.972V440.989C176.821 444.38 171.126 446.475 165.214 446.721C165.068 446.729 164.922 446.734 164.776 446.737Z" fill="#F7A87E"/>
<path d="M146.735 443.625L163.658 463.284L181.797 443.625L184.188 446.957L177.861 478.36L163.539 464.513L147.909 478.345L143.395 446.813L146.735 443.625Z" fill="white"/>
<path d="M155.232 471.863L161.861 481.447L152.135 507.852L158.818 554.531L171.414 504.544L165.858 481.336L171.918 472.612L163.54 464.512L155.232 471.863Z" fill="#D75555"/>
<path d="M298.131 548.027L298.039 548.186H298.223L298.131 548.027Z" fill="#F68C24"/>
<path d="M366.986 522.619L391.252 507.721C397.144 504.104 404.622 506.582 407.641 513.153C410.497 519.371 408.272 526.93 402.625 530.206L378.035 544.463C372.457 547.697 365.523 545.431 362.525 539.391C359.554 533.418 361.541 525.962 366.986 522.619Z" fill="#F7A87E"/>
<path d="M358.671 492.066L391.47 478.978C399.434 475.8 408.435 479.944 411.199 488.061C413.811 495.74 409.838 504.105 402.234 506.929L369.129 519.221C361.619 522.009 353.267 518.203 350.446 510.704C347.655 503.288 351.311 495.002 358.671 492.066Z" fill="#F7A87E"/>
<path d="M355.581 462.96L387.213 450.338C394.894 447.273 403.575 451.27 406.24 459.098C408.761 466.504 404.929 474.572 397.594 477.295L365.666 489.149C358.423 491.839 350.369 488.167 347.648 480.936C344.954 473.784 348.481 465.793 355.581 462.96Z" fill="#F7A87E"/>
<path d="M194.158 420.427C198.171 420.652 202.297 419.543 205.482 417.092C208.668 414.641 210.833 410.816 211.007 406.8C211.103 404.586 210.49 402.165 208.71 400.845C207.35 399.837 205.545 399.643 203.859 399.789C201.518 399.993 199.067 400.921 197.825 402.916L194.158 420.427Z" fill="#F7A87E"/>
<path d="M202.938 406.275C203.138 406.395 203.323 406.537 203.489 406.699C204.219 407.4 204.645 408.359 204.674 409.37C204.703 410.381 204.335 411.364 203.647 412.106C203.613 412.142 203.573 412.171 203.528 412.192C203.483 412.213 203.434 412.224 203.385 412.226C203.335 412.228 203.286 412.22 203.239 412.203C203.193 412.186 203.15 412.16 203.114 412.126C203.078 412.092 203.048 412.052 203.028 412.007C203.007 411.962 202.995 411.913 202.993 411.864C202.991 411.814 202.999 411.765 203.016 411.718C203.034 411.672 203.06 411.629 203.093 411.593C203.646 410.996 203.942 410.207 203.918 409.394C203.895 408.581 203.553 407.81 202.967 407.247C202.755 407.042 202.43 406.799 202.055 406.737C200.645 407.605 199.553 408.907 198.943 410.447C198.915 410.519 198.866 410.58 198.801 410.623C198.737 410.666 198.661 410.689 198.584 410.687C198.539 410.686 198.495 410.677 198.453 410.661C198.36 410.625 198.285 410.553 198.245 410.461C198.205 410.37 198.202 410.266 198.238 410.173C198.957 408.325 200.313 406.796 202.062 405.862C203.811 404.928 205.836 404.65 207.771 405.08C207.869 405.102 207.954 405.162 208.008 405.246C208.061 405.331 208.079 405.433 208.058 405.531C208.036 405.628 207.976 405.713 207.892 405.767C207.807 405.821 207.705 405.839 207.607 405.817C206.041 405.478 204.409 405.638 202.938 406.275Z" fill="#D26F61"/>
<path d="M196.524 414.199C196.574 414.112 196.656 414.048 196.753 414.022C196.85 413.996 196.953 414.009 197.04 414.059C199.075 415.224 201.632 414.522 203.345 413.477C204.441 412.809 205.885 411.642 206.532 409.876C206.549 409.829 206.575 409.787 206.609 409.75C206.643 409.714 206.683 409.684 206.728 409.664C206.773 409.643 206.822 409.631 206.871 409.629C206.921 409.627 206.97 409.635 207.016 409.652C207.063 409.669 207.106 409.695 207.142 409.729C207.178 409.763 207.208 409.803 207.229 409.848C207.249 409.893 207.261 409.941 207.263 409.991C207.265 410.04 207.257 410.09 207.24 410.136C206.517 412.107 204.936 413.393 203.738 414.122C202.515 414.867 200.894 415.449 199.275 415.414C198.36 415.403 197.462 415.162 196.664 414.713C196.578 414.664 196.514 414.582 196.488 414.485C196.462 414.389 196.475 414.286 196.524 414.199Z" fill="#D26F61"/>
<path d="M135.173 420.427C131.16 420.652 127.031 419.543 123.849 417.092C120.666 414.641 118.498 410.816 118.324 406.8C118.228 404.586 118.842 402.165 120.621 400.845C121.981 399.837 123.786 399.643 125.472 399.789C127.813 399.993 130.265 400.921 131.507 402.916L135.173 420.427Z" fill="#F7A87E"/>
<path d="M126.393 406.275C126.194 406.395 126.009 406.537 125.842 406.699C125.113 407.4 124.687 408.359 124.658 409.37C124.628 410.381 124.997 411.364 125.685 412.106C125.718 412.142 125.759 412.171 125.804 412.192C125.849 412.213 125.898 412.224 125.947 412.226C125.997 412.228 126.046 412.22 126.092 412.203C126.139 412.186 126.182 412.16 126.218 412.126C126.254 412.092 126.284 412.052 126.304 412.007C126.325 411.962 126.337 411.913 126.339 411.864C126.34 411.814 126.333 411.765 126.315 411.718C126.298 411.672 126.272 411.629 126.238 411.593C125.686 410.996 125.39 410.207 125.414 409.394C125.437 408.581 125.779 407.81 126.365 407.247C126.577 407.042 126.901 406.799 127.277 406.737C128.687 407.605 129.779 408.906 130.389 410.447C130.417 410.519 130.466 410.58 130.531 410.623C130.595 410.666 130.671 410.688 130.748 410.687C130.793 410.686 130.837 410.677 130.879 410.661C130.925 410.643 130.967 410.616 131.003 410.582C131.039 410.548 131.067 410.507 131.087 410.462C131.107 410.416 131.118 410.367 131.119 410.318C131.12 410.268 131.111 410.219 131.093 410.173C130.375 408.325 129.019 406.796 127.27 405.862C125.522 404.928 123.496 404.65 121.561 405.08C121.513 405.091 121.467 405.111 121.426 405.14C121.386 405.168 121.351 405.204 121.325 405.246C121.298 405.288 121.28 405.334 121.271 405.383C121.263 405.432 121.264 405.482 121.275 405.53C121.285 405.579 121.305 405.624 121.334 405.665C121.362 405.706 121.398 405.74 121.44 405.767C121.482 405.793 121.529 405.812 121.577 405.82C121.626 405.829 121.676 405.828 121.725 405.817C123.291 405.478 124.923 405.638 126.393 406.275Z" fill="#D26F61"/>
<path d="M132.807 414.199C132.758 414.112 132.675 414.048 132.579 414.022C132.482 413.996 132.379 414.009 132.292 414.059C130.257 415.224 127.7 414.522 125.987 413.477C124.89 412.809 123.446 411.642 122.8 409.876C122.782 409.829 122.756 409.787 122.723 409.75C122.689 409.714 122.649 409.684 122.604 409.664C122.559 409.643 122.51 409.631 122.461 409.629C122.411 409.627 122.362 409.635 122.315 409.652C122.269 409.669 122.226 409.695 122.19 409.729C122.153 409.763 122.124 409.803 122.103 409.848C122.082 409.893 122.071 409.941 122.069 409.991C122.067 410.04 122.074 410.09 122.092 410.136C122.815 412.107 124.395 413.393 125.594 414.122C126.817 414.867 128.438 415.449 130.057 415.414C130.972 415.403 131.87 415.162 132.667 414.713C132.754 414.664 132.818 414.582 132.844 414.485C132.87 414.389 132.857 414.286 132.807 414.199Z" fill="#D26F61"/>
<path opacity="0.12" d="M182.478 415.03C185.5 415.03 187.95 412.58 187.95 409.558C187.95 406.536 185.5 404.086 182.478 404.086C179.456 404.086 177.006 406.536 177.006 409.558C177.006 412.58 179.456 415.03 182.478 415.03Z" fill="#ED7C6D"/>
<path opacity="0.12" d="M185.565 411.947C187.702 409.81 187.702 406.346 185.565 404.209C183.428 402.072 179.963 402.072 177.826 404.209C175.689 406.346 175.689 409.81 177.826 411.947C179.963 414.084 183.428 414.084 185.565 411.947Z" fill="#ED7C6D"/>
<path opacity="0.12" d="M184.765 415.03C187.787 415.03 190.237 412.58 190.237 409.558C190.237 406.536 187.787 404.086 184.765 404.086C181.743 404.086 179.293 406.536 179.293 409.558C179.293 412.58 181.743 415.03 184.765 415.03Z" fill="#ED7C6D"/>
<path opacity="0.12" d="M182.277 416.655C185.299 416.655 187.748 414.205 187.748 411.183C187.748 408.161 185.299 405.711 182.277 405.711C179.255 405.711 176.805 408.161 176.805 411.183C176.805 414.205 179.255 416.655 182.277 416.655Z" fill="#ED7C6D"/>
<path opacity="0.12" d="M182.794 413.657C185.057 413.657 186.892 411.823 186.892 409.559C186.892 407.296 185.057 405.461 182.794 405.461C180.53 405.461 178.695 407.296 178.695 409.559C178.695 411.823 180.53 413.657 182.794 413.657Z" fill="#ED7C6D"/>
<path opacity="0.12" d="M183.355 412.373C184.687 412.373 185.768 411.293 185.768 409.96C185.768 408.627 184.687 407.547 183.355 407.547C182.022 407.547 180.941 408.627 180.941 409.96C180.941 411.293 182.022 412.373 183.355 412.373Z" fill="#ED7C6D"/>
<path opacity="0.12" d="M184.039 409.651C184.345 408.353 183.542 407.054 182.244 406.748C180.947 406.441 179.648 407.245 179.341 408.542C179.035 409.839 179.839 411.139 181.136 411.445C182.433 411.751 183.733 410.948 184.039 409.651Z" fill="#ED7C6D"/>
<path opacity="0.12" d="M184.647 411C185.878 410.49 186.463 409.079 185.953 407.847C185.443 406.616 184.031 406.031 182.8 406.541C181.569 407.051 180.984 408.463 181.494 409.694C182.004 410.926 183.415 411.51 184.647 411Z" fill="#ED7C6D"/>
<path opacity="0.12" d="M183.401 411.786C184.632 411.276 185.217 409.864 184.707 408.633C184.197 407.401 182.785 406.816 181.554 407.327C180.322 407.837 179.738 409.248 180.248 410.48C180.758 411.711 182.169 412.296 183.401 411.786Z" fill="#ED7C6D"/>
<path opacity="0.12" d="M185.138 409.315C185.445 408.018 184.641 406.718 183.344 406.412C182.047 406.106 180.747 406.909 180.441 408.206C180.135 409.503 180.938 410.803 182.235 411.109C183.533 411.415 184.832 410.612 185.138 409.315Z" fill="#ED7C6D"/>
<path opacity="0.05" d="M183.167 410.479C184.12 410.479 184.892 409.708 184.892 408.755C184.892 407.803 184.12 407.031 183.167 407.031C182.215 407.031 181.443 407.803 181.443 408.755C181.443 409.708 182.215 410.479 183.167 410.479Z" fill="#FDECE9"/>
<path opacity="0.05" d="M182.79 409.108C183.359 409.108 183.821 408.646 183.821 408.077C183.821 407.508 183.359 407.047 182.79 407.047C182.221 407.047 181.76 407.508 181.76 408.077C181.76 408.646 182.221 409.108 182.79 409.108Z" fill="#FDECE9"/>
<path opacity="0.05" d="M183.581 408.476C183.498 408.587 183.383 408.671 183.252 408.717C183.121 408.763 182.979 408.77 182.845 408.735C182.71 408.701 182.589 408.627 182.496 408.524C182.403 408.42 182.343 408.291 182.323 408.154C182.304 408.016 182.325 407.876 182.385 407.751C182.446 407.625 182.541 407.521 182.661 407.45C182.781 407.379 182.918 407.345 183.057 407.353C183.196 407.36 183.329 407.409 183.441 407.492C183.515 407.547 183.577 407.617 183.624 407.696C183.671 407.776 183.702 407.864 183.715 407.955C183.728 408.046 183.723 408.139 183.7 408.229C183.677 408.318 183.637 408.402 183.581 408.476Z" fill="#FDECE9"/>
<path opacity="0.05" d="M183.353 408.383C183.269 408.494 183.155 408.578 183.024 408.625C182.892 408.671 182.75 408.677 182.615 408.643C182.481 408.608 182.359 408.535 182.266 408.431C182.173 408.328 182.113 408.199 182.093 408.061C182.073 407.923 182.095 407.783 182.155 407.657C182.215 407.532 182.311 407.427 182.431 407.356C182.55 407.285 182.688 407.251 182.827 407.259C182.966 407.266 183.1 407.315 183.211 407.398C183.361 407.51 183.459 407.677 183.486 407.861C183.512 408.046 183.464 408.233 183.353 408.383Z" fill="#FDECE9"/>
<path opacity="0.05" d="M181.8 408.506C182.173 408.406 182.393 408.022 182.292 407.649C182.191 407.276 181.807 407.056 181.434 407.157C181.062 407.258 180.842 407.642 180.942 408.015C181.043 408.387 181.427 408.607 181.8 408.506Z" fill="#FDECE9"/>
<path opacity="0.05" d="M183.441 408.382C183.357 408.494 183.243 408.577 183.112 408.624C182.981 408.67 182.839 408.676 182.704 408.641C182.569 408.607 182.448 408.533 182.355 408.43C182.263 408.326 182.203 408.198 182.183 408.06C182.163 407.922 182.185 407.782 182.245 407.657C182.305 407.531 182.401 407.427 182.52 407.356C182.64 407.285 182.778 407.251 182.917 407.259C183.055 407.266 183.189 407.315 183.3 407.398C183.449 407.51 183.548 407.677 183.574 407.861C183.6 408.046 183.552 408.233 183.441 408.382Z" fill="#FDECE9"/>
<path opacity="0.12" d="M145.37 415.03C148.392 415.03 150.842 412.58 150.842 409.558C150.842 406.536 148.392 404.086 145.37 404.086C142.348 404.086 139.898 406.536 139.898 409.558C139.898 412.58 142.348 415.03 145.37 415.03Z" fill="#ED7C6D"/>
<path opacity="0.12" d="M148.455 411.947C150.592 409.81 150.592 406.346 148.455 404.209C146.318 402.072 142.854 402.072 140.717 404.209C138.58 406.346 138.58 409.81 140.717 411.947C142.854 414.084 146.318 414.084 148.455 411.947Z" fill="#ED7C6D"/>
<path opacity="0.12" d="M147.657 415.03C150.679 415.03 153.129 412.58 153.129 409.558C153.129 406.536 150.679 404.086 147.657 404.086C144.635 404.086 142.186 406.536 142.186 409.558C142.186 412.58 144.635 415.03 147.657 415.03Z" fill="#ED7C6D"/>
<path opacity="0.12" d="M145.167 416.655C148.189 416.655 150.639 414.205 150.639 411.183C150.639 408.161 148.189 405.711 145.167 405.711C142.145 405.711 139.695 408.161 139.695 411.183C139.695 414.205 142.145 416.655 145.167 416.655Z" fill="#ED7C6D"/>
<path opacity="0.12" d="M145.686 413.657C147.949 413.657 149.784 411.823 149.784 409.559C149.784 407.296 147.949 405.461 145.686 405.461C143.423 405.461 141.588 407.296 141.588 409.559C141.588 411.823 143.423 413.657 145.686 413.657Z" fill="#ED7C6D"/>
<path opacity="0.12" d="M146.247 412.373C147.58 412.373 148.66 411.293 148.66 409.96C148.66 408.627 147.58 407.547 146.247 407.547C144.914 407.547 143.834 408.627 143.834 409.96C143.834 411.293 144.914 412.373 146.247 412.373Z" fill="#ED7C6D"/>
<path opacity="0.12" d="M146.931 409.651C147.238 408.353 146.434 407.054 145.137 406.748C143.84 406.441 142.54 407.245 142.234 408.542C141.928 409.839 142.731 411.139 144.028 411.445C145.325 411.751 146.625 410.948 146.931 409.651Z" fill="#ED7C6D"/>
<path opacity="0.12" d="M147.537 411C148.769 410.49 149.353 409.079 148.843 407.847C148.333 406.616 146.922 406.031 145.69 406.541C144.459 407.051 143.874 408.463 144.384 409.694C144.894 410.926 146.306 411.51 147.537 411Z" fill="#ED7C6D"/>
<path opacity="0.12" d="M146.293 411.786C147.525 411.276 148.109 409.864 147.599 408.633C147.089 407.401 145.678 406.816 144.446 407.327C143.215 407.837 142.63 409.248 143.14 410.48C143.65 411.711 145.062 412.296 146.293 411.786Z" fill="#ED7C6D"/>
<path opacity="0.12" d="M148.031 409.315C148.337 408.018 147.534 406.718 146.237 406.412C144.94 406.106 143.64 406.909 143.334 408.206C143.027 409.503 143.831 410.803 145.128 411.109C146.425 411.415 147.725 410.612 148.031 409.315Z" fill="#ED7C6D"/>
<path opacity="0.05" d="M146.058 410.479C147.01 410.479 147.782 409.708 147.782 408.755C147.782 407.803 147.01 407.031 146.058 407.031C145.106 407.031 144.334 407.803 144.334 408.755C144.334 409.708 145.106 410.479 146.058 410.479Z" fill="#FDECE9"/>
<path opacity="0.05" d="M145.681 409.108C146.25 409.108 146.711 408.646 146.711 408.077C146.711 407.508 146.25 407.047 145.681 407.047C145.112 407.047 144.65 407.508 144.65 408.077C144.65 408.646 145.112 409.108 145.681 409.108Z" fill="#FDECE9"/>
<path opacity="0.05" d="M146.474 408.476C146.391 408.587 146.276 408.671 146.145 408.717C146.014 408.763 145.872 408.77 145.737 408.735C145.603 408.701 145.481 408.627 145.389 408.524C145.296 408.42 145.236 408.291 145.216 408.154C145.196 408.016 145.218 407.876 145.278 407.751C145.338 407.625 145.434 407.521 145.554 407.45C145.673 407.379 145.811 407.345 145.95 407.353C146.089 407.36 146.222 407.409 146.333 407.492C146.407 407.547 146.469 407.617 146.516 407.696C146.563 407.776 146.594 407.864 146.607 407.955C146.621 408.046 146.615 408.139 146.593 408.229C146.57 408.318 146.529 408.402 146.474 408.476Z" fill="#FDECE9"/>
<path opacity="0.05" d="M146.245 408.382C146.162 408.494 146.048 408.577 145.916 408.624C145.785 408.67 145.643 408.676 145.509 408.641C145.374 408.607 145.253 408.533 145.16 408.43C145.067 408.326 145.007 408.198 144.988 408.06C144.968 407.922 144.989 407.782 145.05 407.657C145.11 407.531 145.205 407.427 145.325 407.356C145.445 407.285 145.583 407.251 145.721 407.259C145.86 407.266 145.994 407.315 146.105 407.398C146.254 407.51 146.352 407.677 146.379 407.861C146.405 408.046 146.357 408.233 146.245 408.382Z" fill="#FDECE9"/>
<path opacity="0.05" d="M146.174 408.732C146.549 408.63 146.769 408.243 146.666 407.869C146.564 407.495 146.177 407.274 145.803 407.377C145.428 407.479 145.208 407.866 145.311 408.24C145.413 408.615 145.8 408.835 146.174 408.732Z" fill="#FDECE9"/>
<path opacity="0.05" d="M146.333 408.383C146.25 408.494 146.135 408.578 146.004 408.625C145.873 408.671 145.731 408.677 145.596 408.643C145.461 408.608 145.34 408.535 145.247 408.431C145.154 408.328 145.093 408.199 145.074 408.061C145.054 407.923 145.075 407.783 145.135 407.657C145.195 407.532 145.291 407.427 145.411 407.356C145.531 407.285 145.669 407.251 145.808 407.259C145.947 407.266 146.08 407.315 146.192 407.398C146.341 407.51 146.44 407.677 146.466 407.861C146.493 408.046 146.445 408.233 146.333 408.383Z" fill="#FDECE9"/>
<path d="M159.83 405.438C159.83 405.453 159.83 405.468 159.83 405.484C159.846 406.902 160.42 408.257 161.429 409.255C162.437 410.252 163.798 410.812 165.217 410.812C166.635 410.812 167.997 410.252 169.005 409.255C170.014 408.257 170.588 406.902 170.604 405.484C170.604 405.468 170.604 405.453 170.604 405.438H159.83Z" fill="#F17D6F"/>
<path d="M257.834 470.781C257.318 468.588 257.516 465.746 256.837 463.903C265.664 447.421 264.955 431.941 262.091 422.625C259.228 413.309 246.785 408.04 242.226 421.723C239.96 428.523 230.432 456.354 226.973 463.457C224.911 473.644 224.101 484.293 224.427 494.862C227.252 493.475 230.007 491.94 232.678 490.32C242.093 484.613 250.029 478.549 257.834 470.781Z" fill="#F7A87E"/>
<path d="M235.762 614.073L197.78 580.95C169.006 612.234 120.394 615.08 88.1578 586.99C55.9216 558.9 52.1501 510.327 79.2284 477.565L41.2464 444.442C-4.12561 498.182 1.86706 578.561 55.0571 624.946C108.247 671.332 188.694 666.334 235.762 614.073Z" fill="#FF9149"/>
<path d="M271.201 361.348H272.584V370.724H271.201C271.062 370.724 270.924 370.697 270.795 370.643C270.667 370.59 270.55 370.512 270.451 370.413C270.353 370.315 270.275 370.198 270.221 370.069C270.168 369.941 270.141 369.803 270.141 369.663V362.408C270.141 362.127 270.252 361.857 270.451 361.658C270.65 361.459 270.92 361.348 271.201 361.348Z" fill="#333333"/>
<path d="M271.201 379.766H272.584V397.246H271.201C270.92 397.246 270.65 397.134 270.451 396.935C270.252 396.736 270.141 396.466 270.141 396.185V380.826C270.141 380.545 270.252 380.275 270.451 380.076C270.65 379.877 270.92 379.766 271.201 379.766Z" fill="#333333"/>
<path d="M393.75 413.012H392.367V385.902H393.75C394.031 385.902 394.301 386.014 394.5 386.213C394.699 386.411 394.811 386.681 394.811 386.962V411.951C394.811 412.232 394.699 412.502 394.5 412.701C394.301 412.9 394.031 413.012 393.75 413.012Z" fill="#333333"/>
<path d="M271.201 402.133H272.584V419.613H271.201C270.92 419.613 270.65 419.501 270.451 419.302C270.252 419.103 270.141 418.834 270.141 418.552V403.193C270.141 402.912 270.252 402.642 270.451 402.443C270.65 402.245 270.92 402.133 271.201 402.133Z" fill="#333333"/>
<path d="M375.231 327.914H289.715C279.579 327.914 271.363 336.13 271.363 346.265V557.563C271.363 567.698 279.579 575.914 289.715 575.914H375.231C385.366 575.914 393.582 567.698 393.582 557.563V346.265C393.582 336.13 385.366 327.914 375.231 327.914Z" fill="#444444"/>
<path d="M375.229 330.059H289.711C280.761 330.059 273.506 337.314 273.506 346.264V557.563C273.506 566.513 280.761 573.768 289.711 573.768H375.229C384.179 573.768 391.434 566.513 391.434 557.563V346.264C391.434 337.314 384.179 330.059 375.229 330.059Z" fill="#444444"/>
<path d="M375.23 330.195H289.712C280.837 330.195 273.643 337.39 273.643 346.264V557.564C273.643 566.438 280.837 573.633 289.712 573.633H375.23C384.105 573.633 391.299 566.438 391.299 557.564V346.264C391.299 337.39 384.105 330.195 375.23 330.195Z" fill="#434343"/>
<path d="M375.231 330.332H289.712C280.913 330.332 273.779 337.465 273.779 346.265V557.565C273.779 566.364 280.913 573.498 289.712 573.498H375.231C384.03 573.498 391.164 566.364 391.164 557.565V346.265C391.164 337.465 384.03 330.332 375.231 330.332Z" fill="#414141"/>
<path d="M375.23 330.469H289.711C280.987 330.469 273.914 337.541 273.914 346.266V557.565C273.914 566.29 280.987 573.362 289.711 573.362H375.23C383.954 573.362 391.027 566.29 391.027 557.565V346.266C391.027 337.541 383.954 330.469 375.23 330.469Z" fill="#404040"/>
<path d="M375.23 330.605H289.712C281.062 330.605 274.051 337.617 274.051 346.266V557.566C274.051 566.215 281.062 573.227 289.712 573.227H375.23C383.88 573.227 390.891 566.215 390.891 557.566V346.266C390.891 337.617 383.88 330.605 375.23 330.605Z" fill="#3E3E3E"/>
<path d="M375.233 330.742H289.714C281.14 330.742 274.189 337.693 274.189 346.267V557.567C274.189 566.141 281.14 573.092 289.714 573.092H375.233C383.807 573.092 390.758 566.141 390.758 557.567V346.267C390.758 337.693 383.807 330.742 375.233 330.742Z" fill="#3D3D3D"/>
<path d="M375.229 330.875H289.713C281.214 330.875 274.324 337.765 274.324 346.264V557.561C274.324 566.06 281.214 572.95 289.713 572.95H375.229C383.728 572.95 390.618 566.06 390.618 557.561V346.264C390.618 337.765 383.728 330.875 375.229 330.875Z" fill="#3B3B3B"/>
<path d="M375.23 331.012H289.714C281.29 331.012 274.461 337.841 274.461 346.265V557.562C274.461 565.986 281.29 572.815 289.714 572.815H375.23C383.654 572.815 390.483 565.986 390.483 557.562V346.265C390.483 337.841 383.654 331.012 375.23 331.012Z" fill="#3A3A3A"/>
<path d="M375.231 331.148H289.715C281.366 331.148 274.598 337.916 274.598 346.265V557.562C274.598 565.911 281.366 572.679 289.715 572.679H375.231C383.58 572.679 390.348 565.911 390.348 557.562V346.265C390.348 337.916 383.58 331.148 375.231 331.148Z" fill="#393939"/>
<path d="M375.229 331.285H289.713C281.44 331.285 274.732 337.992 274.732 346.266V557.563C274.732 565.837 281.44 572.544 289.713 572.544H375.229C383.503 572.544 390.21 565.837 390.21 557.563V346.266C390.21 337.992 383.503 331.285 375.229 331.285Z" fill="#373737"/>
<path d="M375.23 331.422H289.714C281.515 331.422 274.869 338.068 274.869 346.267V557.564C274.869 565.762 281.515 572.409 289.714 572.409H375.23C383.429 572.409 390.075 565.762 390.075 557.564V346.267C390.075 338.068 383.429 331.422 375.23 331.422Z" fill="#363636"/>
<path d="M375.231 331.559H289.715C281.591 331.559 275.006 338.144 275.006 346.267V557.565C275.006 565.688 281.591 572.273 289.715 572.273H375.231C383.354 572.273 389.94 565.688 389.94 557.565V346.267C389.94 338.144 383.354 331.559 375.231 331.559Z" fill="#343434"/>
<path d="M375.23 331.695H289.711C281.664 331.695 275.141 338.219 275.141 346.266V557.565C275.141 565.612 281.664 572.136 289.711 572.136H375.23C383.277 572.136 389.8 565.612 389.8 557.565V346.266C389.8 338.219 383.277 331.695 375.23 331.695Z" fill="#333333"/>
<path d="M375.23 331.832H289.712C281.74 331.832 275.277 338.295 275.277 346.266V557.566C275.277 565.538 281.74 572 289.712 572H375.23C383.202 572 389.665 565.538 389.665 557.566V346.266C389.665 338.295 383.202 331.832 375.23 331.832Z" fill="#313131"/>
<path d="M375.231 331.969H289.712C281.816 331.969 275.414 338.37 275.414 346.267V557.567C275.414 565.463 281.816 571.865 289.712 571.865H375.231C383.128 571.865 389.529 565.463 389.529 557.567V346.267C389.529 338.37 383.128 331.969 375.231 331.969Z" fill="#303030"/>
<path d="M375.23 332.102H289.711C281.89 332.102 275.549 338.442 275.549 346.264V557.563C275.549 565.385 281.89 571.726 289.711 571.726H375.23C383.051 571.726 389.392 565.385 389.392 557.563V346.264C389.392 338.442 383.051 332.102 375.23 332.102Z" fill="#2F2F2F"/>
<path d="M375.23 332.238H289.712C281.965 332.238 275.686 338.518 275.686 346.265V557.564C275.686 565.311 281.965 571.591 289.712 571.591H375.23C382.977 571.591 389.257 565.311 389.257 557.564V346.265C389.257 338.518 382.977 332.238 375.23 332.238Z" fill="#2D2D2D"/>
<path d="M375.229 332.375H289.711C282.039 332.375 275.82 338.594 275.82 346.265V557.565C275.82 565.236 282.039 571.455 289.711 571.455H375.229C382.901 571.455 389.12 565.236 389.12 557.565V346.265C389.12 338.594 382.901 332.375 375.229 332.375Z" fill="#2C2C2C"/>
<path d="M375.23 332.512H289.713C282.117 332.512 275.959 338.67 275.959 346.266V557.563C275.959 565.16 282.117 571.318 289.713 571.318H375.23C382.826 571.318 388.984 565.16 388.984 557.563V346.266C388.984 338.67 382.826 332.512 375.23 332.512Z" fill="#2A2A2A"/>
<path d="M375.23 332.648H289.714C282.193 332.648 276.096 338.746 276.096 346.267V557.564C276.096 565.085 282.193 571.182 289.714 571.182H375.23C382.751 571.182 388.849 565.085 388.849 557.564V346.267C388.849 338.746 382.751 332.648 375.23 332.648Z" fill="#292929"/>
<path d="M375.231 332.781H289.715C282.269 332.781 276.232 338.817 276.232 346.264V557.561C276.232 565.007 282.269 571.043 289.715 571.043H375.231C382.677 571.043 388.713 565.007 388.713 557.561V346.264C388.713 338.817 382.677 332.781 375.231 332.781Z" fill="#272727"/>
<path d="M375.23 332.922H289.713C282.343 332.922 276.367 338.897 276.367 346.268V557.565C276.367 564.936 282.343 570.912 289.713 570.912H375.23C382.601 570.912 388.576 564.936 388.576 557.565V346.268C388.576 338.897 382.601 332.922 375.23 332.922Z" fill="#262626"/>
<path d="M375.231 330.774C379.338 330.778 383.275 332.411 386.179 335.315C389.083 338.219 390.717 342.157 390.721 346.264V557.563C390.717 561.67 389.083 565.608 386.179 568.512C383.275 571.416 379.338 573.05 375.231 573.054H289.714C285.607 573.05 281.669 571.416 278.765 568.512C275.861 565.608 274.227 561.671 274.222 557.563V346.264C274.227 342.157 275.861 338.219 278.765 335.315C281.669 332.411 285.607 330.778 289.714 330.774H375.231ZM375.231 329.891H289.714C285.375 329.897 281.215 331.623 278.147 334.692C275.078 337.76 273.352 341.92 273.346 346.259V557.559C273.352 561.898 275.078 566.058 278.147 569.127C281.215 572.195 285.375 573.921 289.714 573.928H375.231C379.57 573.921 383.73 572.195 386.798 569.127C389.867 566.058 391.593 561.898 391.599 557.559V346.264C391.593 341.925 389.867 337.765 386.798 334.696C383.73 331.628 379.57 329.901 375.231 329.895V329.891Z" fill="#2D2C2C"/>
<mask id="mask0_43_8986" style="mask-type:luminance" maskUnits="userSpaceOnUse" x="278" y="335" width="109" height="234">
<path d="M375.23 335.066H364.111C363.768 335.066 363.438 335.203 363.196 335.445C362.953 335.688 362.816 336.017 362.815 336.36V336.521C362.817 337.485 362.628 338.441 362.26 339.332C361.892 340.223 361.352 341.033 360.671 341.716C359.989 342.398 359.18 342.94 358.289 343.309C357.399 343.678 356.444 343.869 355.479 343.869H309.103C307.157 343.869 305.291 343.096 303.915 341.72C302.54 340.344 301.767 338.478 301.767 336.533V336.371C301.767 336.028 301.631 335.699 301.388 335.457C301.145 335.214 300.816 335.078 300.473 335.078H289.714C288.243 335.078 286.786 335.367 285.427 335.93C284.068 336.493 282.833 337.317 281.793 338.357C280.753 339.398 279.927 340.632 279.364 341.991C278.801 343.35 278.512 344.807 278.512 346.278V557.577C278.512 559.048 278.801 560.505 279.364 561.864C279.927 563.223 280.753 564.458 281.793 565.498C282.833 566.538 284.068 567.363 285.427 567.925C286.786 568.488 288.243 568.778 289.714 568.777H375.23C378.201 568.777 381.049 567.597 383.15 565.497C385.25 563.396 386.43 560.548 386.43 557.577V346.266C386.43 343.296 385.25 340.447 383.15 338.347C381.049 336.246 378.201 335.066 375.23 335.066Z" fill="white"/>
</mask>
<g mask="url(#mask0_43_8986)">
<path d="M386.43 335.066H278.512V568.766H386.43V335.066Z" fill="#9EA6FF"/>
<path d="M278.281 568.995V383.77H276.736C277.659 382.335 278.581 380.898 279.503 379.459C281.376 376.585 283.298 373.712 285.267 370.841C289.209 365.105 293.341 359.393 297.663 353.705C301.985 348.017 306.39 342.509 310.878 337.182C311.439 336.516 312 335.853 312.561 335.192C312.839 334.86 313.119 334.53 313.402 334.203V334.839H386.66V540.716H388.044C386.857 541.68 385.671 542.632 384.484 543.571C379.735 547.324 374.992 550.859 370.257 554.176C365.522 557.493 360.814 560.58 356.134 563.439C353.795 564.868 351.464 566.239 349.141 567.55C347.979 568.204 346.821 568.845 345.667 569.47V568.995H278.281Z" fill="#9EA6FF"/>
<path d="M278.281 568.996V384.073H277.758C278.662 382.651 279.578 381.228 280.506 379.803C282.363 376.958 284.266 374.115 286.217 371.273C290.117 365.595 294.207 359.942 298.486 354.312C302.765 348.682 307.121 343.229 311.553 337.954C312.66 336.636 313.771 335.329 314.887 334.035V334.835H386.661V539.403H387.917C386.744 540.357 385.57 541.299 384.394 542.227C379.696 545.94 375.003 549.438 370.315 552.721C361.446 558.977 352.173 564.64 342.557 569.671V568.996H278.281Z" fill="#9FA7FF"/>
<path d="M278.281 568.997V386.488H277.449C277.889 385.784 278.333 385.08 278.782 384.376C279.676 382.967 280.582 381.558 281.5 380.15C283.344 377.336 285.228 374.524 287.151 371.712C291.013 366.093 295.061 360.499 299.293 354.929C303.526 349.359 307.837 343.963 312.225 338.742C313.322 337.437 314.422 336.143 315.524 334.86L316.354 333.898V334.837H386.67V538.088H387.8C386.638 539.03 385.475 539.961 384.312 540.882C379.661 544.557 375.017 548.015 370.38 551.257C361.603 557.447 352.427 563.05 342.91 568.029C341.785 568.613 340.663 569.182 339.544 569.735V568.986L278.281 568.997Z" fill="#A0A7FE"/>
<path d="M278.28 568.997V388.858H277.176C284.067 377.706 291.716 366.553 300.092 355.539C304.28 350.032 308.545 344.694 312.887 339.523C313.963 338.232 315.051 336.952 316.152 335.683C316.697 335.046 317.245 334.414 317.793 333.785V334.836H386.66V536.769H387.66C386.512 537.705 385.359 538.627 384.202 539.535C379.6 543.173 375.005 546.599 370.415 549.813C361.731 555.939 352.652 561.484 343.236 566.412C341.009 567.567 338.795 568.663 336.594 569.7V569.008L278.28 568.997Z" fill="#A1A8FE"/>
<path d="M278.28 568.996V389.113H278.223C285.042 378.081 292.609 367.045 300.897 356.145C305.047 350.698 309.266 345.416 313.554 340.299C314.63 339.022 315.706 337.755 316.781 336.498C317.323 335.871 317.863 335.246 318.395 334.621V334.831H386.637V535.452H387.51C386.372 536.374 385.233 537.286 384.096 538.188C379.545 541.788 374.999 545.177 370.457 548.355C361.865 554.416 352.882 559.901 343.566 564.775C341.362 565.918 339.172 567.002 336.996 568.028C335.907 568.543 334.823 569.04 333.743 569.522V568.996H278.28Z" fill="#A2A8FD"/>
<path d="M278.281 568.997V393.465H276.775C277.596 392.1 278.428 390.736 279.27 389.372C286.016 378.458 293.501 367.542 301.7 356.762C305.799 351.372 309.973 346.146 314.223 341.085C316.344 338.558 318.481 336.073 320.634 333.629V334.835H386.66V534.134H387.405C386.28 535.056 385.154 535.959 384.027 536.841C379.526 540.4 375.028 543.753 370.536 546.9C362.036 552.894 353.149 558.32 343.933 563.141C339.576 565.404 335.272 567.433 331.023 569.228V568.997H278.281Z" fill="#A3A9FD"/>
<path d="M278.281 567.424V393.666H277.85C278.661 392.315 279.484 390.966 280.319 389.618C286.991 378.824 294.396 368.025 302.504 357.362C306.557 352.032 310.685 346.864 314.889 341.858C316.99 339.357 319.105 336.898 321.234 334.48V334.824H386.66V532.807H387.278C386.164 533.711 385.05 534.603 383.937 535.484C379.48 539.003 375.031 542.32 370.591 545.434C362.184 551.364 353.394 556.732 344.279 561.503C339.968 563.739 335.71 565.746 331.504 567.523C329.405 568.41 327.322 569.238 325.257 570.008V568.989H278.281V567.424Z" fill="#A4AAFC"/>
<path d="M278.281 565.727V395.889H277.73C278.127 395.22 278.525 394.553 278.925 393.888C279.727 392.554 280.541 391.219 281.366 389.883C287.964 379.209 295.289 368.528 303.307 357.983C307.316 352.709 311.399 347.598 315.558 342.649C317.633 340.175 319.724 337.743 321.832 335.355C322.357 334.758 322.884 334.164 323.413 333.57V334.836H386.661V531.503H387.15C386.049 532.397 384.948 533.28 383.846 534.149C379.441 537.631 375.041 540.908 370.647 543.982C362.332 549.852 353.639 555.166 344.623 559.89C336.093 564.312 327.759 567.837 319.724 570.4V569.017H278.281V565.727Z" fill="#A6AAFC"/>
<path d="M278.281 564.041V398.048H277.654C279.191 395.411 280.777 392.773 282.413 390.134C288.939 379.575 296.181 369.013 304.112 358.586C308.077 353.372 312.115 348.318 316.225 343.423C318.279 340.977 320.347 338.573 322.429 336.209C322.95 335.619 323.471 335.031 323.994 334.445V334.828H386.661V530.176H387.023C385.931 531.061 384.843 531.934 383.756 532.795C379.399 536.239 375.047 539.483 370.702 542.526C362.479 548.325 353.883 553.574 344.969 558.24C336.536 562.621 328.291 566.1 320.356 568.633C318.373 569.268 316.411 569.842 314.468 570.356V568.988H278.272L278.281 564.041Z" fill="#A7ABFB"/>
<path d="M278.281 562.333V400.176H277.619C277.994 399.526 278.372 398.875 278.753 398.224C280.277 395.611 281.845 393.002 283.459 390.397C289.914 379.958 297.073 369.514 304.913 359.204C308.834 354.049 312.83 349.054 316.902 344.218C318.931 341.799 320.976 339.421 323.037 337.085C324.065 335.919 325.097 334.761 326.133 333.613V334.842H386.66V528.874H386.891C385.815 529.75 384.739 530.613 383.663 531.463C379.36 534.867 375.056 538.074 370.753 541.083C362.622 546.817 354.122 552.008 345.307 556.622C336.971 560.945 328.816 564.392 320.973 566.9C317.187 568.118 313.339 569.135 309.446 569.948V569.002H278.281V562.333Z" fill="#A8ABFB"/>
<path d="M278.281 560.636V402.251H277.629C278.359 400.965 279.101 399.677 279.856 398.387C281.362 395.81 282.913 393.231 284.508 390.65C290.885 380.331 297.965 370.007 305.719 359.812C309.593 354.716 313.542 349.776 317.564 344.993C319.562 342.603 321.582 340.253 323.625 337.943C324.642 336.787 325.663 335.642 326.687 334.508V334.835H386.661V527.55H386.767C385.702 528.416 384.637 529.269 383.571 530.109C379.314 533.475 375.061 536.646 370.813 539.622C362.775 545.29 354.371 550.422 345.656 554.983C329.172 563.532 313.416 568.615 299.372 569.738C292.347 570.293 285.751 569.855 279.706 568.355C278.95 568.169 278.202 567.966 277.463 567.746H278.281V560.636Z" fill="#A9ACFA"/>
<path d="M278.281 558.94V404.287H277.679C278.034 403.651 278.393 403.015 278.756 402.379C279.477 401.106 280.21 399.833 280.955 398.558C282.444 396.01 283.981 393.461 285.566 390.911C291.871 380.71 298.869 370.503 306.532 360.426C310.351 355.382 314.25 350.498 318.227 345.775C320.21 343.413 322.208 341.09 324.222 338.806C325.227 337.665 326.236 336.534 327.249 335.412C327.756 334.851 328.263 334.293 328.77 333.738V334.836H386.66V524.941H388.216L386.637 526.234C385.586 527.091 384.534 527.936 383.481 528.77C379.271 532.097 375.067 535.23 370.868 538.172C362.922 543.775 354.615 548.847 346.001 553.356C329.704 561.805 314.131 566.831 300.247 567.929C293.305 568.48 286.783 568.046 280.808 566.568C280.061 566.384 279.322 566.183 278.592 565.967C278.226 565.858 277.864 565.745 277.504 565.628H278.281V558.94Z" fill="#AAADFA"/>
<path d="M278.281 557.243V406.274H277.771C280.538 401.252 283.481 396.217 286.601 391.169C292.826 381.085 299.742 370.999 307.325 361.039C311.11 356.061 314.967 351.234 318.893 346.559C320.855 344.224 322.83 341.928 324.818 339.67C325.814 338.54 326.813 337.422 327.816 336.315C328.315 335.762 328.816 335.21 329.319 334.66V334.838H386.66V523.654H388.069C387.551 524.082 387.031 524.507 386.51 524.929C385.468 525.776 384.428 526.611 383.389 527.433C379.23 530.721 375.074 533.818 370.923 536.724C363.069 542.262 354.859 547.276 346.345 551.732C330.243 560.074 314.845 565.04 301.123 566.116C294.262 566.658 287.818 566.232 281.909 564.772C280.431 564.408 278.988 563.978 277.582 563.483H278.274L278.281 557.243Z" fill="#ABADF9"/>
<path d="M278.281 555.542V410.068H276.897C277.56 408.83 278.233 407.591 278.917 406.349C281.656 401.386 284.565 396.41 287.645 391.421C293.803 381.457 300.639 371.488 308.123 361.649C315.606 351.809 323.394 342.555 331.35 333.953V334.827H386.66V522.329H387.924C387.409 522.754 386.895 523.174 386.381 523.591C385.353 524.428 384.325 525.253 383.299 526.064C379.186 529.313 375.079 532.374 370.978 535.247C363.217 540.719 355.104 545.674 346.69 550.078C330.771 558.331 315.567 563.24 301.999 564.314C295.219 564.849 288.858 564.427 283.012 562.984C281.551 562.624 280.126 562.2 278.735 561.711C278.039 561.464 277.352 561.203 276.674 560.927H278.288L278.281 555.542Z" fill="#ACAEF9"/>
<path d="M278.28 553.847V410.104H278.075C278.73 408.882 279.396 407.657 280.074 406.429C282.779 401.525 285.653 396.607 288.696 391.674C294.781 381.828 301.535 371.979 308.931 362.254C316.327 352.53 324.018 343.407 331.878 334.903C332.369 334.369 332.861 333.841 333.353 333.316V334.836H386.66V521.036H387.776C387.268 521.455 386.76 521.871 386.252 522.283C385.237 523.108 384.222 523.923 383.206 524.727C379.144 527.936 375.086 530.96 371.033 533.799C363.365 539.207 355.348 544.103 347.034 548.454C331.306 556.611 316.277 561.46 302.875 562.518C296.175 563.048 289.884 562.631 284.115 561.206C282.672 560.848 281.263 560.427 279.887 559.945C279.2 559.705 278.522 559.448 277.852 559.173H278.28V553.847Z" fill="#ADAEF8"/>
<path d="M278.281 552.152V413.765H277.343C278.596 411.353 279.89 408.935 281.225 406.51C283.898 401.667 286.741 396.81 289.755 391.939C295.768 382.212 302.435 372.481 309.748 362.874C317.061 353.267 324.649 344.237 332.416 335.845C332.903 335.319 333.389 334.797 333.875 334.277V334.838H386.67V519.735H387.64C387.138 520.15 386.636 520.561 386.135 520.968C385.133 521.785 384.129 522.589 383.124 523.382C379.11 526.555 375.101 529.542 371.099 532.346C363.523 537.688 355.602 542.524 347.39 546.824C331.851 554.893 317.001 559.672 303.763 560.721C297.142 561.245 290.927 560.832 285.228 559.423C282.424 558.738 279.695 557.778 277.08 556.558H278.29L278.281 552.152Z" fill="#AEAFF8"/>
<path d="M278.28 550.453V417.322H276.717C277.315 416.134 277.923 414.944 278.54 413.753C279.77 411.369 281.048 408.981 282.374 406.588C285.013 401.8 287.818 397.002 290.789 392.192C296.728 382.583 303.319 372.972 310.538 363.483C317.756 353.993 325.258 345.071 332.931 336.783C333.89 335.746 334.851 334.719 335.815 333.703V334.835H386.659V518.432H387.482C386.987 518.841 386.492 519.247 385.995 519.65C385.006 520.455 384.015 521.25 383.024 522.033C379.058 525.167 375.098 528.119 371.144 530.889C363.659 536.163 355.835 540.938 347.722 545.182C332.373 553.141 317.705 557.862 304.629 558.909C298.091 559.426 291.949 559.02 286.319 557.627C283.55 556.951 280.855 556.002 278.273 554.796L278.28 550.453Z" fill="#AFB0F7"/>
<path d="M278.281 548.755V417.268H277.94C278.53 416.094 279.13 414.919 279.741 413.743C280.962 411.388 282.225 409.029 283.528 406.665C286.141 401.937 288.908 397.198 291.828 392.447C297.693 382.958 304.204 373.464 311.332 364.09C318.461 354.716 325.868 345.907 333.446 337.721C334.393 336.697 335.343 335.683 336.296 334.68V334.832H386.661V517.129H387.338C386.847 517.533 386.357 517.933 385.87 518.33C384.891 519.128 383.912 519.913 382.933 520.686C379.018 523.78 375.107 526.695 371.2 529.431C363.809 534.644 356.081 539.363 348.067 543.556C332.909 551.418 318.421 556.091 305.506 557.115C299.051 557.624 292.983 557.223 287.422 555.849C284.688 555.179 282.026 554.243 279.475 553.052C278.845 552.757 278.226 552.45 277.617 552.13H278.281V548.755Z" fill="#B0B0F7"/>
<path d="M278.281 547.057V420.686H277.449C286.44 402.196 298.066 383.218 312.146 364.705C319.184 355.448 326.502 346.75 333.985 338.665C334.921 337.652 335.86 336.653 336.8 335.668L338.211 334.188V334.842H386.66V515.827H387.188C386.707 516.227 386.224 516.623 385.738 517.015C384.771 517.802 383.805 518.577 382.838 519.341C378.976 522.396 375.115 525.275 371.255 527.977C363.956 533.124 356.326 537.783 348.413 541.925C333.444 549.688 319.134 554.303 306.382 555.313C300.005 555.818 294.016 555.421 288.524 554.063C285.827 553.401 283.201 552.474 280.686 551.297C279.447 550.715 278.24 550.07 277.068 549.362H278.29L278.281 547.057Z" fill="#B1B1F6"/>
<path d="M278.281 545.365V424.006H277.055C277.59 422.868 278.134 421.73 278.687 420.589C287.561 402.339 299.049 383.594 312.953 365.309C319.902 356.17 327.127 347.58 334.516 339.599C336.36 337.6 338.217 335.643 340.086 333.727V334.829H386.656V514.527H387.041C386.564 514.919 386.087 515.311 385.609 515.698C384.655 516.475 383.7 517.243 382.746 518.004C378.928 521.021 375.115 523.864 371.306 526.534C364.101 531.612 356.568 536.208 348.757 540.293C333.976 547.959 319.853 552.512 307.258 553.512C300.962 554.01 295.04 553.616 289.629 552.277C286.962 551.626 284.367 550.713 281.88 549.552C280.657 548.977 279.464 548.34 278.307 547.643C278.019 547.468 277.732 547.288 277.447 547.106H278.281V545.365Z" fill="#B2B1F6"/>
<path d="M278.28 543.666V427.226H276.756C277.77 424.99 278.825 422.746 279.919 420.494C288.68 402.477 300.02 383.971 313.742 365.929C320.603 356.908 327.736 348.428 335.029 340.548C336.853 338.576 338.687 336.644 340.529 334.75V334.838H386.659V513.227H386.89C386.429 513.614 385.949 514.001 385.476 514.379C384.536 515.148 383.594 515.903 382.65 516.646C378.881 519.624 375.116 522.43 371.353 525.063C364.24 530.083 356.802 534.626 349.089 538.665C334.498 546.232 320.555 550.732 308.122 551.714C301.897 552.205 296.069 551.818 290.718 550.497C288.085 549.853 285.523 548.951 283.068 547.804C281.861 547.239 280.684 546.61 279.543 545.92C278.971 545.575 278.41 545.214 277.858 544.839H278.268L278.28 543.666Z" fill="#B3B2F5"/>
<path d="M278.281 541.968V427.039H278.051C279.051 424.835 280.092 422.621 281.174 420.397C289.82 402.615 301.013 384.349 314.557 366.539C321.329 357.636 328.367 349.267 335.567 341.488C337.367 339.542 339.176 337.635 340.994 335.766C341.455 335.305 341.916 334.844 342.359 334.383V334.844H386.66V510.773H388.145C386.287 512.318 384.431 513.828 382.578 515.303C378.857 518.244 375.141 521.01 371.431 523.603C364.409 528.554 357.067 533.036 349.455 537.021C320.653 551.958 294.405 554.784 277.541 541.959L278.281 541.968Z" fill="#B5B3F5"/>
<path d="M278.832 540.269C278.314 539.873 277.804 539.464 277.309 539.045H278.291V430.11H277.894C278.366 429.022 278.846 427.94 279.335 426.864C280.325 424.687 281.352 422.502 282.417 420.307C290.948 402.76 301.995 384.734 315.36 367.159C322.046 358.373 328.99 350.113 336.095 342.438C337.871 340.52 339.656 338.638 341.451 336.792C342.347 335.87 343.246 334.956 344.148 334.051V334.846H386.661V509.477H387.982C386.147 511.014 384.312 512.507 382.476 513.955C378.806 516.855 375.14 519.588 371.477 522.153C364.548 527.04 357.303 531.464 349.79 535.395C321.366 550.136 295.466 552.926 278.832 540.269Z" fill="#B6B3F5"/>
<path d="M280.113 538.572C279.09 537.795 278.111 536.963 277.178 536.08H278.28V433.088H277.819C279.611 428.833 281.56 424.538 283.665 420.206C292.083 402.892 302.983 385.107 316.172 367.766C322.766 359.095 329.62 350.947 336.628 343.374C338.381 341.481 340.143 339.623 341.915 337.802C342.797 336.893 343.684 335.993 344.575 335.1C345.02 334.655 345.465 334.21 345.91 333.77V334.842H386.659V508.191H387.812C386.001 509.703 384.191 511.176 382.38 512.608C378.761 515.472 375.144 518.167 371.531 520.696C364.694 525.517 357.546 529.882 350.134 533.761C322.088 548.308 296.532 551.059 280.113 538.572Z" fill="#B7B4F4"/>
<path d="M281.404 536.874C280.395 536.108 279.428 535.289 278.508 534.419C278.047 533.985 277.6 533.538 277.164 533.081H278.28V435.95H277.837C278.261 434.907 278.694 433.86 279.135 432.81C280.901 428.613 282.822 424.377 284.899 420.103C293.199 403.022 303.956 385.477 316.963 368.371C323.469 359.817 330.229 351.771 337.145 344.309C340.603 340.574 344.094 336.983 347.619 333.535V334.835H386.659V506.905H387.648C385.864 508.398 384.078 509.85 382.29 511.263C378.717 514.088 375.148 516.748 371.584 519.244C364.839 524 357.787 528.305 350.475 532.132C322.812 546.478 297.602 549.194 281.404 536.874Z" fill="#B8B4F4"/>
<path d="M282.696 535.179C280.707 533.667 278.884 531.947 277.26 530.049H278.281V438.716H277.958C278.754 436.669 279.588 434.61 280.457 432.54C282.2 428.399 284.096 424.221 286.145 420.005C294.334 403.159 304.939 385.857 317.771 368.983C324.187 360.548 330.855 352.614 337.674 345.251C341.086 341.562 344.531 338.02 348.007 334.625V334.837H386.66V505.621H387.486C385.728 507.091 383.966 508.524 382.202 509.918C378.679 512.703 375.159 515.327 371.643 517.789C364.991 522.481 358.037 526.727 350.825 530.501C323.537 544.652 298.671 547.329 282.696 535.179Z" fill="#B9B5F3"/>
<path d="M283.985 533.479C282.025 531.988 280.229 530.292 278.627 528.421C278.223 527.96 277.834 527.476 277.456 526.985H278.281V444.385H277.082C280.058 436.042 283.499 427.873 287.387 419.915C295.456 403.304 305.921 386.239 318.573 369.601C324.902 361.283 331.484 353.462 338.202 346.198C341.565 342.565 344.961 339.072 348.39 335.72C349.247 334.884 350.105 334.055 350.963 333.234V334.848H386.66V504.327H387.322C385.585 505.776 383.848 507.189 382.112 508.564C378.635 511.309 375.164 513.897 371.698 516.327C365.142 520.952 358.288 525.14 351.179 528.861C324.261 542.828 299.74 545.461 283.985 533.479Z" fill="#BAB5F3"/>
<path d="M285.288 531.782C283.349 530.312 281.571 528.641 279.985 526.795C279.195 525.873 278.448 524.908 277.744 523.9H278.275V446.868H277.449C277.778 445.892 278.117 444.913 278.466 443.933C281.402 435.708 284.796 427.654 288.631 419.809C296.594 403.44 306.904 386.61 319.379 370.202C325.603 362.002 332.1 354.294 338.73 347.129C342.046 343.546 345.394 340.103 348.775 336.798C349.619 335.973 350.464 335.156 351.311 334.348V334.834H386.661V503.045H387.157C385.446 504.476 383.734 505.868 382.02 507.222C378.594 509.932 375.172 512.482 371.754 514.874C365.287 519.435 358.526 523.564 351.514 527.233C324.985 540.983 300.81 543.595 285.288 531.782Z" fill="#BBB6F2"/>
<path d="M286.566 530.087C282.73 527.144 279.542 523.441 277.201 519.21H278.28V449.258H277.909C278.524 447.352 279.172 445.431 279.855 443.495C282.748 435.389 286.093 427.451 289.872 419.718C297.722 403.58 307.88 386.981 320.182 370.817C326.328 362.732 332.719 355.14 339.255 348.072C342.524 344.537 345.825 341.142 349.157 337.889C349.988 337.074 350.822 336.269 351.658 335.472C352.075 335.074 352.493 334.679 352.91 334.285V334.836H386.66V501.751H386.992C385.301 503.162 383.61 504.535 381.92 505.869C378.538 508.538 375.165 511.053 371.801 513.412C365.426 517.908 358.761 521.978 351.849 525.594C325.706 539.164 301.886 541.73 286.566 530.087Z" fill="#BCB7F2"/>
<path d="M287.857 528.391C284.08 525.489 280.94 521.84 278.635 517.671C278.037 516.61 277.483 515.511 276.971 514.372H278.287V454.326H277.632C278.685 450.637 279.889 446.879 281.245 443.05C284.095 435.061 287.39 427.237 291.115 419.615C298.849 403.708 308.867 387.362 320.984 371.431C327.043 363.463 333.341 355.985 339.783 349.015C343.01 345.537 346.263 342.192 349.539 338.98C351.181 337.375 352.827 335.805 354.478 334.27V334.839H386.66V500.474H386.828C385.163 501.858 383.5 503.21 381.837 504.532C378.508 507.163 375.183 509.642 371.863 511.967C365.581 516.398 359.012 520.408 352.2 523.972C326.43 537.336 302.946 539.865 287.857 528.391Z" fill="#BDB7F1"/>
<path d="M289.149 526.692C285.424 523.834 282.329 520.237 280.057 516.128C278.854 513.978 277.84 511.727 277.027 509.401H278.282V459.142H277.629C278.073 457.353 278.555 455.549 279.075 453.729C280.114 450.086 281.3 446.382 282.634 442.617C285.443 434.745 288.69 427.037 292.359 419.527C299.98 403.85 309.85 387.749 321.79 372.049C327.759 364.199 333.965 356.819 340.312 349.963C343.484 346.535 346.689 343.239 349.926 340.075C351.541 338.493 353.163 336.947 354.79 335.436C355.196 335.058 355.604 334.682 356.01 334.309V334.846H386.672V499.188C385.036 500.557 383.396 501.89 381.755 503.185C378.477 505.777 375.201 508.218 371.929 510.51C365.741 514.875 359.272 518.827 352.563 522.339C327.155 535.508 304.015 538 289.149 526.692Z" fill="#BEB8F1"/>
<path d="M290.44 524.995C286.771 522.18 283.721 518.639 281.481 514.592C280.298 512.474 279.3 510.257 278.498 507.966C278.083 506.789 277.708 505.577 277.373 504.331H278.281V463.667H277.889C283.708 436.099 299.07 403.58 322.592 372.65C328.473 364.918 334.581 357.649 340.838 350.894C343.964 347.512 347.121 344.265 350.308 341.153C351.902 339.598 353.5 338.074 355.101 336.584C355.901 335.838 356.702 335.102 357.506 334.375V334.836H386.661V496.882H387.71L386.497 497.901C384.883 499.249 383.269 500.561 381.656 501.839C378.428 504.393 375.2 506.798 371.973 509.055C365.876 513.352 359.501 517.242 352.89 520.697C327.879 533.679 305.085 536.144 290.44 524.995Z" fill="#BFB8F0"/>
<path d="M291.742 523.298C284.531 517.813 280.007 509.502 278.004 499.169H278.292V482.249H276.867C277.16 475.74 278.001 469.267 279.38 462.9C285.111 435.748 300.24 403.723 323.414 373.261C334.997 358.029 347.495 344.63 360.175 333.441V334.825H386.687V495.609H387.552C387.156 495.946 386.758 496.28 386.36 496.612C384.76 497.943 383.161 499.237 381.562 500.492C378.381 503.007 375.203 505.375 372.029 507.598C366.025 511.837 359.746 515.674 353.235 519.083C328.602 531.851 306.153 534.267 291.742 523.298Z" fill="#C0B9F0"/>
<path d="M293.02 521.6C285.922 516.201 281.467 508.017 279.494 497.84C277.52 487.664 278.03 475.51 280.852 462.138C286.493 435.395 301.389 403.872 324.194 373.878C335.6 358.881 347.906 345.687 360.39 334.672V334.842H386.661V494.338H387.352C386.96 494.67 386.568 494.998 386.179 495.325C384.613 496.635 383.047 497.908 381.48 499.145C378.348 501.621 375.22 503.954 372.095 506.142C366.182 510.312 360 514.085 353.589 517.439C329.322 530.02 307.222 532.401 293.02 521.6Z" fill="#C1BAEF"/>
<path d="M294.31 519.905C280.332 509.275 276.777 487.682 282.322 461.365C287.866 435.048 302.538 404.01 324.993 374.484C336.221 359.729 348.332 346.733 360.622 335.891C361.39 335.213 362.159 334.544 362.927 333.883V334.837H386.66V493.07H387.158C386.773 493.395 386.388 493.72 386.005 494.04C384.468 495.33 382.927 496.583 381.383 497.801C378.298 500.238 375.218 502.534 372.142 504.689C366.323 508.794 360.239 512.51 353.929 515.811C330.047 528.193 308.29 530.536 294.31 519.905Z" fill="#C2BAEF"/>
<path d="M295.601 518.208C281.844 507.746 278.347 486.494 283.811 460.597C289.275 434.7 303.707 404.152 325.805 375.094C336.855 360.57 348.774 347.786 360.868 337.114C361.624 336.446 362.381 335.786 363.139 335.136C363.517 334.81 363.896 334.488 364.276 334.168V334.837H386.659V490.828H388.109C387.352 491.478 386.594 492.12 385.836 492.753C384.319 494.021 382.802 495.255 381.285 496.454C378.251 498.853 375.22 501.112 372.193 503.232C366.465 507.272 360.476 510.929 354.265 514.178C330.77 526.364 309.357 528.67 295.601 518.208Z" fill="#C3BBEE"/>
<path d="M296.893 516.509C283.358 506.215 279.916 485.307 285.288 459.831C290.659 434.356 304.861 404.295 326.604 375.708C337.474 361.414 349.197 348.84 361.102 338.339C362.59 337.028 364.08 335.748 365.57 334.5V334.839H386.654V489.572H387.903C387.158 490.213 386.412 490.844 385.667 491.467C384.181 492.713 382.69 493.926 381.194 495.105C378.208 497.466 375.226 499.689 372.249 501.775C366.613 505.749 360.721 509.347 354.61 512.543C331.496 524.534 310.429 526.803 296.893 516.509Z" fill="#C4BBEE"/>
<path d="M298.185 514.811C284.871 504.688 281.486 484.123 286.775 459.06C292.064 433.998 306.037 404.435 327.413 376.315C338.106 362.252 349.642 349.888 361.347 339.559C362.81 338.268 364.276 337.01 365.744 335.783C366.477 335.168 367.211 334.564 367.945 333.969V334.836H386.661V488.314H387.71C386.977 488.946 386.244 489.568 385.511 490.179C384.044 491.409 382.576 492.602 381.107 493.76C378.17 496.082 375.237 498.268 372.307 500.319C366.765 504.23 360.969 507.769 354.959 510.912C332.22 522.705 311.499 524.936 298.185 514.811Z" fill="#C5BCEE"/>
<path d="M299.475 513.116C286.383 503.161 283.054 482.94 288.255 458.294C293.456 433.649 307.189 404.577 328.218 376.928C338.733 363.095 350.076 350.941 361.584 340.785C364.462 338.248 367.346 335.836 370.237 333.551V334.837H386.661V487.062H387.509C386.787 487.677 386.066 488.287 385.347 488.895C383.903 490.101 382.459 491.275 381.015 492.415C378.128 494.697 375.244 496.849 372.362 498.87C366.912 502.715 361.212 506.195 355.302 509.286C332.941 520.878 312.566 523.073 299.475 513.116Z" fill="#C6BDED"/>
<path d="M300.766 511.417C287.895 501.631 284.628 481.751 289.737 457.525C294.846 433.299 308.342 404.733 329.02 377.528C339.357 363.926 350.509 351.981 361.822 341.999C364.65 339.501 367.485 337.13 370.329 334.886C371.039 334.325 371.749 333.772 372.459 333.227V334.827H386.661V485.804H387.306C386.599 486.419 385.891 487.02 385.181 487.607C383.763 488.792 382.345 489.944 380.925 491.065C378.084 493.31 375.249 495.424 372.418 497.407C367.059 501.186 361.457 504.606 355.648 507.646C333.665 519.048 313.645 521.206 300.766 511.417Z" fill="#C8BDED"/>
<path d="M302.054 509.722C276.756 490.497 289.192 431.578 329.823 378.149C339.981 364.794 350.939 353.043 362.06 343.233C364.838 340.774 367.624 338.444 370.42 336.243C371.116 335.693 371.813 335.15 372.511 334.613V334.844H386.659V484.551H387.104C386.408 485.147 385.712 485.737 385.016 486.321C383.62 487.486 382.225 488.62 380.831 489.722C378.042 491.929 375.255 494.004 372.472 495.947C367.206 499.662 361.7 503.023 355.99 506.01C334.392 517.221 314.702 519.34 302.054 509.722Z" fill="#C9BEEC"/>
<path d="M303.346 508.017C278.495 489.113 290.71 431.246 330.628 378.753C340.606 365.63 351.378 354.084 362.299 344.448C365.028 342.039 367.766 339.751 370.511 337.582C371.883 336.506 373.253 335.454 374.621 334.426V334.829H386.66V483.294H386.905C386.219 483.881 385.534 484.461 384.85 485.034C383.489 486.178 382.116 487.291 380.733 488.375C377.991 490.542 375.254 492.583 372.521 494.498C367.347 498.147 361.938 501.45 356.327 504.384C335.113 515.395 315.772 517.47 303.346 508.017Z" fill="#CABEEC"/>
<path d="M304.636 506.326C280.229 487.763 292.224 430.924 331.43 379.372C341.233 366.484 351.806 355.146 362.536 345.68C365.219 343.314 367.909 341.067 370.605 338.936C371.951 337.871 373.297 336.838 374.642 335.836C375.315 335.335 375.987 334.841 376.659 334.355V334.837H386.662V482.036H386.704C386.034 482.615 385.362 483.186 384.689 483.747C383.341 484.864 381.994 485.961 380.65 487.036C377.957 489.165 375.267 491.17 372.58 493.051C367.497 496.635 362.183 499.878 356.673 502.762C335.836 513.561 316.842 515.606 304.636 506.326Z" fill="#CBBFEB"/>
<path d="M305.928 504.632C281.963 486.405 293.742 430.599 332.236 379.985C341.859 367.331 352.24 356.2 362.774 346.904C367.817 342.437 373.105 338.256 378.615 334.379V334.84H386.661V479.929H387.491L386.497 480.784C385.838 481.352 385.178 481.911 384.517 482.463C383.198 483.565 381.877 484.641 380.554 485.69C377.912 487.782 375.272 489.75 372.634 491.595C367.645 495.114 362.429 498.299 357.02 501.13C336.559 511.735 317.91 513.743 305.928 504.632Z" fill="#CCBFEB"/>
<path d="M307.219 502.93C283.704 485.045 295.259 430.272 333.04 380.594C342.493 368.174 352.676 357.249 363.011 348.126C367.96 343.741 373.15 339.636 378.557 335.831C379.203 335.379 379.848 334.934 380.494 334.496V334.835H386.658V477.838H388.238C377.898 486.958 367.41 494.278 357.368 499.488C337.282 509.904 318.979 511.875 307.219 502.93Z" fill="#CDC0EA"/>
<path d="M308.51 501.236C285.433 483.687 296.773 429.946 333.842 381.218C343.108 369.032 353.107 358.314 363.251 349.362C368.107 345.061 373.199 341.035 378.504 337.302C379.772 336.413 381.037 335.555 382.301 334.727V334.849H386.66V476.634H388.002C377.858 485.584 367.567 492.772 357.713 497.877C338.006 508.078 320.047 510.01 308.51 501.236Z" fill="#CEC1EA"/>
<path d="M309.799 499.538C287.166 482.326 298.29 429.632 334.644 381.817C343.735 369.865 353.549 359.353 363.488 350.573C368.251 346.355 373.245 342.406 378.448 338.744C380.935 337.003 383.41 335.38 385.874 333.875V334.836H386.66V475.391H387.764C377.814 484.17 367.721 491.213 358.056 496.225C338.73 506.247 321.116 508.144 309.799 499.538Z" fill="#CFC1E9"/>
<path d="M311.09 497.84C288.903 480.964 299.812 429.292 335.45 382.426C344.36 370.71 353.972 360.402 363.726 351.796C368.395 347.66 373.292 343.789 378.394 340.2C380.833 338.492 383.26 336.9 385.674 335.425C386.278 335.056 386.88 334.696 387.479 334.344L386.661 334.835V474.165H387.525C377.773 482.771 367.878 489.676 358.403 494.591C339.466 504.417 322.187 506.278 311.09 497.84Z" fill="#D0C2E9"/>
<path d="M312.38 496.145C290.635 479.608 301.314 428.968 336.251 383.039C344.984 371.556 354.404 361.455 363.962 353.022C368.539 348.969 373.338 345.175 378.337 341.656C380.727 339.982 383.105 338.423 385.472 336.978C386.062 336.616 386.652 336.262 387.243 335.918H386.659V472.943H387.286C377.728 481.378 368.031 488.145 358.745 492.961C340.175 502.591 323.252 504.412 312.38 496.145Z" fill="#D1C2E8"/>
<path d="M313.671 494.446C292.368 478.245 302.835 428.639 337.055 383.648C345.608 372.4 354.837 362.505 364.202 354.244C368.684 350.273 373.384 346.555 378.281 343.109C380.622 341.463 382.952 339.936 385.271 338.528C385.849 338.173 386.427 337.826 387.005 337.488H386.659V471.719H387.049C377.684 479.979 368.186 486.61 359.091 491.327C340.898 500.761 324.322 502.545 313.671 494.446Z" fill="#D2C3E8"/>
<path d="M314.962 492.748C294.104 476.893 304.354 428.315 337.85 384.26C346.226 373.247 355.263 363.557 364.432 355.467C368.823 351.577 373.428 347.936 378.226 344.56C380.517 342.952 382.799 341.456 385.071 340.071C385.638 339.726 386.203 339.387 386.767 339.055H386.659V470.489H386.811C377.642 478.578 368.34 485.068 359.434 489.688C341.622 498.933 325.401 500.681 314.962 492.748Z" fill="#D3C3E8"/>
<path d="M316.254 491.053C295.839 475.528 305.879 427.989 338.663 384.873C346.861 374.095 355.705 364.619 364.677 356.693C368.973 352.888 373.478 349.326 378.171 346.024C380.415 344.453 382.648 342.989 384.869 341.632C385.98 340.954 387.086 340.305 388.186 339.684H386.66V467.77H388.255C387.696 468.277 387.135 468.778 386.572 469.273C377.6 477.19 368.495 483.544 359.781 488.065C342.347 497.105 326.46 498.815 316.254 491.053Z" fill="#D4C4E7"/>
<path d="M317.545 489.353C297.573 474.164 307.401 427.661 339.465 385.481C347.486 374.935 356.138 365.654 364.915 357.914C369.117 354.192 373.524 350.707 378.116 347.477C380.311 345.94 382.495 344.508 384.668 343.18C385.753 342.518 386.834 341.882 387.912 341.273H386.66V466.577H387.979C387.433 467.072 386.885 467.562 386.335 468.046C377.556 475.792 368.652 482.008 360.124 486.429C343.071 495.273 327.53 496.949 317.545 489.353Z" fill="#D5C5E7"/>
<path d="M318.833 487.657C299.308 472.807 308.904 427.334 340.274 386.092C348.112 375.782 356.573 366.712 365.159 359.139C369.268 355.498 373.579 352.091 378.07 348.933C380.221 347.43 382.357 346.03 384.476 344.732C385.538 344.084 386.596 343.462 387.649 342.867H386.669V465.386H387.713C387.178 465.87 386.64 466.349 386.099 466.822C377.516 474.396 368.809 480.473 360.47 484.805C343.792 493.446 328.597 495.083 318.833 487.657Z" fill="#D6C5E6"/>
<path d="M320.124 485.961C301.042 471.448 310.416 427.01 341.079 386.704C348.74 376.629 357.007 367.764 365.397 360.364C369.412 356.806 373.623 353.476 378.01 350.388C380.108 348.92 382.195 347.553 384.271 346.285C385.309 345.651 386.342 345.043 387.37 344.461H386.664V464.195H387.434C386.912 464.67 386.388 465.138 385.864 465.601C377.475 473.002 368.965 478.94 360.818 483.166C344.516 491.618 329.667 493.216 320.124 485.961Z" fill="#D7C6E6"/>
<path d="M321.416 484.272C302.776 470.096 311.938 426.691 341.876 387.323C349.362 377.481 357.436 368.824 365.623 361.594C369.545 358.121 373.658 354.869 377.943 351.854C379.99 350.417 382.029 349.08 384.059 347.842C385.072 347.228 386.081 346.634 387.086 346.062H386.653V463.007H387.149C386.638 463.468 386.127 463.929 385.616 464.39C377.422 471.62 369.108 477.42 361.15 481.547C345.24 489.789 330.734 491.352 321.416 484.272Z" fill="#D8C6E5"/>
<path d="M322.707 482.564C304.512 468.731 313.455 426.357 342.681 387.925C349.987 378.318 357.869 369.866 365.867 362.809C369.696 359.418 373.712 356.243 377.894 353.299C379.893 351.899 381.883 350.593 383.866 349.38C384.851 348.779 385.836 348.202 386.821 347.648H386.66V461.812H386.89C386.392 462.264 385.893 462.711 385.392 463.152C377.394 470.209 369.281 475.871 361.512 479.901C345.964 487.958 331.804 489.485 322.707 482.564Z" fill="#D9C7E5"/>
<path d="M323.997 480.868C306.245 467.369 314.969 426.03 343.483 388.536C350.611 379.165 358.302 370.918 366.106 364.034C369.841 360.725 373.758 357.628 377.839 354.757C379.789 353.391 381.73 352.117 383.662 350.937C384.628 350.347 385.589 349.782 386.546 349.242C387.026 348.972 387.503 348.707 387.978 348.449H386.659V459.284H388.066C387.093 460.188 386.119 461.069 385.145 461.928C377.341 468.824 369.435 474.339 361.846 478.276C346.687 486.131 332.873 487.618 323.997 480.868Z" fill="#DAC7E4"/>
<path d="M325.289 479.17C307.98 466.008 316.487 425.711 344.288 389.147C350.839 380.48 358.227 372.478 366.345 365.258C369.987 362.032 373.806 359.011 377.784 356.211C379.687 354.879 381.58 353.637 383.463 352.488C384.403 351.913 385.341 351.362 386.275 350.835C386.736 350.572 387.201 350.315 387.67 350.062H386.66V458.126H387.755C386.809 459.007 385.86 459.867 384.908 460.706C377.3 467.417 369.582 472.805 362.193 476.637C347.41 484.302 333.932 485.752 325.289 479.17Z" fill="#DBC8E4"/>
<path d="M326.58 477.475C309.716 464.65 318.004 425.372 345.091 389.762C351.474 381.315 358.673 373.516 366.582 366.477C370.134 363.336 373.858 360.395 377.736 357.668C379.59 356.37 381.434 355.162 383.269 354.041C384.191 353.482 385.104 352.944 386.008 352.427C386.469 352.171 386.916 351.92 387.37 351.676H386.679V456.97H387.463C386.541 457.828 385.618 458.666 384.696 459.483C377.282 466.024 369.761 471.271 362.564 475.006C348.134 482.476 335.011 483.887 326.58 477.475Z" fill="#DCC9E3"/>
<path d="M327.869 475.778C311.449 463.289 319.521 425.058 345.895 390.372C352.11 382.149 359.119 374.557 366.819 367.705C370.275 364.645 373.898 361.78 377.673 359.124C379.478 357.858 381.274 356.68 383.061 355.59C383.953 355.046 384.842 354.523 385.729 354.022C386.171 353.773 386.612 353.529 387.054 353.289H386.66V455.813H387.121C386.23 456.649 385.33 457.464 384.421 458.259C377.215 464.626 369.897 469.747 362.879 473.373C348.858 480.645 336.081 482.021 327.869 475.778Z" fill="#DDC9E3"/>
<path d="M329.159 474.081C313.183 461.931 321.035 424.726 346.697 390.983C359.522 374.11 374.383 361.298 388.027 354.223H386.66V454.655H386.821C385.948 455.467 385.072 456.26 384.193 457.034C377.17 463.231 370.047 468.204 363.213 471.741C349.581 478.816 337.159 480.156 329.159 474.081Z" fill="#DECAE3"/>
<path d="M330.45 472.382C314.918 460.569 322.551 424.399 347.51 391.592C359.983 375.189 374.417 362.733 387.681 355.855H386.659V452.297H387.782C387.358 452.701 386.934 453.101 386.509 453.496C385.661 454.285 384.809 455.053 383.955 455.802C377.126 461.828 370.201 466.66 363.568 470.095C350.3 476.986 338.217 478.287 330.45 472.382Z" fill="#DFCAE2"/>
<path d="M331.742 470.686C316.653 459.212 324.07 424.074 348.305 392.206C360.425 376.271 374.453 364.172 387.338 357.488H386.661V451.175H387.438C387.024 451.568 386.611 451.953 386.2 452.328C385.374 453.096 384.547 453.846 383.719 454.578C377.086 460.429 370.347 465.125 363.915 468.466C351.028 475.161 339.286 476.434 331.742 470.686Z" fill="#E0CBE2"/>
<path d="M333.032 468.986C318.386 457.848 325.586 423.746 349.108 392.814C360.866 377.349 374.487 365.609 386.994 359.117H386.66V450.049H387.088C386.69 450.429 386.288 450.807 385.887 451.179C385.087 451.924 384.283 452.652 383.478 453.362C377.041 459.043 370.51 463.6 364.258 466.842C351.75 473.327 340.355 474.556 333.032 468.986Z" fill="#E1CBE1"/>
<path d="M334.324 467.292C320.122 456.493 327.101 423.422 349.913 393.437C361.319 378.451 374.522 367.051 386.649 360.762C387.03 360.565 387.408 360.373 387.783 360.188H386.66V447.818H387.9C386.363 449.327 384.81 450.771 383.241 452.15C377 457.657 370.667 462.077 364.602 465.222C352.475 471.502 341.425 472.691 334.324 467.292Z" fill="#E2CCE1"/>
<path d="M335.612 465.597C321.855 455.132 328.628 423.096 350.715 394.038C361.765 379.513 374.555 368.477 386.304 362.384C386.671 362.193 387.037 362.008 387.401 361.828H386.659V446.72H387.517C386.021 448.183 384.517 449.581 383.003 450.915C376.955 456.253 370.818 460.525 364.946 463.579C353.198 469.673 342.491 470.825 335.612 465.597Z" fill="#E3CCE0"/>
<path d="M336.903 463.899C323.592 453.774 330.135 422.77 351.52 394.65C362.213 380.587 374.591 369.913 385.959 364.018C386.672 363.649 387.379 363.299 388.08 362.969H386.66V445.633H387.121C385.676 447.049 384.221 448.403 382.754 449.695C376.901 454.857 370.964 459 365.279 461.949C353.922 467.846 343.562 468.962 336.903 463.899Z" fill="#E4CDE0"/>
<path d="M338.194 462.2C325.325 452.411 331.649 422.442 352.322 395.258C362.657 381.656 374.625 371.346 385.615 365.647C386.302 365.289 386.985 364.951 387.665 364.633H386.659V444.542H386.749C385.349 445.91 383.942 447.216 382.528 448.461C376.87 453.453 371.13 457.453 365.636 460.307C354.644 466.015 344.629 467.092 338.194 462.2Z" fill="#E5CEDF"/>
<path d="M339.486 460.503C327.06 451.051 333.167 422.117 353.128 395.872C363.106 382.749 374.66 372.785 385.272 367.285C385.933 366.94 386.592 366.614 387.248 366.305H386.66V442.454H387.377C387.041 442.793 386.704 443.125 386.368 443.457C385.017 444.779 383.657 446.042 382.289 447.247C376.828 452.065 371.281 455.934 365.978 458.682C355.373 464.187 345.69 465.229 339.486 460.503Z" fill="#E6CEDF"/>
<path d="M340.777 458.806C328.789 449.695 334.684 421.792 353.918 396.483C363.541 383.83 374.683 374.221 384.915 368.914C385.556 368.582 386.191 368.267 386.821 367.969H386.649V440.415H387.917C387.271 441.079 386.622 441.73 385.971 442.368C384.669 443.641 383.362 444.859 382.051 446.022C376.783 450.67 371.446 454.398 366.326 457.051C356.092 462.37 346.769 463.364 340.777 458.806Z" fill="#E7CFDF"/>
<path d="M342.068 457.107C330.541 448.332 336.201 421.462 354.734 397.091C364 384.905 374.739 375.653 384.583 370.544C385.812 369.906 387.029 369.333 388.232 368.824H386.66V439.396H387.474C386.851 440.037 386.227 440.664 385.6 441.278C384.345 442.507 383.084 443.68 381.814 444.796C376.742 449.273 371.596 452.865 366.67 455.417C356.816 460.524 347.836 461.494 342.068 457.107Z" fill="#E8CFDE"/>
<path d="M343.36 455.41C332.264 446.972 337.716 421.137 355.537 397.702C364.448 385.986 374.765 377.089 384.238 372.176C385.423 371.562 386.593 371.011 387.747 370.523H386.661V438.391H387.018C386.422 439.006 385.822 439.609 385.218 440.199C384.01 441.376 382.796 442.504 381.577 443.583C376.699 447.885 371.752 451.339 367.014 453.794C357.541 458.7 348.918 459.629 343.36 455.41Z" fill="#E9D0DE"/>
<path d="M344.649 453.716C334 445.614 339.235 420.812 356.342 398.316C364.895 387.07 374.799 378.528 383.894 373.811C385.03 373.221 386.153 372.691 387.263 372.223H386.661V436.473H387.419C387.134 436.773 386.848 437.073 386.56 437.368C385.985 437.958 385.408 438.537 384.83 439.104C383.673 440.235 382.508 441.318 381.335 442.352C376.655 446.484 371.904 449.797 367.357 452.155C358.265 456.872 349.974 457.76 344.649 453.716Z" fill="#EAD0DD"/>
<path d="M345.939 452.019C335.733 444.257 340.75 420.487 357.144 398.929C365.342 388.149 374.834 379.964 383.548 375.443C384.64 374.878 385.715 374.371 386.776 373.922H386.658V434.62H387.746C385.641 436.899 383.422 439.072 381.098 441.128C376.611 445.087 372.06 448.264 367.701 450.523C358.986 455.044 351.044 455.899 345.939 452.019Z" fill="#EBD1DD"/>
<path d="M347.229 450.319C337.466 442.893 342.266 420.156 357.947 399.536C365.786 389.224 374.867 381.395 383.204 377.072C384.246 376.531 385.275 376.046 386.291 375.617C386.8 375.403 387.303 375.202 387.803 375.016H386.65V433.676H387.213C385.199 435.857 383.076 437.934 380.852 439.9C376.559 443.688 372.207 446.727 368.038 448.892C359.709 453.212 352.112 454.03 347.229 450.319Z" fill="#ECD1DC"/>
<path d="M348.521 448.622C339.202 441.535 343.781 419.834 358.75 400.15C366.236 390.308 374.9 382.833 382.861 378.709C383.854 378.193 384.836 377.731 385.807 377.326C386.291 377.12 386.773 376.931 387.25 376.754H386.66V432.737H386.695C384.772 434.819 382.746 436.802 380.625 438.681C376.528 442.293 372.371 445.194 368.392 447.257C360.445 451.386 353.18 452.165 348.521 448.622Z" fill="#EDD2DC"/>
<path d="M349.811 446.924C340.935 440.173 345.297 419.505 359.554 400.759C366.682 391.385 374.934 384.269 382.514 380.338C384.29 379.405 386.14 378.623 388.047 378H386.664V430.235H387.586C387.125 430.765 386.654 431.286 386.173 431.798C384.343 433.781 382.413 435.67 380.391 437.458C376.49 440.9 372.531 443.662 368.741 445.628C361.156 449.559 354.249 450.301 349.811 446.924Z" fill="#EED2DC"/>
<path d="M351.103 445.227C342.67 438.816 346.815 419.176 360.36 401.371C367.131 392.465 374.969 385.693 382.171 381.97C383.855 381.084 385.61 380.342 387.419 379.75H386.653V429.368H386.976C386.53 429.872 386.083 430.368 385.634 430.855C383.894 432.738 382.061 434.533 380.14 436.231C376.435 439.5 372.675 442.126 369.074 443.994C361.881 447.726 355.317 448.434 351.103 445.227Z" fill="#EFD3DB"/>
<path d="M352.394 443.531C344.406 437.456 348.332 418.862 361.155 401.982C367.571 393.546 374.988 387.139 381.819 383.603C383.416 382.763 385.081 382.059 386.796 381.5H386.654V427.047H387.649C386.82 428.038 385.974 428.994 385.113 429.915C383.466 431.699 381.73 433.399 379.91 435.007C376.399 438.106 372.837 440.591 369.425 442.362C362.603 445.898 356.388 446.567 352.394 443.531Z" fill="#F0D4DB"/>
<path d="M353.684 441.835C346.152 436.088 349.84 418.53 361.967 402.594C368.026 394.627 375.039 388.577 381.483 385.237C382.991 384.443 384.563 383.778 386.184 383.249C386.562 383.129 386.937 383.019 387.309 382.922H386.661V426.264H386.972C386.188 427.199 385.394 428.101 384.588 428.971C383.031 430.656 381.391 432.262 379.673 433.783C376.355 436.71 372.987 439.057 369.771 440.729C363.327 444.072 357.448 444.703 353.684 441.835Z" fill="#F1D4DA"/>
<path d="M354.973 440.138C347.872 434.736 351.363 418.202 362.768 403.205C368.472 395.705 375.072 390.013 381.138 386.868C382.561 386.121 384.045 385.496 385.574 384.999C386.255 384.778 386.948 384.593 387.648 384.445H386.652V424.145H387.395C387.034 424.606 386.668 425.054 386.297 425.487C385.56 426.366 384.811 427.215 384.052 428.035C382.535 429.671 380.986 431.184 379.427 432.562C376.306 435.315 373.138 437.526 370.106 439.098C364.05 442.243 358.524 442.838 354.973 440.138Z" fill="#F2D5DA"/>
<path d="M356.264 438.439C349.608 433.378 352.88 417.874 363.573 403.811C368.919 396.782 375.1 391.442 380.792 388.496C382.123 387.796 383.512 387.21 384.942 386.744C385.587 386.536 386.243 386.362 386.906 386.223H386.662V422.149H387.681C376.986 436.21 362.92 443.502 356.264 438.439Z" fill="#F3D5D9"/>
<path d="M357.556 436.743C351.331 432.02 354.395 417.55 364.376 404.428C369.367 397.867 375.142 392.884 380.449 390.134C383.101 388.751 385.637 387.942 387.896 387.762H386.66V421.539H386.875C376.897 434.662 363.769 441.47 357.556 436.743Z" fill="#F4D6D9"/>
<path d="M358.848 435.043C353.084 430.663 355.913 417.222 365.181 405.035C369.815 398.944 375.177 394.317 380.104 391.76C382.569 390.483 384.922 389.725 387.02 389.559H386.661V418.628H387.735C387.205 419.396 386.652 420.164 386.073 420.934C376.814 433.109 364.616 439.43 358.848 435.043Z" fill="#F5D6D9"/>
<path d="M360.138 433.35C354.813 429.299 357.429 416.898 365.978 405.657C370.257 400.034 375.2 395.762 379.755 393.403C382.028 392.225 384.203 391.524 386.139 391.37C386.607 391.335 387.077 391.335 387.545 391.37H386.656V416.063H388.189C387.31 417.486 386.333 418.911 385.263 420.317C376.714 431.565 365.464 437.4 360.138 433.35Z" fill="#F5D7D8"/>
<path d="M361.426 431.653C356.546 427.939 358.946 416.573 366.787 406.261C370.706 401.106 375.245 397.191 379.414 395.028C381.5 393.949 383.492 393.306 385.267 393.166C386.099 393.089 386.939 393.147 387.752 393.339H386.66V415.801H387.146C386.339 417.105 385.445 418.41 384.465 419.699C376.624 430.016 366.309 435.365 361.426 431.653Z" fill="#F6D7D8"/>
<path d="M362.717 429.952C358.279 426.577 360.46 416.242 367.589 406.868C371.153 402.183 375.279 398.623 379.07 396.657C380.965 395.675 382.775 395.091 384.391 394.962C385.147 394.894 385.91 394.948 386.65 395.121C386.992 395.205 387.325 395.322 387.644 395.472H386.659V412.004H388.042C386.813 414.504 385.341 416.878 383.648 419.091C376.531 428.463 367.155 433.318 362.717 429.952Z" fill="#F7D8D7"/>
<path d="M364.008 428.246C360.015 425.21 361.977 415.91 368.389 407.474C374.8 399.039 383.243 394.661 387.236 397.699H386.655V412.108H386.805C385.699 414.359 384.376 416.495 382.853 418.487C376.442 426.916 368.004 431.292 364.008 428.246Z" fill="#F8D8D7"/>
<path d="M365.3 426.557C361.75 423.858 363.495 415.59 369.196 408.093C374.898 400.596 382.402 396.704 385.952 399.404C387.728 400.752 388.177 403.496 387.472 406.837C386.766 410.177 384.906 414.12 382.054 417.873C376.352 425.368 368.851 429.257 365.3 426.557Z" fill="#F9D9D7"/>
<path d="M381.247 417.248C386.236 410.686 387.763 403.452 384.656 401.09C381.55 398.728 374.987 402.132 369.997 408.693C365.008 415.255 363.481 422.489 366.588 424.851C369.694 427.214 376.257 423.809 381.247 417.248Z" fill="#FAD9D6"/>
<path d="M381.935 416.424C386.245 410.772 387.57 404.536 384.894 402.495C382.218 400.455 376.555 403.383 372.245 409.035C367.935 414.687 366.611 420.924 369.287 422.964C371.962 425.004 377.626 422.076 381.935 416.424Z" fill="#FBDAD6"/>
<path d="M379.637 416.022C383.201 411.336 384.292 406.169 382.073 404.482C379.854 402.795 375.167 405.226 371.603 409.913C368.039 414.599 366.949 419.766 369.168 421.453C371.386 423.14 376.074 420.709 379.637 416.022Z" fill="#FCDAD5"/>
<path d="M378.836 415.414C381.687 411.665 382.559 407.531 380.783 406.181C379.007 404.831 375.257 406.775 372.406 410.524C369.555 414.273 368.684 418.407 370.459 419.757C372.235 421.108 375.986 419.163 378.836 415.414Z" fill="#FDDBD5"/>
<path d="M378.033 414.801C380.172 411.989 380.826 408.888 379.494 407.875C378.162 406.862 375.349 408.322 373.21 411.134C371.072 413.947 370.418 417.048 371.749 418.06C373.081 419.073 375.894 417.614 378.033 414.801Z" fill="#FDDBD5"/>
<path d="M373.044 416.376C372.157 415.702 372.583 413.634 374.019 411.765C375.456 409.895 377.321 408.917 378.208 409.593C379.096 410.268 378.669 412.334 377.233 414.204C375.797 416.074 373.932 417.051 373.044 416.376Z" fill="#FEDCD4"/>
<path d="M374.335 414.678C373.89 414.341 374.105 413.308 374.822 412.372C375.539 411.436 376.472 410.95 376.917 411.286C377.362 411.623 377.148 412.67 376.428 413.592C375.709 414.514 374.778 415.017 374.335 414.678Z" fill="#FFDCD4"/>
</g>
<path d="M338.719 338.524H326.223C325.917 338.524 325.624 338.403 325.408 338.187C325.192 337.97 325.07 337.677 325.07 337.371C325.07 337.066 325.192 336.773 325.408 336.556C325.624 336.34 325.917 336.219 326.223 336.219H338.719C339.024 336.219 339.318 336.34 339.534 336.556C339.75 336.773 339.871 337.066 339.871 337.371C339.871 337.677 339.75 337.97 339.534 338.187C339.318 338.403 339.024 338.524 338.719 338.524Z" fill="url(#paint4_linear_43_8986)"/>
<path d="M346.995 338.806C347.787 338.013 347.787 336.729 346.995 335.937C346.203 335.144 344.918 335.144 344.126 335.937C343.334 336.729 343.334 338.013 344.126 338.806C344.918 339.598 346.203 339.598 346.995 338.806Z" fill="url(#paint5_linear_43_8986)"/>
<path d="M347.042 337.371C347.042 337.663 346.955 337.95 346.793 338.193C346.63 338.436 346.399 338.626 346.129 338.738C345.858 338.85 345.56 338.88 345.273 338.822C344.986 338.765 344.723 338.624 344.516 338.417C344.309 338.21 344.168 337.947 344.11 337.659C344.053 337.372 344.083 337.075 344.195 336.804C344.307 336.534 344.496 336.303 344.74 336.14C344.983 335.977 345.269 335.891 345.562 335.891C345.757 335.89 345.949 335.928 346.129 336.003C346.309 336.077 346.472 336.186 346.609 336.323C346.747 336.461 346.856 336.624 346.93 336.804C347.004 336.984 347.043 337.176 347.042 337.371Z" fill="url(#paint6_linear_43_8986)"/>
<path d="M346.784 337.37C346.784 337.612 346.712 337.848 346.578 338.049C346.443 338.25 346.253 338.407 346.029 338.499C345.806 338.592 345.56 338.616 345.323 338.569C345.086 338.522 344.869 338.405 344.698 338.234C344.527 338.063 344.41 337.846 344.363 337.609C344.316 337.372 344.34 337.126 344.433 336.903C344.525 336.679 344.682 336.489 344.883 336.354C345.084 336.22 345.32 336.148 345.562 336.148C345.886 336.148 346.197 336.277 346.426 336.506C346.655 336.735 346.784 337.046 346.784 337.37Z" fill="url(#paint7_radial_43_8986)"/>
<path d="M346.429 336.951C346.429 337.32 346.039 337.62 345.562 337.62C345.085 337.62 344.695 337.32 344.695 336.951C344.695 336.583 345.083 336.285 345.562 336.285C346.042 336.285 346.429 336.571 346.429 336.951Z" fill="url(#paint8_linear_43_8986)"/>
<path d="M393.582 351.613H391.604V353.757H393.582V351.613Z" fill="#353535"/>
<path d="M271.36 353.758H273.338V351.614H271.36V353.758Z" fill="#353535"/>
<path d="M393.582 549.082H391.604V551.226H393.582V549.082Z" fill="#353535"/>
<path d="M271.36 551.223H273.338V549.079H271.36V551.223Z" fill="#353535"/>
<path d="M338.719 338.346H326.223C325.932 338.347 325.651 338.238 325.437 338.04C325.224 337.843 325.092 337.572 325.07 337.281C325.07 337.311 325.07 337.341 325.07 337.371C325.07 337.677 325.192 337.97 325.408 338.186C325.624 338.402 325.917 338.524 326.223 338.524H338.719C339.024 338.524 339.318 338.402 339.534 338.186C339.75 337.97 339.871 337.677 339.871 337.371C339.871 337.341 339.871 337.311 339.871 337.281C339.849 337.572 339.718 337.843 339.504 338.04C339.29 338.238 339.01 338.347 338.719 338.346Z" fill="#4E4E4E"/>
<path d="M375.23 331.613H289.714C285.829 331.618 282.105 333.162 279.358 335.909C276.611 338.656 275.065 342.38 275.061 346.264V347.286C275.065 343.401 276.611 339.677 279.358 336.93C282.105 334.184 285.829 332.639 289.714 332.635H375.23C379.115 332.639 382.839 334.184 385.586 336.93C388.333 339.677 389.879 343.401 389.884 347.286V346.264C389.879 342.38 388.333 338.656 385.586 335.909C382.839 333.162 379.115 331.618 375.23 331.613Z" fill="url(#paint9_linear_43_8986)"/>
<path d="M368.819 332.711H296.133C286.192 332.711 278.133 340.77 278.133 350.711V552.862C278.133 562.803 286.192 570.862 296.133 570.862H368.819C378.76 570.862 386.819 562.803 386.819 552.862V350.711C386.819 340.77 378.76 332.711 368.819 332.711Z" fill="url(#paint10_linear_43_8986)"/>
<path d="M359.298 401.495L380.502 391.701C382.3 390.87 384.421 391.632 385.238 393.401L390.548 404.898L403.298 371.09L369.292 358.88L374.603 370.376C375.42 372.145 374.625 374.254 372.827 375.084C372.73 375.129 372.633 375.168 372.534 375.204L309.474 404.335C297.342 410.194 288.621 420.323 284.333 432.009C280.058 443.66 280.202 456.868 285.781 468.947C287.684 473.066 290.077 476.771 292.855 480.025C295.742 483.406 299.056 486.331 302.681 488.757C304.301 489.846 304.705 492.039 303.586 493.656C303.205 494.205 302.697 494.617 302.129 494.879L302.134 494.889L280.929 504.684C279.132 505.514 277.011 504.752 276.194 502.983L270.883 491.487L258.133 525.294L292.139 537.505L286.829 526.008C286.012 524.239 286.807 522.13 288.605 521.3C288.702 521.255 288.799 521.216 288.897 521.18L352.01 492.023C364.123 486.157 372.829 476.031 377.109 464.349C381.373 452.705 381.225 439.507 375.651 427.438C373.748 423.319 371.356 419.615 368.578 416.361C365.691 412.981 362.377 410.056 358.751 407.629C357.132 406.541 356.728 404.347 357.847 402.731C358.228 402.182 358.735 401.77 359.304 401.507L359.299 401.497L359.298 401.495ZM380.206 399.614L367.649 405.415C369.937 407.339 372.079 409.459 374.047 411.766C377.263 415.532 380.009 419.769 382.161 424.429C388.535 438.228 388.698 453.341 383.807 466.69C378.913 480.049 368.942 491.636 355.059 498.359L294.814 526.191L302.224 542.232C302.603 543.053 302.663 544.019 302.316 544.939C301.623 546.777 299.561 547.73 297.711 547.066L252.271 530.749C250.421 530.085 249.484 528.056 250.178 526.217L267.207 481.062C267.526 480.202 268.177 479.459 269.083 479.04C270.881 478.21 273.001 478.972 273.819 480.741L281.222 496.769L293.779 490.968C291.492 489.044 289.35 486.924 287.381 484.617C284.165 480.851 281.42 476.614 279.267 471.954C272.889 458.145 272.731 443.022 277.631 429.665C282.536 416.3 292.521 404.711 306.421 397.998L366.614 370.192L359.205 354.151C358.826 353.33 358.765 352.364 359.112 351.445C359.805 349.606 361.867 348.653 363.717 349.317L409.157 365.634C411.007 366.298 411.944 368.327 411.251 370.166L394.221 415.321C393.902 416.181 393.251 416.924 392.345 417.343C390.548 418.173 388.427 417.412 387.61 415.642L380.206 399.613L380.206 399.614Z" fill="#5484FF"/>
<path d="M320.409 471.915C323.373 472.937 324.915 476.157 323.854 479.106C322.794 482.054 319.531 483.616 316.568 482.593C316.18 482.461 315.794 482.32 315.413 482.177C306.049 478.624 299.033 471.797 295.203 463.504C291.372 455.211 290.722 445.443 294.088 436.011C294.226 435.627 294.369 435.243 294.52 434.861C298.352 425.14 305.798 417.725 314.735 413.597C323.674 409.468 334.145 408.607 344.031 411.992C344.419 412.124 344.805 412.264 345.186 412.408C354.55 415.96 361.565 422.788 365.396 431.081C369.227 439.374 369.876 449.142 366.51 458.574C366.373 458.959 366.229 459.342 366.079 459.723C364.936 462.643 361.633 464.114 358.7 463.01C355.768 461.906 354.315 458.645 355.458 455.726C355.57 455.44 355.677 455.154 355.779 454.871C358.1 448.368 357.645 441.621 354.996 435.885C352.345 430.148 347.502 425.428 341.048 422.98C340.766 422.872 340.479 422.769 340.189 422.67C335.151 420.945 329.867 420.804 324.915 421.981L335.498 444.891C336.807 447.726 335.541 451.099 332.669 452.426C329.798 453.752 326.408 452.53 325.099 449.695L314.516 426.784C310.41 429.792 307.092 433.906 305.138 438.86C305.027 439.146 304.919 439.432 304.817 439.715C302.497 446.218 302.951 452.964 305.601 458.701C308.251 464.438 313.093 469.158 319.548 471.606C319.83 471.713 320.117 471.816 320.407 471.916L320.409 471.915Z" fill="white"/>
<path d="M298.499 272.582L326.454 288.549C340.541 265.334 370.631 257.436 394.351 270.985C418.071 284.534 426.547 314.466 413.714 338.391L441.668 354.359C463.321 315.002 449.464 265.409 410.313 243.04C371.164 220.678 321.407 233.936 298.499 272.582Z" fill="url(#paint11_radial_43_8986)" fill-opacity="0.2"/>
</g>
<defs>
<linearGradient id="paint0_linear_43_8986" x1="86" y1="-197.863" x2="606.446" y2="94.6173" gradientUnits="userSpaceOnUse">
<stop stop-color="#0A30A3"/>
<stop offset="0.709375" stop-color="#001447"/>
</linearGradient>
<linearGradient id="paint1_linear_43_8986" x1="328.5" y1="715" x2="546.5" y2="502.5" gradientUnits="userSpaceOnUse">
<stop stop-color="#0A30A3" stop-opacity="0.31"/>
<stop offset="1" stop-color="white" stop-opacity="0"/>
</linearGradient>
<radialGradient id="paint2_radial_43_8986" cx="0" cy="0" r="1" gradientUnits="userSpaceOnUse" gradientTransform="translate(242.673 38.1019) rotate(-135) scale(693.635)">
<stop stop-color="#5BC7CE"/>
<stop offset="0.11" stop-color="#4198C0"/>
<stop offset="0.23" stop-color="#296BB3"/>
<stop offset="0.34" stop-color="#184AAA"/>
<stop offset="0.43" stop-color="#0D37A5"/>
<stop offset="0.49" stop-color="#0A30A3"/>
<stop offset="1" stop-color="#00152A"/>
</radialGradient>
<radialGradient id="paint3_radial_43_8986" cx="0" cy="0" r="1" gradientUnits="userSpaceOnUse" gradientTransform="translate(286.48 738.007) scale(259.1)">
<stop stop-color="#E5C33F"/>
<stop offset="0.03" stop-color="#E6BC3D"/>
<stop offset="0.25" stop-color="#F39332"/>
<stop offset="0.42" stop-color="#FC7A2B"/>
<stop offset="0.53" stop-color="#FF7129"/>
<stop offset="0.99" stop-color="#C73A16"/>
</radialGradient>
<linearGradient id="paint4_linear_43_8986" x1="332.471" y1="336.214" x2="332.471" y2="338.524" gradientUnits="userSpaceOnUse">
<stop/>
<stop offset="0.29" stop-color="#030303"/>
<stop offset="0.53" stop-color="#0E0E0D"/>
<stop offset="0.75" stop-color="#1F1F1E"/>
<stop offset="0.96" stop-color="#373736"/>
<stop offset="1" stop-color="#3C3C3B"/>
</linearGradient>
<linearGradient id="paint5_linear_43_8986" x1="345.56" y1="335.342" x2="345.56" y2="339.4" gradientUnits="userSpaceOnUse">
<stop/>
<stop offset="0.29" stop-color="#030303"/>
<stop offset="0.53" stop-color="#0E0E0D"/>
<stop offset="0.75" stop-color="#1F1F1E"/>
<stop offset="0.96" stop-color="#373736"/>
<stop offset="1" stop-color="#3C3C3B"/>
</linearGradient>
<linearGradient id="paint6_linear_43_8986" x1="345.562" y1="334.63" x2="345.562" y2="339.489" gradientUnits="userSpaceOnUse">
<stop/>
<stop offset="0.08"/>
<stop offset="1"/>
</linearGradient>
<radialGradient id="paint7_radial_43_8986" cx="0" cy="0" r="1" gradientUnits="userSpaceOnUse" gradientTransform="translate(345.562 337.37) scale(1.10892)">
<stop stop-color="#009FE3"/>
<stop offset="1" stop-color="#112754"/>
</radialGradient>
<linearGradient id="paint8_linear_43_8986" x1="345.562" y1="335.665" x2="345.562" y2="337.657" gradientUnits="userSpaceOnUse">
<stop stop-color="white"/>
<stop offset="1" stop-color="#112754"/>
</linearGradient>
<linearGradient id="paint9_linear_43_8986" x1="332.471" y1="327.268" x2="332.471" y2="345.25" gradientUnits="userSpaceOnUse">
<stop stop-color="white"/>
<stop offset="1"/>
</linearGradient>
<linearGradient id="paint10_linear_43_8986" x1="278.133" y1="332.711" x2="405.324" y2="343.042" gradientUnits="userSpaceOnUse">
<stop stop-color="#0A30A3"/>
<stop offset="1" stop-color="#001447"/>
</linearGradient>
<radialGradient id="paint11_radial_43_8986" cx="0" cy="0" r="1" gradientUnits="userSpaceOnUse" gradientTransform="translate(446.758 348.272) rotate(119.735) scale(554.088)">
<stop stop-color="#5BC7CE"/>
<stop offset="0.11" stop-color="#4198C0"/>
<stop offset="0.23" stop-color="#296BB3"/>
<stop offset="0.34" stop-color="#184AAA"/>
<stop offset="0.43" stop-color="#0D37A5"/>
<stop offset="0.49" stop-color="#0A30A3"/>
<stop offset="1" stop-color="#00152A"/>
</radialGradient>
<clipPath id="clip0_43_8986">
<rect width="428" height="725" fill="white"/>
</clipPath>
</defs>
</svg>
