<svg width="1440" height="714" viewBox="0 0 1440 714" fill="none" xmlns="http://www.w3.org/2000/svg">
<g clip-path="url(#clip0_42_5965)">
<rect width="1440" height="714" fill="#001447"/>
<rect x="-1" width="1446" height="714" fill="url(#paint0_linear_42_5965)"/>
<path d="M520.88 67.5758C521.179 67.9462 521.121 68.4886 520.75 68.7872L477.3 103.824C476.93 104.123 476.387 104.065 476.089 103.694C475.79 103.324 475.848 102.781 476.218 102.483L519.669 67.446C520.039 67.1473 520.582 67.2055 520.88 67.5758Z" fill="url(#paint1_linear_42_5965)" style="mix-blend-mode:overlay"/>
<path opacity="0.36" d="M109.878 560.122C107.374 557.618 107.374 553.558 109.878 551.057L161.056 499.878C163.56 497.374 167.619 497.374 170.122 499.878C172.626 502.382 172.626 506.442 170.122 508.943L118.941 560.122C116.437 562.626 112.378 562.626 109.875 560.122H109.878Z" fill="url(#paint2_radial_42_5965)"/>
<path d="M1646.33 -113.883C1649.16 -111.061 1649.16 -106.474 1646.33 -103.632L1314.37 228.333C1311.55 231.155 1306.96 231.155 1304.12 228.333C1301.29 225.51 1301.29 220.924 1304.12 218.082L1636.08 -113.883C1638.9 -116.706 1643.49 -116.706 1646.33 -113.883Z" fill="url(#paint3_linear_42_5965)" style="mix-blend-mode:overlay"/>
<path d="M1376.14 206.859C1374.28 204.997 1371.26 204.997 1369.4 206.859C1367.53 208.721 1367.53 211.74 1369.4 213.602C1371.26 215.464 1374.28 215.464 1376.14 213.602C1378 211.74 1378 208.721 1376.14 206.859Z" fill="white" fill-opacity="0.5"/>
<path d="M1406.01 176.988C1404.15 175.126 1401.13 175.126 1399.27 176.988C1397.4 178.85 1397.4 181.869 1399.27 183.731C1401.13 185.593 1404.15 185.593 1406.01 183.731C1407.87 181.869 1407.87 178.85 1406.01 176.988Z" fill="white" fill-opacity="0.5"/>
<path d="M1435.86 147.117C1434 145.255 1430.98 145.255 1429.12 147.117C1427.26 148.979 1427.26 151.998 1429.12 153.86C1430.98 155.722 1434 155.722 1435.86 153.86C1437.72 151.998 1437.72 148.979 1435.86 147.117Z" fill="white" fill-opacity="0.5"/>
<g opacity="0.6">
<path d="M1163.68 527.072L1063 490.677" stroke="#1E6AC6" stroke-opacity="0.6" stroke-width="8.4" stroke-linecap="round"/>
<path d="M1036.15 480.971L1032.79 479.758" stroke="#179F0C" stroke-opacity="0.6" stroke-width="8.4" stroke-linecap="round"/>
<path d="M982.12 609.438L965.339 603.372" stroke="#179F0C" stroke-opacity="0.6" stroke-width="8.4" stroke-linecap="round"/>
<path d="M954.464 496.982L944.395 493.343" stroke="#179F0C" stroke-opacity="0.6" stroke-width="8.4" stroke-linecap="round"/>
<path d="M976.541 561.885L971.746 560.152" stroke="#179F0C" stroke-opacity="0.6" stroke-width="8.4" stroke-linecap="round"/>
<path d="M1085.35 544.297L991.381 510.328" stroke="#1E6AC6" stroke-opacity="0.6" stroke-width="8.4" stroke-linecap="round"/>
<path d="M1060.45 592.215L1003.39 571.591" stroke="#1E6AC6" stroke-opacity="0.6" stroke-width="8.4" stroke-linecap="round"/>
<path d="M1069.38 640.979L1012.32 620.355" stroke="#1E6AC6" stroke-opacity="0.6" stroke-width="8.4" stroke-linecap="round"/>
<path d="M1080.64 631.006C1083.92 637.896 1081.04 646.23 1074.2 649.621C1067.36 653.013 1059.16 650.177 1055.88 643.287C1055.44 642.388 1055.03 641.478 1054.63 640.571C1044.81 618.235 1044.57 594.137 1052.24 572.912C1059.92 551.687 1075.51 533.311 1097.34 522.416C1098.23 521.974 1099.13 521.54 1100.03 521.125C1123.15 510.518 1148.46 510.184 1170.68 518.216C1192.9 526.25 1212.14 542.686 1223.13 565.622C1223.57 566.522 1223.98 567.431 1224.38 568.339C1234.2 590.675 1234.44 614.772 1226.77 635.997C1219.09 657.223 1203.5 675.599 1181.67 686.494C1180.78 686.939 1179.88 687.369 1178.98 687.785C1172.05 690.984 1163.93 687.919 1160.84 680.938C1157.75 673.958 1160.86 665.705 1167.79 662.505C1168.46 662.193 1169.13 661.871 1169.79 661.545C1184.84 654.033 1195.6 641.332 1200.91 626.65C1206.22 611.966 1206.06 595.32 1199.29 579.925C1199 579.251 1198.69 578.575 1198.37 577.904C1192.76 566.215 1184.04 556.904 1173.63 550.49L1152.43 609.127C1149.81 616.383 1141.89 620.171 1134.75 617.59C1127.61 615.01 1123.95 607.036 1126.57 599.781L1147.77 541.144C1135.66 539.418 1123 540.997 1111.22 546.402C1110.54 546.715 1109.87 547.036 1109.21 547.363C1094.16 554.874 1083.4 567.576 1078.1 582.257C1072.79 596.942 1072.94 613.586 1079.71 628.983C1080 629.657 1080.32 630.33 1080.64 631.004L1080.64 631.006Z" fill="#1E6AC6" fill-opacity="0.9"/>
</g>
<path d="M662 594.006C662 591.575 663.98 589.596 666.41 589.596C668.84 589.596 670.82 591.575 670.82 594.006C670.82 596.436 668.84 598.416 666.41 598.416C663.98 598.416 662 596.436 662 594.006Z" stroke="white" stroke-width="1.96" stroke-miterlimit="10"/>
<path d="M681.659 574.347C681.659 571.917 683.639 569.938 686.069 569.938C688.5 569.938 690.479 571.917 690.479 574.347C690.479 576.778 688.5 578.757 686.069 578.757C683.639 578.757 681.659 576.778 681.659 574.347Z" stroke="white" stroke-width="1.96" stroke-miterlimit="10"/>
<path d="M705.708 559.119C708.143 559.119 710.118 557.144 710.118 554.709C710.118 552.273 708.143 550.299 705.708 550.299C703.272 550.299 701.298 552.273 701.298 554.709C701.298 557.144 703.272 559.119 705.708 559.119Z" stroke="white" stroke-width="1.96" stroke-miterlimit="10"/>
<path d="M725.347 539.459C727.783 539.459 729.757 537.484 729.757 535.049C729.757 532.613 727.783 530.639 725.347 530.639C722.912 530.639 720.938 532.613 720.938 535.049C720.938 537.484 722.912 539.459 725.347 539.459Z" stroke="white" stroke-width="1.96" stroke-miterlimit="10"/>
<path d="M745.006 519.82C747.441 519.82 749.416 517.846 749.416 515.41C749.416 512.974 747.441 511 745.006 511C742.57 511 740.596 512.974 740.596 515.41C740.596 517.846 742.57 519.82 745.006 519.82Z" stroke="white" stroke-width="1.96" stroke-miterlimit="10"/>
<path d="M227.95 377.237C227.95 377.237 220.636 475.032 213.147 511.001H385.731C377.672 477.475 369.338 386.823 369.338 386.823L393.729 422.946L415.692 367.535C415.692 367.535 394.549 331.387 371.738 312.49C355.896 299.364 322.951 294.537 304.304 292.813V291.785C304.304 291.785 301.744 291.901 297.493 292.263C293.236 291.971 290.674 291.897 290.674 291.897L290.686 292.925C272.07 294.956 239.583 300.773 223.586 313.708C164.38 361.58 133.758 507.357 133 511.001H169.856C189.767 435.484 227.95 377.237 227.95 377.237Z" fill="#2A485E"/>
<path d="M415.69 367.534C415.69 367.534 401.003 342.425 382.907 323.123C376.406 347.514 374.427 373.111 377.034 398.219L393.732 422.946L415.69 367.534Z" fill="#193345"/>
<path d="M566.247 424.401C561.893 422.18 558.094 419.121 554.662 415.633L429.75 374.077C429.75 374.077 429.75 337.4 422.697 318.272C434.545 296.149 433.593 275.372 429.75 262.868C425.907 250.364 409.205 243.292 403.086 261.658C400.045 270.785 387.257 308.14 382.614 317.674C370.885 375.612 389.336 444.667 426.057 469.678C462.778 494.689 523.76 497.129 568.104 484.773C599.323 476.071 608.122 442.243 610.597 422.981C606.214 424.802 601.723 426.32 597.084 427.333C586.792 429.578 575.627 429.187 566.247 424.401Z" fill="#F7A87E"/>
<path d="M611.559 409.355L580.068 424.084L554.658 415.632C558.09 419.12 561.889 422.18 566.243 424.4C575.627 429.186 586.793 429.577 597.084 427.329C601.722 426.315 606.214 424.798 610.597 422.977C611.636 414.879 611.559 409.355 611.559 409.355Z" fill="#E98870"/>
<path d="M594.903 249.219L563.574 282.508C555.968 290.59 556.686 303.402 565.147 310.578C573.154 317.372 585.115 316.556 592.124 308.737L622.642 274.703C629.564 266.982 628.944 255.12 621.254 248.16C613.648 241.279 601.933 241.75 594.903 249.219Z" fill="#F7A87E"/>
<path d="M323.655 295.227L270.434 295.331L276.477 337.54H316.932L323.655 295.227Z" fill="#ECEADD"/>
<path d="M316.932 337.539H276.478L291.135 439.912L316.932 337.539Z" fill="white"/>
<path d="M274.918 269.078V286.547C281.912 291.665 290.061 294.852 298.544 295.21C298.74 295.218 298.938 295.225 299.134 295.227C299.33 295.23 299.526 295.218 299.722 295.21C307.656 294.877 315.3 292.062 321.978 287.516V269.078H274.918Z" fill="#E98870"/>
<path d="M333.994 246.963C346.475 242.344 356.663 231.907 360.98 219.318C365.297 206.729 363.658 192.236 356.639 180.93C362.683 179.474 365.577 171.663 363.291 165.882C361.005 160.101 354.993 156.49 348.897 155.269C351.758 152.574 351.149 147.553 348.517 144.635C345.886 141.717 341.873 140.485 337.998 139.826C331.766 138.768 325.39 138.865 319.088 139.348C307.139 140.267 264.921 138.999 253.152 167.532C237.947 172.294 238.083 195.112 237.959 201.32C237.627 217.931 244.485 235.208 258.085 244.748C279.571 259.819 309.38 256.075 333.994 246.963Z" fill="#4E2F20"/>
<path d="M342.045 252.279C335.392 270.827 318.353 285.277 299.721 286.059C299.525 286.068 299.329 286.073 299.134 286.076C298.938 286.076 298.739 286.068 298.543 286.059C279.909 285.277 262.874 270.827 256.219 252.279C252.166 240.978 251.576 228.617 252.011 216.534C252.446 204.451 253.863 192.399 253.637 180.311C268.594 177.237 283.946 174.858 299.134 175.735C314.322 174.86 329.669 177.237 344.627 180.311C344.401 192.399 345.815 204.452 346.253 216.534C346.691 228.616 346.098 240.978 342.045 252.279Z" fill="#F7A87E"/>
<path d="M348.794 227.254C342.395 217.871 338.391 206.306 338.969 194.963C311.769 196.859 284.471 193.088 258.803 183.889C259.101 198.86 255.021 213.571 248.668 227.131C247.897 212.206 247.696 197.719 249.28 182.859C249.455 181.167 249.671 179.421 250.521 177.945C252.033 175.323 255.154 174.159 258.056 173.274C285.319 164.945 315.423 163.751 341.987 174.097C344.785 175.188 347.628 176.457 349.659 178.677C351.443 180.622 352.466 183.158 353.051 185.731C354.107 190.365 353.847 195.184 353.581 199.929C353.051 209.36 352.028 218.38 348.794 227.254Z" fill="#4E2F20"/>
<path d="M241.521 199.562C245.299 195.572 248.613 191.166 251.399 186.43C253.725 182.472 256.057 177.95 260.373 176.386C264.344 174.949 269.116 176.44 272.757 174.306C274.613 173.219 275.904 171.318 277.812 170.324C281.538 168.385 285.955 170.491 289.949 171.792C298.953 174.73 309.296 173.223 317.091 167.84C321.051 165.104 324.485 161.17 325.3 156.426C326.019 152.24 324.632 147.985 322.925 144.095C322.203 142.448 321.413 140.832 320.571 139.242C320.078 139.275 319.585 139.31 319.093 139.348C314.703 139.685 306.228 139.73 296.68 141.062C296.804 141.19 296.928 141.317 297.05 141.447C299.148 143.702 300.854 146.879 299.812 149.779C299.006 152.024 296.799 153.415 294.696 154.54C288.245 157.989 281.366 160.569 274.239 162.215C272.532 162.609 270.628 163.071 269.693 164.552C269.032 165.601 269.019 166.925 268.529 168.06C267.567 170.282 265.027 171.327 262.664 171.847C260.301 172.366 257.759 172.628 255.83 174.087C254.868 174.813 254.133 175.789 253.265 176.622C250.5 179.278 246.399 180.363 242.619 179.725C242.199 179.654 241.785 179.56 241.375 179.451C238.019 187.697 238.039 197.558 237.965 201.319C237.954 201.888 237.953 202.456 237.958 203.025C239.199 201.925 240.385 200.762 241.521 199.562Z" fill="#5E3B2B"/>
<path d="M285.143 209.622C286.302 209.66 287.49 209.741 288.546 210.221C289.601 210.701 290.511 211.661 290.612 212.816C290.729 214.138 289.754 215.363 288.566 215.954C287.378 216.545 286.01 216.632 284.685 216.696C280.358 216.903 276.028 216.963 271.694 216.876C270.169 216.846 266.886 216.614 266.851 214.407C266.82 212.561 269.696 211.967 271.077 211.489C275.576 209.931 280.405 209.467 285.143 209.622Z" fill="#452819"/>
<path d="M314.663 209.622C313.504 209.66 312.316 209.741 311.26 210.221C310.204 210.701 309.295 211.661 309.194 212.816C309.078 214.138 310.053 215.363 311.241 215.954C312.429 216.545 313.796 216.632 315.121 216.696C319.448 216.903 323.778 216.963 328.112 216.876C329.638 216.846 332.921 216.614 332.956 214.407C332.986 212.561 330.11 211.967 328.73 211.489C324.23 209.931 319.401 209.467 314.663 209.622Z" fill="#452819"/>
<path d="M278.736 233.896C281.299 233.896 283.377 231.818 283.377 229.255C283.377 226.691 281.299 224.613 278.736 224.613C276.173 224.613 274.095 226.691 274.095 229.255C274.095 231.818 276.173 233.896 278.736 233.896Z" fill="#452819"/>
<path d="M319.261 233.896C321.825 233.896 323.903 231.818 323.903 229.255C323.903 226.691 321.825 224.613 319.261 224.613C316.698 224.613 314.62 226.691 314.62 229.255C314.62 231.818 316.698 233.896 319.261 233.896Z" fill="#452819"/>
<path d="M300.989 269.081C297.689 269.139 294.427 269.846 291.332 271.005C293.495 272.354 296.237 273.232 299.725 273.232C303.746 273.232 306.779 272.068 309.071 270.356C306.474 269.455 303.737 269.023 300.989 269.081Z" fill="#F28487"/>
<path d="M292.058 259.848C294.026 260.722 296.1 261.377 298.236 261.651C302.382 262.185 306.672 261.239 310.316 259.189C311.526 258.504 312.667 257.706 313.725 256.805C313.373 256.655 312.994 256.578 312.611 256.578H286.978C287.056 256.655 287.135 256.731 287.214 256.805C288.617 258.111 290.307 259.071 292.058 259.848Z" fill="white"/>
<path d="M313.729 256.805C312.671 257.706 311.529 258.504 310.319 259.189C306.675 261.239 302.386 262.185 298.239 261.651C296.103 261.377 294.029 260.721 292.061 259.848C290.312 259.071 288.62 258.111 287.218 256.805C287.138 256.731 287.059 256.655 286.981 256.578H286.837C286.395 256.577 285.96 256.678 285.564 256.871C285.167 257.065 284.821 257.347 284.551 257.696C284.281 258.045 284.094 258.451 284.005 258.883C283.917 259.315 283.928 259.762 284.039 260.189C284.913 263.482 286.897 268.239 291.334 271.007C294.428 269.845 297.691 269.138 300.99 269.084C303.739 269.027 306.475 269.46 309.072 270.362C312.846 267.544 314.605 263.24 315.412 260.192C315.588 259.519 315.515 258.806 315.206 258.183C314.896 257.56 314.371 257.07 313.729 256.805Z" fill="#AB404A"/>
<path d="M299.134 295.227C298.938 295.227 298.74 295.218 298.544 295.21C290.064 294.854 281.91 291.665 274.918 286.547V319.089H312.073L321.978 304.938V287.513C315.3 292.064 307.656 294.877 299.722 295.206C299.526 295.217 299.33 295.224 299.134 295.227Z" fill="#F7A87E"/>
<path d="M274.918 291.053L297.631 317.439L321.977 291.053L325.187 295.525L316.695 337.674L297.472 319.089L276.493 337.653L270.434 295.331L274.918 291.053Z" fill="white"/>
<path d="M286.321 328.955L295.219 341.819L282.164 377.26L291.135 439.912L308.041 372.82L300.584 341.67L308.718 329.961L297.472 319.088L286.321 328.955Z" fill="#D75555"/>
<path d="M478.121 431.18L477.999 431.392H478.245L478.121 431.18Z" fill="#F68C24"/>
<path d="M570.54 397.078L603.11 377.083C611.019 372.227 621.055 375.554 625.107 384.374C628.94 392.718 625.955 402.865 618.375 407.261L585.37 426.398C577.883 430.738 568.576 427.696 564.552 419.59C560.565 411.573 563.231 401.565 570.54 397.078Z" fill="#F7A87E"/>
<path d="M559.378 356.069L603.402 338.503C614.091 334.237 626.172 339.799 629.881 350.694C633.388 361.001 628.055 372.229 617.849 376.019L573.416 392.517C563.335 396.259 552.126 391.15 548.338 381.086C544.592 371.132 549.5 360.01 559.378 356.069Z" fill="#F7A87E"/>
<path d="M555.232 317.002L597.689 300.061C607.998 295.947 619.649 301.312 623.227 311.819C626.611 321.759 621.467 332.587 611.622 336.242L568.768 352.153C559.047 355.763 548.236 350.835 544.584 341.129C540.969 331.53 545.703 320.804 555.232 317.002Z" fill="#F7A87E"/>
<path d="M338.569 259.916C343.955 260.218 349.493 258.729 353.769 255.439C358.045 252.15 360.95 247.016 361.184 241.627C361.313 238.654 360.49 235.405 358.1 233.634C356.276 232.28 353.853 232.02 351.59 232.216C348.448 232.489 345.158 233.735 343.49 236.413L338.569 259.916Z" fill="#F7A87E"/>
<path d="M350.354 240.921C350.622 241.082 350.87 241.273 351.094 241.491C352.073 242.431 352.644 243.719 352.684 245.076C352.723 246.433 352.228 247.751 351.306 248.747C351.26 248.796 351.206 248.835 351.146 248.863C351.085 248.891 351.02 248.907 350.953 248.909C350.887 248.912 350.821 248.901 350.758 248.878C350.696 248.855 350.639 248.82 350.59 248.775C350.541 248.73 350.502 248.675 350.474 248.615C350.446 248.554 350.431 248.489 350.428 248.423C350.425 248.356 350.436 248.29 350.459 248.227C350.482 248.165 350.517 248.108 350.562 248.059C351.304 247.258 351.701 246.198 351.669 245.108C351.638 244.017 351.179 242.982 350.393 242.225C350.108 241.951 349.672 241.625 349.169 241.542C347.276 242.707 345.81 244.453 344.992 246.52C344.954 246.617 344.888 246.7 344.801 246.758C344.715 246.816 344.613 246.845 344.509 246.843C344.449 246.842 344.39 246.83 344.334 246.808C344.209 246.759 344.109 246.663 344.055 246.54C344.001 246.418 343.997 246.278 344.046 246.153C345.01 243.673 346.831 241.621 349.178 240.367C351.525 239.113 354.244 238.741 356.841 239.318C356.972 239.347 357.086 239.427 357.158 239.54C357.231 239.654 357.255 239.791 357.225 239.922C357.196 240.053 357.116 240.168 357.003 240.24C356.889 240.312 356.752 240.336 356.621 240.306C354.519 239.851 352.328 240.066 350.354 240.921Z" fill="#D26F61"/>
<path d="M341.746 251.558C341.812 251.441 341.923 251.356 342.052 251.32C342.182 251.285 342.32 251.303 342.437 251.37C345.169 252.934 348.6 251.992 350.9 250.589C352.372 249.693 354.31 248.126 355.178 245.755C355.201 245.693 355.236 245.636 355.281 245.587C355.326 245.538 355.38 245.498 355.441 245.471C355.501 245.443 355.566 245.427 355.633 245.424C355.699 245.422 355.766 245.432 355.828 245.455C355.89 245.478 355.948 245.513 355.997 245.558C356.045 245.603 356.085 245.657 356.113 245.718C356.141 245.778 356.156 245.843 356.159 245.91C356.162 245.976 356.151 246.043 356.128 246.105C355.157 248.75 353.036 250.476 351.428 251.454C349.786 252.454 347.611 253.236 345.437 253.188C344.209 253.174 343.004 252.851 341.933 252.248C341.817 252.181 341.732 252.071 341.696 251.942C341.661 251.812 341.679 251.674 341.746 251.558Z" fill="#D26F61"/>
<path d="M259.399 259.916C254.013 260.218 248.471 258.729 244.2 255.439C239.928 252.15 237.018 247.016 236.784 241.627C236.655 238.654 237.479 235.405 239.868 233.634C241.692 232.28 244.116 232.02 246.378 232.216C249.52 232.489 252.812 233.735 254.478 236.413L259.399 259.916Z" fill="#F7A87E"/>
<path d="M247.615 240.921C247.348 241.082 247.099 241.273 246.875 241.491C245.896 242.431 245.325 243.719 245.286 245.076C245.246 246.433 245.741 247.751 246.664 248.747C246.709 248.796 246.763 248.835 246.824 248.863C246.884 248.891 246.949 248.907 247.016 248.909C247.082 248.912 247.149 248.901 247.211 248.878C247.273 248.855 247.331 248.82 247.379 248.775C247.428 248.729 247.468 248.675 247.495 248.615C247.523 248.554 247.539 248.489 247.541 248.423C247.544 248.356 247.533 248.29 247.51 248.227C247.487 248.165 247.452 248.108 247.407 248.059C246.666 247.258 246.268 246.198 246.3 245.108C246.332 244.017 246.79 242.982 247.577 242.225C247.862 241.951 248.297 241.625 248.8 241.542C250.694 242.706 252.16 244.453 252.978 246.52C253.015 246.617 253.082 246.7 253.168 246.758C253.254 246.815 253.356 246.845 253.46 246.843C253.52 246.842 253.579 246.83 253.635 246.808C253.697 246.784 253.754 246.748 253.802 246.702C253.85 246.656 253.888 246.601 253.915 246.541C253.942 246.48 253.956 246.414 253.958 246.348C253.959 246.281 253.948 246.215 253.923 246.153C252.959 243.673 251.139 241.621 248.792 240.367C246.445 239.113 243.727 238.741 241.129 239.318C241.064 239.332 241.003 239.359 240.948 239.397C240.894 239.435 240.847 239.484 240.812 239.54C240.776 239.596 240.752 239.659 240.74 239.724C240.729 239.79 240.73 239.857 240.744 239.922C240.759 239.987 240.786 240.048 240.824 240.103C240.862 240.157 240.911 240.203 240.967 240.239C241.023 240.275 241.086 240.299 241.151 240.311C241.216 240.322 241.284 240.321 241.349 240.306C243.45 239.851 245.642 240.066 247.615 240.921Z" fill="#D26F61"/>
<path d="M256.225 251.558C256.158 251.441 256.047 251.356 255.918 251.32C255.788 251.285 255.65 251.303 255.533 251.37C252.801 252.934 249.37 251.992 247.07 250.589C245.598 249.693 243.66 248.126 242.792 245.755C242.769 245.693 242.734 245.636 242.689 245.587C242.644 245.538 242.59 245.498 242.529 245.471C242.469 245.443 242.404 245.427 242.337 245.424C242.271 245.422 242.204 245.432 242.142 245.455C242.08 245.478 242.022 245.513 241.973 245.558C241.925 245.603 241.885 245.657 241.857 245.718C241.829 245.778 241.814 245.843 241.811 245.91C241.808 245.976 241.819 246.043 241.842 246.105C242.813 248.75 244.934 250.476 246.542 251.454C248.184 252.454 250.359 253.236 252.533 253.188C253.761 253.174 254.966 252.851 256.037 252.248C256.153 252.181 256.238 252.071 256.274 251.942C256.309 251.812 256.291 251.674 256.225 251.558Z" fill="#D26F61"/>
<path opacity="0.12" d="M322.892 252.671C326.948 252.671 330.237 249.383 330.237 245.327C330.237 241.271 326.948 237.982 322.892 237.982C318.836 237.982 315.548 241.271 315.548 245.327C315.548 249.383 318.836 252.671 322.892 252.671Z" fill="#ED7C6D"/>
<path opacity="0.12" d="M327.034 248.533C329.902 245.665 329.902 241.015 327.034 238.147C324.166 235.278 319.516 235.278 316.647 238.147C313.779 241.015 313.779 245.665 316.647 248.533C319.516 251.401 324.166 251.401 327.034 248.533Z" fill="#ED7C6D"/>
<path opacity="0.12" d="M325.963 252.671C330.019 252.671 333.307 249.383 333.307 245.327C333.307 241.271 330.019 237.982 325.963 237.982C321.906 237.982 318.618 241.271 318.618 245.327C318.618 249.383 321.906 252.671 325.963 252.671Z" fill="#ED7C6D"/>
<path opacity="0.12" d="M322.621 254.853C326.677 254.853 329.965 251.565 329.965 247.508C329.965 243.452 326.677 240.164 322.621 240.164C318.565 240.164 315.276 243.452 315.276 247.508C315.276 251.565 318.565 254.853 322.621 254.853Z" fill="#ED7C6D"/>
<path opacity="0.12" d="M323.316 250.826C326.354 250.826 328.817 248.363 328.817 245.325C328.817 242.287 326.354 239.824 323.316 239.824C320.278 239.824 317.815 242.287 317.815 245.325C317.815 248.363 320.278 250.826 323.316 250.826Z" fill="#ED7C6D"/>
<path opacity="0.12" d="M324.069 249.105C325.858 249.105 327.308 247.655 327.308 245.866C327.308 244.077 325.858 242.627 324.069 242.627C322.28 242.627 320.83 244.077 320.83 245.866C320.83 247.655 322.28 249.105 324.069 249.105Z" fill="#ED7C6D"/>
<path opacity="0.12" d="M324.987 245.453C325.398 243.712 324.32 241.967 322.579 241.556C320.838 241.145 319.093 242.224 318.683 243.965C318.272 245.706 319.35 247.45 321.091 247.861C322.832 248.272 324.576 247.194 324.987 245.453Z" fill="#ED7C6D"/>
<path opacity="0.12" d="M325.804 247.261C327.456 246.576 328.241 244.682 327.556 243.029C326.872 241.376 324.977 240.592 323.324 241.276C321.672 241.961 320.887 243.855 321.572 245.508C322.256 247.161 324.151 247.946 325.804 247.261Z" fill="#ED7C6D"/>
<path opacity="0.12" d="M324.132 248.318C325.784 247.633 326.569 245.738 325.885 244.086C325.2 242.433 323.305 241.648 321.653 242.333C320 243.017 319.215 244.912 319.9 246.565C320.584 248.217 322.479 249.002 324.132 248.318Z" fill="#ED7C6D"/>
<path opacity="0.12" d="M326.463 245C326.874 243.259 325.796 241.514 324.055 241.103C322.314 240.692 320.569 241.771 320.158 243.512C319.747 245.253 320.825 246.997 322.566 247.408C324.307 247.819 326.052 246.741 326.463 245Z" fill="#ED7C6D"/>
<path opacity="0.05" d="M323.817 246.566C325.095 246.566 326.131 245.53 326.131 244.252C326.131 242.974 325.095 241.938 323.817 241.938C322.539 241.938 321.503 242.974 321.503 244.252C321.503 245.53 322.539 246.566 323.817 246.566Z" fill="#FDECE9"/>
<path opacity="0.05" d="M323.311 244.721C324.075 244.721 324.694 244.102 324.694 243.338C324.694 242.574 324.075 241.955 323.311 241.955C322.547 241.955 321.928 242.574 321.928 243.338C321.928 244.102 322.547 244.721 323.311 244.721Z" fill="#FDECE9"/>
<path opacity="0.05" d="M324.375 243.873C324.263 244.022 324.109 244.135 323.933 244.196C323.757 244.258 323.567 244.267 323.386 244.22C323.205 244.174 323.042 244.075 322.918 243.936C322.793 243.797 322.713 243.625 322.686 243.44C322.66 243.255 322.689 243.067 322.769 242.899C322.85 242.731 322.979 242.59 323.139 242.495C323.3 242.4 323.485 242.355 323.671 242.365C323.857 242.375 324.036 242.44 324.186 242.552C324.285 242.626 324.368 242.719 324.432 242.826C324.495 242.932 324.536 243.05 324.554 243.173C324.571 243.296 324.565 243.421 324.534 243.541C324.503 243.661 324.449 243.774 324.375 243.873Z" fill="#FDECE9"/>
<path opacity="0.05" d="M324.066 243.748C323.955 243.898 323.801 244.011 323.625 244.073C323.449 244.135 323.258 244.143 323.077 244.097C322.896 244.051 322.733 243.952 322.608 243.813C322.483 243.674 322.402 243.502 322.376 243.317C322.349 243.132 322.378 242.943 322.459 242.775C322.539 242.606 322.668 242.465 322.829 242.37C322.99 242.275 323.175 242.23 323.361 242.24C323.548 242.25 323.727 242.315 323.877 242.427C324.077 242.577 324.209 242.801 324.245 243.048C324.281 243.296 324.216 243.548 324.066 243.748Z" fill="#FDECE9"/>
<path opacity="0.05" d="M321.983 243.915C322.483 243.78 322.779 243.265 322.643 242.765C322.508 242.265 321.993 241.969 321.492 242.104C320.992 242.24 320.697 242.755 320.832 243.255C320.968 243.755 321.483 244.051 321.983 243.915Z" fill="#FDECE9"/>
<path opacity="0.05" d="M324.184 243.748C324.072 243.897 323.919 244.01 323.743 244.071C323.567 244.133 323.376 244.142 323.195 244.095C323.015 244.049 322.852 243.95 322.727 243.811C322.603 243.672 322.522 243.5 322.496 243.315C322.469 243.13 322.498 242.942 322.579 242.774C322.66 242.606 322.788 242.465 322.949 242.37C323.109 242.275 323.294 242.23 323.481 242.24C323.667 242.25 323.846 242.315 323.995 242.427C324.195 242.577 324.328 242.8 324.363 243.048C324.398 243.296 324.334 243.547 324.184 243.748Z" fill="#FDECE9"/>
<path opacity="0.12" d="M273.086 252.671C277.142 252.671 280.43 249.383 280.43 245.327C280.43 241.271 277.142 237.982 273.086 237.982C269.029 237.982 265.741 241.271 265.741 245.327C265.741 249.383 269.029 252.671 273.086 252.671Z" fill="#ED7C6D"/>
<path opacity="0.12" d="M277.228 248.533C280.096 245.665 280.096 241.015 277.228 238.147C274.36 235.278 269.71 235.278 266.842 238.147C263.974 241.015 263.974 245.665 266.842 248.533C269.71 251.401 274.36 251.401 277.228 248.533Z" fill="#ED7C6D"/>
<path opacity="0.12" d="M276.157 252.671C280.213 252.671 283.501 249.383 283.501 245.327C283.501 241.271 280.213 237.982 276.157 237.982C272.101 237.982 268.812 241.271 268.812 245.327C268.812 249.383 272.101 252.671 276.157 252.671Z" fill="#ED7C6D"/>
<path opacity="0.12" d="M272.814 254.853C276.87 254.853 280.159 251.565 280.159 247.508C280.159 243.452 276.87 240.164 272.814 240.164C268.758 240.164 265.47 243.452 265.47 247.508C265.47 251.565 268.758 254.853 272.814 254.853Z" fill="#ED7C6D"/>
<path opacity="0.12" d="M273.509 250.826C276.547 250.826 279.01 248.363 279.01 245.325C279.01 242.287 276.547 239.824 273.509 239.824C270.472 239.824 268.009 242.287 268.009 245.325C268.009 248.363 270.472 250.826 273.509 250.826Z" fill="#ED7C6D"/>
<path opacity="0.12" d="M274.262 249.105C276.051 249.105 277.501 247.655 277.501 245.866C277.501 244.077 276.051 242.627 274.262 242.627C272.474 242.627 271.023 244.077 271.023 245.866C271.023 247.655 272.474 249.105 274.262 249.105Z" fill="#ED7C6D"/>
<path opacity="0.12" d="M275.183 245.453C275.594 243.712 274.515 241.967 272.774 241.556C271.033 241.146 269.289 242.224 268.878 243.965C268.467 245.706 269.545 247.45 271.286 247.861C273.027 248.272 274.772 247.194 275.183 245.453Z" fill="#ED7C6D"/>
<path opacity="0.12" d="M275.996 247.261C277.649 246.576 278.433 244.682 277.749 243.029C277.064 241.376 275.17 240.592 273.517 241.276C271.864 241.961 271.079 243.855 271.764 245.508C272.448 247.161 274.343 247.946 275.996 247.261Z" fill="#ED7C6D"/>
<path opacity="0.12" d="M274.325 248.32C275.978 247.635 276.763 245.74 276.078 244.088C275.393 242.435 273.499 241.65 271.846 242.335C270.193 243.019 269.408 244.914 270.093 246.567C270.778 248.219 272.672 249.004 274.325 248.32Z" fill="#ED7C6D"/>
<path opacity="0.12" d="M276.658 245.002C277.069 243.261 275.991 241.516 274.25 241.105C272.509 240.694 270.764 241.773 270.353 243.514C269.942 245.255 271.021 246.999 272.762 247.41C274.503 247.821 276.247 246.743 276.658 245.002Z" fill="#ED7C6D"/>
<path opacity="0.05" d="M274.01 246.566C275.288 246.566 276.324 245.53 276.324 244.252C276.324 242.974 275.288 241.938 274.01 241.938C272.732 241.938 271.696 242.974 271.696 244.252C271.696 245.53 272.732 246.566 274.01 246.566Z" fill="#FDECE9"/>
<path opacity="0.05" d="M273.504 244.721C274.268 244.721 274.887 244.102 274.887 243.338C274.887 242.574 274.268 241.955 273.504 241.955C272.74 241.955 272.121 242.574 272.121 243.338C272.121 244.102 272.74 244.721 273.504 244.721Z" fill="#FDECE9"/>
<path opacity="0.05" d="M274.568 243.873C274.456 244.022 274.302 244.135 274.126 244.196C273.95 244.258 273.76 244.267 273.579 244.22C273.399 244.174 273.236 244.075 273.111 243.936C272.987 243.797 272.906 243.625 272.88 243.44C272.853 243.255 272.882 243.067 272.963 242.899C273.043 242.731 273.172 242.59 273.333 242.495C273.493 242.4 273.678 242.355 273.864 242.365C274.051 242.375 274.23 242.44 274.379 242.552C274.478 242.626 274.562 242.719 274.625 242.826C274.688 242.932 274.73 243.05 274.747 243.173C274.765 243.296 274.758 243.421 274.727 243.541C274.696 243.661 274.642 243.774 274.568 243.873Z" fill="#FDECE9"/>
<path opacity="0.05" d="M274.259 243.748C274.147 243.897 273.994 244.01 273.818 244.071C273.642 244.133 273.451 244.142 273.271 244.095C273.09 244.049 272.927 243.95 272.803 243.811C272.678 243.672 272.597 243.5 272.571 243.315C272.545 243.13 272.574 242.942 272.654 242.774C272.735 242.606 272.864 242.465 273.024 242.37C273.185 242.275 273.37 242.23 273.556 242.24C273.742 242.25 273.921 242.315 274.071 242.427C274.271 242.577 274.403 242.8 274.438 243.048C274.474 243.296 274.409 243.547 274.259 243.748Z" fill="#FDECE9"/>
<path opacity="0.05" d="M274.165 244.215C274.668 244.077 274.963 243.558 274.826 243.056C274.688 242.553 274.169 242.258 273.667 242.395C273.164 242.533 272.868 243.052 273.006 243.554C273.144 244.057 273.663 244.352 274.165 244.215Z" fill="#FDECE9"/>
<path opacity="0.05" d="M274.378 243.748C274.266 243.898 274.112 244.011 273.936 244.073C273.76 244.135 273.569 244.143 273.389 244.097C273.208 244.051 273.044 243.952 272.919 243.813C272.795 243.674 272.714 243.502 272.687 243.317C272.661 243.132 272.69 242.943 272.77 242.775C272.851 242.606 272.98 242.465 273.14 242.37C273.301 242.275 273.486 242.23 273.673 242.24C273.859 242.25 274.039 242.315 274.188 242.427C274.388 242.577 274.521 242.801 274.556 243.048C274.592 243.296 274.528 243.548 274.378 243.748Z" fill="#FDECE9"/>
<path d="M292.495 239.797C292.495 239.818 292.495 239.838 292.495 239.859C292.516 241.763 293.287 243.582 294.641 244.92C295.994 246.259 297.821 247.01 299.725 247.01C301.629 247.01 303.456 246.259 304.81 244.92C306.164 243.582 306.935 241.763 306.956 239.859C306.956 239.838 306.956 239.818 306.956 239.797H292.495Z" fill="#F17D6F"/>
<path d="M424.035 327.499C423.344 324.556 423.61 320.742 422.698 318.268C434.545 296.145 433.593 275.368 429.75 262.864C425.907 250.36 409.206 243.289 403.086 261.654C400.046 270.781 387.257 308.136 382.614 317.67C379.847 331.343 378.76 345.635 379.197 359.821C382.989 357.96 386.687 355.9 390.272 353.725C402.908 346.065 413.56 337.926 424.035 327.499Z" fill="#F7A87E"/>
<path d="M404.74 523.741L353.656 480.418C315.99 522.521 251.437 527.194 208.081 490.454C164.725 453.714 158.823 389.232 194.209 345.195L143.124 301.872C83.8111 374.122 93.2485 480.835 164.787 541.504C236.325 602.174 343.146 594.058 404.74 523.741Z" fill="#FF9149"/>
<path d="M426.327 157.836H428.058V169.569H426.327C426.153 169.569 425.98 169.534 425.819 169.468C425.658 169.401 425.512 169.303 425.389 169.18C425.265 169.057 425.168 168.91 425.101 168.749C425.034 168.588 425 168.416 425 168.242V159.163C425 158.811 425.14 158.473 425.389 158.225C425.638 157.976 425.975 157.836 426.327 157.836Z" fill="#333333"/>
<path d="M426.327 180.879H428.058V202.752H426.327C425.975 202.752 425.638 202.612 425.389 202.363C425.14 202.114 425 201.777 425 201.425V182.206C425 181.854 425.14 181.516 425.389 181.268C425.638 181.019 425.975 180.879 426.327 180.879Z" fill="#333333"/>
<path d="M579.673 222.48H577.942V188.558H579.673C580.025 188.558 580.362 188.698 580.611 188.946C580.86 189.195 581 189.533 581 189.885V221.153C581 221.505 580.86 221.843 580.611 222.092C580.362 222.341 580.025 222.48 579.673 222.48Z" fill="#333333"/>
<path d="M426.327 208.869H428.058V230.742H426.327C425.975 230.742 425.638 230.602 425.389 230.353C425.14 230.104 425 229.767 425 229.415V210.196C425 209.844 425.14 209.507 425.389 209.258C425.638 209.009 425.975 208.869 426.327 208.869Z" fill="#333333"/>
<path d="M556.499 116H449.493C436.81 116 426.529 126.281 426.529 138.963V403.361C426.529 416.043 436.81 426.324 449.493 426.324H556.499C569.182 426.324 579.463 416.043 579.463 403.361V138.963C579.463 126.281 569.182 116 556.499 116Z" fill="#444444"/>
<path d="M556.499 118.686H449.489C438.29 118.686 429.212 127.764 429.212 138.963V403.363C429.212 414.562 438.29 423.641 449.489 423.641H556.499C567.698 423.641 576.777 414.562 576.777 403.363V138.963C576.777 127.764 567.698 118.686 556.499 118.686Z" fill="#444444"/>
<path d="M556.499 118.855H449.489C438.384 118.855 429.382 127.858 429.382 138.963V403.363C429.382 414.468 438.384 423.47 449.489 423.47H556.499C567.604 423.47 576.606 414.468 576.606 403.363V138.963C576.606 127.858 567.604 118.855 556.499 118.855Z" fill="#434343"/>
<path d="M556.5 119.025H449.49C438.479 119.025 429.553 127.952 429.553 138.962V403.363C429.553 414.374 438.479 423.3 449.49 423.3H556.5C567.511 423.3 576.437 414.374 576.437 403.363V138.962C576.437 127.952 567.511 119.025 556.5 119.025Z" fill="#414141"/>
<path d="M556.499 119.197H449.489C438.573 119.197 429.723 128.047 429.723 138.964V403.364C429.723 414.281 438.573 423.131 449.489 423.131H556.499C567.416 423.131 576.266 414.281 576.266 403.364V138.964C576.266 128.047 567.416 119.197 556.499 119.197Z" fill="#404040"/>
<path d="M556.499 119.367H449.489C438.666 119.367 429.893 128.141 429.893 138.964V403.364C429.893 414.187 438.666 422.961 449.489 422.961H556.499C567.322 422.961 576.096 414.187 576.096 403.364V138.964C576.096 128.141 567.322 119.367 556.499 119.367Z" fill="#3E3E3E"/>
<path d="M556.502 119.537H449.492C438.763 119.537 430.065 128.235 430.065 138.964V403.364C430.065 414.093 438.763 422.79 449.492 422.79H556.502C567.231 422.79 575.928 414.093 575.928 403.364V138.964C575.928 128.235 567.231 119.537 556.502 119.537Z" fill="#3D3D3D"/>
<path d="M556.499 119.707H449.493C438.858 119.707 430.236 128.328 430.236 138.963V403.361C430.236 413.996 438.858 422.617 449.493 422.617H556.499C567.134 422.617 575.756 413.996 575.756 403.361V138.963C575.756 128.328 567.134 119.707 556.499 119.707Z" fill="#3B3B3B"/>
<path d="M556.499 119.877H449.492C438.951 119.877 430.406 128.422 430.406 138.963V403.36C430.406 413.901 438.951 422.446 449.492 422.446H556.499C567.04 422.446 575.585 413.901 575.585 403.36V138.963C575.585 128.422 567.04 119.877 556.499 119.877Z" fill="#3A3A3A"/>
<path d="M556.499 120.047H449.492C439.045 120.047 430.576 128.516 430.576 138.963V403.36C430.576 413.807 439.045 422.276 449.492 422.276H556.499C566.946 422.276 575.415 413.807 575.415 403.36V138.963C575.415 128.516 566.946 120.047 556.499 120.047Z" fill="#393939"/>
<path d="M556.499 120.221H449.492C439.139 120.221 430.746 128.613 430.746 138.966V403.364C430.746 413.717 439.139 422.109 449.492 422.109H556.499C566.852 422.109 575.244 413.717 575.244 403.364V138.966C575.244 128.613 566.852 120.221 556.499 120.221Z" fill="#373737"/>
<path d="M556.499 120.391H449.492C439.233 120.391 430.917 128.707 430.917 138.966V403.363C430.917 413.622 439.233 421.939 449.492 421.939H556.499C566.758 421.939 575.075 413.622 575.075 403.363V138.966C575.075 128.707 566.758 120.391 556.499 120.391Z" fill="#363636"/>
<path d="M556.499 120.561H449.492C439.327 120.561 431.087 128.801 431.087 138.966V403.363C431.087 413.528 439.327 421.768 449.492 421.768H556.499C566.664 421.768 574.904 413.528 574.904 403.363V138.966C574.904 128.801 566.664 120.561 556.499 120.561Z" fill="#343434"/>
<path d="M556.499 120.73H449.489C439.42 120.73 431.257 128.893 431.257 138.963V403.363C431.257 413.432 439.42 421.595 449.489 421.595H556.499C566.568 421.595 574.731 413.432 574.731 403.363V138.963C574.731 128.893 566.568 120.73 556.499 120.73Z" fill="#333333"/>
<path d="M556.499 120.9H449.49C439.514 120.9 431.428 128.987 431.428 138.962V403.363C431.428 413.338 439.514 421.424 449.49 421.424H556.499C566.475 421.424 574.561 413.338 574.561 403.363V138.962C574.561 128.987 566.475 120.9 556.499 120.9Z" fill="#313131"/>
<path d="M556.499 121.07H449.489C439.608 121.07 431.598 129.081 431.598 138.962V403.362C431.598 413.244 439.608 421.254 449.489 421.254H556.499C566.38 421.254 574.391 413.244 574.391 403.362V138.962C574.391 129.081 566.38 121.07 556.499 121.07Z" fill="#303030"/>
<path d="M556.499 121.242H449.489C439.702 121.242 431.768 129.176 431.768 138.964V403.364C431.768 413.151 439.702 421.085 449.489 421.085H556.499C566.286 421.085 574.22 413.151 574.22 403.364V138.964C574.22 129.176 566.286 121.242 556.499 121.242Z" fill="#2F2F2F"/>
<path d="M556.5 121.412H449.49C439.796 121.412 431.938 129.27 431.938 138.963V403.364C431.938 413.057 439.796 420.915 449.49 420.915H556.5C566.193 420.915 574.051 413.057 574.051 403.364V138.963C574.051 129.27 566.193 121.412 556.5 121.412Z" fill="#2D2D2D"/>
<path d="M556.499 121.582H449.489C439.89 121.582 432.108 129.364 432.108 138.963V403.363C432.108 412.963 439.89 420.744 449.489 420.744H556.499C566.099 420.744 573.88 412.963 573.88 403.363V138.963C573.88 129.364 566.099 121.582 556.499 121.582Z" fill="#2C2C2C"/>
<path d="M556.499 121.752H449.492C439.987 121.752 432.281 129.458 432.281 138.963V403.36C432.281 412.866 439.987 420.571 449.492 420.571H556.499C566.004 420.571 573.71 412.866 573.71 403.36V138.963C573.71 129.458 566.004 121.752 556.499 121.752Z" fill="#2A2A2A"/>
<path d="M556.499 121.922H449.492C440.081 121.922 432.451 129.551 432.451 138.963V403.36C432.451 412.771 440.081 420.401 449.492 420.401H556.499C565.91 420.401 573.539 412.771 573.539 403.36V138.963C573.539 129.551 565.91 121.922 556.499 121.922Z" fill="#292929"/>
<path d="M556.499 122.092H449.493C440.175 122.092 432.622 129.645 432.622 138.962V403.36C432.622 412.677 440.175 420.23 449.493 420.23H556.499C565.817 420.23 573.37 412.677 573.37 403.36V138.962C573.37 129.645 565.817 122.092 556.499 122.092Z" fill="#272727"/>
<path d="M556.499 122.266H449.492C440.269 122.266 432.792 129.743 432.792 138.966V403.363C432.792 412.587 440.269 420.064 449.492 420.064H556.499C565.723 420.064 573.199 412.587 573.199 403.363V138.966C573.199 129.743 565.723 122.266 556.499 122.266Z" fill="#262626"/>
<path d="M556.499 119.581C561.638 119.587 566.565 121.631 570.199 125.265C573.833 128.898 575.877 133.826 575.882 138.965V403.365C575.877 408.504 573.833 413.431 570.199 417.065C566.565 420.699 561.638 422.743 556.499 422.748H449.492C444.353 422.743 439.425 420.699 435.791 417.065C432.157 413.431 430.112 408.504 430.106 403.365V138.965C430.112 133.825 432.157 128.898 435.791 125.264C439.425 121.631 444.353 119.587 449.492 119.581H556.499ZM556.499 118.477H449.492C444.062 118.484 438.857 120.645 435.017 124.484C431.178 128.324 429.017 133.529 429.01 138.959V403.359C429.017 408.789 431.178 413.994 435.017 417.834C438.857 421.673 444.062 423.834 449.492 423.841H556.499C561.929 423.834 567.134 421.673 570.974 417.834C574.813 413.994 576.974 408.789 576.981 403.359V138.965C576.974 133.535 574.813 128.329 570.974 124.49C567.134 120.65 561.929 118.49 556.499 118.482V118.477Z" fill="#2D2C2C"/>
<mask id="mask0_42_5965" style="mask-type:luminance" maskUnits="userSpaceOnUse" x="435" y="124" width="136" height="294">
<path d="M556.499 124.949H542.585C542.156 124.949 541.744 125.12 541.44 125.423C541.136 125.726 540.965 126.138 540.964 126.568V126.77C540.966 127.976 540.73 129.171 540.27 130.287C539.809 131.402 539.133 132.416 538.281 133.27C537.428 134.124 536.415 134.801 535.301 135.263C534.186 135.726 532.991 135.963 531.785 135.963H473.753C471.319 135.963 468.984 134.996 467.262 133.275C465.541 131.553 464.574 129.219 464.574 126.784V126.582C464.574 126.153 464.403 125.741 464.1 125.438C463.796 125.134 463.385 124.964 462.955 124.964H449.492C447.651 124.963 445.829 125.325 444.128 126.03C442.427 126.734 440.882 127.766 439.58 129.067C438.279 130.369 437.246 131.914 436.542 133.614C435.837 135.315 435.475 137.137 435.475 138.978V403.378C435.475 405.219 435.837 407.042 436.542 408.742C437.246 410.443 438.279 411.988 439.58 413.289C440.882 414.591 442.427 415.623 444.128 416.327C445.829 417.031 447.651 417.393 449.492 417.393H556.499C560.216 417.393 563.78 415.916 566.409 413.288C569.037 410.66 570.513 407.095 570.513 403.378V138.964C570.513 135.247 569.037 131.682 566.409 129.054C563.78 126.426 560.216 124.949 556.499 124.949Z" fill="white"/>
</mask>
<g mask="url(#mask0_42_5965)">
<path d="M570.513 124.949H435.475V417.378H570.513V124.949Z" fill="#9EA6FF"/>
<path d="M435.187 417.668V185.895H433.254C434.408 184.099 435.562 182.3 436.716 180.5C439.06 176.904 441.464 173.309 443.928 169.717C448.861 162.539 454.031 155.392 459.439 148.274C464.848 141.156 470.36 134.264 475.975 127.598C476.677 126.766 477.379 125.936 478.081 125.109C478.429 124.693 478.78 124.281 479.134 123.871V124.667H570.803V382.282H572.533C571.049 383.488 569.564 384.679 568.079 385.854C562.136 390.55 556.202 394.974 550.277 399.124C544.352 403.274 538.461 407.138 532.604 410.715C529.677 412.504 526.761 414.218 523.855 415.859C522.401 416.678 520.952 417.479 519.507 418.262V417.668H435.187Z" fill="#9EA6FF"/>
<path d="M435.186 417.667V186.272H434.531C435.662 184.493 436.808 182.713 437.97 180.93C440.293 177.37 442.675 173.812 445.116 170.256C449.997 163.152 455.115 156.077 460.469 149.032C465.823 141.987 471.273 135.165 476.82 128.564C478.205 126.914 479.595 125.28 480.991 123.66V124.661H570.802V380.638H572.374C570.907 381.832 569.437 383.01 567.966 384.172C562.087 388.818 556.214 393.195 550.348 397.303C539.251 405.131 527.648 412.217 515.615 418.513V417.667H435.186Z" fill="#9FA7FF"/>
<path d="M435.186 417.669V189.294H434.145C434.695 188.413 435.25 187.532 435.812 186.652C436.931 184.888 438.065 183.125 439.213 181.364C441.521 177.842 443.878 174.323 446.284 170.805C451.117 163.774 456.182 156.773 461.478 149.804C466.775 142.834 472.168 136.082 477.659 129.549C479.032 127.916 480.409 126.297 481.787 124.691L482.826 123.488V124.662H570.813V378.992H572.227C570.773 380.171 569.318 381.336 567.862 382.488C562.042 387.087 556.231 391.414 550.429 395.47C539.447 403.216 527.964 410.227 516.056 416.457C514.649 417.188 513.245 417.899 511.845 418.592V417.654L435.186 417.669Z" fill="#A0A7FE"/>
<path d="M435.187 417.667V192.258H433.805C442.427 178.305 451.999 164.348 462.48 150.567C467.721 143.676 473.058 136.996 478.491 130.526C479.837 128.911 481.199 127.308 482.576 125.72C483.258 124.924 483.943 124.132 484.63 123.346V124.661H570.802V377.34H572.054C570.618 378.512 569.175 379.666 567.727 380.802C561.969 385.354 556.219 389.641 550.476 393.663C539.61 401.328 528.248 408.267 516.467 414.434C513.68 415.878 510.909 417.249 508.155 418.547V417.682L435.187 417.667Z" fill="#A1A8FE"/>
<path d="M435.186 417.669V192.58H435.114C443.648 178.776 453.116 164.967 463.487 151.327C468.679 144.511 473.958 137.902 479.324 131.5C480.671 129.902 482.017 128.316 483.363 126.743C484.041 125.958 484.716 125.176 485.382 124.395V124.657H570.773V375.695H571.867C570.442 376.849 569.017 377.99 567.594 379.119C561.9 383.623 556.211 387.864 550.528 391.841C539.777 399.425 528.536 406.288 516.879 412.387C514.121 413.818 511.38 415.175 508.657 416.457C507.296 417.102 505.939 417.725 504.587 418.327V417.669H435.186Z" fill="#A2A8FD"/>
<path d="M435.187 417.668V198.023H433.303C434.33 196.315 435.37 194.609 436.424 192.903C444.865 179.246 454.232 165.586 464.491 152.097C469.62 145.352 474.843 138.813 480.161 132.48C482.815 129.318 485.489 126.208 488.184 123.15V124.659H570.802V374.044H571.734C570.326 375.198 568.918 376.327 567.508 377.431C561.875 381.885 556.247 386.08 550.626 390.017C539.99 397.518 528.87 404.307 517.338 410.341C511.885 413.172 506.5 415.71 501.183 417.957V417.668H435.187Z" fill="#A3A9FD"/>
<path d="M435.186 415.702V198.278H434.646C435.662 196.588 436.692 194.899 437.736 193.212C446.085 179.706 455.351 166.193 465.497 152.851C470.568 146.181 475.734 139.714 480.994 133.45C483.623 130.321 486.27 127.244 488.933 124.219V124.649H570.802V372.386H571.575C570.181 373.517 568.787 374.633 567.395 375.735C561.817 380.14 556.251 384.29 550.694 388.186C540.174 395.606 529.175 402.323 517.77 408.294C512.375 411.092 507.047 413.603 501.785 415.826C499.158 416.936 496.552 417.972 493.967 418.936V417.661H435.186V415.702Z" fill="#A4AAFC"/>
<path d="M435.187 413.577V201.058H434.497C434.993 200.221 435.491 199.387 435.991 198.554C436.995 196.885 438.014 195.214 439.046 193.543C447.303 180.186 456.468 166.821 466.501 153.626C471.517 147.027 476.627 140.631 481.831 134.439C484.428 131.342 487.044 128.3 489.681 125.311C490.339 124.565 490.998 123.82 491.66 123.078V124.662H570.802V370.752H571.414C570.037 371.871 568.659 372.975 567.28 374.064C561.768 378.42 556.263 382.521 550.764 386.368C540.36 393.712 529.481 400.362 518.2 406.273C507.526 411.806 497.098 416.217 487.044 419.425V417.694H435.187V413.577Z" fill="#A6AAFC"/>
<path d="M435.186 411.466V203.759H434.401C436.325 200.458 438.309 197.157 440.356 193.855C448.523 180.642 457.584 167.427 467.508 154.379C472.47 147.855 477.522 141.531 482.665 135.405C485.236 132.346 487.824 129.337 490.428 126.379C491.08 125.64 491.733 124.905 492.386 124.172V124.651H570.802V369.091H571.255C569.889 370.199 568.527 371.291 567.167 372.368C561.715 376.678 556.27 380.737 550.833 384.545C540.544 391.8 529.787 398.369 518.633 404.208C508.08 409.689 497.764 414.042 487.834 417.213C485.353 418.007 482.897 418.725 480.466 419.368V417.657H435.174L435.186 411.466Z" fill="#A7ABFB"/>
<path d="M435.186 409.331V206.424H434.358C434.828 205.61 435.301 204.796 435.778 203.98C437.684 200.711 439.646 197.446 441.666 194.186C449.743 181.124 458.701 168.055 468.512 155.154C473.418 148.704 478.418 142.453 483.513 136.403C486.052 133.376 488.61 130.401 491.19 127.477C492.476 126.018 493.768 124.569 495.064 123.133V124.67H570.802V367.463H571.091C569.744 368.56 568.398 369.639 567.052 370.703C561.667 374.963 556.282 378.976 550.897 382.741C540.723 389.916 530.087 396.412 519.057 402.185C508.625 407.594 498.422 411.907 488.608 415.046C483.87 416.569 479.055 417.842 474.183 418.859V417.677H435.186V409.331Z" fill="#A8ABFB"/>
<path d="M435.186 407.207V209.02H434.37C435.283 207.41 436.212 205.798 437.157 204.185C439.041 200.96 440.982 197.732 442.978 194.503C450.958 181.591 459.817 168.673 469.519 155.916C474.367 149.538 479.308 143.357 484.341 137.372C486.841 134.382 489.369 131.441 491.925 128.55C493.198 127.104 494.475 125.671 495.756 124.252V124.662H570.802V365.807H570.935C569.602 366.89 568.269 367.957 566.936 369.009C561.609 373.221 556.287 377.189 550.972 380.912C540.913 388.005 530.397 394.426 519.492 400.134C498.866 410.831 479.151 417.192 461.577 418.597C452.787 419.292 444.533 418.744 436.969 416.866C436.023 416.633 435.087 416.379 434.162 416.104H435.186V407.207Z" fill="#A9ACFA"/>
<path d="M435.186 405.085V211.568H434.433C434.877 210.771 435.326 209.975 435.78 209.179C436.682 207.587 437.6 205.993 438.532 204.399C440.396 201.21 442.319 198.021 444.302 194.83C452.192 182.065 460.948 169.293 470.537 156.684C475.316 150.372 480.194 144.261 485.171 138.351C487.652 135.395 490.153 132.488 492.672 129.63C493.93 128.203 495.192 126.787 496.46 125.383C497.094 124.681 497.729 123.983 498.364 123.289V124.662H570.802V362.542H572.749L570.773 364.161C569.457 365.232 568.141 366.29 566.824 367.334C561.556 371.496 556.295 375.417 551.041 379.098C541.098 386.109 530.704 392.456 519.925 398.098C499.532 408.671 480.045 414.96 462.673 416.333C453.986 417.022 445.825 416.48 438.348 414.631C437.413 414.4 436.489 414.149 435.576 413.878C435.118 413.741 434.664 413.6 434.214 413.454H435.186V405.085Z" fill="#AAADFA"/>
<path d="M435.187 402.958V214.051H434.549C438.011 207.766 441.694 201.465 445.598 195.149C453.387 182.531 462.041 169.91 471.53 157.448C476.267 151.218 481.092 145.178 486.006 139.328C488.46 136.407 490.931 133.533 493.42 130.708C494.666 129.295 495.916 127.895 497.17 126.511C497.795 125.818 498.422 125.128 499.051 124.439V124.662H570.802V360.929H572.565C571.917 361.464 571.267 361.995 570.615 362.524C569.311 363.584 568.009 364.628 566.709 365.657C561.505 369.771 556.305 373.646 551.111 377.283C541.283 384.213 531.009 390.487 520.355 396.063C500.208 406.501 480.94 412.715 463.769 414.062C455.184 414.74 447.121 414.206 439.727 412.38C437.877 411.924 436.072 411.387 434.312 410.767H435.178L435.187 402.958Z" fill="#ABADF9"/>
<path d="M435.186 400.836V218.803H433.456C434.285 217.255 435.127 215.704 435.983 214.15C439.41 207.94 443.051 201.713 446.905 195.471C454.61 183.002 463.164 170.528 472.528 158.216C481.892 145.904 491.637 134.324 501.592 123.561V124.654H570.802V359.277H572.383C571.739 359.808 571.096 360.334 570.453 360.855C569.167 361.903 567.881 362.935 566.596 363.95C561.45 368.016 556.311 371.846 551.18 375.441C541.468 382.288 531.316 388.488 520.788 393.999C500.868 404.326 481.843 410.468 464.866 411.813C456.381 412.482 448.422 411.954 441.106 410.148C439.279 409.698 437.495 409.167 435.755 408.556C434.884 408.246 434.024 407.919 433.176 407.575H435.195L435.186 400.836Z" fill="#ACAEF9"/>
<path d="M435.186 398.713V218.847H434.929C435.749 217.318 436.582 215.785 437.43 214.248C440.815 208.111 444.412 201.957 448.22 195.785C455.833 183.464 464.285 171.14 473.54 158.972C482.794 146.804 492.418 135.389 502.252 124.746C502.868 124.079 503.483 123.418 504.099 122.762V124.663H570.802V357.656H572.198C571.563 358.181 570.928 358.701 570.291 359.217C569.022 360.249 567.752 361.269 566.48 362.275C561.397 366.29 556.32 370.074 551.248 373.626C541.653 380.394 531.621 386.521 521.217 391.965C501.537 402.172 482.731 408.239 465.961 409.563C457.578 410.226 449.705 409.704 442.487 407.921C440.682 407.473 438.918 406.947 437.197 406.343C436.337 406.043 435.488 405.721 434.649 405.377H435.186V398.713Z" fill="#ADAEF8"/>
<path d="M435.187 396.589V223.424H434.012C435.58 220.407 437.199 217.38 438.871 214.345C442.215 208.285 445.773 202.208 449.544 196.113C457.068 183.942 465.411 171.765 474.562 159.744C483.712 147.723 493.206 136.423 502.925 125.923C503.535 125.265 504.144 124.611 504.751 123.961V124.662H570.814V356.025H572.028C571.4 356.544 570.772 357.059 570.145 357.569C568.891 358.59 567.635 359.597 566.377 360.589C561.354 364.558 556.338 368.297 551.33 371.805C541.85 378.49 531.939 384.542 521.662 389.922C502.218 400.019 483.637 405.999 467.073 407.312C458.787 407.966 451.01 407.45 443.879 405.687C440.371 404.829 436.956 403.628 433.684 402.102H435.198L435.187 396.589Z" fill="#AEAFF8"/>
<path d="M435.186 394.466V227.879H433.23C433.979 226.392 434.739 224.904 435.512 223.413C437.051 220.43 438.65 217.441 440.31 214.447C443.612 208.456 447.122 202.452 450.839 196.434C458.271 184.41 466.519 172.383 475.551 160.509C484.583 148.635 493.971 137.471 503.571 127.1C504.771 125.802 505.974 124.517 507.18 123.246V124.663H570.802V354.399H571.832C571.213 354.91 570.593 355.418 569.971 355.922C568.733 356.93 567.493 357.924 566.253 358.905C561.291 362.826 556.336 366.52 551.387 369.985C542.022 376.585 532.232 382.56 522.08 387.871C502.873 397.83 484.52 403.738 468.157 405.048C459.976 405.694 452.291 405.186 445.246 403.444C441.781 402.597 438.409 401.41 435.178 399.901L435.186 394.466Z" fill="#AFB0F7"/>
<path d="M435.186 392.342V227.812H434.759C435.498 226.343 436.249 224.872 437.012 223.401C438.541 220.455 440.121 217.503 441.752 214.545C445.022 208.629 448.483 202.699 452.138 196.754C459.477 184.88 467.623 173 476.543 161.271C485.463 149.541 494.732 138.518 504.214 128.274C505.399 126.993 506.588 125.725 507.78 124.469V124.659H570.802V352.768H571.65C571.035 353.274 570.422 353.775 569.813 354.271C568.587 355.269 567.362 356.252 566.137 357.22C561.239 361.091 556.345 364.738 551.456 368.162C542.208 374.685 532.538 380.59 522.51 385.837C503.542 395.674 485.414 401.522 469.253 402.803C461.176 403.44 453.583 402.938 446.625 401.219C443.203 400.381 439.873 399.209 436.681 397.72C435.892 397.35 435.117 396.966 434.355 396.566H435.186V392.342Z" fill="#B0B0F7"/>
<path d="M435.186 390.216V232.087H434.145C445.396 208.951 459.944 185.203 477.562 162.038C486.369 150.455 495.525 139.571 504.89 129.454C506.061 128.186 507.235 126.936 508.412 125.704L510.177 123.852V124.671H570.802V351.139H571.463C570.861 351.639 570.256 352.134 569.648 352.624C568.439 353.609 567.229 354.579 566.019 355.535C561.186 359.358 556.355 362.961 551.526 366.342C542.392 372.781 532.844 378.612 522.943 383.795C504.212 393.508 486.306 399.283 470.35 400.547C462.37 401.179 454.875 400.683 448.004 398.983C444.628 398.155 441.343 396.995 438.195 395.522C436.645 394.794 435.135 393.986 433.669 393.101H435.198L435.186 390.216Z" fill="#B1B1F6"/>
<path d="M435.186 388.1V236.242H433.651C434.321 234.819 435.001 233.394 435.694 231.967C446.798 209.131 461.173 185.674 478.571 162.795C487.266 151.359 496.307 140.61 505.553 130.623C507.861 128.123 510.184 125.674 512.523 123.275V124.654H570.796V349.512H571.278C570.681 350.003 570.084 350.493 569.486 350.978C568.292 351.949 567.098 352.911 565.903 353.863C561.126 357.638 556.355 361.196 551.589 364.536C542.573 370.89 533.147 376.641 523.372 381.753C504.878 391.345 487.205 397.043 471.445 398.295C463.567 398.918 456.156 398.425 449.385 396.748C446.049 395.934 442.801 394.792 439.689 393.339C438.159 392.62 436.666 391.823 435.218 390.95C434.858 390.731 434.5 390.507 434.142 390.278H435.186V388.1Z" fill="#B2B1F6"/>
<path d="M435.186 385.97V240.269H433.279C434.549 237.471 435.868 234.663 437.237 231.845C448.2 209.3 462.39 186.144 479.561 163.567C488.146 152.279 497.072 141.668 506.196 131.808C508.479 129.341 510.773 126.922 513.079 124.553V124.662H570.802V347.882H571.09C570.513 348.366 569.913 348.851 569.322 349.324C568.145 350.286 566.966 351.231 565.785 352.16C561.07 355.887 556.358 359.398 551.65 362.692C542.748 368.973 533.442 374.659 523.791 379.713C505.533 389.181 488.085 394.812 472.527 396.041C464.738 396.656 457.446 396.171 450.75 394.518C447.456 393.712 444.25 392.584 441.178 391.148C439.667 390.441 438.195 389.655 436.767 388.791C436.052 388.359 435.349 387.908 434.658 387.438H435.172L435.186 385.97Z" fill="#B3B2F5"/>
<path d="M435.187 383.847V240.035H434.898C436.15 237.277 437.453 234.507 438.807 231.724C449.625 209.473 463.631 186.617 480.58 164.331C489.052 153.19 497.86 142.718 506.869 132.985C509.121 130.55 511.385 128.163 513.66 125.825C514.237 125.248 514.814 124.671 515.368 124.094V124.671H570.803V344.812H572.66C570.335 346.745 568.013 348.634 565.694 350.481C561.037 354.16 556.388 357.622 551.745 360.866C542.959 367.061 533.773 372.67 524.247 377.656C488.207 396.347 455.363 399.883 434.261 383.835L435.187 383.847Z" fill="#B5B3F5"/>
<path d="M435.876 381.724C435.227 381.228 434.589 380.717 433.969 380.192H435.198V243.881H434.701C435.292 242.519 435.893 241.165 436.505 239.819C437.743 237.096 439.029 234.361 440.362 231.615C451.035 209.658 464.859 187.102 481.583 165.111C489.949 154.117 498.638 143.78 507.529 134.177C509.75 131.776 511.984 129.421 514.23 127.112C515.352 125.958 516.477 124.814 517.606 123.682V124.677H570.802V343.194H572.455C570.159 345.117 567.862 346.985 565.566 348.796C560.973 352.425 556.385 355.845 551.802 359.055C543.131 365.17 534.066 370.705 524.665 375.625C489.098 394.071 456.69 397.561 435.876 381.724Z" fill="#B6B3F5"/>
<path d="M437.48 379.601C436.201 378.628 434.975 377.587 433.808 376.482H435.187V247.608H434.61C436.852 242.283 439.291 236.91 441.926 231.488C452.458 209.823 466.097 187.569 482.602 165.87C490.852 155.02 499.429 144.825 508.199 135.348C510.391 132.979 512.596 130.655 514.814 128.376C515.918 127.239 517.027 126.112 518.143 124.995C518.699 124.438 519.256 123.881 519.813 123.33V124.672H570.802V341.585H572.245C569.979 343.477 567.714 345.32 565.448 347.112C560.919 350.695 556.394 354.068 551.872 357.232C543.317 363.265 534.373 368.727 525.098 373.58C490.004 391.784 458.026 395.225 437.48 379.601Z" fill="#B7B4F4"/>
<path d="M439.095 377.474C437.833 376.516 436.623 375.49 435.472 374.402C434.895 373.859 434.335 373.3 433.79 372.729H435.186V251.188H434.632C435.163 249.882 435.705 248.572 436.257 247.259C438.466 242.006 440.87 236.706 443.469 231.358C453.854 209.984 467.315 188.03 483.591 166.625C491.732 155.922 500.19 145.854 508.845 136.516C513.172 131.843 517.54 127.349 521.95 123.035V124.662H570.802V339.974H572.04C569.807 341.842 567.572 343.659 565.335 345.427C560.864 348.961 556.398 352.291 551.938 355.414C543.498 361.365 534.674 366.752 525.525 371.54C490.91 389.492 459.364 392.891 439.095 377.474Z" fill="#B8B4F4"/>
<path d="M440.711 375.351C438.221 373.459 435.941 371.307 433.908 368.932H435.186V254.646H434.782C435.779 252.085 436.821 249.509 437.909 246.918C440.09 241.737 442.463 236.509 445.026 231.233C455.273 210.154 468.543 188.503 484.6 167.389C492.629 156.833 500.972 146.907 509.505 137.693C513.775 133.077 518.085 128.645 522.435 124.396V124.662H570.802V338.364H571.835C569.635 340.205 567.431 341.997 565.223 343.742C560.815 347.226 556.411 350.509 552.01 353.59C543.687 359.461 534.985 364.775 525.96 369.497C491.815 387.204 460.7 390.554 440.711 375.351Z" fill="#B9B5F3"/>
<path d="M442.324 373.228C439.871 371.361 437.624 369.239 435.619 366.898C435.115 366.321 434.627 365.716 434.154 365.101H435.187V261.743H433.687C437.41 251.304 441.716 241.082 446.582 231.124C456.679 210.339 469.773 188.985 485.605 168.165C493.524 157.757 501.76 147.972 510.166 138.882C514.374 134.335 518.624 129.965 522.914 125.77C523.987 124.724 525.061 123.687 526.134 122.66V124.68H570.802V336.749H571.63C569.457 338.563 567.284 340.33 565.111 342.051C560.76 345.486 556.417 348.724 552.08 351.765C543.876 357.553 535.299 362.792 526.405 367.449C492.722 384.926 462.039 388.22 442.324 373.228Z" fill="#BAB5F3"/>
<path d="M443.953 371.106C441.526 369.266 439.302 367.175 437.318 364.866C436.329 363.712 435.395 362.504 434.514 361.242H435.177V264.852H434.145C434.556 263.63 434.98 262.406 435.417 261.179C439.091 250.888 443.337 240.81 448.136 230.992C458.1 210.51 471.001 189.451 486.611 168.92C494.4 158.658 502.529 149.014 510.826 140.048C514.975 135.565 519.164 131.256 523.395 127.121C524.451 126.088 525.509 125.066 526.569 124.055V124.663H570.802V335.146H571.422C569.281 336.937 567.139 338.679 564.995 340.374C560.708 343.764 556.426 346.956 552.148 349.948C544.056 355.656 535.596 360.822 526.823 365.414C493.627 382.619 463.376 385.887 443.953 371.106Z" fill="#BBB6F2"/>
<path d="M445.554 368.981C440.754 365.298 436.765 360.664 433.836 355.37H435.186V267.839H434.722C435.491 265.454 436.302 263.05 437.156 260.627C440.777 250.484 444.962 240.552 449.691 230.876C459.514 210.682 472.224 189.911 487.618 169.686C495.309 159.569 503.305 150.069 511.484 141.224C515.575 136.801 519.705 132.553 523.874 128.482C524.915 127.462 525.958 126.455 527.004 125.458C527.526 124.959 528.049 124.466 528.571 123.973V124.662H570.802V333.524H571.217C569.102 335.289 566.986 337.007 564.871 338.676C560.64 342.017 556.419 345.163 552.209 348.115C544.233 353.741 535.893 358.834 527.244 363.359C494.53 380.339 464.724 383.549 445.554 368.981Z" fill="#BCB7F2"/>
<path d="M447.17 366.859C442.443 363.227 438.515 358.661 435.631 353.444C434.883 352.117 434.188 350.741 433.548 349.316H435.195V274.181H434.376C435.693 269.565 437.2 264.862 438.896 260.071C442.463 250.073 446.586 240.283 451.246 230.747C460.925 210.841 473.459 190.388 488.622 170.454C496.203 160.484 504.085 151.125 512.145 142.404C516.184 138.052 520.253 133.866 524.354 129.847C526.408 127.839 528.467 125.874 530.533 123.953V124.666H570.802V331.926H571.013C568.93 333.657 566.848 335.349 564.767 337.003C560.601 340.296 556.442 343.397 552.287 346.307C544.426 351.851 536.206 356.869 527.683 361.328C495.436 378.052 466.051 381.216 447.17 366.859Z" fill="#BDB7F1"/>
<path d="M448.786 364.73C444.124 361.154 440.251 356.654 437.408 351.512C435.902 348.821 434.634 346.005 433.617 343.094H435.187V280.205H434.37C434.926 277.966 435.529 275.708 436.179 273.431C437.479 268.873 438.964 264.238 440.633 259.526C444.148 249.677 448.21 240.031 452.801 230.635C462.339 211.018 474.688 190.87 489.629 171.225C497.098 161.402 504.864 152.167 512.806 143.588C516.775 139.299 520.785 135.175 524.835 131.215C526.857 129.236 528.886 127.301 530.922 125.411C531.43 124.938 531.941 124.467 532.449 124V124.672H570.817V330.314C568.769 332.028 566.717 333.695 564.663 335.317C560.561 338.559 556.463 341.614 552.368 344.482C544.626 349.944 536.53 354.889 528.136 359.284C496.342 375.762 467.387 378.88 448.786 364.73Z" fill="#BEB8F1"/>
<path d="M450.401 362.609C445.809 359.087 441.993 354.656 439.191 349.593C437.71 346.942 436.461 344.168 435.458 341.302C434.938 339.829 434.469 338.312 434.05 336.753H435.186V285.87H434.696C441.977 251.373 461.199 210.683 490.633 171.98C497.992 162.304 505.634 153.208 513.463 144.756C517.375 140.525 521.325 136.462 525.314 132.567C527.309 130.621 529.308 128.715 531.312 126.85C532.312 125.917 533.315 124.996 534.321 124.086V124.663H570.802V327.432H572.115L570.597 328.707C568.578 330.393 566.559 332.036 564.539 333.634C560.5 336.83 556.462 339.84 552.423 342.664C544.794 348.041 536.817 352.908 528.545 357.232C497.248 373.476 468.725 376.56 450.401 362.609Z" fill="#BFB8F0"/>
<path d="M452.031 360.486C443.007 353.623 437.347 343.224 434.84 330.294H435.201V309.122H433.418C433.784 300.977 434.836 292.878 436.562 284.91C443.734 250.935 462.664 210.862 491.663 172.745C506.156 153.685 521.795 136.918 537.661 122.918V124.649H570.837V325.84H571.919C571.422 326.261 570.925 326.679 570.427 327.095C568.425 328.76 566.424 330.378 564.424 331.95C560.443 335.096 556.466 338.06 552.495 340.841C544.982 346.145 537.125 350.946 528.978 355.213C498.154 371.189 470.064 374.212 452.031 360.486Z" fill="#C0B9F0"/>
<path d="M453.629 358.362C444.746 351.606 439.173 341.364 436.703 328.631C434.234 315.897 434.872 300.688 438.403 283.956C445.462 250.492 464.101 211.048 492.637 173.516C506.909 154.751 522.308 138.241 537.929 124.457V124.671H570.802V324.249H571.667C571.177 324.664 570.686 325.074 570.199 325.483C568.239 327.122 566.279 328.715 564.32 330.264C560.4 333.362 556.485 336.28 552.575 339.019C545.177 344.236 537.441 348.958 529.419 353.155C499.053 368.897 471.399 371.877 453.629 358.362Z" fill="#C1BAEF"/>
<path d="M455.245 356.238C437.754 342.936 433.305 315.917 440.243 282.986C447.181 250.056 465.54 211.218 493.639 174.272C507.688 155.809 522.842 139.547 538.221 125.979C539.182 125.131 540.144 124.294 541.106 123.467V124.661H570.802V322.658H571.425C570.943 323.065 570.462 323.472 569.983 323.873C568.06 325.487 566.132 327.055 564.199 328.578C560.339 331.628 556.485 334.502 552.636 337.198C545.355 342.335 537.742 346.984 529.846 351.114C499.962 366.609 472.738 369.54 455.245 356.238Z" fill="#C2BAEF"/>
<path d="M456.86 354.114C439.647 341.023 435.27 314.431 442.107 282.025C448.944 249.62 467.003 211.396 494.655 175.036C508.481 156.861 523.396 140.865 538.53 127.511C539.476 126.674 540.423 125.849 541.371 125.036C541.845 124.628 542.319 124.224 542.794 123.824V124.661H570.802V319.854H572.617C571.669 320.668 570.721 321.471 569.773 322.263C567.874 323.85 565.976 325.393 564.078 326.893C560.281 329.895 556.489 332.722 552.7 335.374C545.533 340.43 538.039 345.006 530.268 349.072C500.868 364.321 474.074 367.206 456.86 354.114Z" fill="#C3BBEE"/>
<path d="M458.476 351.993C441.539 339.112 437.232 312.949 443.953 281.072C450.675 249.195 468.446 211.579 495.652 175.808C509.254 157.922 523.924 142.188 538.821 129.047C540.683 127.407 542.546 125.806 544.412 124.244V124.668H570.794V318.286H572.357C571.424 319.088 570.492 319.879 569.559 320.658C567.699 322.217 565.834 323.735 563.962 325.21C560.225 328.164 556.494 330.946 552.769 333.556C545.717 338.529 538.344 343.031 530.697 347.031C501.774 362.035 475.412 364.873 458.476 351.993Z" fill="#C4BBEE"/>
<path d="M460.091 349.867C443.432 337.2 439.197 311.467 445.814 280.106C452.432 248.745 469.917 211.753 496.665 176.567C510.045 158.969 524.481 143.498 539.127 130.574C540.958 128.958 542.792 127.383 544.628 125.848C545.546 125.079 546.464 124.322 547.384 123.578V124.663H570.803V316.712H572.115C571.198 317.502 570.28 318.28 569.363 319.045C567.528 320.584 565.692 322.077 563.853 323.526C560.178 326.432 556.507 329.167 552.842 331.733C545.906 336.627 538.654 341.055 531.133 344.989C502.68 359.745 476.751 362.537 460.091 349.867Z" fill="#C5BCEE"/>
<path d="M461.707 347.743C445.324 335.287 441.158 309.984 447.666 279.145C454.174 248.306 471.359 211.929 497.672 177.331C510.83 160.022 525.023 144.813 539.424 132.105C543.024 128.93 546.633 125.913 550.251 123.053V124.662H570.802V315.142H571.864C570.96 315.911 570.058 316.676 569.158 317.435C567.352 318.945 565.545 320.413 563.737 321.84C560.125 324.696 556.517 327.389 552.911 329.918C546.09 334.729 538.959 339.083 531.563 342.952C503.583 357.457 478.087 360.203 461.707 347.743Z" fill="#C6BDED"/>
<path d="M463.322 345.62C447.216 333.374 443.128 308.498 449.521 278.184C455.914 247.87 472.802 212.124 498.676 178.083C511.611 161.063 525.565 146.117 539.721 133.625C543.26 130.5 546.808 127.533 550.366 124.726C551.254 124.024 552.143 123.331 553.032 122.648V124.651H570.802V313.569H571.61C570.725 314.339 569.839 315.091 568.95 315.825C567.177 317.308 565.402 318.75 563.625 320.152C560.07 322.962 556.522 325.608 552.98 328.089C546.275 332.817 539.265 337.097 531.995 340.9C504.489 355.168 479.437 357.869 463.322 345.62Z" fill="#C8BDED"/>
<path d="M464.935 343.497C433.28 319.44 448.841 245.716 499.683 178.86C512.393 162.148 526.105 147.444 540.021 135.169C543.497 132.092 546.983 129.176 550.482 126.422C551.353 125.734 552.225 125.054 553.098 124.383V124.671H570.802V312H571.359C570.488 312.747 569.617 313.485 568.746 314.216C566.999 315.674 565.254 317.092 563.51 318.471C560.019 321.233 556.532 323.829 553.049 326.26C546.46 330.909 539.571 335.115 532.426 338.852C505.4 352.881 480.761 355.533 464.935 343.497Z" fill="#C9BEEC"/>
<path d="M466.551 341.364C435.455 317.709 450.739 245.3 500.69 179.615C513.175 163.195 526.653 148.747 540.318 136.689C543.734 133.675 547.159 130.811 550.594 128.098C552.312 126.752 554.026 125.435 555.738 124.148V124.653H570.802V310.428H571.108C570.251 311.162 569.394 311.888 568.538 312.606C566.834 314.036 565.116 315.43 563.386 316.786C559.955 319.497 556.529 322.051 553.11 324.448C546.636 329.014 539.867 333.147 532.847 336.818C506.301 350.596 482.1 353.192 466.551 341.364Z" fill="#CABEEC"/>
<path d="M468.166 339.25C437.624 316.022 452.634 244.899 501.693 180.392C513.959 164.265 527.189 150.078 540.615 138.233C543.973 135.273 547.339 132.46 550.712 129.795C552.397 128.462 554.081 127.168 555.763 125.915C556.606 125.288 557.447 124.67 558.288 124.062V124.665H570.805V308.856H570.857C570.018 309.581 569.178 310.294 568.335 310.996C566.649 312.395 564.964 313.767 563.281 315.113C559.912 317.777 556.546 320.286 553.184 322.64C546.824 327.123 540.174 331.182 533.279 334.791C507.206 348.303 483.438 350.862 468.166 339.25Z" fill="#CBBFEB"/>
<path d="M469.781 337.127C439.793 314.319 454.532 244.489 502.7 181.156C514.741 165.321 527.731 151.393 540.912 139.761C547.222 134.171 553.839 128.939 560.734 124.088V124.665H570.802V306.216H571.84L570.597 307.286C569.772 307.996 568.946 308.696 568.119 309.386C566.469 310.765 564.816 312.111 563.16 313.425C559.854 316.042 556.551 318.505 553.25 320.813C547.008 325.217 540.48 329.203 533.711 332.745C508.109 346.015 484.773 348.528 469.781 337.127Z" fill="#CCBFEB"/>
<path d="M471.397 335.001C441.972 312.62 456.431 244.083 503.707 181.92C515.535 166.38 528.277 152.709 541.21 141.293C547.402 135.806 553.896 130.67 560.662 125.909C561.47 125.343 562.278 124.786 563.085 124.238V124.662H570.8V303.602H572.776C559.837 315.015 546.714 324.174 534.148 330.694C509.015 343.728 486.113 346.194 471.397 335.001Z" fill="#CDC0EA"/>
<path d="M473.013 332.877C444.135 310.918 458.326 243.673 504.711 182.699C516.305 167.45 528.817 154.038 541.51 142.836C547.586 137.455 553.958 132.417 560.596 127.746C562.183 126.634 563.766 125.56 565.347 124.523V124.676H570.803V302.093H572.482C559.788 313.292 546.91 322.287 534.581 328.674C509.921 341.439 487.448 343.857 473.013 332.877Z" fill="#CEC1EA"/>
<path d="M474.625 330.754C446.305 309.216 460.224 243.28 505.715 183.449C517.09 168.494 529.37 155.339 541.807 144.354C547.767 139.076 554.016 134.134 560.526 129.552C563.638 127.373 566.735 125.342 569.818 123.459V124.662H570.802V300.538H572.184C559.733 311.524 547.103 320.337 535.01 326.609C510.827 339.149 488.786 341.523 474.625 330.754Z" fill="#CFC1E9"/>
<path d="M476.24 328.63C448.477 307.513 462.128 242.856 506.721 184.213C517.871 169.552 529.898 156.654 542.104 145.885C547.947 140.71 554.074 135.866 560.457 131.374C563.509 129.238 566.546 127.246 569.567 125.4C570.323 124.938 571.076 124.487 571.826 124.047L570.802 124.661V299.006H571.884C559.681 309.775 547.299 318.415 535.443 324.565C511.747 336.861 490.125 339.189 476.24 328.63Z" fill="#D0C2E9"/>
<path d="M477.856 326.508C450.646 305.815 464.009 242.45 507.725 184.979C518.653 170.609 530.441 157.971 542.401 147.418C548.128 142.347 554.133 137.599 560.388 133.196C563.379 131.102 566.355 129.15 569.316 127.343C570.055 126.889 570.793 126.446 571.532 126.016H570.802V297.475H571.587C559.626 308.031 547.493 316.498 535.873 322.524C512.635 334.574 491.461 336.853 477.856 326.508Z" fill="#D1C2E8"/>
<path d="M479.472 324.384C452.816 304.113 465.913 242.04 508.732 185.742C519.435 171.667 530.983 159.286 542.701 148.949C548.31 143.98 554.191 139.328 560.319 135.016C563.248 132.956 566.164 131.045 569.066 129.283C569.789 128.839 570.512 128.406 571.235 127.982H570.802V295.946H571.29C559.572 306.282 547.686 314.579 536.306 320.481C513.541 332.286 492.8 334.519 479.472 324.384Z" fill="#D2C3E8"/>
<path d="M481.086 322.259C454.987 302.42 467.813 241.633 509.727 186.507C520.207 172.726 531.516 160.601 542.989 150.479C548.483 145.611 554.246 141.055 560.249 136.83C563.116 134.819 565.971 132.946 568.814 131.214C569.524 130.781 570.231 130.357 570.937 129.941H570.802V294.405H570.992C559.519 304.528 547.879 312.649 536.735 318.43C514.446 329.998 494.149 332.185 481.086 322.259Z" fill="#D3C3E8"/>
<path d="M482.702 320.136C457.157 300.709 469.72 241.224 510.743 187.272C521.001 173.786 532.067 161.929 543.295 152.011C548.67 147.25 554.307 142.792 560.18 138.66C562.988 136.694 565.781 134.862 568.56 133.164C569.951 132.316 571.335 131.504 572.712 130.727H570.802V291.002H572.798C572.098 291.636 571.396 292.263 570.692 292.883C559.464 302.789 548.072 310.74 537.168 316.397C515.352 327.708 495.473 329.849 482.702 320.136Z" fill="#D4C4E7"/>
<path d="M484.318 318.011C459.327 299.006 471.625 240.816 511.747 188.035C521.783 174.84 532.61 163.226 543.592 153.541C548.851 148.883 554.365 144.523 560.111 140.482C562.857 138.559 565.59 136.766 568.31 135.105C569.667 134.276 571.02 133.48 572.369 132.719H570.802V289.512H572.452C571.77 290.131 571.084 290.744 570.395 291.35C559.41 301.043 548.269 308.82 537.598 314.353C516.259 325.419 496.812 327.517 484.318 318.011Z" fill="#D5C5E7"/>
<path d="M485.931 315.889C461.499 297.308 473.506 240.407 512.76 188.801C522.568 175.9 533.155 164.551 543.898 155.074C549.041 150.518 554.434 146.255 560.053 142.303C562.746 140.422 565.418 138.67 568.07 137.047C569.399 136.235 570.722 135.457 572.04 134.713H570.814V288.021H572.121C571.451 288.627 570.778 289.226 570.101 289.819C559.361 299.295 548.465 306.9 538.031 312.32C517.162 323.133 498.148 325.181 485.931 315.889Z" fill="#D6C5E6"/>
<path d="M487.546 313.766C463.669 295.606 475.398 240.001 513.766 189.566C523.353 176.959 533.698 165.867 544.196 156.607C549.22 152.155 554.489 147.988 559.979 144.124C562.604 142.287 565.215 140.576 567.814 138.989C569.112 138.197 570.404 137.436 571.691 136.707H570.808V286.531H571.772C571.118 287.125 570.463 287.711 569.807 288.29C559.309 297.551 548.661 304.982 538.466 310.27C518.068 320.846 499.487 322.845 487.546 313.766Z" fill="#D7C6E6"/>
<path d="M489.161 311.65C465.838 293.911 477.302 239.598 514.764 190.337C524.131 178.021 534.234 167.189 544.478 158.142C549.386 153.796 554.533 149.727 559.895 145.954C562.456 144.156 565.007 142.482 567.548 140.934C568.815 140.165 570.078 139.422 571.336 138.707H570.793V285.04H571.414C570.775 285.617 570.136 286.194 569.495 286.771C559.243 295.818 548.84 303.076 538.881 308.24C518.973 318.553 500.822 320.509 489.161 311.65Z" fill="#D8C6E5"/>
<path d="M490.777 309.515C468.01 292.206 479.2 239.183 515.771 191.093C524.913 179.072 534.777 168.496 544.784 159.666C549.576 155.423 554.6 151.45 559.834 147.766C562.334 146.014 564.825 144.379 567.306 142.862C568.539 142.11 569.772 141.388 571.004 140.695H570.802V283.549H571.091C570.468 284.115 569.843 284.673 569.216 285.225C559.208 294.056 549.057 301.141 539.335 306.183C519.879 316.266 502.161 318.176 490.777 309.515Z" fill="#D9C7E5"/>
<path d="M492.392 307.393C470.179 290.502 481.095 238.775 516.775 191.859C525.695 180.132 535.319 169.813 545.084 161.199C549.757 157.058 554.658 153.182 559.765 149.59C562.205 147.88 564.634 146.287 567.052 144.81C568.259 144.071 569.462 143.365 570.661 142.69C571.261 142.351 571.858 142.02 572.452 141.697H570.802V280.385H572.562C571.344 281.516 570.126 282.619 568.907 283.694C559.141 292.323 549.249 299.223 539.753 304.151C520.785 313.979 503.499 315.84 492.392 307.393Z" fill="#DAC7E4"/>
<path d="M494.008 305.27C472.349 288.801 482.994 238.377 517.782 192.623C525.979 181.778 535.223 171.765 545.381 162.731C549.939 158.694 554.718 154.915 559.696 151.411C562.077 149.743 564.445 148.19 566.801 146.752C567.978 146.032 569.151 145.343 570.321 144.683C570.898 144.354 571.48 144.032 572.066 143.717H570.803V278.937H572.173C570.988 280.039 569.801 281.115 568.61 282.165C559.09 290.563 549.432 297.305 540.186 302.1C521.688 311.692 504.824 313.506 494.008 305.27Z" fill="#DBC8E4"/>
<path d="M495.623 303.146C474.521 287.098 484.892 237.949 518.786 193.39C526.774 182.82 535.781 173.061 545.678 164.253C550.123 160.323 554.782 156.643 559.635 153.23C561.954 151.607 564.262 150.094 566.559 148.692C567.712 147.992 568.855 147.319 569.986 146.673C570.563 146.353 571.122 146.038 571.691 145.732H570.825V277.488H571.806C570.652 278.561 569.498 279.61 568.344 280.633C559.067 288.817 549.656 295.383 540.65 300.056C522.594 309.403 506.173 311.169 495.623 303.146Z" fill="#DCC9E3"/>
<path d="M497.237 301.023C476.691 285.396 486.791 237.557 519.793 194.154C527.57 183.865 536.34 174.365 545.976 165.791C550.299 161.961 554.834 158.377 559.558 155.053C561.815 153.469 564.063 151.995 566.299 150.631C567.415 149.95 568.527 149.296 569.637 148.669C570.191 148.358 570.742 148.052 571.296 147.752H570.803V276.04H571.38C570.264 277.086 569.138 278.107 568.001 279.101C558.983 287.069 549.827 293.476 541.046 298.014C523.5 307.113 507.512 308.835 497.237 301.023Z" fill="#DDC9E3"/>
<path d="M498.852 298.901C478.86 283.698 488.685 237.143 520.796 194.92C536.845 173.806 555.44 157.775 572.513 148.922H570.802V274.594H571.004C569.912 275.609 568.815 276.601 567.715 277.571C558.928 285.325 550.014 291.548 541.463 295.973C524.405 304.827 508.862 306.503 498.852 298.901Z" fill="#DECAE3"/>
<path d="M500.467 296.778C481.032 281.996 490.584 236.736 521.815 195.685C537.422 175.159 555.484 159.572 572.08 150.967H570.802V271.645H572.207C571.676 272.151 571.145 272.651 570.614 273.145C569.553 274.132 568.487 275.093 567.418 276.03C558.873 283.571 550.207 289.617 541.908 293.916C525.305 302.539 510.186 304.166 500.467 296.778Z" fill="#DFCAE2"/>
<path d="M502.083 294.651C483.202 280.293 492.482 236.325 522.807 196.448C537.973 176.509 555.527 161.369 571.65 153.006H570.802V270.237H571.774C571.257 270.729 570.741 271.21 570.225 271.679C569.193 272.641 568.158 273.579 567.121 274.495C558.822 281.816 550.389 287.693 542.341 291.873C526.214 300.25 511.522 301.843 502.083 294.651Z" fill="#E0CBE2"/>
<path d="M503.698 292.528C485.371 278.592 494.38 235.919 523.814 197.213C538.527 177.862 555.57 163.173 571.22 155.049H570.802V268.832H571.339C570.839 269.308 570.337 269.781 569.836 270.246C568.834 271.179 567.829 272.089 566.821 272.978C558.766 280.086 550.594 285.789 542.77 289.845C527.12 297.96 512.86 299.498 503.698 292.528Z" fill="#E1CBE1"/>
<path d="M505.314 290.403C487.543 276.891 496.275 235.508 524.821 197.988C539.092 179.236 555.613 164.971 570.788 157.101C571.265 156.855 571.738 156.616 572.207 156.383H570.802V266.035H572.354C570.431 267.924 568.487 269.731 566.524 271.456C558.715 278.348 550.79 283.878 543.2 287.813C528.026 295.671 514.199 297.16 505.314 290.403Z" fill="#E2CCE1"/>
<path d="M506.926 288.284C489.712 275.189 498.188 235.102 525.825 198.741C539.652 180.567 555.657 166.757 570.358 159.133C570.817 158.894 571.275 158.663 571.731 158.438H570.802V264.663H571.875C570.004 266.494 568.121 268.244 566.227 269.913C558.66 276.591 550.98 281.937 543.633 285.759C528.932 293.384 515.535 294.826 506.926 288.284Z" fill="#E3CCE0"/>
<path d="M508.542 286.158C491.885 273.488 500.072 234.693 526.831 199.507C540.211 181.909 555.7 168.552 569.925 161.176C570.817 160.714 571.702 160.277 572.579 159.863H570.802V263.302H571.379C569.571 265.073 567.75 266.767 565.915 268.385C558.591 274.844 551.162 280.028 544.048 283.718C529.837 291.097 516.873 292.493 508.542 286.158Z" fill="#E4CDE0"/>
<path d="M510.158 284.035C494.055 271.786 501.968 234.286 527.836 200.271C540.769 183.251 555.744 170.35 569.496 163.219C570.355 162.77 571.21 162.347 572.06 161.949H570.803V261.94H570.915C569.163 263.652 567.402 265.287 565.633 266.844C558.554 273.09 551.37 278.095 544.496 281.667C530.741 288.81 518.209 290.157 510.158 284.035Z" fill="#E5CEDF"/>
<path d="M511.773 281.908C496.224 270.081 503.866 233.876 528.842 201.035C541.328 184.615 555.787 172.146 569.066 165.263C569.893 164.832 570.717 164.424 571.538 164.037H570.802V259.323H571.699C571.278 259.747 570.857 260.162 570.436 260.578C568.745 262.232 567.044 263.813 565.333 265.321C558.498 271.35 551.557 276.191 544.922 279.629C531.652 286.518 519.536 287.822 511.773 281.908Z" fill="#E6CEDF"/>
<path d="M513.388 279.784C498.387 268.383 505.764 233.468 529.832 201.799C541.873 185.967 555.816 173.943 568.618 167.302C569.42 166.887 570.216 166.492 571.004 166.119H570.788V256.772H572.374C571.567 257.603 570.755 258.417 569.94 259.215C568.311 260.808 566.676 262.332 565.035 263.788C558.444 269.604 551.765 274.268 545.358 277.589C532.552 284.244 520.886 285.488 513.388 279.784Z" fill="#E7CFDF"/>
<path d="M515.003 277.662C500.579 266.682 507.662 233.06 530.853 202.564C542.447 187.315 555.884 175.738 568.203 169.345C569.741 168.547 571.263 167.83 572.769 167.193H570.802V255.501H571.82C571.041 256.303 570.259 257.087 569.475 257.855C567.905 259.393 566.326 260.861 564.738 262.257C558.391 267.859 551.952 272.354 545.787 275.547C533.458 281.937 522.221 283.152 515.003 277.662Z" fill="#E8CFDE"/>
<path d="M516.619 275.538C502.734 264.979 509.557 232.652 531.857 203.328C543.007 188.667 555.916 177.534 567.77 171.387C569.253 170.617 570.716 169.928 572.161 169.318H570.802V254.242H571.249C570.503 255.011 569.752 255.765 568.996 256.504C567.484 257.977 565.966 259.388 564.441 260.739C558.337 266.122 552.146 270.443 546.217 273.515C534.364 279.654 523.574 280.817 516.619 275.538Z" fill="#E9D0DE"/>
<path d="M518.232 273.416C504.907 263.279 511.459 232.244 532.864 204.094C543.567 190.022 555.96 179.333 567.341 173.431C568.762 172.692 570.167 172.03 571.555 171.443H570.802V251.841H571.751C571.394 252.216 571.036 252.591 570.675 252.96C569.956 253.698 569.235 254.423 568.512 255.132C567.064 256.548 565.606 257.903 564.138 259.197C558.282 264.367 552.337 268.512 546.648 271.463C535.27 277.366 524.896 278.476 518.232 273.416Z" fill="#EAD0DD"/>
<path d="M519.847 271.292C507.076 261.579 513.353 231.836 533.867 204.86C544.126 191.371 556.003 181.129 566.907 175.472C568.273 174.765 569.619 174.13 570.946 173.568H570.799V249.52H572.161C569.526 252.373 566.749 255.091 563.841 257.664C558.227 262.617 552.532 266.593 547.077 269.42C536.172 275.077 526.234 276.147 519.847 271.292Z" fill="#EBD1DD"/>
<path d="M521.463 269.169C509.246 259.877 515.252 231.426 534.875 205.624C544.683 192.721 556.047 182.924 566.478 177.515C567.782 176.838 569.07 176.231 570.341 175.694C570.978 175.426 571.607 175.175 572.233 174.941H570.791V248.343H571.495C568.975 251.072 566.319 253.672 563.536 256.132C558.164 260.872 552.718 264.674 547.502 267.383C537.079 272.789 527.573 273.813 521.463 269.169Z" fill="#ECD1DC"/>
<path d="M523.078 267.042C511.418 258.174 517.147 231.019 535.878 206.389C545.245 194.073 556.086 184.721 566.048 179.56C567.29 178.913 568.519 178.336 569.734 177.829C570.34 177.572 570.943 177.335 571.54 177.113H570.802V247.166H570.845C568.439 249.77 565.904 252.252 563.249 254.603C558.123 259.123 552.922 262.752 547.942 265.334C537.998 270.501 528.908 271.476 523.078 267.042Z" fill="#EDD2DC"/>
<path d="M524.694 264.917C513.588 256.47 519.046 230.607 536.885 207.151C545.805 195.421 556.13 186.516 565.615 181.597C567.837 180.43 570.153 179.451 572.539 178.672H570.808V244.033H571.962C571.385 244.697 570.796 245.349 570.194 245.989C567.904 248.471 565.489 250.835 562.959 253.072C558.077 257.379 553.124 260.835 548.382 263.295C538.89 268.214 530.247 269.143 524.694 264.917Z" fill="#EED2DC"/>
<path d="M526.309 262.797C515.757 254.775 520.944 230.199 537.892 207.919C546.365 196.775 556.173 188.302 565.185 183.643C567.292 182.535 569.489 181.606 571.751 180.865H570.793V242.952H571.197C570.64 243.583 570.08 244.204 569.518 244.813C567.341 247.17 565.047 249.415 562.644 251.541C558.008 255.631 553.303 258.917 548.797 261.254C539.796 265.924 531.583 266.81 526.309 262.797Z" fill="#EFD3DB"/>
<path d="M527.925 260.674C517.929 253.072 522.842 229.806 538.887 208.683C546.916 198.128 556.196 190.111 564.744 185.686C566.742 184.634 568.826 183.754 570.972 183.055H570.793V240.047H572.04C571.001 241.288 569.943 242.484 568.866 243.636C566.805 245.869 564.632 247.996 562.355 250.009C557.962 253.886 553.505 256.996 549.235 259.211C540.699 263.637 532.921 264.473 527.925 260.674Z" fill="#F0D4DB"/>
<path d="M529.538 258.549C520.113 251.357 524.729 229.386 539.903 209.446C547.484 199.476 556.26 191.907 564.323 187.726C566.21 186.733 568.178 185.901 570.205 185.24C570.678 185.09 571.149 184.951 571.613 184.83H570.802V239.065H571.192C570.211 240.234 569.217 241.363 568.209 242.452C566.261 244.56 564.208 246.57 562.058 248.472C557.907 252.136 553.692 255.073 549.668 257.164C541.605 261.347 534.249 262.138 529.538 258.549Z" fill="#F1D4DA"/>
<path d="M531.153 256.427C522.268 249.668 526.636 228.978 540.907 210.212C548.044 200.828 556.303 193.705 563.893 189.77C565.674 188.835 567.531 188.053 569.444 187.431C570.296 187.154 571.163 186.923 572.04 186.738H570.794V236.415H571.723C571.271 236.992 570.813 237.552 570.35 238.094C569.427 239.194 568.49 240.257 567.54 241.282C565.642 243.33 563.703 245.222 561.753 246.948C557.847 250.392 553.883 253.159 550.089 255.126C542.511 259.061 535.596 259.805 531.153 256.427Z" fill="#F2D5DA"/>
<path d="M532.768 254.301C524.44 247.969 528.533 228.569 541.913 210.971C548.603 202.175 556.337 195.494 563.46 191.807C565.126 190.931 566.863 190.198 568.653 189.615C569.46 189.355 570.281 189.138 571.111 188.963H570.805V233.917H572.08C558.697 251.512 541.097 260.636 532.768 254.301Z" fill="#F3D5D9"/>
<path d="M534.384 252.178C526.595 246.267 530.429 228.162 542.917 211.741C549.163 203.531 556.389 197.297 563.03 193.855C566.348 192.124 569.521 191.112 572.348 190.887H570.802V233.152H571.07C558.585 249.573 542.159 258.092 534.384 252.178Z" fill="#F4D6D9"/>
<path d="M536 250.055C528.788 244.574 532.327 227.756 543.924 212.506C549.723 204.885 556.433 199.095 562.598 195.896C565.682 194.297 568.627 193.348 571.252 193.141H570.802V229.515H572.147C571.483 230.476 570.791 231.437 570.067 232.4C558.481 247.635 543.217 255.545 536 250.055Z" fill="#F5D6D9"/>
<path d="M537.615 247.929C530.951 242.861 534.225 227.343 544.922 213.277C550.276 206.241 556.461 200.895 562.162 197.944C565.006 196.47 567.727 195.593 570.15 195.4C570.736 195.356 571.324 195.356 571.91 195.4H570.796V226.299H572.715C571.615 228.079 570.392 229.862 569.054 231.621C558.357 245.697 544.279 252.998 537.615 247.929Z" fill="#F5D7D8"/>
<path d="M539.228 245.808C533.12 241.16 536.124 226.938 545.935 214.034C550.839 207.584 556.519 202.685 561.735 199.979C564.346 198.629 566.838 197.824 569.06 197.648C570.101 197.552 571.151 197.625 572.17 197.865H570.802V225.972H571.411C570.401 227.605 569.282 229.237 568.056 230.85C558.244 243.76 545.338 250.452 539.228 245.808Z" fill="#F6D7D8"/>
<path d="M540.844 243.684C535.29 239.461 538.019 226.528 546.939 214.799C551.399 208.937 556.563 204.482 561.306 202.022C563.677 200.793 565.942 200.063 567.964 199.901C568.911 199.816 569.865 199.883 570.791 200.1C571.219 200.205 571.636 200.352 572.034 200.539H570.803V221.226H572.534C570.995 224.354 569.153 227.325 567.035 230.094C558.13 241.821 546.397 247.896 540.844 243.684Z" fill="#F7D8D7"/>
<path d="M542.459 241.55C537.462 237.751 539.917 226.114 547.94 215.558C555.963 205.002 566.527 199.524 571.523 203.326H570.796V221.357H570.984C569.601 224.173 567.945 226.846 566.039 229.339C558.017 239.886 547.458 245.361 542.459 241.55Z" fill="#F8D8D7"/>
<path d="M544.074 239.435C539.631 236.056 541.815 225.711 548.949 216.33C556.083 206.948 565.474 202.079 569.916 205.457C572.137 207.145 572.7 210.578 571.817 214.758C570.935 218.938 568.606 223.871 565.038 228.567C557.904 237.946 548.517 242.813 544.074 239.435Z" fill="#F9D9D7"/>
<path d="M564.028 227.783C570.271 219.572 572.181 210.52 568.294 207.564C564.407 204.609 556.195 208.868 549.951 217.079C543.708 225.289 541.798 234.341 545.685 237.297C549.572 240.253 557.784 235.993 564.028 227.783Z" fill="#FAD9D6"/>
<path d="M564.89 226.754C570.283 219.681 571.941 211.878 568.592 209.325C565.244 206.772 558.158 210.435 552.765 217.508C547.372 224.581 545.714 232.384 549.063 234.937C552.411 237.49 559.497 233.827 564.89 226.754Z" fill="#FBDAD6"/>
<path d="M562.016 226.253C566.476 220.389 567.84 213.924 565.064 211.812C562.288 209.701 556.422 212.744 551.963 218.608C547.504 224.473 546.139 230.938 548.915 233.049C551.691 235.16 557.557 232.117 562.016 226.253Z" fill="#FCDAD5"/>
<path d="M561.012 225.492C564.579 220.8 565.67 215.628 563.448 213.938C561.226 212.249 556.533 214.682 552.966 219.373C549.399 224.064 548.308 229.237 550.53 230.926C552.752 232.616 557.445 230.183 561.012 225.492Z" fill="#FDDBD5"/>
<path d="M560.006 224.726C562.683 221.207 563.501 217.327 561.835 216.06C560.168 214.792 556.648 216.618 553.972 220.137C551.295 223.657 550.477 227.537 552.143 228.804C553.81 230.071 557.33 228.246 560.006 224.726Z" fill="#FDDBD5"/>
<path d="M553.765 226.692C552.654 225.85 553.188 223.262 554.985 220.923C556.782 218.583 559.116 217.36 560.227 218.205C561.337 219.051 560.804 221.635 559.006 223.975C557.209 226.315 554.875 227.538 553.765 226.692Z" fill="#FEDCD4"/>
<path d="M555.38 224.568C554.823 224.147 555.091 222.855 555.988 221.684C556.886 220.512 558.054 219.904 558.611 220.325C559.167 220.746 558.899 222.056 557.999 223.21C557.099 224.364 555.934 224.993 555.38 224.568Z" fill="#FFDCD4"/>
</g>
<path d="M510.813 129.279H495.177C494.794 129.279 494.427 129.127 494.157 128.857C493.886 128.586 493.734 128.219 493.734 127.837C493.734 127.454 493.886 127.088 494.157 126.817C494.427 126.546 494.794 126.395 495.177 126.395H510.813C511.195 126.395 511.562 126.546 511.832 126.817C512.103 127.088 512.255 127.454 512.255 127.837C512.255 128.219 512.103 128.586 511.832 128.857C511.562 129.127 511.195 129.279 510.813 129.279Z" fill="url(#paint4_linear_42_5965)"/>
<path d="M521.168 129.629C522.16 128.638 522.16 127.03 521.168 126.039C520.177 125.047 518.57 125.047 517.578 126.039C516.587 127.03 516.587 128.638 517.578 129.629C518.57 130.62 520.177 130.62 521.168 129.629Z" fill="url(#paint5_linear_42_5965)"/>
<path d="M521.227 127.834C521.227 128.201 521.118 128.559 520.914 128.863C520.711 129.168 520.422 129.405 520.083 129.546C519.745 129.686 519.372 129.722 519.013 129.651C518.654 129.579 518.324 129.403 518.065 129.144C517.806 128.885 517.63 128.555 517.558 128.196C517.487 127.837 517.523 127.464 517.663 127.126C517.804 126.787 518.041 126.498 518.346 126.295C518.65 126.091 519.008 125.982 519.375 125.982C519.618 125.982 519.859 126.03 520.084 126.123C520.309 126.216 520.513 126.352 520.685 126.524C520.857 126.696 520.993 126.9 521.086 127.125C521.179 127.35 521.227 127.591 521.227 127.834Z" fill="url(#paint6_linear_42_5965)"/>
<path d="M520.904 127.834C520.904 128.136 520.814 128.432 520.646 128.683C520.478 128.935 520.239 129.13 519.96 129.246C519.68 129.362 519.373 129.392 519.076 129.333C518.78 129.274 518.507 129.129 518.294 128.915C518.08 128.701 517.934 128.429 517.875 128.132C517.816 127.835 517.846 127.528 517.962 127.249C518.078 126.969 518.274 126.73 518.525 126.562C518.777 126.394 519.072 126.305 519.375 126.305C519.78 126.305 520.169 126.466 520.456 126.753C520.743 127.039 520.904 127.428 520.904 127.834Z" fill="url(#paint7_radial_42_5965)"/>
<path d="M520.459 127.308C520.459 127.77 519.972 128.145 519.375 128.145C518.778 128.145 518.29 127.77 518.29 127.308C518.29 126.847 518.775 126.475 519.375 126.475C519.975 126.475 520.459 126.832 520.459 127.308Z" fill="url(#paint8_linear_42_5965)"/>
<path d="M579.462 145.656H576.987V148.339H579.462V145.656Z" fill="#353535"/>
<path d="M426.526 148.34H429.001V145.657H426.526V148.34Z" fill="#353535"/>
<path d="M579.462 392.746H576.987V395.429H579.462V392.746Z" fill="#353535"/>
<path d="M426.526 395.428H429.001V392.745H426.526V395.428Z" fill="#353535"/>
<path d="M510.813 129.053H495.177C494.812 129.055 494.461 128.918 494.194 128.67C493.926 128.423 493.762 128.084 493.734 127.721C493.734 127.758 493.734 127.796 493.734 127.833C493.734 128.216 493.886 128.583 494.157 128.853C494.427 129.124 494.794 129.276 495.177 129.276H510.813C511.195 129.276 511.562 129.124 511.832 128.853C512.103 128.583 512.255 128.216 512.255 127.833C512.255 127.796 512.255 127.758 512.255 127.721C512.227 128.084 512.063 128.423 511.796 128.67C511.528 128.918 511.177 129.055 510.813 129.053Z" fill="#4E4E4E"/>
<path d="M556.499 120.629H449.492C444.631 120.634 439.971 122.567 436.534 126.004C433.096 129.441 431.162 134.101 431.156 138.962V140.24C431.162 135.379 433.096 130.719 436.534 127.282C439.971 123.845 444.631 121.912 449.492 121.907H556.499C561.36 121.912 566.02 123.845 569.458 127.282C572.895 130.719 574.829 135.379 574.835 140.24V138.962C574.829 134.101 572.895 129.441 569.458 126.004C566.02 122.567 561.36 120.634 556.499 120.629Z" fill="url(#paint9_linear_42_5965)"/>
<path d="M553 122H453C443.059 122 435 130.059 435 140V402C435 411.941 443.059 420 453 420H553C562.941 420 571 411.941 571 402V140C571 130.059 562.941 122 553 122Z" fill="url(#paint10_linear_42_5965)"/>
<path d="M535.887 203.704L561.058 192.077C563.192 191.092 565.709 191.996 566.679 194.096L572.983 207.743L588.119 167.611L547.751 153.116L554.055 166.764C555.025 168.864 554.081 171.367 551.947 172.352C551.831 172.406 551.716 172.452 551.599 172.495L476.742 207.076C462.341 214.031 451.988 226.054 446.898 239.926C441.823 253.757 441.994 269.436 448.617 283.774C450.876 288.664 453.716 293.062 457.014 296.925C460.441 300.938 464.375 304.41 468.679 307.291C470.601 308.583 471.081 311.187 469.752 313.106C469.3 313.757 468.698 314.246 468.023 314.558L468.029 314.57L442.858 326.196C440.724 327.182 438.206 326.278 437.236 324.178L430.932 310.53L415.797 350.663L456.165 365.157L449.861 351.51C448.891 349.41 449.835 346.907 451.969 345.921C452.084 345.868 452.199 345.821 452.316 345.779L527.236 311.168C541.614 304.204 551.95 292.183 557.029 278.316C562.092 264.494 561.916 248.827 555.299 234.501C553.04 229.611 550.2 225.213 546.902 221.351C543.476 217.338 539.541 213.866 535.238 210.986C533.315 209.693 532.836 207.09 534.165 205.171C534.616 204.519 535.219 204.03 535.894 203.719L535.888 203.707L535.887 203.704ZM560.706 201.472L545.8 208.357C548.516 210.641 551.058 213.158 553.395 215.896C557.213 220.367 560.472 225.397 563.027 230.928C570.593 247.309 570.786 265.249 564.98 281.095C559.171 296.953 547.335 310.707 530.855 318.689L459.34 351.727L468.135 370.77C468.585 371.744 468.657 372.89 468.246 373.982C467.422 376.165 464.975 377.295 462.779 376.507L408.838 357.138C406.642 356.35 405.53 353.941 406.353 351.758L426.568 298.156C426.947 297.135 427.72 296.253 428.795 295.756C430.929 294.77 433.447 295.674 434.417 297.774L443.205 316.801L458.111 309.915C455.396 307.631 452.853 305.114 450.516 302.376C446.698 297.905 443.44 292.876 440.885 287.345C433.313 270.952 433.125 252.999 438.942 237.144C444.764 221.279 456.618 207.522 473.119 199.553L544.572 166.545L535.776 147.503C535.326 146.529 535.254 145.382 535.666 144.29C536.489 142.108 538.937 140.977 541.132 141.765L595.073 161.134C597.269 161.922 598.382 164.331 597.558 166.514L577.343 220.116C576.965 221.137 576.191 222.02 575.116 222.516C572.982 223.502 570.465 222.598 569.495 220.498L560.706 201.47L560.706 201.472Z" fill="#5484FF"/>
<path d="M489.724 287.3C493.242 288.514 495.073 292.335 493.813 295.836C492.555 299.335 488.682 301.189 485.164 299.975C484.703 299.818 484.245 299.652 483.793 299.481C472.677 295.264 464.349 287.16 459.802 277.315C455.255 267.471 454.483 255.875 458.479 244.679C458.642 244.224 458.813 243.767 458.992 243.314C463.541 231.775 472.379 222.973 482.988 218.072C493.599 213.171 506.029 212.149 517.765 216.167C518.225 216.324 518.683 216.49 519.135 216.661C530.251 220.878 538.579 228.982 543.126 238.827C547.674 248.671 548.445 260.267 544.449 271.463C544.287 271.92 544.116 272.375 543.937 272.827C542.58 276.293 538.659 278.039 535.177 276.729C531.697 275.418 529.973 271.547 531.329 268.082C531.462 267.743 531.59 267.403 531.71 267.067C534.465 259.347 533.926 251.339 530.78 244.53C527.634 237.719 521.885 232.117 514.224 229.21C513.889 229.083 513.548 228.96 513.204 228.842C507.223 226.795 500.951 226.628 495.073 228.024L507.635 255.221C509.19 258.586 507.686 262.59 504.277 264.164C500.868 265.739 496.845 264.288 495.29 260.923L482.728 233.726C477.854 237.296 473.915 242.18 471.596 248.062C471.463 248.4 471.336 248.74 471.215 249.076C468.46 256.796 469 264.804 472.145 271.614C475.291 278.424 481.039 284.027 488.702 286.933C489.037 287.061 489.377 287.182 489.721 287.301L489.724 287.3Z" fill="white"/>
<path d="M569.555 56.6727L607.537 79.834C627.914 48.3237 669.789 38.6044 702.018 58.2577C734.247 77.9109 744.771 119.591 726.098 152.132L764.08 175.294C795.547 121.787 778.367 52.7351 725.172 20.2882C671.979 -12.1485 602.725 4.1964 569.555 56.6727Z" fill="url(#paint11_radial_42_5965)" fill-opacity="0.2"/>
<path d="M408.5 475C445.227 475 475 504.773 475 541.5C475 578.227 445.227 608 408.5 608C371.773 608 342 578.227 342 541.5C342 504.773 371.773 475 408.5 475Z" fill="url(#paint12_radial_42_5965)"/>
<path style="mix-blend-mode:overlay" d="M766.619 449.381C768.46 451.222 768.46 454.214 766.619 456.068L550.068 672.619C548.227 674.46 545.235 674.46 543.381 672.619C541.54 670.778 541.54 667.786 543.381 665.932L759.932 449.381C761.773 447.54 764.765 447.54 766.619 449.381Z" fill="url(#paint13_linear_42_5965)"/>
</g>
<defs>
<linearGradient id="paint0_linear_42_5965" x1="-12.6735" y1="15.6541" x2="1477.78" y2="537.483" gradientUnits="userSpaceOnUse">
<stop stop-color="#0A30A3"/>
<stop offset="0.563541" stop-color="#001447"/>
</linearGradient>
<linearGradient id="paint1_linear_42_5965" x1="506.261" y1="77.9984" x2="477.115" y2="102.192" gradientUnits="userSpaceOnUse">
<stop offset="0.17" stop-color="#0A30A3"/>
<stop offset="1" stop-color="white"/>
</linearGradient>
<radialGradient id="paint2_radial_42_5965" cx="0" cy="0" r="1" gradientUnits="userSpaceOnUse" gradientTransform="translate(181.25 491.631) rotate(45.0153) scale(192.769 192.769)">
<stop stop-color="#5BC7CE"/>
<stop offset="0.11" stop-color="#4198C0"/>
<stop offset="0.23" stop-color="#296BB3"/>
<stop offset="0.34" stop-color="#184AAA"/>
<stop offset="0.43" stop-color="#0D37A5"/>
<stop offset="0.49" stop-color="#0A30A3"/>
<stop offset="1" stop-color="#00152A"/>
</radialGradient>
<linearGradient id="paint3_linear_42_5965" x1="1324.5" y1="230" x2="1542.5" y2="17.5001" gradientUnits="userSpaceOnUse">
<stop stop-color="#0A30A3" stop-opacity="0.31"/>
<stop offset="1" stop-color="white" stop-opacity="0"/>
</linearGradient>
<linearGradient id="paint4_linear_42_5965" x1="502.995" y1="126.389" x2="502.995" y2="129.279" gradientUnits="userSpaceOnUse">
<stop/>
<stop offset="0.29" stop-color="#030303"/>
<stop offset="0.53" stop-color="#0E0E0D"/>
<stop offset="0.75" stop-color="#1F1F1E"/>
<stop offset="0.96" stop-color="#373736"/>
<stop offset="1" stop-color="#3C3C3B"/>
</linearGradient>
<linearGradient id="paint5_linear_42_5965" x1="519.372" y1="125.295" x2="519.372" y2="130.372" gradientUnits="userSpaceOnUse">
<stop/>
<stop offset="0.29" stop-color="#030303"/>
<stop offset="0.53" stop-color="#0E0E0D"/>
<stop offset="0.75" stop-color="#1F1F1E"/>
<stop offset="0.96" stop-color="#373736"/>
<stop offset="1" stop-color="#3C3C3B"/>
</linearGradient>
<linearGradient id="paint6_linear_42_5965" x1="519.375" y1="124.404" x2="519.375" y2="130.486" gradientUnits="userSpaceOnUse">
<stop/>
<stop offset="0.08"/>
<stop offset="1"/>
</linearGradient>
<radialGradient id="paint7_radial_42_5965" cx="0" cy="0" r="1" gradientUnits="userSpaceOnUse" gradientTransform="translate(519.375 127.834) scale(1.3876)">
<stop stop-color="#009FE3"/>
<stop offset="1" stop-color="#112754"/>
</radialGradient>
<linearGradient id="paint8_linear_42_5965" x1="519.375" y1="125.699" x2="519.375" y2="128.191" gradientUnits="userSpaceOnUse">
<stop stop-color="white"/>
<stop offset="1" stop-color="#112754"/>
</linearGradient>
<linearGradient id="paint9_linear_42_5965" x1="502.994" y1="115.191" x2="502.994" y2="137.693" gradientUnits="userSpaceOnUse">
<stop stop-color="white"/>
<stop offset="1"/>
</linearGradient>
<linearGradient id="paint10_linear_42_5965" x1="435" y1="122" x2="594.155" y2="134.927" gradientUnits="userSpaceOnUse">
<stop stop-color="#0A30A3"/>
<stop offset="1" stop-color="#001447"/>
</linearGradient>
<radialGradient id="paint11_radial_42_5965" cx="0" cy="0" r="1" gradientUnits="userSpaceOnUse" gradientTransform="translate(771.352 167.087) rotate(121.375) scale(765.679)">
<stop stop-color="#5BC7CE"/>
<stop offset="0.11" stop-color="#4198C0"/>
<stop offset="0.23" stop-color="#296BB3"/>
<stop offset="0.34" stop-color="#184AAA"/>
<stop offset="0.43" stop-color="#0D37A5"/>
<stop offset="0.49" stop-color="#0A30A3"/>
<stop offset="1" stop-color="#00152A"/>
</radialGradient>
<radialGradient id="paint12_radial_42_5965" cx="0" cy="0" r="1" gradientUnits="userSpaceOnUse" gradientTransform="translate(481.024 660.769) scale(284.796)">
<stop stop-color="#E5C33F"/>
<stop offset="0.03" stop-color="#E6BC3D"/>
<stop offset="0.25" stop-color="#F39332"/>
<stop offset="0.42" stop-color="#FC7A2B"/>
<stop offset="0.53" stop-color="#FF7129"/>
<stop offset="0.99" stop-color="#C73A16"/>
</radialGradient>
<linearGradient id="paint13_linear_42_5965" x1="692.961" y1="514.792" x2="562.521" y2="673.591" gradientUnits="userSpaceOnUse">
<stop offset="0.17" stop-color="#0A30A3"/>
<stop offset="1" stop-color="white"/>
</linearGradient>
<clipPath id="clip0_42_5965">
<rect width="1440" height="714" fill="white"/>
</clipPath>
</defs>
</svg>
