<svg width="678" height="700" viewBox="0 0 678 700" fill="none" xmlns="http://www.w3.org/2000/svg">
<g clip-path="url(#clip0_43_8257)">
<rect width="678" height="700" fill="#001447"/>
<path d="M678 0H0V700H678V0Z" fill="url(#paint0_linear_43_8257)"/>
<path d="M849.333 328.117C852.155 330.939 852.155 335.526 849.333 338.368L517.368 670.333C514.545 673.155 509.959 673.155 507.117 670.333C504.294 667.51 504.294 662.924 507.117 660.082L839.082 328.117C841.904 325.294 846.491 325.294 849.333 328.117Z" fill="url(#paint1_linear_43_8257)" style="mix-blend-mode:overlay"/>
<path d="M567.139 650.857C565.277 648.995 562.258 648.995 560.396 650.857C558.534 652.719 558.534 655.738 560.396 657.6C562.258 659.462 565.277 659.462 567.139 657.6C569.001 655.738 569.001 652.719 567.139 650.857Z" fill="white" fill-opacity="0.5"/>
<path d="M597.01 620.99C595.148 619.128 592.13 619.128 590.268 620.99C588.406 622.852 588.406 625.871 590.268 627.733C592.13 629.595 595.148 629.595 597.01 627.733C598.872 625.871 598.872 622.852 597.01 620.99Z" fill="white" fill-opacity="0.5"/>
<path d="M626.858 591.115C624.996 589.253 621.977 589.253 620.115 591.115C618.253 592.977 618.253 595.996 620.115 597.858C621.977 599.72 624.996 599.72 626.858 597.858C628.72 595.996 628.72 592.977 626.858 591.115Z" fill="white" fill-opacity="0.5"/>
<path d="M656.729 561.268C654.867 559.406 651.848 559.406 649.986 561.268C648.124 563.13 648.124 566.148 649.986 568.01C651.848 569.872 654.867 569.872 656.729 568.01C658.591 566.148 658.591 563.13 656.729 561.268Z" fill="white" fill-opacity="0.5"/>
<path d="M679.857 538.139C681.719 540.001 684.738 540.001 686.6 538.139C688.462 536.277 688.462 533.258 686.6 531.396C684.738 529.534 681.719 529.534 679.857 531.396C677.995 533.258 677.995 536.277 679.857 538.139Z" fill="white" fill-opacity="0.5"/>
<path d="M326.5 521.609C359.913 521.609 387 548.696 387 582.109C387 615.523 359.913 642.609 326.5 642.609C293.087 642.609 266 615.523 266 582.109C266 548.696 293.087 521.609 326.5 521.609Z" fill="url(#paint2_radial_43_8257)"/>
<path d="M217.742 460.446C217.742 460.446 212.293 533.308 206.713 560.107H335.296C329.291 535.128 323.082 467.589 323.082 467.589L341.254 494.501L357.618 453.218C357.618 453.218 341.865 426.286 324.87 412.207C313.067 402.428 288.521 398.832 274.629 397.547V396.781C274.629 396.781 272.722 396.868 269.554 397.138C266.382 396.92 264.474 396.865 264.474 396.865L264.483 397.631C250.613 399.144 226.409 403.478 214.49 413.115C170.379 448.781 147.565 557.391 147 560.107H174.459C189.294 503.843 217.742 460.446 217.742 460.446Z" fill="#2A485E"/>
<path d="M357.614 453.217C357.614 453.217 346.672 434.51 333.189 420.129C328.346 438.301 326.871 457.372 328.814 476.079L341.254 494.501L357.614 453.217Z" fill="#193345"/>
<path d="M469.79 495.583C466.546 493.929 463.716 491.649 461.159 489.05L368.094 458.09C368.094 458.09 368.094 430.764 362.839 416.513C371.666 400.03 370.957 384.55 368.094 375.234C365.23 365.918 352.787 360.65 348.228 374.333C345.963 381.133 336.435 408.964 332.976 416.067C324.237 459.233 337.984 510.682 365.342 529.317C392.701 547.951 438.135 549.769 471.174 540.563C494.433 534.08 500.989 508.876 502.833 494.525C499.567 495.882 496.221 497.013 492.765 497.768C485.097 499.44 476.778 499.149 469.79 495.583Z" fill="#F7A87E"/>
<path d="M503.55 484.375L480.087 495.349L461.156 489.051C463.713 491.65 466.543 493.929 469.788 495.584C476.779 499.149 485.098 499.441 492.765 497.766C496.221 497.011 499.568 495.88 502.833 494.523C503.607 488.49 503.55 484.375 503.55 484.375Z" fill="#E98870"/>
<path d="M491.139 365.067L467.797 389.869C462.13 395.891 462.665 405.436 468.969 410.783C474.935 415.844 483.846 415.236 489.068 409.411L511.805 384.054C516.962 378.301 516.501 369.464 510.771 364.279C505.104 359.152 496.376 359.502 491.139 365.067Z" fill="#F7A87E"/>
<path d="M289.047 399.344L249.395 399.421L253.897 430.869H284.038L289.047 399.344Z" fill="#ECEADD"/>
<path d="M284.039 430.871H253.898L264.819 507.143L284.039 430.871Z" fill="white"/>
<path d="M252.734 379.863V392.878C257.945 396.691 264.017 399.066 270.337 399.332C270.483 399.339 270.631 399.343 270.776 399.345C270.922 399.347 271.068 399.339 271.214 399.332C277.126 399.084 282.821 396.988 287.796 393.601V379.863H252.734Z" fill="#E98870"/>
<path d="M296.746 363.386C306.045 359.945 313.636 352.169 316.852 342.79C320.069 333.41 318.847 322.613 313.618 314.189C318.121 313.104 320.277 307.285 318.574 302.977C316.87 298.67 312.392 295.98 307.849 295.07C309.981 293.063 309.527 289.321 307.567 287.147C305.606 284.973 302.617 284.055 299.729 283.565C295.087 282.776 290.336 282.848 285.641 283.209C276.738 283.893 245.284 282.948 236.516 304.207C225.188 307.755 225.289 324.755 225.196 329.381C224.949 341.756 230.058 354.628 240.191 361.736C256.199 372.965 278.408 370.175 296.746 363.386Z" fill="#4E2F20"/>
<path d="M302.748 367.345C297.791 381.165 285.097 391.931 271.215 392.513C271.069 392.519 270.923 392.524 270.777 392.526C270.631 392.526 270.483 392.519 270.337 392.513C256.454 391.931 243.762 381.165 238.803 367.345C235.784 358.926 235.344 349.716 235.668 340.714C235.993 331.712 237.049 322.733 236.88 313.726C248.024 311.436 259.461 309.663 270.777 310.317C282.093 309.665 293.527 311.436 304.671 313.726C304.503 322.733 305.556 331.713 305.883 340.714C306.209 349.715 305.767 358.926 302.748 367.345Z" fill="#F7A87E"/>
<path d="M307.775 348.703C303.008 341.713 300.024 333.096 300.456 324.645C280.19 326.057 259.852 323.248 240.728 316.395C240.95 327.549 237.91 338.509 233.177 348.612C232.603 337.492 232.453 326.699 233.633 315.627C233.763 314.366 233.925 313.066 234.558 311.966C235.684 310.012 238.01 309.145 240.172 308.486C260.484 302.28 282.913 301.391 302.704 309.099C304.788 309.912 306.907 310.857 308.42 312.511C309.749 313.96 310.511 315.85 310.947 317.767C311.734 321.219 311.54 324.81 311.342 328.345C310.947 335.371 310.185 342.092 307.775 348.703Z" fill="#4E2F20"/>
<path d="M227.852 328.07C230.667 325.097 233.136 321.815 235.212 318.285C236.944 315.337 238.682 311.968 241.898 310.803C244.856 309.732 248.411 310.843 251.124 309.253C252.507 308.443 253.469 307.026 254.891 306.287C257.667 304.841 260.957 306.41 263.933 307.38C270.641 309.569 278.347 308.446 284.155 304.435C287.105 302.397 289.664 299.466 290.271 295.932C290.807 292.813 289.773 289.643 288.502 286.744C287.964 285.517 287.375 284.313 286.748 283.129C286.38 283.154 286.013 283.179 285.646 283.208C282.376 283.459 276.062 283.492 268.948 284.485C269.04 284.58 269.133 284.675 269.223 284.772C270.787 286.451 272.058 288.818 271.282 290.979C270.68 292.652 269.037 293.688 267.469 294.527C262.663 297.096 257.538 299.019 252.228 300.245C250.957 300.538 249.538 300.882 248.841 301.986C248.349 302.767 248.34 303.754 247.974 304.6C247.258 306.255 245.365 307.034 243.604 307.421C241.844 307.807 239.95 308.003 238.513 309.09C237.796 309.631 237.249 310.358 236.602 310.979C234.542 312.958 231.486 313.766 228.67 313.29C228.357 313.238 228.049 313.167 227.743 313.086C225.243 319.23 225.258 326.576 225.203 329.379C225.194 329.802 225.194 330.226 225.198 330.65C226.122 329.83 227.006 328.964 227.852 328.07Z" fill="#5E3B2B"/>
<path d="M260.355 335.568C261.219 335.597 262.104 335.656 262.89 336.014C263.676 336.372 264.355 337.087 264.43 337.948C264.517 338.933 263.79 339.845 262.905 340.285C262.02 340.726 261.001 340.791 260.014 340.838C256.79 340.993 253.564 341.037 250.335 340.973C249.199 340.95 246.753 340.777 246.727 339.133C246.704 337.758 248.846 337.315 249.875 336.959C253.227 335.798 256.825 335.453 260.355 335.568Z" fill="#452819"/>
<path d="M282.347 335.568C281.484 335.597 280.599 335.656 279.812 336.014C279.025 336.372 278.348 337.087 278.273 337.948C278.186 338.933 278.912 339.845 279.797 340.285C280.683 340.726 281.701 340.791 282.689 340.838C285.912 340.993 289.139 341.037 292.368 340.973C293.504 340.95 295.95 340.777 295.976 339.133C295.999 337.758 293.856 337.315 292.827 336.959C289.475 335.798 285.878 335.453 282.347 335.568Z" fill="#452819"/>
<path d="M255.579 353.65C257.489 353.65 259.037 352.102 259.037 350.192C259.037 348.283 257.489 346.734 255.579 346.734C253.669 346.734 252.121 348.283 252.121 350.192C252.121 352.102 253.669 353.65 255.579 353.65Z" fill="#452819"/>
<path d="M285.77 353.65C287.68 353.65 289.228 352.102 289.228 350.192C289.228 348.283 287.68 346.734 285.77 346.734C283.861 346.734 282.312 348.283 282.312 350.192C282.312 352.102 283.861 353.65 285.77 353.65Z" fill="#452819"/>
<path d="M272.16 379.867C269.701 379.91 267.271 380.437 264.965 381.3C266.576 382.305 268.619 382.96 271.218 382.96C274.214 382.96 276.473 382.092 278.181 380.817C276.246 380.146 274.207 379.824 272.16 379.867Z" fill="#F28487"/>
<path d="M265.504 372.987C266.97 373.638 268.515 374.126 270.107 374.33C273.196 374.728 276.392 374.023 279.107 372.496C280.008 371.986 280.859 371.391 281.647 370.719C281.384 370.608 281.102 370.551 280.817 370.551H261.719C261.777 370.608 261.836 370.665 261.895 370.72C262.94 371.693 264.199 372.408 265.504 372.987Z" fill="white"/>
<path d="M281.65 370.719C280.862 371.391 280.011 371.986 279.11 372.496C276.395 374.023 273.199 374.728 270.11 374.33C268.518 374.126 266.973 373.637 265.507 372.987C264.204 372.408 262.943 371.693 261.898 370.72C261.839 370.665 261.78 370.608 261.722 370.551H261.614C261.286 370.55 260.961 370.625 260.666 370.769C260.371 370.914 260.113 371.124 259.911 371.384C259.71 371.644 259.571 371.946 259.505 372.268C259.439 372.59 259.447 372.923 259.53 373.241C260.181 375.694 261.659 379.239 264.965 381.301C267.271 380.435 269.701 379.909 272.159 379.868C274.207 379.826 276.246 380.148 278.18 380.82C280.992 378.721 282.303 375.514 282.904 373.243C283.036 372.742 282.981 372.21 282.75 371.746C282.52 371.282 282.129 370.917 281.65 370.719Z" fill="#AB404A"/>
<path d="M270.776 399.346C270.631 399.346 270.483 399.34 270.337 399.333C264.019 399.068 257.944 396.692 252.734 392.879V417.124H280.416L287.796 406.581V393.599C282.821 396.989 277.126 399.085 271.214 399.33C271.068 399.339 270.922 399.344 270.776 399.346Z" fill="#F7A87E"/>
<path d="M252.735 396.234L269.658 415.893L287.797 396.234L290.188 399.567L283.861 430.97L269.539 417.123L253.909 430.954L249.395 399.422L252.735 396.234Z" fill="white"/>
<path d="M261.23 424.477L267.859 434.06L258.133 460.466L264.816 507.144L277.412 457.158L271.856 433.95L277.917 425.226L269.538 417.125L261.23 424.477Z" fill="#D75555"/>
<path d="M404.131 500.637L404.039 500.796H404.223L404.131 500.637Z" fill="#F68C24"/>
<path d="M472.988 475.228L497.254 460.331C503.146 456.713 510.624 459.192 513.643 465.763C516.499 471.98 514.274 479.539 508.627 482.815L484.037 497.073C478.459 500.307 471.525 498.04 468.527 492.001C465.556 486.027 467.543 478.571 472.988 475.228Z" fill="#F7A87E"/>
<path d="M464.669 444.675L497.468 431.587C505.432 428.409 514.433 432.553 517.197 440.67C519.809 448.349 515.836 456.714 508.232 459.539L475.127 471.83C467.617 474.618 459.265 470.812 456.444 463.314C453.653 455.898 457.31 447.611 464.669 444.675Z" fill="#F7A87E"/>
<path d="M461.579 415.57L493.211 402.947C500.892 399.883 509.573 403.879 512.238 411.708C514.759 419.113 510.927 427.181 503.592 429.904L471.664 441.759C464.421 444.448 456.367 440.776 453.646 433.545C450.952 426.393 454.479 418.402 461.579 415.57Z" fill="#F7A87E"/>
<path d="M300.156 373.036C304.169 373.261 308.295 372.152 311.48 369.701C314.666 367.25 316.831 363.425 317.005 359.41C317.101 357.195 316.488 354.774 314.708 353.455C313.348 352.446 311.543 352.252 309.857 352.399C307.516 352.602 305.065 353.53 303.823 355.525L300.156 373.036Z" fill="#F7A87E"/>
<path d="M308.937 358.884C309.136 359.004 309.321 359.147 309.488 359.309C310.217 360.009 310.643 360.969 310.672 361.98C310.702 362.991 310.333 363.973 309.645 364.715C309.612 364.751 309.571 364.781 309.526 364.801C309.481 364.822 309.432 364.834 309.383 364.836C309.333 364.838 309.284 364.83 309.237 364.812C309.191 364.795 309.148 364.769 309.112 364.735C309.076 364.702 309.046 364.661 309.026 364.616C309.005 364.571 308.993 364.523 308.991 364.473C308.989 364.424 308.997 364.374 309.015 364.328C309.032 364.281 309.058 364.239 309.092 364.202C309.644 363.606 309.94 362.816 309.916 362.003C309.893 361.191 309.551 360.42 308.965 359.856C308.753 359.651 308.428 359.408 308.053 359.347C306.643 360.215 305.551 361.516 304.941 363.056C304.913 363.128 304.864 363.19 304.799 363.233C304.735 363.276 304.659 363.298 304.582 363.296C304.537 363.296 304.493 363.287 304.451 363.27C304.358 363.234 304.283 363.162 304.243 363.071C304.203 362.979 304.2 362.876 304.236 362.782C304.955 360.935 306.311 359.405 308.06 358.471C309.809 357.537 311.834 357.26 313.769 357.69C313.867 357.711 313.952 357.771 314.006 357.856C314.06 357.94 314.077 358.042 314.056 358.14C314.034 358.238 313.974 358.323 313.89 358.376C313.805 358.43 313.703 358.448 313.605 358.426C312.039 358.087 310.407 358.247 308.937 358.884Z" fill="#D26F61"/>
<path d="M302.526 366.808C302.576 366.721 302.658 366.658 302.755 366.632C302.852 366.605 302.955 366.618 303.042 366.668C305.077 367.833 307.633 367.132 309.347 366.086C310.443 365.419 311.887 364.252 312.534 362.485C312.551 362.439 312.577 362.396 312.611 362.36C312.645 362.323 312.685 362.294 312.73 362.273C312.775 362.252 312.824 362.241 312.873 362.239C312.922 362.237 312.972 362.244 313.018 362.261C313.065 362.279 313.108 362.305 313.144 362.338C313.18 362.372 313.21 362.412 313.231 362.457C313.251 362.502 313.263 362.551 313.265 362.6C313.267 362.65 313.259 362.699 313.242 362.746C312.518 364.716 310.938 366.002 309.74 366.731C308.517 367.476 306.896 368.059 305.277 368.023C304.362 368.012 303.464 367.772 302.666 367.323C302.58 367.273 302.516 367.191 302.49 367.094C302.464 366.998 302.477 366.895 302.526 366.808Z" fill="#D26F61"/>
<path d="M241.171 373.036C237.158 373.261 233.029 372.152 229.847 369.701C226.664 367.25 224.496 363.425 224.322 359.41C224.226 357.195 224.84 354.774 226.619 353.455C227.979 352.446 229.784 352.252 231.47 352.399C233.811 352.602 236.263 353.53 237.505 355.525L241.171 373.036Z" fill="#F7A87E"/>
<path d="M232.393 358.884C232.194 359.004 232.009 359.147 231.842 359.309C231.113 360.009 230.687 360.969 230.658 361.98C230.628 362.991 230.997 363.973 231.685 364.715C231.718 364.751 231.759 364.781 231.804 364.801C231.849 364.822 231.898 364.834 231.947 364.836C231.997 364.837 232.046 364.83 232.092 364.812C232.139 364.795 232.182 364.769 232.218 364.735C232.254 364.702 232.284 364.661 232.304 364.616C232.325 364.571 232.337 364.523 232.339 364.473C232.34 364.424 232.333 364.374 232.315 364.328C232.298 364.281 232.272 364.239 232.238 364.202C231.686 363.606 231.39 362.816 231.414 362.003C231.437 361.191 231.779 360.42 232.365 359.856C232.577 359.651 232.901 359.408 233.277 359.347C234.687 360.214 235.779 361.516 236.389 363.056C236.417 363.128 236.466 363.19 236.531 363.233C236.595 363.276 236.671 363.298 236.748 363.296C236.793 363.296 236.837 363.287 236.879 363.27C236.925 363.252 236.967 363.226 237.003 363.191C237.039 363.157 237.067 363.116 237.087 363.071C237.107 363.026 237.118 362.977 237.119 362.927C237.12 362.878 237.111 362.829 237.093 362.782C236.375 360.935 235.019 359.405 233.27 358.471C231.522 357.537 229.496 357.26 227.561 357.69C227.513 357.7 227.467 357.72 227.426 357.749C227.386 357.777 227.351 357.813 227.325 357.855C227.298 357.897 227.28 357.944 227.271 357.992C227.263 358.041 227.264 358.091 227.275 358.14C227.285 358.188 227.305 358.234 227.334 358.274C227.362 358.315 227.398 358.35 227.44 358.376C227.482 358.403 227.529 358.421 227.577 358.429C227.626 358.438 227.676 358.437 227.725 358.426C229.291 358.087 230.923 358.247 232.393 358.884Z" fill="#D26F61"/>
<path d="M238.805 366.808C238.756 366.721 238.673 366.658 238.577 366.632C238.48 366.605 238.377 366.618 238.29 366.668C236.255 367.833 233.698 367.132 231.985 366.086C230.888 365.419 229.444 364.252 228.798 362.485C228.781 362.439 228.754 362.396 228.721 362.36C228.687 362.323 228.647 362.294 228.602 362.273C228.557 362.252 228.508 362.241 228.459 362.239C228.409 362.237 228.36 362.244 228.313 362.261C228.267 362.279 228.224 362.305 228.188 362.338C228.151 362.372 228.122 362.412 228.101 362.457C228.08 362.502 228.069 362.551 228.067 362.6C228.065 362.65 228.073 362.699 228.09 362.746C228.813 364.716 230.393 366.002 231.592 366.731C232.815 367.476 234.436 368.059 236.055 368.023C236.97 368.013 237.868 367.772 238.665 367.323C238.752 367.273 238.816 367.191 238.842 367.094C238.868 366.998 238.855 366.895 238.805 366.808Z" fill="#D26F61"/>
<path opacity="0.12" d="M288.476 367.639C291.498 367.639 293.948 365.189 293.948 362.167C293.948 359.145 291.498 356.695 288.476 356.695C285.454 356.695 283.004 359.145 283.004 362.167C283.004 365.189 285.454 367.639 288.476 367.639Z" fill="#ED7C6D"/>
<path opacity="0.12" d="M291.565 364.557C293.702 362.42 293.702 358.955 291.565 356.818C289.428 354.681 285.963 354.681 283.826 356.818C281.689 358.955 281.689 362.42 283.826 364.557C285.963 366.694 289.428 366.694 291.565 364.557Z" fill="#ED7C6D"/>
<path opacity="0.12" d="M290.765 367.639C293.787 367.639 296.237 365.189 296.237 362.167C296.237 359.145 293.787 356.695 290.765 356.695C287.743 356.695 285.293 359.145 285.293 362.167C285.293 365.189 287.743 367.639 290.765 367.639Z" fill="#ED7C6D"/>
<path opacity="0.12" d="M288.277 369.264C291.299 369.264 293.748 366.814 293.748 363.792C293.748 360.77 291.299 358.32 288.277 358.32C285.255 358.32 282.805 360.77 282.805 363.792C282.805 366.814 285.255 369.264 288.277 369.264Z" fill="#ED7C6D"/>
<path opacity="0.12" d="M288.794 366.267C291.057 366.267 292.892 364.432 292.892 362.169C292.892 359.905 291.057 358.07 288.794 358.07C286.53 358.07 284.695 359.905 284.695 362.169C284.695 364.432 286.53 366.267 288.794 366.267Z" fill="#ED7C6D"/>
<path opacity="0.12" d="M289.355 364.983C290.687 364.983 291.768 363.902 291.768 362.569C291.768 361.237 290.687 360.156 289.355 360.156C288.022 360.156 286.941 361.237 286.941 362.569C286.941 363.902 288.022 364.983 289.355 364.983Z" fill="#ED7C6D"/>
<path opacity="0.12" d="M290.041 362.26C290.347 360.963 289.544 359.663 288.246 359.357C286.949 359.051 285.65 359.854 285.343 361.151C285.037 362.448 285.841 363.748 287.138 364.054C288.435 364.36 289.735 363.557 290.041 362.26Z" fill="#ED7C6D"/>
<path opacity="0.12" d="M290.647 363.61C291.878 363.1 292.463 361.688 291.953 360.457C291.443 359.225 290.031 358.641 288.8 359.151C287.569 359.661 286.984 361.072 287.494 362.304C288.004 363.535 289.415 364.12 290.647 363.61Z" fill="#ED7C6D"/>
<path opacity="0.12" d="M289.401 364.395C290.632 363.885 291.217 362.473 290.707 361.242C290.197 360.011 288.785 359.426 287.554 359.936C286.322 360.446 285.738 361.858 286.248 363.089C286.758 364.32 288.169 364.905 289.401 364.395Z" fill="#ED7C6D"/>
<path opacity="0.12" d="M291.138 361.924C291.445 360.627 290.641 359.327 289.344 359.021C288.047 358.715 286.747 359.518 286.441 360.815C286.135 362.113 286.938 363.412 288.235 363.718C289.533 364.025 290.832 363.221 291.138 361.924Z" fill="#ED7C6D"/>
<path opacity="0.05" d="M289.169 363.089C290.122 363.089 290.893 362.317 290.893 361.365C290.893 360.413 290.122 359.641 289.169 359.641C288.217 359.641 287.445 360.413 287.445 361.365C287.445 362.317 288.217 363.089 289.169 363.089Z" fill="#FDECE9"/>
<path opacity="0.05" d="M288.788 361.717C289.357 361.717 289.819 361.256 289.819 360.687C289.819 360.118 289.357 359.656 288.788 359.656C288.219 359.656 287.758 360.118 287.758 360.687C287.758 361.256 288.219 361.717 288.788 361.717Z" fill="#FDECE9"/>
<path opacity="0.05" d="M289.581 361.086C289.498 361.197 289.383 361.281 289.252 361.327C289.121 361.373 288.979 361.379 288.845 361.345C288.71 361.31 288.589 361.236 288.496 361.133C288.403 361.029 288.343 360.901 288.323 360.763C288.304 360.626 288.325 360.485 288.385 360.36C288.446 360.235 288.541 360.13 288.661 360.059C288.781 359.988 288.918 359.954 289.057 359.962C289.196 359.969 289.329 360.018 289.441 360.101C289.515 360.157 289.577 360.226 289.624 360.306C289.671 360.385 289.702 360.473 289.715 360.564C289.728 360.656 289.723 360.749 289.7 360.838C289.677 360.928 289.637 361.012 289.581 361.086Z" fill="#FDECE9"/>
<path opacity="0.05" d="M289.353 360.992C289.269 361.103 289.155 361.188 289.024 361.234C288.892 361.28 288.75 361.287 288.615 361.252C288.481 361.218 288.359 361.144 288.266 361.041C288.173 360.937 288.113 360.808 288.093 360.671C288.073 360.533 288.095 360.392 288.155 360.267C288.215 360.141 288.311 360.036 288.431 359.966C288.55 359.895 288.688 359.861 288.827 359.868C288.966 359.876 289.1 359.924 289.211 360.008C289.361 360.12 289.459 360.286 289.486 360.471C289.512 360.655 289.464 360.843 289.353 360.992Z" fill="#FDECE9"/>
<path opacity="0.05" d="M287.798 361.116C288.171 361.015 288.391 360.631 288.29 360.258C288.189 359.886 287.805 359.666 287.432 359.766C287.06 359.867 286.84 360.251 286.941 360.624C287.041 360.997 287.425 361.217 287.798 361.116Z" fill="#FDECE9"/>
<path opacity="0.05" d="M289.441 360.992C289.357 361.103 289.243 361.187 289.112 361.233C288.981 361.279 288.839 361.285 288.704 361.251C288.569 361.216 288.448 361.143 288.355 361.039C288.263 360.936 288.203 360.807 288.183 360.669C288.163 360.532 288.185 360.392 288.245 360.266C288.305 360.141 288.401 360.036 288.52 359.965C288.64 359.894 288.778 359.861 288.917 359.868C289.055 359.876 289.189 359.924 289.3 360.008C289.449 360.12 289.548 360.286 289.574 360.471C289.6 360.655 289.552 360.843 289.441 360.992Z" fill="#FDECE9"/>
<path opacity="0.12" d="M251.37 367.639C254.392 367.639 256.842 365.189 256.842 362.167C256.842 359.145 254.392 356.695 251.37 356.695C248.348 356.695 245.898 359.145 245.898 362.167C245.898 365.189 248.348 367.639 251.37 367.639Z" fill="#ED7C6D"/>
<path opacity="0.12" d="M254.455 364.557C256.592 362.42 256.592 358.955 254.455 356.818C252.318 354.681 248.854 354.681 246.717 356.818C244.58 358.955 244.58 362.42 246.717 364.557C248.854 366.694 252.318 366.694 254.455 364.557Z" fill="#ED7C6D"/>
<path opacity="0.12" d="M253.659 367.639C256.681 367.639 259.131 365.189 259.131 362.167C259.131 359.145 256.681 356.695 253.659 356.695C250.637 356.695 248.188 359.145 248.188 362.167C248.188 365.189 250.637 367.639 253.659 367.639Z" fill="#ED7C6D"/>
<path opacity="0.12" d="M251.167 369.264C254.189 369.264 256.639 366.814 256.639 363.792C256.639 360.77 254.189 358.32 251.167 358.32C248.145 358.32 245.695 360.77 245.695 363.792C245.695 366.814 248.145 369.264 251.167 369.264Z" fill="#ED7C6D"/>
<path opacity="0.12" d="M251.684 366.267C253.948 366.267 255.782 364.432 255.782 362.169C255.782 359.905 253.948 358.07 251.684 358.07C249.421 358.07 247.586 359.905 247.586 362.169C247.586 364.432 249.421 366.267 251.684 366.267Z" fill="#ED7C6D"/>
<path opacity="0.12" d="M252.249 364.983C253.582 364.983 254.662 363.902 254.662 362.569C254.662 361.237 253.582 360.156 252.249 360.156C250.916 360.156 249.836 361.237 249.836 362.569C249.836 363.902 250.916 364.983 252.249 364.983Z" fill="#ED7C6D"/>
<path opacity="0.12" d="M252.931 362.26C253.238 360.963 252.434 359.663 251.137 359.357C249.84 359.051 248.54 359.854 248.234 361.151C247.928 362.448 248.731 363.748 250.028 364.054C251.325 364.36 252.625 363.557 252.931 362.26Z" fill="#ED7C6D"/>
<path opacity="0.12" d="M253.537 363.61C254.769 363.1 255.353 361.688 254.843 360.457C254.333 359.225 252.922 358.641 251.69 359.151C250.459 359.661 249.874 361.072 250.384 362.304C250.894 363.535 252.306 364.12 253.537 363.61Z" fill="#ED7C6D"/>
<path opacity="0.12" d="M252.295 364.395C253.527 363.885 254.111 362.473 253.601 361.242C253.091 360.011 251.68 359.426 250.448 359.936C249.217 360.446 248.632 361.858 249.142 363.089C249.652 364.32 251.064 364.905 252.295 364.395Z" fill="#ED7C6D"/>
<path opacity="0.12" d="M254.033 361.924C254.339 360.627 253.536 359.327 252.239 359.021C250.941 358.715 249.642 359.518 249.336 360.815C249.029 362.113 249.833 363.412 251.13 363.718C252.427 364.025 253.727 363.221 254.033 361.924Z" fill="#ED7C6D"/>
<path opacity="0.05" d="M252.06 363.089C253.012 363.089 253.784 362.317 253.784 361.365C253.784 360.413 253.012 359.641 252.06 359.641C251.108 359.641 250.336 360.413 250.336 361.365C250.336 362.317 251.108 363.089 252.06 363.089Z" fill="#FDECE9"/>
<path opacity="0.05" d="M251.679 361.717C252.248 361.717 252.709 361.256 252.709 360.687C252.709 360.118 252.248 359.656 251.679 359.656C251.11 359.656 250.648 360.118 250.648 360.687C250.648 361.256 251.11 361.717 251.679 361.717Z" fill="#FDECE9"/>
<path opacity="0.05" d="M252.476 361.086C252.392 361.197 252.278 361.281 252.147 361.327C252.016 361.373 251.874 361.379 251.739 361.345C251.605 361.31 251.483 361.236 251.39 361.133C251.298 361.029 251.238 360.901 251.218 360.763C251.198 360.626 251.22 360.485 251.28 360.36C251.34 360.235 251.436 360.13 251.556 360.059C251.675 359.988 251.813 359.954 251.952 359.962C252.091 359.969 252.224 360.018 252.335 360.101C252.409 360.157 252.471 360.226 252.518 360.306C252.565 360.385 252.596 360.473 252.609 360.564C252.623 360.656 252.617 360.749 252.595 360.838C252.572 360.928 252.531 361.012 252.476 361.086Z" fill="#FDECE9"/>
<path opacity="0.05" d="M252.245 360.992C252.162 361.103 252.048 361.187 251.916 361.233C251.785 361.279 251.643 361.285 251.509 361.251C251.374 361.216 251.253 361.143 251.16 361.039C251.067 360.936 251.007 360.807 250.988 360.669C250.968 360.532 250.989 360.392 251.05 360.266C251.11 360.141 251.205 360.036 251.325 359.965C251.445 359.894 251.583 359.861 251.721 359.868C251.86 359.876 251.994 359.924 252.105 360.008C252.254 360.12 252.352 360.286 252.379 360.471C252.405 360.655 252.357 360.843 252.245 360.992Z" fill="#FDECE9"/>
<path opacity="0.05" d="M252.174 361.342C252.549 361.239 252.769 360.853 252.666 360.478C252.564 360.104 252.177 359.884 251.803 359.986C251.428 360.089 251.208 360.475 251.311 360.85C251.413 361.224 251.8 361.444 252.174 361.342Z" fill="#FDECE9"/>
<path opacity="0.05" d="M252.333 360.992C252.25 361.103 252.135 361.188 252.004 361.234C251.873 361.28 251.731 361.287 251.596 361.252C251.461 361.218 251.34 361.144 251.247 361.041C251.154 360.937 251.093 360.808 251.074 360.671C251.054 360.533 251.075 360.392 251.135 360.267C251.195 360.141 251.291 360.036 251.411 359.966C251.531 359.895 251.669 359.861 251.808 359.868C251.947 359.876 252.08 359.924 252.192 360.008C252.341 360.12 252.44 360.286 252.466 360.471C252.493 360.655 252.445 360.843 252.333 360.992Z" fill="#FDECE9"/>
<path d="M265.828 358.047C265.828 358.063 265.828 358.077 265.828 358.093C265.844 359.512 266.418 360.867 267.427 361.864C268.435 362.862 269.796 363.421 271.215 363.421C272.634 363.421 273.995 362.862 275.003 361.864C276.012 360.867 276.586 359.512 276.602 358.093C276.602 358.077 276.602 358.063 276.602 358.047H265.828Z" fill="#F17D6F"/>
<path d="M363.836 423.39C363.32 421.197 363.518 418.355 362.839 416.513C371.666 400.03 370.957 384.55 368.093 375.234C365.23 365.918 352.787 360.65 348.228 374.333C345.962 381.133 336.434 408.964 332.975 416.067C330.913 426.254 330.103 436.902 330.429 447.471C333.254 446.085 336.009 444.55 338.68 442.929C348.095 437.222 356.031 431.159 363.836 423.39Z" fill="#F7A87E"/>
<path d="M341.76 566.682L303.778 533.559C275.004 564.843 226.392 567.689 194.156 539.599C161.92 511.509 158.148 462.937 185.226 430.175L147.244 397.052C101.872 450.791 107.865 531.171 161.055 577.556C214.245 623.941 294.692 618.943 341.76 566.682Z" fill="#FF9149"/>
<path d="M377.193 313.957H378.577V323.333H377.193C377.054 323.333 376.916 323.306 376.787 323.253C376.659 323.199 376.542 323.121 376.443 323.023C376.345 322.924 376.267 322.807 376.214 322.679C376.16 322.55 376.133 322.412 376.133 322.273V315.018C376.133 314.736 376.245 314.467 376.443 314.268C376.642 314.069 376.912 313.957 377.193 313.957Z" fill="#333333"/>
<path d="M377.193 332.375H378.577V349.855H377.193C376.912 349.855 376.642 349.743 376.443 349.544C376.245 349.345 376.133 349.076 376.133 348.794V333.436C376.133 333.154 376.245 332.884 376.443 332.686C376.642 332.487 376.912 332.375 377.193 332.375Z" fill="#333333"/>
<path d="M499.74 365.621H498.357V338.511H499.74C500.022 338.511 500.291 338.623 500.49 338.822C500.689 339.021 500.801 339.291 500.801 339.572V364.561C500.801 364.842 500.689 365.112 500.49 365.31C500.291 365.509 500.022 365.621 499.74 365.621Z" fill="#333333"/>
<path d="M377.193 354.742H378.577V372.222H377.193C376.912 372.222 376.642 372.11 376.443 371.912C376.245 371.713 376.133 371.443 376.133 371.162V355.803C376.133 355.521 376.245 355.252 376.443 355.053C376.642 354.854 376.912 354.742 377.193 354.742Z" fill="#333333"/>
<path d="M481.223 280.523H395.707C385.572 280.523 377.355 288.74 377.355 298.875V510.172C377.355 520.307 385.572 528.523 395.707 528.523H481.223C491.358 528.523 499.575 520.307 499.575 510.172V298.875C499.575 288.74 491.358 280.523 481.223 280.523Z" fill="#444444"/>
<path d="M481.224 282.672H395.705C386.755 282.672 379.5 289.927 379.5 298.877V510.176C379.5 519.126 386.755 526.381 395.705 526.381H481.224C490.173 526.381 497.429 519.126 497.429 510.176V298.877C497.429 289.927 490.173 282.672 481.224 282.672Z" fill="#444444"/>
<path d="M481.224 282.805H395.706C386.831 282.805 379.637 289.999 379.637 298.874V510.173C379.637 519.048 386.831 526.242 395.706 526.242H481.224C490.099 526.242 497.293 519.048 497.293 510.173V298.874C497.293 289.999 490.099 282.805 481.224 282.805Z" fill="#434343"/>
<path d="M481.225 282.941H395.706C386.907 282.941 379.773 290.075 379.773 298.874V510.174C379.773 518.973 386.907 526.107 395.706 526.107H481.225C490.025 526.107 497.158 518.973 497.158 510.174V298.874C497.158 290.075 490.025 282.941 481.225 282.941Z" fill="#414141"/>
<path d="M481.222 283.078H395.703C386.979 283.078 379.906 290.151 379.906 298.875V510.175C379.906 518.899 386.979 525.972 395.703 525.972H481.222C489.946 525.972 497.019 518.899 497.019 510.175V298.875C497.019 290.151 489.946 283.078 481.222 283.078Z" fill="#404040"/>
<path d="M481.222 283.215H395.704C387.055 283.215 380.043 290.226 380.043 298.876V510.175C380.043 518.825 387.055 525.836 395.704 525.836H481.222C489.872 525.836 496.883 518.825 496.883 510.175V298.876C496.883 290.226 489.872 283.215 481.222 283.215Z" fill="#3E3E3E"/>
<path d="M481.223 283.352H395.705C387.13 283.352 380.18 290.302 380.18 298.876V510.176C380.18 518.75 387.13 525.701 395.705 525.701H481.223C489.797 525.701 496.748 518.75 496.748 510.176V298.876C496.748 290.302 489.797 283.352 481.223 283.352Z" fill="#3D3D3D"/>
<path d="M481.222 283.484H395.705C387.206 283.484 380.316 290.374 380.316 298.873V510.17C380.316 518.67 387.206 525.559 395.705 525.559H481.222C489.721 525.559 496.61 518.67 496.61 510.17V298.873C496.61 290.374 489.721 283.484 481.222 283.484Z" fill="#3B3B3B"/>
<path d="M481.222 283.621H395.706C387.282 283.621 380.453 290.45 380.453 298.874V510.171C380.453 518.595 387.282 525.424 395.706 525.424H481.222C489.646 525.424 496.475 518.595 496.475 510.171V298.874C496.475 290.45 489.646 283.621 481.222 283.621Z" fill="#3A3A3A"/>
<path d="M481.223 283.758H395.707C387.358 283.758 380.59 290.526 380.59 298.875V510.172C380.59 518.521 387.358 525.289 395.707 525.289H481.223C489.572 525.289 496.34 518.521 496.34 510.172V298.875C496.34 290.526 489.572 283.758 481.223 283.758Z" fill="#393939"/>
<path d="M481.224 283.898H395.707C387.434 283.898 380.727 290.606 380.727 298.879V510.176C380.727 518.45 387.434 525.157 395.707 525.157H481.224C489.497 525.157 496.204 518.45 496.204 510.176V298.879C496.204 290.606 489.497 283.898 481.224 283.898Z" fill="#373737"/>
<path d="M481.22 284.031H395.704C387.506 284.031 380.859 290.678 380.859 298.876V510.173C380.859 518.372 387.506 525.018 395.704 525.018H481.22C489.419 525.018 496.065 518.372 496.065 510.173V298.876C496.065 290.678 489.419 284.031 481.22 284.031Z" fill="#363636"/>
<path d="M481.225 284.168H395.709C387.585 284.168 381 290.753 381 298.877V510.174C381 518.297 387.585 524.883 395.709 524.883H481.225C489.348 524.883 495.934 518.297 495.934 510.174V298.877C495.934 290.753 489.348 284.168 481.225 284.168Z" fill="#343434"/>
<path d="M481.222 284.305H395.703C387.656 284.305 381.133 290.828 381.133 298.875V510.175C381.133 518.222 387.656 524.745 395.703 524.745H481.222C489.269 524.745 495.792 518.222 495.792 510.175V298.875C495.792 290.828 489.269 284.305 481.222 284.305Z" fill="#333333"/>
<path d="M481.223 284.441H395.704C387.732 284.441 381.27 290.904 381.27 298.876V510.175C381.27 518.147 387.732 524.61 395.704 524.61H481.223C489.194 524.61 495.657 518.147 495.657 510.175V298.876C495.657 290.904 489.194 284.441 481.223 284.441Z" fill="#313131"/>
<path d="M481.223 284.578H395.705C387.808 284.578 381.406 290.98 381.406 298.877V510.176C381.406 518.073 387.808 524.474 395.705 524.474H481.223C489.12 524.474 495.522 518.073 495.522 510.176V298.877C495.522 290.98 489.12 284.578 481.223 284.578Z" fill="#303030"/>
<path d="M481.22 284.711H395.701C387.88 284.711 381.539 291.052 381.539 298.873V510.173C381.539 517.995 387.88 524.335 395.701 524.335H481.22C489.042 524.335 495.382 517.995 495.382 510.173V298.873C495.382 291.052 489.042 284.711 481.22 284.711Z" fill="#2F2F2F"/>
<path d="M481.225 284.848H395.706C387.96 284.848 381.68 291.127 381.68 298.874V510.174C381.68 517.92 387.96 524.2 395.706 524.2H481.225C488.971 524.2 495.251 517.92 495.251 510.174V298.874C495.251 291.127 488.971 284.848 481.225 284.848Z" fill="#2D2D2D"/>
<path d="M481.221 284.984H395.703C388.031 284.984 381.812 291.203 381.812 298.875V510.174C381.812 517.846 388.031 524.065 395.703 524.065H481.221C488.893 524.065 495.112 517.846 495.112 510.174V298.875C495.112 291.203 488.893 284.984 481.221 284.984Z" fill="#2C2C2C"/>
<path d="M481.224 285.121H395.707C388.111 285.121 381.953 291.279 381.953 298.875V510.173C381.953 517.769 388.111 523.927 395.707 523.927H481.224C488.82 523.927 494.978 517.769 494.978 510.173V298.875C494.978 291.279 488.82 285.121 481.224 285.121Z" fill="#2A2A2A"/>
<path d="M481.22 285.258H395.704C388.183 285.258 382.086 291.355 382.086 298.876V510.173C382.086 517.695 388.183 523.792 395.704 523.792H481.22C488.742 523.792 494.839 517.695 494.839 510.173V298.876C494.839 291.355 488.742 285.258 481.22 285.258Z" fill="#292929"/>
<path d="M481.225 285.391H395.709C388.263 285.391 382.227 291.427 382.227 298.873V510.17C382.227 517.616 388.263 523.652 395.709 523.652H481.225C488.671 523.652 494.707 517.616 494.707 510.17V298.873C494.707 291.427 488.671 285.391 481.225 285.391Z" fill="#272727"/>
<path d="M481.222 285.531H395.706C388.335 285.531 382.359 291.507 382.359 298.878V510.175C382.359 517.546 388.335 523.521 395.706 523.521H481.222C488.593 523.521 494.568 517.546 494.568 510.175V298.878C494.568 291.507 488.593 285.531 481.222 285.531Z" fill="#262626"/>
<path d="M481.221 283.383C485.328 283.387 489.265 285.021 492.169 287.925C495.074 290.829 496.707 294.766 496.711 298.873V510.173C496.707 514.28 495.074 518.217 492.169 521.121C489.265 524.026 485.328 525.659 481.221 525.663H395.705C391.597 525.659 387.66 524.026 384.755 521.122C381.851 518.218 380.217 514.28 380.212 510.173V298.873C380.217 294.766 381.851 290.829 384.755 287.925C387.66 285.021 391.597 283.387 395.705 283.383H481.221ZM481.221 282.5H395.705C391.365 282.506 387.205 284.233 384.137 287.301C381.069 290.369 379.342 294.529 379.336 298.869V510.168C379.342 514.508 381.069 518.668 384.137 521.736C387.205 524.804 391.365 526.531 395.705 526.537H481.221C485.56 526.531 489.72 524.804 492.789 521.736C495.857 518.668 497.583 514.508 497.59 510.168V298.873C497.583 294.534 495.857 290.374 492.789 287.306C489.72 284.237 485.56 282.511 481.221 282.505V282.5Z" fill="#2D2C2C"/>
<mask id="mask0_43_8257" style="mask-type:luminance" maskUnits="userSpaceOnUse" x="384" y="287" width="109" height="235">
<path d="M481.222 287.676H470.103C469.76 287.676 469.431 287.812 469.188 288.054C468.945 288.297 468.808 288.626 468.807 288.969V289.131C468.809 290.095 468.62 291.05 468.252 291.941C467.884 292.833 467.344 293.643 466.663 294.325C465.982 295.008 465.172 295.549 464.282 295.918C463.391 296.288 462.436 296.478 461.471 296.478H415.095C413.149 296.478 411.283 295.705 409.908 294.329C408.532 292.954 407.759 291.088 407.759 289.142V288.981C407.759 288.638 407.623 288.309 407.38 288.066C407.138 287.824 406.809 287.687 406.466 287.687H395.706C394.235 287.687 392.778 287.976 391.419 288.539C390.06 289.102 388.825 289.927 387.785 290.967C386.745 292.007 385.92 293.242 385.357 294.601C384.794 295.96 384.504 297.416 384.504 298.887V510.187C384.504 511.658 384.794 513.114 385.357 514.473C385.92 515.832 386.745 517.067 387.785 518.107C388.825 519.147 390.06 519.972 391.419 520.535C392.778 521.097 394.235 521.387 395.706 521.387H481.222C484.193 521.387 487.041 520.207 489.142 518.106C491.242 516.006 492.422 513.157 492.422 510.187V298.876C492.422 295.905 491.242 293.057 489.142 290.956C487.041 288.856 484.193 287.676 481.222 287.676Z" fill="white"/>
</mask>
<g mask="url(#mask0_43_8257)">
<path d="M492.418 287.676H384.5V521.375H492.418V287.676Z" fill="#9EA6FF"/>
<path d="M384.271 521.605V336.38H382.727C383.649 334.944 384.571 333.507 385.493 332.069C387.367 329.194 389.288 326.322 391.257 323.451C395.199 317.715 399.331 312.003 403.653 306.314C407.975 300.626 412.38 295.118 416.868 289.791C417.429 289.126 417.99 288.462 418.551 287.802C418.829 287.47 419.11 287.14 419.393 286.812V287.449H492.651V493.326H494.034C492.847 494.29 491.661 495.241 490.474 496.18C485.725 499.933 480.983 503.468 476.247 506.785C471.512 510.102 466.804 513.19 462.124 516.048C459.785 517.478 457.454 518.848 455.132 520.159C453.97 520.814 452.812 521.454 451.657 522.08V521.605H384.271Z" fill="#9EA6FF"/>
<path d="M384.273 521.605V336.682H383.75C384.654 335.26 385.57 333.837 386.498 332.412C388.355 329.567 390.258 326.724 392.209 323.882C396.11 318.205 400.199 312.551 404.478 306.921C408.757 301.291 413.113 295.839 417.546 290.564C418.652 289.245 419.764 287.939 420.879 286.645V287.445H492.653V492.012H493.909C492.737 492.967 491.562 493.908 490.386 494.836C485.688 498.55 480.995 502.048 476.307 505.331C467.438 511.587 458.166 517.249 448.549 522.28V521.605H384.273Z" fill="#9FA7FF"/>
<path d="M384.27 521.606V339.098H383.438C383.877 338.394 384.321 337.69 384.77 336.986C385.665 335.576 386.571 334.168 387.488 332.76C389.333 329.946 391.216 327.133 393.139 324.322C397.001 318.703 401.049 313.108 405.282 307.538C409.514 301.968 413.825 296.573 418.213 291.352C419.31 290.047 420.41 288.753 421.512 287.469L422.342 286.508V287.446H492.658V490.697H493.788C492.626 491.639 491.463 492.571 490.3 493.491C485.649 497.166 481.005 500.625 476.368 503.866C467.592 510.057 458.415 515.66 448.899 520.638C447.774 521.222 446.652 521.791 445.533 522.344V521.595L384.27 521.606Z" fill="#A0A7FE"/>
<path d="M384.268 521.606V341.467H383.164C390.055 330.316 397.705 319.162 406.08 308.149C410.269 302.642 414.534 297.303 418.876 292.133C419.951 290.842 421.04 289.561 422.14 288.292C422.686 287.656 423.233 287.023 423.782 286.395V287.446H492.648V489.378H493.648C492.5 490.314 491.348 491.236 490.19 492.145C485.588 495.783 480.993 499.209 476.404 502.423C467.72 508.549 458.64 514.094 449.225 519.022C446.997 520.176 444.783 521.272 442.583 522.309V521.618L384.268 521.606Z" fill="#A1A8FE"/>
<path d="M384.269 521.605V341.722H384.211C391.03 330.691 398.597 319.654 406.885 308.754C411.035 303.307 415.254 298.025 419.542 292.909C420.618 291.632 421.694 290.364 422.77 289.107C423.311 288.48 423.851 287.855 424.383 287.23V287.44H492.625V488.061H493.499C492.36 488.983 491.222 489.895 490.084 490.797C485.533 494.397 480.987 497.786 476.445 500.965C467.854 507.025 458.87 512.51 449.554 517.384C447.35 518.527 445.16 519.612 442.984 520.637C441.896 521.152 440.811 521.65 439.731 522.131V521.605H384.269Z" fill="#A2A8FD"/>
<path d="M384.271 521.607V346.074H382.766C383.586 344.709 384.418 343.345 385.26 341.982C392.006 331.068 399.492 320.152 407.69 309.371C411.789 303.981 415.963 298.755 420.213 293.694C422.334 291.167 424.471 288.682 426.625 286.238V287.444H492.651V486.744H493.395C492.27 487.666 491.144 488.568 490.018 489.45C485.516 493.01 481.019 496.363 476.526 499.509C468.026 505.503 459.139 510.929 449.924 515.751C445.566 518.013 441.263 520.042 437.013 521.837V521.607H384.271Z" fill="#A3A9FD"/>
<path d="M384.271 520.033V346.275H383.84C384.651 344.924 385.474 343.575 386.309 342.227C392.981 331.433 400.386 320.634 408.494 309.971C412.547 304.641 416.676 299.473 420.879 294.467C422.98 291.967 425.095 289.507 427.224 287.09V287.433H492.65V485.417H493.268C492.154 486.32 491.04 487.212 489.928 488.093C485.47 491.613 481.022 494.93 476.581 498.044C468.174 503.973 459.384 509.341 450.269 514.113C445.958 516.349 441.7 518.355 437.495 520.132C435.395 521.019 433.313 521.847 431.247 522.617V521.598H384.271V520.033Z" fill="#A4AAFC"/>
<path d="M384.27 518.337V348.498H383.719C384.115 347.83 384.513 347.163 384.913 346.497C385.715 345.163 386.529 343.828 387.354 342.493C393.953 331.818 401.277 321.137 409.295 310.592C413.304 305.319 417.388 300.208 421.547 295.259C423.622 292.784 425.713 290.353 427.82 287.964C428.345 287.368 428.873 286.773 429.401 286.18V287.445H492.649V484.112H493.138C492.037 485.007 490.936 485.889 489.834 486.759C485.429 490.24 481.03 493.518 476.635 496.592C468.32 502.461 459.627 507.775 450.612 512.499C442.081 516.921 433.747 520.446 425.713 523.01V521.626H384.27V518.337Z" fill="#A6AAFC"/>
<path d="M384.272 516.65V350.658H383.645C385.182 348.02 386.768 345.382 388.403 342.743C394.93 332.184 402.171 321.623 410.102 311.195C414.067 305.982 418.105 300.927 422.215 296.032C424.27 293.587 426.338 291.182 428.419 288.818C428.94 288.228 429.462 287.64 429.984 287.055V287.437H492.651V482.785H493.013C491.922 483.671 490.833 484.544 489.746 485.404C485.389 488.849 481.038 492.093 476.693 495.136C468.47 500.934 459.873 506.183 450.959 510.85C442.526 515.23 434.282 518.709 426.346 521.243C424.363 521.878 422.401 522.452 420.458 522.965V521.598H384.262L384.272 516.65Z" fill="#A7ABFB"/>
<path d="M384.271 514.942V352.786H383.609C383.984 352.136 384.362 351.485 384.744 350.833C386.267 348.22 387.835 345.611 389.449 343.006C395.904 332.567 403.063 322.123 410.904 311.813C414.824 306.658 418.821 301.663 422.892 296.828C424.921 294.409 426.966 292.031 429.027 289.695C430.055 288.528 431.087 287.371 432.123 286.223V287.451H492.65V481.483H492.881C491.805 482.359 490.729 483.222 489.653 484.072C485.35 487.476 481.046 490.683 476.743 493.693C468.612 499.427 460.112 504.618 451.298 509.232C442.961 513.554 434.807 517.001 426.963 519.509C423.177 520.727 419.329 521.744 415.436 522.557V521.612H384.271V514.942Z" fill="#A8ABFB"/>
<path d="M384.272 513.245V354.861H383.619C384.349 353.574 385.092 352.286 385.846 350.997C387.352 348.419 388.903 345.84 390.499 343.26C396.875 332.94 403.956 322.617 411.709 312.422C415.583 307.325 419.532 302.385 423.554 297.602C425.552 295.212 427.573 292.862 429.615 290.552C430.633 289.397 431.653 288.251 432.677 287.117V287.445H492.651V480.16H492.757C491.692 481.025 490.627 481.878 489.562 482.719C485.304 486.085 481.051 489.256 476.803 492.231C468.765 497.9 460.361 503.031 451.646 507.592C435.162 516.141 419.407 521.225 405.362 522.347C398.337 522.903 391.741 522.465 385.696 520.964C384.94 520.778 384.192 520.575 383.453 520.355H384.272V513.245Z" fill="#A9ACFA"/>
<path d="M384.269 511.549V356.897H383.667C384.022 356.261 384.381 355.624 384.744 354.988C385.465 353.715 386.198 352.442 386.943 351.168C388.433 348.62 389.97 346.07 391.554 343.521C397.86 333.319 404.857 323.113 412.52 313.036C416.34 307.991 420.238 303.108 424.216 298.384C426.198 296.022 428.196 293.699 430.21 291.415C431.215 290.275 432.224 289.143 433.237 288.021C433.744 287.46 434.251 286.903 434.759 286.348V287.445H492.649V477.551H494.205L492.625 478.844C491.574 479.7 490.522 480.545 489.469 481.38C485.26 484.706 481.055 487.84 476.856 490.782C468.91 496.384 460.603 501.456 451.99 505.965C435.692 514.415 420.119 519.441 406.235 520.538C399.294 521.089 392.772 520.656 386.796 519.178C386.049 518.993 385.31 518.793 384.58 518.576C384.215 518.467 383.852 518.354 383.492 518.237H384.269V511.549Z" fill="#AAADFA"/>
<path d="M384.273 509.852V358.884H383.763C386.53 353.861 389.473 348.826 392.593 343.779C398.818 333.694 405.734 323.608 413.317 313.649C417.102 308.67 420.959 303.843 424.886 299.168C426.847 296.833 428.822 294.537 430.811 292.279C431.807 291.15 432.806 290.031 433.808 288.925C434.307 288.372 434.808 287.82 435.311 287.27V287.447H492.652V476.264H494.061C493.543 476.691 493.023 477.116 492.502 477.539C491.46 478.386 490.42 479.22 489.381 480.042C485.222 483.33 481.067 486.427 476.915 489.333C469.061 494.871 460.851 499.885 452.337 504.342C436.235 512.683 420.837 517.649 407.115 518.726C400.254 519.267 393.81 518.841 387.902 517.382C386.423 517.017 384.981 516.588 383.574 516.093H384.266L384.273 509.852Z" fill="#ABADF9"/>
<path d="M384.271 508.151V362.677H382.888C383.55 361.44 384.223 360.2 384.907 358.958C387.646 353.995 390.556 349.02 393.636 344.031C399.794 334.066 406.629 324.098 414.113 314.258C421.596 304.418 429.384 295.164 437.34 286.562V287.436H492.65V474.939H493.914C493.399 475.363 492.885 475.783 492.371 476.2C491.343 477.038 490.316 477.862 489.289 478.674C485.176 481.923 481.069 484.984 476.969 487.856C469.208 493.329 461.094 498.283 452.681 502.687C436.762 510.941 421.557 515.849 407.989 516.923C401.209 517.458 394.848 517.036 389.002 515.593C387.542 515.234 386.116 514.809 384.725 514.321C384.029 514.073 383.342 513.812 382.664 513.537H384.278L384.271 508.151Z" fill="#ACAEF9"/>
<path d="M384.273 506.456V362.714H384.067C384.722 361.492 385.388 360.267 386.066 359.039C388.771 354.134 391.645 349.216 394.689 344.284C400.773 334.437 407.528 324.588 414.924 314.864C422.319 305.139 430.01 296.017 437.87 287.512C438.362 286.979 438.853 286.45 439.345 285.926V287.445H492.652V473.645H493.768C493.261 474.065 492.753 474.48 492.244 474.892C491.23 475.718 490.214 476.532 489.198 477.336C485.136 480.545 481.079 483.569 477.026 486.408C469.357 491.817 461.34 496.713 453.026 501.064C437.298 509.221 422.269 514.069 408.867 515.127C402.167 515.657 395.876 515.24 390.108 513.815C388.664 513.457 387.255 513.037 385.879 512.554C385.192 512.314 384.514 512.057 383.844 511.782H384.273V506.456Z" fill="#ADAEF8"/>
<path d="M384.271 504.757V366.37H383.333C384.586 363.959 385.88 361.54 387.216 359.115C389.888 354.272 392.732 349.415 395.746 344.545C401.758 334.818 408.426 325.086 415.739 315.48C423.051 305.873 430.639 296.842 438.406 288.451C438.893 287.925 439.38 287.402 439.865 286.883V287.443H492.66V472.34H493.631C493.128 472.755 492.626 473.167 492.125 473.574C491.123 474.39 490.119 475.195 489.114 475.988C485.1 479.16 481.091 482.148 477.089 484.951C469.513 490.293 461.593 495.13 453.38 499.43C437.841 507.499 422.992 512.278 409.754 513.327C403.132 513.85 396.917 513.437 391.218 512.029C388.415 511.343 385.686 510.383 383.07 509.163H384.281L384.271 504.757Z" fill="#AEAFF8"/>
<path d="M384.27 503.062V369.931H382.707C383.305 368.743 383.913 367.554 384.531 366.362C385.76 363.979 387.038 361.59 388.365 359.197C391.004 354.409 393.809 349.611 396.78 344.802C402.718 335.193 409.31 325.581 416.528 316.092C423.746 306.603 431.248 297.681 438.921 289.393C439.88 288.355 440.841 287.328 441.805 286.312V287.444H492.65V471.042H493.473C492.978 471.45 492.482 471.856 491.986 472.259C490.996 473.064 490.005 473.859 489.014 474.643C485.048 477.777 481.088 480.728 477.134 483.498C469.649 488.772 461.825 493.547 453.713 497.792C438.363 505.75 423.696 510.472 410.619 511.518C404.081 512.035 397.939 511.629 392.309 510.237C389.541 509.56 386.846 508.612 384.263 507.406L384.27 503.062Z" fill="#AFB0F7"/>
<path d="M384.273 501.364V369.877H383.932C384.522 368.703 385.123 367.528 385.733 366.352C386.955 363.998 388.217 361.638 389.521 359.275C392.133 354.547 394.9 349.808 397.82 345.057C403.685 335.568 410.196 326.074 417.324 316.7C424.453 307.326 431.86 298.517 439.438 290.33C440.385 289.306 441.335 288.293 442.288 287.289V287.441H492.653V469.738H493.331C492.839 470.142 492.349 470.543 491.862 470.939C490.883 471.737 489.904 472.522 488.925 473.295C485.01 476.389 481.099 479.304 477.192 482.04C469.801 487.253 462.073 491.972 454.059 496.166C438.901 504.027 424.414 508.7 411.498 509.724C405.043 510.233 398.975 509.832 393.414 508.458C390.68 507.789 388.019 506.852 385.468 505.662C384.837 505.367 384.218 505.059 383.609 504.739H384.273V501.364Z" fill="#B0B0F7"/>
<path d="M384.271 499.666V373.295H383.439C392.43 354.805 404.057 335.827 418.136 317.314C425.175 308.058 432.492 299.359 439.976 291.274C440.912 290.261 441.85 289.262 442.791 288.277L444.202 286.797V287.452H492.651V468.437H493.179C492.698 468.836 492.214 469.232 491.728 469.624C490.762 470.411 489.795 471.186 488.828 471.95C484.966 475.006 481.105 477.884 477.246 480.586C469.946 485.733 462.316 490.392 454.403 494.534C439.434 502.297 425.124 506.912 412.372 507.922C405.996 508.427 400.006 508.031 394.514 506.673C391.817 506.01 389.191 505.084 386.676 503.906C385.437 503.325 384.23 502.679 383.059 501.972H384.28L384.271 499.666Z" fill="#B1B1F6"/>
<path d="M384.273 497.974V376.615H383.047C383.582 375.478 384.126 374.339 384.679 373.199C393.553 354.949 405.041 336.203 418.945 317.918C425.894 308.78 433.119 300.189 440.508 292.208C442.352 290.21 444.209 288.253 446.078 286.336V287.438H492.648V467.137H493.033C492.556 467.529 492.079 467.92 491.602 468.308C490.647 469.084 489.693 469.852 488.738 470.613C484.92 473.63 481.107 476.474 477.298 479.143C470.093 484.221 462.56 488.817 454.749 492.902C439.969 500.568 425.845 505.121 413.251 506.122C406.954 506.62 401.032 506.226 395.621 504.886C392.955 504.235 390.359 503.322 387.872 502.161C386.649 501.587 385.456 500.949 384.299 500.252C384.011 500.077 383.725 499.898 383.439 499.715H384.273V497.974Z" fill="#B2B1F6"/>
<path d="M384.27 496.275V379.836H382.746C383.76 377.599 384.815 375.355 385.909 373.104C394.67 355.087 406.01 336.581 419.732 318.538C426.594 309.517 433.727 301.038 441.019 293.158C442.843 291.186 444.677 289.253 446.52 287.359V287.447H492.649V465.836H492.88C492.419 466.223 491.939 466.611 491.467 466.989C490.526 467.757 489.584 468.513 488.64 469.255C484.872 472.234 481.106 475.04 477.343 477.672C470.23 482.692 462.793 487.236 455.08 491.275C440.489 498.841 426.545 503.341 414.112 504.323C407.887 504.814 402.059 504.427 396.708 503.106C394.076 502.462 391.513 501.56 389.058 500.413C387.851 499.848 386.674 499.22 385.533 498.53C384.962 498.184 384.4 497.824 383.848 497.449H384.258L384.27 496.275Z" fill="#B3B2F5"/>
<path d="M384.271 494.578V379.648H384.041C385.041 377.444 386.083 375.23 387.165 373.006C395.81 355.224 407.003 336.958 420.548 319.149C427.319 310.245 434.357 301.876 441.557 294.098C443.357 292.152 445.166 290.244 446.984 288.375C447.445 287.914 447.906 287.453 448.349 286.992V287.453H492.651V463.383H494.135C492.277 464.927 490.421 466.437 488.568 467.913C484.847 470.853 481.131 473.619 477.421 476.212C470.399 481.163 463.058 485.646 455.445 489.63C426.643 504.567 400.396 507.394 383.531 494.568L384.271 494.578Z" fill="#B5B3F5"/>
<path d="M384.821 492.878C384.302 492.482 383.793 492.074 383.297 491.654H384.279V382.719H383.882C384.354 381.631 384.835 380.549 385.323 379.473C386.313 377.297 387.341 375.111 388.406 372.916C396.936 355.37 407.984 337.343 421.348 319.769C428.034 310.983 434.978 302.722 442.084 295.047C443.859 293.129 445.644 291.247 447.439 289.401C448.335 288.479 449.234 287.565 450.137 286.66V287.456H492.649V462.087H493.97C492.135 463.624 490.3 465.116 488.465 466.564C484.794 469.464 481.128 472.197 477.465 474.762C470.536 479.649 463.291 484.073 455.778 488.005C427.354 502.746 401.455 505.535 384.821 492.878Z" fill="#B6B3F5"/>
<path d="M386.103 491.182C385.081 490.404 384.101 489.572 383.168 488.689H384.27V385.698H383.809C385.601 381.442 387.55 377.148 389.656 372.815C398.073 355.501 408.973 337.717 422.162 320.375C428.756 311.704 435.61 303.557 442.619 295.983C444.371 294.09 446.133 292.232 447.905 290.411C448.787 289.503 449.674 288.602 450.566 287.709C451.011 287.264 451.456 286.819 451.9 286.379V287.451H492.649V460.8H493.802C491.992 462.313 490.181 463.785 488.37 465.218C484.751 468.081 481.134 470.777 477.521 473.305C470.684 478.127 463.536 482.491 456.124 486.37C428.078 500.918 402.522 503.668 386.103 491.182Z" fill="#B7B4F4"/>
<path d="M387.396 489.483C386.387 488.718 385.421 487.898 384.5 487.028C384.039 486.595 383.592 486.147 383.156 485.691H384.272V388.56H383.829C384.254 387.516 384.686 386.469 385.127 385.42C386.893 381.222 388.815 376.986 390.891 372.712C399.191 355.631 409.948 338.086 422.955 320.98C429.461 312.427 436.221 304.381 443.137 296.918C446.595 293.183 450.087 289.592 453.611 286.145V287.445H492.651V459.515H493.641C491.856 461.007 490.07 462.46 488.283 463.872C484.709 466.697 481.14 469.357 477.576 471.854C470.831 476.609 463.78 480.914 456.467 484.741C428.804 499.088 403.594 501.804 387.396 489.483Z" fill="#B8B4F4"/>
<path d="M388.686 487.788C386.697 486.276 384.875 484.557 383.25 482.659H384.271V391.326H383.949C384.745 389.278 385.578 387.22 386.448 385.149C388.191 381.009 390.086 376.83 392.135 372.615C400.324 355.769 410.929 338.466 423.761 321.593C430.178 313.157 436.845 305.224 443.664 297.86C447.076 294.171 450.521 290.63 453.997 287.234V287.446H492.651V458.23H493.476C491.718 459.701 489.956 461.133 488.192 462.527C484.669 465.312 481.15 467.936 477.633 470.398C470.981 475.09 464.027 479.337 456.815 483.11C429.527 497.261 404.661 499.938 388.686 487.788Z" fill="#B9B5F3"/>
<path d="M389.973 486.089C388.013 484.597 386.217 482.901 384.615 481.03C384.212 480.569 383.822 480.085 383.444 479.594H384.269V396.994H383.07C386.046 388.652 389.487 380.482 393.376 372.524C401.445 355.913 411.909 338.848 424.562 322.21C430.89 313.892 437.472 306.072 444.19 298.807C447.553 295.174 450.949 291.681 454.378 288.329C455.236 287.493 456.093 286.664 456.951 285.844V287.458H492.649V456.936H493.31C491.573 458.385 489.837 459.798 488.1 461.174C484.623 463.919 481.152 466.506 477.686 468.936C471.13 473.562 464.276 477.749 457.168 481.471C430.249 495.437 405.728 498.07 389.973 486.089Z" fill="#BAB5F3"/>
<path d="M391.276 484.395C389.337 482.926 387.559 481.254 385.973 479.409C385.183 478.487 384.437 477.521 383.733 476.513H384.263V399.481H383.438C383.766 398.505 384.105 397.527 384.454 396.546C387.39 388.322 390.784 380.268 394.619 372.422C402.582 356.053 412.892 339.223 425.367 322.815C431.592 314.615 438.088 306.908 444.719 299.742C448.034 296.16 451.382 292.716 454.764 289.412C455.607 288.586 456.453 287.769 457.3 286.961V287.447H492.649V455.658H493.145C491.434 457.089 489.722 458.481 488.008 459.835C484.582 462.545 481.16 465.096 477.742 467.487C471.275 472.048 464.514 476.177 457.503 479.847C430.974 493.596 406.799 496.209 391.276 484.395Z" fill="#BBB6F2"/>
<path d="M392.556 482.697C388.72 479.753 385.532 476.05 383.191 471.82H384.27V401.868H383.899C384.514 399.962 385.163 398.04 385.845 396.104C388.739 387.998 392.083 380.06 395.862 372.328C403.712 356.19 413.87 339.59 426.172 323.427C432.318 315.342 438.709 307.75 445.245 300.681C448.514 297.146 451.815 293.752 455.147 290.498C455.978 289.683 456.812 288.878 457.648 288.082C458.066 287.683 458.483 287.289 458.9 286.895V287.446H492.65V454.36H492.982C491.291 455.771 489.6 457.144 487.91 458.478C484.528 461.148 481.156 463.662 477.791 466.021C471.417 470.518 464.752 474.587 457.84 478.203C431.696 491.773 407.876 494.339 392.556 482.697Z" fill="#BCB7F2"/>
<path d="M393.847 481C390.07 478.098 386.931 474.449 384.625 470.28C384.028 469.22 383.473 468.12 382.961 466.981H384.277V406.935H383.623C384.675 403.247 385.88 399.488 387.235 395.659C390.086 387.67 393.381 379.846 397.105 372.225C404.84 356.317 414.857 339.971 426.974 324.041C433.033 316.073 439.332 308.594 445.773 301.625C449.001 298.146 452.253 294.801 455.53 291.589C457.171 289.984 458.817 288.414 460.468 286.879V287.448H492.65V453.084H492.818C491.154 454.467 489.49 455.82 487.827 457.141C484.498 459.773 481.173 462.251 477.853 464.576C471.571 469.007 465.002 473.017 458.19 476.581C432.42 489.946 408.936 492.475 393.847 481Z" fill="#BDB7F1"/>
<path d="M395.138 479.301C391.412 476.443 388.317 472.847 386.045 468.738C384.842 466.587 383.828 464.336 383.016 462.01H384.27V411.751H383.617C384.062 409.962 384.543 408.158 385.063 406.338C386.102 402.696 387.288 398.991 388.622 395.226C391.432 387.354 394.678 379.646 398.347 372.137C405.969 356.46 415.838 340.358 427.778 324.658C433.747 316.808 439.953 309.428 446.3 302.572C449.473 299.145 452.677 295.849 455.914 292.684C457.529 291.102 459.151 289.556 460.779 288.045C461.184 287.667 461.592 287.291 461.998 286.918V287.455H492.661V451.797C491.024 453.167 489.385 454.499 487.743 455.795C484.465 458.386 481.19 460.828 477.917 463.119C471.73 467.485 465.26 471.436 458.552 474.948C433.143 488.117 410.003 490.609 395.138 479.301Z" fill="#BEB8F1"/>
<path d="M396.431 477.604C392.761 474.789 389.711 471.248 387.472 467.202C386.289 465.083 385.291 462.866 384.488 460.576C384.073 459.399 383.698 458.187 383.363 456.94H384.272V416.277H383.88C389.699 388.708 405.06 356.19 428.582 325.26C434.464 317.527 440.571 310.258 446.828 303.503C449.954 300.122 453.111 296.875 456.299 293.762C457.892 292.207 459.49 290.684 461.092 289.193C461.891 288.448 462.692 287.711 463.496 286.984V287.445H492.651V449.491H493.7L492.487 450.51C490.874 451.858 489.26 453.171 487.646 454.448C484.418 457.002 481.191 459.408 477.963 461.664C471.866 465.962 465.491 469.851 458.881 473.307C433.869 486.289 411.075 488.753 396.431 477.604Z" fill="#BFB8F0"/>
<path d="M397.734 475.907C390.523 470.423 385.999 462.111 383.996 451.778H384.284V434.859H382.859C383.152 428.35 383.993 421.877 385.372 415.509C391.104 388.358 406.232 356.333 429.406 325.871C440.989 310.638 453.487 297.239 466.167 286.051V287.434H492.68V448.219H493.544C493.148 448.555 492.75 448.89 492.352 449.222C490.752 450.553 489.153 451.846 487.555 453.102C484.373 455.616 481.195 457.985 478.022 460.207C472.017 464.446 465.739 468.283 459.228 471.693C434.594 484.46 412.146 486.877 397.734 475.907Z" fill="#C0B9F0"/>
<path d="M399.01 474.21C391.912 468.81 387.458 460.626 385.484 450.45C383.511 440.274 384.02 428.119 386.842 414.748C392.484 388.004 407.379 356.482 430.185 326.488C441.59 311.491 453.896 298.297 466.38 287.281V287.452H492.651V446.948H493.343C492.951 447.28 492.559 447.607 492.169 447.935C490.603 449.244 489.037 450.517 487.471 451.755C484.338 454.231 481.21 456.563 478.085 458.752C472.172 462.921 465.99 466.695 459.579 470.048C435.312 482.629 413.212 485.011 399.01 474.21Z" fill="#C1BAEF"/>
<path d="M400.298 472.515C386.321 461.884 382.766 440.291 388.31 413.975C393.855 387.658 408.527 356.62 430.982 327.094C442.209 312.339 454.32 299.343 466.61 288.5C467.379 287.822 468.147 287.153 468.916 286.492V287.447H492.648V445.679H493.146C492.761 446.004 492.376 446.329 491.993 446.65C490.456 447.939 488.916 449.193 487.371 450.41C484.286 452.848 481.206 455.144 478.131 457.299C472.312 461.404 466.227 465.119 459.918 468.42C436.035 480.803 414.279 483.145 400.298 472.515Z" fill="#C2BAEF"/>
<path d="M401.589 470.817C387.832 460.355 384.335 439.103 389.799 413.206C395.263 387.309 409.695 356.762 431.793 327.704C442.843 313.179 454.762 300.396 466.856 289.724C467.613 289.055 468.37 288.396 469.127 287.746C469.505 287.42 469.884 287.097 470.264 286.777V287.446H492.648V443.438H494.098C493.34 444.088 492.582 444.729 491.825 445.363C490.308 446.631 488.791 447.864 487.274 449.063C484.24 451.462 481.209 453.721 478.181 455.841C472.453 459.881 466.464 463.538 460.254 466.787C436.759 478.974 415.346 481.279 401.589 470.817Z" fill="#C3BBEE"/>
<path d="M402.885 469.118C389.35 458.824 385.908 437.916 391.28 412.441C396.651 386.966 410.853 356.905 432.596 328.317C443.466 314.023 455.189 301.449 467.095 290.948C468.582 289.637 470.072 288.357 471.563 287.109V287.448H492.646V442.181H493.895C493.15 442.822 492.405 443.454 491.659 444.076C490.173 445.323 488.682 446.535 487.187 447.714C484.2 450.075 481.219 452.298 478.241 454.384C472.606 458.359 466.713 461.956 460.602 465.153C437.488 477.143 416.421 479.412 402.885 469.118Z" fill="#C4BBEE"/>
<path d="M404.177 467.42C390.863 457.297 387.478 436.732 392.767 411.67C398.056 386.607 412.029 357.044 433.405 328.925C444.098 314.861 455.634 302.497 467.339 292.169C468.802 290.878 470.268 289.619 471.736 288.393C472.469 287.778 473.203 287.173 473.937 286.578V287.445H492.653V440.924H493.702C492.969 441.555 492.236 442.177 491.503 442.789C490.036 444.018 488.569 445.212 487.099 446.369C484.162 448.692 481.229 450.878 478.299 452.928C472.757 456.839 466.962 460.378 460.951 463.522C438.212 475.314 417.491 477.546 404.177 467.42Z" fill="#C5BCEE"/>
<path d="M405.464 465.725C392.371 455.77 389.042 435.549 394.243 410.904C399.444 386.258 413.178 357.187 434.206 329.537C444.721 315.705 456.064 303.55 467.573 293.395C470.45 290.857 473.334 288.446 476.225 286.16V287.447H492.649V439.671H493.497C492.775 440.286 492.054 440.897 491.335 441.504C489.892 442.71 488.448 443.884 487.003 445.024C484.117 447.307 481.232 449.459 478.351 451.48C472.9 455.324 467.201 458.804 461.29 461.896C438.93 473.488 418.554 475.682 405.464 465.725Z" fill="#C6BDED"/>
<path d="M406.755 464.027C393.883 454.24 390.616 434.36 395.725 410.135C400.834 385.909 414.33 357.342 435.008 330.138C445.346 316.535 456.497 304.591 467.81 294.608C470.638 292.111 473.474 289.74 476.317 287.496C477.027 286.935 477.737 286.382 478.447 285.836V287.436H492.649V438.413H493.294C492.587 439.028 491.879 439.629 491.169 440.216C489.752 441.401 488.333 442.554 486.913 443.674C484.073 445.92 481.237 448.034 478.406 450.017C473.048 453.795 467.445 457.215 461.636 460.255C439.653 471.658 419.633 473.816 406.755 464.027Z" fill="#C8BDED"/>
<path d="M408.042 462.331C382.744 443.106 395.18 384.188 435.811 330.759C445.969 317.403 456.927 305.652 468.048 295.843C470.826 293.384 473.612 291.054 476.408 288.853C477.104 288.302 477.801 287.759 478.499 287.223V287.453H492.648V437.16H493.093C492.396 437.757 491.7 438.347 491.004 438.931C489.608 440.096 488.214 441.229 486.819 442.331C484.03 444.538 481.243 446.613 478.46 448.556C473.194 452.271 467.688 455.633 461.978 458.619C440.381 469.831 420.69 471.949 408.042 462.331Z" fill="#C9BEEC"/>
<path d="M409.334 460.627C384.484 441.722 396.698 383.855 436.617 331.362C446.595 318.239 457.366 306.694 468.287 297.057C471.016 294.649 473.754 292.36 476.499 290.191C477.871 289.115 479.242 288.063 480.609 287.035V287.439H492.649V435.903H492.893C492.207 436.49 491.523 437.07 490.839 437.644C489.477 438.787 488.104 439.901 486.721 440.984C483.979 443.151 481.242 445.192 478.509 447.107C473.336 450.757 467.926 454.059 462.316 456.993C441.101 468.004 421.76 470.079 409.334 460.627Z" fill="#CABEEC"/>
<path d="M410.629 458.936C386.221 440.372 398.216 383.533 437.423 331.981C447.225 319.094 457.798 307.755 468.528 298.289C471.211 295.924 473.901 293.676 476.597 291.546C477.943 290.481 479.289 289.447 480.634 288.445C481.307 287.944 481.979 287.451 482.651 286.965V287.447H492.654V434.645H492.696C492.026 435.225 491.354 435.795 490.681 436.356C489.333 437.473 487.987 438.57 486.642 439.646C483.949 441.775 481.259 443.78 478.573 445.661C473.489 449.244 468.175 452.488 462.665 455.371C441.828 466.17 422.834 468.215 410.629 458.936Z" fill="#CBBFEB"/>
<path d="M411.919 457.238C387.953 439.011 399.732 383.205 438.226 332.591C447.849 319.936 458.231 308.806 468.764 299.51C473.807 295.043 479.095 290.861 484.605 286.984V287.445H492.651V432.535H493.481L492.487 433.39C491.828 433.957 491.168 434.517 490.507 435.068C489.188 436.17 487.867 437.246 486.544 438.296C483.902 440.388 481.262 442.356 478.625 444.2C473.636 447.719 468.419 450.905 463.01 453.736C442.549 464.341 423.9 466.349 411.919 457.238Z" fill="#CCBFEB"/>
<path d="M413.21 455.54C389.694 437.654 401.249 382.881 439.031 333.203C448.483 320.784 458.666 309.858 469.002 300.735C473.95 296.35 479.14 292.245 484.547 288.44C485.193 287.988 485.838 287.544 486.484 287.105V287.444H492.649V430.447H494.228C483.888 439.567 473.4 446.887 463.358 452.098C443.273 462.514 424.97 464.485 413.21 455.54Z" fill="#CDC0EA"/>
<path d="M414.502 453.845C391.425 436.296 402.765 382.556 439.835 333.828C449.1 321.641 459.099 310.923 469.243 301.971C474.099 297.67 479.191 293.644 484.496 289.911C485.764 289.023 487.03 288.164 488.293 287.336V287.458H492.653V429.244H493.994C483.85 438.193 473.559 445.382 463.705 450.486C443.998 460.688 426.039 462.62 414.502 453.845Z" fill="#CEC1EA"/>
<path d="M415.787 452.147C393.154 434.935 404.278 382.241 440.633 334.426C449.723 322.475 459.537 311.962 469.476 303.183C474.239 298.965 479.234 295.015 484.436 291.353C486.923 289.612 489.398 287.989 491.862 286.484V287.446H492.648V428H493.753C483.802 436.779 473.709 443.822 464.045 448.834C444.718 458.856 427.104 460.754 415.787 452.147Z" fill="#CFC1E9"/>
<path d="M417.079 450.449C394.891 433.573 405.8 381.901 441.438 335.036C450.349 323.319 459.96 313.012 469.715 304.405C474.384 300.27 479.281 296.398 484.382 292.809C486.821 291.101 489.248 289.51 491.662 288.034C492.266 287.666 492.868 287.305 493.468 286.953L492.649 287.444V426.774H493.514C483.762 435.381 473.867 442.285 464.391 447.201C445.454 457.026 428.175 458.887 417.079 450.449Z" fill="#D0C2E9"/>
<path d="M418.368 448.754C396.623 432.217 407.302 381.578 442.239 335.649C450.972 324.165 460.392 314.065 469.95 305.632C474.527 301.579 479.326 297.784 484.325 294.266C486.715 292.592 489.093 291.033 491.46 289.588C492.051 289.225 492.641 288.872 493.231 288.527H492.648V425.552H493.275C483.716 433.988 474.02 440.754 464.733 445.57C446.163 455.2 429.241 457.021 418.368 448.754Z" fill="#D1C2E8"/>
<path d="M419.661 447.055C398.359 430.855 408.825 381.248 443.045 336.257C451.599 325.009 460.827 315.114 470.192 306.854C474.674 302.882 479.374 299.165 484.271 295.718C486.612 294.072 488.942 292.545 491.262 291.137C491.839 290.782 492.417 290.436 492.995 290.098H492.649V424.328H493.039C483.674 432.589 474.176 439.219 465.081 443.936C446.889 453.37 430.312 455.154 419.661 447.055Z" fill="#D2C3E8"/>
<path d="M420.954 445.357C400.096 429.503 410.346 380.924 443.842 336.869C452.218 325.856 461.256 316.166 470.424 308.077C474.815 304.187 479.42 300.545 484.218 297.169C486.509 295.562 488.791 294.066 491.063 292.681C491.63 292.335 492.195 291.996 492.76 291.664H492.651V423.098H492.803C483.635 431.188 474.332 437.678 465.426 442.298C447.614 451.543 431.393 453.29 420.954 445.357Z" fill="#D3C3E8"/>
<path d="M422.246 443.662C401.831 428.137 411.871 380.599 444.655 337.482C452.853 326.704 461.697 317.229 470.67 309.303C474.965 305.498 479.47 301.936 484.163 298.633C486.407 297.062 488.64 295.598 490.861 294.241C491.972 293.563 493.078 292.914 494.178 292.293H492.652V420.379H494.248C493.688 420.887 493.127 421.388 492.565 421.883C483.592 429.799 474.487 436.153 465.773 440.674C448.339 449.714 432.452 451.425 422.246 443.662Z" fill="#D4C4E7"/>
<path d="M423.535 441.962C403.563 426.774 413.391 380.27 445.455 338.09C453.476 327.545 462.128 318.263 470.905 310.524C475.107 306.801 479.515 303.317 484.106 300.087C486.301 298.55 488.485 297.117 490.658 295.789C491.743 295.127 492.825 294.491 493.902 293.883H492.65V419.187H493.969C493.423 419.681 492.875 420.171 492.325 420.655C483.546 428.401 474.642 434.617 466.114 439.039C449.061 447.883 433.52 449.559 423.535 441.962Z" fill="#D5C5E7"/>
<path d="M424.825 440.266C405.3 425.417 414.896 379.944 446.266 338.702C454.105 328.392 462.566 319.322 471.151 311.748C475.261 308.108 479.571 304.7 484.062 301.542C486.213 300.039 488.349 298.639 490.469 297.342C491.531 296.693 492.588 296.071 493.641 295.477H492.661V417.995H493.705C493.171 418.479 492.633 418.958 492.092 419.432C483.508 427.005 474.801 433.082 466.462 437.414C449.784 446.055 434.589 447.692 424.825 440.266Z" fill="#D6C5E6"/>
<path d="M426.113 438.57C407.03 424.057 416.404 379.619 447.067 339.313C454.728 329.238 462.995 320.374 471.385 312.973C475.4 309.416 479.611 306.085 483.998 302.998C486.096 301.53 488.183 300.162 490.26 298.894C491.297 298.261 492.33 297.653 493.358 297.07H492.653V416.804H493.423C492.9 417.279 492.377 417.748 491.853 418.21C483.463 425.611 474.954 431.55 466.806 435.776C450.504 444.227 435.655 445.825 426.113 438.57Z" fill="#D7C6E6"/>
<path d="M427.406 436.882C408.766 422.705 417.928 379.301 447.867 339.933C455.352 330.091 463.426 321.434 471.613 314.204C475.535 310.73 479.648 307.478 483.933 304.463C485.98 303.026 488.019 301.689 490.05 300.452C491.062 299.837 492.071 299.244 493.077 298.672H492.643V415.616H493.139C492.629 416.077 492.118 416.538 491.606 416.999C483.412 424.229 475.099 430.03 467.14 434.156C451.23 442.398 436.724 443.962 427.406 436.882Z" fill="#D8C6E5"/>
<path d="M428.699 435.173C410.504 421.34 419.447 378.966 448.673 340.534C455.979 330.927 463.861 322.475 471.859 315.418C475.688 312.027 479.704 308.852 483.887 305.908C485.885 304.508 487.875 303.202 489.858 301.989C490.843 301.388 491.828 300.811 492.813 300.258H492.652V414.422H492.883C492.385 414.873 491.885 415.32 491.384 415.761C483.386 422.818 475.273 428.48 467.504 432.51C451.956 440.568 437.796 442.094 428.699 435.173Z" fill="#D9C7E5"/>
<path d="M429.985 433.477C412.233 419.979 420.957 378.639 449.471 341.146C456.6 331.774 464.291 323.528 472.095 316.643C475.829 313.334 479.746 310.237 483.827 307.366C485.777 306 487.719 304.727 489.651 303.546C490.616 302.956 491.577 302.391 492.535 301.852C493.014 301.581 493.492 301.317 493.966 301.059H492.648V411.893H494.054C493.081 412.797 492.107 413.679 491.133 414.538C483.329 421.433 475.424 426.948 467.834 430.886C452.676 438.74 438.861 440.227 429.985 433.477Z" fill="#DAC7E4"/>
<path d="M431.279 431.78C413.97 418.618 422.477 378.321 450.279 341.756C456.829 333.089 464.217 325.087 472.335 317.867C475.977 314.641 479.796 311.621 483.775 308.821C485.677 307.488 487.57 306.247 489.453 305.097C490.394 304.522 491.331 303.971 492.266 303.444C492.727 303.181 493.192 302.924 493.66 302.672H492.651V410.735H493.746C492.799 411.616 491.85 412.476 490.898 413.315C483.29 420.026 475.572 425.414 468.183 429.246C453.4 436.912 439.923 438.362 431.279 431.78Z" fill="#DBC8E4"/>
<path d="M432.572 430.085C415.708 417.259 423.996 377.981 451.083 342.371C457.467 333.924 464.665 326.125 472.574 319.086C476.126 315.945 479.85 313.004 483.728 310.277C485.582 308.98 487.426 307.771 489.261 306.651C490.183 306.091 491.096 305.553 492 305.037C492.461 304.781 492.909 304.53 493.363 304.285H492.671V409.58H493.455C492.533 410.437 491.611 411.275 490.688 412.093C483.274 418.633 475.754 423.881 468.556 427.615C454.126 435.085 441.004 436.496 432.572 430.085Z" fill="#DCC9E3"/>
<path d="M433.857 428.387C417.437 415.899 425.509 377.667 451.883 342.982C458.098 334.759 465.107 327.166 472.808 320.314C476.263 317.254 479.887 314.389 483.662 311.734C485.466 310.467 487.262 309.289 489.049 308.199C489.941 307.655 490.83 307.133 491.717 306.632C492.16 306.383 492.6 306.138 493.043 305.898H492.648V408.422H493.109C492.218 409.258 491.318 410.073 490.41 410.868C483.203 417.236 475.885 422.356 468.868 425.983C454.846 433.254 442.069 434.63 433.857 428.387Z" fill="#DDC9E3"/>
<path d="M435.152 426.69C419.175 414.541 427.027 377.335 452.689 343.592C465.514 326.719 480.375 313.907 494.019 306.832H492.652V407.265H492.813C491.94 408.076 491.064 408.869 490.185 409.644C483.163 415.841 476.039 420.814 469.205 424.35C455.573 431.426 443.151 432.765 435.152 426.69Z" fill="#DECAE3"/>
<path d="M436.44 424.992C420.908 413.179 428.542 377.008 453.501 344.202C465.973 327.798 480.407 315.342 493.671 308.465H492.649V404.907H493.772C493.348 405.311 492.924 405.71 492.5 406.105C491.651 406.894 490.8 407.662 489.945 408.411C483.116 414.437 476.191 419.27 469.558 422.705C456.29 429.596 444.207 430.896 436.44 424.992Z" fill="#DFCAE2"/>
<path d="M437.731 423.295C422.642 411.821 430.058 376.684 454.293 344.815C466.413 328.88 480.442 316.781 493.327 310.098H492.649V403.784H493.426C493.012 404.178 492.6 404.562 492.188 404.937C491.363 405.706 490.536 406.456 489.707 407.187C483.074 413.038 476.336 417.735 469.903 421.075C457.016 427.77 445.274 429.043 437.731 423.295Z" fill="#E0CBE2"/>
<path d="M439.025 421.595C424.378 410.458 431.578 376.355 455.101 345.423C466.858 329.958 480.479 318.219 492.986 311.727H492.652V402.658H493.081C492.682 403.039 492.281 403.417 491.88 403.788C491.079 404.533 490.276 405.261 489.47 405.971C483.033 411.652 476.502 416.21 470.25 419.451C457.743 425.936 446.347 427.165 439.025 421.595Z" fill="#E1CBE1"/>
<path d="M440.314 419.901C426.113 409.103 433.091 376.031 455.904 346.046C467.309 331.061 480.512 319.66 492.639 313.371C493.02 313.174 493.398 312.983 493.773 312.797H492.65V400.427H493.891C492.354 401.936 490.801 403.38 489.231 404.759C482.991 410.267 476.657 414.686 470.592 417.831C458.465 424.111 447.415 425.301 440.314 419.901Z" fill="#E2CCE1"/>
<path d="M441.6 418.206C427.843 407.742 434.617 375.705 456.703 346.647C467.753 332.123 480.544 321.086 492.292 314.993C492.66 314.803 493.025 314.617 493.39 314.438H492.647V399.329H493.505C492.009 400.792 490.505 402.191 488.991 403.525C482.944 408.862 476.807 413.134 470.935 416.189C459.186 422.282 448.479 423.435 441.6 418.206Z" fill="#E3CCE0"/>
<path d="M442.896 416.509C429.584 406.383 436.127 375.379 457.512 347.26C468.205 333.196 480.583 322.522 491.951 316.627C492.664 316.258 493.371 315.909 494.072 315.578H492.652V398.243H493.113C491.668 399.658 490.213 401.012 488.747 402.305C482.893 407.467 476.956 411.61 471.271 414.558C459.915 420.456 449.554 421.571 442.896 416.509Z" fill="#E4CDE0"/>
<path d="M444.182 414.809C431.313 405.02 437.637 375.051 458.31 347.868C468.646 334.266 480.613 323.956 491.603 318.257C492.29 317.898 492.974 317.56 493.653 317.242H492.648V397.152H492.738C491.337 398.519 489.93 399.826 488.516 401.071C482.859 406.062 477.118 410.062 471.624 412.916C460.632 418.625 450.617 419.701 444.182 414.809Z" fill="#E5CEDF"/>
<path d="M445.476 413.113C433.05 403.66 439.157 374.727 459.118 348.482C469.096 335.359 480.651 325.395 491.263 319.894C491.924 319.55 492.582 319.223 493.238 318.914H492.651V395.063H493.368C493.031 395.402 492.694 395.734 492.358 396.066C491.007 397.388 489.647 398.651 488.279 399.856C482.818 404.675 477.271 408.543 471.968 411.291C461.363 416.797 451.68 417.839 445.476 413.113Z" fill="#E6CEDF"/>
<path d="M446.765 411.415C434.777 402.304 440.672 374.401 459.906 349.092C469.529 336.44 480.671 326.831 490.903 321.523C491.544 321.191 492.18 320.876 492.81 320.578H492.637V393.025H493.905C493.259 393.689 492.611 394.34 491.959 394.977C490.657 396.25 489.351 397.468 488.04 398.632C482.772 403.279 477.435 407.007 472.314 409.661C462.08 414.98 452.757 415.973 446.765 411.415Z" fill="#E7CFDF"/>
<path d="M448.058 409.716C436.531 400.942 442.191 374.072 460.724 349.701C469.99 337.514 480.729 328.262 490.573 323.153C491.803 322.516 493.019 321.942 494.223 321.434H492.65V392.006H493.464C492.842 392.647 492.217 393.274 491.59 393.887C490.336 395.117 489.074 396.289 487.804 397.405C482.732 401.882 477.587 405.474 472.66 408.026C462.806 413.133 453.827 414.104 448.058 409.716Z" fill="#E8CFDE"/>
<path d="M449.35 408.02C438.254 399.582 443.706 373.747 461.528 350.312C470.438 338.595 480.755 329.699 490.228 324.786C491.413 324.171 492.583 323.62 493.737 323.133H492.651V391.001H493.009C492.412 391.616 491.812 392.218 491.208 392.808C490 393.986 488.786 395.114 487.568 396.193C482.689 400.495 477.742 403.948 473.004 406.404C463.531 411.31 454.909 412.239 449.35 408.02Z" fill="#E9D0DE"/>
<path d="M450.641 406.321C439.992 398.22 445.228 373.418 462.334 350.921C470.887 339.675 480.792 331.134 489.887 326.417C491.022 325.826 492.145 325.297 493.255 324.828H492.653V389.079H493.412C493.126 389.379 492.84 389.678 492.552 389.973C491.977 390.564 491.401 391.142 490.823 391.709C489.665 392.841 488.5 393.923 487.328 394.958C482.647 399.089 477.896 402.402 473.35 404.761C464.257 409.477 455.966 410.365 450.641 406.321Z" fill="#EAD0DD"/>
<path d="M451.928 404.629C441.721 396.866 446.738 373.097 463.132 351.539C471.33 340.758 480.822 332.574 489.537 328.053C490.628 327.487 491.704 326.98 492.764 326.531H492.647V387.229H493.735C491.629 389.509 489.41 391.681 487.086 393.738C482.599 397.696 478.048 400.873 473.689 403.132C464.974 407.653 457.032 408.509 451.928 404.629Z" fill="#EBD1DD"/>
<path d="M453.222 402.928C443.458 395.502 448.258 372.766 463.94 352.146C471.778 341.834 480.859 334.004 489.196 329.681C490.238 329.14 491.267 328.656 492.283 328.227C492.792 328.012 493.295 327.812 493.795 327.625H492.643V386.285H493.205C491.191 388.466 489.068 390.544 486.844 392.51C482.552 396.298 478.199 399.336 474.031 401.501C465.701 405.821 458.105 406.64 453.222 402.928Z" fill="#ECD1DC"/>
<path d="M454.511 401.231C445.193 394.144 449.771 372.443 464.741 352.759C472.226 342.917 480.89 335.443 488.851 331.318C489.844 330.802 490.826 330.341 491.797 329.935C492.282 329.73 492.763 329.541 493.241 329.363H492.65V385.347H492.685C490.762 387.428 488.736 389.412 486.615 391.29C482.518 394.903 478.361 397.803 474.382 399.866C466.435 403.995 459.171 404.775 454.511 401.231Z" fill="#EDD2DC"/>
<path d="M455.801 399.533C446.925 392.783 451.287 372.114 465.544 353.369C472.673 343.995 480.924 336.878 488.504 332.947C490.28 332.014 492.131 331.232 494.037 330.609H492.654V382.844H493.576C493.115 383.374 492.644 383.895 492.163 384.407C490.333 386.391 488.403 388.28 486.381 390.067C482.48 393.509 478.522 396.271 474.731 398.238C467.146 402.168 460.239 402.911 455.801 399.533Z" fill="#EED2DC"/>
<path d="M457.095 397.837C448.662 391.425 452.807 371.785 466.352 353.98C473.123 345.074 480.961 338.303 488.164 334.58C489.847 333.694 491.603 332.951 493.411 332.359H492.645V381.977H492.968C492.522 382.481 492.075 382.977 491.626 383.464C489.886 385.348 488.053 387.142 486.132 388.841C482.428 392.11 478.667 394.736 475.066 396.603C467.873 400.336 461.31 401.043 457.095 397.837Z" fill="#EFD3DB"/>
<path d="M458.385 396.14C450.396 390.065 454.323 371.472 467.145 354.591C473.562 346.155 480.978 339.749 487.809 336.212C489.406 335.372 491.071 334.669 492.787 334.109H492.644V379.656H493.64C492.81 380.647 491.964 381.603 491.104 382.524C489.457 384.308 487.72 386.008 485.9 387.617C482.389 390.715 478.827 393.2 475.415 394.971C468.593 398.508 462.378 399.176 458.385 396.14Z" fill="#F0D4DB"/>
<path d="M459.674 394.445C452.142 388.697 455.831 371.139 467.957 355.204C474.016 347.236 481.029 341.187 487.473 337.846C488.981 337.052 490.554 336.387 492.174 335.859C492.552 335.739 492.928 335.628 493.299 335.531H492.651V378.874H492.962C492.178 379.808 491.384 380.71 490.578 381.58C489.022 383.265 487.381 384.871 485.663 386.392C482.346 389.32 478.977 391.667 475.761 393.338C469.318 396.681 463.439 397.313 459.674 394.445Z" fill="#F1D4DA"/>
<path d="M460.963 392.748C453.863 387.346 457.353 370.811 468.758 355.814C474.462 348.315 481.062 342.622 487.128 339.478C488.551 338.731 490.035 338.105 491.564 337.608C492.245 337.387 492.938 337.202 493.639 337.055H492.643V376.755H493.385C493.024 377.216 492.658 377.663 492.288 378.096C491.55 378.976 490.801 379.825 490.042 380.644C488.525 382.281 486.976 383.793 485.417 385.172C482.296 387.925 479.128 390.135 476.096 391.708C470.04 394.852 464.514 395.447 460.963 392.748Z" fill="#F2D5DA"/>
<path d="M462.253 391.048C455.597 385.988 458.868 370.484 469.561 356.42C474.907 349.391 481.088 344.052 486.78 341.105C488.112 340.405 489.5 339.819 490.93 339.353C491.575 339.146 492.231 338.972 492.894 338.832H492.65V374.758H493.669C482.974 388.819 468.908 396.111 462.253 391.048Z" fill="#F3D5D9"/>
<path d="M463.544 389.353C457.32 384.629 460.384 370.16 470.364 357.037C475.355 350.476 481.13 345.494 486.438 342.743C489.089 341.36 491.625 340.551 493.884 340.371H492.648V374.148H492.863C482.885 387.271 469.758 394.079 463.544 389.353Z" fill="#F4D6D9"/>
<path d="M464.838 387.656C459.074 383.276 461.903 369.835 471.171 357.648C475.805 351.557 481.168 346.93 486.094 344.374C488.559 343.096 490.913 342.338 493.011 342.172H492.651V371.241H493.725C493.195 372.009 492.642 372.777 492.063 373.547C482.804 385.722 470.606 392.043 464.838 387.656Z" fill="#F5D6D9"/>
<path d="M466.126 385.959C460.801 381.908 463.418 369.507 471.966 358.266C476.245 352.643 481.188 348.371 485.744 346.012C488.017 344.834 490.191 344.133 492.127 343.979C492.596 343.945 493.066 343.945 493.534 343.979H492.644V368.673H494.177C493.299 370.095 492.321 371.52 491.251 372.926C482.703 384.175 471.452 390.01 466.126 385.959Z" fill="#F5D7D8"/>
<path d="M467.419 384.262C462.538 380.548 464.938 369.182 472.779 358.87C476.698 353.715 481.237 349.8 485.406 347.638C487.492 346.559 489.484 345.916 491.259 345.775C492.092 345.698 492.931 345.757 493.745 345.948H492.652V368.41H493.138C492.331 369.715 491.437 371.02 490.457 372.308C482.616 382.625 472.302 387.974 467.419 384.262Z" fill="#F6D7D8"/>
<path d="M468.705 382.566C464.267 379.19 466.448 368.855 473.577 359.481C477.141 354.796 481.268 351.237 485.058 349.27C486.953 348.288 488.763 347.705 490.379 347.576C491.136 347.507 491.899 347.561 492.638 347.735C492.98 347.818 493.313 347.936 493.632 348.085H492.648V364.618H494.031C492.801 367.118 491.329 369.491 489.637 371.705C482.52 381.076 473.143 385.932 468.705 382.566Z" fill="#F7D8D7"/>
<path d="M469.998 380.856C466.005 377.82 467.967 368.519 474.379 360.084C480.79 351.648 489.233 347.27 493.226 350.309H492.645V364.718H492.795C491.69 366.968 490.366 369.105 488.843 371.097C482.432 379.526 473.994 383.901 469.998 380.856Z" fill="#F8D8D7"/>
<path d="M471.288 379.167C467.738 376.467 469.483 368.2 475.185 360.702C480.886 353.205 488.39 349.313 491.941 352.013C493.716 353.362 494.165 356.105 493.46 359.446C492.755 362.787 490.894 366.729 488.042 370.482C482.341 377.977 474.839 381.866 471.288 379.167Z" fill="#F9D9D7"/>
<path d="M487.237 369.857C492.226 363.296 493.753 356.061 490.647 353.699C487.54 351.337 480.977 354.741 475.987 361.303C470.998 367.864 469.471 375.099 472.578 377.461C475.684 379.823 482.247 376.419 487.237 369.857Z" fill="#FAD9D6"/>
<path d="M487.924 369.033C492.234 363.381 493.558 357.145 490.882 355.105C488.206 353.064 482.543 355.992 478.233 361.645C473.924 367.297 472.599 373.533 475.275 375.573C477.951 377.614 483.614 374.686 487.924 369.033Z" fill="#FBDAD6"/>
<path d="M485.628 368.631C489.191 363.945 490.282 358.778 488.063 357.091C485.845 355.404 481.157 357.836 477.593 362.522C474.03 367.209 472.939 372.375 475.158 374.063C477.376 375.75 482.064 373.318 485.628 368.631Z" fill="#FCDAD5"/>
<path d="M484.827 368.023C487.677 364.274 488.549 360.141 486.773 358.79C484.998 357.44 481.247 359.385 478.396 363.134C475.545 366.883 474.674 371.016 476.45 372.367C478.225 373.717 481.976 371.772 484.827 368.023Z" fill="#FDDBD5"/>
<path d="M484.023 367.411C486.162 364.598 486.816 361.497 485.484 360.485C484.153 359.472 481.339 360.931 479.201 363.743C477.062 366.556 476.408 369.657 477.74 370.67C479.071 371.682 481.885 370.223 484.023 367.411Z" fill="#FDDBD5"/>
<path d="M479.032 368.985C478.145 368.312 478.571 366.244 480.008 364.374C481.444 362.504 483.309 361.527 484.197 362.202C485.084 362.878 484.658 364.943 483.221 366.813C481.785 368.683 479.92 369.66 479.032 368.985Z" fill="#FEDCD4"/>
<path d="M480.325 367.287C479.88 366.95 480.095 365.918 480.812 364.982C481.529 364.046 482.463 363.559 482.907 363.896C483.352 364.232 483.138 365.279 482.419 366.201C481.699 367.123 480.768 367.626 480.325 367.287Z" fill="#FFDCD4"/>
</g>
<path d="M444.711 291.134H432.215C431.91 291.134 431.616 291.012 431.4 290.796C431.184 290.58 431.062 290.287 431.062 289.981C431.062 289.675 431.184 289.382 431.4 289.166C431.616 288.95 431.91 288.828 432.215 288.828H444.711C445.017 288.828 445.31 288.95 445.526 289.166C445.742 289.382 445.864 289.675 445.864 289.981C445.864 290.287 445.742 290.58 445.526 290.796C445.31 291.012 445.017 291.134 444.711 291.134Z" fill="url(#paint3_linear_43_8257)"/>
<path d="M452.987 291.415C453.78 290.623 453.78 289.338 452.987 288.546C452.195 287.754 450.91 287.754 450.118 288.546C449.326 289.338 449.326 290.623 450.118 291.415C450.91 292.207 452.195 292.207 452.987 291.415Z" fill="url(#paint4_linear_43_8257)"/>
<path d="M453.034 289.98C453.034 290.273 452.948 290.559 452.785 290.802C452.622 291.046 452.391 291.236 452.121 291.348C451.85 291.46 451.553 291.489 451.266 291.432C450.978 291.375 450.715 291.234 450.508 291.027C450.301 290.82 450.16 290.556 450.103 290.269C450.046 289.982 450.075 289.684 450.187 289.414C450.299 289.143 450.489 288.912 450.732 288.749C450.975 288.587 451.262 288.5 451.554 288.5C451.749 288.5 451.941 288.538 452.121 288.612C452.301 288.686 452.464 288.795 452.602 288.933C452.739 289.07 452.848 289.234 452.922 289.413C452.997 289.593 453.035 289.786 453.034 289.98Z" fill="url(#paint5_linear_43_8257)"/>
<path d="M452.776 289.98C452.776 290.221 452.704 290.458 452.57 290.659C452.436 290.859 452.245 291.016 452.022 291.109C451.798 291.201 451.553 291.225 451.316 291.178C451.079 291.131 450.861 291.015 450.69 290.844C450.519 290.673 450.403 290.455 450.356 290.218C450.308 289.981 450.333 289.735 450.425 289.512C450.518 289.289 450.674 289.098 450.875 288.964C451.076 288.829 451.312 288.758 451.554 288.758C451.878 288.758 452.189 288.887 452.418 289.116C452.647 289.345 452.776 289.656 452.776 289.98Z" fill="url(#paint6_radial_43_8257)"/>
<path d="M452.421 289.561C452.421 289.93 452.032 290.229 451.554 290.229C451.077 290.229 450.688 289.93 450.688 289.561C450.688 289.192 451.075 288.895 451.554 288.895C452.034 288.895 452.421 289.18 452.421 289.561Z" fill="url(#paint7_linear_43_8257)"/>
<path d="M499.572 304.223H497.594V306.367H499.572V304.223Z" fill="#353535"/>
<path d="M377.35 306.367H379.328V304.223H377.35V306.367Z" fill="#353535"/>
<path d="M499.572 501.691H497.594V503.835H499.572V501.691Z" fill="#353535"/>
<path d="M377.35 503.832H379.328V501.688H377.35V503.832Z" fill="#353535"/>
<path d="M444.711 290.956H432.215C431.924 290.957 431.643 290.847 431.43 290.65C431.216 290.452 431.085 290.181 431.062 289.891C431.062 289.921 431.062 289.951 431.062 289.981C431.062 290.286 431.184 290.579 431.4 290.796C431.616 291.012 431.91 291.133 432.215 291.133H444.711C445.017 291.133 445.31 291.012 445.526 290.796C445.742 290.579 445.864 290.286 445.864 289.981C445.864 289.951 445.864 289.921 445.864 289.891C445.841 290.181 445.71 290.452 445.496 290.65C445.283 290.847 445.002 290.957 444.711 290.956Z" fill="#4E4E4E"/>
<path d="M481.22 284.223H395.704C391.82 284.227 388.095 285.772 385.348 288.518C382.601 291.265 381.056 294.989 381.051 298.874V299.895C381.056 296.011 382.601 292.286 385.348 289.54C388.095 286.793 391.82 285.248 395.704 285.244H481.22C485.105 285.248 488.829 286.793 491.577 289.54C494.324 292.286 495.869 296.011 495.874 299.895V298.874C495.869 294.989 494.324 291.265 491.577 288.518C488.829 285.772 485.105 284.227 481.22 284.223Z" fill="url(#paint8_linear_43_8257)"/>
<path d="M474.811 285.32H402.125C392.184 285.32 384.125 293.379 384.125 303.32V505.472C384.125 515.413 392.184 523.472 402.125 523.472H474.811C484.753 523.472 492.811 515.413 492.811 505.472V303.32C492.811 293.379 484.753 285.32 474.811 285.32Z" fill="url(#paint9_linear_43_8257)"/>
<path d="M465.292 354.104L486.496 344.31C488.294 343.48 490.415 344.241 491.232 346.01L496.542 357.507L509.293 323.699L475.286 311.489L480.597 322.986C481.414 324.755 480.619 326.863 478.821 327.694C478.724 327.738 478.627 327.778 478.528 327.814L415.468 356.945C403.336 362.804 394.615 372.932 390.327 384.618C386.052 396.27 386.196 409.478 391.776 421.556C393.678 425.676 396.071 429.38 398.849 432.635C401.736 436.015 405.05 438.94 408.675 441.367C410.295 442.455 410.699 444.649 409.58 446.265C409.199 446.814 408.691 447.226 408.123 447.488L408.128 447.499L386.923 457.293C385.126 458.123 383.005 457.362 382.188 455.593L376.877 444.096L364.127 477.904L398.134 490.114L392.823 478.617C392.006 476.848 392.801 474.74 394.599 473.909C394.696 473.864 394.793 473.825 394.891 473.789L458.004 444.633C470.117 438.766 478.824 428.64 483.103 416.958C487.367 405.314 487.219 392.116 481.645 380.048C479.742 375.929 477.35 372.224 474.572 368.971C471.685 365.59 468.371 362.665 464.746 360.239C463.126 359.15 462.722 356.956 463.841 355.34C464.222 354.791 464.729 354.379 465.298 354.117L465.293 354.107L465.292 354.104ZM486.2 352.224L473.643 358.024C475.931 359.949 478.073 362.069 480.042 364.375C483.258 368.142 486.003 372.378 488.155 377.038C494.529 390.837 494.692 405.95 489.801 419.299C484.907 432.658 474.936 444.245 461.053 450.969L400.808 478.8L408.218 494.842C408.597 495.662 408.657 496.628 408.311 497.548C407.617 499.387 405.555 500.339 403.706 499.675L358.265 483.359C356.416 482.695 355.478 480.665 356.172 478.827L373.201 433.671C373.52 432.811 374.172 432.068 375.077 431.65C376.875 430.819 378.996 431.581 379.813 433.35L387.216 449.378L399.773 443.578C397.486 441.653 395.344 439.533 393.375 437.227C390.159 433.46 387.414 429.223 385.262 424.564C378.883 410.754 378.725 395.631 383.625 382.275C388.53 368.91 398.515 357.32 412.416 350.608L472.608 322.801L465.199 306.76C464.82 305.94 464.759 304.973 465.106 304.054C465.799 302.215 467.861 301.263 469.711 301.927L515.151 318.243C517.001 318.907 517.938 320.936 517.245 322.775L500.215 367.93C499.896 368.79 499.245 369.534 498.339 369.952C496.542 370.782 494.421 370.021 493.604 368.252L486.2 352.223L486.2 352.224Z" fill="#5484FF"/>
<path d="M426.403 424.528C429.367 425.551 430.91 428.77 429.848 431.719C428.788 434.667 425.525 436.229 422.562 435.206C422.174 435.074 421.788 434.934 421.407 434.79C412.043 431.238 405.028 424.41 401.197 416.117C397.366 407.824 396.717 398.056 400.083 388.624C400.22 388.241 400.364 387.856 400.514 387.475C404.346 377.753 411.792 370.339 420.729 366.21C429.668 362.082 440.139 361.22 450.025 364.605C450.413 364.738 450.799 364.878 451.18 365.022C460.544 368.574 467.559 375.401 471.39 383.694C475.221 391.987 475.871 401.755 472.504 411.188C472.368 411.572 472.224 411.955 472.073 412.337C470.93 415.256 467.627 416.727 464.694 415.624C461.762 414.519 460.309 411.258 461.452 408.339C461.564 408.053 461.671 407.767 461.773 407.484C464.094 400.981 463.639 394.235 460.99 388.498C458.339 382.761 453.497 378.042 447.043 375.593C446.76 375.486 446.473 375.382 446.184 375.283C441.145 373.558 435.861 373.418 430.909 374.594L441.492 397.504C442.802 400.339 441.535 403.713 438.663 405.039C435.792 406.365 432.402 405.143 431.093 402.308L420.51 379.397C416.404 382.405 413.086 386.519 411.133 391.474C411.021 391.759 410.913 392.045 410.812 392.329C408.491 398.831 408.945 405.578 411.595 411.314C414.245 417.052 419.087 421.771 425.542 424.219C425.824 424.327 426.111 424.429 426.401 424.529L426.403 424.528Z" fill="white"/>
<path d="M488.052 222.973L510.76 245.793C530.509 227.154 561.616 227.534 580.884 246.897C600.153 266.261 600.372 297.369 581.644 317.025L604.352 339.845C635.682 307.656 635.498 256.163 603.696 224.197C571.895 192.238 520.404 191.801 488.052 222.973Z" fill="url(#paint10_radial_43_8257)" fill-opacity="0.2"/>
</g>
<defs>
<linearGradient id="paint0_linear_43_8257" x1="136.234" y1="-191.04" x2="722.578" y2="349.589" gradientUnits="userSpaceOnUse">
<stop stop-color="#0A30A3"/>
<stop offset="0.709375" stop-color="#001447"/>
</linearGradient>
<linearGradient id="paint1_linear_43_8257" x1="527.5" y1="672" x2="745.5" y2="459.5" gradientUnits="userSpaceOnUse">
<stop stop-color="#0A30A3" stop-opacity="0.31"/>
<stop offset="1" stop-color="white" stop-opacity="0"/>
</linearGradient>
<radialGradient id="paint2_radial_43_8257" cx="0" cy="0" r="1" gradientUnits="userSpaceOnUse" gradientTransform="translate(392.48 690.617) scale(259.1)">
<stop stop-color="#E5C33F"/>
<stop offset="0.03" stop-color="#E6BC3D"/>
<stop offset="0.25" stop-color="#F39332"/>
<stop offset="0.42" stop-color="#FC7A2B"/>
<stop offset="0.53" stop-color="#FF7129"/>
<stop offset="0.99" stop-color="#C73A16"/>
</radialGradient>
<linearGradient id="paint3_linear_43_8257" x1="438.463" y1="288.824" x2="438.463" y2="291.134" gradientUnits="userSpaceOnUse">
<stop/>
<stop offset="0.29" stop-color="#030303"/>
<stop offset="0.53" stop-color="#0E0E0D"/>
<stop offset="0.75" stop-color="#1F1F1E"/>
<stop offset="0.96" stop-color="#373736"/>
<stop offset="1" stop-color="#3C3C3B"/>
</linearGradient>
<linearGradient id="paint4_linear_43_8257" x1="451.552" y1="287.951" x2="451.552" y2="292.009" gradientUnits="userSpaceOnUse">
<stop/>
<stop offset="0.29" stop-color="#030303"/>
<stop offset="0.53" stop-color="#0E0E0D"/>
<stop offset="0.75" stop-color="#1F1F1E"/>
<stop offset="0.96" stop-color="#373736"/>
<stop offset="1" stop-color="#3C3C3B"/>
</linearGradient>
<linearGradient id="paint5_linear_43_8257" x1="451.554" y1="287.239" x2="451.554" y2="292.099" gradientUnits="userSpaceOnUse">
<stop/>
<stop offset="0.08"/>
<stop offset="1"/>
</linearGradient>
<radialGradient id="paint6_radial_43_8257" cx="0" cy="0" r="1" gradientUnits="userSpaceOnUse" gradientTransform="translate(451.554 289.98) scale(1.10892)">
<stop stop-color="#009FE3"/>
<stop offset="1" stop-color="#112754"/>
</radialGradient>
<linearGradient id="paint7_linear_43_8257" x1="451.554" y1="288.274" x2="451.554" y2="290.266" gradientUnits="userSpaceOnUse">
<stop stop-color="white"/>
<stop offset="1" stop-color="#112754"/>
</linearGradient>
<linearGradient id="paint8_linear_43_8257" x1="438.461" y1="279.877" x2="438.461" y2="297.859" gradientUnits="userSpaceOnUse">
<stop stop-color="white"/>
<stop offset="1"/>
</linearGradient>
<linearGradient id="paint9_linear_43_8257" x1="384.125" y1="285.32" x2="511.316" y2="295.651" gradientUnits="userSpaceOnUse">
<stop stop-color="#0A30A3"/>
<stop offset="1" stop-color="#001447"/>
</linearGradient>
<radialGradient id="paint10_radial_43_8257" cx="0" cy="0" r="1" gradientUnits="userSpaceOnUse" gradientTransform="translate(610.876 335.329) rotate(135.141) scale(554.088)">
<stop stop-color="#5BC7CE"/>
<stop offset="0.11" stop-color="#4198C0"/>
<stop offset="0.23" stop-color="#296BB3"/>
<stop offset="0.34" stop-color="#184AAA"/>
<stop offset="0.43" stop-color="#0D37A5"/>
<stop offset="0.49" stop-color="#0A30A3"/>
<stop offset="1" stop-color="#00152A"/>
</radialGradient>
<clipPath id="clip0_43_8257">
<rect width="678" height="700" fill="white"/>
</clipPath>
</defs>
</svg>
