<svg width="1440" height="620" viewBox="0 0 1440 620" fill="none" xmlns="http://www.w3.org/2000/svg">
<g clip-path="url(#clip0_33_549)">
<path d="M1440 0H0V622H1440V0Z" fill="url(#paint0_linear_33_549)"/>
<path opacity="0.94" d="M1707.69 189.376C1867.68 189.376 1997.38 59.6828 1997.38 -100.312C1997.38 -260.307 1867.68 -390 1707.69 -390C1547.69 -390 1418 -260.307 1418 -100.312C1418 59.6828 1547.69 189.376 1707.69 189.376ZM1707.69 -275.242C1804.3 -275.242 1882.62 -196.92 1882.62 -100.312C1882.62 -3.70358 1804.3 74.618 1707.69 74.618C1611.08 74.618 1532.76 -3.70358 1532.76 -100.312C1532.76 -196.92 1611.08 -275.242 1707.69 -275.242Z" fill="url(#paint1_radial_33_549)"/>
<path opacity="0.94" d="M53 -160C-57.4601 -160 -147 -70.4601 -147 40C-147 150.46 -57.4601 240 53 240C163.46 240 253 150.46 253 40C253 -70.4601 163.46 -160 53 -160ZM53 160.771C-13.6983 160.771 -67.7713 106.698 -67.7713 40C-67.7713 -26.6982 -13.6983 -80.7713 53 -80.7713C119.698 -80.7713 173.771 -26.6982 173.771 40C173.771 106.698 119.698 160.771 53 160.771Z" fill="url(#paint2_radial_33_549)"/>
<path d="M118 76.7785L90.1542 49.0956C66.0533 71.8207 28.0016 71.4521 4.37344 47.9621C-19.2547 24.4721 -19.6162 -13.3571 3.23329 -37.317L-24.6125 -65C-62.8403 -25.7609 -62.4603 36.8575 -23.4631 75.6358C15.534 114.405 78.5208 114.783 118 76.7785Z" fill="url(#paint3_radial_33_549)" fill-opacity="0.2"/>
<g opacity="0.6">
<path d="M1157 305.173L951.783 291.083" stroke="#1E6AC6" stroke-opacity="0.6" stroke-width="8.4" stroke-linecap="round"/>
<path d="M897.059 287.323L890.218 286.854" stroke="#179F0C" stroke-opacity="0.6" stroke-width="8.4" stroke-linecap="round"/>
<path d="M865.061 553.168L830.858 550.82" stroke="#179F0C" stroke-opacity="0.6" stroke-width="8.4" stroke-linecap="round"/>
<path d="M754.612 360.017L734.091 358.608" stroke="#179F0C" stroke-opacity="0.6" stroke-width="8.4" stroke-linecap="round"/>
<path d="M829.651 468.263L819.879 467.592" stroke="#179F0C" stroke-opacity="0.6" stroke-width="8.4" stroke-linecap="round"/>
<path d="M1021.39 378.334L829.856 365.183" stroke="#1E6AC6" stroke-opacity="0.6" stroke-width="8.4" stroke-linecap="round"/>
<path d="M1000.67 480.005L884.375 472.021" stroke="#1E6AC6" stroke-opacity="0.6" stroke-width="8.4" stroke-linecap="round"/>
<path d="M1042.91 565.379L926.623 557.395" stroke="#1E6AC6" stroke-opacity="0.6" stroke-width="8.4" stroke-linecap="round"/>
<path d="M1058.46 541.009C1068.16 552.006 1067.23 568.925 1056.38 578.8C1045.54 588.676 1028.88 587.768 1019.18 576.772C1017.91 575.339 1016.66 573.877 1015.45 572.412C985.516 536.332 972.358 491.94 975.328 448.679C978.298 405.418 997.401 363.24 1031.98 331.589C1033.39 330.304 1034.82 329.027 1036.28 327.781C1073.39 295.985 1119.96 282.01 1165.25 285.12C1210.55 288.23 1254.77 308.438 1287.18 345.008C1288.45 346.442 1289.7 347.903 1290.92 349.368C1320.85 385.449 1334.01 429.841 1331.04 473.102C1328.07 516.363 1308.97 558.54 1274.39 590.191C1272.98 591.482 1271.54 592.753 1270.09 593.999C1258.98 603.567 1242.36 602.189 1232.96 590.925C1223.57 579.66 1224.96 562.772 1236.07 553.204C1237.16 552.269 1238.23 551.322 1239.27 550.372C1263.11 528.55 1276.28 499.407 1278.33 469.483C1280.39 439.553 1271.32 408.884 1250.69 384.014C1249.79 382.925 1248.86 381.84 1247.91 380.771C1231.39 362.134 1210.35 349.539 1187.73 343.186L1179.53 462.699C1178.51 477.488 1165.89 488.663 1151.34 487.664C1136.79 486.665 1125.81 473.869 1126.83 459.081L1135.03 339.568C1111.76 342.769 1089.2 352.371 1070.29 368.575C1069.2 369.51 1068.13 370.458 1067.09 371.408C1043.25 393.23 1030.08 422.373 1028.02 452.297C1025.97 482.226 1035.03 512.895 1055.66 537.766C1056.57 538.855 1057.5 539.934 1058.45 541.008L1058.46 541.009Z" fill="#1E6AC6" fill-opacity="0.9"/>
</g>
<path opacity="0.94" d="M1302.63 127.807C1366.49 180.581 1461.03 171.594 1513.81 107.733C1566.58 43.8725 1557.59 -50.6727 1493.73 -103.447C1429.87 -156.221 1335.33 -147.234 1282.55 -83.3731C1229.78 -19.5123 1238.77 75.033 1302.63 127.807ZM1455.88 -57.6419C1494.44 -25.7758 1499.87 31.32 1468 69.8806C1436.14 108.441 1379.04 113.868 1340.48 82.0022C1301.92 50.1361 1296.49 -6.95975 1328.36 -45.5203C1360.22 -84.0809 1417.32 -89.5081 1455.88 -57.6419Z" fill="url(#paint4_radial_33_549)"/>
</g>
<defs>
<linearGradient id="paint0_linear_33_549" x1="0" y1="0" x2="1450.1" y2="597.498" gradientUnits="userSpaceOnUse">
<stop stop-color="#0A30A3"/>
<stop offset="0.585704" stop-color="#001447"/>
</linearGradient>
<radialGradient id="paint1_radial_33_549" cx="0" cy="0" r="1" gradientUnits="userSpaceOnUse" gradientTransform="translate(1609.1 124.461) scale(758.657 758.657)">
<stop stop-color="#0A30A3"/>
<stop offset="1" stop-color="#00152A"/>
</radialGradient>
<radialGradient id="paint2_radial_33_549" cx="0" cy="0" r="1" gradientUnits="userSpaceOnUse" gradientTransform="translate(80.0501 -126.617) scale(414.966)">
<stop stop-color="#0A30A3"/>
<stop offset="1" stop-color="#00152A"/>
</radialGradient>
<radialGradient id="paint3_radial_33_549" cx="0" cy="0" r="1" gradientUnits="userSpaceOnUse" gradientTransform="translate(-32.5796 -59.4887) rotate(-44.832) scale(675.802 675.79)">
<stop stop-color="#5BC7CE"/>
<stop offset="0.11" stop-color="#4198C0"/>
<stop offset="0.23" stop-color="#296BB3"/>
<stop offset="0.34" stop-color="#184AAA"/>
<stop offset="0.43" stop-color="#0D37A5"/>
<stop offset="0.49" stop-color="#0A30A3"/>
<stop offset="1" stop-color="#00152A"/>
</radialGradient>
<radialGradient id="paint4_radial_33_549" cx="0" cy="0" r="1" gradientUnits="userSpaceOnUse" gradientTransform="translate(1284.69 69.3775) rotate(39.5701) scale(392.832)">
<stop stop-color="#0A30A3"/>
<stop offset="1" stop-color="#00152A"/>
</radialGradient>
<clipPath id="clip0_33_549">
<rect width="1440" height="620" fill="white"/>
</clipPath>
</defs>
</svg>
