<svg width="320" height="1024" viewBox="0 0 320 1024" fill="none" xmlns="http://www.w3.org/2000/svg">
<g clip-path="url(#clip0_66_8246)">
<rect width="320" height="1024" fill="#001447"/>
<path d="M320.085 1168.02C377.572 1177.88 432.162 1139.27 442.019 1081.78C451.876 1024.29 413.266 969.703 355.779 959.846C298.292 949.989 243.702 988.598 233.845 1046.09C223.988 1103.57 262.597 1158.16 320.085 1168.02ZM348.709 1001.08C383.421 1007.03 406.737 1040 400.786 1074.71C394.834 1109.42 361.867 1132.74 327.155 1126.79C292.443 1120.83 269.126 1087.87 275.078 1053.16C281.03 1018.44 313.997 995.127 348.709 1001.08Z" fill="url(#paint0_radial_66_8246)"/>
<rect width="320" height="1024" fill="#011855"/>
<path style="mix-blend-mode:overlay" d="M543.979 454.72C546.674 458.346 546.674 464.226 543.979 467.852L227.782 893.28C225.087 896.907 220.716 896.907 218.021 893.28C215.326 889.654 215.326 883.774 218.021 880.148L534.218 454.72C536.913 451.093 541.284 451.093 543.979 454.72Z" fill="url(#paint1_linear_66_8246)"/>
<path d="M331.633 791.349C331.976 791.815 331.976 792.57 331.633 793.035L291.39 847.651C291.047 848.116 290.491 848.116 290.148 847.651C289.805 847.185 289.805 846.43 290.148 845.965L330.391 791.349C330.734 790.884 331.29 790.884 331.633 791.349Z" fill="url(#paint2_linear_66_8246)" style="mix-blend-mode:overlay"/>
<path d="M79.7127 419.29C80.6943 420.272 82.2854 420.272 83.2669 419.29C84.2485 418.309 84.2485 416.718 83.2669 415.736C82.2854 414.755 80.6943 414.755 79.7127 415.736C78.7312 416.718 78.7312 418.309 79.7127 419.29Z" fill="white" fill-opacity="0.3"/>
<path d="M63.9627 435.036C64.9443 436.018 66.5354 436.018 67.5169 435.036C68.4985 434.055 68.4985 432.464 67.5169 431.482C66.5354 430.501 64.9443 430.501 63.9627 431.482C62.9812 432.464 62.9812 434.055 63.9627 435.036Z" fill="white" fill-opacity="0.3"/>
<path d="M48.2166 450.771C49.1982 451.752 50.7893 451.752 51.7708 450.771C52.7524 449.789 52.7524 448.198 51.7708 447.217C50.7893 446.235 49.1982 446.235 48.2166 447.217C47.2351 448.198 47.2351 449.789 48.2166 450.771Z" fill="white" fill-opacity="0.3"/>
<path d="M32.4822 466.517C33.4638 467.498 35.0549 467.498 36.0365 466.517C37.018 465.535 37.018 463.944 36.0365 462.963C35.0549 461.981 33.4638 461.981 32.4822 462.963C31.5007 463.944 31.5007 465.535 32.4822 466.517Z" fill="white" fill-opacity="0.3"/>
<path d="M20.2904 478.709C19.3088 477.727 17.7177 477.727 16.7362 478.709C15.7546 479.69 15.7546 481.281 16.7362 482.263C17.7177 483.245 19.3088 483.245 20.2904 482.263C21.2719 481.281 21.2719 479.69 20.2904 478.709Z" fill="white" fill-opacity="0.3"/>
</g>
<defs>
<radialGradient id="paint0_radial_66_8246" cx="0" cy="0" r="1" gradientUnits="userSpaceOnUse" gradientTransform="translate(308.986 1148.23) rotate(-170.27) scale(219.115)">
<stop stop-color="#0A30A3"/>
<stop offset="1" stop-color="#00152A"/>
</radialGradient>
<linearGradient id="paint1_linear_66_8246" x1="436.424" y1="583.24" x2="176.495" y2="818.425" gradientUnits="userSpaceOnUse">
<stop offset="0.17" stop-color="#0A30A3"/>
<stop offset="1" stop-color="white"/>
</linearGradient>
<linearGradient id="paint2_linear_66_8246" x1="317.945" y1="807.846" x2="282.754" y2="834.523" gradientUnits="userSpaceOnUse">
<stop offset="0.17" stop-color="#0A30A3"/>
<stop offset="1" stop-color="white"/>
</linearGradient>
<clipPath id="clip0_66_8246">
<rect width="320" height="1024" fill="white"/>
</clipPath>
</defs>
</svg>
