<svg width="1280" height="714" viewBox="0 0 1280 714" fill="none" xmlns="http://www.w3.org/2000/svg">
<g clip-path="url(#clip0_42_5966)">
<rect width="1280" height="714" fill="#001447"/>
<rect width="1281" height="714" fill="url(#paint0_linear_42_5966)"/>
<path d="M356.878 50.6149C357.177 50.9852 357.119 51.5276 356.748 51.8263L313.298 86.8632C312.928 87.1618 312.385 87.1037 312.087 86.7333C311.788 86.363 311.846 85.8205 312.216 85.5219L355.667 50.485C356.037 50.1864 356.58 50.2445 356.878 50.6149Z" fill="url(#paint1_linear_42_5966)" style="mix-blend-mode:overlay"/>
<path d="M1482.33 -113.883C1485.16 -111.061 1485.16 -106.474 1482.33 -103.632L1150.37 228.333C1147.55 231.155 1142.96 231.155 1140.12 228.333C1137.29 225.51 1137.29 220.924 1140.12 218.082L1472.08 -113.883C1474.9 -116.706 1479.49 -116.706 1482.33 -113.883Z" fill="url(#paint2_linear_42_5966)" style="mix-blend-mode:overlay"/>
<path d="M1212.14 206.859C1210.28 204.997 1207.26 204.997 1205.4 206.859C1203.53 208.721 1203.53 211.74 1205.4 213.602C1207.26 215.464 1210.28 215.464 1212.14 213.602C1214 211.74 1214 208.721 1212.14 206.859Z" fill="white" fill-opacity="0.5"/>
<path d="M1242.01 176.988C1240.15 175.126 1237.13 175.126 1235.27 176.988C1233.41 178.85 1233.41 181.869 1235.27 183.731C1237.13 185.593 1240.15 185.593 1242.01 183.731C1243.87 181.869 1243.87 178.85 1242.01 176.988Z" fill="white" fill-opacity="0.5"/>
<path d="M1271.86 147.117C1270 145.255 1266.98 145.255 1265.12 147.117C1263.26 148.979 1263.26 151.998 1265.12 153.86C1266.98 155.722 1270 155.722 1271.86 153.86C1273.72 151.998 1273.72 148.979 1271.86 147.117Z" fill="white" fill-opacity="0.5"/>
<g opacity="0.6">
<path d="M999.684 527.072L898.998 490.677" stroke="#1E6AC6" stroke-opacity="0.6" stroke-width="8.4" stroke-linecap="round"/>
<path d="M872.146 480.971L868.79 479.758" stroke="#179F0C" stroke-opacity="0.6" stroke-width="8.4" stroke-linecap="round"/>
<path d="M818.121 609.438L801.34 603.372" stroke="#179F0C" stroke-opacity="0.6" stroke-width="8.4" stroke-linecap="round"/>
<path d="M790.465 496.982L780.396 493.343" stroke="#179F0C" stroke-opacity="0.6" stroke-width="8.4" stroke-linecap="round"/>
<path d="M812.541 561.883L807.746 560.15" stroke="#179F0C" stroke-opacity="0.6" stroke-width="8.4" stroke-linecap="round"/>
<path d="M921.355 544.297L827.382 510.328" stroke="#1E6AC6" stroke-opacity="0.6" stroke-width="8.4" stroke-linecap="round"/>
<path d="M896.447 592.215L839.392 571.591" stroke="#1E6AC6" stroke-opacity="0.6" stroke-width="8.4" stroke-linecap="round"/>
<path d="M905.381 640.979L848.325 620.355" stroke="#1E6AC6" stroke-opacity="0.6" stroke-width="8.4" stroke-linecap="round"/>
<path d="M916.645 631.006C919.926 637.896 917.042 646.23 910.201 649.621C903.364 653.013 895.158 650.177 891.877 643.287C891.445 642.388 891.03 641.478 890.629 640.571C880.81 618.235 880.573 594.137 888.245 572.912C895.917 551.687 911.508 533.311 933.339 522.416C934.227 521.974 935.128 521.54 936.036 521.125C959.152 510.518 984.458 510.184 1006.68 518.216C1028.9 526.25 1048.14 542.686 1059.14 565.622C1059.57 566.522 1059.98 567.431 1060.38 568.339C1070.2 590.675 1070.44 614.772 1062.77 635.997C1055.1 657.223 1039.5 675.599 1017.67 686.494C1016.78 686.939 1015.88 687.369 1014.98 687.785C1008.05 690.984 999.929 687.919 996.838 680.938C993.75 673.958 996.858 665.705 1003.79 662.505C1004.46 662.193 1005.14 661.871 1005.79 661.545C1020.84 654.033 1031.6 641.332 1036.91 626.65C1042.22 611.966 1042.06 595.32 1035.3 579.925C1035 579.251 1034.69 578.575 1034.37 577.904C1028.77 566.215 1020.04 556.904 1009.63 550.49L988.431 609.127C985.809 616.383 977.894 620.171 970.755 617.59C963.616 615.01 959.953 607.036 962.575 599.781L983.771 541.144C971.664 539.418 959.001 540.997 947.22 546.402C946.543 546.715 945.871 547.036 945.214 547.363C930.163 554.874 919.405 567.576 914.098 582.257C908.79 596.942 908.94 613.586 915.711 628.983C916.006 629.657 916.318 630.33 916.639 631.004L916.645 631.006Z" fill="#1E6AC6" fill-opacity="0.9"/>
</g>
<path d="M598 594.006C598 591.575 599.98 589.596 602.41 589.596C604.84 589.596 606.82 591.575 606.82 594.006C606.82 596.436 604.84 598.416 602.41 598.416C599.98 598.416 598 596.436 598 594.006Z" stroke="white" stroke-width="1.96" stroke-miterlimit="10"/>
<path d="M617.66 574.347C617.66 571.917 619.64 569.938 622.07 569.938C624.501 569.938 626.48 571.917 626.48 574.347C626.48 576.778 624.501 578.757 622.07 578.757C619.64 578.757 617.66 576.778 617.66 574.347Z" stroke="white" stroke-width="1.96" stroke-miterlimit="10"/>
<path d="M641.709 559.119C644.144 559.119 646.119 557.144 646.119 554.709C646.119 552.273 644.144 550.299 641.709 550.299C639.273 550.299 637.299 552.273 637.299 554.709C637.299 557.144 639.273 559.119 641.709 559.119Z" stroke="white" stroke-width="1.96" stroke-miterlimit="10"/>
<path d="M661.347 539.459C663.783 539.459 665.757 537.484 665.757 535.049C665.757 532.613 663.783 530.639 661.347 530.639C658.912 530.639 656.938 532.613 656.938 535.049C656.938 537.484 658.912 539.459 661.347 539.459Z" stroke="white" stroke-width="1.96" stroke-miterlimit="10"/>
<path d="M681.006 519.82C683.441 519.82 685.416 517.846 685.416 515.41C685.416 512.974 683.441 511 681.006 511C678.57 511 676.596 512.974 676.596 515.41C676.596 517.846 678.57 519.82 681.006 519.82Z" stroke="white" stroke-width="1.96" stroke-miterlimit="10"/>
<path d="M573.554 56.6727L611.536 79.834C631.913 48.3237 673.788 38.6044 706.017 58.2577C738.246 77.9109 748.77 119.591 730.097 152.132L768.079 175.294C799.546 121.787 782.366 52.7351 729.171 20.2882C675.978 -12.1485 606.724 4.1964 573.554 56.6727Z" fill="url(#paint3_radial_42_5966)" fill-opacity="0.2"/>
<path style="mix-blend-mode:overlay" d="M702.619 449.381C704.46 451.222 704.46 454.214 702.619 456.068L486.068 672.619C484.227 674.46 481.235 674.46 479.381 672.619C477.54 670.778 477.54 667.786 479.381 665.932L695.932 449.381C697.773 447.54 700.765 447.54 702.619 449.381Z" fill="url(#paint4_linear_42_5966)"/>
<path d="M225.95 372.237C225.95 372.237 218.636 470.032 211.147 506.001H383.731C375.672 472.475 367.338 381.823 367.338 381.823L391.729 417.946L413.692 362.535C413.692 362.535 392.549 326.387 369.738 307.49C353.896 294.364 320.951 289.537 302.304 287.813V286.785C302.304 286.785 299.744 286.901 295.493 287.263C291.236 286.971 288.674 286.897 288.674 286.897L288.686 287.925C270.07 289.956 237.583 295.773 221.586 308.708C162.38 356.58 131.758 502.357 131 506.001H167.856C187.767 430.484 225.95 372.237 225.95 372.237Z" fill="#2A485E"/>
<path d="M413.691 362.534C413.691 362.534 399.004 337.425 380.908 318.123C374.407 342.514 372.428 368.111 375.035 393.219L391.733 417.946L413.691 362.534Z" fill="#193345"/>
<path d="M564.246 419.401C559.892 417.18 556.093 414.121 552.661 410.633L427.749 369.077C427.749 369.077 427.749 332.4 420.696 313.272C432.544 291.149 431.592 270.372 427.749 257.868C423.906 245.364 407.204 238.292 401.085 256.658C398.044 265.785 385.256 303.14 380.613 312.674C368.884 370.612 387.335 439.667 424.056 464.678C460.777 489.689 521.759 492.129 566.103 479.773C597.322 471.071 606.121 437.243 608.596 417.981C604.213 419.802 599.722 421.32 595.083 422.333C584.791 424.578 573.626 424.187 564.246 419.401Z" fill="#F7A87E"/>
<path d="M609.559 404.355L578.068 419.084L552.658 410.632C556.09 414.12 559.889 417.18 564.243 419.4C573.627 424.186 584.793 424.577 595.084 422.329C599.722 421.315 604.214 419.798 608.597 417.977C609.636 409.879 609.559 404.355 609.559 404.355Z" fill="#E98870"/>
<path d="M592.903 244.219L561.574 277.508C553.968 285.59 554.686 298.402 563.147 305.578C571.154 312.372 583.115 311.556 590.124 303.737L620.642 269.703C627.564 261.982 626.944 250.12 619.254 243.16C611.648 236.279 599.933 236.75 592.903 244.219Z" fill="#F7A87E"/>
<path d="M321.655 290.227L268.434 290.331L274.477 332.54H314.932L321.655 290.227Z" fill="#ECEADD"/>
<path d="M314.931 332.539H274.477L289.134 434.912L314.931 332.539Z" fill="white"/>
<path d="M272.918 264.078V281.547C279.912 286.665 288.061 289.852 296.544 290.21C296.74 290.218 296.938 290.225 297.134 290.227C297.33 290.23 297.526 290.218 297.722 290.21C305.656 289.877 313.3 287.062 319.978 282.516V264.078H272.918Z" fill="#E98870"/>
<path d="M331.994 241.963C344.475 237.344 354.663 226.907 358.98 214.318C363.297 201.729 361.658 187.236 354.639 175.93C360.683 174.474 363.577 166.663 361.291 160.882C359.005 155.101 352.993 151.49 346.897 150.269C349.758 147.574 349.149 142.553 346.517 139.635C343.886 136.717 339.873 135.485 335.998 134.826C329.766 133.768 323.39 133.865 317.088 134.348C305.139 135.267 262.921 133.999 251.152 162.532C235.947 167.294 236.083 190.112 235.959 196.32C235.627 212.931 242.485 230.208 256.085 239.748C277.571 254.819 307.38 251.075 331.994 241.963Z" fill="#4E2F20"/>
<path d="M340.046 247.279C333.393 265.827 316.354 280.277 297.722 281.059C297.526 281.068 297.33 281.073 297.135 281.076C296.939 281.076 296.74 281.068 296.544 281.059C277.91 280.277 260.875 265.827 254.22 247.279C250.167 235.978 249.577 223.617 250.012 211.534C250.447 199.451 251.864 187.399 251.638 175.311C266.595 172.237 281.947 169.858 297.135 170.735C312.323 169.86 327.67 172.237 342.628 175.311C342.402 187.399 343.816 199.452 344.254 211.534C344.692 223.616 344.099 235.978 340.046 247.279Z" fill="#F7A87E"/>
<path d="M346.794 222.254C340.395 212.871 336.391 201.306 336.969 189.963C309.769 191.859 282.471 188.088 256.803 178.889C257.101 193.86 253.021 208.571 246.668 222.131C245.897 207.206 245.696 192.719 247.28 177.859C247.455 176.167 247.671 174.421 248.521 172.945C250.033 170.323 253.154 169.159 256.056 168.274C283.319 159.945 313.423 158.751 339.987 169.097C342.785 170.188 345.628 171.457 347.659 173.677C349.443 175.622 350.466 178.158 351.051 180.731C352.107 185.365 351.847 190.184 351.581 194.929C351.051 204.36 350.028 213.38 346.794 222.254Z" fill="#4E2F20"/>
<path d="M239.521 194.562C243.299 190.572 246.613 186.166 249.399 181.43C251.725 177.472 254.057 172.95 258.373 171.386C262.344 169.949 267.116 171.44 270.757 169.306C272.613 168.219 273.904 166.318 275.812 165.324C279.538 163.385 283.955 165.491 287.949 166.792C296.953 169.73 307.296 168.223 315.091 162.84C319.051 160.104 322.485 156.17 323.3 151.426C324.019 147.24 322.632 142.985 320.925 139.095C320.203 137.448 319.413 135.832 318.571 134.242C318.078 134.275 317.585 134.31 317.093 134.348C312.703 134.685 304.228 134.73 294.68 136.062C294.804 136.19 294.928 136.317 295.05 136.447C297.148 138.702 298.854 141.879 297.812 144.779C297.006 147.024 294.799 148.415 292.696 149.54C286.245 152.989 279.366 155.569 272.239 157.215C270.532 157.609 268.628 158.071 267.693 159.552C267.032 160.601 267.019 161.925 266.529 163.06C265.567 165.282 263.027 166.327 260.664 166.847C258.301 167.366 255.759 167.628 253.83 169.087C252.868 169.813 252.133 170.789 251.265 171.622C248.5 174.278 244.399 175.363 240.619 174.725C240.199 174.654 239.785 174.56 239.375 174.451C236.019 182.697 236.039 192.558 235.965 196.319C235.954 196.888 235.953 197.456 235.958 198.025C237.199 196.925 238.385 195.762 239.521 194.562Z" fill="#5E3B2B"/>
<path d="M283.144 204.622C284.303 204.66 285.491 204.741 286.547 205.221C287.602 205.701 288.512 206.661 288.613 207.816C288.73 209.138 287.755 210.363 286.567 210.954C285.379 211.545 284.011 211.632 282.686 211.696C278.359 211.903 274.029 211.963 269.695 211.876C268.169 211.846 264.887 211.614 264.852 209.407C264.821 207.561 267.697 206.967 269.078 206.489C273.577 204.931 278.406 204.467 283.144 204.622Z" fill="#452819"/>
<path d="M312.662 204.622C311.503 204.66 310.315 204.741 309.259 205.221C308.203 205.701 307.294 206.661 307.193 207.816C307.077 209.138 308.052 210.363 309.24 210.954C310.428 211.545 311.795 211.632 313.12 211.696C317.447 211.903 321.777 211.963 326.111 211.876C327.637 211.846 330.92 211.614 330.955 209.407C330.985 207.561 328.109 206.967 326.729 206.489C322.229 204.931 317.401 204.467 312.662 204.622Z" fill="#452819"/>
<path d="M276.737 228.896C279.3 228.896 281.378 226.818 281.378 224.255C281.378 221.691 279.3 219.613 276.737 219.613C274.174 219.613 272.096 221.691 272.096 224.255C272.096 226.818 274.174 228.896 276.737 228.896Z" fill="#452819"/>
<path d="M317.26 228.896C319.824 228.896 321.902 226.818 321.902 224.255C321.902 221.691 319.824 219.613 317.26 219.613C314.697 219.613 312.619 221.691 312.619 224.255C312.619 226.818 314.697 228.896 317.26 228.896Z" fill="#452819"/>
<path d="M298.989 264.081C295.689 264.139 292.427 264.846 289.332 266.005C291.495 267.354 294.237 268.232 297.725 268.232C301.746 268.232 304.779 267.068 307.071 265.356C304.474 264.455 301.737 264.023 298.989 264.081Z" fill="#F28487"/>
<path d="M290.059 254.848C292.027 255.722 294.101 256.377 296.237 256.651C300.383 257.185 304.673 256.239 308.317 254.189C309.527 253.504 310.668 252.706 311.726 251.805C311.374 251.655 310.995 251.578 310.612 251.578H284.979C285.057 251.655 285.136 251.731 285.215 251.805C286.618 253.111 288.308 254.071 290.059 254.848Z" fill="white"/>
<path d="M311.73 251.805C310.672 252.706 309.53 253.504 308.32 254.189C304.676 256.239 300.387 257.185 296.24 256.651C294.104 256.377 292.03 255.721 290.062 254.848C288.313 254.071 286.621 253.111 285.219 251.805C285.139 251.731 285.06 251.655 284.982 251.578H284.838C284.396 251.577 283.961 251.678 283.565 251.871C283.168 252.065 282.822 252.347 282.552 252.696C282.282 253.045 282.095 253.451 282.006 253.883C281.917 254.315 281.929 254.762 282.04 255.189C282.914 258.482 284.898 263.239 289.335 266.007C292.429 264.845 295.692 264.138 298.991 264.084C301.74 264.027 304.476 264.46 307.073 265.362C310.847 262.544 312.606 258.24 313.413 255.192C313.589 254.519 313.516 253.806 313.207 253.183C312.897 252.56 312.372 252.07 311.73 251.805Z" fill="#AB404A"/>
<path d="M297.134 290.227C296.938 290.227 296.74 290.218 296.544 290.21C288.064 289.854 279.91 286.665 272.918 281.547V314.089H310.073L319.978 299.938V282.513C313.3 287.064 305.656 289.877 297.722 290.206C297.526 290.217 297.33 290.224 297.134 290.227Z" fill="#F7A87E"/>
<path d="M272.918 286.053L295.631 312.439L319.977 286.053L323.187 290.525L314.695 332.674L295.472 314.089L274.493 332.653L268.434 290.331L272.918 286.053Z" fill="white"/>
<path d="M284.321 323.955L293.219 336.819L280.164 372.26L289.135 434.912L306.041 367.82L298.584 336.67L306.718 324.961L295.472 314.088L284.321 323.955Z" fill="#D75555"/>
<path d="M476.122 426.18L476 426.392H476.246L476.122 426.18Z" fill="#F68C24"/>
<path d="M568.539 392.078L601.109 372.083C609.018 367.227 619.054 370.554 623.106 379.374C626.939 387.718 623.954 397.865 616.374 402.261L583.369 421.398C575.882 425.738 566.576 422.696 562.551 414.59C558.564 406.573 561.231 396.565 568.539 392.078Z" fill="#F7A87E"/>
<path d="M557.378 351.069L601.402 333.503C612.091 329.237 624.172 334.799 627.881 345.694C631.388 356.001 626.055 367.229 615.849 371.019L571.416 387.517C561.335 391.259 550.126 386.15 546.338 376.086C542.592 366.132 547.5 355.01 557.378 351.069Z" fill="#F7A87E"/>
<path d="M553.232 312.002L595.689 295.061C605.998 290.947 617.649 296.312 621.227 306.819C624.611 316.759 619.467 327.587 609.622 331.242L566.768 347.153C557.047 350.763 546.236 345.835 542.584 336.129C538.969 326.53 543.703 315.804 553.232 312.002Z" fill="#F7A87E"/>
<path d="M336.57 254.916C341.956 255.218 347.494 253.729 351.77 250.439C356.045 247.15 358.951 242.016 359.185 236.627C359.314 233.654 358.491 230.405 356.101 228.634C354.277 227.28 351.854 227.02 349.591 227.216C346.449 227.489 343.158 228.735 341.491 231.413L336.57 254.916Z" fill="#F7A87E"/>
<path d="M348.354 235.921C348.622 236.082 348.87 236.273 349.094 236.491C350.073 237.431 350.644 238.719 350.684 240.076C350.723 241.433 350.228 242.751 349.306 243.747C349.26 243.796 349.206 243.835 349.146 243.863C349.085 243.891 349.02 243.907 348.953 243.909C348.887 243.912 348.821 243.901 348.758 243.878C348.696 243.855 348.639 243.82 348.59 243.775C348.541 243.73 348.502 243.675 348.474 243.615C348.446 243.554 348.431 243.489 348.428 243.423C348.425 243.356 348.436 243.29 348.459 243.227C348.482 243.165 348.517 243.108 348.562 243.059C349.304 242.258 349.701 241.198 349.669 240.108C349.638 239.017 349.179 237.982 348.393 237.225C348.108 236.951 347.672 236.625 347.169 236.542C345.276 237.707 343.81 239.453 342.992 241.52C342.954 241.617 342.888 241.7 342.801 241.758C342.715 241.816 342.613 241.845 342.509 241.843C342.449 241.842 342.39 241.83 342.334 241.808C342.209 241.759 342.109 241.663 342.055 241.54C342.001 241.418 341.997 241.278 342.046 241.153C343.01 238.673 344.831 236.621 347.178 235.367C349.525 234.113 352.244 233.741 354.841 234.318C354.972 234.347 355.086 234.427 355.158 234.54C355.231 234.654 355.255 234.791 355.225 234.922C355.196 235.053 355.116 235.168 355.003 235.24C354.889 235.312 354.752 235.336 354.621 235.306C352.519 234.851 350.328 235.066 348.354 235.921Z" fill="#D26F61"/>
<path d="M339.746 246.558C339.813 246.441 339.924 246.356 340.053 246.32C340.183 246.285 340.321 246.303 340.438 246.37C343.17 247.934 346.601 246.992 348.901 245.589C350.373 244.693 352.311 243.126 353.179 240.755C353.202 240.693 353.237 240.636 353.282 240.587C353.327 240.538 353.381 240.498 353.442 240.471C353.502 240.443 353.567 240.427 353.634 240.424C353.7 240.422 353.767 240.432 353.829 240.455C353.891 240.478 353.949 240.513 353.998 240.558C354.046 240.603 354.086 240.657 354.114 240.718C354.142 240.778 354.157 240.843 354.16 240.91C354.163 240.976 354.152 241.043 354.129 241.105C353.158 243.75 351.037 245.476 349.429 246.454C347.787 247.454 345.612 248.236 343.438 248.188C342.21 248.174 341.005 247.851 339.934 247.248C339.818 247.181 339.733 247.071 339.697 246.942C339.662 246.812 339.68 246.674 339.746 246.558Z" fill="#D26F61"/>
<path d="M257.399 254.916C252.013 255.218 246.471 253.729 242.2 250.439C237.928 247.15 235.018 242.016 234.784 236.627C234.655 233.654 235.479 230.405 237.868 228.634C239.692 227.28 242.116 227.02 244.378 227.216C247.52 227.489 250.812 228.735 252.478 231.413L257.399 254.916Z" fill="#F7A87E"/>
<path d="M245.615 235.921C245.348 236.082 245.099 236.273 244.875 236.491C243.896 237.431 243.325 238.719 243.286 240.076C243.246 241.433 243.741 242.751 244.664 243.747C244.709 243.796 244.763 243.835 244.824 243.863C244.884 243.891 244.949 243.907 245.016 243.909C245.082 243.912 245.149 243.901 245.211 243.878C245.273 243.855 245.331 243.82 245.379 243.775C245.428 243.729 245.468 243.675 245.495 243.615C245.523 243.554 245.539 243.489 245.541 243.423C245.544 243.356 245.533 243.29 245.51 243.227C245.487 243.165 245.452 243.108 245.407 243.059C244.666 242.258 244.268 241.198 244.3 240.108C244.332 239.017 244.79 237.982 245.577 237.225C245.862 236.951 246.297 236.625 246.8 236.542C248.694 237.706 250.16 239.453 250.978 241.52C251.015 241.617 251.082 241.7 251.168 241.758C251.254 241.815 251.356 241.845 251.46 241.843C251.52 241.842 251.579 241.83 251.635 241.808C251.697 241.784 251.754 241.748 251.802 241.702C251.85 241.656 251.888 241.601 251.915 241.541C251.942 241.48 251.956 241.414 251.958 241.348C251.959 241.281 251.948 241.215 251.923 241.153C250.959 238.673 249.139 236.621 246.792 235.367C244.445 234.113 241.727 233.741 239.129 234.318C239.064 234.332 239.003 234.359 238.948 234.397C238.894 234.435 238.847 234.484 238.812 234.54C238.776 234.596 238.752 234.659 238.74 234.724C238.729 234.79 238.73 234.857 238.744 234.922C238.759 234.987 238.786 235.048 238.824 235.103C238.862 235.157 238.911 235.203 238.967 235.239C239.023 235.275 239.086 235.299 239.151 235.311C239.216 235.322 239.284 235.321 239.349 235.306C241.45 234.851 243.642 235.066 245.615 235.921Z" fill="#D26F61"/>
<path d="M254.225 246.558C254.158 246.441 254.047 246.356 253.918 246.32C253.788 246.285 253.65 246.303 253.533 246.37C250.801 247.934 247.37 246.992 245.07 245.589C243.598 244.693 241.66 243.126 240.792 240.755C240.769 240.693 240.734 240.636 240.689 240.587C240.644 240.538 240.59 240.498 240.529 240.471C240.469 240.443 240.404 240.427 240.337 240.424C240.271 240.422 240.204 240.432 240.142 240.455C240.08 240.478 240.022 240.513 239.973 240.558C239.925 240.603 239.885 240.657 239.857 240.718C239.829 240.778 239.814 240.843 239.811 240.91C239.808 240.976 239.819 241.043 239.842 241.105C240.813 243.75 242.934 245.476 244.542 246.454C246.184 247.454 248.359 248.236 250.533 248.188C251.761 248.174 252.966 247.851 254.037 247.248C254.153 247.181 254.238 247.071 254.274 246.942C254.309 246.812 254.291 246.674 254.225 246.558Z" fill="#D26F61"/>
<path opacity="0.12" d="M320.891 247.671C324.947 247.671 328.236 244.383 328.236 240.327C328.236 236.271 324.947 232.982 320.891 232.982C316.835 232.982 313.547 236.271 313.547 240.327C313.547 244.383 316.835 247.671 320.891 247.671Z" fill="#ED7C6D"/>
<path opacity="0.12" d="M325.035 243.533C327.903 240.665 327.903 236.015 325.035 233.147C322.167 230.278 317.517 230.278 314.648 233.147C311.78 236.015 311.78 240.665 314.648 243.533C317.517 246.401 322.167 246.401 325.035 243.533Z" fill="#ED7C6D"/>
<path opacity="0.12" d="M323.962 247.671C328.018 247.671 331.306 244.383 331.306 240.327C331.306 236.271 328.018 232.982 323.962 232.982C319.905 232.982 316.617 236.271 316.617 240.327C316.617 244.383 319.905 247.671 323.962 247.671Z" fill="#ED7C6D"/>
<path opacity="0.12" d="M320.622 249.853C324.678 249.853 327.966 246.565 327.966 242.508C327.966 238.452 324.678 235.164 320.622 235.164C316.566 235.164 313.277 238.452 313.277 242.508C313.277 246.565 316.566 249.853 320.622 249.853Z" fill="#ED7C6D"/>
<path opacity="0.12" d="M321.315 245.826C324.353 245.826 326.816 243.363 326.816 240.325C326.816 237.287 324.353 234.824 321.315 234.824C318.277 234.824 315.814 237.287 315.814 240.325C315.814 243.363 318.277 245.826 321.315 245.826Z" fill="#ED7C6D"/>
<path opacity="0.12" d="M322.069 244.105C323.858 244.105 325.308 242.655 325.308 240.866C325.308 239.077 323.858 237.627 322.069 237.627C320.28 237.627 318.83 239.077 318.83 240.866C318.83 242.655 320.28 244.105 322.069 244.105Z" fill="#ED7C6D"/>
<path opacity="0.12" d="M322.988 240.453C323.399 238.712 322.321 236.967 320.58 236.556C318.839 236.145 317.094 237.224 316.683 238.965C316.273 240.706 317.351 242.45 319.092 242.861C320.833 243.272 322.577 242.194 322.988 240.453Z" fill="#ED7C6D"/>
<path opacity="0.12" d="M323.804 242.261C325.456 241.576 326.241 239.682 325.556 238.029C324.872 236.376 322.977 235.592 321.324 236.276C319.672 236.961 318.887 238.855 319.572 240.508C320.256 242.161 322.151 242.946 323.804 242.261Z" fill="#ED7C6D"/>
<path opacity="0.12" d="M322.132 243.318C323.784 242.633 324.569 240.738 323.885 239.086C323.2 237.433 321.305 236.648 319.653 237.333C318 238.017 317.215 239.912 317.9 241.565C318.584 243.217 320.479 244.002 322.132 243.318Z" fill="#ED7C6D"/>
<path opacity="0.12" d="M324.463 240C324.874 238.259 323.796 236.514 322.055 236.103C320.314 235.692 318.569 236.771 318.158 238.512C317.747 240.253 318.825 241.997 320.566 242.408C322.307 242.819 324.052 241.741 324.463 240Z" fill="#ED7C6D"/>
<path opacity="0.05" d="M321.816 241.566C323.094 241.566 324.13 240.53 324.13 239.252C324.13 237.974 323.094 236.938 321.816 236.938C320.538 236.938 319.502 237.974 319.502 239.252C319.502 240.53 320.538 241.566 321.816 241.566Z" fill="#FDECE9"/>
<path opacity="0.05" d="M321.311 239.721C322.075 239.721 322.694 239.102 322.694 238.338C322.694 237.574 322.075 236.955 321.311 236.955C320.547 236.955 319.928 237.574 319.928 238.338C319.928 239.102 320.547 239.721 321.311 239.721Z" fill="#FDECE9"/>
<path opacity="0.05" d="M322.376 238.873C322.264 239.022 322.11 239.135 321.934 239.196C321.758 239.258 321.568 239.267 321.387 239.22C321.206 239.174 321.043 239.075 320.919 238.936C320.794 238.797 320.714 238.625 320.687 238.44C320.661 238.255 320.69 238.067 320.77 237.899C320.851 237.731 320.98 237.59 321.14 237.495C321.301 237.4 321.486 237.355 321.672 237.365C321.858 237.375 322.037 237.44 322.187 237.552C322.286 237.626 322.369 237.719 322.433 237.826C322.496 237.932 322.537 238.05 322.555 238.173C322.572 238.296 322.566 238.421 322.535 238.541C322.504 238.661 322.45 238.774 322.376 238.873Z" fill="#FDECE9"/>
<path opacity="0.05" d="M322.065 238.748C321.954 238.898 321.8 239.011 321.624 239.073C321.448 239.135 321.257 239.143 321.076 239.097C320.895 239.051 320.732 238.952 320.607 238.813C320.482 238.674 320.401 238.502 320.375 238.317C320.348 238.132 320.377 237.943 320.458 237.775C320.538 237.606 320.667 237.465 320.828 237.37C320.989 237.275 321.174 237.23 321.36 237.24C321.547 237.25 321.726 237.315 321.876 237.427C322.076 237.577 322.208 237.801 322.244 238.048C322.28 238.296 322.215 238.548 322.065 238.748Z" fill="#FDECE9"/>
<path opacity="0.05" d="M319.982 238.915C320.482 238.78 320.778 238.265 320.642 237.765C320.507 237.265 319.992 236.969 319.492 237.104C318.991 237.24 318.696 237.755 318.831 238.255C318.967 238.755 319.482 239.051 319.982 238.915Z" fill="#FDECE9"/>
<path opacity="0.05" d="M322.184 238.748C322.072 238.897 321.919 239.01 321.743 239.071C321.567 239.133 321.376 239.142 321.195 239.095C321.015 239.049 320.852 238.95 320.727 238.811C320.603 238.672 320.522 238.5 320.496 238.315C320.469 238.13 320.498 237.942 320.579 237.774C320.66 237.606 320.788 237.465 320.949 237.37C321.109 237.275 321.294 237.23 321.481 237.24C321.667 237.25 321.846 237.315 321.995 237.427C322.195 237.577 322.328 237.8 322.363 238.048C322.398 238.296 322.334 238.547 322.184 238.748Z" fill="#FDECE9"/>
<path opacity="0.12" d="M271.085 247.671C275.141 247.671 278.429 244.383 278.429 240.327C278.429 236.271 275.141 232.982 271.085 232.982C267.028 232.982 263.74 236.271 263.74 240.327C263.74 244.383 267.028 247.671 271.085 247.671Z" fill="#ED7C6D"/>
<path opacity="0.12" d="M275.228 243.533C278.096 240.665 278.096 236.015 275.228 233.147C272.36 230.278 267.71 230.278 264.842 233.147C261.974 236.015 261.974 240.665 264.842 243.533C267.71 246.401 272.36 246.401 275.228 243.533Z" fill="#ED7C6D"/>
<path opacity="0.12" d="M274.157 247.671C278.213 247.671 281.501 244.383 281.501 240.327C281.501 236.271 278.213 232.982 274.157 232.982C270.101 232.982 266.812 236.271 266.812 240.327C266.812 244.383 270.101 247.671 274.157 247.671Z" fill="#ED7C6D"/>
<path opacity="0.12" d="M270.815 249.853C274.871 249.853 278.159 246.565 278.159 242.508C278.159 238.452 274.871 235.164 270.815 235.164C266.759 235.164 263.471 238.452 263.471 242.508C263.471 246.565 266.759 249.853 270.815 249.853Z" fill="#ED7C6D"/>
<path opacity="0.12" d="M271.508 245.826C274.546 245.826 277.009 243.363 277.009 240.325C277.009 237.287 274.546 234.824 271.508 234.824C268.471 234.824 266.008 237.287 266.008 240.325C266.008 243.363 268.471 245.826 271.508 245.826Z" fill="#ED7C6D"/>
<path opacity="0.12" d="M272.262 244.105C274.051 244.105 275.501 242.655 275.501 240.866C275.501 239.077 274.051 237.627 272.262 237.627C270.474 237.627 269.023 239.077 269.023 240.866C269.023 242.655 270.474 244.105 272.262 244.105Z" fill="#ED7C6D"/>
<path opacity="0.12" d="M273.184 240.453C273.595 238.712 272.516 236.967 270.775 236.556C269.034 236.146 267.29 237.224 266.879 238.965C266.468 240.706 267.546 242.45 269.287 242.861C271.028 243.272 272.773 242.194 273.184 240.453Z" fill="#ED7C6D"/>
<path opacity="0.12" d="M273.997 242.261C275.65 241.576 276.434 239.682 275.75 238.029C275.065 236.376 273.171 235.592 271.518 236.276C269.865 236.961 269.08 238.855 269.765 240.508C270.449 242.161 272.344 242.946 273.997 242.261Z" fill="#ED7C6D"/>
<path opacity="0.12" d="M272.325 243.32C273.978 242.635 274.763 240.74 274.078 239.088C273.393 237.435 271.499 236.65 269.846 237.335C268.193 238.019 267.408 239.914 268.093 241.567C268.778 243.219 270.672 244.004 272.325 243.32Z" fill="#ED7C6D"/>
<path opacity="0.12" d="M274.658 240.002C275.069 238.261 273.991 236.516 272.25 236.105C270.509 235.694 268.764 236.773 268.353 238.514C267.942 240.255 269.021 241.999 270.762 242.41C272.503 242.821 274.247 241.743 274.658 240.002Z" fill="#ED7C6D"/>
<path opacity="0.05" d="M272.011 241.566C273.289 241.566 274.325 240.53 274.325 239.252C274.325 237.974 273.289 236.938 272.011 236.938C270.733 236.938 269.697 237.974 269.697 239.252C269.697 240.53 270.733 241.566 272.011 241.566Z" fill="#FDECE9"/>
<path opacity="0.05" d="M271.504 239.721C272.268 239.721 272.887 239.102 272.887 238.338C272.887 237.574 272.268 236.955 271.504 236.955C270.74 236.955 270.121 237.574 270.121 238.338C270.121 239.102 270.74 239.721 271.504 239.721Z" fill="#FDECE9"/>
<path opacity="0.05" d="M272.569 238.873C272.457 239.022 272.303 239.135 272.127 239.196C271.951 239.258 271.761 239.267 271.58 239.22C271.4 239.174 271.237 239.075 271.112 238.936C270.988 238.797 270.907 238.625 270.881 238.44C270.854 238.255 270.883 238.067 270.964 237.899C271.044 237.731 271.173 237.59 271.334 237.495C271.494 237.4 271.679 237.355 271.865 237.365C272.052 237.375 272.231 237.44 272.38 237.552C272.479 237.626 272.563 237.719 272.626 237.826C272.689 237.932 272.731 238.05 272.748 238.173C272.766 238.296 272.759 238.421 272.728 238.541C272.697 238.661 272.643 238.774 272.569 238.873Z" fill="#FDECE9"/>
<path opacity="0.05" d="M272.26 238.748C272.148 238.897 271.995 239.01 271.819 239.071C271.643 239.133 271.452 239.142 271.272 239.095C271.091 239.049 270.928 238.95 270.803 238.811C270.679 238.672 270.598 238.5 270.572 238.315C270.546 238.13 270.575 237.942 270.655 237.774C270.736 237.606 270.865 237.465 271.025 237.37C271.185 237.275 271.371 237.23 271.557 237.24C271.743 237.25 271.922 237.315 272.071 237.427C272.272 237.577 272.404 237.8 272.439 238.048C272.475 238.296 272.41 238.547 272.26 238.748Z" fill="#FDECE9"/>
<path opacity="0.05" d="M272.164 239.215C272.667 239.077 272.962 238.558 272.825 238.056C272.687 237.553 272.168 237.258 271.666 237.395C271.163 237.533 270.867 238.052 271.005 238.554C271.143 239.057 271.662 239.352 272.164 239.215Z" fill="#FDECE9"/>
<path opacity="0.05" d="M272.378 238.748C272.266 238.898 272.112 239.011 271.936 239.073C271.76 239.135 271.569 239.143 271.389 239.097C271.208 239.051 271.044 238.952 270.919 238.813C270.795 238.674 270.714 238.502 270.687 238.317C270.661 238.132 270.69 237.943 270.77 237.775C270.851 237.606 270.98 237.465 271.14 237.37C271.301 237.275 271.486 237.23 271.673 237.24C271.859 237.25 272.039 237.315 272.188 237.427C272.388 237.577 272.521 237.801 272.556 238.048C272.592 238.296 272.528 238.548 272.378 238.748Z" fill="#FDECE9"/>
<path d="M290.494 234.797C290.494 234.818 290.494 234.838 290.494 234.859C290.515 236.763 291.286 238.582 292.64 239.92C293.993 241.259 295.82 242.01 297.724 242.01C299.628 242.01 301.455 241.259 302.809 239.92C304.163 238.582 304.934 236.763 304.955 234.859C304.955 234.838 304.955 234.818 304.955 234.797H290.494Z" fill="#F17D6F"/>
<path d="M422.035 322.499C421.344 319.556 421.61 315.742 420.698 313.268C432.545 291.145 431.593 270.368 427.75 257.864C423.907 245.36 407.206 238.289 401.086 256.654C398.046 265.781 385.257 303.136 380.614 312.67C377.847 326.343 376.76 340.635 377.197 354.821C380.989 352.96 384.687 350.9 388.272 348.725C400.908 341.065 411.56 332.926 422.035 322.499Z" fill="#F7A87E"/>
<path d="M402.739 518.741L351.655 475.418C313.989 517.521 249.437 522.194 206.08 485.454C162.724 448.714 156.822 384.232 192.208 340.195L141.123 296.872C81.8101 369.122 91.2476 475.835 162.786 536.504C234.324 597.174 341.145 589.058 402.739 518.741Z" fill="#FF9149"/>
<path d="M424.327 152.836H426.058V164.569H424.327C424.153 164.569 423.98 164.534 423.819 164.468C423.658 164.401 423.512 164.303 423.389 164.18C423.265 164.057 423.168 163.91 423.101 163.749C423.034 163.588 423 163.416 423 163.242V154.163C423 153.811 423.14 153.473 423.389 153.225C423.638 152.976 423.975 152.836 424.327 152.836Z" fill="#333333"/>
<path d="M424.327 175.879H426.058V197.752H424.327C423.975 197.752 423.638 197.612 423.389 197.363C423.14 197.114 423 196.777 423 196.425V177.206C423 176.854 423.14 176.516 423.389 176.268C423.638 176.019 423.975 175.879 424.327 175.879Z" fill="#333333"/>
<path d="M577.673 217.48H575.942V183.558H577.673C578.025 183.558 578.362 183.698 578.611 183.946C578.86 184.195 579 184.533 579 184.885V216.153C579 216.505 578.86 216.843 578.611 217.092C578.362 217.341 578.025 217.48 577.673 217.48Z" fill="#333333"/>
<path d="M424.327 203.869H426.058V225.742H424.327C423.975 225.742 423.638 225.602 423.389 225.353C423.14 225.104 423 224.767 423 224.415V205.196C423 204.844 423.14 204.507 423.389 204.258C423.638 204.009 423.975 203.869 424.327 203.869Z" fill="#333333"/>
<path d="M554.499 111H447.493C434.81 111 424.529 121.281 424.529 133.963V398.361C424.529 411.043 434.81 421.324 447.493 421.324H554.499C567.182 421.324 577.463 411.043 577.463 398.361V133.963C577.463 121.281 567.182 111 554.499 111Z" fill="#444444"/>
<path d="M554.498 113.686H447.488C436.289 113.686 427.211 122.764 427.211 133.963V398.363C427.211 409.562 436.289 418.641 447.488 418.641H554.498C565.697 418.641 574.776 409.562 574.776 398.363V133.963C574.776 122.764 565.697 113.686 554.498 113.686Z" fill="#444444"/>
<path d="M554.5 113.855H447.49C436.385 113.855 427.383 122.858 427.383 133.963V398.363C427.383 409.468 436.385 418.47 447.49 418.47H554.5C565.605 418.47 574.607 409.468 574.607 398.363V133.963C574.607 122.858 565.605 113.855 554.5 113.855Z" fill="#434343"/>
<path d="M554.5 114.025H447.49C436.479 114.025 427.553 122.952 427.553 133.962V398.363C427.553 409.374 436.479 418.3 447.49 418.3H554.5C565.511 418.3 574.437 409.374 574.437 398.363V133.962C574.437 122.952 565.511 114.025 554.5 114.025Z" fill="#414141"/>
<path d="M554.499 114.197H447.489C436.573 114.197 427.723 123.047 427.723 133.964V398.364C427.723 409.281 436.573 418.131 447.489 418.131H554.499C565.416 418.131 574.266 409.281 574.266 398.364V133.964C574.266 123.047 565.416 114.197 554.499 114.197Z" fill="#404040"/>
<path d="M554.499 114.367H447.489C436.666 114.367 427.893 123.141 427.893 133.964V398.364C427.893 409.187 436.666 417.961 447.489 417.961H554.499C565.322 417.961 574.096 409.187 574.096 398.364V133.964C574.096 123.141 565.322 114.367 554.499 114.367Z" fill="#3E3E3E"/>
<path d="M554.503 114.537H447.493C436.764 114.537 428.066 123.235 428.066 133.964V398.364C428.066 409.093 436.764 417.79 447.493 417.79H554.503C565.232 417.79 573.929 409.093 573.929 398.364V133.964C573.929 123.235 565.232 114.537 554.503 114.537Z" fill="#3D3D3D"/>
<path d="M554.499 114.707H447.493C436.858 114.707 428.236 123.328 428.236 133.963V398.361C428.236 408.996 436.858 417.617 447.493 417.617H554.499C565.134 417.617 573.756 408.996 573.756 398.361V133.963C573.756 123.328 565.134 114.707 554.499 114.707Z" fill="#3B3B3B"/>
<path d="M554.499 114.877H447.492C436.951 114.877 428.406 123.422 428.406 133.963V398.36C428.406 408.901 436.951 417.446 447.492 417.446H554.499C565.04 417.446 573.585 408.901 573.585 398.36V133.963C573.585 123.422 565.04 114.877 554.499 114.877Z" fill="#3A3A3A"/>
<path d="M554.499 115.047H447.492C437.045 115.047 428.576 123.516 428.576 133.963V398.36C428.576 408.807 437.045 417.276 447.492 417.276H554.499C564.946 417.276 573.415 408.807 573.415 398.36V133.963C573.415 123.516 564.946 115.047 554.499 115.047Z" fill="#393939"/>
<path d="M554.499 115.221H447.492C437.139 115.221 428.746 123.613 428.746 133.966V398.364C428.746 408.717 437.139 417.109 447.492 417.109H554.499C564.852 417.109 573.244 408.717 573.244 398.364V133.966C573.244 123.613 564.852 115.221 554.499 115.221Z" fill="#373737"/>
<path d="M554.498 115.391H447.491C437.233 115.391 428.916 123.707 428.916 133.966V398.363C428.916 408.622 437.233 416.939 447.491 416.939H554.498C564.757 416.939 573.074 408.622 573.074 398.363V133.966C573.074 123.707 564.757 115.391 554.498 115.391Z" fill="#363636"/>
<path d="M554.5 115.561H447.493C437.328 115.561 429.088 123.801 429.088 133.966V398.363C429.088 408.528 437.328 416.768 447.493 416.768H554.5C564.665 416.768 572.905 408.528 572.905 398.363V133.966C572.905 123.801 564.665 115.561 554.5 115.561Z" fill="#343434"/>
<path d="M554.5 115.73H447.49C437.421 115.73 429.258 123.893 429.258 133.963V398.363C429.258 408.432 437.421 416.595 447.49 416.595H554.5C564.569 416.595 572.732 408.432 572.732 398.363V133.963C572.732 123.893 564.569 115.73 554.5 115.73Z" fill="#333333"/>
<path d="M554.499 115.902H447.49C437.514 115.902 429.428 123.989 429.428 133.964V398.365C429.428 408.34 437.514 416.426 447.49 416.426H554.499C564.475 416.426 572.561 408.34 572.561 398.365V133.964C572.561 123.989 564.475 115.902 554.499 115.902Z" fill="#313131"/>
<path d="M554.499 116.07H447.489C437.608 116.07 429.598 124.081 429.598 133.962V398.362C429.598 408.244 437.608 416.254 447.489 416.254H554.499C564.38 416.254 572.391 408.244 572.391 398.362V133.962C572.391 124.081 564.38 116.07 554.499 116.07Z" fill="#303030"/>
<path d="M554.499 116.242H447.489C437.702 116.242 429.768 124.176 429.768 133.964V398.364C429.768 408.151 437.702 416.085 447.489 416.085H554.499C564.286 416.085 572.22 408.151 572.22 398.364V133.964C572.22 124.176 564.286 116.242 554.499 116.242Z" fill="#2F2F2F"/>
<path d="M554.499 116.412H447.489C437.795 116.412 429.938 124.27 429.938 133.963V398.364C429.938 408.057 437.795 415.915 447.489 415.915H554.499C564.192 415.915 572.05 408.057 572.05 398.364V133.963C572.05 124.27 564.192 116.412 554.499 116.412Z" fill="#2D2D2D"/>
<path d="M554.498 116.582H447.489C437.889 116.582 430.107 124.364 430.107 133.963V398.363C430.107 407.963 437.889 415.744 447.489 415.744H554.498C564.098 415.744 571.879 407.963 571.879 398.363V133.963C571.879 124.364 564.098 116.582 554.498 116.582Z" fill="#2C2C2C"/>
<path d="M554.499 116.752H447.492C437.987 116.752 430.281 124.458 430.281 133.963V398.36C430.281 407.866 437.987 415.571 447.492 415.571H554.499C564.004 415.571 571.71 407.866 571.71 398.36V133.963C571.71 124.458 564.004 116.752 554.499 116.752Z" fill="#2A2A2A"/>
<path d="M554.499 116.922H447.492C438.081 116.922 430.451 124.551 430.451 133.963V398.36C430.451 407.771 438.081 415.401 447.492 415.401H554.499C563.91 415.401 571.539 407.771 571.539 398.36V133.963C571.539 124.551 563.91 116.922 554.499 116.922Z" fill="#292929"/>
<path d="M554.498 117.094H447.492C438.174 117.094 430.621 124.647 430.621 133.964V398.362C430.621 407.679 438.174 415.232 447.492 415.232H554.498C563.816 415.232 571.369 407.679 571.369 398.362V133.964C571.369 124.647 563.816 117.094 554.498 117.094Z" fill="#272727"/>
<path d="M554.5 117.266H447.493C438.27 117.266 430.793 124.743 430.793 133.966V398.363C430.793 407.587 438.27 415.064 447.493 415.064H554.5C563.723 415.064 571.2 407.587 571.2 398.363V133.966C571.2 124.743 563.723 117.266 554.5 117.266Z" fill="#262626"/>
<path d="M554.499 114.581C559.638 114.587 564.565 116.631 568.199 120.265C571.833 123.898 573.877 128.826 573.882 133.965V398.365C573.877 403.504 571.833 408.431 568.199 412.065C564.565 415.699 559.638 417.743 554.499 417.748H447.492C442.353 417.743 437.425 415.699 433.791 412.065C430.157 408.431 428.112 403.504 428.106 398.365V133.965C428.112 128.825 430.157 123.898 433.791 120.264C437.425 116.631 442.353 114.587 447.492 114.581H554.499ZM554.499 113.477H447.492C442.062 113.484 436.857 115.645 433.017 119.484C429.178 123.324 427.017 128.529 427.01 133.959V398.359C427.017 403.789 429.178 408.994 433.017 412.834C436.857 416.673 442.062 418.834 447.492 418.841H554.499C559.929 418.834 565.134 416.673 568.974 412.834C572.813 408.994 574.974 403.789 574.981 398.359V133.965C574.974 128.535 572.813 123.329 568.974 119.49C565.134 115.65 559.929 113.49 554.499 113.482V113.477Z" fill="#2D2C2C"/>
<mask id="mask0_42_5966" style="mask-type:luminance" maskUnits="userSpaceOnUse" x="433" y="119" width="136" height="294">
<path d="M554.499 119.949H540.585C540.156 119.949 539.744 120.12 539.44 120.423C539.136 120.726 538.965 121.138 538.964 121.568V121.77C538.966 122.976 538.73 124.171 538.27 125.287C537.809 126.402 537.133 127.416 536.281 128.27C535.428 129.124 534.415 129.801 533.301 130.263C532.186 130.726 530.991 130.963 529.785 130.963H471.753C469.319 130.963 466.984 129.996 465.262 128.275C463.541 126.553 462.574 124.219 462.574 121.784V121.582C462.574 121.153 462.403 120.741 462.1 120.438C461.796 120.134 461.385 119.964 460.955 119.964H447.492C445.651 119.963 443.829 120.325 442.128 121.03C440.427 121.734 438.882 122.766 437.58 124.067C436.279 125.369 435.246 126.914 434.542 128.614C433.837 130.315 433.475 132.137 433.475 133.978V398.378C433.475 400.219 433.837 402.042 434.542 403.742C435.246 405.443 436.279 406.988 437.58 408.289C438.882 409.591 440.427 410.623 442.128 411.327C443.829 412.031 445.651 412.393 447.492 412.393H554.499C558.216 412.393 561.78 410.916 564.409 408.288C567.037 405.66 568.513 402.095 568.513 398.378V133.964C568.513 130.247 567.037 126.682 564.409 124.054C561.78 121.426 558.216 119.949 554.499 119.949Z" fill="white"/>
</mask>
<g mask="url(#mask0_42_5966)">
<path d="M568.513 119.949H433.475V412.378H568.513V119.949Z" fill="#9EA6FF"/>
<path d="M433.187 412.668V180.895H431.254C432.408 179.099 433.562 177.3 434.716 175.5C437.06 171.904 439.464 168.309 441.928 164.717C446.861 157.539 452.031 150.392 457.439 143.274C462.848 136.156 468.36 129.264 473.975 122.598C474.677 121.766 475.379 120.936 476.081 120.109C476.429 119.693 476.78 119.281 477.134 118.871V119.667H568.803V377.282H570.533C569.049 378.488 567.564 379.679 566.079 380.854C560.136 385.55 554.202 389.974 548.277 394.124C542.352 398.274 536.461 402.138 530.604 405.715C527.677 407.504 524.761 409.218 521.855 410.859C520.401 411.678 518.952 412.479 517.507 413.262V412.668H433.187Z" fill="#9EA6FF"/>
<path d="M433.186 412.667V181.272H432.531C433.662 179.493 434.808 177.713 435.97 175.93C438.293 172.37 440.675 168.812 443.116 165.256C447.997 158.152 453.115 151.077 458.469 144.032C463.823 136.987 469.273 130.165 474.82 123.564C476.205 121.914 477.595 120.28 478.991 118.66V119.661H568.802V375.638H570.374C568.907 376.832 567.437 378.01 565.966 379.172C560.087 383.818 554.214 388.195 548.348 392.303C537.251 400.131 525.648 407.217 513.615 413.513V412.667H433.186Z" fill="#9FA7FF"/>
<path d="M433.186 412.669V184.294H432.145C432.695 183.413 433.25 182.532 433.812 181.652C434.931 179.888 436.065 178.125 437.213 176.364C439.521 172.842 441.878 169.323 444.284 165.805C449.117 158.774 454.182 151.773 459.478 144.804C464.775 137.834 470.168 131.082 475.659 124.549C477.032 122.916 478.409 121.297 479.787 119.691L480.826 118.488V119.662H568.813V373.992H570.227C568.773 375.171 567.318 376.336 565.862 377.488C560.042 382.087 554.231 386.414 548.429 390.47C537.447 398.216 525.964 405.227 514.056 411.457C512.649 412.188 511.245 412.899 509.845 413.592V412.654L433.186 412.669Z" fill="#A0A7FE"/>
<path d="M433.187 412.667V187.258H431.805C440.427 173.305 449.999 159.348 460.48 145.567C465.721 138.676 471.058 131.996 476.491 125.526C477.837 123.911 479.199 122.308 480.576 120.72C481.258 119.924 481.943 119.132 482.63 118.346V119.661H568.802V372.34H570.054C568.618 373.512 567.175 374.666 565.727 375.802C559.969 380.354 554.219 384.641 548.476 388.663C537.61 396.328 526.248 403.267 514.467 409.434C511.68 410.878 508.909 412.249 506.155 413.547V412.682L433.187 412.667Z" fill="#A1A8FE"/>
<path d="M433.185 412.669V187.58H433.113C441.647 173.776 451.115 159.967 461.486 146.327C466.678 139.511 471.957 132.902 477.323 126.5C478.67 124.902 480.016 123.316 481.362 121.743C482.04 120.958 482.715 120.176 483.381 119.395V119.657H568.772V370.695H569.866C568.441 371.849 567.016 372.99 565.593 374.119C559.899 378.623 554.21 382.864 548.527 386.841C537.776 394.425 526.535 401.288 514.878 407.387C512.12 408.818 509.379 410.175 506.656 411.457C505.295 412.102 503.938 412.725 502.586 413.327V412.669H433.185Z" fill="#A2A8FD"/>
<path d="M433.187 412.668V193.023H431.303C432.33 191.315 433.37 189.609 434.424 187.903C442.865 174.246 452.232 160.586 462.491 147.097C467.62 140.352 472.843 133.813 478.161 127.48C480.815 124.318 483.489 121.208 486.184 118.15V119.659H568.802V369.044H569.734C568.326 370.198 566.918 371.327 565.508 372.431C559.875 376.885 554.247 381.08 548.626 385.017C537.99 392.518 526.87 399.307 515.338 405.341C509.885 408.172 504.5 410.71 499.183 412.957V412.668H433.187Z" fill="#A3A9FD"/>
<path d="M433.186 410.702V193.278H432.646C433.662 191.588 434.692 189.899 435.736 188.212C444.085 174.706 453.351 161.193 463.497 147.851C468.568 141.181 473.734 134.714 478.994 128.45C481.623 125.321 484.27 122.244 486.933 119.219V119.649H568.802V367.386H569.575C568.181 368.517 566.787 369.633 565.395 370.735C559.817 375.14 554.251 379.29 548.694 383.186C538.174 390.606 527.175 397.323 515.77 403.294C510.375 406.092 505.047 408.603 499.785 410.826C497.158 411.936 494.552 412.972 491.967 413.936V412.661H433.186V410.702Z" fill="#A4AAFC"/>
<path d="M433.186 408.577V196.058H432.496C432.992 195.221 433.49 194.387 433.99 193.554C434.994 191.885 436.013 190.214 437.045 188.543C445.302 175.186 454.467 161.821 464.5 148.626C469.516 142.027 474.626 135.631 479.83 129.439C482.427 126.342 485.043 123.3 487.68 120.311C488.338 119.565 488.997 118.82 489.659 118.078V119.662H568.801V365.752H569.413C568.036 366.871 566.658 367.975 565.279 369.064C559.767 373.42 554.262 377.521 548.763 381.368C538.359 388.712 527.48 395.362 516.199 401.273C505.526 406.806 495.097 411.217 485.043 414.425V412.694H433.186V408.577Z" fill="#A6AAFC"/>
<path d="M433.187 406.466V198.759H432.402C434.326 195.458 436.31 192.157 438.357 188.855C446.524 175.642 455.585 162.427 465.509 149.379C470.471 142.855 475.523 136.531 480.666 130.405C483.237 127.346 485.825 124.337 488.429 121.379C489.081 120.64 489.733 119.905 490.387 119.172V119.651H568.803V364.091H569.256C567.89 365.199 566.528 366.291 565.168 367.368C559.716 371.678 554.271 375.737 548.834 379.545C538.545 386.8 527.788 393.369 516.634 399.208C506.081 404.689 495.765 409.042 485.835 412.213C483.354 413.007 480.898 413.725 478.467 414.368V412.657H433.175L433.187 406.466Z" fill="#A7ABFB"/>
<path d="M433.187 404.331V201.424H432.359C432.829 200.61 433.302 199.796 433.779 198.98C435.685 195.711 437.647 192.446 439.667 189.186C447.744 176.124 456.702 163.055 466.513 150.154C471.419 143.704 476.419 137.453 481.514 131.403C484.053 128.376 486.611 125.401 489.19 122.477C490.477 121.018 491.769 119.569 493.065 118.133V119.67H568.803V362.463H569.092C567.745 363.56 566.399 364.639 565.053 365.703C559.668 369.963 554.283 373.976 548.898 377.741C538.724 384.916 528.088 391.412 517.058 397.185C506.626 402.594 496.423 406.907 486.609 410.046C481.871 411.569 477.056 412.842 472.184 413.859V412.677H433.187V404.331Z" fill="#A8ABFB"/>
<path d="M433.186 402.207V204.02H432.37C433.283 202.41 434.212 200.798 435.157 199.185C437.041 195.96 438.982 192.732 440.978 189.503C448.958 176.591 457.817 163.673 467.519 150.916C472.367 144.538 477.308 138.357 482.341 132.372C484.841 129.382 487.369 126.441 489.925 123.55C491.198 122.104 492.475 120.671 493.756 119.252V119.662H568.802V360.807H568.935C567.602 361.89 566.269 362.957 564.936 364.009C559.609 368.221 554.287 372.189 548.972 375.912C538.913 383.005 528.397 389.426 517.492 395.134C496.866 405.831 477.151 412.192 459.577 413.597C450.787 414.292 442.533 413.744 434.969 411.866C434.023 411.633 433.087 411.379 432.162 411.104H433.186V402.207Z" fill="#A9ACFA"/>
<path d="M433.187 400.085V206.568H432.434C432.878 205.771 433.327 204.975 433.781 204.179C434.683 202.587 435.601 200.993 436.533 199.399C438.397 196.21 440.32 193.021 442.303 189.83C450.193 177.065 458.949 164.293 468.538 151.684C473.317 145.372 478.195 139.261 483.172 133.351C485.653 130.395 488.154 127.488 490.673 124.63C491.931 123.203 493.193 121.787 494.461 120.383C495.095 119.681 495.73 118.983 496.365 118.289V119.662H568.803V357.542H570.75L568.774 359.161C567.458 360.232 566.142 361.29 564.825 362.334C559.557 366.496 554.296 370.417 549.042 374.098C539.099 381.109 528.704 387.456 517.926 393.098C497.533 403.671 478.046 409.96 460.674 411.333C451.987 412.022 443.826 411.48 436.349 409.631C435.414 409.4 434.49 409.149 433.576 408.878C433.119 408.741 432.665 408.6 432.215 408.454H433.187V400.085Z" fill="#AAADFA"/>
<path d="M433.187 397.958V209.051H432.549C436.011 202.766 439.694 196.465 443.598 190.149C451.387 177.531 460.041 164.91 469.53 152.448C474.267 146.218 479.092 140.178 484.006 134.328C486.46 131.407 488.931 128.533 491.42 125.708C492.666 124.295 493.916 122.895 495.17 121.511C495.795 120.818 496.422 120.128 497.051 119.439V119.662H568.802V355.929H570.565C569.917 356.464 569.267 356.995 568.615 357.524C567.311 358.584 566.009 359.628 564.709 360.657C559.505 364.771 554.305 368.646 549.111 372.283C539.283 379.213 529.009 385.487 518.355 391.063C498.208 401.501 478.94 407.715 461.769 409.062C453.184 409.74 445.121 409.206 437.727 407.38C435.877 406.924 434.072 406.387 432.312 405.767H433.178L433.187 397.958Z" fill="#ABADF9"/>
<path d="M433.186 395.836V213.803H431.456C432.285 212.255 433.127 210.704 433.983 209.15C437.41 202.94 441.051 196.713 444.905 190.471C452.61 178.002 461.164 165.528 470.528 153.216C479.892 140.904 489.637 129.324 499.592 118.561V119.654H568.802V354.277H570.383C569.739 354.808 569.096 355.334 568.453 355.855C567.167 356.903 565.881 357.935 564.596 358.95C559.45 363.016 554.311 366.846 549.18 370.441C539.468 377.288 529.316 383.488 518.788 388.999C498.868 399.326 479.843 405.468 462.866 406.813C454.381 407.482 446.422 406.954 439.106 405.148C437.279 404.698 435.495 404.167 433.755 403.556C432.884 403.246 432.024 402.919 431.176 402.575H433.195L433.186 395.836Z" fill="#ACAEF9"/>
<path d="M433.187 393.713V213.847H432.93C433.75 212.318 434.583 210.785 435.431 209.248C438.816 203.111 442.413 196.957 446.221 190.785C453.834 178.464 462.286 166.14 471.541 153.972C480.795 141.804 490.419 130.389 500.253 119.746C500.869 119.079 501.484 118.418 502.1 117.762V119.663H568.803V352.656H570.199C569.564 353.181 568.929 353.701 568.292 354.217C567.023 355.249 565.753 356.269 564.481 357.275C559.398 361.29 554.321 365.074 549.249 368.626C539.654 375.394 529.622 381.521 519.218 386.965C499.538 397.172 480.732 403.239 463.962 404.563C455.579 405.226 447.706 404.704 440.488 402.921C438.683 402.473 436.919 401.947 435.198 401.343C434.338 401.043 433.489 400.721 432.65 400.377H433.187V393.713Z" fill="#ADAEF8"/>
<path d="M433.187 391.589V218.424H432.012C433.58 215.407 435.199 212.38 436.871 209.345C440.215 203.285 443.773 197.208 447.544 191.113C455.068 178.942 463.411 166.765 472.562 154.744C481.712 142.723 491.206 131.423 500.925 120.923C501.535 120.265 502.144 119.611 502.751 118.961V119.662H568.814V351.025H570.028C569.4 351.544 568.772 352.059 568.145 352.569C566.891 353.59 565.635 354.597 564.377 355.589C559.354 359.558 554.338 363.297 549.33 366.805C539.85 373.49 529.939 379.542 519.662 384.922C500.218 395.019 481.637 400.999 465.073 402.312C456.787 402.966 449.01 402.45 441.879 400.687C438.371 399.829 434.956 398.628 431.684 397.102H433.198L433.187 391.589Z" fill="#AEAFF8"/>
<path d="M433.186 389.466V222.879H431.23C431.979 221.392 432.739 219.904 433.512 218.413C435.051 215.43 436.65 212.441 438.31 209.447C441.612 203.456 445.122 197.452 448.839 191.434C456.271 179.41 464.519 167.383 473.551 155.509C482.583 143.635 491.971 132.471 501.571 122.1C502.771 120.802 503.974 119.517 505.18 118.246V119.663H568.802V349.399H569.832C569.213 349.91 568.593 350.418 567.971 350.922C566.733 351.93 565.493 352.924 564.253 353.905C559.291 357.826 554.336 361.52 549.387 364.985C540.022 371.585 530.232 377.56 520.08 382.871C500.873 392.83 482.52 398.738 466.157 400.048C457.976 400.694 450.291 400.186 443.246 398.444C439.781 397.597 436.409 396.41 433.178 394.901L433.186 389.466Z" fill="#AFB0F7"/>
<path d="M433.186 387.342V222.812H432.759C433.498 221.343 434.249 219.872 435.012 218.401C436.541 215.455 438.121 212.503 439.752 209.545C443.022 203.629 446.483 197.699 450.138 191.754C457.477 179.88 465.623 168 474.543 156.271C483.463 144.541 492.732 133.518 502.214 123.274C503.399 121.993 504.588 120.725 505.78 119.469V119.659H568.802V347.768H569.65C569.035 348.274 568.422 348.775 567.813 349.271C566.587 350.269 565.362 351.252 564.137 352.22C559.239 356.091 554.345 359.738 549.456 363.162C540.208 369.685 530.538 375.59 520.51 380.837C501.542 390.674 483.414 396.522 467.253 397.803C459.176 398.44 451.583 397.938 444.625 396.219C441.203 395.381 437.873 394.209 434.681 392.72C433.892 392.35 433.117 391.966 432.355 391.566H433.186V387.342Z" fill="#B0B0F7"/>
<path d="M433.187 385.216V227.087H432.146C443.397 203.951 457.945 180.203 475.563 157.038C484.37 145.455 493.526 134.571 502.891 124.454C504.062 123.186 505.236 121.936 506.413 120.704L508.178 118.852V119.671H568.803V346.139H569.464C568.862 346.639 568.257 347.134 567.649 347.624C566.439 348.609 565.23 349.579 564.02 350.535C559.187 354.358 554.356 357.961 549.527 361.342C540.393 367.781 530.845 373.612 520.944 378.795C502.213 388.508 484.306 394.283 468.351 395.547C460.371 396.179 452.876 395.683 446.005 393.983C442.629 393.155 439.344 391.995 436.196 390.522C434.646 389.794 433.136 388.986 431.67 388.101H433.199L433.187 385.216Z" fill="#B1B1F6"/>
<path d="M433.187 383.098V231.24H431.652C432.322 229.817 433.002 228.392 433.695 226.965C444.799 204.129 459.174 180.672 476.572 157.793C485.267 146.357 494.308 135.608 503.554 125.621C505.862 123.121 508.185 120.672 510.524 118.273V119.652H568.797V344.51H569.279C568.682 345.001 568.085 345.491 567.487 345.976C566.293 346.947 565.099 347.909 563.904 348.861C559.127 352.636 554.356 356.194 549.59 359.534C540.574 365.888 531.148 371.64 521.373 376.751C502.879 386.343 485.206 392.041 469.446 393.293C461.568 393.916 454.157 393.423 447.386 391.746C444.05 390.932 440.802 389.79 437.69 388.337C436.16 387.618 434.667 386.821 433.219 385.948C432.859 385.729 432.5 385.505 432.143 385.276H433.187V383.098Z" fill="#B2B1F6"/>
<path d="M433.186 380.97V235.269H431.279C432.549 232.471 433.868 229.663 435.237 226.845C446.2 204.3 460.39 181.144 477.561 158.567C486.146 147.279 495.072 136.668 504.196 126.808C506.479 124.341 508.773 121.922 511.079 119.553V119.662H568.802V342.882H569.09C568.513 343.366 567.913 343.851 567.322 344.324C566.145 345.286 564.966 346.231 563.785 347.16C559.07 350.887 554.358 354.398 549.65 357.692C540.748 363.973 531.442 369.659 521.791 374.713C503.533 384.181 486.085 389.812 470.527 391.041C462.738 391.656 455.446 391.171 448.75 389.518C445.456 388.712 442.25 387.584 439.178 386.148C437.667 385.441 436.195 384.655 434.767 383.791C434.052 383.359 433.349 382.908 432.658 382.438H433.172L433.186 380.97Z" fill="#B3B2F5"/>
<path d="M433.186 378.847V235.035H432.897C434.149 232.277 435.452 229.507 436.806 226.724C447.624 204.473 461.63 181.617 478.579 159.331C487.051 148.19 495.859 137.718 504.868 127.985C507.12 125.55 509.384 123.163 511.659 120.825C512.236 120.248 512.813 119.671 513.367 119.094V119.671H568.802V339.812H570.659C568.334 341.745 566.012 343.634 563.693 345.481C559.036 349.16 554.387 352.622 549.744 355.866C540.958 362.061 531.772 367.67 522.246 372.656C486.206 391.347 453.362 394.883 432.26 378.835L433.186 378.847Z" fill="#B5B3F5"/>
<path d="M433.876 376.724C433.227 376.228 432.589 375.717 431.969 375.192H433.198V238.881H432.701C433.292 237.519 433.893 236.165 434.505 234.819C435.743 232.096 437.029 229.361 438.362 226.615C449.035 204.658 462.859 182.102 479.583 160.111C487.949 149.117 496.638 138.78 505.529 129.177C507.75 126.776 509.984 124.421 512.23 122.112C513.352 120.958 514.477 119.814 515.606 118.682V119.677H568.802V338.194H570.455C568.159 340.117 565.862 341.985 563.566 343.796C558.973 347.425 554.385 350.845 549.802 354.055C541.131 360.17 532.066 365.705 522.665 370.625C487.098 389.071 454.69 392.561 433.876 376.724Z" fill="#B6B3F5"/>
<path d="M435.479 374.601C434.2 373.628 432.974 372.587 431.807 371.482H433.186V242.608H432.609C434.851 237.283 437.29 231.91 439.925 226.488C450.457 204.823 464.097 182.569 480.601 160.87C488.851 150.02 497.428 139.825 506.198 130.348C508.39 127.979 510.595 125.655 512.813 123.376C513.917 122.239 515.026 121.112 516.142 119.995C516.698 119.438 517.255 118.881 517.812 118.33V119.672H568.801V336.585H570.244C567.978 338.477 565.713 340.32 563.447 342.112C558.918 345.695 554.393 349.068 549.871 352.232C541.316 358.265 532.372 363.727 523.097 368.58C488.003 386.784 456.025 390.225 435.479 374.601Z" fill="#B7B4F4"/>
<path d="M437.096 372.474C435.834 371.516 434.624 370.49 433.473 369.402C432.896 368.859 432.336 368.3 431.791 367.729H433.187V246.188H432.633C433.164 244.882 433.706 243.572 434.258 242.259C436.467 237.006 438.871 231.706 441.47 226.358C451.855 204.984 465.316 183.03 481.592 161.625C489.733 150.922 498.191 140.854 506.846 131.516C511.173 126.843 515.541 122.349 519.951 118.035V119.662H568.803V334.974H570.041C567.808 336.842 565.573 338.659 563.336 340.427C558.865 343.961 554.399 347.291 549.939 350.414C541.499 356.365 532.675 361.752 523.526 366.54C488.911 384.492 457.365 387.891 437.096 372.474Z" fill="#B8B4F4"/>
<path d="M438.711 370.351C436.221 368.459 433.941 366.307 431.908 363.932H433.186V249.646H432.782C433.779 247.085 434.821 244.509 435.909 241.918C438.09 236.737 440.463 231.509 443.026 226.233C453.273 205.154 466.543 183.503 482.6 162.389C490.629 151.833 498.972 141.907 507.505 132.693C511.775 128.077 516.085 123.645 520.435 119.396V119.662H568.802V333.364H569.835C567.635 335.205 565.431 336.997 563.223 338.742C558.815 342.226 554.411 345.509 550.01 348.59C541.687 354.461 532.985 359.775 523.96 364.497C489.815 382.204 458.7 385.554 438.711 370.351Z" fill="#B9B5F3"/>
<path d="M440.323 368.228C437.87 366.361 435.623 364.239 433.618 361.898C433.114 361.321 432.626 360.716 432.153 360.101H433.186V256.743H431.686C435.409 246.304 439.715 236.082 444.581 226.124C454.678 205.339 467.772 183.985 483.604 163.165C491.523 152.757 499.759 142.972 508.165 133.882C512.373 129.335 516.623 124.965 520.913 120.77C521.986 119.724 523.06 118.687 524.133 117.66V119.68H568.801V331.749H569.629C567.456 333.563 565.283 335.33 563.11 337.051C558.759 340.486 554.416 343.724 550.079 346.765C541.875 352.553 533.298 357.792 524.404 362.449C490.721 379.926 460.038 383.22 440.323 368.228Z" fill="#BAB5F3"/>
<path d="M441.953 366.106C439.526 364.266 437.302 362.175 435.318 359.866C434.329 358.712 433.395 357.504 432.514 356.242H433.177V259.852H432.145C432.556 258.63 432.98 257.406 433.417 256.179C437.091 245.888 441.337 235.81 446.136 225.992C456.1 205.51 469.001 184.451 484.611 163.92C492.4 153.658 500.529 144.014 508.826 135.048C512.975 130.565 517.164 126.256 521.395 122.121C522.451 121.088 523.509 120.066 524.569 119.055V119.663H568.802V330.146H569.422C567.281 331.937 565.139 333.679 562.995 335.374C558.708 338.764 554.426 341.956 550.148 344.948C542.056 350.656 533.596 355.822 524.823 360.414C491.627 377.619 461.376 380.887 441.953 366.106Z" fill="#BBB6F2"/>
<path d="M443.554 363.981C438.754 360.298 434.765 355.664 431.836 350.37H433.186V262.839H432.722C433.491 260.454 434.302 258.05 435.156 255.627C438.777 245.484 442.962 235.552 447.691 225.876C457.514 205.682 470.224 184.911 485.618 164.686C493.309 154.569 501.305 145.069 509.484 136.224C513.575 131.801 517.705 127.553 521.874 123.482C522.915 122.462 523.958 121.455 525.004 120.458C525.526 119.959 526.049 119.466 526.571 118.973V119.662H568.802V328.524H569.217C567.102 330.289 564.986 332.007 562.871 333.676C558.64 337.017 554.419 340.163 550.209 343.115C542.233 348.741 533.893 353.834 525.244 358.359C492.53 375.339 462.724 378.549 443.554 363.981Z" fill="#BCB7F2"/>
<path d="M445.169 361.859C440.442 358.227 436.514 353.661 433.63 348.444C432.882 347.117 432.187 345.741 431.547 344.316H433.194V269.181H432.375C433.692 264.565 435.199 259.862 436.895 255.071C440.462 245.073 444.585 235.283 449.245 225.747C458.924 205.841 471.458 185.388 486.621 165.454C494.202 155.484 502.084 146.125 510.144 137.404C514.183 133.052 518.252 128.866 522.353 124.847C524.407 122.839 526.466 120.874 528.532 118.953V119.666H568.801V326.926H569.012C566.929 328.657 564.847 330.349 562.766 332.003C558.6 335.296 554.441 338.397 550.286 341.307C542.425 346.851 534.206 351.869 525.682 356.328C493.435 373.052 464.05 376.216 445.169 361.859Z" fill="#BDB7F1"/>
<path d="M446.786 359.73C442.124 356.154 438.251 351.654 435.408 346.512C433.902 343.821 432.634 341.005 431.617 338.094H433.187V275.205H432.37C432.926 272.966 433.529 270.708 434.179 268.431C435.479 263.873 436.964 259.238 438.633 254.526C442.148 244.677 446.21 235.031 450.801 225.635C460.339 206.018 472.688 185.87 487.629 166.225C495.098 156.402 502.864 147.167 510.806 138.588C514.775 134.299 518.785 130.175 522.835 126.215C524.857 124.236 526.886 122.301 528.922 120.411C529.43 119.938 529.941 119.467 530.449 119V119.672H568.817V325.314C566.769 327.028 564.717 328.695 562.663 330.317C558.561 333.559 554.463 336.614 550.368 339.482C542.626 344.944 534.53 349.889 526.136 354.284C494.342 370.762 465.387 373.88 446.786 359.73Z" fill="#BEB8F1"/>
<path d="M448.402 357.609C443.81 354.087 439.994 349.656 437.192 344.593C435.711 341.942 434.462 339.168 433.459 336.302C432.939 334.829 432.47 333.312 432.051 331.753H433.187V280.87H432.697C439.978 246.373 459.2 205.683 488.634 166.98C495.993 157.304 503.635 148.208 511.464 139.756C515.376 135.525 519.326 131.462 523.315 127.567C525.31 125.621 527.309 123.715 529.313 121.85C530.313 120.917 531.316 119.996 532.322 119.086V119.663H568.803V322.432H570.116L568.598 323.707C566.579 325.393 564.56 327.036 562.54 328.634C558.501 331.83 554.463 334.84 550.424 337.664C542.795 343.041 534.818 347.908 526.546 352.232C495.249 368.476 466.726 371.56 448.402 357.609Z" fill="#BFB8F0"/>
<path d="M450.031 355.486C441.007 348.623 435.347 338.224 432.84 325.294H433.201V304.122H431.418C431.784 295.977 432.836 287.878 434.562 279.91C441.734 245.935 460.664 205.862 489.663 167.745C504.156 148.685 519.795 131.918 535.661 117.918V119.649H568.837V320.84H569.919C569.422 321.261 568.925 321.679 568.427 322.095C566.425 323.76 564.424 325.378 562.424 326.95C558.443 330.096 554.466 333.06 550.495 335.841C542.982 341.145 535.125 345.946 526.978 350.213C496.154 366.189 468.064 369.212 450.031 355.486Z" fill="#C0B9F0"/>
<path d="M451.63 353.362C442.747 346.606 437.174 336.364 434.704 323.631C432.235 310.897 432.873 295.688 436.404 278.956C443.463 245.492 462.102 206.048 490.638 168.516C504.91 149.751 520.309 133.241 535.93 119.457V119.671H568.803V319.249H569.668C569.178 319.664 568.687 320.074 568.2 320.483C566.24 322.122 564.28 323.715 562.321 325.264C558.401 328.362 554.486 331.28 550.576 334.019C543.178 339.236 535.442 343.958 527.42 348.155C497.054 363.897 469.4 366.877 451.63 353.362Z" fill="#C1BAEF"/>
<path d="M453.246 351.24C435.755 337.938 431.306 310.919 438.244 277.988C445.182 245.058 463.541 206.219 491.64 169.273C505.689 150.811 520.843 134.549 536.222 120.981C537.183 120.133 538.145 119.296 539.107 118.469V119.663H568.803V317.66H569.426C568.944 318.067 568.463 318.474 567.984 318.875C566.061 320.488 564.133 322.057 562.2 323.58C558.34 326.63 554.486 329.504 550.637 332.2C543.356 337.337 535.743 341.986 527.847 346.116C497.963 361.611 470.739 364.542 453.246 351.24Z" fill="#C2BAEF"/>
<path d="M454.86 349.114C437.647 336.023 433.27 309.431 440.107 277.025C446.944 244.62 465.003 206.396 492.655 170.036C506.481 151.861 521.396 135.865 536.53 122.511C537.476 121.674 538.423 120.849 539.371 120.036C539.845 119.628 540.319 119.224 540.794 118.824V119.661H568.802V314.854H570.617C569.669 315.668 568.721 316.471 567.773 317.263C565.874 318.85 563.976 320.393 562.078 321.893C558.281 324.895 554.489 327.722 550.7 330.374C543.533 335.43 536.039 340.006 528.268 344.072C498.868 359.321 472.074 362.206 454.86 349.114Z" fill="#C3BBEE"/>
<path d="M456.477 346.993C439.54 334.112 435.233 307.949 441.954 276.072C448.676 244.195 466.447 206.579 493.653 170.808C507.255 152.922 521.925 137.188 536.822 124.047C538.684 122.407 540.547 120.806 542.413 119.244V119.668H568.795V313.286H570.358C569.425 314.088 568.493 314.879 567.56 315.658C565.7 317.217 563.835 318.735 561.963 320.21C558.226 323.164 554.495 325.946 550.77 328.556C543.718 333.529 536.345 338.031 528.698 342.031C499.775 357.035 473.413 359.873 456.477 346.993Z" fill="#C4BBEE"/>
<path d="M458.091 344.867C441.431 332.2 437.196 306.467 443.813 275.106C450.431 243.745 467.916 206.753 494.664 171.567C508.044 153.969 522.48 138.498 537.126 125.574C538.957 123.958 540.791 122.383 542.628 120.848C543.545 120.079 544.463 119.322 545.383 118.578V119.663H568.802V311.712H570.114C569.197 312.502 568.279 313.28 567.362 314.045C565.527 315.584 563.691 317.077 561.852 318.526C558.177 321.432 554.506 324.167 550.841 326.733C543.906 331.627 536.653 336.055 529.132 339.989C500.679 354.745 474.75 357.537 458.091 344.867Z" fill="#C5BCEE"/>
<path d="M459.707 342.743C443.324 330.287 439.158 304.984 445.666 274.145C452.174 243.306 469.359 206.929 495.672 172.331C508.83 155.022 523.023 139.813 537.424 127.105C541.024 123.93 544.633 120.913 548.251 118.053V119.662H568.802V310.142H569.864C568.96 310.911 568.058 311.676 567.158 312.435C565.352 313.945 563.545 315.413 561.737 316.84C558.125 319.696 554.517 322.389 550.911 324.918C544.09 329.729 536.959 334.083 529.563 337.952C501.583 352.457 476.087 355.203 459.707 342.743Z" fill="#C6BDED"/>
<path d="M461.322 340.62C445.216 328.374 441.128 303.498 447.521 273.184C453.914 242.87 470.802 207.124 496.676 173.083C509.611 156.063 523.565 141.117 537.721 128.625C541.26 125.5 544.808 122.533 548.366 119.726C549.254 119.024 550.143 118.331 551.032 117.648V119.651H568.802V308.569H569.61C568.725 309.339 567.839 310.091 566.95 310.825C565.177 312.308 563.402 313.75 561.625 315.152C558.07 317.962 554.522 320.608 550.98 323.089C544.275 327.817 537.265 332.097 529.995 335.9C502.489 350.168 477.437 352.869 461.322 340.62Z" fill="#C8BDED"/>
<path d="M462.935 338.497C431.28 314.44 446.841 240.716 497.683 173.86C510.393 157.148 524.105 142.444 538.021 130.169C541.497 127.092 544.983 124.176 548.482 121.422C549.353 120.734 550.225 120.054 551.098 119.383V119.671H568.802V307H569.359C568.488 307.747 567.617 308.485 566.746 309.216C564.999 310.674 563.254 312.092 561.51 313.471C558.019 316.233 554.532 318.829 551.049 321.26C544.46 325.909 537.571 330.115 530.426 333.852C503.4 347.881 478.761 350.533 462.935 338.497Z" fill="#C9BEEC"/>
<path d="M464.55 336.364C433.454 312.709 448.738 240.3 498.689 174.615C511.174 158.195 524.652 143.747 538.318 131.689C541.733 128.675 545.158 125.811 548.593 123.098C550.311 121.752 552.025 120.435 553.737 119.148V119.653H568.801V305.428H569.107C568.25 306.162 567.393 306.888 566.537 307.606C564.833 309.036 563.115 310.43 561.385 311.786C557.954 314.497 554.528 317.051 551.109 319.448C544.635 324.014 537.866 328.147 530.846 331.818C504.3 345.596 480.099 348.192 464.55 336.364Z" fill="#CABEEC"/>
<path d="M466.166 334.25C435.624 311.022 450.634 239.899 499.693 175.392C511.959 159.265 525.189 145.078 538.615 133.233C541.973 130.273 545.339 127.46 548.712 124.795C550.397 123.462 552.081 122.168 553.763 120.915C554.606 120.288 555.447 119.67 556.288 119.062V119.665H568.805V303.856H568.857C568.018 304.581 567.178 305.294 566.335 305.996C564.649 307.395 562.964 308.767 561.281 310.113C557.912 312.777 554.546 315.286 551.184 317.64C544.824 322.123 538.174 326.182 531.279 329.791C505.206 343.303 481.438 345.862 466.166 334.25Z" fill="#CBBFEB"/>
<path d="M467.781 332.127C437.793 309.319 452.532 239.489 500.7 176.156C512.741 160.321 525.731 146.393 538.912 134.761C545.222 129.171 551.839 123.939 558.734 119.088V119.665H568.802V301.216H569.84L568.597 302.286C567.772 302.996 566.946 303.696 566.119 304.386C564.469 305.765 562.816 307.111 561.16 308.425C557.854 311.042 554.551 313.505 551.25 315.813C545.008 320.217 538.48 324.203 531.711 327.745C506.109 341.015 482.773 343.528 467.781 332.127Z" fill="#CCBFEB"/>
<path d="M469.396 330.001C439.971 307.62 454.43 239.083 501.706 176.92C513.534 161.38 526.276 147.709 539.209 136.293C545.401 130.806 551.895 125.67 558.661 120.909C559.469 120.343 560.277 119.786 561.085 119.238V119.662H568.799V298.602H570.775C557.836 310.015 544.713 319.174 532.147 325.694C507.014 338.728 484.112 341.194 469.396 330.001Z" fill="#CDC0EA"/>
<path d="M471.013 327.877C442.135 305.918 456.326 238.673 502.711 177.699C514.305 162.45 526.817 149.038 539.51 137.836C545.586 132.455 551.958 127.417 558.596 122.746C560.183 121.634 561.766 120.56 563.347 119.523V119.676H568.803V297.093H570.482C557.788 308.292 544.91 317.287 532.581 323.674C507.921 336.439 485.448 338.857 471.013 327.877Z" fill="#CEC1EA"/>
<path d="M472.624 325.754C444.304 304.216 458.223 238.28 503.714 178.449C515.089 163.494 527.369 150.339 539.806 139.354C545.766 134.076 552.015 129.134 558.525 124.552C561.637 122.373 564.735 120.342 567.817 118.459V119.662H568.801V295.538H570.183C557.732 306.524 545.102 315.337 533.009 321.609C508.826 334.149 486.786 336.523 472.624 325.754Z" fill="#CFC1E9"/>
<path d="M474.24 323.63C446.477 302.513 460.128 237.856 504.721 179.213C515.871 164.552 527.898 151.654 540.104 140.885C545.947 135.71 552.074 130.866 558.457 126.374C561.509 124.238 564.546 122.246 567.567 120.4C568.323 119.938 569.076 119.487 569.826 119.047L568.802 119.661V294.006H569.884C557.681 304.775 545.299 313.415 533.443 319.565C509.747 331.861 488.125 334.189 474.24 323.63Z" fill="#D0C2E9"/>
<path d="M475.856 321.508C448.646 300.815 462.009 237.45 505.725 179.979C516.653 165.609 528.441 152.971 540.401 142.418C546.128 137.347 552.133 132.599 558.388 128.196C561.379 126.102 564.355 124.15 567.316 122.343C568.055 121.889 568.793 121.446 569.532 121.016H568.802V292.475H569.587C557.626 303.031 545.493 311.498 533.873 317.524C510.635 329.574 489.461 331.853 475.856 321.508Z" fill="#D1C2E8"/>
<path d="M477.472 319.384C450.816 299.113 463.913 237.04 506.732 180.742C517.435 166.667 528.983 154.286 540.701 143.949C546.31 138.98 552.191 134.328 558.319 130.016C561.248 127.956 564.164 126.045 567.066 124.283C567.789 123.839 568.512 123.406 569.235 122.982H568.802V290.946H569.29C557.572 301.282 545.686 309.579 534.306 315.481C511.541 327.286 490.8 329.519 477.472 319.384Z" fill="#D2C3E8"/>
<path d="M479.087 317.259C452.988 297.42 465.814 236.633 507.728 181.507C518.208 167.726 529.517 155.601 540.99 145.479C546.484 140.611 552.247 136.055 558.25 131.83C561.117 129.819 563.972 127.946 566.815 126.214C567.525 125.781 568.232 125.357 568.938 124.941H568.803V289.405H568.993C557.52 299.528 545.88 307.649 534.736 313.43C512.447 324.998 492.15 327.185 479.087 317.259Z" fill="#D3C3E8"/>
<path d="M480.702 315.136C455.157 295.709 467.72 236.224 508.743 182.272C519.001 168.786 530.067 156.929 541.295 147.011C546.67 142.25 552.307 137.792 558.18 133.66C560.988 131.694 563.781 129.862 566.56 128.164C567.951 127.316 569.335 126.504 570.712 125.727H568.802V286.002H570.798C570.098 286.636 569.396 287.263 568.692 287.883C557.464 297.789 546.072 305.74 535.168 311.397C513.352 322.708 493.473 324.849 480.702 315.136Z" fill="#D4C4E7"/>
<path d="M482.318 313.011C457.327 294.006 469.625 235.816 509.747 183.035C519.783 169.84 530.61 158.226 541.592 148.541C546.851 143.883 552.365 139.523 558.111 135.482C560.857 133.559 563.59 131.766 566.31 130.105C567.667 129.276 569.02 128.48 570.369 127.719H568.802V284.512H570.452C569.77 285.131 569.084 285.744 568.395 286.35C557.41 296.043 546.269 303.82 535.598 309.353C514.259 320.419 494.812 322.517 482.318 313.011Z" fill="#D5C5E7"/>
<path d="M483.93 310.889C459.498 292.308 471.505 235.407 510.759 183.801C520.567 170.9 531.154 159.551 541.897 150.074C547.04 145.518 552.433 141.255 558.052 137.303C560.745 135.422 563.417 133.67 566.069 132.047C567.398 131.235 568.722 130.457 570.039 129.713H568.813V283.021H570.12C569.45 283.627 568.777 284.226 568.1 284.819C557.36 294.295 546.464 301.9 536.03 307.32C515.161 318.133 496.147 320.181 483.93 310.889Z" fill="#D6C5E6"/>
<path d="M485.546 308.766C461.669 290.606 473.398 235.001 511.766 184.566C521.353 171.959 531.698 160.867 542.196 151.607C547.22 147.155 552.489 142.988 557.979 139.124C560.604 137.287 563.215 135.576 565.814 133.989C567.112 133.197 568.404 132.436 569.691 131.707H568.808V281.531H569.772C569.118 282.125 568.463 282.711 567.807 283.29C557.309 292.551 546.661 299.982 536.466 305.27C516.068 315.846 497.487 317.845 485.546 308.766Z" fill="#D7C6E6"/>
<path d="M487.162 306.65C463.839 288.911 475.303 234.598 512.765 185.337C522.132 173.021 532.235 162.189 542.479 153.142C547.387 148.796 552.534 144.727 557.895 140.954C560.457 139.156 563.008 137.482 565.549 135.934C566.816 135.165 568.079 134.422 569.337 133.707H568.794V280.04H569.415C568.776 280.617 568.137 281.194 567.496 281.771C557.244 290.818 546.841 298.076 536.882 303.24C516.974 313.553 498.823 315.509 487.162 306.65Z" fill="#D8C6E5"/>
<path d="M488.776 304.515C466.009 287.206 477.199 234.183 513.77 186.093C522.912 174.072 532.776 163.496 542.783 154.666C547.575 150.423 552.599 146.45 557.833 142.766C560.333 141.014 562.824 139.379 565.305 137.862C566.538 137.11 567.771 136.388 569.003 135.695H568.801V278.549H569.09C568.467 279.115 567.842 279.673 567.215 280.225C557.207 289.056 547.056 296.141 537.334 301.183C517.878 311.266 500.16 313.176 488.776 304.515Z" fill="#D9C7E5"/>
<path d="M490.392 302.393C468.179 285.502 479.095 233.775 514.775 186.859C523.695 175.132 533.319 164.813 543.084 156.199C547.757 152.058 552.658 148.182 557.765 144.59C560.205 142.88 562.634 141.287 565.052 139.81C566.259 139.071 567.462 138.365 568.661 137.69C569.261 137.351 569.858 137.02 570.452 136.697H568.802V275.385H570.562C569.344 276.516 568.126 277.619 566.907 278.694C557.141 287.323 547.249 294.223 537.753 299.151C518.785 308.979 501.499 310.84 490.392 302.393Z" fill="#DAC7E4"/>
<path d="M492.007 300.27C470.348 283.801 480.993 233.377 515.781 187.623C523.978 176.778 533.222 166.765 543.381 157.731C547.938 153.694 552.717 149.915 557.695 146.411C560.076 144.743 562.444 143.19 564.8 141.752C565.977 141.032 567.151 140.343 568.32 139.683C568.897 139.354 569.479 139.032 570.065 138.717H568.802V273.937H570.172C568.987 275.039 567.8 276.115 566.609 277.165C557.089 285.563 547.431 292.305 538.185 297.1C519.687 306.692 502.823 308.506 492.007 300.27Z" fill="#DBC8E4"/>
<path d="M493.623 298.146C472.521 282.098 482.892 232.949 516.786 188.39C524.774 177.82 533.781 168.061 543.678 159.253C548.123 155.323 552.782 151.643 557.635 148.23C559.954 146.607 562.262 145.094 564.559 143.692C565.712 142.992 566.855 142.319 567.986 141.673C568.563 141.353 569.122 141.038 569.691 140.732H568.825V272.488H569.806C568.652 273.561 567.498 274.61 566.344 275.633C557.067 283.817 547.656 290.383 538.65 295.056C520.594 304.403 504.173 306.169 493.623 298.146Z" fill="#DCC9E3"/>
<path d="M495.237 296.023C474.691 280.396 484.791 232.557 517.793 189.154C525.57 178.865 534.34 169.365 543.976 160.791C548.299 156.961 552.834 153.377 557.558 150.053C559.815 148.469 562.063 146.995 564.299 145.631C565.415 144.95 566.527 144.296 567.637 143.669C568.191 143.358 568.742 143.052 569.296 142.752H568.803V271.04H569.38C568.264 272.086 567.138 273.107 566.001 274.101C556.983 282.069 547.827 288.476 539.046 293.014C521.5 302.113 505.512 303.835 495.237 296.023Z" fill="#DDC9E3"/>
<path d="M496.853 293.901C476.861 278.698 486.686 232.143 518.797 189.92C534.846 168.806 553.441 152.775 570.514 143.922H568.803V269.594H569.005C567.913 270.609 566.816 271.601 565.716 272.571C556.929 280.325 548.015 286.548 539.464 290.973C522.406 299.827 506.863 301.503 496.853 293.901Z" fill="#DECAE3"/>
<path d="M498.468 291.778C479.033 276.996 488.585 231.736 519.816 190.685C535.423 170.159 553.485 154.572 570.081 145.967H568.803V266.645H570.208C569.677 267.151 569.146 267.651 568.615 268.145C567.554 269.132 566.488 270.093 565.419 271.03C556.874 278.571 548.208 284.617 539.908 288.916C523.306 297.539 508.187 299.166 498.468 291.778Z" fill="#DFCAE2"/>
<path d="M500.082 289.651C481.201 275.293 490.481 231.325 520.806 191.448C535.972 171.509 553.526 156.369 569.649 148.006H568.801V265.237H569.773C569.256 265.729 568.74 266.21 568.224 266.679C567.192 267.641 566.157 268.579 565.12 269.495C556.821 276.816 548.388 282.693 540.34 286.873C524.213 295.25 509.521 296.843 500.082 289.651Z" fill="#E0CBE2"/>
<path d="M501.699 287.528C483.372 273.592 492.381 230.919 521.815 192.213C536.527 172.862 553.571 158.173 569.221 150.049H568.803V263.832H569.34C568.84 264.308 568.338 264.781 567.837 265.246C566.835 266.179 565.83 267.089 564.822 267.978C556.767 275.086 548.595 280.789 540.771 284.845C525.121 292.96 510.861 294.498 501.699 287.528Z" fill="#E1CBE1"/>
<path d="M503.314 285.403C485.543 271.891 494.275 230.508 522.821 192.988C537.092 174.236 553.613 159.971 568.788 152.101C569.265 151.855 569.738 151.616 570.207 151.383H568.802V261.035H570.354C568.431 262.924 566.487 264.731 564.524 266.456C556.715 273.348 548.79 278.878 541.2 282.813C526.026 290.671 512.199 292.16 503.314 285.403Z" fill="#E2CCE1"/>
<path d="M504.925 283.284C487.711 270.189 496.187 230.102 523.824 193.741C537.651 175.567 553.656 161.757 568.357 154.133C568.817 153.894 569.274 153.663 569.73 153.438H568.801V259.663H569.874C568.003 261.494 566.12 263.244 564.226 264.913C556.659 271.591 548.979 276.937 541.632 280.759C526.931 288.384 513.534 289.826 504.925 283.284Z" fill="#E3CCE0"/>
<path d="M506.543 281.158C489.886 268.488 498.073 229.693 524.832 194.507C538.212 176.909 553.701 163.552 567.926 156.176C568.818 155.714 569.703 155.277 570.58 154.863H568.803V258.302H569.38C567.572 260.073 565.751 261.767 563.916 263.385C556.592 269.844 549.163 275.028 542.049 278.718C527.838 286.097 514.874 287.493 506.543 281.158Z" fill="#E4CDE0"/>
<path d="M508.157 279.035C492.054 266.786 499.967 229.286 525.835 195.271C538.768 178.251 553.743 165.35 567.495 158.219C568.354 157.77 569.209 157.347 570.059 156.949H568.802V256.94H568.914C567.162 258.652 565.401 260.287 563.632 261.844C556.553 268.09 549.369 273.095 542.495 276.667C528.74 283.81 516.208 285.157 508.157 279.035Z" fill="#E5CEDF"/>
<path d="M509.772 276.908C494.223 265.081 501.865 228.876 526.841 196.035C539.327 179.615 553.786 167.146 567.065 160.263C567.892 159.832 568.716 159.424 569.537 159.037H568.801V254.323H569.698C569.277 254.747 568.856 255.162 568.435 255.578C566.744 257.232 565.043 258.813 563.332 260.321C556.497 266.35 549.557 271.191 542.921 274.629C529.651 281.518 517.535 282.822 509.772 276.908Z" fill="#E6CEDF"/>
<path d="M511.388 274.784C496.387 263.383 503.764 228.468 527.832 196.799C539.873 180.967 553.816 168.943 566.618 162.302C567.42 161.887 568.216 161.492 569.004 161.119H568.788V251.772H570.374C569.567 252.603 568.755 253.417 567.94 254.215C566.311 255.808 564.676 257.332 563.035 258.788C556.444 264.604 549.765 269.268 543.358 272.589C530.552 279.244 518.886 280.488 511.388 274.784Z" fill="#E7CFDF"/>
<path d="M513.004 272.662C498.58 261.682 505.663 228.06 528.854 197.564C540.448 182.315 553.885 170.738 566.204 164.345C567.742 163.547 569.264 162.83 570.77 162.193H568.803V250.501H569.821C569.042 251.303 568.26 252.087 567.476 252.855C565.906 254.393 564.327 255.861 562.739 257.257C556.392 262.859 549.953 267.354 543.788 270.547C531.459 276.937 520.222 278.152 513.004 272.662Z" fill="#E8CFDE"/>
<path d="M514.619 270.538C500.734 259.979 507.557 227.652 529.857 198.328C541.007 183.667 553.916 172.534 565.77 166.387C567.253 165.617 568.716 164.928 570.161 164.318H568.802V249.242H569.249C568.503 250.011 567.752 250.765 566.996 251.504C565.484 252.977 563.966 254.388 562.441 255.739C556.337 261.122 550.146 265.443 544.217 268.515C532.364 274.654 521.574 275.817 514.619 270.538Z" fill="#E9D0DE"/>
<path d="M516.232 268.416C502.907 258.279 509.459 227.244 530.864 199.094C541.567 185.022 553.96 174.333 565.341 168.431C566.762 167.692 568.167 167.03 569.555 166.443H568.802V246.841H569.751C569.394 247.216 569.036 247.591 568.675 247.96C567.956 248.698 567.235 249.423 566.512 250.132C565.064 251.548 563.606 252.903 562.138 254.197C556.282 259.367 550.337 263.512 544.648 266.463C533.27 272.366 522.896 273.476 516.232 268.416Z" fill="#EAD0DD"/>
<path d="M517.848 266.292C505.077 256.579 511.354 226.836 531.868 199.86C542.127 186.371 554.004 176.129 564.908 170.472C566.274 169.765 567.62 169.13 568.947 168.568H568.8V244.52H570.162C567.527 247.373 564.75 250.091 561.842 252.664C556.228 257.617 550.533 261.593 545.078 264.42C534.173 270.077 524.235 271.147 517.848 266.292Z" fill="#EBD1DD"/>
<path d="M519.463 264.169C507.246 254.877 513.252 226.426 532.875 200.624C542.683 187.721 554.047 177.924 564.478 172.515C565.782 171.838 567.07 171.231 568.341 170.694C568.978 170.426 569.607 170.175 570.233 169.941H568.791V243.343H569.495C566.975 246.072 564.319 248.672 561.536 251.132C556.164 255.872 550.718 259.674 545.502 262.383C535.079 267.789 525.573 268.813 519.463 264.169Z" fill="#ECD1DC"/>
<path d="M521.078 262.042C509.418 253.174 515.147 226.019 533.878 201.389C543.245 189.073 554.086 179.721 564.048 174.56C565.29 173.913 566.519 173.336 567.734 172.829C568.34 172.572 568.943 172.335 569.54 172.113H568.802V242.166H568.845C566.439 244.77 563.904 247.252 561.249 249.603C556.123 254.123 550.922 257.752 545.942 260.334C535.998 265.501 526.908 266.476 521.078 262.042Z" fill="#EDD2DC"/>
<path d="M522.693 259.917C511.587 251.47 517.045 225.607 534.885 202.151C543.804 190.421 554.129 181.516 563.615 176.597C565.836 175.43 568.152 174.451 570.538 173.672H568.807V239.033H569.961C569.384 239.697 568.795 240.349 568.193 240.989C565.903 243.471 563.488 245.835 560.958 248.072C556.076 252.379 551.123 255.835 546.381 258.295C536.889 263.214 528.247 264.143 522.693 259.917Z" fill="#EED2DC"/>
<path d="M524.31 257.797C513.758 249.775 518.945 225.199 535.893 202.919C544.366 191.775 554.174 183.302 563.186 178.643C565.293 177.535 567.49 176.606 569.752 175.865H568.794V237.952H569.198C568.641 238.583 568.081 239.204 567.519 239.813C565.342 242.17 563.048 244.415 560.645 246.541C556.009 250.631 551.304 253.917 546.798 256.254C537.797 260.924 529.584 261.81 524.31 257.797Z" fill="#EFD3DB"/>
<path d="M525.925 255.674C515.929 248.072 520.842 224.806 536.887 203.683C544.916 193.128 554.196 185.111 562.744 180.686C564.742 179.634 566.826 178.754 568.972 178.055H568.793V235.047H570.04C569.001 236.288 567.943 237.484 566.866 238.636C564.805 240.869 562.632 242.996 560.355 245.009C555.962 248.886 551.505 251.996 547.235 254.211C538.699 258.637 530.921 259.473 525.925 255.674Z" fill="#F0D4DB"/>
<path d="M527.538 253.549C518.113 246.357 522.729 224.386 537.903 204.446C545.484 194.476 554.26 186.907 562.323 182.726C564.21 181.733 566.178 180.901 568.205 180.24C568.678 180.09 569.149 179.951 569.613 179.83H568.802V234.065H569.192C568.211 235.234 567.217 236.363 566.209 237.452C564.261 239.56 562.208 241.57 560.058 243.472C555.907 247.136 551.692 250.073 547.668 252.164C539.605 256.347 532.249 257.138 527.538 253.549Z" fill="#F1D4DA"/>
<path d="M529.153 251.427C520.268 244.668 524.636 223.978 538.907 205.212C546.044 195.828 554.303 188.705 561.893 184.77C563.674 183.835 565.531 183.053 567.444 182.431C568.296 182.154 569.163 181.923 570.04 181.738H568.794V231.415H569.723C569.271 231.992 568.813 232.552 568.35 233.094C567.427 234.194 566.49 235.257 565.54 236.282C563.642 238.33 561.703 240.222 559.753 241.948C555.847 245.392 551.883 248.159 548.089 250.126C540.511 254.061 533.596 254.805 529.153 251.427Z" fill="#F2D5DA"/>
<path d="M530.769 249.301C522.441 242.969 526.534 223.569 539.914 205.971C546.604 197.175 554.338 190.494 561.461 186.807C563.127 185.931 564.864 185.198 566.654 184.615C567.461 184.355 568.282 184.138 569.112 183.963H568.806V228.917H570.081C556.698 246.512 539.098 255.636 530.769 249.301Z" fill="#F3D5D9"/>
<path d="M532.384 247.178C524.595 241.267 528.429 223.162 540.917 206.741C547.163 198.531 554.389 192.297 561.03 188.855C564.348 187.124 567.521 186.112 570.348 185.887H568.802V228.152H569.07C556.585 244.573 540.159 253.092 532.384 247.178Z" fill="#F4D6D9"/>
<path d="M533.999 245.055C526.787 239.574 530.326 222.756 541.923 207.506C547.722 199.885 554.432 194.095 560.597 190.896C563.681 189.297 566.626 188.348 569.251 188.141H568.801V224.515H570.146C569.482 225.476 568.79 226.437 568.066 227.4C556.48 242.635 541.217 250.545 533.999 245.055Z" fill="#F5D6D9"/>
<path d="M535.615 242.929C528.951 237.861 532.225 222.343 542.922 208.277C548.276 201.241 554.461 195.895 560.162 192.944C563.006 191.47 565.727 190.593 568.15 190.4C568.736 190.356 569.324 190.356 569.91 190.4H568.796V221.299H570.715C569.615 223.079 568.392 224.862 567.054 226.621C556.357 240.697 542.279 247.998 535.615 242.929Z" fill="#F5D7D8"/>
<path d="M537.228 240.808C531.12 236.16 534.124 221.938 543.935 209.034C548.839 202.584 554.519 197.685 559.735 194.979C562.346 193.629 564.838 192.824 567.06 192.648C568.101 192.552 569.151 192.625 570.17 192.865H568.802V220.972H569.411C568.401 222.605 567.282 224.237 566.056 225.85C556.244 238.76 543.338 245.452 537.228 240.808Z" fill="#F6D7D8"/>
<path d="M538.844 238.684C533.29 234.461 536.019 221.528 544.939 209.799C549.399 203.937 554.563 199.482 559.306 197.022C561.677 195.793 563.942 195.063 565.964 194.901C566.911 194.816 567.865 194.883 568.791 195.1C569.219 195.205 569.636 195.352 570.034 195.539H568.803V216.226H570.534C568.995 219.354 567.153 222.325 565.035 225.094C556.13 236.821 544.397 242.896 538.844 238.684Z" fill="#F7D8D7"/>
<path d="M540.458 236.55C535.461 232.751 537.916 221.114 545.939 210.558C553.962 200.002 564.526 194.524 569.522 198.326H568.796V216.357H568.983C567.6 219.173 565.944 221.846 564.038 224.339C556.016 234.886 545.457 240.361 540.458 236.55Z" fill="#F8D8D7"/>
<path d="M542.075 234.435C537.632 231.056 539.816 220.711 546.95 211.33C554.084 201.948 563.475 197.079 567.917 200.457C570.138 202.145 570.701 205.578 569.818 209.758C568.935 213.938 566.607 218.871 563.039 223.567C555.905 232.946 546.517 237.813 542.075 234.435Z" fill="#F9D9D7"/>
<path d="M562.028 222.783C568.271 214.572 570.181 205.52 566.294 202.564C562.407 199.609 554.195 203.868 547.951 212.079C541.708 220.289 539.798 229.341 543.685 232.297C547.572 235.253 555.784 230.993 562.028 222.783Z" fill="#FAD9D6"/>
<path d="M562.89 221.754C568.283 214.681 569.941 206.878 566.592 204.325C563.244 201.772 556.158 205.435 550.765 212.508C545.372 219.581 543.714 227.384 547.063 229.937C550.411 232.49 557.497 228.827 562.89 221.754Z" fill="#FBDAD6"/>
<path d="M560.016 221.253C564.476 215.389 565.84 208.924 563.064 206.812C560.288 204.701 554.422 207.744 549.963 213.608C545.504 219.473 544.139 225.938 546.915 228.049C549.691 230.16 555.557 227.117 560.016 221.253Z" fill="#FCDAD5"/>
<path d="M559.013 220.492C562.58 215.8 563.671 210.628 561.449 208.938C559.227 207.249 554.534 209.682 550.967 214.373C547.4 219.064 546.309 224.237 548.531 225.926C550.753 227.616 555.446 225.183 559.013 220.492Z" fill="#FDDBD5"/>
<path d="M558.007 219.724C560.683 216.205 561.502 212.325 559.836 211.058C558.169 209.79 554.649 211.616 551.973 215.135C549.296 218.655 548.478 222.535 550.144 223.802C551.811 225.069 555.331 223.244 558.007 219.724Z" fill="#FDDBD5"/>
<path d="M551.764 221.692C550.653 220.85 551.187 218.262 552.984 215.923C554.781 213.583 557.115 212.36 558.226 213.205C559.336 214.051 558.803 216.635 557.006 218.975C555.208 221.315 552.874 222.538 551.764 221.692Z" fill="#FEDCD4"/>
<path d="M553.38 219.568C552.823 219.147 553.091 217.855 553.988 216.684C554.886 215.512 556.054 214.904 556.611 215.325C557.167 215.746 556.899 217.056 555.999 218.21C555.099 219.364 553.934 219.993 553.38 219.568Z" fill="#FFDCD4"/>
</g>
<path d="M508.813 124.279H493.177C492.794 124.279 492.427 124.127 492.157 123.857C491.886 123.586 491.734 123.219 491.734 122.837C491.734 122.454 491.886 122.088 492.157 121.817C492.427 121.546 492.794 121.395 493.177 121.395H508.813C509.195 121.395 509.562 121.546 509.832 121.817C510.103 122.088 510.255 122.454 510.255 122.837C510.255 123.219 510.103 123.586 509.832 123.857C509.562 124.127 509.195 124.279 508.813 124.279Z" fill="url(#paint5_linear_42_5966)"/>
<path d="M519.168 124.629C520.16 123.638 520.16 122.03 519.168 121.039C518.177 120.047 516.57 120.047 515.578 121.039C514.587 122.03 514.587 123.638 515.578 124.629C516.57 125.62 518.177 125.62 519.168 124.629Z" fill="url(#paint6_linear_42_5966)"/>
<path d="M519.226 122.833C519.226 123.199 519.117 123.557 518.913 123.861C518.71 124.166 518.421 124.403 518.082 124.544C517.744 124.684 517.371 124.72 517.012 124.649C516.653 124.578 516.323 124.401 516.064 124.142C515.805 123.883 515.629 123.553 515.557 123.194C515.486 122.835 515.522 122.462 515.662 122.124C515.803 121.785 516.04 121.496 516.345 121.293C516.649 121.089 517.007 120.98 517.374 120.98C517.617 120.98 517.858 121.028 518.083 121.121C518.308 121.214 518.512 121.35 518.684 121.522C518.856 121.694 518.992 121.898 519.085 122.123C519.178 122.348 519.226 122.589 519.226 122.833Z" fill="url(#paint7_linear_42_5966)"/>
<path d="M518.904 122.834C518.904 123.136 518.814 123.432 518.646 123.683C518.478 123.935 518.239 124.13 517.96 124.246C517.68 124.362 517.373 124.392 517.076 124.333C516.78 124.274 516.507 124.129 516.294 123.915C516.08 123.701 515.934 123.429 515.875 123.132C515.816 122.835 515.846 122.528 515.962 122.249C516.078 121.969 516.274 121.73 516.525 121.562C516.777 121.394 517.072 121.305 517.375 121.305C517.78 121.305 518.169 121.466 518.456 121.753C518.743 122.039 518.904 122.428 518.904 122.834Z" fill="url(#paint8_radial_42_5966)"/>
<path d="M518.458 122.308C518.458 122.77 517.971 123.145 517.374 123.145C516.777 123.145 516.289 122.77 516.289 122.308C516.289 121.847 516.774 121.475 517.374 121.475C517.974 121.475 518.458 121.832 518.458 122.308Z" fill="url(#paint9_linear_42_5966)"/>
<path d="M577.461 140.656H574.986V143.339H577.461V140.656Z" fill="#353535"/>
<path d="M424.527 143.34H427.002V140.657H424.527V143.34Z" fill="#353535"/>
<path d="M577.461 387.746H574.986V390.429H577.461V387.746Z" fill="#353535"/>
<path d="M424.527 390.428H427.002V387.745H424.527V390.428Z" fill="#353535"/>
<path d="M508.813 124.053H493.177C492.812 124.055 492.461 123.918 492.194 123.67C491.926 123.423 491.762 123.084 491.734 122.721C491.734 122.758 491.734 122.796 491.734 122.833C491.734 123.216 491.886 123.583 492.157 123.853C492.427 124.124 492.794 124.276 493.177 124.276H508.813C509.195 124.276 509.562 124.124 509.832 123.853C510.103 123.583 510.255 123.216 510.255 122.833C510.255 122.796 510.255 122.758 510.255 122.721C510.227 123.084 510.063 123.423 509.796 123.67C509.528 123.918 509.177 124.055 508.813 124.053Z" fill="#4E4E4E"/>
<path d="M554.499 115.629H447.492C442.631 115.634 437.971 117.567 434.534 121.004C431.096 124.441 429.162 129.101 429.156 133.962V135.24C429.162 130.379 431.096 125.719 434.534 122.282C437.971 118.845 442.631 116.912 447.492 116.907H554.499C559.36 116.912 564.02 118.845 567.458 122.282C570.895 125.719 572.829 130.379 572.835 135.24V133.962C572.829 129.101 570.895 124.441 567.458 121.004C564.02 117.567 559.36 115.634 554.499 115.629Z" fill="url(#paint10_linear_42_5966)"/>
<path d="M551 117H451C441.059 117 433 125.059 433 135V397C433 406.941 441.059 415 451 415H551C560.941 415 569 406.941 569 397V135C569 125.059 560.941 117 551 117Z" fill="url(#paint11_linear_42_5966)"/>
<path d="M533.887 198.704L559.058 187.077C561.192 186.092 563.709 186.996 564.679 189.096L570.983 202.743L586.119 162.611L545.751 148.116L552.055 161.764C553.025 163.864 552.081 166.367 549.947 167.352C549.831 167.406 549.716 167.452 549.599 167.495L474.742 202.076C460.341 209.031 449.988 221.054 444.898 234.926C439.823 248.757 439.994 264.436 446.617 278.774C448.876 283.664 451.716 288.062 455.014 291.925C458.441 295.938 462.375 299.41 466.679 302.291C468.601 303.583 469.081 306.187 467.752 308.106C467.3 308.757 466.698 309.246 466.023 309.558L466.029 309.57L440.858 321.196C438.724 322.182 436.206 321.278 435.236 319.178L428.932 305.53L413.797 345.663L454.165 360.157L447.861 346.51C446.891 344.41 447.835 341.907 449.969 340.921C450.084 340.868 450.199 340.821 450.316 340.779L525.236 306.168C539.614 299.204 549.95 287.183 555.029 273.316C560.092 259.494 559.916 243.827 553.299 229.501C551.04 224.611 548.2 220.213 544.902 216.351C541.476 212.338 537.541 208.866 533.238 205.986C531.315 204.693 530.836 202.09 532.165 200.171C532.616 199.519 533.219 199.03 533.894 198.719L533.888 198.707L533.887 198.704ZM558.706 196.472L543.8 203.357C546.516 205.641 549.058 208.158 551.395 210.896C555.213 215.367 558.472 220.397 561.027 225.928C568.593 242.309 568.786 260.249 562.98 276.095C557.171 291.953 545.335 305.707 528.855 313.689L457.34 346.727L466.135 365.77C466.585 366.744 466.657 367.89 466.246 368.982C465.422 371.165 462.975 372.295 460.779 371.507L406.838 352.138C404.642 351.35 403.53 348.941 404.353 346.758L424.568 293.156C424.947 292.135 425.72 291.253 426.795 290.756C428.929 289.77 431.447 290.674 432.417 292.774L441.205 311.801L456.111 304.915C453.396 302.631 450.853 300.114 448.516 297.376C444.698 292.905 441.44 287.876 438.885 282.345C431.313 265.952 431.125 247.999 436.942 232.144C442.764 216.279 454.618 202.522 471.119 194.553L542.572 161.545L533.776 142.503C533.326 141.529 533.254 140.382 533.666 139.29C534.489 137.108 536.937 135.977 539.132 136.765L593.073 156.134C595.269 156.922 596.382 159.331 595.558 161.514L575.343 215.116C574.965 216.137 574.191 217.02 573.116 217.516C570.982 218.502 568.465 217.598 567.495 215.498L558.706 196.47L558.706 196.472Z" fill="#5484FF"/>
<path d="M487.724 282.3C491.242 283.514 493.073 287.335 491.813 290.836C490.555 294.335 486.682 296.189 483.164 294.975C482.703 294.818 482.245 294.652 481.793 294.481C470.677 290.264 462.349 282.16 457.802 272.315C453.255 262.471 452.483 250.875 456.479 239.679C456.642 239.224 456.813 238.767 456.992 238.314C461.541 226.775 470.379 217.973 480.988 213.072C491.599 208.171 504.029 207.149 515.765 211.167C516.225 211.324 516.683 211.49 517.135 211.661C528.251 215.878 536.579 223.982 541.126 233.827C545.674 243.671 546.445 255.267 542.449 266.463C542.287 266.92 542.116 267.375 541.937 267.827C540.58 271.293 536.659 273.039 533.177 271.729C529.697 270.418 527.973 266.547 529.329 263.082C529.462 262.743 529.59 262.403 529.71 262.067C532.465 254.347 531.926 246.339 528.78 239.53C525.634 232.719 519.885 227.117 512.224 224.21C511.889 224.083 511.548 223.96 511.204 223.842C505.223 221.795 498.951 221.628 493.073 223.024L505.635 250.221C507.19 253.586 505.686 257.59 502.277 259.164C498.868 260.739 494.845 259.288 493.29 255.923L480.728 228.726C475.854 232.296 471.915 237.18 469.596 243.062C469.463 243.4 469.336 243.74 469.215 244.076C466.46 251.796 467 259.804 470.145 266.614C473.291 273.424 479.039 279.027 486.702 281.933C487.037 282.061 487.377 282.182 487.721 282.301L487.724 282.3Z" fill="white"/>
<path d="M406.5 470C443.227 470 473 499.773 473 536.5C473 573.227 443.227 603 406.5 603C369.773 603 340 573.227 340 536.5C340 499.773 369.773 470 406.5 470Z" fill="url(#paint12_radial_42_5966)"/>
</g>
<defs>
<linearGradient id="paint0_linear_42_5966" x1="-10.3414" y1="15.6541" x2="1341.81" y2="435.043" gradientUnits="userSpaceOnUse">
<stop stop-color="#0A30A3"/>
<stop offset="0.563541" stop-color="#001447"/>
</linearGradient>
<linearGradient id="paint1_linear_42_5966" x1="342.259" y1="61.0375" x2="313.113" y2="85.2309" gradientUnits="userSpaceOnUse">
<stop offset="0.17" stop-color="#0A30A3"/>
<stop offset="1" stop-color="white"/>
</linearGradient>
<linearGradient id="paint2_linear_42_5966" x1="1160.5" y1="230" x2="1378.5" y2="17.5001" gradientUnits="userSpaceOnUse">
<stop stop-color="#0A30A3" stop-opacity="0.31"/>
<stop offset="1" stop-color="white" stop-opacity="0"/>
</linearGradient>
<radialGradient id="paint3_radial_42_5966" cx="0" cy="0" r="1" gradientUnits="userSpaceOnUse" gradientTransform="translate(775.351 167.087) rotate(121.375) scale(765.679)">
<stop stop-color="#5BC7CE"/>
<stop offset="0.11" stop-color="#4198C0"/>
<stop offset="0.23" stop-color="#296BB3"/>
<stop offset="0.34" stop-color="#184AAA"/>
<stop offset="0.43" stop-color="#0D37A5"/>
<stop offset="0.49" stop-color="#0A30A3"/>
<stop offset="1" stop-color="#00152A"/>
</radialGradient>
<linearGradient id="paint4_linear_42_5966" x1="628.961" y1="514.792" x2="498.521" y2="673.591" gradientUnits="userSpaceOnUse">
<stop offset="0.17" stop-color="#0A30A3"/>
<stop offset="1" stop-color="white"/>
</linearGradient>
<linearGradient id="paint5_linear_42_5966" x1="500.995" y1="121.389" x2="500.995" y2="124.279" gradientUnits="userSpaceOnUse">
<stop/>
<stop offset="0.29" stop-color="#030303"/>
<stop offset="0.53" stop-color="#0E0E0D"/>
<stop offset="0.75" stop-color="#1F1F1E"/>
<stop offset="0.96" stop-color="#373736"/>
<stop offset="1" stop-color="#3C3C3B"/>
</linearGradient>
<linearGradient id="paint6_linear_42_5966" x1="517.372" y1="120.295" x2="517.372" y2="125.372" gradientUnits="userSpaceOnUse">
<stop/>
<stop offset="0.29" stop-color="#030303"/>
<stop offset="0.53" stop-color="#0E0E0D"/>
<stop offset="0.75" stop-color="#1F1F1E"/>
<stop offset="0.96" stop-color="#373736"/>
<stop offset="1" stop-color="#3C3C3B"/>
</linearGradient>
<linearGradient id="paint7_linear_42_5966" x1="517.374" y1="119.402" x2="517.374" y2="125.484" gradientUnits="userSpaceOnUse">
<stop/>
<stop offset="0.08"/>
<stop offset="1"/>
</linearGradient>
<radialGradient id="paint8_radial_42_5966" cx="0" cy="0" r="1" gradientUnits="userSpaceOnUse" gradientTransform="translate(517.375 122.834) scale(1.3876)">
<stop stop-color="#009FE3"/>
<stop offset="1" stop-color="#112754"/>
</radialGradient>
<linearGradient id="paint9_linear_42_5966" x1="517.374" y1="120.699" x2="517.374" y2="123.191" gradientUnits="userSpaceOnUse">
<stop stop-color="white"/>
<stop offset="1" stop-color="#112754"/>
</linearGradient>
<linearGradient id="paint10_linear_42_5966" x1="500.994" y1="110.191" x2="500.994" y2="132.693" gradientUnits="userSpaceOnUse">
<stop stop-color="white"/>
<stop offset="1"/>
</linearGradient>
<linearGradient id="paint11_linear_42_5966" x1="433" y1="117" x2="592.155" y2="129.927" gradientUnits="userSpaceOnUse">
<stop stop-color="#0A30A3"/>
<stop offset="1" stop-color="#001447"/>
</linearGradient>
<radialGradient id="paint12_radial_42_5966" cx="0" cy="0" r="1" gradientUnits="userSpaceOnUse" gradientTransform="translate(479.024 655.769) scale(284.796)">
<stop stop-color="#E5C33F"/>
<stop offset="0.03" stop-color="#E6BC3D"/>
<stop offset="0.25" stop-color="#F39332"/>
<stop offset="0.42" stop-color="#FC7A2B"/>
<stop offset="0.53" stop-color="#FF7129"/>
<stop offset="0.99" stop-color="#C73A16"/>
</radialGradient>
<clipPath id="clip0_42_5966">
<rect width="1280" height="714" fill="white"/>
</clipPath>
</defs>
</svg>
