<svg width="1920" height="670" viewBox="0 0 1920 670" fill="none" xmlns="http://www.w3.org/2000/svg">
<g clip-path="url(#clip0_47_3939)">
<rect width="1920" height="670" fill="url(#paint0_linear_47_3939)"/>
<path opacity="0.94" d="M1787.53 899.682C1955.73 928.521 2115.45 815.558 2144.29 647.362C2173.13 479.165 2060.16 319.447 1891.97 290.607C1723.77 261.768 1564.05 374.731 1535.21 542.927C1506.37 711.124 1619.34 870.842 1787.53 899.682ZM1871.28 411.248C1972.84 428.662 2041.06 525.116 2023.65 626.676C2006.23 728.237 1909.78 796.455 1808.22 779.041C1706.66 761.627 1638.44 665.173 1655.85 563.613C1673.27 462.052 1769.72 393.834 1871.28 411.248Z" fill="url(#paint1_radial_47_3939)"/>
<rect y="4" width="1920" height="666" fill="#011855"/>
<path style="mix-blend-mode:overlay" d="M1914.27 -40.2805C1917.9 -36.6545 1917.9 -30.7745 1914.27 -27.1485L1488.85 398.269C1485.23 401.895 1479.35 401.895 1475.72 398.269C1472.09 394.643 1472.09 388.763 1475.72 385.137L1901.14 -40.2805C1904.76 -43.9065 1910.64 -43.9065 1914.27 -40.2805Z" fill="url(#paint2_linear_47_3939)"/>
<path d="M1176.86 142.909C1178.72 144.771 1181.74 144.771 1183.6 142.909C1185.46 141.047 1185.46 138.029 1183.6 136.167C1181.74 134.305 1178.72 134.305 1176.86 136.167C1175 138.029 1175 141.047 1176.86 142.909Z" fill="white" fill-opacity="0.3"/>
<path d="M1146.99 172.78C1148.85 174.642 1151.87 174.642 1153.73 172.78C1155.59 170.918 1155.59 167.9 1153.73 166.038C1151.87 164.176 1148.85 164.176 1146.99 166.038C1145.12 167.9 1145.12 170.918 1146.99 172.78Z" fill="white" fill-opacity="0.3"/>
<path d="M1117.12 202.631C1118.98 204.493 1122 204.493 1123.86 202.631C1125.72 200.769 1125.72 197.75 1123.86 195.888C1122 194.026 1118.98 194.026 1117.12 195.888C1115.26 197.75 1115.26 200.769 1117.12 202.631Z" fill="white" fill-opacity="0.3"/>
<path d="M1087.27 232.501C1089.13 234.363 1092.15 234.363 1094.01 232.501C1095.87 230.639 1095.87 227.621 1094.01 225.759C1092.15 223.897 1089.13 223.897 1087.27 225.759C1085.41 227.621 1085.41 230.639 1087.27 232.501Z" fill="white" fill-opacity="0.3"/>
<path d="M1064.14 255.629C1062.28 253.767 1059.26 253.767 1057.4 255.629C1055.53 257.491 1055.53 260.509 1057.4 262.371C1059.26 264.233 1062.28 264.233 1064.14 262.371C1066 260.509 1066 257.491 1064.14 255.629Z" fill="white" fill-opacity="0.3"/>
<path d="M1959.33 121.117C1962.16 123.939 1962.16 128.526 1959.33 131.368L1627.37 463.333C1624.55 466.155 1619.96 466.155 1617.12 463.333C1614.29 460.51 1614.29 455.924 1617.12 453.082L1949.08 121.117C1951.9 118.294 1956.49 118.294 1959.33 121.117Z" fill="url(#paint3_linear_47_3939)" style="mix-blend-mode:overlay"/>
<path d="M86.1389 531.858C84.2769 529.996 81.2585 529.996 79.3965 531.858C77.5345 533.72 77.5345 536.739 79.3965 538.601C81.2585 540.463 84.2769 540.463 86.1389 538.601C88.0009 536.739 88.0009 533.72 86.1389 531.858Z" fill="white"/>
<path d="M116.01 501.988C114.148 500.126 111.13 500.126 109.268 501.988C107.406 503.85 107.406 506.869 109.268 508.731C111.13 510.593 114.148 510.593 116.01 508.731C117.872 506.869 117.872 503.85 116.01 501.988Z" fill="white"/>
<path d="M145.858 472.118C143.996 470.256 140.977 470.256 139.115 472.118C137.253 473.98 137.253 476.998 139.115 478.86C140.977 480.722 143.996 480.722 145.858 478.86C147.72 476.998 147.72 473.98 145.858 472.118Z" fill="white"/>
<path d="M175.733 442.267C173.871 440.405 170.852 440.405 168.99 442.267C167.128 444.129 167.128 447.147 168.99 449.009C170.852 450.871 173.871 450.871 175.733 449.009C177.595 447.147 177.595 444.129 175.733 442.267Z" fill="white"/>
<path d="M198.857 419.139C200.719 421.001 203.738 421.001 205.6 419.139C207.462 417.277 207.462 414.258 205.6 412.396C203.738 410.534 200.719 410.534 198.857 412.396C196.995 414.258 196.995 417.277 198.857 419.139Z" fill="white"/>
<path d="M1898.33 532.117C1901.16 534.939 1901.16 539.526 1898.33 542.368L1566.37 874.333C1563.55 877.155 1558.96 877.155 1556.12 874.333C1553.29 871.51 1553.29 866.924 1556.12 864.082L1888.08 532.117C1890.9 529.294 1895.49 529.294 1898.33 532.117Z" fill="url(#paint4_linear_47_3939)" style="mix-blend-mode:overlay"/>
</g>
<defs>
<linearGradient id="paint0_linear_47_3939" x1="960" y1="0" x2="960" y2="670" gradientUnits="userSpaceOnUse">
<stop offset="0.729167" stop-color="#01164E"/>
<stop offset="1" stop-color="#092E9C"/>
</linearGradient>
<radialGradient id="paint1_radial_47_3939" cx="0" cy="0" r="1" gradientUnits="userSpaceOnUse" gradientTransform="translate(1755.06 841.788) rotate(-170.27) scale(641.084)">
<stop stop-color="#0A30A3"/>
<stop offset="1" stop-color="#00152A"/>
</radialGradient>
<linearGradient id="paint2_linear_47_3939" x1="1769.56" y1="88.2367" x2="1513.31" y2="400.19" gradientUnits="userSpaceOnUse">
<stop offset="0.17" stop-color="#0A30A3"/>
<stop offset="1" stop-color="white"/>
</linearGradient>
<linearGradient id="paint3_linear_47_3939" x1="1637.5" y1="465" x2="1855.5" y2="252.5" gradientUnits="userSpaceOnUse">
<stop stop-color="#0A30A3" stop-opacity="0.31"/>
<stop offset="1" stop-color="white" stop-opacity="0"/>
</linearGradient>
<linearGradient id="paint4_linear_47_3939" x1="1576.5" y1="876" x2="1794.5" y2="663.5" gradientUnits="userSpaceOnUse">
<stop stop-color="#0A30A3" stop-opacity="0.31"/>
<stop offset="1" stop-color="white" stop-opacity="0"/>
</linearGradient>
<clipPath id="clip0_47_3939">
<rect width="1920" height="670" fill="white"/>
</clipPath>
</defs>
</svg>
