<svg width="678" height="1024" viewBox="0 0 678 1024" fill="none" xmlns="http://www.w3.org/2000/svg">
<g clip-path="url(#clip0_47_7012)">
<rect width="678" height="1024" fill="#001447"/>
<path d="M692.373 1232.94C802.489 1251.82 907.055 1177.87 925.936 1067.75C944.817 957.633 870.861 853.067 760.745 834.186C650.628 815.305 546.062 889.261 527.181 999.378C508.3 1109.49 582.256 1214.06 692.373 1232.94ZM747.202 913.168C813.693 924.569 858.355 987.716 846.954 1054.21C835.553 1120.7 772.406 1165.36 705.915 1153.96C639.425 1142.56 594.763 1079.41 606.163 1012.92C617.564 946.43 680.711 901.767 747.202 913.168Z" fill="url(#paint0_radial_47_7012)"/>
<rect width="680" height="1024" fill="#011855"/>
<path style="mix-blend-mode:overlay" d="M946.269 292.719C949.895 296.345 949.895 302.226 946.269 305.852L520.852 731.269C517.226 734.895 511.345 734.895 507.719 731.269C504.094 727.643 504.094 721.763 507.719 718.137L933.137 292.719C936.763 289.094 942.643 289.094 946.269 292.719Z" fill="url(#paint1_linear_47_7012)"/>
<path d="M180.857 465.139C182.719 467.001 185.738 467.001 187.6 465.139C189.462 463.277 189.462 460.258 187.6 458.396C185.738 456.534 182.719 456.534 180.857 458.396C178.995 460.258 178.995 463.277 180.857 465.139Z" fill="white" fill-opacity="0.3"/>
<path d="M150.99 495.01C152.852 496.872 155.871 496.872 157.733 495.01C159.595 493.148 159.595 490.13 157.733 488.268C155.871 486.406 152.852 486.406 150.99 488.268C149.128 490.13 149.128 493.148 150.99 495.01Z" fill="white" fill-opacity="0.3"/>
<path d="M121.119 524.86C122.981 526.722 126 526.722 127.862 524.86C129.724 522.998 129.724 519.979 127.862 518.117C126 516.255 122.981 516.255 121.119 518.117C119.257 519.979 119.257 522.998 121.119 524.86Z" fill="white" fill-opacity="0.3"/>
<path d="M91.2676 554.731C93.1296 556.593 96.148 556.593 98.01 554.731C99.872 552.869 99.872 549.85 98.01 547.988C96.148 546.126 93.1296 546.126 91.2676 547.988C89.4056 549.85 89.4056 552.869 91.2676 554.731Z" fill="white" fill-opacity="0.3"/>
<path d="M68.1389 577.859C66.2769 575.997 63.2585 575.997 61.3965 577.859C59.5345 579.721 59.5345 582.74 61.3965 584.602C63.2585 586.464 66.2769 586.464 68.1389 584.602C70.0009 582.74 70.0009 579.721 68.1389 577.859Z" fill="white" fill-opacity="0.3"/>
<path d="M659.651 626.349C660.116 626.815 660.116 627.57 659.651 628.035L605.035 682.651C604.57 683.116 603.815 683.116 603.349 682.651C602.884 682.185 602.884 681.43 603.349 680.965L657.965 626.349C658.43 625.884 659.185 625.884 659.651 626.349Z" fill="url(#paint2_linear_47_7012)" style="mix-blend-mode:overlay"/>
</g>
<defs>
<radialGradient id="paint0_radial_47_7012" cx="0" cy="0" r="1" gradientUnits="userSpaceOnUse" gradientTransform="translate(671.113 1195.04) rotate(-170.27) scale(419.711)">
<stop stop-color="#0A30A3"/>
<stop offset="1" stop-color="#00152A"/>
</radialGradient>
<linearGradient id="paint1_linear_47_7012" x1="801.563" y1="421.237" x2="545.312" y2="733.19" gradientUnits="userSpaceOnUse">
<stop offset="0.17" stop-color="#0A30A3"/>
<stop offset="1" stop-color="white"/>
</linearGradient>
<linearGradient id="paint2_linear_47_7012" x1="641.073" y1="642.846" x2="604.539" y2="680.432" gradientUnits="userSpaceOnUse">
<stop offset="0.17" stop-color="#0A30A3"/>
<stop offset="1" stop-color="white"/>
</linearGradient>
<clipPath id="clip0_47_7012">
<rect width="678" height="1024" fill="white"/>
</clipPath>
</defs>
</svg>
