<svg width="1440" height="688" viewBox="0 0 1440 688" fill="none" xmlns="http://www.w3.org/2000/svg">
<g clip-path="url(#clip0_48_3859)">
<rect width="1440" height="688" fill="#001447"/>
<rect x="-1" width="1441" height="688" fill="url(#paint0_linear_48_3859)"/>
<path opacity="0.94" d="M1380.79 293.359C1550.22 313.679 1704.04 192.804 1724.36 23.3671C1744.68 -146.069 1623.81 -299.888 1454.37 -320.208C1284.93 -340.528 1131.12 -219.653 1110.8 -50.2161C1090.48 119.22 1211.35 273.039 1380.79 293.359ZM1439.8 -198.678C1542.11 -186.408 1615.1 -93.5172 1602.83 8.79235C1590.56 111.102 1497.67 184.098 1395.36 171.829C1293.05 159.559 1220.06 66.6682 1232.33 -35.6413C1244.6 -137.951 1337.49 -210.947 1439.8 -198.678Z" fill="url(#paint1_radial_48_3859)"/>
<g opacity="0.6">
<path d="M180.93 614.719L116.005 633.861" stroke="#1E6AC6" stroke-opacity="0.6" stroke-width="8.4" stroke-linecap="round"/>
<path d="M98.6875 638.967L96.5233 639.605" stroke="#179F0C" stroke-opacity="0.6" stroke-width="8.4" stroke-linecap="round"/>
<path d="M63.0625 677.698L56.57 679.612" stroke="#179F0C" stroke-opacity="0.6" stroke-width="8.4" stroke-linecap="round"/>
<path d="M147.469 652.813L86.8719 670.679" stroke="#1E6AC6" stroke-opacity="0.6" stroke-width="8.4" stroke-linecap="round"/>
<path d="M152.711 686.551L115.92 697.398" stroke="#1E6AC6" stroke-opacity="0.6" stroke-width="8.4" stroke-linecap="round"/>
<path d="M177.524 698.758C181.774 701.04 183.424 706.366 181.208 710.654C178.994 714.942 173.752 716.568 169.501 714.286C168.944 713.989 168.392 713.681 167.848 713.369C154.485 705.663 145.344 693.474 141.309 679.787C137.274 666.101 138.34 650.902 145.385 637.179C145.672 636.622 145.969 636.063 146.276 635.512C154.084 621.455 166.854 611.813 181.183 607.589C195.513 603.364 211.469 604.537 225.654 612.109C226.211 612.406 226.763 612.714 227.307 613.026C240.67 620.732 249.811 632.922 253.846 646.608C257.881 660.295 256.815 675.493 249.77 689.216C249.483 689.776 249.186 690.332 248.879 690.883C246.546 695.107 241.262 696.584 237.074 694.184C232.888 691.783 231.383 686.414 233.715 682.191C233.944 681.778 234.165 681.363 234.378 680.951C239.235 671.49 239.963 660.991 237.171 651.524C234.38 642.055 228.072 633.631 218.861 628.32C218.458 628.087 218.047 627.859 217.631 627.638C210.402 623.779 202.47 622.301 194.764 622.93L205.912 660.74C207.291 665.419 204.677 670.312 200.073 671.669C195.469 673.026 190.619 670.335 189.239 665.656L178.092 627.845C171.277 631.497 165.416 637.042 161.436 644.206C161.208 644.618 160.986 645.033 160.774 645.446C155.916 654.907 155.189 665.405 157.98 674.872C160.772 684.341 167.078 692.766 176.291 698.077C176.693 698.309 177.104 698.536 177.52 698.759L177.524 698.758Z" fill="#1E6AC6" fill-opacity="0.9"/>
</g>
<rect x="575" y="514" width="293" height="44" rx="22" fill="url(#paint2_linear_48_3859)"/>
<g clip-path="url(#clip1_48_3859)" filter="url(#filter0_d_48_3859)">
<rect width="1440" height="477" transform="translate(0 688)" fill="#001447"/>
<path d="M1157.82 816.02C1203.33 770.545 1203.33 696.815 1157.82 651.34C1112.32 605.865 1038.54 605.865 993.03 651.34C947.523 696.815 947.523 770.545 993.03 816.02C1038.54 861.495 1112.32 861.495 1157.82 816.02Z" fill="url(#paint3_radial_48_3859)" fill-opacity="0.3"/>
<path opacity="0.94" d="M87.6312 367.491C-60.2593 282.165 -249.354 332.798 -334.739 480.586C-420.123 628.374 -369.456 817.337 -221.565 902.662C-73.6746 987.988 115.42 937.355 200.805 789.567C286.189 641.78 235.522 452.816 87.6312 367.491ZM-160.322 796.66C-249.622 745.139 -280.22 631.024 -228.663 541.786C-177.106 452.549 -62.9114 421.972 26.3881 473.493C115.688 525.014 146.286 639.129 94.7288 728.367C43.1717 817.604 -71.0225 848.181 -160.322 796.66Z" fill="url(#paint4_radial_48_3859)"/>
</g>
</g>
<defs>
<filter id="filter0_d_48_3859" x="-30" y="662" width="1500" height="537" filterUnits="userSpaceOnUse" color-interpolation-filters="sRGB">
<feFlood flood-opacity="0" result="BackgroundImageFix"/>
<feColorMatrix in="SourceAlpha" type="matrix" values="0 0 0 0 0 0 0 0 0 0 0 0 0 0 0 0 0 0 127 0" result="hardAlpha"/>
<feOffset dy="4"/>
<feGaussianBlur stdDeviation="15"/>
<feComposite in2="hardAlpha" operator="out"/>
<feColorMatrix type="matrix" values="0 0 0 0 0.0862745 0 0 0 0 0.498039 0 0 0 0 0.988235 0 0 0 1 0"/>
<feBlend mode="normal" in2="BackgroundImageFix" result="effect1_dropShadow_48_3859"/>
<feBlend mode="normal" in="SourceGraphic" in2="effect1_dropShadow_48_3859" result="shape"/>
</filter>
<linearGradient id="paint0_linear_48_3859" x1="-12.6331" y1="15.0841" x2="1461.47" y2="548.84" gradientUnits="userSpaceOnUse">
<stop stop-color="#0A30A3"/>
<stop offset="0.563541" stop-color="#001447"/>
</linearGradient>
<radialGradient id="paint1_radial_48_3859" cx="0" cy="0" r="1" gradientUnits="userSpaceOnUse" gradientTransform="translate(1345.44 237.176) rotate(-173.161) scale(641.084)">
<stop stop-color="#0A30A3"/>
<stop offset="1" stop-color="#00152A"/>
</radialGradient>
<linearGradient id="paint2_linear_48_3859" x1="721.5" y1="514" x2="721.5" y2="558" gradientUnits="userSpaceOnUse">
<stop offset="0.105208" stop-color="#FFB763"/>
<stop offset="0.7875" stop-color="#FF7233"/>
</linearGradient>
<radialGradient id="paint3_radial_48_3859" cx="0" cy="0" r="1" gradientUnits="userSpaceOnUse" gradientTransform="translate(807.892 927.713) rotate(-180) scale(801.608 801.052)">
<stop stop-color="#5BC7CE"/>
<stop offset="0.11" stop-color="#4198C0"/>
<stop offset="0.23" stop-color="#296BB3"/>
<stop offset="0.34" stop-color="#184AAA"/>
<stop offset="0.43" stop-color="#0D37A5"/>
<stop offset="0.49" stop-color="#0A30A3"/>
<stop offset="1" stop-color="#00152A"/>
</radialGradient>
<radialGradient id="paint4_radial_48_3859" cx="0" cy="0" r="1" gradientUnits="userSpaceOnUse" gradientTransform="translate(98.0427 433.05) rotate(29.9828) scale(641.419 641.196)">
<stop stop-color="#0A30A3"/>
<stop offset="1" stop-color="#00152A"/>
</radialGradient>
<clipPath id="clip0_48_3859">
<rect width="1440" height="688" fill="white"/>
</clipPath>
<clipPath id="clip1_48_3859">
<rect width="1440" height="477" fill="white" transform="translate(0 688)"/>
</clipPath>
</defs>
</svg>
