<svg width="968" height="1024" viewBox="0 0 968 1024" fill="none" xmlns="http://www.w3.org/2000/svg">
<g clip-path="url(#clip0_47_6288)">
<rect width="968" height="1024" fill="#001447"/>
<path d="M882.377 1232.94C992.493 1251.82 1097.06 1177.87 1115.94 1067.75C1134.82 957.633 1060.86 853.067 950.748 834.186C840.632 815.305 736.066 889.261 717.185 999.378C698.304 1109.49 772.26 1214.06 882.377 1232.94ZM937.206 913.168C1003.7 924.569 1048.36 987.716 1036.96 1054.21C1025.56 1120.7 962.41 1165.36 895.919 1153.96C829.428 1142.56 784.766 1079.41 796.167 1012.92C807.568 946.43 870.715 901.767 937.206 913.168Z" fill="url(#paint0_radial_47_6288)"/>
<rect width="968" height="1024" fill="#011855"/>
<path style="mix-blend-mode:overlay" d="M1176.27 292.719C1179.9 296.345 1179.9 302.226 1176.27 305.852L750.852 731.269C747.226 734.895 741.345 734.895 737.719 731.269C734.094 727.643 734.094 721.763 737.719 718.137L1163.14 292.719C1166.76 289.094 1172.64 289.094 1176.27 292.719Z" fill="url(#paint1_linear_47_6288)"/>
<path d="M224.857 520.139C226.719 522.001 229.738 522.001 231.6 520.139C233.462 518.277 233.462 515.258 231.6 513.396C229.738 511.534 226.719 511.534 224.857 513.396C222.995 515.258 222.995 518.277 224.857 520.139Z" fill="white" fill-opacity="0.3"/>
<path d="M194.99 550.01C196.852 551.872 199.871 551.872 201.733 550.01C203.595 548.148 203.595 545.13 201.733 543.268C199.871 541.406 196.852 541.406 194.99 543.268C193.128 545.13 193.128 548.148 194.99 550.01Z" fill="white" fill-opacity="0.3"/>
<path d="M165.119 579.86C166.981 581.722 170 581.722 171.862 579.86C173.724 577.998 173.724 574.979 171.862 573.117C170 571.255 166.981 571.255 165.119 573.117C163.257 574.979 163.257 577.998 165.119 579.86Z" fill="white" fill-opacity="0.3"/>
<path d="M135.268 609.731C137.13 611.593 140.148 611.593 142.01 609.731C143.872 607.869 143.872 604.85 142.01 602.988C140.148 601.126 137.13 601.126 135.268 602.988C133.406 604.85 133.406 607.869 135.268 609.731Z" fill="white" fill-opacity="0.3"/>
<path d="M112.139 632.859C110.277 630.997 107.258 630.997 105.396 632.859C103.534 634.721 103.534 637.74 105.396 639.602C107.258 641.464 110.277 641.464 112.139 639.602C114.001 637.74 114.001 634.721 112.139 632.859Z" fill="white" fill-opacity="0.3"/>
<path d="M889.651 626.349C890.116 626.815 890.116 627.57 889.651 628.035L835.035 682.651C834.57 683.116 833.815 683.116 833.349 682.651C832.884 682.185 832.884 681.43 833.349 680.965L887.965 626.349C888.43 625.884 889.185 625.884 889.651 626.349Z" fill="url(#paint2_linear_47_6288)" style="mix-blend-mode:overlay"/>
</g>
<defs>
<radialGradient id="paint0_radial_47_6288" cx="0" cy="0" r="1" gradientUnits="userSpaceOnUse" gradientTransform="translate(861.117 1195.04) rotate(-170.27) scale(419.711)">
<stop stop-color="#0A30A3"/>
<stop offset="1" stop-color="#00152A"/>
</radialGradient>
<linearGradient id="paint1_linear_47_6288" x1="1031.56" y1="421.237" x2="775.312" y2="733.19" gradientUnits="userSpaceOnUse">
<stop offset="0.17" stop-color="#0A30A3"/>
<stop offset="1" stop-color="white"/>
</linearGradient>
<linearGradient id="paint2_linear_47_6288" x1="871.073" y1="642.846" x2="834.539" y2="680.432" gradientUnits="userSpaceOnUse">
<stop offset="0.17" stop-color="#0A30A3"/>
<stop offset="1" stop-color="white"/>
</linearGradient>
<clipPath id="clip0_47_6288">
<rect width="968" height="1024" fill="white"/>
</clipPath>
</defs>
</svg>
