<svg width="320" height="601" viewBox="0 0 320 601" fill="none" xmlns="http://www.w3.org/2000/svg">
<g clip-path="url(#clip0_66_6772)">
<rect width="320" height="601" fill="#001447"/>
<path d="M320 0H0V601H320V0Z" fill="url(#paint0_linear_66_6772)"/>
<path d="M167.768 481.649C191.519 481.649 210.773 500.903 210.773 524.654C210.773 548.406 191.519 567.66 167.768 567.66C144.016 567.66 124.762 548.406 124.762 524.654C124.762 500.903 144.016 481.649 167.768 481.649Z" fill="url(#paint1_radial_66_6772)"/>
<path d="M90.4579 438.17C90.4579 438.17 86.5845 489.963 82.618 509.012H174.02C169.752 491.256 165.338 443.247 165.338 443.247L178.255 462.377L189.887 433.032C189.887 433.032 178.69 413.887 166.609 403.879C158.219 396.928 140.771 394.372 130.896 393.459V392.914C130.896 392.914 129.54 392.976 127.288 393.167C125.034 393.013 123.677 392.973 123.677 392.973L123.683 393.518C113.824 394.593 96.619 397.674 88.1466 404.525C56.7907 429.878 40.5733 507.082 40.1719 509.012H59.6909C70.2361 469.018 90.4579 438.17 90.4579 438.17Z" fill="#2A485E"/>
<path d="M189.886 433.032C189.886 433.032 182.108 419.734 172.524 409.512C169.081 422.429 168.033 435.985 169.414 449.283L178.257 462.378L189.886 433.032Z" fill="#193345"/>
<path d="M269.621 463.15C267.315 461.974 265.303 460.354 263.485 458.506L197.331 436.498C197.331 436.498 197.331 417.074 193.596 406.944C199.87 395.227 199.366 384.224 197.331 377.601C195.296 370.979 186.45 367.234 183.209 376.961C181.599 381.794 174.826 401.578 172.367 406.627C166.156 437.311 175.927 473.883 195.375 487.129C214.823 500.375 247.119 501.667 270.604 495.124C287.138 490.515 291.798 472.6 293.109 462.398C290.788 463.363 288.409 464.167 285.952 464.703C280.501 465.892 274.588 465.685 269.621 463.15Z" fill="#F7A87E"/>
<path d="M293.619 455.184L276.941 462.984L263.484 458.507C265.302 460.355 267.314 461.975 269.62 463.151C274.589 465.686 280.503 465.893 285.953 464.702C288.41 464.166 290.789 463.362 293.11 462.398C293.66 458.109 293.619 455.184 293.619 455.184Z" fill="#E98870"/>
<path d="M284.797 370.373L268.205 388.003C264.177 392.283 264.557 399.068 269.038 402.869C273.279 406.467 279.613 406.035 283.325 401.894L299.487 383.869C303.153 379.78 302.825 373.498 298.752 369.812C294.724 366.168 288.52 366.417 284.797 370.373Z" fill="#F7A87E"/>
<path d="M141.147 394.738L112.961 394.793L116.162 417.148H137.587L141.147 394.738Z" fill="#ECEADD"/>
<path d="M137.581 417.148H116.156L123.919 471.366L137.581 417.148Z" fill="white"/>
<path d="M115.332 380.891V390.142C119.036 392.853 123.352 394.541 127.845 394.73C127.948 394.735 128.053 394.738 128.157 394.739C128.261 394.741 128.364 394.735 128.468 394.73C132.67 394.554 136.719 393.063 140.255 390.656V380.891H115.332Z" fill="#E98870"/>
<path d="M146.617 369.178C153.227 366.731 158.623 361.204 160.909 354.537C163.195 347.87 162.327 340.194 158.61 334.206C161.811 333.435 163.343 329.299 162.133 326.237C160.922 323.175 157.738 321.263 154.509 320.616C156.025 319.189 155.702 316.53 154.308 314.984C152.915 313.439 150.79 312.786 148.737 312.438C145.437 311.877 142.06 311.928 138.723 312.184C132.394 312.671 110.035 311.999 103.803 327.111C95.7501 329.633 95.8218 341.717 95.7561 345.005C95.5802 353.802 99.2124 362.952 106.415 368.005C117.794 375.987 133.581 374.004 146.617 369.178Z" fill="#4E2F20"/>
<path d="M150.884 371.995C147.36 381.818 138.336 389.471 128.469 389.885C128.365 389.89 128.261 389.893 128.157 389.894C128.054 389.894 127.949 389.89 127.844 389.885C117.976 389.471 108.954 381.818 105.429 371.995C103.283 366.01 102.97 359.463 103.201 353.064C103.432 346.665 104.182 340.282 104.062 333.881C111.984 332.252 120.114 330.992 128.157 331.457C136.201 330.994 144.329 332.252 152.251 333.881C152.131 340.282 152.88 346.666 153.112 353.064C153.344 359.463 153.03 366.01 150.884 371.995Z" fill="#F7A87E"/>
<path d="M154.458 358.74C151.069 353.77 148.948 347.645 149.255 341.638C134.849 342.642 120.392 340.645 106.798 335.773C106.956 343.702 104.795 351.493 101.43 358.675C101.022 350.77 100.916 343.098 101.754 335.228C101.847 334.332 101.962 333.407 102.412 332.625C103.212 331.236 104.866 330.62 106.402 330.152C120.841 325.74 136.784 325.108 150.853 330.587C152.334 331.165 153.84 331.837 154.916 333.013C155.861 334.043 156.402 335.386 156.712 336.749C157.271 339.203 157.134 341.755 156.993 344.268C156.712 349.263 156.17 354.04 154.458 358.74Z" fill="#4E2F20"/>
<path d="M97.6423 344.075C99.6435 341.962 101.399 339.628 102.874 337.12C104.106 335.024 105.341 332.629 107.627 331.801C109.73 331.04 112.257 331.829 114.185 330.699C115.168 330.123 115.852 329.116 116.863 328.59C118.836 327.563 121.175 328.678 123.29 329.368C128.059 330.923 133.536 330.126 137.665 327.274C139.762 325.825 141.581 323.742 142.012 321.23C142.393 319.013 141.658 316.759 140.755 314.699C140.372 313.827 139.954 312.971 139.508 312.129C139.247 312.147 138.985 312.165 138.725 312.185C136.4 312.364 131.912 312.387 126.855 313.093C126.921 313.16 126.986 313.228 127.051 313.297C128.162 314.491 129.066 316.173 128.514 317.709C128.087 318.898 126.918 319.635 125.804 320.231C122.387 322.057 118.745 323.424 114.97 324.296C114.066 324.504 113.058 324.749 112.562 325.533C112.212 326.089 112.206 326.79 111.946 327.391C111.437 328.568 110.091 329.121 108.84 329.396C107.588 329.671 106.242 329.81 105.221 330.583C104.711 330.967 104.322 331.484 103.862 331.926C102.398 333.332 100.226 333.907 98.2238 333.569C98.0015 333.531 97.7821 333.481 97.5649 333.423C95.788 337.791 95.7981 343.013 95.7592 345.005C95.7532 345.306 95.7528 345.607 95.7555 345.909C96.4125 345.326 97.0408 344.71 97.6423 344.075Z" fill="#5E3B2B"/>
<path d="M120.746 349.402C121.36 349.422 121.99 349.465 122.548 349.719C123.107 349.973 123.589 350.482 123.643 351.093C123.705 351.793 123.188 352.442 122.559 352.755C121.93 353.068 121.206 353.114 120.504 353.148C118.212 353.258 115.919 353.29 113.624 353.244C112.816 353.227 111.077 353.105 111.059 351.936C111.043 350.958 112.565 350.644 113.297 350.391C115.679 349.566 118.237 349.32 120.746 349.402Z" fill="#452819"/>
<path d="M136.382 349.402C135.768 349.422 135.139 349.465 134.58 349.719C134.02 349.973 133.539 350.482 133.485 351.093C133.424 351.793 133.94 352.442 134.569 352.755C135.199 353.068 135.923 353.114 136.625 353.148C138.916 353.258 141.209 353.29 143.505 353.244C144.313 353.227 146.051 353.105 146.07 351.936C146.086 350.958 144.563 350.644 143.832 350.391C141.449 349.566 138.891 349.32 136.382 349.402Z" fill="#452819"/>
<path d="M117.356 362.256C118.714 362.256 119.815 361.155 119.815 359.798C119.815 358.44 118.714 357.34 117.356 357.34C115.999 357.34 114.898 358.44 114.898 359.798C114.898 361.155 115.999 362.256 117.356 362.256Z" fill="#452819"/>
<path d="M138.817 362.256C140.175 362.256 141.275 361.155 141.275 359.798C141.275 358.44 140.175 357.34 138.817 357.34C137.46 357.34 136.359 358.44 136.359 359.798C136.359 361.155 137.46 362.256 138.817 362.256Z" fill="#452819"/>
<path d="M129.138 380.893C127.39 380.924 125.662 381.298 124.023 381.912C125.169 382.626 126.621 383.092 128.468 383.092C130.598 383.092 132.204 382.475 133.418 381.568C132.043 381.091 130.593 380.863 129.138 380.893Z" fill="#F28487"/>
<path d="M124.409 376.001C125.451 376.464 126.55 376.811 127.681 376.956C129.877 377.239 132.149 376.738 134.079 375.652C134.72 375.29 135.324 374.867 135.885 374.389C135.698 374.31 135.497 374.27 135.294 374.27H121.719C121.76 374.31 121.802 374.351 121.844 374.39C122.587 375.081 123.482 375.59 124.409 376.001Z" fill="white"/>
<path d="M135.886 374.389C135.326 374.867 134.721 375.29 134.081 375.652C132.151 376.738 129.879 377.239 127.683 376.956C126.552 376.811 125.453 376.464 124.411 376.001C123.485 375.59 122.588 375.081 121.846 374.39C121.804 374.351 121.762 374.31 121.72 374.27H121.644C121.41 374.269 121.18 374.322 120.97 374.425C120.76 374.528 120.576 374.677 120.433 374.862C120.29 375.046 120.191 375.261 120.144 375.49C120.098 375.719 120.104 375.956 120.162 376.182C120.625 377.926 121.676 380.445 124.026 381.911C125.665 381.296 127.393 380.921 129.14 380.893C130.595 380.863 132.045 381.092 133.42 381.57C135.419 380.077 136.35 377.798 136.777 376.184C136.871 375.827 136.832 375.449 136.668 375.119C136.505 374.789 136.227 374.53 135.886 374.389Z" fill="#AB404A"/>
<path d="M128.157 394.738C128.053 394.738 127.948 394.733 127.845 394.728C123.353 394.54 119.035 392.851 115.332 390.141V407.375H135.009L140.255 399.881V390.652C136.719 393.063 132.67 394.552 128.468 394.727C128.364 394.732 128.261 394.736 128.157 394.738Z" fill="#F7A87E"/>
<path d="M115.336 392.527L127.365 406.501L140.259 392.527L141.959 394.896L137.461 417.218L127.28 407.376L116.17 417.207L112.961 394.793L115.336 392.527Z" fill="white"/>
<path d="M121.373 412.601L126.086 419.413L119.172 438.183L123.923 471.364L132.877 435.832L128.927 419.335L133.235 413.133L127.279 407.375L121.373 412.601Z" fill="#D75555"/>
<path d="M222.948 466.738L222.883 466.852H223.014L222.948 466.738Z" fill="#F68C24"/>
<path d="M271.897 448.681L289.146 438.091C293.335 435.519 298.65 437.281 300.796 441.952C302.826 446.372 301.245 451.745 297.231 454.074L279.751 464.209C275.786 466.507 270.857 464.896 268.726 460.603C266.614 456.357 268.026 451.057 271.897 448.681Z" fill="#F7A87E"/>
<path d="M265.985 426.96L289.3 417.656C294.961 415.397 301.359 418.343 303.324 424.113C305.181 429.571 302.356 435.518 296.951 437.525L273.419 446.262C268.08 448.245 262.144 445.539 260.138 440.209C258.154 434.937 260.753 429.047 265.985 426.96Z" fill="#F7A87E"/>
<path d="M263.789 406.269L286.275 397.297C291.734 395.119 297.905 397.96 299.8 403.524C301.592 408.789 298.868 414.523 293.654 416.459L270.958 424.886C265.81 426.797 260.084 424.187 258.15 419.047C256.236 413.963 258.743 408.283 263.789 406.269Z" fill="#F7A87E"/>
<path d="M149.039 376.037C151.892 376.197 154.824 375.408 157.089 373.666C159.353 371.924 160.892 369.205 161.016 366.35C161.084 364.776 160.648 363.055 159.383 362.117C158.417 361.401 157.133 361.263 155.935 361.367C154.271 361.511 152.528 362.171 151.645 363.589L149.039 376.037Z" fill="#F7A87E"/>
<path d="M155.285 365.978C155.427 366.063 155.558 366.164 155.677 366.28C156.195 366.778 156.498 367.459 156.519 368.178C156.54 368.897 156.277 369.595 155.789 370.122C155.765 370.148 155.736 370.169 155.704 370.184C155.672 370.199 155.637 370.207 155.602 370.208C155.567 370.21 155.532 370.204 155.499 370.192C155.466 370.18 155.436 370.161 155.41 370.137C155.384 370.113 155.363 370.084 155.348 370.052C155.334 370.02 155.325 369.986 155.324 369.951C155.323 369.915 155.328 369.88 155.34 369.847C155.353 369.814 155.371 369.784 155.395 369.758C155.788 369.334 155.998 368.773 155.981 368.195C155.964 367.617 155.722 367.069 155.305 366.669C155.154 366.523 154.924 366.35 154.657 366.306C153.654 366.923 152.878 367.849 152.445 368.943C152.425 368.994 152.39 369.038 152.344 369.069C152.298 369.099 152.244 369.115 152.189 369.114C152.158 369.114 152.126 369.107 152.097 369.096C152.03 369.07 151.977 369.019 151.949 368.954C151.92 368.889 151.918 368.815 151.944 368.749C152.455 367.435 153.419 366.348 154.662 365.684C155.905 365.02 157.345 364.823 158.72 365.129C158.79 365.144 158.85 365.187 158.888 365.247C158.927 365.307 158.939 365.379 158.924 365.449C158.908 365.518 158.866 365.579 158.806 365.617C158.746 365.655 158.673 365.668 158.604 365.652C157.491 365.411 156.33 365.525 155.285 365.978Z" fill="#D26F61"/>
<path d="M150.723 371.612C150.758 371.55 150.817 371.505 150.885 371.486C150.954 371.468 151.027 371.477 151.089 371.512C152.536 372.34 154.353 371.842 155.571 371.099C156.351 370.624 157.377 369.794 157.837 368.539C157.849 368.506 157.868 368.475 157.891 368.45C157.915 368.424 157.944 368.403 157.976 368.388C158.008 368.373 158.043 368.365 158.078 368.363C158.113 368.362 158.148 368.368 158.181 368.38C158.214 368.392 158.244 368.41 158.27 368.434C158.296 368.458 158.317 368.487 158.332 368.519C158.347 368.551 158.355 368.585 158.356 368.621C158.358 368.656 158.352 368.691 158.34 368.724C157.826 370.125 156.702 371.039 155.851 371.557C154.981 372.087 153.829 372.501 152.678 372.475C152.028 372.468 151.389 372.297 150.822 371.977C150.761 371.942 150.716 371.884 150.697 371.815C150.678 371.747 150.688 371.673 150.723 371.612Z" fill="#D26F61"/>
<path d="M107.116 376.037C104.264 376.197 101.329 375.408 99.0668 373.666C96.8046 371.924 95.2633 369.205 95.1397 366.35C95.0712 364.776 95.5078 363.055 96.7727 362.117C97.7389 361.401 99.0224 361.263 100.221 361.367C101.885 361.511 103.628 362.171 104.51 363.589L107.116 376.037Z" fill="#F7A87E"/>
<path d="M100.872 365.978C100.73 366.063 100.599 366.164 100.48 366.28C99.9613 366.778 99.6589 367.459 99.6379 368.178C99.617 368.897 99.8791 369.595 100.368 370.122C100.392 370.148 100.421 370.169 100.453 370.184C100.485 370.199 100.519 370.207 100.554 370.208C100.59 370.21 100.625 370.204 100.658 370.192C100.691 370.18 100.721 370.161 100.747 370.137C100.773 370.113 100.794 370.084 100.808 370.052C100.823 370.02 100.831 369.986 100.833 369.951C100.834 369.915 100.828 369.88 100.816 369.847C100.804 369.814 100.785 369.784 100.761 369.758C100.369 369.334 100.158 368.773 100.175 368.195C100.192 367.617 100.435 367.069 100.851 366.669C101.002 366.523 101.233 366.35 101.499 366.306C102.502 366.923 103.278 367.848 103.712 368.943C103.732 368.994 103.767 369.038 103.813 369.069C103.858 369.099 103.912 369.115 103.967 369.114C103.999 369.114 104.03 369.107 104.06 369.096C104.093 369.083 104.123 369.064 104.148 369.039C104.174 369.015 104.194 368.986 104.208 368.954C104.222 368.922 104.23 368.887 104.231 368.852C104.232 368.817 104.225 368.782 104.213 368.749C103.702 367.435 102.738 366.348 101.495 365.684C100.252 365.02 98.8123 364.823 97.4366 365.129C97.4023 365.136 97.3697 365.151 97.3409 365.171C97.312 365.191 97.2874 365.217 97.2685 365.246C97.2496 365.276 97.2367 365.309 97.2306 365.344C97.2245 365.379 97.2253 365.414 97.2329 365.449C97.2406 365.483 97.2549 365.515 97.2751 365.544C97.2953 365.573 97.321 365.598 97.3507 365.617C97.3804 365.636 97.4136 365.648 97.4482 365.655C97.4829 365.661 97.5185 365.66 97.5529 365.652C98.6659 365.411 99.8266 365.525 100.872 365.978Z" fill="#D26F61"/>
<path d="M105.434 371.612C105.399 371.55 105.341 371.505 105.272 371.486C105.203 371.468 105.13 371.477 105.068 371.512C103.621 372.34 101.804 371.842 100.586 371.099C99.8068 370.624 98.7803 369.794 98.3206 368.539C98.3084 368.506 98.2898 368.475 98.266 368.45C98.2421 368.424 98.2133 368.403 98.1814 368.388C98.1494 368.373 98.1148 368.365 98.0797 368.363C98.0445 368.362 98.0094 368.368 97.9763 368.38C97.9433 368.392 97.9129 368.41 97.8871 368.434C97.8612 368.458 97.8403 368.487 97.8255 368.519C97.8107 368.551 97.8024 368.585 97.801 368.621C97.7996 368.656 97.8051 368.691 97.8173 368.724C98.3317 370.125 99.4549 371.039 100.307 371.557C101.176 372.087 102.328 372.501 103.479 372.475C104.13 372.468 104.768 372.297 105.335 371.977C105.397 371.942 105.442 371.884 105.46 371.815C105.479 371.747 105.47 371.673 105.434 371.612Z" fill="#D26F61"/>
<path opacity="0.12" d="M140.737 372.201C142.885 372.201 144.627 370.46 144.627 368.312C144.627 366.163 142.885 364.422 140.737 364.422C138.589 364.422 136.848 366.163 136.848 368.312C136.848 370.46 138.589 372.201 140.737 372.201Z" fill="#ED7C6D"/>
<path opacity="0.12" d="M142.931 370.008C144.45 368.489 144.45 366.026 142.931 364.507C141.412 362.988 138.949 362.988 137.43 364.507C135.911 366.026 135.911 368.489 137.43 370.008C138.949 371.527 141.412 371.527 142.931 370.008Z" fill="#ED7C6D"/>
<path opacity="0.12" d="M142.366 372.201C144.514 372.201 146.256 370.46 146.256 368.312C146.256 366.163 144.514 364.422 142.366 364.422C140.218 364.422 138.477 366.163 138.477 368.312C138.477 370.46 140.218 372.201 142.366 372.201Z" fill="#ED7C6D"/>
<path opacity="0.12" d="M140.597 373.357C142.745 373.357 144.486 371.616 144.486 369.468C144.486 367.32 142.745 365.578 140.597 365.578C138.448 365.578 136.707 367.32 136.707 369.468C136.707 371.616 138.448 373.357 140.597 373.357Z" fill="#ED7C6D"/>
<path opacity="0.12" d="M140.964 371.225C142.573 371.225 143.877 369.921 143.877 368.312C143.877 366.703 142.573 365.398 140.964 365.398C139.355 365.398 138.051 366.703 138.051 368.312C138.051 369.921 139.355 371.225 140.964 371.225Z" fill="#ED7C6D"/>
<path opacity="0.12" d="M141.364 370.314C142.311 370.314 143.079 369.546 143.079 368.598C143.079 367.651 142.311 366.883 141.364 366.883C140.416 366.883 139.648 367.651 139.648 368.598C139.648 369.546 140.416 370.314 141.364 370.314Z" fill="#ED7C6D"/>
<path opacity="0.12" d="M141.85 368.376C142.068 367.454 141.497 366.53 140.575 366.313C139.653 366.095 138.729 366.666 138.511 367.588C138.294 368.51 138.865 369.434 139.787 369.652C140.709 369.869 141.633 369.298 141.85 368.376Z" fill="#ED7C6D"/>
<path opacity="0.12" d="M142.281 369.337C143.156 368.975 143.571 367.971 143.209 367.096C142.846 366.221 141.843 365.805 140.968 366.168C140.092 366.53 139.677 367.534 140.039 368.409C140.402 369.284 141.405 369.7 142.281 369.337Z" fill="#ED7C6D"/>
<path opacity="0.12" d="M141.398 369.896C142.273 369.533 142.689 368.53 142.326 367.655C141.964 366.779 140.96 366.364 140.085 366.726C139.21 367.089 138.794 368.092 139.156 368.968C139.519 369.843 140.522 370.259 141.398 369.896Z" fill="#ED7C6D"/>
<path opacity="0.12" d="M142.632 368.138C142.849 367.216 142.278 366.292 141.356 366.075C140.434 365.857 139.51 366.428 139.292 367.35C139.075 368.272 139.646 369.196 140.568 369.414C141.49 369.631 142.414 369.06 142.632 368.138Z" fill="#ED7C6D"/>
<path opacity="0.05" d="M141.233 368.967C141.91 368.967 142.459 368.418 142.459 367.741C142.459 367.064 141.91 366.516 141.233 366.516C140.557 366.516 140.008 367.064 140.008 367.741C140.008 368.418 140.557 368.967 141.233 368.967Z" fill="#FDECE9"/>
<path opacity="0.05" d="M140.959 367.992C141.364 367.992 141.691 367.664 141.691 367.26C141.691 366.855 141.364 366.527 140.959 366.527C140.554 366.527 140.227 366.855 140.227 367.26C140.227 367.664 140.554 367.992 140.959 367.992Z" fill="#FDECE9"/>
<path opacity="0.05" d="M141.524 367.542C141.465 367.621 141.383 367.68 141.29 367.713C141.197 367.746 141.096 367.75 141.001 367.726C140.905 367.701 140.819 367.649 140.753 367.575C140.687 367.502 140.644 367.41 140.63 367.312C140.616 367.215 140.631 367.115 140.674 367.026C140.717 366.937 140.785 366.862 140.87 366.812C140.955 366.762 141.053 366.738 141.152 366.743C141.25 366.748 141.345 366.783 141.424 366.842C141.477 366.881 141.521 366.931 141.554 366.987C141.588 367.044 141.61 367.106 141.619 367.171C141.628 367.236 141.625 367.302 141.609 367.366C141.592 367.429 141.564 367.489 141.524 367.542Z" fill="#FDECE9"/>
<path opacity="0.05" d="M141.361 367.475C141.302 367.555 141.221 367.614 141.127 367.647C141.034 367.68 140.933 367.685 140.837 367.66C140.742 367.636 140.655 367.584 140.589 367.51C140.523 367.436 140.48 367.345 140.466 367.247C140.452 367.149 140.467 367.049 140.51 366.96C140.553 366.871 140.621 366.796 140.706 366.746C140.791 366.695 140.889 366.671 140.988 366.677C141.087 366.682 141.182 366.716 141.261 366.776C141.367 366.855 141.437 366.974 141.456 367.105C141.475 367.236 141.441 367.369 141.361 367.475Z" fill="#FDECE9"/>
<path opacity="0.05" d="M140.255 367.564C140.52 367.492 140.676 367.219 140.605 366.954C140.533 366.689 140.26 366.533 139.995 366.604C139.73 366.676 139.574 366.949 139.646 367.214C139.717 367.479 139.99 367.635 140.255 367.564Z" fill="#FDECE9"/>
<path opacity="0.05" d="M141.423 367.475C141.363 367.554 141.282 367.614 141.189 367.647C141.096 367.679 140.995 367.684 140.899 367.659C140.803 367.635 140.717 367.582 140.651 367.509C140.585 367.435 140.542 367.344 140.528 367.246C140.514 367.148 140.53 367.048 140.573 366.959C140.615 366.87 140.683 366.796 140.768 366.746C140.853 366.695 140.951 366.671 141.05 366.677C141.149 366.682 141.244 366.716 141.323 366.776C141.429 366.855 141.499 366.974 141.517 367.105C141.536 367.236 141.502 367.369 141.423 367.475Z" fill="#FDECE9"/>
<path opacity="0.12" d="M114.362 372.201C116.51 372.201 118.252 370.46 118.252 368.312C118.252 366.163 116.51 364.422 114.362 364.422C112.214 364.422 110.473 366.163 110.473 368.312C110.473 370.46 112.214 372.201 114.362 372.201Z" fill="#ED7C6D"/>
<path opacity="0.12" d="M116.556 370.008C118.075 368.489 118.075 366.026 116.556 364.507C115.037 362.988 112.574 362.988 111.055 364.507C109.536 366.026 109.536 368.489 111.055 370.008C112.574 371.527 115.037 371.527 116.556 370.008Z" fill="#ED7C6D"/>
<path opacity="0.12" d="M115.991 372.201C118.139 372.201 119.881 370.46 119.881 368.312C119.881 366.163 118.139 364.422 115.991 364.422C113.843 364.422 112.102 366.163 112.102 368.312C112.102 370.46 113.843 372.201 115.991 372.201Z" fill="#ED7C6D"/>
<path opacity="0.12" d="M114.218 373.357C116.366 373.357 118.107 371.616 118.107 369.468C118.107 367.32 116.366 365.578 114.218 365.578C112.07 365.578 110.328 367.32 110.328 369.468C110.328 371.616 112.07 373.357 114.218 373.357Z" fill="#ED7C6D"/>
<path opacity="0.12" d="M114.585 371.225C116.194 371.225 117.498 369.921 117.498 368.312C117.498 366.703 116.194 365.398 114.585 365.398C112.976 365.398 111.672 366.703 111.672 368.312C111.672 369.921 112.976 371.225 114.585 371.225Z" fill="#ED7C6D"/>
<path opacity="0.12" d="M114.985 370.314C115.932 370.314 116.7 369.546 116.7 368.598C116.7 367.651 115.932 366.883 114.985 366.883C114.038 366.883 113.27 367.651 113.27 368.598C113.27 369.546 114.038 370.314 114.985 370.314Z" fill="#ED7C6D"/>
<path opacity="0.12" d="M115.475 368.376C115.693 367.454 115.122 366.53 114.2 366.313C113.278 366.095 112.354 366.666 112.136 367.588C111.919 368.51 112.49 369.434 113.412 369.652C114.334 369.869 115.258 369.298 115.475 368.376Z" fill="#ED7C6D"/>
<path opacity="0.12" d="M115.906 369.337C116.781 368.975 117.196 367.971 116.834 367.096C116.471 366.221 115.468 365.805 114.593 366.168C113.717 366.53 113.302 367.534 113.664 368.409C114.027 369.284 115.03 369.7 115.906 369.337Z" fill="#ED7C6D"/>
<path opacity="0.12" d="M115.019 369.896C115.894 369.533 116.31 368.53 115.947 367.655C115.585 366.779 114.581 366.364 113.706 366.726C112.831 367.089 112.415 368.092 112.778 368.968C113.14 369.843 114.144 370.259 115.019 369.896Z" fill="#ED7C6D"/>
<path opacity="0.12" d="M116.253 368.138C116.47 367.216 115.899 366.292 114.977 366.075C114.055 365.857 113.131 366.428 112.914 367.35C112.696 368.272 113.267 369.196 114.189 369.414C115.111 369.631 116.035 369.06 116.253 368.138Z" fill="#ED7C6D"/>
<path opacity="0.05" d="M114.851 368.967C115.527 368.967 116.076 368.418 116.076 367.741C116.076 367.064 115.527 366.516 114.851 366.516C114.174 366.516 113.625 367.064 113.625 367.741C113.625 368.418 114.174 368.967 114.851 368.967Z" fill="#FDECE9"/>
<path opacity="0.05" d="M114.584 367.992C114.989 367.992 115.316 367.664 115.316 367.26C115.316 366.855 114.989 366.527 114.584 366.527C114.179 366.527 113.852 366.855 113.852 367.26C113.852 367.664 114.179 367.992 114.584 367.992Z" fill="#FDECE9"/>
<path opacity="0.05" d="M115.149 367.542C115.09 367.621 115.008 367.68 114.915 367.713C114.822 367.746 114.721 367.75 114.626 367.726C114.53 367.701 114.444 367.649 114.378 367.575C114.312 367.502 114.269 367.41 114.255 367.312C114.241 367.215 114.256 367.115 114.299 367.026C114.342 366.937 114.41 366.862 114.495 366.812C114.58 366.762 114.678 366.738 114.777 366.743C114.875 366.748 114.97 366.783 115.049 366.842C115.102 366.881 115.146 366.931 115.179 366.987C115.213 367.044 115.235 367.106 115.244 367.171C115.253 367.236 115.25 367.302 115.234 367.366C115.217 367.429 115.189 367.489 115.149 367.542Z" fill="#FDECE9"/>
<path opacity="0.05" d="M114.985 367.475C114.926 367.554 114.844 367.614 114.751 367.647C114.658 367.679 114.557 367.684 114.462 367.659C114.366 367.635 114.28 367.582 114.214 367.509C114.148 367.435 114.105 367.344 114.091 367.246C114.077 367.148 114.092 367.048 114.135 366.959C114.178 366.87 114.246 366.796 114.331 366.746C114.416 366.695 114.514 366.671 114.613 366.677C114.711 366.682 114.806 366.716 114.885 366.776C114.991 366.855 115.061 366.974 115.08 367.105C115.099 367.236 115.065 367.369 114.985 367.475Z" fill="#FDECE9"/>
<path opacity="0.05" d="M114.933 367.722C115.199 367.649 115.356 367.375 115.283 367.108C115.21 366.842 114.935 366.686 114.669 366.759C114.403 366.832 114.247 367.106 114.319 367.372C114.392 367.639 114.667 367.795 114.933 367.722Z" fill="#FDECE9"/>
<path opacity="0.05" d="M115.049 367.475C114.99 367.555 114.908 367.614 114.815 367.647C114.722 367.68 114.621 367.685 114.525 367.66C114.429 367.636 114.343 367.584 114.276 367.51C114.21 367.436 114.168 367.345 114.154 367.247C114.139 367.149 114.155 367.049 114.197 366.96C114.24 366.871 114.308 366.796 114.394 366.746C114.479 366.695 114.577 366.671 114.676 366.677C114.774 366.682 114.869 366.716 114.948 366.776C115.054 366.855 115.125 366.974 115.143 367.105C115.162 367.236 115.128 367.369 115.049 367.475Z" fill="#FDECE9"/>
<path d="M124.641 365.383C124.641 365.394 124.641 365.405 124.641 365.416C124.652 366.424 125.06 367.387 125.777 368.096C126.494 368.805 127.461 369.203 128.47 369.203C129.478 369.203 130.446 368.805 131.163 368.096C131.88 367.387 132.288 366.424 132.299 365.416C132.299 365.405 132.299 365.394 132.299 365.383H124.641Z" fill="#F17D6F"/>
<path d="M194.304 411.829C193.938 410.27 194.079 408.25 193.596 406.94C199.87 395.223 199.366 384.22 197.331 377.598C195.295 370.975 186.45 367.23 183.209 376.957C181.599 381.79 174.826 401.574 172.367 406.623C170.901 413.864 170.326 421.434 170.557 428.947C172.565 427.961 174.524 426.87 176.423 425.718C183.115 421.661 188.756 417.351 194.304 411.829Z" fill="#F7A87E"/>
<path d="M178.616 513.688L151.617 490.143C131.164 512.381 96.6085 514.404 73.6937 494.436C50.7789 474.469 48.098 439.942 67.3463 416.653L40.3472 393.108C8.09498 431.308 12.3548 488.445 50.1644 521.418C87.9739 554.39 145.159 550.837 178.616 513.688Z" fill="#FF9149"/>
<path d="M193.497 332.672H194.518V339.591H193.497C193.395 339.591 193.293 339.57 193.198 339.531C193.103 339.492 193.017 339.434 192.944 339.361C192.871 339.289 192.814 339.203 192.774 339.108C192.735 339.013 192.715 338.911 192.715 338.808V333.454C192.715 333.247 192.797 333.048 192.944 332.901C193.091 332.754 193.29 332.672 193.497 332.672Z" fill="#333333"/>
<path d="M193.497 346.262H194.518V359.16H193.497C193.29 359.16 193.091 359.078 192.944 358.931C192.797 358.784 192.715 358.585 192.715 358.378V347.044C192.715 346.837 192.797 346.638 192.944 346.491C193.091 346.344 193.29 346.262 193.497 346.262Z" fill="#333333"/>
<path d="M283.928 370.793H282.908V350.789H283.928C284.136 350.789 284.335 350.871 284.482 351.018C284.628 351.164 284.711 351.364 284.711 351.571V370.01C284.711 370.218 284.628 370.417 284.482 370.564C284.335 370.711 284.136 370.793 283.928 370.793Z" fill="#333333"/>
<path d="M193.497 362.766H194.518V375.664H193.497C193.29 375.664 193.091 375.582 192.944 375.435C192.797 375.288 192.715 375.089 192.715 374.882V363.548C192.715 363.341 192.797 363.142 192.944 362.995C193.091 362.848 193.29 362.766 193.497 362.766Z" fill="#333333"/>
<path d="M270.261 308H207.159C199.68 308 193.617 314.063 193.617 321.542V477.458C193.617 484.937 199.68 491 207.159 491H270.261C277.74 491 283.803 484.937 283.803 477.458V321.542C283.803 314.063 277.74 308 270.261 308Z" fill="#444444"/>
<path d="M270.261 309.582H207.157C200.553 309.582 195.199 314.936 195.199 321.54V477.458C195.199 484.062 200.553 489.416 207.157 489.416H270.261C276.865 489.416 282.219 484.062 282.219 477.458V321.54C282.219 314.936 276.865 309.582 270.261 309.582Z" fill="#444444"/>
<path d="M270.263 309.684H207.158C200.61 309.684 195.301 314.992 195.301 321.541V477.46C195.301 484.008 200.61 489.317 207.158 489.317H270.263C276.811 489.317 282.12 484.008 282.12 477.46V321.541C282.12 314.992 276.811 309.684 270.263 309.684Z" fill="#434343"/>
<path d="M270.26 309.785H207.155C200.662 309.785 195.398 315.049 195.398 321.542V477.461C195.398 483.954 200.662 489.218 207.155 489.218H270.26C276.753 489.218 282.017 483.954 282.017 477.461V321.542C282.017 315.049 276.753 309.785 270.26 309.785Z" fill="#414141"/>
<path d="M270.261 309.887H207.157C200.719 309.887 195.5 315.106 195.5 321.543V477.462C195.5 483.9 200.719 489.119 207.157 489.119H270.261C276.699 489.119 281.918 483.9 281.918 477.462V321.543C281.918 315.106 276.699 309.887 270.261 309.887Z" fill="#404040"/>
<path d="M270.262 309.984H207.158C200.775 309.984 195.602 315.158 195.602 321.541V477.459C195.602 483.842 200.775 489.016 207.158 489.016H270.262C276.645 489.016 281.818 483.842 281.818 477.459V321.541C281.818 315.158 276.645 309.984 270.262 309.984Z" fill="#3E3E3E"/>
<path d="M270.263 310.086H207.159C200.832 310.086 195.703 315.215 195.703 321.542V477.46C195.703 483.787 200.832 488.916 207.159 488.916H270.263C276.59 488.916 281.719 483.787 281.719 477.46V321.542C281.719 315.215 276.59 310.086 270.263 310.086Z" fill="#3D3D3D"/>
<path d="M270.263 310.188H207.16C200.889 310.188 195.805 315.272 195.805 321.543V477.46C195.805 483.731 200.889 488.815 207.16 488.815H270.263C276.534 488.815 281.618 483.731 281.618 477.46V321.543C281.618 315.272 276.534 310.188 270.263 310.188Z" fill="#3B3B3B"/>
<path d="M270.26 310.285H207.157C200.941 310.285 195.902 315.324 195.902 321.54V477.457C195.902 483.673 200.941 488.712 207.157 488.712H270.26C276.476 488.712 281.515 483.673 281.515 477.457V321.54C281.515 315.324 276.476 310.285 270.26 310.285Z" fill="#3A3A3A"/>
<path d="M270.261 310.387H207.159C200.998 310.387 196.004 315.381 196.004 321.542V477.458C196.004 483.619 200.998 488.613 207.159 488.613H270.261C276.422 488.613 281.416 483.619 281.416 477.458V321.542C281.416 315.381 276.422 310.387 270.261 310.387Z" fill="#393939"/>
<path d="M270.259 310.488H207.156C201.051 310.488 196.102 315.438 196.102 321.543V477.46C196.102 483.565 201.051 488.514 207.156 488.514H270.259C276.364 488.514 281.313 483.565 281.313 477.46V321.543C281.313 315.438 276.364 310.488 270.259 310.488Z" fill="#373737"/>
<path d="M270.26 310.59H207.157C201.107 310.59 196.203 315.494 196.203 321.544V477.461C196.203 483.511 201.107 488.415 207.157 488.415H270.26C276.31 488.415 281.214 483.511 281.214 477.461V321.544C281.214 315.494 276.31 310.59 270.26 310.59Z" fill="#363636"/>
<path d="M270.261 310.691H207.158C201.164 310.691 196.305 315.551 196.305 321.545V477.462C196.305 483.456 201.164 488.316 207.158 488.316H270.261C276.255 488.316 281.115 483.456 281.115 477.462V321.545C281.115 315.551 276.255 310.691 270.261 310.691Z" fill="#343434"/>
<path d="M270.262 310.789H207.158C201.22 310.789 196.406 315.603 196.406 321.541V477.459C196.406 483.397 201.22 488.211 207.158 488.211H270.262C276.2 488.211 281.014 483.397 281.014 477.459V321.541C281.014 315.603 276.2 310.789 270.262 310.789Z" fill="#333333"/>
<path d="M270.263 310.891H207.159C201.277 310.891 196.508 315.659 196.508 321.542V477.46C196.508 483.343 201.277 488.112 207.159 488.112H270.263C276.146 488.112 280.915 483.343 280.915 477.46V321.542C280.915 315.659 276.146 310.891 270.263 310.891Z" fill="#313131"/>
<path d="M270.261 310.992H207.156C201.329 310.992 196.605 315.716 196.605 321.543V477.462C196.605 483.289 201.329 488.012 207.156 488.012H270.261C276.088 488.012 280.812 483.289 280.812 477.462V321.543C280.812 315.716 276.088 310.992 270.261 310.992Z" fill="#303030"/>
<path d="M270.262 311.09H207.158C201.386 311.09 196.707 315.769 196.707 321.54V477.459C196.707 483.231 201.386 487.909 207.158 487.909H270.262C276.034 487.909 280.712 483.231 280.712 477.459V321.54C280.712 315.769 276.034 311.09 270.262 311.09Z" fill="#2F2F2F"/>
<path d="M270.259 311.191H207.155C201.439 311.191 196.805 315.825 196.805 321.542V477.46C196.805 483.176 201.439 487.81 207.155 487.81H270.259C275.975 487.81 280.609 483.176 280.609 477.46V321.542C280.609 315.825 275.975 311.191 270.259 311.191Z" fill="#2D2D2D"/>
<path d="M270.26 311.293H207.156C201.495 311.293 196.906 315.882 196.906 321.543V477.461C196.906 483.122 201.495 487.711 207.156 487.711H270.26C275.921 487.711 280.51 483.122 280.51 477.461V321.543C280.51 315.882 275.921 311.293 270.26 311.293Z" fill="#2C2C2C"/>
<path d="M270.26 311.391H207.157C201.552 311.391 197.008 315.935 197.008 321.54V477.457C197.008 483.062 201.552 487.606 207.157 487.606H270.26C275.865 487.606 280.409 483.062 280.409 477.457V321.54C280.409 315.935 275.865 311.391 270.26 311.391Z" fill="#2A2A2A"/>
<path d="M270.261 311.492H207.158C201.608 311.492 197.109 315.991 197.109 321.541V477.458C197.109 483.008 201.608 487.507 207.158 487.507H270.261C275.811 487.507 280.31 483.008 280.31 477.458V321.541C280.31 315.991 275.811 311.492 270.261 311.492Z" fill="#292929"/>
<path d="M270.262 311.594H207.16C201.665 311.594 197.211 316.048 197.211 321.542V477.459C197.211 482.954 201.665 487.408 207.16 487.408H270.262C275.757 487.408 280.211 482.954 280.211 477.459V321.542C280.211 316.048 275.757 311.594 270.262 311.594Z" fill="#272727"/>
<path d="M270.26 311.695H207.157C201.718 311.695 197.309 316.105 197.309 321.544V477.46C197.309 482.899 201.718 487.309 207.157 487.309H270.26C275.699 487.309 280.108 482.899 280.108 477.46V321.544C280.108 316.105 275.699 311.695 270.26 311.695Z" fill="#262626"/>
<path d="M270.259 310.112C273.29 310.116 276.195 311.321 278.338 313.464C280.481 315.607 281.687 318.512 281.69 321.543V477.461C281.687 480.492 280.481 483.398 278.338 485.54C276.195 487.683 273.29 488.889 270.259 488.892H207.157C204.126 488.889 201.22 487.683 199.077 485.541C196.934 483.398 195.728 480.492 195.725 477.461V321.543C195.728 318.512 196.934 315.607 199.077 313.464C201.22 311.321 204.126 310.116 207.157 310.112H270.259ZM270.259 309.461H207.157C203.955 309.465 200.885 310.739 198.621 313.004C196.357 315.268 195.083 318.337 195.078 321.539V477.458C195.083 480.66 196.357 483.73 198.621 485.994C200.885 488.258 203.955 489.532 207.157 489.537H270.259C273.461 489.532 276.531 488.258 278.795 485.994C281.059 483.73 282.333 480.66 282.338 477.458V321.543C282.333 318.341 281.059 315.271 278.795 313.007C276.531 310.743 273.461 309.469 270.259 309.464V309.461Z" fill="#2D2C2C"/>
<mask id="mask0_66_6772" style="mask-type:luminance" maskUnits="userSpaceOnUse" x="198" y="313" width="81" height="173">
<path d="M270.259 313.277H262.055C261.801 313.277 261.558 313.378 261.379 313.557C261.2 313.736 261.099 313.978 261.098 314.232V314.351C261.1 315.062 260.96 315.767 260.689 316.425C260.417 317.083 260.019 317.68 259.516 318.184C259.013 318.688 258.416 319.087 257.759 319.36C257.101 319.632 256.397 319.773 255.685 319.773H221.464C220.028 319.773 218.651 319.202 217.636 318.187C216.621 317.172 216.051 315.795 216.051 314.359V314.24C216.051 313.987 215.95 313.744 215.771 313.565C215.592 313.386 215.349 313.286 215.096 313.286H207.157C206.071 313.286 204.996 313.499 203.994 313.914C202.991 314.33 202.079 314.938 201.312 315.706C200.544 316.473 199.935 317.384 199.52 318.387C199.104 319.39 198.891 320.465 198.891 321.55V477.469C198.891 478.554 199.104 479.629 199.52 480.632C199.935 481.635 200.544 482.546 201.312 483.313C202.079 484.081 202.991 484.689 203.994 485.105C204.996 485.52 206.071 485.734 207.157 485.733H270.259C272.451 485.733 274.553 484.863 276.103 483.313C277.653 481.763 278.524 479.661 278.524 477.469V321.542C278.524 319.35 277.653 317.248 276.103 315.698C274.553 314.148 272.451 313.277 270.259 313.277Z" fill="white"/>
</mask>
<g mask="url(#mask0_66_6772)">
<path d="M278.528 313.277H198.895V485.725H278.528V313.277Z" fill="#9EA6FF"/>
<path d="M198.726 485.894V349.216H197.586C198.266 348.157 198.947 347.097 199.627 346.035C201.01 343.914 202.428 341.795 203.88 339.676C206.789 335.444 209.839 331.229 213.028 327.031C216.217 322.834 219.467 318.769 222.779 314.839C223.193 314.347 223.607 313.858 224.021 313.37C224.226 313.125 224.433 312.882 224.642 312.641V313.11H278.699V465.027H279.72C278.844 465.739 277.969 466.441 277.093 467.134C273.589 469.903 270.089 472.512 266.595 474.959C263.101 477.407 259.627 479.685 256.174 481.795C254.447 482.849 252.728 483.86 251.014 484.828C250.156 485.311 249.302 485.783 248.45 486.245V485.894H198.726Z" fill="#9EA6FF"/>
<path d="M198.726 485.894V349.439H198.34C199.007 348.389 199.683 347.339 200.368 346.288C201.738 344.189 203.142 342.09 204.582 339.993C207.46 335.804 210.478 331.632 213.635 327.478C216.793 323.323 220.007 319.3 223.278 315.408C224.094 314.435 224.914 313.471 225.738 312.516V313.106H278.7V464.057H279.627C278.761 464.761 277.895 465.456 277.027 466.141C273.56 468.881 270.097 471.462 266.638 473.885C260.094 478.501 253.251 482.679 246.156 486.392V485.894H198.726Z" fill="#9FA7FF"/>
<path d="M198.724 485.894V351.22H198.109C198.434 350.701 198.762 350.181 199.093 349.662C199.753 348.622 200.421 347.582 201.098 346.544C202.459 344.467 203.849 342.392 205.268 340.317C208.118 336.171 211.105 332.043 214.228 327.932C217.352 323.822 220.532 319.841 223.77 315.988C224.58 315.025 225.392 314.07 226.205 313.123L226.817 312.414V313.106H278.704V463.086H279.537C278.68 463.781 277.822 464.469 276.963 465.148C273.532 467.86 270.105 470.412 266.683 472.803C260.207 477.371 253.436 481.506 246.413 485.18C245.583 485.611 244.755 486.03 243.93 486.439V485.886L198.724 485.894Z" fill="#A0A7FE"/>
<path d="M198.725 485.892V352.966H197.91C202.995 344.738 208.64 336.507 214.82 328.381C217.911 324.317 221.058 320.378 224.262 316.562C225.056 315.61 225.859 314.665 226.671 313.728C227.073 313.259 227.477 312.792 227.882 312.328V313.104H278.699V462.11H279.437C278.59 462.801 277.739 463.482 276.885 464.152C273.489 466.836 270.098 469.364 266.712 471.736C260.304 476.256 253.604 480.348 246.656 483.985C245.013 484.836 243.379 485.645 241.755 486.41V485.9L198.725 485.892Z" fill="#A1A8FE"/>
<path d="M198.726 485.891V353.155H198.684C203.716 345.015 209.299 336.871 215.415 328.828C218.477 324.808 221.59 320.911 224.755 317.135C225.548 316.193 226.342 315.258 227.136 314.33C227.536 313.867 227.934 313.406 228.327 312.945V313.1H278.683V461.139H279.327C278.487 461.819 277.647 462.492 276.808 463.158C273.45 465.814 270.095 468.315 266.744 470.66C260.404 475.132 253.775 479.18 246.901 482.776C245.274 483.62 243.658 484.42 242.052 485.177C241.249 485.557 240.449 485.924 239.652 486.279V485.891H198.726Z" fill="#A2A8FD"/>
<path d="M198.728 485.894V356.368H197.617C198.223 355.361 198.836 354.354 199.458 353.348C204.436 345.295 209.959 337.24 216.009 329.285C219.034 325.307 222.114 321.451 225.25 317.717C226.815 315.852 228.392 314.018 229.981 312.215V313.105H278.702V460.168H279.251C278.421 460.849 277.59 461.515 276.759 462.166C273.437 464.792 270.118 467.266 266.803 469.588C260.531 474.011 253.974 478.015 247.173 481.573C243.958 483.242 240.782 484.739 237.646 486.064V485.894H198.728Z" fill="#A3A9FD"/>
<path d="M198.724 484.733V356.517H198.406C199.005 355.52 199.612 354.524 200.228 353.53C205.152 345.565 210.616 337.596 216.599 329.728C219.59 325.795 222.636 321.981 225.738 318.288C227.288 316.442 228.849 314.628 230.419 312.844V313.097H278.698V459.19H279.154C278.332 459.857 277.51 460.515 276.689 461.165C273.4 463.762 270.117 466.209 266.841 468.507C260.637 472.883 254.151 476.844 247.425 480.365C244.243 482.015 241.101 483.495 237.998 484.806C236.449 485.461 234.912 486.072 233.388 486.64V485.888H198.724V484.733Z" fill="#A4AAFC"/>
<path d="M198.727 483.481V358.157H198.32C198.613 357.664 198.907 357.172 199.202 356.68C199.794 355.696 200.394 354.711 201.003 353.725C205.872 345.849 211.277 337.967 217.193 330.186C220.151 326.295 223.165 322.523 226.234 318.871C227.765 317.045 229.308 315.251 230.863 313.489C231.25 313.049 231.639 312.61 232.03 312.172V313.106H278.7V458.227H279.061C278.249 458.887 277.436 459.538 276.623 460.18C273.373 462.749 270.126 465.167 266.884 467.435C260.748 471.767 254.333 475.688 247.681 479.174C241.386 482.437 235.236 485.038 229.308 486.93V485.909H198.727V483.481Z" fill="#A6AAFC"/>
<path d="M198.724 482.236V359.749H198.262C199.396 357.803 200.566 355.856 201.773 353.909C206.589 346.117 211.933 338.324 217.785 330.63C220.711 326.783 223.69 323.053 226.723 319.441C228.239 317.636 229.765 315.862 231.301 314.118C231.685 313.682 232.07 313.249 232.456 312.816V313.099H278.698V457.247H278.965C278.16 457.9 277.356 458.544 276.554 459.179C273.339 461.721 270.128 464.115 266.922 466.36C260.854 470.639 254.511 474.512 247.933 477.956C241.71 481.188 235.627 483.755 229.771 485.625C228.308 486.093 226.86 486.517 225.427 486.895V485.887H198.718L198.724 482.236Z" fill="#A7ABFB"/>
<path d="M198.723 480.976V361.32H198.234C198.511 360.84 198.79 360.36 199.071 359.879C200.195 357.951 201.353 356.026 202.544 354.104C207.307 346.401 212.589 338.694 218.375 331.086C221.268 327.283 224.217 323.597 227.221 320.029C228.718 318.244 230.227 316.489 231.748 314.765C232.507 313.904 233.268 313.05 234.033 312.203V313.11H278.696V456.286H278.866C278.072 456.933 277.278 457.57 276.485 458.197C273.309 460.709 270.133 463.075 266.958 465.296C260.958 469.527 254.686 473.358 248.182 476.762C242.03 479.952 236.013 482.495 230.225 484.346C227.432 485.245 224.592 485.995 221.719 486.595V485.898H198.723V480.976Z" fill="#A8ABFB"/>
<path d="M198.725 479.724V362.851H198.244C198.782 361.902 199.33 360.952 199.887 360C200.998 358.098 202.143 356.195 203.32 354.291C208.025 346.676 213.25 339.058 218.971 331.536C221.83 327.775 224.744 324.13 227.712 320.6C229.186 318.837 230.677 317.103 232.184 315.398C232.935 314.545 233.688 313.7 234.443 312.863V313.105H278.699V455.31H278.777C277.991 455.949 277.205 456.578 276.419 457.198C273.277 459.682 270.139 462.022 267.004 464.218C261.073 468.4 254.872 472.187 248.441 475.553C236.277 481.861 224.651 485.612 214.288 486.44C209.104 486.85 204.237 486.527 199.776 485.42C199.218 485.282 198.667 485.133 198.121 484.97H198.725V479.724Z" fill="#A9ACFA"/>
<path d="M198.726 478.474V364.355H198.282C198.544 363.886 198.808 363.416 199.076 362.947C199.608 362.008 200.149 361.068 200.699 360.128C201.798 358.247 202.932 356.367 204.101 354.485C208.754 346.957 213.917 339.426 219.572 331.99C222.391 328.268 225.267 324.664 228.202 321.179C229.665 319.436 231.14 317.721 232.626 316.036C233.367 315.195 234.112 314.36 234.859 313.532C235.233 313.118 235.608 312.706 235.982 312.297V313.107H278.699V453.386H279.847L278.682 454.34C277.906 454.972 277.13 455.596 276.353 456.212C273.247 458.666 270.144 460.979 267.046 463.149C261.183 467.284 255.053 471.026 248.697 474.353C236.671 480.588 225.179 484.297 214.935 485.107C209.812 485.513 205 485.193 200.59 484.103C200.039 483.967 199.494 483.819 198.955 483.659C198.685 483.578 198.418 483.495 198.152 483.409H198.726V478.474Z" fill="#AAADFA"/>
<path d="M198.726 477.217V365.817H198.35C200.392 362.111 202.564 358.395 204.866 354.671C209.459 347.23 214.563 339.787 220.158 332.438C222.952 328.764 225.797 325.203 228.695 321.753C230.142 320.03 231.599 318.335 233.067 316.669C233.802 315.836 234.539 315.011 235.278 314.194C235.647 313.786 236.017 313.379 236.388 312.973V313.104H278.7V452.432H279.739C279.357 452.747 278.974 453.061 278.589 453.373C277.82 453.998 277.053 454.614 276.286 455.22C273.217 457.646 270.151 459.932 267.088 462.076C261.292 466.163 255.234 469.862 248.951 473.151C237.07 479.306 225.707 482.97 215.582 483.765C210.519 484.165 205.764 483.85 201.404 482.773C200.313 482.504 199.249 482.187 198.211 481.822H198.721L198.726 477.217Z" fill="#ABADF9"/>
<path d="M198.725 475.968V368.622H197.704C198.193 367.709 198.69 366.795 199.194 365.878C201.215 362.216 203.362 358.544 205.635 354.863C210.179 347.51 215.223 340.154 220.745 332.894C226.267 325.633 232.014 318.804 237.885 312.457V313.102H278.698V451.461H279.631C279.251 451.774 278.871 452.084 278.492 452.391C277.734 453.009 276.976 453.618 276.218 454.217C273.183 456.614 270.153 458.873 267.127 460.992C261.4 465.031 255.413 468.686 249.205 471.936C237.458 478.027 226.238 481.648 216.227 482.441C211.224 482.836 206.53 482.525 202.216 481.46C201.138 481.194 200.086 480.881 199.06 480.521C198.546 480.338 198.039 480.145 197.539 479.942H198.73L198.725 475.968Z" fill="#ACAEF9"/>
<path d="M198.727 474.715V368.646H198.575C199.058 367.745 199.55 366.841 200.05 365.935C202.046 362.316 204.167 358.686 206.413 355.047C210.902 347.781 215.887 340.514 221.344 333.338C226.802 326.162 232.477 319.431 238.276 313.155C238.639 312.761 239.002 312.371 239.365 311.984V313.105H278.7V450.503H279.523C279.149 450.813 278.774 451.119 278.399 451.423C277.65 452.032 276.901 452.634 276.152 453.227C273.154 455.595 270.16 457.826 267.169 459.921C261.511 463.912 255.595 467.525 249.46 470.735C237.854 476.754 226.764 480.332 216.875 481.113C211.931 481.504 207.289 481.196 203.032 480.145C201.967 479.881 200.927 479.57 199.912 479.214C199.405 479.037 198.905 478.847 198.41 478.644H198.727V474.715Z" fill="#ADAEF8"/>
<path d="M198.726 473.462V371.345H198.034C198.958 369.566 199.913 367.781 200.899 365.992C202.871 362.418 204.969 358.834 207.193 355.24C211.63 348.063 216.55 340.882 221.946 333.793C227.342 326.704 232.941 320.041 238.672 313.848C239.032 313.46 239.391 313.075 239.749 312.691V313.105H278.706V449.541H279.423C279.052 449.847 278.682 450.151 278.312 450.451C277.572 451.054 276.832 451.647 276.09 452.233C273.128 454.573 270.17 456.778 267.217 458.847C261.626 462.789 255.782 466.358 249.721 469.53C238.255 475.485 227.298 479.011 217.53 479.785C212.644 480.171 208.057 479.867 203.852 478.827C201.783 478.321 199.77 477.613 197.84 476.713H198.733L198.726 473.462Z" fill="#AEAFF8"/>
<path d="M198.724 472.21V373.972H197.57C198.011 373.095 198.46 372.218 198.916 371.339C199.823 369.58 200.766 367.817 201.745 366.051C203.692 362.519 205.762 358.978 207.954 355.429C212.337 348.338 217.2 341.246 222.527 334.244C227.853 327.242 233.389 320.658 239.051 314.542C239.758 313.777 240.468 313.019 241.179 312.27V313.105H278.697V448.582H279.305C278.939 448.883 278.574 449.183 278.207 449.48C277.477 450.074 276.746 450.661 276.014 451.239C273.088 453.552 270.166 455.73 267.248 457.773C261.725 461.665 255.952 465.189 249.966 468.321C238.639 474.193 227.816 477.677 218.167 478.45C213.342 478.831 208.81 478.531 204.656 477.504C202.613 477.005 200.624 476.305 198.719 475.415L198.724 472.21Z" fill="#AFB0F7"/>
<path d="M198.724 470.959V373.934H198.473C198.908 373.068 199.351 372.201 199.801 371.333C200.703 369.596 201.635 367.855 202.596 366.111C204.524 362.622 206.566 359.125 208.721 355.619C213.048 348.617 217.853 341.612 223.113 334.694C228.373 327.777 233.839 321.277 239.431 315.236C240.129 314.481 240.83 313.733 241.533 312.992V313.104H278.698V447.622H279.198C278.835 447.92 278.474 448.216 278.114 448.508C277.392 449.097 276.669 449.676 275.947 450.247C273.058 452.53 270.173 454.681 267.29 456.7C261.836 460.546 256.133 464.028 250.22 467.123C239.034 472.924 228.344 476.372 218.814 477.128C214.05 477.504 209.573 477.208 205.47 476.194C203.452 475.7 201.488 475.008 199.606 474.13C199.141 473.912 198.683 473.685 198.234 473.45H198.724V470.959Z" fill="#B0B0F7"/>
<path d="M198.723 469.706V376.456H198.109C204.744 362.813 213.323 348.808 223.712 335.148C228.906 328.317 234.305 321.899 239.827 315.933C240.518 315.185 241.21 314.448 241.905 313.721L242.946 312.629V313.112H278.696V446.662H279.086C278.731 446.956 278.374 447.248 278.016 447.538C277.303 448.118 276.589 448.69 275.876 449.254C273.026 451.509 270.177 453.633 267.329 455.627C261.943 459.425 256.312 462.863 250.474 465.919C239.428 471.647 228.868 475.053 219.459 475.798C214.753 476.171 210.334 475.878 206.281 474.876C204.291 474.387 202.354 473.704 200.497 472.835C199.583 472.405 198.692 471.929 197.828 471.407H198.73L198.723 469.706Z" fill="#B1B1F6"/>
<path d="M198.725 468.458V378.906H197.82C198.215 378.067 198.616 377.227 199.025 376.385C205.573 362.919 214.05 349.086 224.31 335.594C229.437 328.85 234.769 322.512 240.221 316.622C241.582 315.148 242.952 313.703 244.331 312.289V313.102H278.695V445.702H278.98C278.627 445.992 278.275 446.281 277.923 446.567C277.219 447.139 276.515 447.706 275.81 448.268C272.993 450.494 270.179 452.592 267.369 454.562C262.052 458.309 256.493 461.701 250.729 464.715C239.823 470.372 229.401 473.731 220.108 474.47C215.462 474.837 211.091 474.546 207.099 473.558C205.131 473.078 203.216 472.404 201.381 471.547C200.478 471.123 199.598 470.653 198.744 470.139C198.532 470.009 198.32 469.877 198.11 469.742H198.725V468.458Z" fill="#B2B1F6"/>
<path d="M198.722 467.199V381.278H197.598C198.346 379.628 199.124 377.972 199.932 376.31C206.396 363.015 214.764 349.36 224.89 336.046C229.953 329.389 235.216 323.132 240.597 317.318C241.943 315.862 243.296 314.436 244.656 313.039V313.104H278.696V444.738H278.866C278.526 445.023 278.172 445.309 277.823 445.588C277.129 446.155 276.434 446.713 275.737 447.261C272.956 449.458 270.178 451.529 267.401 453.472C262.152 457.176 256.664 460.529 250.973 463.509C240.206 469.092 229.917 472.413 220.743 473.138C216.149 473.5 211.849 473.214 207.9 472.239C205.958 471.764 204.067 471.099 202.256 470.252C201.365 469.835 200.496 469.371 199.654 468.862C199.233 468.607 198.818 468.341 198.411 468.065H198.714L198.722 467.199Z" fill="#B3B2F5"/>
<path d="M198.726 465.948V381.141H198.556C199.294 379.515 200.062 377.881 200.861 376.24C207.24 363.118 215.5 349.64 225.494 336.498C230.491 329.928 235.684 323.752 240.997 318.013C242.325 316.577 243.66 315.169 245.002 313.79C245.342 313.45 245.682 313.11 246.009 312.77V313.11H278.699V442.929H279.795C278.424 444.068 277.054 445.183 275.686 446.271C272.941 448.441 270.199 450.482 267.461 452.396C262.28 456.049 256.862 459.357 251.245 462.297C229.992 473.319 210.624 475.404 198.18 465.941L198.726 465.948Z" fill="#B5B3F5"/>
<path d="M199.132 464.696C198.75 464.404 198.374 464.103 198.008 463.793H198.733V383.41H198.44C198.788 382.607 199.143 381.808 199.503 381.014C200.234 379.408 200.992 377.796 201.778 376.176C208.072 363.228 216.224 349.927 226.086 336.958C231.02 330.475 236.144 324.38 241.387 318.716C242.697 317.301 244.014 315.912 245.339 314.55C246 313.87 246.663 313.195 247.329 312.527V313.114H278.699V441.975H279.674C278.32 443.109 276.966 444.211 275.612 445.279C272.903 447.419 270.198 449.436 267.495 451.328C262.382 454.935 257.036 458.199 251.492 461.1C230.518 471.978 211.406 474.036 199.132 464.696Z" fill="#B6B3F5"/>
<path d="M200.08 463.445C199.325 462.871 198.602 462.257 197.914 461.606H198.727V385.608H198.387C199.709 382.468 201.147 379.299 202.701 376.102C208.912 363.326 216.956 350.203 226.688 337.406C231.554 331.008 236.611 324.996 241.783 319.408C243.076 318.01 244.376 316.64 245.684 315.296C246.335 314.625 246.989 313.961 247.647 313.302C247.975 312.974 248.304 312.645 248.632 312.32V313.111H278.701V441.026H279.551C278.215 442.142 276.879 443.229 275.543 444.286C272.872 446.399 270.204 448.388 267.537 450.254C262.493 453.812 257.218 457.032 251.749 459.894C231.053 470.629 212.196 472.659 200.08 463.445Z" fill="#B7B4F4"/>
<path d="M201.031 462.189C200.287 461.624 199.573 461.019 198.894 460.377C198.554 460.057 198.224 459.727 197.902 459.39H198.726V387.717H198.399C198.712 386.947 199.031 386.175 199.357 385.4C200.66 382.303 202.078 379.177 203.61 376.023C209.734 363.419 217.672 350.473 227.27 337.85C232.071 331.538 237.059 325.601 242.163 320.094C244.714 317.338 247.291 314.688 249.891 312.145V313.104H278.699V440.075H279.429C278.112 441.176 276.794 442.248 275.475 443.29C272.839 445.375 270.205 447.338 267.575 449.18C262.598 452.689 257.395 455.866 251.999 458.689C231.586 469.276 212.984 471.28 201.031 462.189Z" fill="#B8B4F4"/>
<path d="M201.98 460.938C200.512 459.823 199.168 458.554 197.969 457.153H198.722V389.758H198.484C199.072 388.248 199.686 386.729 200.328 385.201C201.614 382.146 203.013 379.062 204.525 375.952C210.568 363.521 218.393 350.753 227.862 338.302C232.597 332.078 237.517 326.224 242.549 320.79C245.067 318.068 247.608 315.455 250.174 312.949V313.106H278.696V439.127H279.305C278.007 440.213 276.708 441.27 275.406 442.298C272.806 444.353 270.209 446.289 267.614 448.106C262.706 451.568 257.574 454.702 252.252 457.487C232.117 467.929 213.768 469.904 201.98 460.938Z" fill="#B9B5F3"/>
<path d="M202.933 459.687C201.487 458.586 200.162 457.335 198.98 455.955C198.682 455.614 198.394 455.257 198.115 454.895H198.724V393.944H197.84C200.036 387.788 202.575 381.76 205.444 375.888C211.398 363.63 219.12 351.038 228.456 338.761C233.126 332.623 237.983 326.852 242.94 321.492C245.422 318.811 247.928 316.233 250.458 313.76C251.091 313.143 251.724 312.531 252.357 311.926V313.117H278.698V438.175H279.186C277.905 439.245 276.623 440.287 275.342 441.302C272.776 443.328 270.215 445.237 267.657 447.03C262.82 450.444 257.762 453.533 252.516 456.28C232.653 466.585 214.559 468.528 202.933 459.687Z" fill="#BAB5F3"/>
<path d="M203.893 458.434C202.463 457.349 201.151 456.116 199.981 454.754C199.398 454.073 198.847 453.361 198.327 452.617H198.718V395.775H198.109C198.352 395.055 198.602 394.333 198.86 393.609C201.026 387.54 203.53 381.597 206.36 375.808C212.236 363.729 219.844 351.311 229.049 339.203C233.642 333.152 238.436 327.465 243.329 322.178C245.775 319.534 248.246 316.993 250.741 314.554C251.364 313.945 251.988 313.343 252.612 312.746V313.105H278.697V437.228H279.063C277.8 438.284 276.537 439.312 275.273 440.311C272.745 442.31 270.219 444.192 267.697 445.957C262.925 449.323 257.936 452.369 252.762 455.077C233.186 465.223 215.348 467.151 203.893 458.434Z" fill="#BBB6F2"/>
<path d="M204.84 457.182C202.009 455.01 199.657 452.278 197.93 449.156H198.726V397.538H198.452C198.906 396.132 199.384 394.714 199.888 393.285C202.023 387.304 204.491 381.447 207.279 375.741C213.072 363.832 220.568 351.584 229.645 339.656C234.181 333.69 238.896 328.088 243.719 322.872C246.132 320.264 248.567 317.759 251.026 315.358C251.639 314.757 252.255 314.163 252.872 313.575C253.18 313.281 253.488 312.99 253.795 312.699V313.106H278.699V436.273H278.944C277.697 437.314 276.449 438.327 275.202 439.311C272.707 441.281 270.218 443.137 267.735 444.878C263.031 448.195 258.113 451.198 253.013 453.867C233.721 463.88 216.144 465.773 204.84 457.182Z" fill="#BCB7F2"/>
<path d="M205.791 455.93C203.003 453.789 200.687 451.096 198.986 448.02C198.545 447.237 198.135 446.426 197.758 445.585H198.729V401.278H198.246C199.023 398.556 199.912 395.782 200.912 392.957C203.015 387.062 205.447 381.288 208.195 375.664C213.902 363.926 221.294 351.864 230.235 340.109C234.706 334.23 239.354 328.711 244.107 323.568C246.489 321.002 248.889 318.533 251.307 316.163C252.518 314.979 253.732 313.821 254.951 312.688V313.108H278.698V435.331H278.822C277.594 436.351 276.366 437.349 275.139 438.325C272.682 440.266 270.229 442.095 267.779 443.811C263.143 447.08 258.296 450.04 253.27 452.669C234.254 462.531 216.925 464.397 205.791 455.93Z" fill="#BDB7F1"/>
<path d="M206.746 454.675C203.997 452.566 201.713 449.912 200.036 446.88C199.148 445.293 198.4 443.632 197.801 441.916H198.726V404.83H198.245C198.573 403.51 198.928 402.178 199.311 400.835C200.078 398.148 200.954 395.414 201.938 392.636C204.011 386.827 206.407 381.139 209.114 375.598C214.738 364.03 222.021 352.149 230.831 340.564C235.236 334.771 239.815 329.325 244.499 324.266C246.84 321.737 249.204 319.305 251.593 316.97C252.785 315.803 253.981 314.662 255.182 313.547C255.482 313.268 255.783 312.99 256.082 312.715V313.111H278.708V434.38C277.5 435.39 276.291 436.374 275.08 437.33C272.66 439.242 270.244 441.043 267.829 442.734C263.263 445.956 258.489 448.871 253.539 451.463C234.79 461.18 217.715 463.019 206.746 454.675Z" fill="#BEB8F1"/>
<path d="M207.697 453.424C204.989 451.348 202.739 448.735 201.086 445.749C200.213 444.185 199.477 442.549 198.885 440.859C198.579 439.991 198.302 439.096 198.055 438.177H198.725V408.171H198.436C202.73 387.828 214.065 363.832 231.422 341.009C235.762 335.303 240.268 329.939 244.885 324.955C247.192 322.46 249.522 320.064 251.874 317.767C253.05 316.619 254.229 315.495 255.411 314.395C256 313.845 256.592 313.302 257.185 312.766V313.106H278.698V432.68H279.473L278.578 433.432C277.387 434.427 276.196 435.395 275.005 436.338C272.623 438.222 270.242 439.997 267.86 441.662C263.361 444.833 258.657 447.703 253.779 450.253C235.323 459.833 218.503 461.651 207.697 453.424Z" fill="#BFB8F0"/>
<path d="M208.66 452.17C203.338 448.123 200.001 441.99 198.522 434.365H198.735V421.88H197.684C197.9 417.077 198.52 412.301 199.538 407.602C203.767 387.567 214.93 363.935 232.031 341.457C240.578 330.218 249.8 320.33 259.157 312.074V313.095H278.72V431.738H279.358C279.066 431.987 278.773 432.234 278.479 432.478C277.298 433.461 276.118 434.415 274.939 435.342C272.591 437.197 270.246 438.945 267.904 440.585C263.473 443.713 258.84 446.544 254.036 449.06C235.859 458.481 219.294 460.264 208.66 452.17Z" fill="#C0B9F0"/>
<path d="M209.599 450.92C204.361 446.935 201.075 440.896 199.618 433.387C198.162 425.878 198.538 416.909 200.62 407.042C204.783 387.308 215.775 364.048 232.603 341.915C241.019 330.849 250.1 321.113 259.312 312.984V313.11H278.697V430.803H279.207C278.918 431.048 278.629 431.289 278.341 431.531C277.186 432.497 276.03 433.437 274.874 434.35C272.563 436.177 270.255 437.898 267.949 439.513C263.586 442.59 259.024 445.374 254.293 447.849C236.386 457.132 220.079 458.89 209.599 450.92Z" fill="#C1BAEF"/>
<path d="M210.553 449.669C200.238 441.825 197.615 425.891 201.706 406.472C205.798 387.053 216.624 364.15 233.194 342.362C241.479 331.475 250.415 321.885 259.484 313.884C260.051 313.384 260.618 312.89 261.185 312.402V313.107H278.698V429.867H279.065C278.781 430.107 278.497 430.347 278.214 430.583C277.08 431.535 275.943 432.46 274.804 433.358C272.527 435.157 270.255 436.851 267.985 438.441C263.691 441.47 259.202 444.212 254.546 446.648C236.923 455.785 220.869 457.513 210.553 449.669Z" fill="#C2BAEF"/>
<path d="M211.506 448.417C201.355 440.697 198.774 425.015 202.806 405.906C206.838 386.796 217.487 364.255 233.793 342.813C241.947 332.095 250.742 322.662 259.667 314.787C260.225 314.294 260.783 313.808 261.342 313.328C261.621 313.087 261.901 312.849 262.181 312.613V313.107H278.698V428.213H279.768C279.209 428.693 278.65 429.167 278.091 429.634C276.971 430.57 275.852 431.48 274.733 432.364C272.494 434.135 270.257 435.802 268.023 437.366C263.797 440.347 259.377 443.045 254.794 445.443C237.458 454.436 221.657 456.137 211.506 448.417Z" fill="#C3BBEE"/>
<path d="M212.459 447.164C202.471 439.568 199.932 424.14 203.895 405.342C207.859 386.544 218.339 364.362 234.383 343.267C242.404 332.719 251.054 323.441 259.839 315.692C260.937 314.724 262.036 313.78 263.136 312.859V313.109H278.694V427.287H279.616C279.066 427.76 278.516 428.226 277.966 428.686C276.869 429.606 275.769 430.5 274.665 431.37C272.462 433.112 270.262 434.753 268.065 436.292C263.906 439.225 259.558 441.879 255.049 444.238C237.993 453.086 222.447 454.76 212.459 447.164Z" fill="#C4BBEE"/>
<path d="M213.413 445.909C203.589 438.439 201.091 423.264 204.994 404.77C208.896 386.277 219.207 364.462 234.981 343.713C242.871 333.335 251.384 324.212 260.021 316.59C261.1 315.638 262.182 314.709 263.265 313.804C263.806 313.35 264.348 312.904 264.89 312.465V313.104H278.7V426.357H279.474C278.933 426.823 278.392 427.282 277.851 427.733C276.769 428.641 275.686 429.521 274.602 430.375C272.434 432.089 270.27 433.702 268.108 435.215C264.019 438.101 259.742 440.712 255.307 443.032C238.528 451.734 223.237 453.381 213.413 445.909Z" fill="#C5BCEE"/>
<path d="M214.365 444.658C204.704 437.312 202.248 422.391 206.086 404.205C209.923 386.019 220.058 364.567 235.574 344.164C243.333 333.957 251.703 324.988 260.196 317.495C262.319 315.622 264.447 313.843 266.58 312.156V313.106H278.7V425.433H279.326C278.793 425.886 278.261 426.337 277.73 426.785C276.665 427.675 275.6 428.541 274.533 429.383C272.404 431.067 270.275 432.655 268.149 434.146C264.127 436.983 259.921 439.551 255.56 441.832C239.06 450.386 224.025 452.005 214.365 444.658Z" fill="#C6BDED"/>
<path d="M215.319 443.406C205.821 436.184 203.41 421.515 207.18 403.638C210.95 385.762 220.909 364.682 236.167 344.608C243.795 334.571 252.024 325.757 260.372 318.391C262.458 316.548 264.551 314.799 266.649 313.143C267.173 312.729 267.697 312.321 268.221 311.918V313.099H278.7V424.505H279.177C278.655 424.959 278.132 425.402 277.608 425.836C276.563 426.71 275.516 427.561 274.468 428.387C272.372 430.044 270.279 431.604 268.19 433.067C264.237 435.856 260.103 438.379 255.816 440.622C239.595 449.037 224.822 450.629 215.319 443.406Z" fill="#C8BDED"/>
<path d="M216.268 442.155C197.6 427.968 206.777 384.492 236.759 345.067C244.254 335.212 252.34 326.541 260.546 319.302C262.596 317.488 264.652 315.768 266.715 314.144C267.229 313.738 267.743 313.337 268.258 312.941V313.112H278.698V423.581H279.027C278.513 424.021 277.999 424.456 277.485 424.887C276.456 425.747 275.426 426.583 274.398 427.397C272.339 429.025 270.283 430.556 268.229 431.99C264.344 434.731 260.281 437.212 256.067 439.416C240.13 447.689 225.6 449.252 216.268 442.155Z" fill="#C9BEEC"/>
<path d="M217.218 440.895C198.881 426.945 207.894 384.244 237.35 345.51C244.713 335.827 252.661 327.307 260.719 320.196C262.733 318.419 264.753 316.73 266.779 315.13C267.792 314.336 268.803 313.56 269.812 312.801V313.098H278.696V422.651H278.876C278.37 423.084 277.865 423.512 277.36 423.935C276.356 424.779 275.343 425.601 274.322 426.4C272.299 427.999 270.279 429.506 268.262 430.919C264.445 433.611 260.453 436.048 256.313 438.213C240.659 446.338 226.387 447.869 217.218 440.895Z" fill="#CABEEC"/>
<path d="M218.174 439.648C200.163 425.95 209.015 384.008 237.945 345.968C245.179 336.458 252.981 328.091 260.898 321.106C262.878 319.361 264.863 317.702 266.852 316.13C267.846 315.344 268.839 314.582 269.831 313.842C270.328 313.472 270.824 313.108 271.32 312.75V313.106H278.701V421.724H278.732C278.237 422.151 277.742 422.572 277.245 422.986C276.25 423.811 275.257 424.62 274.264 425.414C272.277 426.985 270.293 428.464 268.31 429.852C264.559 432.496 260.638 434.89 256.572 437.018C241.196 444.986 227.18 446.495 218.174 439.648Z" fill="#CBBFEB"/>
<path d="M219.126 438.396C201.442 424.946 210.133 383.767 238.538 346.419C245.639 337.081 253.299 328.868 261.072 322.008C264.793 318.712 268.696 315.626 272.761 312.766V313.106H278.698V420.168H279.311L278.578 420.799C278.091 421.217 277.604 421.63 277.116 422.037C276.143 422.85 275.168 423.644 274.192 424.419C272.242 425.962 270.294 427.415 268.348 428.776C264.667 431.373 260.818 433.723 256.826 435.812C241.728 443.637 227.967 445.119 219.126 438.396Z" fill="#CCBFEB"/>
<path d="M220.079 437.144C202.727 423.946 211.253 383.529 239.133 346.871C246.108 337.707 253.622 329.645 261.248 322.913C264.9 319.677 268.729 316.648 272.719 313.84C273.196 313.507 273.672 313.179 274.148 312.855V313.106H278.697V418.628H279.863C272.233 425.358 264.494 430.759 257.084 434.604C242.263 442.29 228.757 443.744 220.079 437.144Z" fill="#CDC0EA"/>
<path d="M221.033 435.891C204.004 422.942 212.372 383.286 239.726 347.33C246.563 338.337 253.941 330.428 261.426 323.823C265.009 320.649 268.767 317.678 272.681 314.924C273.617 314.268 274.551 313.635 275.483 313.023V313.114H278.7V417.738H279.69C272.205 424.342 264.611 429.646 257.34 433.412C242.798 440.94 229.546 442.366 221.033 435.891Z" fill="#CEC1EA"/>
<path d="M221.983 434.638C205.283 421.937 213.491 383.054 240.317 347.771C247.025 338.952 254.267 331.195 261.601 324.716C265.116 321.604 268.801 318.69 272.64 315.987C274.475 314.702 276.302 313.505 278.12 312.395V313.104H278.7V416.819H279.515C272.172 423.298 264.724 428.495 257.593 432.193C243.332 439.588 230.335 440.988 221.983 434.638Z" fill="#CFC1E9"/>
<path d="M222.934 433.386C206.561 420.934 214.611 382.804 240.909 348.222C247.484 339.577 254.576 331.971 261.774 325.62C265.219 322.569 268.833 319.712 272.597 317.063C274.397 315.803 276.188 314.629 277.969 313.54C278.415 313.268 278.859 313.002 279.301 312.742L278.697 313.105V415.917H279.335C272.139 422.267 264.838 427.362 257.846 430.989C243.872 438.24 231.122 439.613 222.934 433.386Z" fill="#D0C2E9"/>
<path d="M223.888 432.134C207.842 419.931 215.722 382.565 241.502 348.673C247.946 340.2 254.897 332.747 261.951 326.524C265.328 323.533 268.869 320.733 272.558 318.137C274.321 316.902 276.076 315.751 277.823 314.685C278.258 314.417 278.694 314.156 279.129 313.902H278.699V415.013H279.162C272.109 421.238 264.953 426.231 258.101 429.785C244.398 436.891 231.911 438.235 223.888 432.134Z" fill="#D1C2E8"/>
<path d="M224.839 430.882C209.12 418.928 216.843 382.323 242.094 349.124C248.406 340.824 255.216 333.522 262.126 327.427C265.433 324.496 268.902 321.753 272.515 319.21C274.242 317.995 275.962 316.869 277.673 315.83C278.1 315.568 278.526 315.312 278.952 315.062H278.697V414.112H278.985C272.074 420.207 265.066 425.1 258.354 428.58C244.93 435.542 232.698 436.858 224.839 430.882Z" fill="#D2C3E8"/>
<path d="M225.79 429.629C210.399 417.93 217.963 382.084 242.679 349.576C248.86 341.449 255.528 334.299 262.294 328.33C265.534 325.459 268.932 322.772 272.472 320.281C274.163 319.095 275.847 317.991 277.523 316.969C277.942 316.714 278.359 316.464 278.775 316.219H278.695V413.204H278.808C272.042 419.174 265.178 423.963 258.606 427.372C245.462 434.194 233.493 435.483 225.79 429.629Z" fill="#D3C3E8"/>
<path d="M226.748 428.376C211.684 416.92 219.092 381.841 243.284 350.025C249.333 342.072 255.859 335.08 262.48 329.231C265.65 326.423 268.974 323.795 272.437 321.358C274.093 320.199 275.74 319.119 277.379 318.117C278.199 317.617 279.015 317.138 279.827 316.68H278.701V411.195H279.878C279.465 411.569 279.051 411.939 278.636 412.304C272.015 418.146 265.297 422.835 258.867 426.171C246.002 432.841 234.279 434.103 226.748 428.376Z" fill="#D4C4E7"/>
<path d="M227.695 427.124C212.957 415.916 220.21 381.601 243.87 350.476C249.789 342.695 256.173 335.846 262.65 330.135C265.75 327.388 269.003 324.817 272.391 322.433C274.01 321.299 275.622 320.242 277.226 319.262C278.026 318.774 278.824 318.305 279.619 317.855H278.695V410.318H279.668C279.266 410.683 278.861 411.044 278.455 411.401C271.977 417.117 265.407 421.704 259.115 424.967C246.531 431.492 235.063 432.729 227.695 427.124Z" fill="#D5C5E7"/>
<path d="M228.647 425.872C214.24 414.914 221.32 381.36 244.468 350.927C250.252 343.319 256.496 336.627 262.831 331.038C265.863 328.352 269.044 325.838 272.358 323.507C273.946 322.398 275.521 321.365 277.085 320.408C277.869 319.929 278.649 319.47 279.426 319.031H278.703V409.438H279.474C279.079 409.796 278.682 410.149 278.283 410.498C271.949 416.087 265.524 420.571 259.371 423.767C247.064 430.144 235.852 431.351 228.647 425.872Z" fill="#D6C5E6"/>
<path d="M229.6 424.62C215.519 413.911 222.436 381.12 245.062 351.378C250.715 343.944 256.815 337.403 263.006 331.942C265.969 329.317 269.076 326.859 272.313 324.581C273.862 323.498 275.402 322.488 276.934 321.553C277.699 321.085 278.462 320.637 279.22 320.207H278.7V408.559H279.268C278.882 408.909 278.496 409.255 278.109 409.597C271.919 415.058 265.64 419.44 259.628 422.558C247.598 428.795 236.641 429.974 229.6 424.62Z" fill="#D7C6E6"/>
<path d="M230.555 423.372C216.8 412.911 223.561 380.883 245.653 351.833C251.177 344.571 257.134 338.183 263.175 332.848C266.07 330.285 269.105 327.885 272.266 325.66C273.777 324.6 275.282 323.613 276.78 322.7C277.527 322.246 278.272 321.809 279.013 321.387H278.694V407.68H279.059C278.683 408.02 278.306 408.361 277.928 408.701C271.882 414.036 265.747 418.316 259.875 421.361C248.135 427.443 237.431 428.596 230.555 423.372Z" fill="#D8C6E5"/>
<path d="M231.51 422.117C218.084 411.91 224.683 380.642 246.249 352.283C251.64 345.194 257.456 338.957 263.358 333.75C266.183 331.247 269.146 328.905 272.233 326.732C273.707 325.699 275.176 324.735 276.639 323.84C277.366 323.397 278.093 322.971 278.82 322.562H278.701V406.804H278.871C278.504 407.138 278.135 407.467 277.765 407.793C271.864 413 265.877 417.178 260.144 420.152C248.671 426.098 238.223 427.224 231.51 422.117Z" fill="#D9C7E5"/>
<path d="M232.458 420.864C219.359 410.904 225.796 380.399 246.837 352.733C252.097 345.817 257.772 339.732 263.53 334.652C266.286 332.211 269.176 329.925 272.188 327.807C273.627 326.799 275.059 325.859 276.485 324.988C277.197 324.552 277.907 324.136 278.613 323.738C278.967 323.538 279.319 323.343 279.67 323.152H278.697V404.938H279.734C279.016 405.605 278.298 406.255 277.579 406.889C271.82 411.977 265.987 416.046 260.387 418.952C249.201 424.748 239.008 425.845 232.458 420.864Z" fill="#DAC7E4"/>
<path d="M233.414 419.613C220.641 409.901 226.918 380.165 247.433 353.184C252.267 346.789 257.718 340.884 263.709 335.556C266.396 333.176 269.214 330.947 272.15 328.881C273.554 327.898 274.951 326.982 276.34 326.133C277.034 325.709 277.726 325.303 278.416 324.914C278.756 324.72 279.099 324.53 279.445 324.344H278.7V404.084H279.508C278.809 404.734 278.109 405.369 277.407 405.988C271.793 410.94 266.097 414.916 260.645 417.743C249.737 423.4 239.791 424.47 233.414 419.613Z" fill="#DBC8E4"/>
<path d="M234.365 418.359C221.92 408.895 228.036 379.912 248.024 353.635C252.734 347.402 258.046 341.647 263.882 336.453C266.503 334.135 269.251 331.965 272.113 329.953C273.48 328.995 274.841 328.103 276.196 327.277C276.876 326.864 277.55 326.467 278.217 326.086C278.557 325.897 278.887 325.712 279.222 325.531H278.712V403.229H279.29C278.61 403.861 277.929 404.479 277.249 405.083C271.778 409.909 266.228 413.781 260.917 416.537C250.269 422.049 240.586 423.09 234.365 418.359Z" fill="#DCC9E3"/>
<path d="M235.315 417.108C223.199 407.892 229.155 379.681 248.617 354.086C253.203 348.019 258.375 342.416 264.057 337.36C266.607 335.102 269.281 332.988 272.066 331.028C273.398 330.094 274.723 329.225 276.042 328.42C276.7 328.019 277.356 327.633 278.01 327.264C278.337 327.08 278.662 326.9 278.988 326.723H278.698V402.375H279.038C278.38 402.992 277.716 403.594 277.046 404.18C271.728 408.879 266.328 412.657 261.15 415.333C250.803 420.699 241.375 421.714 235.315 417.108Z" fill="#DDC9E3"/>
<path d="M236.267 415.854C224.478 406.889 230.272 379.435 249.208 354.536C258.672 342.085 269.638 332.631 279.706 327.41H278.697V401.52H278.816C278.172 402.118 277.526 402.704 276.877 403.275C271.695 407.848 266.438 411.518 261.396 414.127C251.337 419.348 242.171 420.337 236.267 415.854Z" fill="#DECAE3"/>
<path d="M237.222 414.603C225.761 405.886 231.394 379.196 249.811 354.988C259.014 342.883 269.666 333.692 279.453 328.617H278.699V399.782H279.528C279.215 400.08 278.902 400.375 278.588 400.667C277.962 401.248 277.334 401.815 276.704 402.368C271.665 406.815 266.554 410.38 261.66 412.915C251.869 418 242.953 418.96 237.222 414.603Z" fill="#DFCAE2"/>
<path d="M238.174 413.349C227.04 404.882 232.513 378.954 250.396 355.439C259.339 343.68 269.691 334.752 279.199 329.82H278.699V398.952H279.272C278.967 399.242 278.662 399.526 278.358 399.803C277.749 400.37 277.139 400.923 276.528 401.463C271.633 405.781 266.661 409.246 261.914 411.711C252.405 416.651 243.741 417.59 238.174 413.349Z" fill="#E0CBE2"/>
<path d="M239.126 412.096C228.318 403.877 233.631 378.713 250.988 355.888C259.665 344.477 269.715 335.814 278.944 331.023H278.698V398.122H279.014C278.72 398.403 278.424 398.682 278.128 398.956C277.537 399.506 276.944 400.043 276.35 400.567C271.6 404.759 266.781 408.122 262.167 410.514C252.938 415.299 244.529 416.206 239.126 412.096Z" fill="#E1CBE1"/>
<path d="M240.081 410.845C229.602 402.877 234.751 378.473 251.585 356.347C260.001 345.289 269.743 336.877 278.692 332.236C278.973 332.091 279.252 331.95 279.529 331.812H278.7V396.475H279.615C278.481 397.589 277.335 398.654 276.177 399.672C271.572 403.736 266.899 406.997 262.423 409.318C253.475 413.952 245.321 414.829 240.081 410.845Z" fill="#E2CCE1"/>
<path d="M241.03 409.595C230.879 401.873 235.877 378.233 252.174 356.791C260.328 346.073 269.767 337.93 278.436 333.433C278.707 333.293 278.977 333.156 279.246 333.023H278.698V395.665H279.331C278.227 396.745 277.117 397.777 276 398.761C271.537 402.7 267.009 405.852 262.676 408.106C254.007 412.602 246.106 413.453 241.03 409.595Z" fill="#E3CCE0"/>
<path d="M241.983 408.34C232.16 400.869 236.988 377.991 252.768 357.241C260.659 346.864 269.792 338.987 278.181 334.637C278.707 334.365 279.229 334.107 279.746 333.863H278.698V394.862H279.038C277.972 395.906 276.898 396.905 275.816 397.859C271.497 401.668 267.116 404.725 262.921 406.901C254.541 411.253 246.896 412.076 241.983 408.34Z" fill="#E4CDE0"/>
<path d="M242.935 407.089C233.439 399.865 238.105 377.751 253.36 357.693C260.987 347.655 269.817 340.048 277.927 335.842C278.434 335.578 278.938 335.329 279.439 335.094H278.698V394.059H278.764C277.731 395.068 276.693 396.033 275.649 396.951C271.474 400.634 267.238 403.586 263.184 405.692C255.073 409.904 247.683 410.699 242.935 407.089Z" fill="#E5CEDF"/>
<path d="M243.887 405.834C234.717 398.859 239.224 377.509 253.953 358.142C261.316 348.459 269.842 341.106 277.673 337.047C278.16 336.793 278.646 336.552 279.131 336.324H278.697V392.515H279.226C278.978 392.765 278.729 393.01 278.481 393.255C277.484 394.23 276.481 395.163 275.471 396.052C271.441 399.607 267.348 402.462 263.435 404.49C255.61 408.552 248.465 409.321 243.887 405.834Z" fill="#E6CEDF"/>
<path d="M244.841 404.584C235.994 397.861 240.344 377.271 254.537 358.595C261.638 349.259 269.86 342.168 277.41 338.252C277.883 338.007 278.352 337.775 278.817 337.555H278.689V391.013H279.625C279.149 391.503 278.67 391.984 278.189 392.454C277.229 393.393 276.265 394.292 275.297 395.151C271.41 398.58 267.472 401.331 263.693 403.289C256.142 407.214 249.262 407.947 244.841 404.584Z" fill="#E7CFDF"/>
<path d="M245.794 403.332C237.288 396.857 241.464 377.029 255.14 359.046C261.977 350.053 269.901 343.226 277.166 339.457C278.073 338.986 278.971 338.563 279.859 338.188H278.698V390.263H279.299C278.84 390.736 278.379 391.199 277.916 391.651C276.99 392.558 276.059 393.424 275.122 394.247C271.38 397.551 267.583 400.201 263.947 402.085C256.676 405.853 250.05 406.569 245.794 403.332Z" fill="#E8CFDE"/>
<path d="M246.75 402.08C238.562 395.853 242.585 376.79 255.735 359.497C262.311 350.851 269.924 344.286 276.914 340.661C277.788 340.208 278.651 339.801 279.503 339.441H278.702V389.521H278.965C278.525 389.975 278.082 390.42 277.637 390.855C276.745 391.724 275.85 392.556 274.951 393.353C271.351 396.527 267.7 399.075 264.204 400.887C257.214 404.507 250.851 405.193 246.75 402.08Z" fill="#E9D0DE"/>
<path d="M247.695 400.825C239.837 394.847 243.701 376.546 256.324 359.946C262.635 351.647 269.944 345.344 276.655 341.864C277.493 341.428 278.321 341.037 279.14 340.691H278.696V388.102H279.256C279.045 388.323 278.834 388.545 278.621 388.762C278.197 389.198 277.772 389.625 277.345 390.043C276.491 390.878 275.632 391.677 274.766 392.44C271.313 395.489 267.807 397.933 264.452 399.674C257.742 403.154 251.625 403.809 247.695 400.825Z" fill="#EAD0DD"/>
<path d="M248.651 399.574C241.12 393.846 244.822 376.306 256.919 360.398C262.969 352.443 269.972 346.404 276.403 343.068C277.208 342.651 278.002 342.276 278.785 341.945H278.698V386.735H279.501C277.947 388.417 276.31 390.02 274.595 391.537C271.284 394.458 267.926 396.802 264.709 398.469C258.278 401.806 252.418 402.437 248.651 399.574Z" fill="#EBD1DD"/>
<path d="M249.599 398.32C242.395 392.841 245.936 376.063 257.508 360.848C263.292 353.238 269.993 347.461 276.145 344.271C276.914 343.872 277.673 343.514 278.423 343.198C278.799 343.04 279.169 342.892 279.539 342.754H278.688V386.039H279.103C277.617 387.649 276.051 389.182 274.41 390.633C271.242 393.428 268.03 395.67 264.954 397.267C258.808 400.455 253.202 401.059 249.599 398.32Z" fill="#ECD1DC"/>
<path d="M250.558 397.067C243.682 391.837 247.061 375.824 258.107 361.299C263.631 354.037 270.024 348.521 275.898 345.478C276.631 345.097 277.355 344.756 278.072 344.457C278.429 344.306 278.785 344.166 279.137 344.035H278.701V385.345H278.727C277.308 386.881 275.813 388.345 274.248 389.731C271.225 392.397 268.157 394.537 265.221 396.06C259.357 399.106 253.997 399.681 250.558 397.067Z" fill="#EDD2DC"/>
<path d="M251.506 395.816C244.957 390.835 248.175 375.584 258.696 361.751C263.956 354.834 270.044 349.583 275.638 346.682C276.948 345.994 278.314 345.417 279.721 344.957H278.7V383.501H279.381C279.04 383.892 278.693 384.277 278.338 384.655C276.987 386.118 275.563 387.512 274.071 388.831C271.193 391.371 268.272 393.409 265.475 394.86C259.878 397.761 254.781 398.308 251.506 395.816Z" fill="#EED2DC"/>
<path d="M252.458 394.566C246.235 389.835 249.294 375.342 259.288 362.204C264.285 355.632 270.069 350.636 275.383 347.888C276.626 347.235 277.921 346.687 279.255 346.25H278.691V382.863H278.929C278.6 383.235 278.27 383.601 277.939 383.961C276.655 385.35 275.302 386.674 273.885 387.928C271.151 390.34 268.376 392.278 265.719 393.656C260.411 396.41 255.568 396.932 252.458 394.566Z" fill="#EFD3DB"/>
<path d="M253.413 393.312C247.519 388.829 250.416 375.109 259.878 362.653C264.612 356.428 270.085 351.7 275.126 349.091C276.304 348.471 277.533 347.952 278.799 347.539H278.693V381.148H279.428C278.816 381.88 278.192 382.585 277.557 383.264C276.341 384.581 275.06 385.835 273.717 387.022C271.126 389.309 268.498 391.143 265.98 392.449C260.946 395.059 256.36 395.552 253.413 393.312Z" fill="#F0D4DB"/>
<path d="M254.365 392.058C248.808 387.817 251.529 374.861 260.478 363.102C264.949 357.223 270.124 352.759 274.878 350.294C275.991 349.708 277.152 349.218 278.347 348.828C278.626 348.739 278.903 348.657 279.177 348.586H278.699V380.569H278.929C278.351 381.258 277.764 381.924 277.17 382.566C276.021 383.809 274.811 384.994 273.543 386.116C271.095 388.277 268.61 390.009 266.236 391.242C261.481 393.709 257.143 394.175 254.365 392.058Z" fill="#F1D4DA"/>
<path d="M255.316 390.807C250.076 386.821 252.652 374.62 261.068 363.554C265.276 358.02 270.147 353.819 274.623 351.499C275.673 350.948 276.768 350.486 277.896 350.119C278.399 349.956 278.91 349.82 279.427 349.711H278.692V379.006H279.24C278.973 379.346 278.703 379.676 278.43 379.996C277.886 380.644 277.333 381.271 276.773 381.876C275.654 383.083 274.51 384.199 273.36 385.217C271.057 387.248 268.72 388.879 266.482 390.04C262.013 392.36 257.936 392.799 255.316 390.807Z" fill="#F2D5DA"/>
<path d="M256.271 389.554C251.359 385.82 253.773 374.379 261.664 364.002C265.609 358.815 270.17 354.875 274.37 352.701C275.352 352.184 276.377 351.752 277.432 351.408C277.908 351.255 278.392 351.126 278.881 351.023H278.701V377.533H279.453C271.561 387.909 261.182 393.29 256.271 389.554Z" fill="#F3D5D9"/>
<path d="M257.223 388.3C252.63 384.814 254.89 374.137 262.255 364.454C265.938 359.613 270.2 355.936 274.116 353.907C276.072 352.886 277.943 352.289 279.611 352.156H278.699V377.081H278.857C271.494 386.764 261.808 391.787 257.223 388.3Z" fill="#F4D6D9"/>
<path d="M258.172 387.051C253.919 383.819 256.007 373.901 262.846 364.908C266.265 360.414 270.222 357 273.858 355.113C275.676 354.17 277.413 353.611 278.961 353.488H278.696V374.939H279.489C279.097 375.505 278.689 376.072 278.262 376.64C271.43 385.624 262.429 390.289 258.172 387.051Z" fill="#F5D6D9"/>
<path d="M259.13 385.797C255.2 382.808 257.131 373.657 263.439 365.362C266.596 361.213 270.244 358.061 273.605 356.32C275.283 355.451 276.887 354.934 278.316 354.82C278.661 354.794 279.008 354.794 279.354 354.82H278.697V373.041H279.828C279.18 374.091 278.459 375.142 277.67 376.18C271.361 384.48 263.06 388.786 259.13 385.797Z" fill="#F5D7D8"/>
<path d="M260.076 384.545C256.475 381.805 258.246 373.418 264.032 365.808C266.924 362.004 270.273 359.116 273.349 357.52C274.889 356.724 276.359 356.249 277.668 356.145C278.283 356.089 278.902 356.132 279.502 356.273H278.696V372.848H279.055C278.46 373.811 277.799 374.773 277.076 375.724C271.291 383.337 263.679 387.284 260.076 384.545Z" fill="#F6D7D8"/>
<path d="M261.032 383.294C257.758 380.803 259.367 373.176 264.627 366.259C267.257 362.803 270.302 360.176 273.099 358.725C274.497 358 275.833 357.57 277.025 357.474C277.584 357.424 278.147 357.464 278.693 357.592C278.945 357.653 279.191 357.74 279.426 357.85H278.699V370.05H279.72C278.813 371.895 277.727 373.646 276.478 375.279C271.226 382.195 264.307 385.777 261.032 383.294Z" fill="#F7D8D7"/>
<path d="M261.984 382.034C259.037 379.794 260.485 372.931 265.216 366.706C269.947 360.482 276.177 357.251 279.123 359.493H278.695V370.126H278.805C277.99 371.786 277.013 373.363 275.889 374.833C271.158 381.052 264.932 384.281 261.984 382.034Z" fill="#F8D8D7"/>
<path d="M262.935 380.786C260.315 378.794 261.603 372.694 265.81 367.161C270.017 361.629 275.555 358.757 278.175 360.75C279.485 361.745 279.816 363.769 279.296 366.234C278.775 368.699 277.402 371.608 275.298 374.378C271.091 379.908 265.555 382.778 262.935 380.786Z" fill="#F9D9D7"/>
<path d="M274.702 373.916C278.384 369.075 279.51 363.737 277.218 361.994C274.926 360.25 270.083 362.762 266.401 367.604C262.719 372.446 261.593 377.784 263.885 379.527C266.177 381.27 271.02 378.758 274.702 373.916Z" fill="#FAD9D6"/>
<path d="M275.214 373.31C278.394 369.14 279.371 364.538 277.397 363.032C275.422 361.527 271.243 363.687 268.063 367.858C264.883 372.029 263.905 376.631 265.88 378.136C267.854 379.642 272.033 377.481 275.214 373.31Z" fill="#FBDAD6"/>
<path d="M273.518 373.016C276.148 369.558 276.952 365.745 275.315 364.5C273.678 363.255 270.219 365.05 267.59 368.508C264.96 371.966 264.155 375.779 265.792 377.024C267.429 378.268 270.888 376.474 273.518 373.016Z" fill="#FCDAD5"/>
<path d="M272.925 372.564C275.029 369.798 275.672 366.747 274.362 365.751C273.051 364.754 270.284 366.189 268.18 368.956C266.076 371.722 265.433 374.773 266.744 375.769C268.054 376.765 270.821 375.33 272.925 372.564Z" fill="#FDDBD5"/>
<path d="M272.334 372.112C273.912 370.037 274.395 367.749 273.412 367.002C272.43 366.254 270.354 367.331 268.775 369.406C267.197 371.482 266.715 373.77 267.697 374.517C268.68 375.264 270.756 374.188 272.334 372.112Z" fill="#FDDBD5"/>
<path d="M268.653 373.272C267.999 372.775 268.313 371.25 269.373 369.87C270.433 368.49 271.809 367.769 272.464 368.267C273.119 368.766 272.804 370.29 271.745 371.67C270.685 373.049 269.308 373.771 268.653 373.272Z" fill="#FEDCD4"/>
<path d="M269.605 372.023C269.276 371.774 269.434 371.012 269.963 370.321C270.493 369.631 271.182 369.272 271.51 369.52C271.838 369.769 271.68 370.541 271.149 371.221C270.618 371.902 269.931 372.273 269.605 372.023Z" fill="#FFDCD4"/>
</g>
<path d="M243.317 315.83H234.097C233.871 315.83 233.655 315.74 233.495 315.581C233.336 315.421 233.246 315.205 233.246 314.98C233.246 314.754 233.336 314.538 233.495 314.378C233.655 314.219 233.871 314.129 234.097 314.129H243.317C243.543 314.129 243.759 314.219 243.919 314.378C244.078 314.538 244.168 314.754 244.168 314.98C244.168 315.205 244.078 315.421 243.919 315.581C243.759 315.74 243.543 315.83 243.317 315.83Z" fill="url(#paint2_linear_66_6772)"/>
<path d="M249.426 316.035C250.01 315.451 250.01 314.503 249.426 313.918C248.841 313.333 247.893 313.333 247.309 313.918C246.724 314.503 246.724 315.451 247.309 316.035C247.893 316.62 248.841 316.62 249.426 316.035Z" fill="url(#paint3_linear_66_6772)"/>
<path d="M249.458 314.979C249.458 315.195 249.394 315.406 249.274 315.586C249.154 315.765 248.983 315.905 248.784 315.988C248.584 316.071 248.364 316.092 248.153 316.05C247.941 316.008 247.746 315.904 247.593 315.751C247.441 315.598 247.337 315.404 247.294 315.192C247.252 314.98 247.274 314.761 247.357 314.561C247.439 314.361 247.579 314.191 247.759 314.071C247.938 313.951 248.15 313.887 248.366 313.887C248.509 313.886 248.651 313.915 248.784 313.969C248.916 314.024 249.037 314.105 249.138 314.206C249.24 314.308 249.32 314.428 249.375 314.561C249.43 314.693 249.458 314.835 249.458 314.979Z" fill="url(#paint4_linear_66_6772)"/>
<path d="M249.272 314.98C249.272 315.158 249.219 315.332 249.12 315.481C249.021 315.629 248.88 315.745 248.715 315.813C248.551 315.881 248.369 315.899 248.194 315.864C248.02 315.829 247.859 315.743 247.733 315.617C247.607 315.491 247.521 315.331 247.486 315.156C247.451 314.981 247.469 314.799 247.537 314.635C247.606 314.47 247.721 314.329 247.869 314.23C248.018 314.131 248.192 314.078 248.37 314.078C248.61 314.078 248.839 314.173 249.008 314.342C249.177 314.511 249.272 314.741 249.272 314.98Z" fill="url(#paint5_radial_66_6772)"/>
<path d="M249.006 314.667C249.006 314.94 248.718 315.161 248.366 315.161C248.014 315.161 247.727 314.94 247.727 314.667C247.727 314.395 248.012 314.176 248.366 314.176C248.72 314.176 249.006 314.387 249.006 314.667Z" fill="url(#paint6_linear_66_6772)"/>
<path d="M283.803 325.488H282.344V327.07H283.803V325.488Z" fill="#353535"/>
<path d="M193.615 327.07H195.074V325.488H193.615V327.07Z" fill="#353535"/>
<path d="M283.803 471.199H282.344V472.781H283.803V471.199Z" fill="#353535"/>
<path d="M193.615 472.781H195.074V471.199H193.615V472.781Z" fill="#353535"/>
<path d="M243.317 315.696H234.097C233.882 315.697 233.675 315.616 233.517 315.47C233.359 315.324 233.262 315.124 233.246 314.91C233.246 314.932 233.246 314.954 233.246 314.977C233.246 315.202 233.336 315.418 233.495 315.578C233.655 315.737 233.871 315.827 234.097 315.827H243.317C243.543 315.827 243.759 315.737 243.919 315.578C244.078 315.418 244.168 315.202 244.168 314.977C244.168 314.954 244.168 314.932 244.168 314.91C244.151 315.124 244.055 315.324 243.897 315.47C243.739 315.616 243.532 315.697 243.317 315.696Z" fill="#4E4E4E"/>
<path d="M270.259 310.73H207.157C204.29 310.734 201.542 311.874 199.515 313.9C197.488 315.927 196.347 318.675 196.344 321.542V322.295C196.347 319.429 197.488 316.681 199.515 314.654C201.542 312.627 204.29 311.487 207.157 311.484H270.259C273.126 311.487 275.874 312.627 277.901 314.654C279.928 316.681 281.069 319.429 281.072 322.295V321.542C281.069 318.675 279.928 315.927 277.901 313.9C275.874 311.874 273.126 310.734 270.259 310.73Z" fill="url(#paint7_linear_66_6772)"/>
<path d="M260.813 311.539H216.613C206.672 311.539 198.613 319.598 198.613 329.539V469.272C198.613 479.213 206.672 487.272 216.613 487.272H260.813C270.755 487.272 278.813 479.213 278.813 469.272V329.539C278.813 319.598 270.755 311.539 260.813 311.539Z" fill="url(#paint8_linear_66_6772)"/>
<path d="M258.504 362.295L274.151 355.068C275.478 354.455 277.043 355.017 277.646 356.323L281.564 364.806L290.973 339.859L265.879 330.849L269.798 339.333C270.401 340.638 269.814 342.194 268.488 342.807C268.416 342.84 268.344 342.869 268.272 342.895L221.739 364.391C212.787 368.715 206.352 376.188 203.188 384.812C200.033 393.409 200.14 403.156 204.256 412.068C205.66 415.108 207.426 417.842 209.476 420.243C211.606 422.738 214.052 424.896 216.727 426.686C217.922 427.49 218.22 429.108 217.394 430.301C217.113 430.706 216.739 431.01 216.319 431.204L216.323 431.211L200.676 438.439C199.35 439.051 197.785 438.489 197.182 437.184L193.263 428.7L183.855 453.647L208.948 462.657L205.029 454.174C204.426 452.868 205.013 451.313 206.34 450.7C206.411 450.667 206.483 450.638 206.556 450.611L253.127 429.096C262.065 424.767 268.489 417.295 271.647 408.675C274.794 400.083 274.685 390.344 270.571 381.439C269.167 378.399 267.402 375.666 265.352 373.265C263.222 370.771 260.776 368.612 258.101 366.822C256.906 366.018 256.608 364.4 257.434 363.207C257.715 362.802 258.089 362.498 258.509 362.304L258.505 362.297L258.504 362.295ZM273.933 360.908L264.667 365.188C266.355 366.608 267.935 368.172 269.388 369.874C271.761 372.654 273.787 375.78 275.375 379.218C280.078 389.401 280.198 400.553 276.589 410.403C272.979 420.26 265.621 428.81 255.376 433.772L210.922 454.309L216.389 466.146C216.669 466.751 216.713 467.464 216.458 468.143C215.946 469.5 214.424 470.202 213.06 469.712L179.529 457.673C178.164 457.183 177.472 455.685 177.984 454.328L190.55 421.008C190.786 420.373 191.266 419.825 191.935 419.516C193.261 418.904 194.826 419.465 195.429 420.771L200.892 432.598L210.158 428.318C208.47 426.898 206.889 425.334 205.437 423.631C203.063 420.852 201.038 417.726 199.45 414.288C194.743 404.098 194.626 392.938 198.242 383.082C201.861 373.22 209.23 364.668 219.487 359.715L263.903 339.197L258.436 327.36C258.156 326.754 258.111 326.041 258.367 325.363C258.879 324.006 260.4 323.303 261.765 323.793L295.296 335.833C296.661 336.323 297.352 337.82 296.84 339.177L284.274 372.497C284.039 373.132 283.558 373.681 282.89 373.989C281.564 374.602 279.999 374.04 279.396 372.735L273.932 360.907L273.933 360.908Z" fill="#5484FF"/>
<path d="M229.807 414.258C231.994 415.012 233.133 417.388 232.349 419.564C231.567 421.74 229.16 422.892 226.973 422.137C226.686 422.04 226.402 421.936 226.121 421.83C219.211 419.209 214.034 414.171 211.207 408.051C208.381 401.932 207.901 394.724 210.385 387.764C210.487 387.481 210.592 387.197 210.704 386.916C213.532 379.743 219.026 374.271 225.621 371.225C232.216 368.178 239.943 367.543 247.238 370.04C247.524 370.138 247.809 370.242 248.09 370.348C255 372.969 260.177 378.007 263.003 384.126C265.83 390.246 266.309 397.454 263.825 404.414C263.725 404.697 263.618 404.98 263.507 405.262C262.664 407.416 260.226 408.502 258.062 407.687C255.898 406.872 254.827 404.466 255.67 402.312C255.753 402.101 255.832 401.89 255.907 401.681C257.619 396.882 257.284 391.904 255.329 387.671C253.373 383.438 249.8 379.955 245.037 378.149C244.829 378.069 244.617 377.993 244.403 377.92C240.685 376.647 236.786 376.543 233.132 377.411L240.941 394.317C241.908 396.409 240.973 398.898 238.854 399.877C236.735 400.855 234.234 399.953 233.268 397.862L225.459 380.956C222.429 383.175 219.98 386.211 218.539 389.867C218.456 390.077 218.377 390.288 218.302 390.498C216.59 395.296 216.925 400.274 218.88 404.507C220.836 408.741 224.409 412.224 229.172 414.03C229.38 414.109 229.592 414.185 229.806 414.259L229.807 414.258Z" fill="white"/>
<path d="M294.989 -166.388L273.541 -137.856C297.122 -119.134 301.63 -84.9368 283.43 -60.7256C265.231 -36.5144 231.127 -31.3492 206.591 -48.7898L185.142 -20.2569C225.428 9.02993 281.908 0.676014 311.954 -39.2846C341.991 -79.244 334.32 -135.821 294.989 -166.388Z" fill="url(#paint9_radial_66_6772)" fill-opacity="0.2"/>
<path d="M223.75 274.383L247.376 289.788C260.892 270.209 287.615 264.851 307.663 277.922C327.711 290.993 333.583 317.608 321.127 337.872L344.754 353.277C365.718 319.971 356.152 275.883 323.063 254.303C289.974 232.73 245.774 241.763 223.75 274.383Z" fill="url(#paint10_radial_66_6772)" fill-opacity="0.2"/>
<path d="M555.333 289.117C558.155 291.939 558.155 296.526 555.333 299.368L223.368 631.333C220.545 634.155 215.959 634.155 213.117 631.333C210.294 628.51 210.294 623.924 213.117 621.082L545.082 289.117C547.904 286.294 552.491 286.294 555.333 289.117Z" fill="url(#paint11_linear_66_6772)" style="mix-blend-mode:overlay"/>
<path d="M303.01 581.986C301.148 580.124 298.13 580.124 296.268 581.986C294.406 583.848 294.406 586.867 296.268 588.729C298.13 590.591 301.148 590.591 303.01 588.729C304.872 586.867 304.872 583.848 303.01 581.986Z" fill="white" fill-opacity="0.5"/>
</g>
<defs>
<linearGradient id="paint0_linear_66_6772" x1="64.2991" y1="-164.022" x2="471.656" y2="42.4524" gradientUnits="userSpaceOnUse">
<stop stop-color="#0A30A3"/>
<stop offset="0.709375" stop-color="#001447"/>
</linearGradient>
<radialGradient id="paint1_radial_66_6772" cx="0" cy="0" r="1" gradientUnits="userSpaceOnUse" gradientTransform="translate(214.669 601.786) scale(184.179)">
<stop stop-color="#E5C33F"/>
<stop offset="0.03" stop-color="#E6BC3D"/>
<stop offset="0.25" stop-color="#F39332"/>
<stop offset="0.42" stop-color="#FC7A2B"/>
<stop offset="0.53" stop-color="#FF7129"/>
<stop offset="0.99" stop-color="#C73A16"/>
</radialGradient>
<linearGradient id="paint2_linear_66_6772" x1="238.707" y1="314.126" x2="238.707" y2="315.83" gradientUnits="userSpaceOnUse">
<stop/>
<stop offset="0.29" stop-color="#030303"/>
<stop offset="0.53" stop-color="#0E0E0D"/>
<stop offset="0.75" stop-color="#1F1F1E"/>
<stop offset="0.96" stop-color="#373736"/>
<stop offset="1" stop-color="#3C3C3B"/>
</linearGradient>
<linearGradient id="paint3_linear_66_6772" x1="248.367" y1="313.479" x2="248.367" y2="316.473" gradientUnits="userSpaceOnUse">
<stop/>
<stop offset="0.29" stop-color="#030303"/>
<stop offset="0.53" stop-color="#0E0E0D"/>
<stop offset="0.75" stop-color="#1F1F1E"/>
<stop offset="0.96" stop-color="#373736"/>
<stop offset="1" stop-color="#3C3C3B"/>
</linearGradient>
<linearGradient id="paint4_linear_66_6772" x1="248.366" y1="312.956" x2="248.366" y2="316.542" gradientUnits="userSpaceOnUse">
<stop/>
<stop offset="0.08"/>
<stop offset="1"/>
</linearGradient>
<radialGradient id="paint5_radial_66_6772" cx="0" cy="0" r="1" gradientUnits="userSpaceOnUse" gradientTransform="translate(248.37 314.98) scale(0.818278)">
<stop stop-color="#009FE3"/>
<stop offset="1" stop-color="#112754"/>
</radialGradient>
<linearGradient id="paint6_linear_66_6772" x1="248.366" y1="313.718" x2="248.366" y2="315.188" gradientUnits="userSpaceOnUse">
<stop stop-color="white"/>
<stop offset="1" stop-color="#112754"/>
</linearGradient>
<linearGradient id="paint7_linear_66_6772" x1="238.707" y1="307.524" x2="238.707" y2="320.793" gradientUnits="userSpaceOnUse">
<stop stop-color="white"/>
<stop offset="1"/>
</linearGradient>
<linearGradient id="paint8_linear_66_6772" x1="198.613" y1="311.539" x2="292.468" y2="319.162" gradientUnits="userSpaceOnUse">
<stop stop-color="#0A30A3"/>
<stop offset="1" stop-color="#001447"/>
</linearGradient>
<radialGradient id="paint9_radial_66_6772" cx="0" cy="0" r="1" gradientUnits="userSpaceOnUse" gradientTransform="translate(191.131 -13.812) rotate(-143.068) scale(614.362)">
<stop stop-color="#5BC7CE"/>
<stop offset="0.11" stop-color="#4198C0"/>
<stop offset="0.23" stop-color="#296BB3"/>
<stop offset="0.34" stop-color="#184AAA"/>
<stop offset="0.43" stop-color="#0D37A5"/>
<stop offset="0.49" stop-color="#0A30A3"/>
<stop offset="1" stop-color="#00152A"/>
</radialGradient>
<radialGradient id="paint10_radial_66_6772" cx="0" cy="0" r="1" gradientUnits="userSpaceOnUse" gradientTransform="translate(349.519 348.215) rotate(123.104) scale(485.443)">
<stop stop-color="#5BC7CE"/>
<stop offset="0.11" stop-color="#4198C0"/>
<stop offset="0.23" stop-color="#296BB3"/>
<stop offset="0.34" stop-color="#184AAA"/>
<stop offset="0.43" stop-color="#0D37A5"/>
<stop offset="0.49" stop-color="#0A30A3"/>
<stop offset="1" stop-color="#00152A"/>
</radialGradient>
<linearGradient id="paint11_linear_66_6772" x1="233.5" y1="633" x2="451.5" y2="420.5" gradientUnits="userSpaceOnUse">
<stop stop-color="#0A30A3" stop-opacity="0.31"/>
<stop offset="1" stop-color="white" stop-opacity="0"/>
</linearGradient>
<clipPath id="clip0_66_6772">
<rect width="320" height="601" fill="white"/>
</clipPath>
</defs>
</svg>
