<svg width="968" height="430" viewBox="0 0 968 430" fill="none" xmlns="http://www.w3.org/2000/svg">
<g clip-path="url(#clip0_48_5385)">
<rect width="968" height="430" fill="#001447"/>
<path d="M0 430L968 430V0L0 0V430Z" fill="url(#paint0_linear_48_5385)"/>
<path d="M882.373 208.941C992.489 227.822 1097.06 153.866 1115.94 43.7496C1134.82 -66.3667 1060.86 -170.933 950.745 -189.814C840.628 -208.695 736.062 -134.739 717.181 -24.6224C698.3 85.4938 772.256 190.06 882.373 208.941ZM937.202 -110.832C1003.69 -99.4311 1048.35 -36.2836 1036.95 30.207C1025.55 96.6976 962.406 141.36 895.915 129.959C829.425 118.558 784.763 55.4108 796.163 -11.0798C807.564 -77.5705 870.711 -122.233 937.202 -110.832Z" fill="url(#paint1_radial_48_5385)"/>
<path d="M142.68 308.147L79.328 326.825" stroke="#1E6AC6" stroke-opacity="0.6" stroke-width="8.4" stroke-linecap="round"/>
<path d="M62.4375 331.806L60.3258 332.428" stroke="#179F0C" stroke-opacity="0.6" stroke-width="8.4" stroke-linecap="round"/>
<path d="M82.4922 415.407L71.9336 418.52" stroke="#179F0C" stroke-opacity="0.6" stroke-width="8.4" stroke-linecap="round"/>
<path d="M27.6719 369.597L21.3367 371.464" stroke="#179F0C" stroke-opacity="0.6" stroke-width="8.4" stroke-linecap="round"/>
<path d="M62.3516 393.804L59.3348 394.693" stroke="#179F0C" stroke-opacity="0.6" stroke-width="8.4" stroke-linecap="round"/>
<path d="M110.031 345.317L50.903 362.75" stroke="#1E6AC6" stroke-opacity="0.6" stroke-width="8.4" stroke-linecap="round"/>
<path d="M115.148 378.237L79.2492 388.821" stroke="#1E6AC6" stroke-opacity="0.6" stroke-width="8.4" stroke-linecap="round"/>
<path d="M137.398 399.22L101.499 409.804" stroke="#1E6AC6" stroke-opacity="0.6" stroke-width="8.4" stroke-linecap="round"/>
<path d="M139.358 390.148C143.506 392.375 145.116 397.572 142.953 401.756C140.792 405.94 135.677 407.527 131.53 405.3C130.986 405.011 130.447 404.71 129.917 404.405C116.877 396.886 107.958 384.992 104.021 371.637C100.084 358.282 101.124 343.452 107.999 330.062C108.279 329.518 108.568 328.973 108.868 328.435C116.487 314.719 128.947 305.311 142.928 301.189C156.911 297.066 172.481 298.211 186.322 305.6C186.865 305.889 187.404 306.189 187.935 306.494C200.974 314.013 209.893 325.907 213.831 339.262C217.768 352.617 216.728 367.448 209.853 380.838C209.574 381.384 209.283 381.926 208.984 382.464C206.708 386.585 201.552 388.027 197.465 385.685C193.38 383.342 191.912 378.104 194.188 373.983C194.41 373.58 194.627 373.175 194.834 372.773C199.574 363.541 200.284 353.297 197.56 344.059C194.836 334.82 188.681 326.6 179.693 321.417C179.3 321.19 178.899 320.967 178.494 320.752C171.44 316.986 163.7 315.544 156.181 316.158L167.058 353.052C168.404 357.617 165.853 362.391 161.361 363.716C156.869 365.04 152.136 362.414 150.79 357.849L139.912 320.954C133.263 324.518 127.544 329.928 123.66 336.918C123.438 337.321 123.221 337.726 123.014 338.128C118.274 347.36 117.564 357.604 120.288 366.841C123.012 376.081 129.165 384.301 138.155 389.483C138.548 389.711 138.949 389.931 139.354 390.149L139.358 390.148Z" fill="#1E6AC6" fill-opacity="0.9"/>
<g clip-path="url(#clip1_48_5385)" filter="url(#filter0_d_48_5385)">
<rect width="968" height="1097" transform="translate(0 430)" fill="#001447"/>
<path d="M1093.33 394.117C1096.16 396.939 1096.16 401.526 1093.33 404.368L761.368 736.333C758.545 739.155 753.959 739.155 751.117 736.333C748.294 733.51 748.294 728.924 751.117 726.082L1083.08 394.117C1085.9 391.294 1090.49 391.294 1093.33 394.117Z" fill="url(#paint2_linear_48_5385)" style="mix-blend-mode:overlay"/>
<path d="M840.02 541.02C885.495 495.545 885.495 421.815 840.02 376.34C794.545 330.865 720.815 330.865 675.34 376.34C629.865 421.815 629.865 495.545 675.34 541.02C720.815 586.495 794.545 586.495 840.02 541.02Z" fill="url(#paint3_radial_48_5385)" fill-opacity="0.3"/>
</g>
</g>
<defs>
<filter id="filter0_d_48_5385" x="-30" y="404" width="1028" height="1157" filterUnits="userSpaceOnUse" color-interpolation-filters="sRGB">
<feFlood flood-opacity="0" result="BackgroundImageFix"/>
<feColorMatrix in="SourceAlpha" type="matrix" values="0 0 0 0 0 0 0 0 0 0 0 0 0 0 0 0 0 0 127 0" result="hardAlpha"/>
<feOffset dy="4"/>
<feGaussianBlur stdDeviation="15"/>
<feComposite in2="hardAlpha" operator="out"/>
<feColorMatrix type="matrix" values="0 0 0 0 0.0862745 0 0 0 0 0.498039 0 0 0 0 0.988235 0 0 0 1 0"/>
<feBlend mode="normal" in2="BackgroundImageFix" result="effect1_dropShadow_48_5385"/>
<feBlend mode="normal" in="SourceGraphic" in2="effect1_dropShadow_48_5385" result="shape"/>
</filter>
<linearGradient id="paint0_linear_48_5385" x1="968" y1="527.097" x2="676.04" y2="2.08813" gradientUnits="userSpaceOnUse">
<stop stop-color="#0A30A3"/>
<stop offset="0.764419" stop-color="#001447"/>
</linearGradient>
<radialGradient id="paint1_radial_48_5385" cx="0" cy="0" r="1" gradientUnits="userSpaceOnUse" gradientTransform="translate(861.113 171.038) rotate(-170.27) scale(419.711)">
<stop stop-color="#0A30A3"/>
<stop offset="1" stop-color="#00152A"/>
</radialGradient>
<linearGradient id="paint2_linear_48_5385" x1="771.5" y1="738" x2="989.5" y2="525.5" gradientUnits="userSpaceOnUse">
<stop stop-color="#0A30A3" stop-opacity="0.31"/>
<stop offset="1" stop-color="white" stop-opacity="0"/>
</linearGradient>
<radialGradient id="paint3_radial_48_5385" cx="0" cy="0" r="1" gradientUnits="userSpaceOnUse" gradientTransform="translate(490.331 652.713) rotate(-180) scale(801.052)">
<stop stop-color="#5BC7CE"/>
<stop offset="0.11" stop-color="#4198C0"/>
<stop offset="0.23" stop-color="#296BB3"/>
<stop offset="0.34" stop-color="#184AAA"/>
<stop offset="0.43" stop-color="#0D37A5"/>
<stop offset="0.49" stop-color="#0A30A3"/>
<stop offset="1" stop-color="#00152A"/>
</radialGradient>
<clipPath id="clip0_48_5385">
<rect width="968" height="430" fill="white"/>
</clipPath>
<clipPath id="clip1_48_5385">
<rect width="968" height="1097" fill="white" transform="translate(0 430)"/>
</clipPath>
</defs>
</svg>
