<svg width="1440" height="699" viewBox="0 0 1440 699" fill="none" xmlns="http://www.w3.org/2000/svg">
<g clip-path="url(#clip0_47_4762)">
<rect width="1440" height="699" fill="#001447"/>
<g opacity="0.6">
<path d="M1091.56 -48.2302C1093.69 -43.5674 1091.66 -38.0005 1087.03 -35.7963C1082.4 -33.5915 1076.92 -35.584 1074.79 -40.2468C1074.51 -40.8555 1074.24 -41.4709 1073.98 -42.0846C1067.63 -57.192 1067.73 -73.3795 1073.11 -87.5531C1078.49 -101.727 1089.16 -113.902 1103.94 -120.985C1104.54 -121.273 1105.15 -121.554 1105.76 -121.823C1121.4 -128.7 1138.4 -128.652 1153.24 -123.019C1168.08 -117.385 1180.83 -106.139 1187.96 -90.6166C1188.24 -90.008 1188.51 -89.3926 1188.77 -88.7788C1195.13 -73.6715 1195.03 -57.4839 1189.65 -43.3103C1184.27 -29.1368 1173.6 -16.9617 1158.82 -9.878C1158.22 -9.58892 1157.61 -9.30922 1156.99 -9.04009C1152.31 -6.96549 1146.89 -9.11133 1144.88 -13.8332C1142.89 -18.5544 1145.06 -24.0645 1149.75 -26.1391C1150.21 -26.3416 1150.66 -26.5502 1151.11 -26.7624C1161.3 -31.6463 1168.66 -40.0619 1172.38 -49.8658C1176.1 -59.6716 1176.18 -70.853 1171.8 -81.2661C1171.61 -81.7219 1171.41 -82.1794 1171.2 -82.6332C1167.56 -90.5441 1161.8 -96.8916 1154.87 -101.311L1140.01 -62.1551C1138.17 -57.3099 1132.81 -54.8505 1128.05 -56.6603C1123.28 -58.4702 1120.9 -63.8646 1122.74 -68.7098L1137.61 -107.866C1129.49 -109.155 1120.97 -108.23 1113 -104.726C1112.54 -104.523 1112.09 -104.315 1111.64 -104.103C1101.45 -99.2186 1094.09 -90.803 1090.37 -80.9991C1086.65 -71.1933 1086.57 -60.0126 1090.95 -49.5988C1091.14 -49.143 1091.35 -48.6875 1091.55 -48.2317L1091.56 -48.2302Z" fill="#1E6AC6" fill-opacity="0.9"/>
</g>
<path opacity="0.94" d="M1380.78 992.359C1550.22 1012.68 1704.04 891.804 1724.36 722.367C1744.68 552.931 1623.8 399.112 1454.37 378.792C1284.93 358.472 1131.11 479.347 1110.79 648.784C1090.47 818.22 1211.35 972.039 1380.78 992.359ZM1439.79 500.322C1542.1 512.592 1615.1 605.483 1602.83 707.792C1590.56 810.102 1497.67 883.098 1395.36 870.829C1293.05 858.559 1220.05 765.668 1232.32 663.359C1244.59 561.049 1337.48 488.053 1439.79 500.322Z" fill="url(#paint0_radial_47_4762)"/>
<rect x="1" width="1438" height="699" fill="#011855"/>
<path style="mix-blend-mode:overlay" d="M1738.27 3.7195C1741.9 7.3455 1741.9 13.2255 1738.27 16.8515L1312.85 442.269C1309.23 445.895 1303.35 445.895 1299.72 442.269C1296.09 438.643 1296.09 432.763 1299.72 429.137L1725.14 3.7195C1728.76 0.0935001 1734.64 0.0935001 1738.27 3.7195Z" fill="url(#paint1_linear_47_4762)"/>
<path d="M1000.86 138.908C1002.72 140.77 1005.74 140.77 1007.6 138.908C1009.46 137.046 1009.46 134.028 1007.6 132.166C1005.74 130.304 1002.72 130.304 1000.86 132.166C998.995 134.028 998.995 137.046 1000.86 138.908Z" fill="white" fill-opacity="0.3"/>
<path d="M970.986 168.779C972.848 170.641 975.867 170.641 977.729 168.779C979.591 166.917 979.591 163.898 977.729 162.036C975.867 160.174 972.848 160.174 970.986 162.036C969.124 163.898 969.124 166.917 970.986 168.779Z" fill="white" fill-opacity="0.3"/>
<path d="M941.119 198.629C942.981 200.491 946 200.491 947.862 198.629C949.724 196.767 949.724 193.749 947.862 191.887C946 190.025 942.981 190.025 941.119 191.887C939.257 193.749 939.257 196.767 941.119 198.629Z" fill="white" fill-opacity="0.3"/>
<path d="M911.268 228.5C913.13 230.362 916.148 230.362 918.01 228.5C919.872 226.638 919.872 223.62 918.01 221.758C916.148 219.896 913.13 219.896 911.268 221.758C909.406 223.62 909.406 226.638 911.268 228.5Z" fill="white" fill-opacity="0.3"/>
<path d="M888.139 251.628C886.277 249.766 883.258 249.766 881.396 251.628C879.534 253.49 879.534 256.508 881.396 258.37C883.258 260.232 886.277 260.232 888.139 258.37C890.001 256.508 890.001 253.49 888.139 251.628Z" fill="white" fill-opacity="0.3"/>
<path d="M1569.33 288.117C1572.16 290.939 1572.16 295.526 1569.33 298.368L1237.37 630.333C1234.55 633.155 1229.96 633.155 1227.12 630.333C1224.29 627.51 1224.29 622.924 1227.12 620.082L1559.08 288.117C1561.9 285.294 1566.49 285.294 1569.33 288.117Z" fill="url(#paint2_linear_47_4762)" style="mix-blend-mode:overlay"/>
<path d="M105.139 649.859C103.277 647.997 100.258 647.997 98.3965 649.859C96.5345 651.721 96.5345 654.74 98.3965 656.602C100.258 658.464 103.277 658.464 105.139 656.602C107.001 654.74 107.001 651.721 105.139 649.859Z" fill="white"/>
<path d="M135.01 619.988C133.148 618.126 130.13 618.126 128.268 619.988C126.406 621.85 126.406 624.869 128.268 626.731C130.13 628.593 133.148 628.593 135.01 626.731C136.872 624.869 136.872 621.85 135.01 619.988Z" fill="white"/>
<path d="M164.858 590.117C162.996 588.255 159.977 588.255 158.115 590.117C156.253 591.979 156.253 594.998 158.115 596.86C159.977 598.722 162.996 598.722 164.858 596.86C166.72 594.998 166.72 591.979 164.858 590.117Z" fill="white"/>
<path d="M194.733 560.268C192.871 558.406 189.852 558.406 187.99 560.268C186.128 562.13 186.128 565.148 187.99 567.01C189.852 568.872 192.871 568.872 194.733 567.01C196.595 565.148 196.595 562.13 194.733 560.268Z" fill="white"/>
<path d="M217.857 537.139C219.719 539.001 222.738 539.001 224.6 537.139C226.462 535.277 226.462 532.258 224.6 530.396C222.738 528.534 219.719 528.534 217.857 530.396C215.995 532.258 215.995 535.277 217.857 537.139Z" fill="white"/>
</g>
<defs>
<radialGradient id="paint0_radial_47_4762" cx="0" cy="0" r="1" gradientUnits="userSpaceOnUse" gradientTransform="translate(1345.43 936.176) rotate(-173.161) scale(641.084)">
<stop stop-color="#0A30A3"/>
<stop offset="1" stop-color="#00152A"/>
</radialGradient>
<linearGradient id="paint1_linear_47_4762" x1="1593.56" y1="132.237" x2="1337.31" y2="444.19" gradientUnits="userSpaceOnUse">
<stop offset="0.17" stop-color="#0A30A3"/>
<stop offset="1" stop-color="white"/>
</linearGradient>
<linearGradient id="paint2_linear_47_4762" x1="1247.5" y1="632" x2="1465.5" y2="419.5" gradientUnits="userSpaceOnUse">
<stop stop-color="#0A30A3" stop-opacity="0.31"/>
<stop offset="1" stop-color="white" stop-opacity="0"/>
</linearGradient>
<clipPath id="clip0_47_4762">
<rect width="1440" height="699" fill="white"/>
</clipPath>
</defs>
</svg>
