<svg width="678" height="430" viewBox="0 0 678 430" fill="none" xmlns="http://www.w3.org/2000/svg">
<g clip-path="url(#clip0_48_6109)">
<rect width="678" height="430" fill="#001447"/>
<path d="M1 430L678 430V0L1 0V430Z" fill="url(#paint0_linear_48_6109)"/>
<path d="M692.373 208.941C802.489 227.822 907.055 153.866 925.936 43.7496C944.817 -66.3667 870.861 -170.933 760.745 -189.814C650.628 -208.695 546.062 -134.739 527.181 -24.6224C508.3 85.4938 582.256 190.06 692.373 208.941ZM747.202 -110.832C813.693 -99.4311 858.355 -36.2836 846.954 30.207C835.553 96.6976 772.406 141.36 705.915 129.959C639.425 118.558 594.763 55.4108 606.163 -11.0798C617.564 -77.5705 680.711 -122.233 747.202 -110.832Z" fill="url(#paint1_radial_48_6109)"/>
<path d="M110.75 321.656L70.634 333.484" stroke="#1E6AC6" stroke-opacity="0.6" stroke-width="8.4" stroke-linecap="round"/>
<path d="M59.9375 336.637L58.6003 337.031" stroke="#179F0C" stroke-opacity="0.6" stroke-width="8.4" stroke-linecap="round"/>
<path d="M72.6406 389.576L65.9546 391.547" stroke="#179F0C" stroke-opacity="0.6" stroke-width="8.4" stroke-linecap="round"/>
<path d="M37.9219 360.568L33.9103 361.751" stroke="#179F0C" stroke-opacity="0.6" stroke-width="8.4" stroke-linecap="round"/>
<path d="M59.8828 375.896L57.9725 376.46" stroke="#179F0C" stroke-opacity="0.6" stroke-width="8.4" stroke-linecap="round"/>
<path d="M90.0703 345.193L52.6287 356.232" stroke="#1E6AC6" stroke-opacity="0.6" stroke-width="8.4" stroke-linecap="round"/>
<path d="M93.3125 366.039L70.5801 372.741" stroke="#1E6AC6" stroke-opacity="0.6" stroke-width="8.4" stroke-linecap="round"/>
<path d="M107.406 379.326L84.6738 386.028" stroke="#1E6AC6" stroke-opacity="0.6" stroke-width="8.4" stroke-linecap="round"/>
<path d="M108.647 373.581C111.273 374.991 112.293 378.282 110.924 380.932C109.555 383.581 106.316 384.586 103.69 383.176C103.346 382.993 103.005 382.802 102.669 382.609C94.4118 377.848 88.764 370.316 86.2708 361.86C83.7775 353.403 84.4361 344.012 88.7894 335.533C88.9668 335.189 89.1502 334.844 89.3398 334.503C94.1644 325.818 102.054 319.86 110.908 317.25C119.762 314.639 129.621 315.364 138.386 320.043C138.73 320.226 139.071 320.416 139.407 320.609C147.664 325.371 153.312 332.902 155.805 341.359C158.298 349.816 157.64 359.207 153.287 367.686C153.109 368.031 152.926 368.375 152.736 368.716C151.295 371.325 148.03 372.238 145.442 370.755C142.856 369.272 141.925 365.954 143.367 363.345C143.508 363.09 143.645 362.833 143.776 362.579C146.778 356.733 147.227 350.246 145.502 344.397C143.777 338.546 139.88 333.341 134.188 330.059C133.94 329.915 133.685 329.774 133.429 329.638C128.962 327.253 124.061 326.34 119.3 326.729L126.188 350.091C127.04 352.982 125.424 356.005 122.58 356.844C119.735 357.682 116.738 356.019 115.886 353.128L108.998 329.766C104.787 332.022 101.166 335.448 98.707 339.875C98.5659 340.13 98.4289 340.386 98.2975 340.641C95.2962 346.487 94.8468 352.973 96.5714 358.823C98.2963 364.673 102.193 369.879 107.885 373.16C108.134 373.304 108.388 373.444 108.645 373.582L108.647 373.581Z" fill="#1E6AC6" fill-opacity="0.9"/>
<g clip-path="url(#clip1_48_6109)" filter="url(#filter0_d_48_6109)">
<rect width="680" height="1334" transform="translate(-1 430)" fill="#001447"/>
<path d="M882.333 394.117C885.155 396.939 885.155 401.526 882.333 404.368L550.368 736.333C547.545 739.155 542.959 739.155 540.117 736.333C537.294 733.51 537.294 728.924 540.117 726.082L872.082 394.117C874.904 391.294 879.491 391.294 882.333 394.117Z" fill="url(#paint2_linear_48_6109)" style="mix-blend-mode:overlay"/>
<path d="M629.02 541.02C674.495 495.545 674.495 421.815 629.02 376.34C583.545 330.865 509.815 330.865 464.34 376.34C418.865 421.815 418.865 495.545 464.34 541.02C509.815 586.495 583.545 586.495 629.02 541.02Z" fill="url(#paint3_radial_48_6109)" fill-opacity="0.3"/>
</g>
</g>
<defs>
<filter id="filter0_d_48_6109" x="-31" y="404" width="740" height="1394" filterUnits="userSpaceOnUse" color-interpolation-filters="sRGB">
<feFlood flood-opacity="0" result="BackgroundImageFix"/>
<feColorMatrix in="SourceAlpha" type="matrix" values="0 0 0 0 0 0 0 0 0 0 0 0 0 0 0 0 0 0 127 0" result="hardAlpha"/>
<feOffset dy="4"/>
<feGaussianBlur stdDeviation="15"/>
<feComposite in2="hardAlpha" operator="out"/>
<feColorMatrix type="matrix" values="0 0 0 0 0.0862745 0 0 0 0 0.498039 0 0 0 0 0.988235 0 0 0 1 0"/>
<feBlend mode="normal" in2="BackgroundImageFix" result="effect1_dropShadow_48_6109"/>
<feBlend mode="normal" in="SourceGraphic" in2="effect1_dropShadow_48_6109" result="shape"/>
</filter>
<linearGradient id="paint0_linear_48_6109" x1="678" y1="527.097" x2="343.152" y2="105.979" gradientUnits="userSpaceOnUse">
<stop stop-color="#0A30A3"/>
<stop offset="0.764419" stop-color="#001447"/>
</linearGradient>
<radialGradient id="paint1_radial_48_6109" cx="0" cy="0" r="1" gradientUnits="userSpaceOnUse" gradientTransform="translate(671.113 171.038) rotate(-170.27) scale(419.711)">
<stop stop-color="#0A30A3"/>
<stop offset="1" stop-color="#00152A"/>
</radialGradient>
<linearGradient id="paint2_linear_48_6109" x1="560.5" y1="738" x2="778.5" y2="525.5" gradientUnits="userSpaceOnUse">
<stop stop-color="#0A30A3" stop-opacity="0.31"/>
<stop offset="1" stop-color="white" stop-opacity="0"/>
</linearGradient>
<radialGradient id="paint3_radial_48_6109" cx="0" cy="0" r="1" gradientUnits="userSpaceOnUse" gradientTransform="translate(279.331 652.713) rotate(-180) scale(801.052)">
<stop stop-color="#5BC7CE"/>
<stop offset="0.11" stop-color="#4198C0"/>
<stop offset="0.23" stop-color="#296BB3"/>
<stop offset="0.34" stop-color="#184AAA"/>
<stop offset="0.43" stop-color="#0D37A5"/>
<stop offset="0.49" stop-color="#0A30A3"/>
<stop offset="1" stop-color="#00152A"/>
</radialGradient>
<clipPath id="clip0_48_6109">
<rect width="678" height="430" fill="white"/>
</clipPath>
<clipPath id="clip1_48_6109">
<rect width="680" height="1334" fill="white" transform="translate(-1 430)"/>
</clipPath>
</defs>
</svg>
