<svg width="428" height="1024" viewBox="0 0 428 1024" fill="none" xmlns="http://www.w3.org/2000/svg">
<g clip-path="url(#clip0_47_7741)">
<rect width="428" height="1024" fill="#001447"/>
<path d="M415.377 1254.94C525.493 1273.82 630.059 1199.87 648.94 1089.75C667.821 979.633 593.865 875.067 483.748 856.186C373.632 837.305 269.066 911.261 250.185 1021.38C231.304 1131.49 305.26 1236.06 415.377 1254.94ZM470.206 935.168C536.697 946.569 581.359 1009.72 569.958 1076.21C558.557 1142.7 495.41 1187.36 428.919 1175.96C362.428 1164.56 317.766 1101.41 329.167 1034.92C340.568 968.43 403.715 923.767 470.206 935.168Z" fill="url(#paint0_radial_47_7741)"/>
<rect width="428" height="1024" fill="#011855"/>
<path style="mix-blend-mode:overlay" d="M724.269 467.719C727.895 471.345 727.895 477.226 724.269 480.852L298.852 906.269C295.226 909.895 289.345 909.895 285.719 906.269C282.094 902.643 282.094 896.763 285.719 893.137L711.137 467.719C714.763 464.094 720.643 464.094 724.269 467.719Z" fill="url(#paint1_linear_47_7741)"/>
<path d="M135.857 475.139C137.719 477.001 140.738 477.001 142.6 475.139C144.462 473.277 144.462 470.258 142.6 468.396C140.738 466.534 137.719 466.534 135.857 468.396C133.995 470.258 133.995 473.277 135.857 475.139Z" fill="white" fill-opacity="0.3"/>
<path d="M105.986 505.009C107.848 506.871 110.867 506.871 112.729 505.009C114.591 503.147 114.591 500.129 112.729 498.267C110.867 496.405 107.848 496.405 105.986 498.267C104.124 500.129 104.124 503.147 105.986 505.009Z" fill="white" fill-opacity="0.3"/>
<path d="M76.1192 534.86C77.9812 536.722 80.9996 536.722 82.8616 534.86C84.7236 532.998 84.7236 529.98 82.8616 528.118C80.9996 526.256 77.9812 526.256 76.1192 528.118C74.2572 529.98 74.2572 532.998 76.1192 534.86Z" fill="white" fill-opacity="0.3"/>
<path d="M46.2676 564.731C48.1296 566.593 51.148 566.593 53.01 564.731C54.872 562.869 54.872 559.85 53.01 557.988C51.148 556.126 48.1296 556.126 46.2676 557.988C44.4056 559.85 44.4056 562.869 46.2676 564.731Z" fill="white" fill-opacity="0.3"/>
<path d="M23.1389 587.858C21.2769 585.996 18.2585 585.996 16.3965 587.858C14.5345 589.72 14.5345 592.739 16.3965 594.601C18.2585 596.463 21.2769 596.463 23.1389 594.601C25.0009 592.739 25.0009 589.72 23.1389 587.858Z" fill="white" fill-opacity="0.3"/>
<path d="M437.651 801.349C438.116 801.815 438.116 802.57 437.651 803.035L383.035 857.651C382.57 858.116 381.815 858.116 381.349 857.651C380.884 857.185 380.884 856.43 381.349 855.965L435.965 801.349C436.43 800.884 437.185 800.884 437.651 801.349Z" fill="url(#paint2_linear_47_7741)" style="mix-blend-mode:overlay"/>
</g>
<defs>
<radialGradient id="paint0_radial_47_7741" cx="0" cy="0" r="1" gradientUnits="userSpaceOnUse" gradientTransform="translate(394.117 1217.04) rotate(-170.27) scale(419.711)">
<stop stop-color="#0A30A3"/>
<stop offset="1" stop-color="#00152A"/>
</radialGradient>
<linearGradient id="paint1_linear_47_7741" x1="579.563" y1="596.237" x2="323.312" y2="908.19" gradientUnits="userSpaceOnUse">
<stop offset="0.17" stop-color="#0A30A3"/>
<stop offset="1" stop-color="white"/>
</linearGradient>
<linearGradient id="paint2_linear_47_7741" x1="419.073" y1="817.846" x2="382.539" y2="855.432" gradientUnits="userSpaceOnUse">
<stop offset="0.17" stop-color="#0A30A3"/>
<stop offset="1" stop-color="white"/>
</linearGradient>
<clipPath id="clip0_47_7741">
<rect width="428" height="1024" fill="white"/>
</clipPath>
</defs>
</svg>
