<svg width="1280" height="699" viewBox="0 0 1280 699" fill="none" xmlns="http://www.w3.org/2000/svg">
<g clip-path="url(#clip0_47_5542)">
<rect width="1280" height="699" fill="#001447"/>
<path opacity="0.94" d="M1241.78 1068.36C1411.22 1088.68 1565.04 967.803 1585.36 798.367C1605.68 628.93 1484.8 475.112 1315.37 454.792C1145.93 434.472 992.111 555.347 971.791 724.783C951.471 894.22 1072.35 1048.04 1241.78 1068.36ZM1300.79 576.322C1403.1 588.592 1476.1 681.482 1463.83 783.792C1451.56 886.101 1358.67 959.098 1256.36 946.828C1154.05 934.558 1081.05 841.668 1093.32 739.358C1105.59 637.049 1198.48 564.052 1300.79 576.322Z" fill="url(#paint0_radial_47_5542)"/>
<rect width="1281" height="699" fill="#011855"/>
<path style="mix-blend-mode:overlay" d="M1582.27 -24.2805C1585.9 -20.6545 1585.9 -14.7745 1582.27 -11.1485L1156.85 414.269C1153.23 417.895 1147.35 417.895 1143.72 414.269C1140.09 410.643 1140.09 404.763 1143.72 401.137L1569.14 -24.2805C1572.76 -27.9065 1578.64 -27.9065 1582.27 -24.2805Z" fill="url(#paint1_linear_47_5542)"/>
<path d="M1423.33 308.117C1426.16 310.939 1426.16 315.526 1423.33 318.368L1091.37 650.333C1088.55 653.155 1083.96 653.155 1081.12 650.333C1078.29 647.51 1078.29 642.924 1081.12 640.082L1413.08 308.117C1415.9 305.294 1420.49 305.294 1423.33 308.117Z" fill="url(#paint2_linear_47_5542)" style="mix-blend-mode:overlay"/>
<path d="M126.623 604.501C125.129 603.015 122.708 603.015 121.214 604.501C119.72 605.988 119.72 608.398 121.214 609.885C122.708 611.372 125.129 611.372 126.623 609.885C128.116 608.398 128.116 605.988 126.623 604.501Z" fill="white"/>
<path d="M150.584 580.651C149.09 579.164 146.669 579.164 145.175 580.651C143.681 582.137 143.681 584.548 145.175 586.034C146.669 587.521 149.09 587.521 150.584 586.034C152.077 584.548 152.077 582.137 150.584 580.651Z" fill="white"/>
<path d="M174.529 556.8C173.035 555.313 170.614 555.313 169.12 556.8C167.627 558.286 167.627 560.696 169.12 562.183C170.614 563.67 173.035 563.67 174.529 562.183C176.022 560.696 176.022 558.286 174.529 556.8Z" fill="white"/>
<path d="M198.49 532.966C196.996 531.479 194.575 531.479 193.081 532.966C191.588 534.453 191.588 536.863 193.081 538.349C194.575 539.836 196.996 539.836 198.49 538.349C199.983 536.863 199.983 534.453 198.49 532.966Z" fill="white"/>
<path d="M217.042 514.499C218.536 515.985 220.957 515.985 222.451 514.499C223.944 513.012 223.944 510.602 222.451 509.115C220.957 507.628 218.536 507.628 217.042 509.115C215.548 510.602 215.548 513.012 217.042 514.499Z" fill="white"/>
</g>
<defs>
<radialGradient id="paint0_radial_47_5542" cx="0" cy="0" r="1" gradientUnits="userSpaceOnUse" gradientTransform="translate(1206.43 1012.18) rotate(-173.161) scale(641.084)">
<stop stop-color="#0A30A3"/>
<stop offset="1" stop-color="#00152A"/>
</radialGradient>
<linearGradient id="paint1_linear_47_5542" x1="1437.56" y1="104.237" x2="1181.31" y2="416.19" gradientUnits="userSpaceOnUse">
<stop offset="0.17" stop-color="#0A30A3"/>
<stop offset="1" stop-color="white"/>
</linearGradient>
<linearGradient id="paint2_linear_47_5542" x1="1101.5" y1="652" x2="1319.5" y2="439.5" gradientUnits="userSpaceOnUse">
<stop stop-color="#0A30A3" stop-opacity="0.31"/>
<stop offset="1" stop-color="white" stop-opacity="0"/>
</linearGradient>
<clipPath id="clip0_47_5542">
<rect width="1280" height="699" fill="white"/>
</clipPath>
</defs>
</svg>
