<svg width="1448" height="1144" viewBox="0 0 1448 1144" fill="none" xmlns="http://www.w3.org/2000/svg">
<g clip-path="url(#clip0_38_1109)" filter="url(#filter0_d_38_1109)">
<rect width="1440" height="1136" transform="translate(4)" fill="#001447"/>
<path opacity="0.94" d="M1354.05 1367.57C1460.67 1396.46 1570.5 1333.37 1599.36 1226.66C1628.23 1119.94 1565.2 1010.02 1458.58 981.127C1351.96 952.237 1242.13 1015.32 1213.26 1122.04C1184.4 1228.75 1247.43 1338.68 1354.05 1367.57ZM1437.87 1057.67C1502.25 1075.11 1540.32 1141.5 1522.89 1205.94C1505.46 1270.37 1439.14 1308.47 1374.75 1291.03C1310.37 1273.58 1272.31 1207.2 1289.74 1142.76C1307.17 1078.32 1373.49 1040.23 1437.87 1057.67Z" fill="url(#paint0_radial_38_1109)"/>
<path d="M1444 -1.00098H4V1136H1444V-1.00098Z" fill="url(#paint1_linear_38_1109)"/>
<g opacity="0.6">
<path d="M1157.93 556.781L948.048 542.358" stroke="#1E6AC6" stroke-opacity="0.6" stroke-width="8.4" stroke-linecap="round"/>
<path d="M892.08 538.51L885.084 538.029" stroke="#179F0C" stroke-opacity="0.6" stroke-width="8.4" stroke-linecap="round"/>
<path d="M859.354 810.633L824.375 808.229" stroke="#179F0C" stroke-opacity="0.6" stroke-width="8.4" stroke-linecap="round"/>
<path d="M746.397 612.921L725.41 611.479" stroke="#179F0C" stroke-opacity="0.6" stroke-width="8.4" stroke-linecap="round"/>
<path d="M823.142 723.722L813.147 723.035" stroke="#179F0C" stroke-opacity="0.6" stroke-width="8.4" stroke-linecap="round"/>
<path d="M1019.24 631.67L823.351 618.208" stroke="#1E6AC6" stroke-opacity="0.6" stroke-width="8.4" stroke-linecap="round"/>
<path d="M998.04 735.743L879.109 727.57" stroke="#1E6AC6" stroke-opacity="0.6" stroke-width="8.4" stroke-linecap="round"/>
<path d="M1041.25 823.132L922.317 814.959" stroke="#1E6AC6" stroke-opacity="0.6" stroke-width="8.4" stroke-linecap="round"/>
<path d="M1057.15 798.175C1067.07 809.431 1066.12 826.749 1055.02 836.856C1043.94 846.964 1026.9 846.034 1016.98 834.778C1015.68 833.311 1014.4 831.815 1013.16 830.315C982.545 793.383 969.084 747.944 972.12 703.664C975.155 659.384 994.689 616.215 1030.05 583.82C1031.49 582.505 1032.96 581.198 1034.45 579.923C1072.4 547.379 1120.03 533.078 1166.36 536.264C1212.68 539.45 1257.91 560.138 1291.07 597.571C1292.37 599.038 1293.64 600.534 1294.89 602.033C1325.5 638.966 1338.96 684.405 1335.93 728.685C1332.89 772.965 1313.36 816.134 1277.99 848.529C1276.55 849.85 1275.09 851.151 1273.6 852.426C1262.23 862.218 1245.24 860.808 1235.63 849.277C1226.02 837.747 1227.44 820.461 1238.8 810.668C1239.91 809.711 1241.01 808.741 1242.07 807.769C1266.46 785.434 1279.92 755.606 1282.02 724.977C1284.12 694.343 1274.85 662.95 1253.75 637.493C1252.82 636.378 1251.87 635.268 1250.9 634.174C1234.01 615.097 1212.49 602.203 1189.35 595.7L1180.97 718.027C1179.93 733.164 1167.02 744.603 1152.14 743.579C1137.26 742.556 1126.03 729.457 1127.07 714.321L1135.45 591.993C1111.65 595.268 1088.57 605.095 1069.23 621.68C1068.12 622.637 1067.03 623.607 1065.96 624.579C1041.58 646.914 1028.11 676.742 1026.01 707.371C1023.91 738.005 1033.18 769.398 1054.29 794.855C1055.21 795.97 1056.16 797.074 1057.14 798.174L1057.15 798.175Z" fill="#1E6AC6" fill-opacity="0.9"/>
</g>
<path style="mix-blend-mode:overlay" d="M1067.29 177.859C1065.57 176.143 1065.57 173.359 1067.29 171.643L1268.49 -29.74C1270.21 -31.4565 1272.99 -31.4565 1274.7 -29.74C1276.42 -28.0235 1276.42 -25.2401 1274.7 -23.5236L1073.5 177.859C1071.78 179.576 1069 179.576 1067.29 177.859Z" fill="url(#paint2_linear_38_1109)"/>
<path d="M1218.65 120.869C1219.67 121.886 1219.67 123.535 1218.65 124.552L1099.44 243.869C1098.43 244.886 1096.78 244.886 1095.76 243.869C1094.75 242.852 1094.75 241.203 1095.76 240.186L1214.97 120.869C1215.99 119.852 1217.64 119.852 1218.65 120.869Z" fill="url(#paint3_linear_38_1109)" style="mix-blend-mode:overlay"/>
</g>
<defs>
<filter id="filter0_d_38_1109" x="0" y="0" width="1448" height="1144" filterUnits="userSpaceOnUse" color-interpolation-filters="sRGB">
<feFlood flood-opacity="0" result="BackgroundImageFix"/>
<feColorMatrix in="SourceAlpha" type="matrix" values="0 0 0 0 0 0 0 0 0 0 0 0 0 0 0 0 0 0 127 0" result="hardAlpha"/>
<feOffset dy="4"/>
<feGaussianBlur stdDeviation="2"/>
<feComposite in2="hardAlpha" operator="out"/>
<feColorMatrix type="matrix" values="0 0 0 0 0 0 0 0 0 0 0 0 0 0 0 0 0 0 0.25 0"/>
<feBlend mode="normal" in2="BackgroundImageFix" result="effect1_dropShadow_38_1109"/>
<feBlend mode="normal" in="SourceGraphic" in2="effect1_dropShadow_38_1109" result="shape"/>
</filter>
<radialGradient id="paint0_radial_38_1109" cx="0" cy="0" r="1" gradientUnits="userSpaceOnUse" gradientTransform="translate(1336.66 1328.24) rotate(-164.839) scale(414.991 415.307)">
<stop stop-color="#0A30A3"/>
<stop offset="1" stop-color="#00152A"/>
</radialGradient>
<linearGradient id="paint1_linear_38_1109" x1="4" y1="-1.00098" x2="1618.27" y2="362.868" gradientUnits="userSpaceOnUse">
<stop stop-color="#0A30A3"/>
<stop offset="0.585704" stop-color="#001447"/>
</linearGradient>
<linearGradient id="paint2_linear_38_1109" x1="1135.73" y1="117.032" x2="1270.44" y2="-21.4412" gradientUnits="userSpaceOnUse">
<stop offset="0.17" stop-color="#0A30A3"/>
<stop offset="1" stop-color="white"/>
</linearGradient>
<linearGradient id="paint3_linear_38_1109" x1="1178.1" y1="156.909" x2="1098.29" y2="238.952" gradientUnits="userSpaceOnUse">
<stop offset="0.17" stop-color="#0A30A3"/>
<stop offset="1" stop-color="white"/>
</linearGradient>
<clipPath id="clip0_38_1109">
<rect width="1440" height="1136" fill="white" transform="translate(4)"/>
</clipPath>
</defs>
</svg>
