<svg width="89" height="64" viewBox="0 0 89 64" fill="none" xmlns="http://www.w3.org/2000/svg">
<path d="M63.3772 19.3564H73.0896C73.913 19.3564 74.5808 20.0136 74.5808 20.824V26.0899L85.289 15.5509L74.5808 5.01178V10.2777C74.5808 11.0881 73.913 11.7454 73.0896 11.7454C73.0451 11.7454 73.0016 11.7433 72.9582 11.7397L44.0733 11.7407C38.4721 11.8371 33.4139 14.1399 29.7574 17.8036C26.1119 21.4565 23.8634 26.4678 23.8634 32.0003C23.8634 33.887 24.1205 35.7026 24.6019 37.4157C25.1021 39.1952 25.8432 40.8773 26.7887 42.4254C27.2103 43.1188 26.9804 44.0173 26.2759 44.4323C26.0365 44.573 25.773 44.64 25.5127 44.64V44.6447H15.8003C14.9769 44.6447 14.3091 43.9874 14.3091 43.177V37.9111L3.60098 48.4502L14.3091 58.9892V53.7233C14.3091 52.9129 14.9769 52.2557 15.8003 52.2557C15.8448 52.2557 15.8883 52.2577 15.9318 52.2613L44.8407 52.2598C50.4362 52.1572 55.4886 49.8529 59.1409 46.1891C62.7811 42.5373 65.0266 37.5291 65.0266 32.0013C65.0266 30.1145 64.7694 28.2989 64.2881 26.5864C63.7878 24.8068 63.0467 23.1247 62.1013 21.5767C61.6796 20.8833 61.9096 19.9848 62.6141 19.5698C62.8534 19.429 63.1169 19.362 63.3772 19.362V19.3574V19.3564ZM71.5979 22.2922H65.8463C66.3743 23.4175 66.8132 24.5914 67.1542 25.8054C67.7115 27.788 68.009 29.866 68.009 32.0003C68.009 38.3209 65.4351 44.0544 61.2611 48.2409C57.0845 52.4304 51.2999 55.0657 44.8868 55.1832L17.2915 55.1848V62.5323C17.2915 62.9081 17.1459 63.2834 16.8547 63.5701C16.2722 64.1433 15.3279 64.1433 14.7454 63.5701L0.436831 49.4874C-0.14561 48.9141 -0.14561 47.9847 0.436831 47.4114L14.7391 33.3349C15.0094 33.0658 15.3849 32.8988 15.7998 32.8988C16.6232 32.8988 17.291 33.5561 17.291 34.3664V41.7078H23.0426C22.5146 40.5825 22.0757 39.4086 21.7347 38.1946C21.1774 36.212 20.8799 34.1339 20.8799 31.9997C20.8799 25.6744 23.4574 19.9378 27.6361 15.7504C31.818 11.5603 37.6083 8.92656 44.0262 8.81624L71.5974 8.81521V1.46766C71.5974 1.09185 71.743 0.716558 72.0342 0.429935C72.6167 -0.143312 73.561 -0.143312 74.1435 0.429935L88.4521 14.5126C89.0345 15.0859 89.0345 16.0153 88.4521 16.5886L74.1498 30.6651C73.8795 30.9342 73.5039 31.1012 73.0891 31.1012C72.2657 31.1012 71.5979 30.4439 71.5979 29.6336V22.2917V22.2922Z" fill="#F6F6F6"/>
</svg>
