<svg width="34" height="35" viewBox="0 0 34 35" fill="none" xmlns="http://www.w3.org/2000/svg">
<path d="M16.5139 34.1644C14.3019 34.168 12.1131 33.7131 10.0858 32.8284C8.11469 31.9689 6.33137 30.731 4.83682 29.185C3.32205 27.6268 2.12048 25.7924 1.29734 23.7812C-0.432446 19.5399 -0.432446 14.7899 1.29734 10.5486C2.12037 8.53704 3.32194 6.70224 4.83682 5.14378C6.33137 3.59775 8.11469 2.35991 10.0858 1.5004C12.1143 0.619246 14.3023 0.164551 16.5139 0.164551C18.7255 0.164551 20.9135 0.619246 22.942 1.5004C24.9131 2.35991 26.6964 3.59775 28.1909 5.14378C29.7057 6.70195 30.9073 8.53641 31.7304 10.5476C33.4602 14.7889 33.4602 19.5389 31.7304 23.7802C30.9073 25.7914 29.7057 27.6259 28.1909 29.184C26.6964 30.7301 24.9131 31.9679 22.942 32.8274C20.9147 33.7124 18.7259 34.1677 16.5139 34.1644ZM5.27203 25.3681C6.04758 25.8832 6.88172 26.304 7.75682 26.6218C10.0793 27.481 12.5919 27.6914 15.025 27.2305C18.1938 26.6951 21.0373 24.9666 22.9714 22.4001C24.9402 19.8884 25.9712 16.7686 25.8865 13.5784C25.8817 13.5164 25.8927 13.4543 25.9186 13.3979C25.9445 13.3415 25.9844 13.2926 26.0345 13.2559C26.4006 12.9695 26.7504 12.6628 27.0823 12.3374C27.3636 12.0434 27.6263 11.7287 27.8812 11.4219C27.991 11.2896 28.1047 11.1534 28.2184 11.02L28.1723 10.972L27.9086 11.07C27.7312 11.1377 27.5479 11.2063 27.3558 11.2661C27.0755 11.3543 26.7834 11.4347 26.4883 11.5033C26.3011 11.5464 26.108 11.5797 25.9208 11.6111L25.6581 11.6572C26.5535 11.0369 27.2167 10.1361 27.543 9.0969C26.7279 9.56419 25.8512 9.91461 24.9386 10.1379C24.8363 10.1736 24.7257 10.1779 24.6209 10.1503C24.5161 10.1227 24.422 10.0644 24.3505 9.983C23.4789 9.16181 22.3241 8.70853 21.1267 8.71757C20.2926 8.71108 19.4734 8.93787 18.7615 9.37234C17.9982 9.80481 17.374 10.4458 16.9619 11.2202C16.5498 11.9946 16.3668 12.8704 16.4345 13.745C16.4423 13.9204 16.4639 14.0939 16.4864 14.2782C16.4972 14.3625 16.508 14.4488 16.5168 14.537C14.6411 14.4218 12.8077 13.9305 11.1257 13.0922C9.46242 12.2305 7.98756 11.0459 6.78741 9.60759C6.26475 10.4744 6.04897 11.4919 6.17478 12.4962C6.24764 13.1764 6.46842 13.8325 6.82163 14.4183C7.17484 15.0042 7.65194 15.5057 8.21947 15.8877C7.48724 15.8605 6.77031 15.6703 6.12087 15.3309C6.09758 16.296 6.38181 17.2434 6.93247 18.0363C7.61684 19.036 8.65278 19.7413 9.83385 20.0114C9.45098 20.1182 9.05508 20.1709 8.65762 20.1682C8.36252 20.1662 8.06785 20.1453 7.77544 20.1055C8.07218 21.0388 8.65517 21.8549 9.44177 22.4383C10.2339 23.0294 11.1904 23.3593 12.1785 23.3823C10.4769 24.7098 8.37701 25.424 6.21889 25.4093C5.90817 25.4083 5.58667 25.3946 5.27203 25.3681Z" fill="#5489CA"/>
</svg>
