<svg width="565" height="724" viewBox="0 0 565 724" fill="none" xmlns="http://www.w3.org/2000/svg">
<g opacity="0.94" filter="url(#filter0_ddd_20_1262)">
<path d="M23.9063 -318C-272.627 -318 -513 -86.5393 -513 199C-513 484.539 -272.627 716 23.9063 716C320.44 716 560.813 484.539 560.813 199C560.813 -86.5393 320.44 -318 23.9063 -318ZM23.9063 511.194C-155.147 511.194 -300.308 371.415 -300.308 199C-300.308 26.585 -155.147 -113.194 23.9063 -113.194C202.96 -113.194 348.121 26.585 348.121 199C348.121 371.415 202.96 511.194 23.9063 511.194Z" fill="url(#paint0_radial_20_1262)"/>
</g>
<defs>
<filter id="filter0_ddd_20_1262" x="-517" y="-318" width="1081.81" height="1042" filterUnits="userSpaceOnUse" color-interpolation-filters="sRGB">
<feFlood flood-opacity="0" result="BackgroundImageFix"/>
<feColorMatrix in="SourceAlpha" type="matrix" values="0 0 0 0 0 0 0 0 0 0 0 0 0 0 0 0 0 0 127 0" result="hardAlpha"/>
<feOffset dy="4"/>
<feGaussianBlur stdDeviation="2"/>
<feComposite in2="hardAlpha" operator="out"/>
<feColorMatrix type="matrix" values="0 0 0 0 0 0 0 0 0 0 0 0 0 0 0 0 0 0 0.25 0"/>
<feBlend mode="normal" in2="BackgroundImageFix" result="effect1_dropShadow_20_1262"/>
<feColorMatrix in="SourceAlpha" type="matrix" values="0 0 0 0 0 0 0 0 0 0 0 0 0 0 0 0 0 0 127 0" result="hardAlpha"/>
<feOffset dy="4"/>
<feGaussianBlur stdDeviation="2"/>
<feComposite in2="hardAlpha" operator="out"/>
<feColorMatrix type="matrix" values="0 0 0 0 0 0 0 0 0 0 0 0 0 0 0 0 0 0 0.25 0"/>
<feBlend mode="normal" in2="effect1_dropShadow_20_1262" result="effect2_dropShadow_20_1262"/>
<feColorMatrix in="SourceAlpha" type="matrix" values="0 0 0 0 0 0 0 0 0 0 0 0 0 0 0 0 0 0 127 0" result="hardAlpha"/>
<feOffset dy="4"/>
<feGaussianBlur stdDeviation="2"/>
<feComposite in2="hardAlpha" operator="out"/>
<feColorMatrix type="matrix" values="0 0 0 0 0 0 0 0 0 0 0 0 0 0 0 0 0 0 0.25 0"/>
<feBlend mode="normal" in2="effect2_dropShadow_20_1262" result="effect3_dropShadow_20_1262"/>
<feBlend mode="normal" in="SourceGraphic" in2="effect3_dropShadow_20_1262" result="shape"/>
</filter>
<radialGradient id="paint0_radial_20_1262" cx="0" cy="0" r="1" gradientUnits="userSpaceOnUse" gradientTransform="translate(96.5231 -231.705) scale(1113.99 1072.69)">
<stop stop-color="#0A30A3"/>
<stop offset="1" stop-color="#00152A"/>
</radialGradient>
</defs>
</svg>
